<?xml version="1.0" encoding="utf-8"?>
<svg xmlns="http://www.w3.org/2000/svg" xmlns:xlink="http://www.w3.org/1999/xlink" width="300" height="200" viewBox="0 0 1200 800">
<defs>
  <clipPath id="clip420">
    <rect x="0" y="0" width="1200" height="800"/>
  </clipPath>
</defs>
<path clip-path="url(#clip420)" d="M0 800 L1200 800 L1200 0 L0 0  Z" fill="#ffffff" fill-rule="evenodd" fill-opacity="1"/>
<defs>
  <clipPath id="clip421">
    <rect x="240" y="0" width="841" height="800"/>
  </clipPath>
</defs>
<path clip-path="url(#clip420)" d="M258.22 631.18 L1152.76 631.18 L1152.76 47.2441 L258.22 47.2441  Z" fill="#ffffff" fill-rule="evenodd" fill-opacity="1"/>
<defs>
  <clipPath id="clip422">
    <rect x="258" y="47" width="896" height="585"/>
  </clipPath>
</defs>
<polyline clip-path="url(#clip422)" style="stroke:#000000; stroke-linecap:round; stroke-linejoin:round; stroke-width:2; stroke-opacity:0.1; fill:none" points="386.011,631.18 386.011,47.2441 "/>
<polyline clip-path="url(#clip422)" style="stroke:#000000; stroke-linecap:round; stroke-linejoin:round; stroke-width:2; stroke-opacity:0.1; fill:none" points="513.801,631.18 513.801,47.2441 "/>
<polyline clip-path="url(#clip422)" style="stroke:#000000; stroke-linecap:round; stroke-linejoin:round; stroke-width:2; stroke-opacity:0.1; fill:none" points="641.592,631.18 641.592,47.2441 "/>
<polyline clip-path="url(#clip422)" style="stroke:#000000; stroke-linecap:round; stroke-linejoin:round; stroke-width:2; stroke-opacity:0.1; fill:none" points="769.383,631.18 769.383,47.2441 "/>
<polyline clip-path="url(#clip422)" style="stroke:#000000; stroke-linecap:round; stroke-linejoin:round; stroke-width:2; stroke-opacity:0.1; fill:none" points="897.174,631.18 897.174,47.2441 "/>
<polyline clip-path="url(#clip422)" style="stroke:#000000; stroke-linecap:round; stroke-linejoin:round; stroke-width:2; stroke-opacity:0.1; fill:none" points="1024.97,631.18 1024.97,47.2441 "/>
<polyline clip-path="url(#clip420)" style="stroke:#000000; stroke-linecap:round; stroke-linejoin:round; stroke-width:4; stroke-opacity:1; fill:none" points="258.22,631.18 1152.76,631.18 "/>
<polyline clip-path="url(#clip420)" style="stroke:#000000; stroke-linecap:round; stroke-linejoin:round; stroke-width:4; stroke-opacity:1; fill:none" points="386.011,631.18 386.011,612.282 "/>
<polyline clip-path="url(#clip420)" style="stroke:#000000; stroke-linecap:round; stroke-linejoin:round; stroke-width:4; stroke-opacity:1; fill:none" points="513.801,631.18 513.801,612.282 "/>
<polyline clip-path="url(#clip420)" style="stroke:#000000; stroke-linecap:round; stroke-linejoin:round; stroke-width:4; stroke-opacity:1; fill:none" points="641.592,631.18 641.592,612.282 "/>
<polyline clip-path="url(#clip420)" style="stroke:#000000; stroke-linecap:round; stroke-linejoin:round; stroke-width:4; stroke-opacity:1; fill:none" points="769.383,631.18 769.383,612.282 "/>
<polyline clip-path="url(#clip420)" style="stroke:#000000; stroke-linecap:round; stroke-linejoin:round; stroke-width:4; stroke-opacity:1; fill:none" points="897.174,631.18 897.174,612.282 "/>
<polyline clip-path="url(#clip420)" style="stroke:#000000; stroke-linecap:round; stroke-linejoin:round; stroke-width:4; stroke-opacity:1; fill:none" points="1024.97,631.18 1024.97,612.282 "/>
<path clip-path="url(#clip420)" d="M375.907 683.98 Q375.907 683.066 375.981 682.794 Q376.08 682.522 376.475 682.102 L386.183 671.282 Q391.495 665.304 391.495 660.092 Q391.495 656.707 389.716 654.286 Q387.962 651.865 384.726 651.865 Q382.503 651.865 380.625 653.224 Q378.748 654.583 377.883 657.004 Q378.031 656.954 378.55 656.954 Q379.81 656.954 380.502 657.745 Q381.218 658.535 381.218 659.598 Q381.218 660.956 380.329 661.623 Q379.464 662.266 378.6 662.266 Q378.254 662.266 377.784 662.191 Q377.34 662.117 376.623 661.426 Q375.907 660.709 375.907 659.449 Q375.907 655.917 378.575 653.101 Q381.268 650.284 385.368 650.284 Q390.013 650.284 393.051 653.051 Q396.114 655.793 396.114 660.092 Q396.114 661.599 395.645 662.982 Q395.2 664.341 394.583 665.403 Q393.99 666.465 392.359 668.17 Q390.729 669.874 389.42 671.085 Q388.11 672.295 385.171 674.864 L379.81 680.077 L388.926 680.077 Q393.372 680.077 393.718 679.681 Q394.212 678.965 394.83 675.185 L396.114 675.185 L394.681 683.98 L375.907 683.98 Z" fill="#000000" fill-rule="nonzero" fill-opacity="1" /><path clip-path="url(#clip420)" d="M503.303 677.162 Q503.303 675.655 504.167 674.938 Q505.032 674.222 506.143 674.222 Q507.304 674.222 508.12 674.988 Q508.96 675.729 508.96 677.038 Q508.96 678.446 507.971 679.237 Q507.008 680.027 505.625 679.83 Q506.835 681.855 509.058 682.769 Q511.306 683.683 513.381 683.683 Q515.555 683.683 517.309 681.806 Q519.088 679.928 519.088 675.334 Q519.088 671.431 517.556 669.183 Q516.049 666.935 513.06 666.935 L510.837 666.935 Q510.071 666.935 509.849 666.86 Q509.627 666.786 509.627 666.366 Q509.627 665.872 510.392 665.773 Q511.158 665.773 512.369 665.625 Q515.308 665.526 516.865 662.982 Q518.273 660.61 518.273 657.226 Q518.273 654.138 516.791 652.854 Q515.333 651.544 513.431 651.544 Q511.652 651.544 509.701 652.285 Q507.749 653.027 506.687 654.682 Q509.824 654.682 509.824 657.226 Q509.824 658.338 509.108 659.079 Q508.416 659.795 507.255 659.795 Q506.143 659.795 505.402 659.104 Q504.661 658.387 504.661 657.177 Q504.661 654.286 507.23 652.285 Q509.824 650.284 513.629 650.284 Q517.383 650.284 520.15 652.261 Q522.942 654.237 522.942 657.276 Q522.942 660.265 520.965 662.71 Q518.989 665.156 515.852 666.169 Q519.706 666.935 522.003 669.553 Q524.3 672.147 524.3 675.334 Q524.3 679.286 521.188 682.201 Q518.075 685.091 513.53 685.091 Q509.33 685.091 506.316 682.819 Q503.303 680.546 503.303 677.162 Z" fill="#000000" fill-rule="nonzero" fill-opacity="1" /><path clip-path="url(#clip420)" d="M630.377 675.63 L630.377 674.074 L645.915 650.334 Q646.311 649.716 646.928 649.741 Q647.496 649.741 647.62 649.963 Q647.743 650.186 647.743 651.05 L647.743 674.074 L652.808 674.074 L652.808 675.63 L647.743 675.63 L647.743 680.027 Q647.743 681.485 648.336 681.954 Q648.954 682.424 651.573 682.424 L652.635 682.424 L652.635 683.98 Q650.56 683.832 645.767 683.832 Q640.999 683.832 638.924 683.98 L638.924 682.424 L639.987 682.424 Q642.605 682.424 643.223 681.979 Q643.84 681.51 643.84 680.027 L643.84 675.63 L630.377 675.63 M631.81 674.074 L644.137 674.074 L644.137 655.2 L631.81 674.074 Z" fill="#000000" fill-rule="nonzero" fill-opacity="1" /><path clip-path="url(#clip420)" d="M759.28 675.828 Q759.28 674.321 760.095 673.753 Q760.91 673.16 761.775 673.16 Q762.936 673.16 763.603 673.901 Q764.294 674.617 764.294 675.63 Q764.294 676.643 763.603 677.384 Q762.936 678.1 761.775 678.1 Q761.206 678.1 760.91 678.002 Q761.577 680.324 763.603 682.004 Q765.653 683.683 768.346 683.683 Q771.73 683.683 773.756 680.398 Q774.966 678.273 774.966 673.456 Q774.966 669.207 774.052 667.083 Q772.644 663.847 769.754 663.847 Q765.653 663.847 763.232 667.379 Q762.936 667.824 762.59 667.849 Q762.096 667.849 761.972 667.577 Q761.873 667.28 761.873 666.515 L761.873 651.544 Q761.873 650.334 762.367 650.334 Q762.565 650.334 762.985 650.482 Q766.172 651.89 769.704 651.915 Q773.336 651.915 776.597 650.433 Q776.844 650.284 776.992 650.284 Q777.486 650.284 777.511 650.853 Q777.511 651.05 777.091 651.643 Q776.695 652.211 775.831 652.977 Q774.966 653.718 773.855 654.435 Q772.743 655.151 771.112 655.645 Q769.507 656.114 767.728 656.114 Q765.604 656.114 763.43 655.447 L763.43 665.304 Q766.048 662.735 769.853 662.735 Q773.904 662.735 776.695 665.996 Q779.487 669.257 779.487 673.802 Q779.487 678.57 776.177 681.831 Q772.891 685.091 768.445 685.091 Q764.393 685.091 761.824 682.201 Q759.28 679.311 759.28 675.828 Z" fill="#000000" fill-rule="nonzero" fill-opacity="1" /><path clip-path="url(#clip420)" d="M886.675 667.997 Q886.675 660.042 890.727 655.176 Q894.778 650.284 899.99 650.284 Q903.029 650.284 904.709 651.841 Q906.413 653.372 906.413 655.744 Q906.413 657.053 905.647 657.621 Q904.882 658.19 904.091 658.19 Q903.177 658.19 902.461 657.572 Q901.744 656.954 901.744 655.843 Q901.744 653.57 904.536 653.57 Q903.226 651.544 900.089 651.544 Q899.126 651.544 898.138 651.841 Q897.149 652.113 895.865 653.051 Q894.58 653.99 893.592 655.472 Q892.604 656.954 891.912 659.746 Q891.221 662.537 891.221 666.169 L891.221 667.379 Q893.296 662.364 897.545 662.389 Q901.794 662.389 904.733 665.625 Q907.673 668.861 907.673 673.654 Q907.673 678.57 904.61 681.831 Q901.547 685.091 897.248 685.091 Q895.321 685.091 893.567 684.276 Q891.838 683.486 890.208 681.658 Q888.602 679.83 887.639 676.322 Q886.675 672.814 886.675 667.997 M891.319 672.542 Q891.319 677.508 892.233 679.879 Q892.382 680.274 892.703 680.818 Q893.049 681.361 893.617 682.078 Q894.21 682.769 895.173 683.239 Q896.137 683.683 897.248 683.683 Q900.633 683.683 902.263 680.398 Q903.128 678.57 903.128 673.604 Q903.128 668.54 902.214 666.687 Q900.657 663.55 897.495 663.55 Q895.371 663.55 893.889 665.008 Q892.431 666.465 891.863 668.417 Q891.319 670.368 891.319 672.542 Z" fill="#000000" fill-rule="nonzero" fill-opacity="1" /><path clip-path="url(#clip420)" d="M1014.12 660.191 L1015.78 649.79 L1017.04 649.79 Q1017.18 650.408 1017.43 650.68 Q1017.7 650.951 1019.14 651.174 Q1020.59 651.396 1023.53 651.396 L1035.81 651.396 Q1035.81 652.557 1035.37 653.175 L1028.52 662.784 Q1026.35 665.823 1025.38 671.431 Q1024.82 675.185 1024.84 679.731 L1024.84 682.3 Q1024.84 685.091 1022.49 685.091 Q1020.17 685.091 1020.17 682.3 Q1020.17 672.641 1026.4 663.278 Q1027.06 662.315 1029.51 658.881 Q1031.98 655.447 1032.08 655.299 L1021.61 655.299 Q1017.01 655.299 1016.64 655.596 Q1016.15 656.04 1015.38 660.191 L1014.12 660.191 Z" fill="#000000" fill-rule="nonzero" fill-opacity="1" /><path clip-path="url(#clip420)" d="M577.296 730.225 L577.296 728.051 L582.765 728.051 L582.765 720.069 Q582.765 714.906 586.093 711.95 Q589.456 708.995 593.566 708.995 Q596.283 708.995 598.05 710.456 Q599.816 711.916 599.816 713.887 Q599.816 715.211 599.001 716.094 Q598.22 716.944 596.759 716.944 Q595.366 716.944 594.551 716.06 Q593.77 715.177 593.77 713.955 Q593.77 711.713 595.842 711.033 Q594.789 710.558 593.566 710.524 Q591.053 710.524 589.082 713.105 Q587.146 715.687 587.146 720.001 L587.146 728.051 L595.298 728.051 L595.298 730.225 L587.384 730.225 L587.384 752.609 Q587.384 754.613 588.199 755.259 Q589.049 755.904 592.649 755.904 L594.11 755.904 L594.11 758.044 Q591.324 757.84 585.278 757.84 Q584.429 757.84 583.104 757.874 Q581.814 757.908 580.047 757.976 Q578.315 758.044 577.364 758.044 L577.364 755.904 Q581.066 755.904 581.915 755.462 Q582.765 754.987 582.765 752.745 L582.765 730.225 L577.296 730.225 Z" fill="#000000" fill-rule="nonzero" fill-opacity="1" /><path clip-path="url(#clip420)" d="M598.491 758.044 L598.491 755.904 Q602.194 755.904 603.043 755.462 Q603.892 754.987 603.892 752.745 L603.892 716.57 Q603.892 713.988 602.975 713.343 Q602.092 712.698 598.491 712.698 L598.491 710.524 L608.478 709.777 L608.478 752.745 Q608.478 754.987 609.361 755.462 Q610.244 755.904 613.912 755.904 L613.912 758.044 Q613.063 758.044 611.297 757.976 Q609.531 757.908 608.24 757.874 Q606.949 757.84 606.202 757.84 Q605.387 757.84 598.491 758.044 Z" fill="#000000" fill-rule="nonzero" fill-opacity="1" /><path clip-path="url(#clip420)" d="M617.377 742.725 Q617.377 736.169 621.589 731.516 Q625.801 726.862 631.847 726.862 Q637.961 726.862 641.12 730.836 Q644.313 734.81 644.313 740.517 Q644.313 741.57 644.041 741.774 Q643.77 741.977 642.581 741.977 L623.151 741.977 Q623.151 749.077 625.257 752.405 Q628.179 757.059 633.104 757.059 Q633.783 757.059 634.598 756.923 Q635.414 756.787 637.078 756.21 Q638.742 755.598 640.203 754.002 Q641.664 752.405 642.513 749.892 Q642.717 748.907 643.396 748.941 Q644.313 748.941 644.313 749.756 Q644.313 750.367 643.634 751.76 Q642.988 753.119 641.732 754.749 Q640.475 756.379 638.029 757.602 Q635.617 758.825 632.696 758.825 Q626.582 758.825 621.963 754.206 Q617.377 749.552 617.377 742.725 M623.219 740.517 L639.727 740.517 Q639.727 739.056 639.456 737.426 Q639.218 735.795 638.471 733.554 Q637.757 731.278 636.059 729.851 Q634.361 728.425 631.847 728.425 Q630.726 728.425 629.503 728.9 Q628.314 729.376 626.854 730.53 Q625.393 731.685 624.374 734.301 Q623.355 736.916 623.219 740.517 Z" fill="#000000" fill-rule="nonzero" fill-opacity="1" /><path clip-path="url(#clip420)" d="M648.253 742.725 Q648.253 736.169 652.465 731.516 Q656.677 726.862 662.723 726.862 Q668.837 726.862 671.996 730.836 Q675.189 734.81 675.189 740.517 Q675.189 741.57 674.917 741.774 Q674.646 741.977 673.457 741.977 L654.028 741.977 Q654.028 749.077 656.134 752.405 Q659.055 757.059 663.98 757.059 Q664.659 757.059 665.475 756.923 Q666.29 756.787 667.954 756.21 Q669.619 755.598 671.079 754.002 Q672.54 752.405 673.389 749.892 Q673.593 748.907 674.272 748.941 Q675.189 748.941 675.189 749.756 Q675.189 750.367 674.51 751.76 Q673.864 753.119 672.608 754.749 Q671.351 756.379 668.905 757.602 Q666.494 758.825 663.572 758.825 Q657.458 758.825 652.839 754.206 Q648.253 749.552 648.253 742.725 M654.096 740.517 L670.604 740.517 Q670.604 739.056 670.332 737.426 Q670.094 735.795 669.347 733.554 Q668.633 731.278 666.935 729.851 Q665.237 728.425 662.723 728.425 Q661.602 728.425 660.379 728.9 Q659.191 729.376 657.73 730.53 Q656.269 731.685 655.25 734.301 Q654.231 736.916 654.096 740.517 Z" fill="#000000" fill-rule="nonzero" fill-opacity="1" /><path clip-path="url(#clip420)" d="M678.518 730.225 L678.518 728.696 Q681.711 728.56 683.817 726.319 Q685.957 724.043 686.67 721.257 Q687.417 718.472 687.485 715.245 L689.218 715.245 L689.218 728.051 L699.17 728.051 L699.17 730.225 L689.218 730.225 L689.218 749.552 Q689.218 757.059 693.905 757.059 Q695.909 757.059 697.234 755.021 Q698.558 752.949 698.558 749.28 L698.558 745.442 L700.291 745.442 L700.291 749.416 Q700.291 753.187 698.558 756.006 Q696.826 758.825 693.395 758.825 Q692.139 758.825 690.882 758.485 Q689.659 758.18 688.029 757.365 Q686.432 756.515 685.413 754.477 Q684.428 752.405 684.428 749.416 L684.428 730.225 L678.518 730.225 Z" fill="#000000" fill-rule="nonzero" fill-opacity="1" /><path clip-path="url(#clip420)" d="M729.604 757.127 L729.604 747.956 Q729.604 747.174 729.638 746.903 Q729.672 746.631 729.876 746.427 Q730.08 746.223 730.488 746.223 Q730.963 746.223 731.133 746.427 Q731.337 746.631 731.473 747.412 Q732.526 752.201 734.767 754.749 Q737.043 757.263 741.153 757.263 Q745.059 757.263 747.03 755.53 Q749 753.798 749 750.945 Q749 745.85 741.765 744.559 Q737.587 743.71 735.854 743.166 Q734.122 742.589 732.594 741.332 Q729.604 738.886 729.604 735.422 Q729.604 731.957 732.22 729.41 Q734.869 726.862 740.712 726.862 Q744.618 726.862 747.267 728.832 Q748.049 728.221 748.456 727.711 Q749.373 726.862 749.849 726.862 Q750.392 726.862 750.494 727.236 Q750.596 727.575 750.596 728.56 L750.596 735.558 Q750.596 736.339 750.562 736.611 Q750.528 736.882 750.324 737.086 Q750.121 737.256 749.679 737.256 Q748.898 737.256 748.864 736.611 Q748.32 728.187 740.712 728.187 Q736.602 728.187 734.767 729.783 Q732.933 731.346 732.933 733.486 Q732.933 734.674 733.477 735.592 Q734.054 736.475 734.767 737.018 Q735.515 737.528 736.873 738.037 Q738.232 738.513 739.047 738.683 Q739.896 738.852 741.493 739.192 Q747.064 740.245 749.407 742.521 Q752.328 745.442 752.328 749.144 Q752.328 753.254 749.543 756.04 Q746.758 758.825 741.153 758.825 Q736.636 758.825 733.477 755.802 Q733.069 756.21 732.763 756.583 Q732.458 756.923 732.322 757.059 Q732.22 757.195 732.186 757.297 Q732.152 757.365 732.084 757.432 Q730.691 758.825 730.352 758.825 Q729.808 758.825 729.706 758.451 Q729.604 758.112 729.604 757.127 Z" fill="#000000" fill-rule="nonzero" fill-opacity="1" /><path clip-path="url(#clip420)" d="M756.982 758.044 L756.982 755.904 Q760.684 755.904 761.534 755.462 Q762.383 754.987 762.383 752.745 L762.383 734.029 Q762.383 731.448 761.5 730.836 Q760.65 730.225 757.254 730.225 L757.254 728.051 L766.968 727.304 L766.968 752.813 Q766.968 754.885 767.716 755.394 Q768.463 755.904 771.86 755.904 L771.86 758.044 Q764.76 757.84 764.625 757.84 Q763.673 757.84 756.982 758.044 M759.903 715.177 Q759.903 713.785 760.956 712.664 Q762.043 711.509 763.572 711.509 Q765.1 711.509 766.187 712.562 Q767.274 713.581 767.274 715.211 Q767.274 716.808 766.187 717.861 Q765.1 718.88 763.572 718.88 Q761.975 718.88 760.922 717.759 Q759.903 716.638 759.903 715.177 Z" fill="#000000" fill-rule="nonzero" fill-opacity="1" /><path clip-path="url(#clip420)" d="M775.868 757.059 Q775.868 756.583 776.513 755.802 L795.908 729.579 L787.994 729.579 Q782.491 729.579 780.691 731.617 Q778.925 733.621 778.585 739.26 L776.853 739.26 L777.634 728.051 L799.882 728.051 Q800.664 728.051 800.969 728.085 Q801.275 728.119 801.479 728.357 Q801.683 728.56 801.683 728.968 Q801.683 729.376 801.071 730.157 L781.71 756.312 L789.93 756.312 Q795.704 756.312 797.641 753.9 Q799.611 751.488 800.086 745.034 L801.819 745.034 L800.63 758.044 L777.702 758.044 Q776.581 758.044 776.207 757.908 Q775.868 757.738 775.868 757.059 Z" fill="#000000" fill-rule="nonzero" fill-opacity="1" /><path clip-path="url(#clip420)" d="M806.744 742.725 Q806.744 736.169 810.956 731.516 Q815.168 726.862 821.214 726.862 Q827.328 726.862 830.487 730.836 Q833.68 734.81 833.68 740.517 Q833.68 741.57 833.408 741.774 Q833.136 741.977 831.947 741.977 L812.518 741.977 Q812.518 749.077 814.624 752.405 Q817.545 757.059 822.471 757.059 Q823.15 757.059 823.965 756.923 Q824.78 756.787 826.445 756.21 Q828.109 755.598 829.57 754.002 Q831.03 752.405 831.879 749.892 Q832.083 748.907 832.763 748.941 Q833.68 748.941 833.68 749.756 Q833.68 750.367 833 751.76 Q832.355 753.119 831.098 754.749 Q829.841 756.379 827.396 757.602 Q824.984 758.825 822.063 758.825 Q815.949 758.825 811.329 754.206 Q806.744 749.552 806.744 742.725 M812.586 740.517 L829.094 740.517 Q829.094 739.056 828.822 737.426 Q828.585 735.795 827.837 733.554 Q827.124 731.278 825.426 729.851 Q823.727 728.425 821.214 728.425 Q820.093 728.425 818.87 728.9 Q817.681 729.376 816.221 730.53 Q814.76 731.685 813.741 734.301 Q812.722 736.916 812.586 740.517 Z" fill="#000000" fill-rule="nonzero" fill-opacity="1" /><polyline clip-path="url(#clip422)" style="stroke:#000000; stroke-linecap:round; stroke-linejoin:round; stroke-width:2; stroke-opacity:0.1; fill:none" points="258.22,596.831 1152.76,596.831 "/>
<polyline clip-path="url(#clip422)" style="stroke:#000000; stroke-linecap:round; stroke-linejoin:round; stroke-width:2; stroke-opacity:0.1; fill:none" points="258.22,459.434 1152.76,459.434 "/>
<polyline clip-path="url(#clip422)" style="stroke:#000000; stroke-linecap:round; stroke-linejoin:round; stroke-width:2; stroke-opacity:0.1; fill:none" points="258.22,322.037 1152.76,322.037 "/>
<polyline clip-path="url(#clip422)" style="stroke:#000000; stroke-linecap:round; stroke-linejoin:round; stroke-width:2; stroke-opacity:0.1; fill:none" points="258.22,184.641 1152.76,184.641 "/>
<polyline clip-path="url(#clip422)" style="stroke:#000000; stroke-linecap:round; stroke-linejoin:round; stroke-width:2; stroke-opacity:0.1; fill:none" points="258.22,47.2441 1152.76,47.2441 "/>
<polyline clip-path="url(#clip420)" style="stroke:#000000; stroke-linecap:round; stroke-linejoin:round; stroke-width:4; stroke-opacity:1; fill:none" points="258.22,631.18 258.22,47.2441 "/>
<polyline clip-path="url(#clip420)" style="stroke:#000000; stroke-linecap:round; stroke-linejoin:round; stroke-width:4; stroke-opacity:1; fill:none" points="258.22,596.831 277.117,596.831 "/>
<polyline clip-path="url(#clip420)" style="stroke:#000000; stroke-linecap:round; stroke-linejoin:round; stroke-width:4; stroke-opacity:1; fill:none" points="258.22,459.434 277.117,459.434 "/>
<polyline clip-path="url(#clip420)" style="stroke:#000000; stroke-linecap:round; stroke-linejoin:round; stroke-width:4; stroke-opacity:1; fill:none" points="258.22,322.037 277.117,322.037 "/>
<polyline clip-path="url(#clip420)" style="stroke:#000000; stroke-linecap:round; stroke-linejoin:round; stroke-width:4; stroke-opacity:1; fill:none" points="258.22,184.641 277.117,184.641 "/>
<polyline clip-path="url(#clip420)" style="stroke:#000000; stroke-linecap:round; stroke-linejoin:round; stroke-width:4; stroke-opacity:1; fill:none" points="258.22,47.2441 277.117,47.2441 "/>
<path clip-path="url(#clip420)" d="M143.58 614.111 Q143.58 613.197 143.654 612.925 Q143.753 612.653 144.148 612.233 L153.857 601.413 Q159.168 595.435 159.168 590.223 Q159.168 586.838 157.389 584.417 Q155.635 581.996 152.399 581.996 Q150.176 581.996 148.298 583.355 Q146.421 584.714 145.556 587.135 Q145.705 587.085 146.223 587.085 Q147.483 587.085 148.175 587.876 Q148.891 588.666 148.891 589.728 Q148.891 591.087 148.002 591.754 Q147.137 592.396 146.273 592.396 Q145.927 592.396 145.458 592.322 Q145.013 592.248 144.297 591.557 Q143.58 590.84 143.58 589.58 Q143.58 586.048 146.248 583.231 Q148.941 580.415 153.042 580.415 Q157.686 580.415 160.724 583.182 Q163.787 585.924 163.787 590.223 Q163.787 591.729 163.318 593.113 Q162.873 594.472 162.256 595.534 Q161.663 596.596 160.033 598.301 Q158.402 600.005 157.093 601.216 Q155.784 602.426 152.844 604.995 L147.483 610.208 L156.599 610.208 Q161.045 610.208 161.391 609.812 Q161.885 609.096 162.503 605.316 L163.787 605.316 L162.355 614.111 L143.58 614.111 Z" fill="#000000" fill-rule="nonzero" fill-opacity="1" /><path clip-path="url(#clip420)" d="M168.333 597.93 Q168.333 590.494 170.21 586.443 Q172.829 580.415 179.005 580.415 Q180.314 580.415 181.673 580.786 Q183.056 581.132 184.785 582.49 Q186.539 583.849 187.602 586.072 Q189.627 590.371 189.627 597.93 Q189.627 605.316 187.75 609.343 Q185.008 615.222 178.955 615.222 Q176.683 615.222 174.361 614.061 Q172.063 612.9 170.606 610.109 Q168.333 605.934 168.333 597.93 M172.532 597.312 Q172.532 604.946 173.076 607.984 Q173.694 611.27 175.373 612.703 Q177.078 614.111 178.955 614.111 Q180.981 614.111 182.661 612.604 Q184.365 611.072 184.884 607.787 Q185.452 604.55 185.428 597.312 Q185.428 590.272 184.934 587.456 Q184.267 584.17 182.488 582.861 Q180.734 581.527 178.955 581.527 Q178.288 581.527 177.572 581.725 Q176.88 581.922 175.867 582.49 Q174.855 583.059 174.064 584.467 Q173.298 585.875 172.928 587.999 Q172.532 590.741 172.532 597.312 Z" fill="#000000" fill-rule="nonzero" fill-opacity="1" /><path clip-path="url(#clip420)" d="M193.629 597.93 Q193.629 590.494 195.507 586.443 Q198.125 580.415 204.301 580.415 Q205.61 580.415 206.969 580.786 Q208.352 581.132 210.082 582.49 Q211.836 583.849 212.898 586.072 Q214.923 590.371 214.923 597.93 Q214.923 605.316 213.046 609.343 Q210.304 615.222 204.252 615.222 Q201.979 615.222 199.657 614.061 Q197.359 612.9 195.902 610.109 Q193.629 605.934 193.629 597.93 M197.829 597.312 Q197.829 604.946 198.372 607.984 Q198.99 611.27 200.67 612.703 Q202.374 614.111 204.252 614.111 Q206.277 614.111 207.957 612.604 Q209.662 611.072 210.18 607.787 Q210.749 604.55 210.724 597.312 Q210.724 590.272 210.23 587.456 Q209.563 584.17 207.784 582.861 Q206.03 581.527 204.252 581.527 Q203.585 581.527 202.868 581.725 Q202.176 581.922 201.164 582.49 Q200.151 583.059 199.36 584.467 Q198.595 585.875 198.224 587.999 Q197.829 590.741 197.829 597.312 Z" fill="#000000" fill-rule="nonzero" fill-opacity="1" /><path clip-path="url(#clip420)" d="M218.925 597.93 Q218.925 590.494 220.803 586.443 Q223.421 580.415 229.597 580.415 Q230.907 580.415 232.265 580.786 Q233.649 581.132 235.378 582.49 Q237.132 583.849 238.194 586.072 Q240.22 590.371 240.22 597.93 Q240.22 605.316 238.342 609.343 Q235.6 615.222 229.548 615.222 Q227.275 615.222 224.953 614.061 Q222.656 612.9 221.198 610.109 Q218.925 605.934 218.925 597.93 M223.125 597.312 Q223.125 604.946 223.668 607.984 Q224.286 611.27 225.966 612.703 Q227.67 614.111 229.548 614.111 Q231.573 614.111 233.253 612.604 Q234.958 611.072 235.477 607.787 Q236.045 604.55 236.02 597.312 Q236.02 590.272 235.526 587.456 Q234.859 584.17 233.08 582.861 Q231.326 581.527 229.548 581.527 Q228.881 581.527 228.164 581.725 Q227.473 581.922 226.46 582.49 Q225.447 583.059 224.657 584.467 Q223.891 585.875 223.52 587.999 Q223.125 590.741 223.125 597.312 Z" fill="#000000" fill-rule="nonzero" fill-opacity="1" /><path clip-path="url(#clip420)" d="M142.468 468.364 L142.468 466.808 L158.007 443.068 Q158.402 442.45 159.02 442.475 Q159.588 442.475 159.711 442.698 Q159.835 442.92 159.835 443.784 L159.835 466.808 L164.899 466.808 L164.899 468.364 L159.835 468.364 L159.835 472.761 Q159.835 474.219 160.428 474.688 Q161.045 475.158 163.664 475.158 L164.726 475.158 L164.726 476.714 Q162.651 476.566 157.859 476.566 Q153.091 476.566 151.016 476.714 L151.016 475.158 L152.078 475.158 Q154.697 475.158 155.314 474.713 Q155.932 474.244 155.932 472.761 L155.932 468.364 L142.468 468.364 M143.901 466.808 L156.228 466.808 L156.228 447.935 L143.901 466.808 Z" fill="#000000" fill-rule="nonzero" fill-opacity="1" /><path clip-path="url(#clip420)" d="M168.333 460.533 Q168.333 453.098 170.21 449.046 Q172.829 443.019 179.005 443.019 Q180.314 443.019 181.673 443.389 Q183.056 443.735 184.785 445.094 Q186.539 446.452 187.602 448.676 Q189.627 452.974 189.627 460.533 Q189.627 467.92 187.75 471.946 Q185.008 477.826 178.955 477.826 Q176.683 477.826 174.361 476.665 Q172.063 475.504 170.606 472.712 Q168.333 468.537 168.333 460.533 M172.532 459.916 Q172.532 467.549 173.076 470.588 Q173.694 473.873 175.373 475.306 Q177.078 476.714 178.955 476.714 Q180.981 476.714 182.661 475.207 Q184.365 473.676 184.884 470.39 Q185.452 467.154 185.428 459.916 Q185.428 452.875 184.934 450.059 Q184.267 446.774 182.488 445.464 Q180.734 444.13 178.955 444.13 Q178.288 444.13 177.572 444.328 Q176.88 444.526 175.867 445.094 Q174.855 445.662 174.064 447.07 Q173.298 448.478 172.928 450.603 Q172.532 453.345 172.532 459.916 Z" fill="#000000" fill-rule="nonzero" fill-opacity="1" /><path clip-path="url(#clip420)" d="M193.629 460.533 Q193.629 453.098 195.507 449.046 Q198.125 443.019 204.301 443.019 Q205.61 443.019 206.969 443.389 Q208.352 443.735 210.082 445.094 Q211.836 446.452 212.898 448.676 Q214.923 452.974 214.923 460.533 Q214.923 467.92 213.046 471.946 Q210.304 477.826 204.252 477.826 Q201.979 477.826 199.657 476.665 Q197.359 475.504 195.902 472.712 Q193.629 468.537 193.629 460.533 M197.829 459.916 Q197.829 467.549 198.372 470.588 Q198.99 473.873 200.67 475.306 Q202.374 476.714 204.252 476.714 Q206.277 476.714 207.957 475.207 Q209.662 473.676 210.18 470.39 Q210.749 467.154 210.724 459.916 Q210.724 452.875 210.23 450.059 Q209.563 446.774 207.784 445.464 Q206.03 444.13 204.252 444.13 Q203.585 444.13 202.868 444.328 Q202.176 444.526 201.164 445.094 Q200.151 445.662 199.36 447.07 Q198.595 448.478 198.224 450.603 Q197.829 453.345 197.829 459.916 Z" fill="#000000" fill-rule="nonzero" fill-opacity="1" /><path clip-path="url(#clip420)" d="M218.925 460.533 Q218.925 453.098 220.803 449.046 Q223.421 443.019 229.597 443.019 Q230.907 443.019 232.265 443.389 Q233.649 443.735 235.378 445.094 Q237.132 446.452 238.194 448.676 Q240.22 452.974 240.22 460.533 Q240.22 467.92 238.342 471.946 Q235.6 477.826 229.548 477.826 Q227.275 477.826 224.953 476.665 Q222.656 475.504 221.198 472.712 Q218.925 468.537 218.925 460.533 M223.125 459.916 Q223.125 467.549 223.668 470.588 Q224.286 473.873 225.966 475.306 Q227.67 476.714 229.548 476.714 Q231.573 476.714 233.253 475.207 Q234.958 473.676 235.477 470.39 Q236.045 467.154 236.02 459.916 Q236.02 452.875 235.526 450.059 Q234.859 446.774 233.08 445.464 Q231.326 444.13 229.548 444.13 Q228.881 444.13 228.164 444.328 Q227.473 444.526 226.46 445.094 Q225.447 445.662 224.657 447.07 Q223.891 448.478 223.52 450.603 Q223.125 453.345 223.125 459.916 Z" fill="#000000" fill-rule="nonzero" fill-opacity="1" /><path clip-path="url(#clip420)" d="M143.185 323.334 Q143.185 315.38 147.236 310.513 Q151.288 305.622 156.5 305.622 Q159.538 305.622 161.218 307.178 Q162.923 308.71 162.923 311.081 Q162.923 312.391 162.157 312.959 Q161.391 313.527 160.601 313.527 Q159.687 313.527 158.97 312.909 Q158.254 312.292 158.254 311.18 Q158.254 308.908 161.045 308.908 Q159.736 306.882 156.599 306.882 Q155.635 306.882 154.647 307.178 Q153.659 307.45 152.375 308.389 Q151.09 309.328 150.102 310.81 Q149.114 312.292 148.422 315.083 Q147.73 317.875 147.73 321.506 L147.73 322.717 Q149.805 317.702 154.054 317.727 Q158.303 317.727 161.243 320.963 Q164.183 324.199 164.183 328.991 Q164.183 333.907 161.12 337.168 Q158.056 340.429 153.758 340.429 Q151.831 340.429 150.077 339.614 Q148.348 338.823 146.717 336.995 Q145.112 335.167 144.148 331.659 Q143.185 328.151 143.185 323.334 M147.829 327.88 Q147.829 332.845 148.743 335.217 Q148.891 335.612 149.212 336.155 Q149.558 336.699 150.127 337.415 Q150.719 338.107 151.683 338.576 Q152.646 339.021 153.758 339.021 Q157.142 339.021 158.773 335.735 Q159.637 333.907 159.637 328.942 Q159.637 323.878 158.723 322.025 Q157.167 318.888 154.005 318.888 Q151.88 318.888 150.398 320.345 Q148.941 321.803 148.373 323.754 Q147.829 325.706 147.829 327.88 Z" fill="#000000" fill-rule="nonzero" fill-opacity="1" /><path clip-path="url(#clip420)" d="M168.333 323.137 Q168.333 315.701 170.21 311.65 Q172.829 305.622 179.005 305.622 Q180.314 305.622 181.673 305.993 Q183.056 306.338 184.785 307.697 Q186.539 309.056 187.602 311.279 Q189.627 315.577 189.627 323.137 Q189.627 330.523 187.75 334.55 Q185.008 340.429 178.955 340.429 Q176.683 340.429 174.361 339.268 Q172.063 338.107 170.606 335.315 Q168.333 331.141 168.333 323.137 M172.532 322.519 Q172.532 330.152 173.076 333.191 Q173.694 336.477 175.373 337.909 Q177.078 339.317 178.955 339.317 Q180.981 339.317 182.661 337.81 Q184.365 336.279 184.884 332.993 Q185.452 329.757 185.428 322.519 Q185.428 315.479 184.934 312.662 Q184.267 309.377 182.488 308.068 Q180.734 306.734 178.955 306.734 Q178.288 306.734 177.572 306.931 Q176.88 307.129 175.867 307.697 Q174.855 308.265 174.064 309.673 Q173.298 311.081 172.928 313.206 Q172.532 315.948 172.532 322.519 Z" fill="#000000" fill-rule="nonzero" fill-opacity="1" /><path clip-path="url(#clip420)" d="M193.629 323.137 Q193.629 315.701 195.507 311.65 Q198.125 305.622 204.301 305.622 Q205.61 305.622 206.969 305.993 Q208.352 306.338 210.082 307.697 Q211.836 309.056 212.898 311.279 Q214.923 315.577 214.923 323.137 Q214.923 330.523 213.046 334.55 Q210.304 340.429 204.252 340.429 Q201.979 340.429 199.657 339.268 Q197.359 338.107 195.902 335.315 Q193.629 331.141 193.629 323.137 M197.829 322.519 Q197.829 330.152 198.372 333.191 Q198.99 336.477 200.67 337.909 Q202.374 339.317 204.252 339.317 Q206.277 339.317 207.957 337.81 Q209.662 336.279 210.18 332.993 Q210.749 329.757 210.724 322.519 Q210.724 315.479 210.23 312.662 Q209.563 309.377 207.784 308.068 Q206.03 306.734 204.252 306.734 Q203.585 306.734 202.868 306.931 Q202.176 307.129 201.164 307.697 Q200.151 308.265 199.36 309.673 Q198.595 311.081 198.224 313.206 Q197.829 315.948 197.829 322.519 Z" fill="#000000" fill-rule="nonzero" fill-opacity="1" /><path clip-path="url(#clip420)" d="M218.925 323.137 Q218.925 315.701 220.803 311.65 Q223.421 305.622 229.597 305.622 Q230.907 305.622 232.265 305.993 Q233.649 306.338 235.378 307.697 Q237.132 309.056 238.194 311.279 Q240.22 315.577 240.22 323.137 Q240.22 330.523 238.342 334.55 Q235.6 340.429 229.548 340.429 Q227.275 340.429 224.953 339.268 Q222.656 338.107 221.198 335.315 Q218.925 331.141 218.925 323.137 M223.125 322.519 Q223.125 330.152 223.668 333.191 Q224.286 336.477 225.966 337.909 Q227.67 339.317 229.548 339.317 Q231.573 339.317 233.253 337.81 Q234.958 336.279 235.477 332.993 Q236.045 329.757 236.02 322.519 Q236.02 315.479 235.526 312.662 Q234.859 309.377 233.08 308.068 Q231.326 306.734 229.548 306.734 Q228.881 306.734 228.164 306.931 Q227.473 307.129 226.46 307.697 Q225.447 308.265 224.657 309.673 Q223.891 311.081 223.52 313.206 Q223.125 315.948 223.125 322.519 Z" fill="#000000" fill-rule="nonzero" fill-opacity="1" /><path clip-path="url(#clip420)" d="M143.185 194.287 Q143.185 188.63 150.472 184.974 Q147.335 182.85 146.767 182.232 Q144.544 179.762 144.544 176.674 Q144.544 173.141 147.212 170.696 Q149.904 168.225 153.709 168.225 Q157.34 168.225 160.082 170.325 Q162.824 172.425 162.824 175.76 Q162.824 180.454 156.698 183.616 Q160.749 186.135 161.712 187.198 Q164.183 189.94 164.183 193.423 Q164.183 197.474 161.07 200.266 Q157.957 203.032 153.659 203.032 Q149.46 203.032 146.322 200.587 Q143.185 198.141 143.185 194.287 M145.705 194.287 Q145.705 197.425 148.051 199.525 Q150.423 201.624 153.709 201.624 Q156.895 201.624 159.267 199.796 Q161.663 197.968 161.663 195.251 Q161.663 194.189 161.292 193.275 Q160.947 192.361 160.23 191.644 Q159.538 190.903 159.094 190.582 Q158.674 190.236 157.859 189.668 L151.633 185.74 Q145.705 189.026 145.705 194.287 M146.767 174.698 Q146.767 177.119 149.311 178.798 L155.586 182.85 Q160.601 179.91 160.601 175.76 Q160.601 173.067 158.55 171.289 Q156.5 169.485 153.659 169.485 Q150.868 169.485 148.817 170.967 Q146.767 172.425 146.767 174.698 Z" fill="#000000" fill-rule="nonzero" fill-opacity="1" /><path clip-path="url(#clip420)" d="M168.333 185.74 Q168.333 178.304 170.21 174.253 Q172.829 168.225 179.005 168.225 Q180.314 168.225 181.673 168.596 Q183.056 168.942 184.785 170.3 Q186.539 171.659 187.602 173.882 Q189.627 178.181 189.627 185.74 Q189.627 193.126 187.75 197.153 Q185.008 203.032 178.955 203.032 Q176.683 203.032 174.361 201.871 Q172.063 200.71 170.606 197.919 Q168.333 193.744 168.333 185.74 M172.532 185.122 Q172.532 192.756 173.076 195.794 Q173.694 199.08 175.373 200.513 Q177.078 201.921 178.955 201.921 Q180.981 201.921 182.661 200.414 Q184.365 198.882 184.884 195.597 Q185.452 192.361 185.428 185.122 Q185.428 178.082 184.934 175.266 Q184.267 171.98 182.488 170.671 Q180.734 169.337 178.955 169.337 Q178.288 169.337 177.572 169.535 Q176.88 169.732 175.867 170.3 Q174.855 170.869 174.064 172.277 Q173.298 173.685 172.928 175.809 Q172.532 178.551 172.532 185.122 Z" fill="#000000" fill-rule="nonzero" fill-opacity="1" /><path clip-path="url(#clip420)" d="M193.629 185.74 Q193.629 178.304 195.507 174.253 Q198.125 168.225 204.301 168.225 Q205.61 168.225 206.969 168.596 Q208.352 168.942 210.082 170.3 Q211.836 171.659 212.898 173.882 Q214.923 178.181 214.923 185.74 Q214.923 193.126 213.046 197.153 Q210.304 203.032 204.252 203.032 Q201.979 203.032 199.657 201.871 Q197.359 200.71 195.902 197.919 Q193.629 193.744 193.629 185.74 M197.829 185.122 Q197.829 192.756 198.372 195.794 Q198.99 199.08 200.67 200.513 Q202.374 201.921 204.252 201.921 Q206.277 201.921 207.957 200.414 Q209.662 198.882 210.18 195.597 Q210.749 192.361 210.724 185.122 Q210.724 178.082 210.23 175.266 Q209.563 171.98 207.784 170.671 Q206.03 169.337 204.252 169.337 Q203.585 169.337 202.868 169.535 Q202.176 169.732 201.164 170.3 Q200.151 170.869 199.36 172.277 Q198.595 173.685 198.224 175.809 Q197.829 178.551 197.829 185.122 Z" fill="#000000" fill-rule="nonzero" fill-opacity="1" /><path clip-path="url(#clip420)" d="M218.925 185.74 Q218.925 178.304 220.803 174.253 Q223.421 168.225 229.597 168.225 Q230.907 168.225 232.265 168.596 Q233.649 168.942 235.378 170.3 Q237.132 171.659 238.194 173.882 Q240.22 178.181 240.22 185.74 Q240.22 193.126 238.342 197.153 Q235.6 203.032 229.548 203.032 Q227.275 203.032 224.953 201.871 Q222.656 200.71 221.198 197.919 Q218.925 193.744 218.925 185.74 M223.125 185.122 Q223.125 192.756 223.668 195.794 Q224.286 199.08 225.966 200.513 Q227.67 201.921 229.548 201.921 Q231.573 201.921 233.253 200.414 Q234.958 198.882 235.477 195.597 Q236.045 192.361 236.02 185.122 Q236.02 178.082 235.526 175.266 Q234.859 171.98 233.08 170.671 Q231.326 169.337 229.548 169.337 Q228.881 169.337 228.164 169.535 Q227.473 169.732 226.46 170.3 Q225.447 170.869 224.657 172.277 Q223.891 173.685 223.52 175.809 Q223.125 178.551 223.125 185.122 Z" fill="#000000" fill-rule="nonzero" fill-opacity="1" /><path clip-path="url(#clip420)" d="M120.26 35.6459 L120.26 34.0649 Q126.337 34.0649 129.475 30.8287 Q130.339 30.8287 130.487 31.0263 Q130.636 31.224 130.636 32.138 L130.636 60.5222 Q130.636 62.0291 131.377 62.4984 Q132.118 62.9678 135.354 62.9678 L136.96 62.9678 L136.96 64.5241 Q135.181 64.3759 128.758 64.3759 Q122.335 64.3759 120.581 64.5241 L120.581 62.9678 L122.187 62.9678 Q125.374 62.9678 126.14 62.5231 Q126.905 62.0538 126.905 60.5222 L126.905 34.3119 Q124.262 35.6459 120.26 35.6459 Z" fill="#000000" fill-rule="nonzero" fill-opacity="1" /><path clip-path="url(#clip420)" d="M143.037 48.3434 Q143.037 40.9077 144.914 36.8563 Q147.533 30.8287 153.709 30.8287 Q155.018 30.8287 156.376 31.1993 Q157.76 31.5451 159.489 32.9038 Q161.243 34.2625 162.305 36.4858 Q164.331 40.7842 164.331 48.3434 Q164.331 55.7297 162.453 59.7563 Q159.711 65.6357 153.659 65.6357 Q151.386 65.6357 149.064 64.4747 Q146.767 63.3136 145.309 60.5222 Q143.037 56.3473 143.037 48.3434 M147.236 47.7258 Q147.236 55.3591 147.78 58.3977 Q148.397 61.6832 150.077 63.116 Q151.782 64.5241 153.659 64.5241 Q155.685 64.5241 157.365 63.0172 Q159.069 61.4856 159.588 58.2 Q160.156 54.9639 160.131 47.7258 Q160.131 40.6854 159.637 37.8692 Q158.97 34.5836 157.192 33.2743 Q155.438 31.9404 153.659 31.9404 Q152.992 31.9404 152.276 32.138 Q151.584 32.3356 150.571 32.9038 Q149.558 33.472 148.768 34.8801 Q148.002 36.2882 147.631 38.4126 Q147.236 41.1547 147.236 47.7258 Z" fill="#000000" fill-rule="nonzero" fill-opacity="1" /><path clip-path="url(#clip420)" d="M168.333 48.3434 Q168.333 40.9077 170.21 36.8563 Q172.829 30.8287 179.005 30.8287 Q180.314 30.8287 181.673 31.1993 Q183.056 31.5451 184.785 32.9038 Q186.539 34.2625 187.602 36.4858 Q189.627 40.7842 189.627 48.3434 Q189.627 55.7297 187.75 59.7563 Q185.008 65.6357 178.955 65.6357 Q176.683 65.6357 174.361 64.4747 Q172.063 63.3136 170.606 60.5222 Q168.333 56.3473 168.333 48.3434 M172.532 47.7258 Q172.532 55.3591 173.076 58.3977 Q173.694 61.6832 175.373 63.116 Q177.078 64.5241 178.955 64.5241 Q180.981 64.5241 182.661 63.0172 Q184.365 61.4856 184.884 58.2 Q185.452 54.9639 185.428 47.7258 Q185.428 40.6854 184.934 37.8692 Q184.267 34.5836 182.488 33.2743 Q180.734 31.9404 178.955 31.9404 Q178.288 31.9404 177.572 32.138 Q176.88 32.3356 175.867 32.9038 Q174.855 33.472 174.064 34.8801 Q173.298 36.2882 172.928 38.4126 Q172.532 41.1547 172.532 47.7258 Z" fill="#000000" fill-rule="nonzero" fill-opacity="1" /><path clip-path="url(#clip420)" d="M193.629 48.3434 Q193.629 40.9077 195.507 36.8563 Q198.125 30.8287 204.301 30.8287 Q205.61 30.8287 206.969 31.1993 Q208.352 31.5451 210.082 32.9038 Q211.836 34.2625 212.898 36.4858 Q214.923 40.7842 214.923 48.3434 Q214.923 55.7297 213.046 59.7563 Q210.304 65.6357 204.252 65.6357 Q201.979 65.6357 199.657 64.4747 Q197.359 63.3136 195.902 60.5222 Q193.629 56.3473 193.629 48.3434 M197.829 47.7258 Q197.829 55.3591 198.372 58.3977 Q198.99 61.6832 200.67 63.116 Q202.374 64.5241 204.252 64.5241 Q206.277 64.5241 207.957 63.0172 Q209.662 61.4856 210.18 58.2 Q210.749 54.9639 210.724 47.7258 Q210.724 40.6854 210.23 37.8692 Q209.563 34.5836 207.784 33.2743 Q206.03 31.9404 204.252 31.9404 Q203.585 31.9404 202.868 32.138 Q202.176 32.3356 201.164 32.9038 Q200.151 33.472 199.36 34.8801 Q198.595 36.2882 198.224 38.4126 Q197.829 41.1547 197.829 47.7258 Z" fill="#000000" fill-rule="nonzero" fill-opacity="1" /><path clip-path="url(#clip420)" d="M218.925 48.3434 Q218.925 40.9077 220.803 36.8563 Q223.421 30.8287 229.597 30.8287 Q230.907 30.8287 232.265 31.1993 Q233.649 31.5451 235.378 32.9038 Q237.132 34.2625 238.194 36.4858 Q240.22 40.7842 240.22 48.3434 Q240.22 55.7297 238.342 59.7563 Q235.6 65.6357 229.548 65.6357 Q227.275 65.6357 224.953 64.4747 Q222.656 63.3136 221.198 60.5222 Q218.925 56.3473 218.925 48.3434 M223.125 47.7258 Q223.125 55.3591 223.668 58.3977 Q224.286 61.6832 225.966 63.116 Q227.67 64.5241 229.548 64.5241 Q231.573 64.5241 233.253 63.0172 Q234.958 61.4856 235.477 58.2 Q236.045 54.9639 236.02 47.7258 Q236.02 40.6854 235.526 37.8692 Q234.859 34.5836 233.08 33.2743 Q231.326 31.9404 229.548 31.9404 Q228.881 31.9404 228.164 32.138 Q227.473 32.3356 226.46 32.9038 Q225.447 33.472 224.657 34.8801 Q223.891 36.2882 223.52 38.4126 Q223.125 41.1547 223.125 47.7258 Z" fill="#000000" fill-rule="nonzero" fill-opacity="1" /><path clip-path="url(#clip420)" d="M88.0042 617.114 L85.8642 617.114 Q85.8642 613.412 85.4227 612.562 Q84.9471 611.713 82.7053 611.713 L64.0573 611.713 Q61.4758 611.713 60.8305 612.63 Q60.1851 613.513 60.1851 617.114 L58.0112 617.114 L57.2639 607.331 L64.5668 607.331 Q57.2639 604.071 57.2639 597.039 Q57.2639 588.887 64.0573 587.766 Q61.4079 586.578 59.3359 584.098 Q57.2639 581.584 57.2639 577.678 Q57.2639 572.447 59.8454 570.375 Q61.5777 568.847 63.5139 568.541 Q65.45 568.235 70.4771 568.235 L83.7583 568.235 Q85.2189 568.167 85.5585 567.046 Q85.8642 565.926 85.8642 562.801 L88.0042 562.801 Q87.8004 569.9 87.8004 570.579 Q87.8004 571.122 88.0042 578.459 L85.8642 578.459 Q85.8642 574.757 85.4227 573.908 Q84.9471 573.025 82.7053 573.025 L66.503 573.025 Q62.9704 573.025 60.8984 574.112 Q58.7924 575.199 58.7924 578.188 Q58.7924 581.788 61.8155 584.675 Q64.8386 587.563 69.9336 587.563 L82.7053 587.563 Q84.9471 587.563 85.4227 586.713 Q85.8642 585.83 85.8642 582.128 L88.0042 582.128 Q87.8004 589.227 87.8004 589.94 Q87.8004 590.484 88.0042 597.787 L85.8642 597.787 Q85.8642 594.084 85.4227 593.235 Q84.9471 592.352 82.7053 592.352 L66.503 592.352 Q62.9704 592.352 60.8984 593.439 Q58.7924 594.526 58.7924 597.515 Q58.7924 601.115 61.8155 604.003 Q64.8386 606.89 69.9336 606.89 L82.7053 606.89 Q84.9471 606.89 85.4227 606.041 Q85.8642 605.158 85.8642 601.489 L88.0042 601.489 Q87.8004 608.588 87.8004 609.268 Q87.8004 609.811 88.0042 617.114 Z" fill="#000000" fill-rule="nonzero" fill-opacity="1" /><path clip-path="url(#clip420)" d="M72.685 559.506 Q66.1293 559.506 61.4758 555.294 Q56.8223 551.082 56.8223 545.036 Q56.8223 538.922 60.7965 535.763 Q64.7706 532.57 70.4771 532.57 Q71.5301 532.57 71.7339 532.842 Q71.9377 533.113 71.9377 534.302 L71.9377 553.731 Q79.0368 553.731 82.3656 551.625 Q87.0191 548.704 87.0191 543.779 Q87.0191 543.1 86.8832 542.284 Q86.7474 541.469 86.1699 539.805 Q85.5585 538.14 83.9621 536.68 Q82.3656 535.219 79.852 534.37 Q78.867 534.166 78.901 533.487 Q78.901 532.57 79.7162 532.57 Q80.3276 532.57 81.7202 533.249 Q83.0789 533.895 84.7093 535.151 Q86.3398 536.408 87.5626 538.854 Q88.7854 541.265 88.7854 544.187 Q88.7854 550.301 84.1659 554.92 Q79.5124 559.506 72.685 559.506 M70.4771 553.663 L70.4771 537.155 Q69.0165 537.155 67.3861 537.427 Q65.7557 537.665 63.5139 538.412 Q61.2381 539.125 59.8114 540.824 Q58.3848 542.522 58.3848 545.036 Q58.3848 546.157 58.8604 547.379 Q59.3359 548.568 60.4908 550.029 Q61.6457 551.489 64.2611 552.508 Q66.8766 553.528 70.4771 553.663 Z" fill="#000000" fill-rule="nonzero" fill-opacity="1" /><path clip-path="url(#clip420)" d="M81.3806 527.645 Q75.4703 527.645 72.3453 520.681 Q70.3413 516.503 69.8317 507.876 L67.2842 507.876 Q62.9704 507.876 60.6946 510.151 Q58.3848 512.393 58.3848 515.247 Q58.3848 520.342 61.5777 522.787 Q61.6457 520.715 62.6987 519.968 Q63.7177 519.221 64.7706 519.221 Q66.1633 519.221 67.0804 520.104 Q67.9636 520.953 67.9636 522.414 Q67.9636 523.806 67.1144 524.723 Q66.2312 525.641 64.7027 525.641 Q61.306 525.641 59.0642 522.583 Q56.8223 519.492 56.8223 515.111 Q56.8223 509.404 60.6606 505.6 Q61.8495 504.411 63.378 503.834 Q64.9065 503.222 65.9255 503.154 Q66.9106 503.086 68.8807 503.086 L82.7732 503.086 Q83.1808 503.086 83.8602 502.95 Q84.5395 502.815 85.4227 502.203 Q86.2718 501.558 86.2718 500.505 Q86.2718 497.991 81.8221 498.025 L77.9159 498.025 L77.9159 496.259 L81.8221 496.259 Q85.5246 496.259 86.9851 498.229 Q88.4118 500.165 88.4118 501.965 Q88.4118 504.275 86.7134 505.736 Q85.0151 507.196 82.7053 507.4 Q85.3547 508.453 87.087 510.865 Q88.7854 513.243 88.7854 516.503 Q88.7854 519.017 88.14 521.395 Q87.5286 523.738 85.7963 525.708 Q84.03 527.645 81.3806 527.645 M81.3126 522.278 Q83.8941 522.278 85.5585 520.444 Q87.2229 518.609 87.2229 516.028 Q87.2229 513.107 84.9811 510.491 Q82.7053 507.876 78.2556 507.876 L71.2923 507.876 Q71.5641 515.586 74.6551 518.949 Q77.7121 522.278 81.3126 522.278 Z" fill="#000000" fill-rule="nonzero" fill-opacity="1" /><path clip-path="url(#clip420)" d="M88.0042 493.542 L85.8642 493.542 Q85.8642 489.839 85.4227 488.99 Q84.9471 488.141 82.7053 488.141 L64.0573 488.141 Q61.4758 488.141 60.8305 489.058 Q60.1851 489.941 60.1851 493.542 L58.0112 493.542 L57.2639 483.759 L64.5668 483.759 Q57.2639 480.498 57.2639 473.467 Q57.2639 468.236 59.8454 466.164 Q61.5777 464.636 63.5139 464.33 Q65.45 463.99 70.4771 463.99 L83.7583 463.99 Q85.2189 463.922 85.5585 462.801 Q85.8642 461.68 85.8642 458.555 L88.0042 458.555 Q87.8004 465.655 87.8004 466.368 Q87.8004 466.911 88.0042 474.214 L85.8642 474.214 Q85.8642 470.512 85.4227 469.663 Q84.9471 468.78 82.7053 468.78 L66.503 468.78 Q62.9704 468.78 60.8984 469.866 Q58.7924 470.953 58.7924 473.943 Q58.7924 477.543 61.8155 480.43 Q64.8386 483.317 69.9336 483.317 L82.7053 483.317 Q84.9471 483.317 85.4227 482.468 Q85.8642 481.585 85.8642 477.917 L88.0042 477.917 Q87.8004 485.016 87.8004 485.695 Q87.8004 486.239 88.0042 493.542 Z" fill="#000000" fill-rule="nonzero" fill-opacity="1" /><path clip-path="url(#clip420)" d="M99.3492 432.129 Q99.3492 428.427 98.8736 427.577 Q98.4321 426.694 96.2242 426.694 L63.6497 426.694 Q61.34 426.694 60.7625 427.577 Q60.1851 428.427 60.1851 432.129 L58.0112 432.129 L57.2639 422.109 L61.8495 422.109 Q57.2639 417.931 57.2639 412.36 Q57.2639 406.45 61.8495 402.136 Q66.435 397.822 72.9907 397.822 Q79.6143 397.822 84.1998 402.408 Q88.7854 406.993 88.7854 413.345 Q88.7854 416.81 87.0191 419.154 Q85.2189 421.463 83.8941 421.905 L84.5395 421.905 L96.2242 421.905 Q98.466 421.905 98.9076 421.022 Q99.3492 420.139 99.3492 416.47 L101.489 416.47 Q101.285 423.773 101.285 424.317 Q101.285 424.996 101.489 432.129 L99.3492 432.129 M80.0898 421.905 Q81.1428 421.905 81.5164 421.769 Q81.8901 421.599 83.011 420.92 Q87.2229 418.169 87.2229 413.685 Q87.2229 413.651 87.2229 413.617 Q87.2229 409.643 83.1808 406.62 Q79.1048 403.597 72.9907 403.597 Q67.1483 403.597 63.0723 406.348 Q58.9962 409.099 58.9962 412.904 Q58.9962 415.621 60.4568 417.999 Q61.9174 420.376 64.5668 421.905 L80.0898 421.905 Z" fill="#000000" fill-rule="nonzero" fill-opacity="1" /><path clip-path="url(#clip420)" d="M72.685 391.606 Q66.1293 391.606 61.4758 387.394 Q56.8223 383.182 56.8223 377.136 Q56.8223 371.022 60.7965 367.863 Q64.7706 364.67 70.4771 364.67 Q71.5301 364.67 71.7339 364.942 Q71.9377 365.214 71.9377 366.403 L71.9377 385.832 Q79.0368 385.832 82.3656 383.726 Q87.0191 380.805 87.0191 375.879 Q87.0191 375.2 86.8832 374.385 Q86.7474 373.57 86.1699 371.905 Q85.5585 370.241 83.9621 368.78 Q82.3656 367.32 79.852 366.471 Q78.867 366.267 78.901 365.587 Q78.901 364.67 79.7162 364.67 Q80.3276 364.67 81.7202 365.35 Q83.0789 365.995 84.7093 367.252 Q86.3398 368.509 87.5626 370.954 Q88.7854 373.366 88.7854 376.287 Q88.7854 382.401 84.1659 387.021 Q79.5124 391.606 72.685 391.606 M70.4771 385.764 L70.4771 369.256 Q69.0165 369.256 67.3861 369.528 Q65.7557 369.765 63.5139 370.513 Q61.2381 371.226 59.8114 372.924 Q58.3848 374.623 58.3848 377.136 Q58.3848 378.257 58.8604 379.48 Q59.3359 380.669 60.4908 382.129 Q61.6457 383.59 64.2611 384.609 Q66.8766 385.628 70.4771 385.764 Z" fill="#000000" fill-rule="nonzero" fill-opacity="1" /><path clip-path="url(#clip420)" d="M88.0042 360.73 L85.8642 360.73 Q85.8642 357.028 85.4227 356.179 Q84.9471 355.295 82.7053 355.295 L64.0573 355.295 Q61.4758 355.295 60.8305 356.213 Q60.1851 357.096 60.1851 360.73 L58.0112 360.73 L57.2639 351.05 L64.9065 351.05 Q61.9174 350.064 59.6076 347.992 Q57.2639 345.887 57.2639 342.49 Q57.2639 340.248 58.5207 338.821 Q59.7775 337.361 61.5098 337.361 Q63.0383 337.361 63.8196 338.312 Q64.5668 339.229 64.5668 340.35 Q64.5668 341.607 63.7856 342.49 Q62.9704 343.339 61.5777 343.339 Q60.7286 343.339 60.0832 342.965 Q59.4038 342.558 59.1661 342.252 Q58.9283 341.946 58.8604 341.743 Q58.7924 341.878 58.7924 342.49 Q58.7924 346.328 62.6307 348.536 Q66.435 350.71 71.8698 350.71 L82.5694 350.71 Q84.5735 350.71 85.2189 349.895 Q85.8642 349.045 85.8642 345.411 L85.8642 343.95 L88.0042 343.95 Q87.8004 346.736 87.8004 352.782 Q87.8004 353.631 87.8343 354.956 Q87.8683 356.28 87.9362 358.013 Q88.0042 359.745 88.0042 360.73 Z" fill="#000000" fill-rule="nonzero" fill-opacity="1" /><path clip-path="url(#clip420)" d="M60.1851 333.183 L58.0112 333.183 L58.0112 327.714 L50.0289 327.714 Q44.8659 327.714 41.9108 324.385 Q38.9556 321.023 38.9556 316.913 Q38.9556 314.195 40.4162 312.429 Q41.8768 310.663 43.8469 310.663 Q45.1716 310.663 46.0548 311.478 Q46.9039 312.259 46.9039 313.72 Q46.9039 315.112 46.0208 315.928 Q45.1377 316.709 43.9148 316.709 Q41.673 316.709 40.9937 314.637 Q40.5181 315.69 40.4842 316.913 Q40.4842 319.426 43.0657 321.396 Q45.6472 323.332 49.961 323.332 L58.0112 323.332 L58.0112 315.18 L60.1851 315.18 L60.1851 323.095 L82.5694 323.095 Q84.5735 323.095 85.2189 322.279 Q85.8642 321.43 85.8642 317.83 L85.8642 316.369 L88.0042 316.369 Q87.8004 319.154 87.8004 325.201 Q87.8004 326.05 87.8343 327.374 Q87.8683 328.665 87.9362 330.431 Q88.0042 332.164 88.0042 333.115 L85.8642 333.115 Q85.8642 329.412 85.4227 328.563 Q84.9471 327.714 82.7053 327.714 L60.1851 327.714 L60.1851 333.183 Z" fill="#000000" fill-rule="nonzero" fill-opacity="1" /><path clip-path="url(#clip420)" d="M84.2678 307.775 Q79.7162 312.361 73.1266 312.361 Q66.503 312.361 61.6796 307.877 Q56.8223 303.36 56.8223 296.906 Q56.8223 290.588 61.6457 286.07 Q66.435 281.519 73.1266 281.519 Q79.6822 281.519 84.2338 286.104 Q88.7854 290.656 88.7854 296.974 Q88.7854 303.156 84.2678 307.775 M72.5491 306.587 Q79.3086 306.587 82.3656 304.82 Q87.0191 302.103 87.0191 296.906 Q87.0191 294.324 85.6265 292.184 Q84.2338 290.011 81.8901 288.822 Q78.833 287.293 72.5491 287.293 Q65.8576 287.293 62.9025 289.127 Q58.3848 291.845 58.3848 296.974 Q58.3848 299.216 59.5737 301.424 Q60.7286 303.597 63.0383 304.922 Q66.0954 306.587 72.5491 306.587 Z" fill="#000000" fill-rule="nonzero" fill-opacity="1" /><path clip-path="url(#clip420)" d="M88.0042 277.579 L85.8642 277.579 Q85.8642 273.876 85.4227 273.027 Q84.9471 272.144 82.7053 272.144 L64.0573 272.144 Q61.4758 272.144 60.8305 273.061 Q60.1851 273.944 60.1851 277.579 L58.0112 277.579 L57.2639 267.898 L64.9065 267.898 Q61.9174 266.913 59.6076 264.841 Q57.2639 262.735 57.2639 259.338 Q57.2639 257.096 58.5207 255.67 Q59.7775 254.209 61.5098 254.209 Q63.0383 254.209 63.8196 255.16 Q64.5668 256.077 64.5668 257.198 Q64.5668 258.455 63.7856 259.338 Q62.9704 260.187 61.5777 260.187 Q60.7286 260.187 60.0832 259.814 Q59.4038 259.406 59.1661 259.101 Q58.9283 258.795 58.8604 258.591 Q58.7924 258.727 58.7924 259.338 Q58.7924 263.177 62.6307 265.384 Q66.435 267.558 71.8698 267.558 L82.5694 267.558 Q84.5735 267.558 85.2189 266.743 Q85.8642 265.894 85.8642 262.259 L85.8642 260.799 L88.0042 260.799 Q87.8004 263.584 87.8004 269.63 Q87.8004 270.48 87.8343 271.804 Q87.8683 273.129 87.9362 274.861 Q88.0042 276.594 88.0042 277.579 Z" fill="#000000" fill-rule="nonzero" fill-opacity="1" /><path clip-path="url(#clip420)" d="M88.0042 250.099 L85.8642 250.099 Q85.8642 246.397 85.4227 245.548 Q84.9471 244.698 82.7053 244.698 L64.0573 244.698 Q61.4758 244.698 60.8305 245.616 Q60.1851 246.499 60.1851 250.099 L58.0112 250.099 L57.2639 240.317 L64.5668 240.317 Q57.2639 237.056 57.2639 230.025 Q57.2639 221.873 64.0573 220.752 Q61.4079 219.563 59.3359 217.083 Q57.2639 214.57 57.2639 210.663 Q57.2639 205.432 59.8454 203.36 Q61.5777 201.832 63.5139 201.526 Q65.45 201.221 70.4771 201.221 L83.7583 201.221 Q85.2189 201.153 85.5585 200.032 Q85.8642 198.911 85.8642 195.786 L88.0042 195.786 Q87.8004 202.885 87.8004 203.564 Q87.8004 204.108 88.0042 211.445 L85.8642 211.445 Q85.8642 207.742 85.4227 206.893 Q84.9471 206.01 82.7053 206.01 L66.503 206.01 Q62.9704 206.01 60.8984 207.097 Q58.7924 208.184 58.7924 211.173 Q58.7924 214.773 61.8155 217.661 Q64.8386 220.548 69.9336 220.548 L82.7053 220.548 Q84.9471 220.548 85.4227 219.699 Q85.8642 218.816 85.8642 215.113 L88.0042 215.113 Q87.8004 222.212 87.8004 222.926 Q87.8004 223.469 88.0042 230.772 L85.8642 230.772 Q85.8642 227.07 85.4227 226.22 Q84.9471 225.337 82.7053 225.337 L66.503 225.337 Q62.9704 225.337 60.8984 226.424 Q58.7924 227.511 58.7924 230.5 Q58.7924 234.101 61.8155 236.988 Q64.8386 239.875 69.9336 239.875 L82.7053 239.875 Q84.9471 239.875 85.4227 239.026 Q85.8642 238.143 85.8642 234.474 L88.0042 234.474 Q87.8004 241.573 87.8004 242.253 Q87.8004 242.796 88.0042 250.099 Z" fill="#000000" fill-rule="nonzero" fill-opacity="1" /><path clip-path="url(#clip420)" d="M81.3806 191.506 Q75.4703 191.506 72.3453 184.543 Q70.3413 180.365 69.8317 171.737 L67.2842 171.737 Q62.9704 171.737 60.6946 174.013 Q58.3848 176.255 58.3848 179.108 Q58.3848 184.203 61.5777 186.649 Q61.6457 184.577 62.6987 183.829 Q63.7177 183.082 64.7706 183.082 Q66.1633 183.082 67.0804 183.965 Q67.9636 184.814 67.9636 186.275 Q67.9636 187.668 67.1144 188.585 Q66.2312 189.502 64.7027 189.502 Q61.306 189.502 59.0642 186.445 Q56.8223 183.354 56.8223 178.972 Q56.8223 173.266 60.6606 169.461 Q61.8495 168.272 63.378 167.695 Q64.9065 167.084 65.9255 167.016 Q66.9106 166.948 68.8807 166.948 L82.7732 166.948 Q83.1808 166.948 83.8602 166.812 Q84.5395 166.676 85.4227 166.065 Q86.2718 165.419 86.2718 164.366 Q86.2718 161.853 81.8221 161.887 L77.9159 161.887 L77.9159 160.12 L81.8221 160.12 Q85.5246 160.12 86.9851 162.09 Q88.4118 164.027 88.4118 165.827 Q88.4118 168.137 86.7134 169.597 Q85.0151 171.058 82.7053 171.262 Q85.3547 172.315 87.087 174.726 Q88.7854 177.104 88.7854 180.365 Q88.7854 182.878 88.14 185.256 Q87.5286 187.6 85.7963 189.57 Q84.03 191.506 81.3806 191.506 M81.3126 186.139 Q83.8941 186.139 85.5585 184.305 Q87.2229 182.471 87.2229 179.889 Q87.2229 176.968 84.9811 174.353 Q82.7053 171.737 78.2556 171.737 L71.2923 171.737 Q71.5641 179.448 74.6551 182.81 Q77.7121 186.139 81.3126 186.139 Z" fill="#000000" fill-rule="nonzero" fill-opacity="1" /><path clip-path="url(#clip420)" d="M88.0042 157.403 L85.8642 157.403 Q85.8642 153.701 85.4227 152.851 Q84.9471 152.002 82.7053 152.002 L64.0573 152.002 Q61.4758 152.002 60.8305 152.919 Q60.1851 153.802 60.1851 157.403 L58.0112 157.403 L57.2639 147.62 L64.5668 147.62 Q57.2639 144.36 57.2639 137.328 Q57.2639 132.097 59.8454 130.025 Q61.5777 128.497 63.5139 128.191 Q65.45 127.852 70.4771 127.852 L83.7583 127.852 Q85.2189 127.784 85.5585 126.663 Q85.8642 125.542 85.8642 122.417 L88.0042 122.417 Q87.8004 129.516 87.8004 130.229 Q87.8004 130.773 88.0042 138.076 L85.8642 138.076 Q85.8642 134.373 85.4227 133.524 Q84.9471 132.641 82.7053 132.641 L66.503 132.641 Q62.9704 132.641 60.8984 133.728 Q58.7924 134.815 58.7924 137.804 Q58.7924 141.404 61.8155 144.292 Q64.8386 147.179 69.9336 147.179 L82.7053 147.179 Q84.9471 147.179 85.4227 146.33 Q85.8642 145.447 85.8642 141.778 L88.0042 141.778 Q87.8004 148.877 87.8004 149.557 Q87.8004 150.1 88.0042 157.403 Z" fill="#000000" fill-rule="nonzero" fill-opacity="1" /><path clip-path="url(#clip420)" d="M84.1998 114.265 Q79.5803 118.68 72.9907 118.68 Q66.3671 118.68 61.6117 114.333 Q56.8223 109.985 56.8223 103.599 Q56.8223 99.3532 58.8604 96.1602 Q60.8644 92.9673 64.2951 92.9673 Q65.8236 92.9673 66.7068 93.8844 Q67.556 94.7676 67.556 96.1602 Q67.556 97.6208 66.6728 98.504 Q65.7557 99.3532 64.363 99.3532 Q63.7516 99.3532 63.1402 99.1494 Q62.5288 98.9455 61.8834 98.1983 Q61.2381 97.417 61.1362 96.0923 Q58.5886 98.5719 58.5886 103.395 Q58.5886 103.463 58.5886 103.531 Q58.5886 107.064 61.9174 109.985 Q65.2462 112.906 72.8548 112.906 Q76.829 112.906 79.7501 111.955 Q82.6374 110.97 84.1319 109.373 Q85.6265 107.777 86.3398 106.215 Q87.0191 104.652 87.0191 103.124 Q87.0191 96.2961 79.7162 93.9864 Q79.0368 93.7825 79.0368 93.1032 Q79.0368 92.1861 79.7162 92.1861 Q80.0559 92.1861 80.939 92.4578 Q81.8221 92.7296 83.2148 93.5787 Q84.6074 94.4279 85.8303 95.6507 Q87.0191 96.8396 87.9023 98.9795 Q88.7854 101.085 88.7854 103.735 Q88.7854 109.849 84.1998 114.265 Z" fill="#000000" fill-rule="nonzero" fill-opacity="1" /><path clip-path="url(#clip420)" d="M72.685 88.2459 Q66.1293 88.2459 61.4758 84.034 Q56.8223 79.8221 56.8223 73.7759 Q56.8223 67.6618 60.7965 64.5029 Q64.7706 61.31 70.4771 61.31 Q71.5301 61.31 71.7339 61.5817 Q71.9377 61.8535 71.9377 63.0423 L71.9377 82.4715 Q79.0368 82.4715 82.3656 80.3655 Q87.0191 77.4444 87.0191 72.5191 Q87.0191 71.8398 86.8832 71.0246 Q86.7474 70.2094 86.1699 68.545 Q85.5585 66.8806 83.9621 65.42 Q82.3656 63.9594 79.852 63.1102 Q78.867 62.9064 78.901 62.2271 Q78.901 61.31 79.7162 61.31 Q80.3276 61.31 81.7202 61.9893 Q83.0789 62.6347 84.7093 63.8915 Q86.3398 65.1483 87.5626 67.5939 Q88.7854 70.0056 88.7854 72.9267 Q88.7854 79.0408 84.1659 83.6603 Q79.5124 88.2459 72.685 88.2459 M70.4771 82.4036 L70.4771 65.8955 Q69.0165 65.8955 67.3861 66.1673 Q65.7557 66.405 63.5139 67.1523 Q61.2381 67.8656 59.8114 69.564 Q58.3848 71.2623 58.3848 73.7759 Q58.3848 74.8968 58.8604 76.1196 Q59.3359 77.3085 60.4908 78.7691 Q61.6457 80.2297 64.2611 81.2487 Q66.8766 82.2677 70.4771 82.4036 Z" fill="#000000" fill-rule="nonzero" fill-opacity="1" /><path clip-path="url(#clip422)" d="M334.894 553.639 L334.894 734.227 L437.127 734.227 L437.127 553.639 L334.894 553.639 L334.894 553.639  Z" fill="#34495e" fill-rule="evenodd" fill-opacity="1"/>
<polyline clip-path="url(#clip422)" style="stroke:#ffffff; stroke-linecap:round; stroke-linejoin:round; stroke-width:4; stroke-opacity:1; fill:none" points="334.894,553.639 334.894,734.227 437.127,734.227 437.127,553.639 334.894,553.639 "/>
<path clip-path="url(#clip422)" d="M462.685 530.114 L462.685 734.227 L564.918 734.227 L564.918 530.114 L462.685 530.114 L462.685 530.114  Z" fill="#34495e" fill-rule="evenodd" fill-opacity="1"/>
<polyline clip-path="url(#clip422)" style="stroke:#ffffff; stroke-linecap:round; stroke-linejoin:round; stroke-width:4; stroke-opacity:1; fill:none" points="462.685,530.114 462.685,734.227 564.918,734.227 564.918,530.114 462.685,530.114 "/>
<path clip-path="url(#clip422)" d="M590.476 307.909 L590.476 734.227 L692.709 734.227 L692.709 307.909 L590.476 307.909 L590.476 307.909  Z" fill="#34495e" fill-rule="evenodd" fill-opacity="1"/>
<polyline clip-path="url(#clip422)" style="stroke:#ffffff; stroke-linecap:round; stroke-linejoin:round; stroke-width:4; stroke-opacity:1; fill:none" points="590.476,307.909 590.476,734.227 692.709,734.227 692.709,307.909 590.476,307.909 "/>
<path clip-path="url(#clip422)" d="M718.267 171.466 L718.267 734.227 L820.5 734.227 L820.5 171.466 L718.267 171.466 L718.267 171.466  Z" fill="#34495e" fill-rule="evenodd" fill-opacity="1"/>
<polyline clip-path="url(#clip422)" style="stroke:#ffffff; stroke-linecap:round; stroke-linejoin:round; stroke-width:4; stroke-opacity:1; fill:none" points="718.267,171.466 718.267,734.227 820.5,734.227 820.5,171.466 718.267,171.466 "/>
<path clip-path="url(#clip422)" d="M846.058 172.572 L846.058 734.227 L948.29 734.227 L948.29 172.572 L846.058 172.572 L846.058 172.572  Z" fill="#34495e" fill-rule="evenodd" fill-opacity="1"/>
<polyline clip-path="url(#clip422)" style="stroke:#ffffff; stroke-linecap:round; stroke-linejoin:round; stroke-width:4; stroke-opacity:1; fill:none" points="846.058,172.572 846.058,734.227 948.29,734.227 948.29,172.572 846.058,172.572 "/>
<path clip-path="url(#clip422)" d="M973.849 174.958 L973.849 734.227 L1076.08 734.227 L1076.08 174.958 L973.849 174.958 L973.849 174.958  Z" fill="#34495e" fill-rule="evenodd" fill-opacity="1"/>
<polyline clip-path="url(#clip422)" style="stroke:#ffffff; stroke-linecap:round; stroke-linejoin:round; stroke-width:4; stroke-opacity:1; fill:none" points="973.849,174.958 973.849,734.227 1076.08,734.227 1076.08,174.958 973.849,174.958 "/>
<circle clip-path="url(#clip422)" style="fill:#34495e; stroke:none; fill-opacity:0" cx="386.011" cy="553.639" r="2"/>
<circle clip-path="url(#clip422)" style="fill:#34495e; stroke:none; fill-opacity:0" cx="513.801" cy="530.114" r="2"/>
<circle clip-path="url(#clip422)" style="fill:#34495e; stroke:none; fill-opacity:0" cx="641.592" cy="307.909" r="2"/>
<circle clip-path="url(#clip422)" style="fill:#34495e; stroke:none; fill-opacity:0" cx="769.383" cy="171.466" r="2"/>
<circle clip-path="url(#clip422)" style="fill:#34495e; stroke:none; fill-opacity:0" cx="897.174" cy="172.572" r="2"/>
<circle clip-path="url(#clip422)" style="fill:#34495e; stroke:none; fill-opacity:0" cx="1024.97" cy="174.958" r="2"/>
</svg>
