<?xml version="1.0" encoding="utf-8"?>
<svg xmlns="http://www.w3.org/2000/svg" xmlns:xlink="http://www.w3.org/1999/xlink" width="400" height="200" viewBox="0 0 1600 800">
<defs>
  <clipPath id="clip110">
    <rect x="0" y="0" width="1600" height="800"/>
  </clipPath>
</defs>
<path clip-path="url(#clip110)" d="M0 800 L1600 800 L1600 0 L0 0  Z" fill="#ffffff" fill-rule="evenodd" fill-opacity="1"/>
<defs>
  <clipPath id="clip111">
    <rect x="320" y="0" width="1121" height="800"/>
  </clipPath>
</defs>
<path clip-path="url(#clip110)" d="M245.565 651.7 L1552.76 651.7 L1552.76 47.2441 L245.565 47.2441  Z" fill="#ffffff" fill-rule="evenodd" fill-opacity="1"/>
<defs>
  <clipPath id="clip112">
    <rect x="245" y="47" width="1308" height="605"/>
  </clipPath>
</defs>
<polyline clip-path="url(#clip112)" style="stroke:#000000; stroke-linecap:round; stroke-linejoin:round; stroke-width:2; stroke-opacity:0.1; fill:none" points="376.284,651.7 376.284,47.2441 "/>
<polyline clip-path="url(#clip112)" style="stroke:#000000; stroke-linecap:round; stroke-linejoin:round; stroke-width:2; stroke-opacity:0.1; fill:none" points="507.003,651.7 507.003,47.2441 "/>
<polyline clip-path="url(#clip112)" style="stroke:#000000; stroke-linecap:round; stroke-linejoin:round; stroke-width:2; stroke-opacity:0.1; fill:none" points="637.722,651.7 637.722,47.2441 "/>
<polyline clip-path="url(#clip112)" style="stroke:#000000; stroke-linecap:round; stroke-linejoin:round; stroke-width:2; stroke-opacity:0.1; fill:none" points="768.441,651.7 768.441,47.2441 "/>
<polyline clip-path="url(#clip112)" style="stroke:#000000; stroke-linecap:round; stroke-linejoin:round; stroke-width:2; stroke-opacity:0.1; fill:none" points="899.16,651.7 899.16,47.2441 "/>
<polyline clip-path="url(#clip112)" style="stroke:#000000; stroke-linecap:round; stroke-linejoin:round; stroke-width:2; stroke-opacity:0.1; fill:none" points="1029.88,651.7 1029.88,47.2441 "/>
<polyline clip-path="url(#clip112)" style="stroke:#000000; stroke-linecap:round; stroke-linejoin:round; stroke-width:2; stroke-opacity:0.1; fill:none" points="1160.6,651.7 1160.6,47.2441 "/>
<polyline clip-path="url(#clip112)" style="stroke:#000000; stroke-linecap:round; stroke-linejoin:round; stroke-width:2; stroke-opacity:0.1; fill:none" points="1291.32,651.7 1291.32,47.2441 "/>
<polyline clip-path="url(#clip112)" style="stroke:#000000; stroke-linecap:round; stroke-linejoin:round; stroke-width:2; stroke-opacity:0.1; fill:none" points="1422.04,651.7 1422.04,47.2441 "/>
<polyline clip-path="url(#clip110)" style="stroke:#000000; stroke-linecap:round; stroke-linejoin:round; stroke-width:4; stroke-opacity:1; fill:none" points="245.565,651.7 1552.76,651.7 "/>
<polyline clip-path="url(#clip110)" style="stroke:#000000; stroke-linecap:round; stroke-linejoin:round; stroke-width:4; stroke-opacity:1; fill:none" points="376.284,651.7 376.284,632.802 "/>
<polyline clip-path="url(#clip110)" style="stroke:#000000; stroke-linecap:round; stroke-linejoin:round; stroke-width:4; stroke-opacity:1; fill:none" points="507.003,651.7 507.003,632.802 "/>
<polyline clip-path="url(#clip110)" style="stroke:#000000; stroke-linecap:round; stroke-linejoin:round; stroke-width:4; stroke-opacity:1; fill:none" points="637.722,651.7 637.722,632.802 "/>
<polyline clip-path="url(#clip110)" style="stroke:#000000; stroke-linecap:round; stroke-linejoin:round; stroke-width:4; stroke-opacity:1; fill:none" points="768.441,651.7 768.441,632.802 "/>
<polyline clip-path="url(#clip110)" style="stroke:#000000; stroke-linecap:round; stroke-linejoin:round; stroke-width:4; stroke-opacity:1; fill:none" points="899.16,651.7 899.16,632.802 "/>
<polyline clip-path="url(#clip110)" style="stroke:#000000; stroke-linecap:round; stroke-linejoin:round; stroke-width:4; stroke-opacity:1; fill:none" points="1029.88,651.7 1029.88,632.802 "/>
<polyline clip-path="url(#clip110)" style="stroke:#000000; stroke-linecap:round; stroke-linejoin:round; stroke-width:4; stroke-opacity:1; fill:none" points="1160.6,651.7 1160.6,632.802 "/>
<polyline clip-path="url(#clip110)" style="stroke:#000000; stroke-linecap:round; stroke-linejoin:round; stroke-width:4; stroke-opacity:1; fill:none" points="1291.32,651.7 1291.32,632.802 "/>
<polyline clip-path="url(#clip110)" style="stroke:#000000; stroke-linecap:round; stroke-linejoin:round; stroke-width:4; stroke-opacity:1; fill:none" points="1422.04,651.7 1422.04,632.802 "/>
<path clip-path="url(#clip110)" d="M370.937 703.765 L387.256 703.765 L387.256 707.7 L365.312 707.7 L365.312 703.765 Q367.974 701.01 372.557 696.38 Q377.163 691.728 378.344 690.385 Q380.589 687.862 381.469 686.126 Q382.372 684.367 382.372 682.677 Q382.372 679.922 380.427 678.186 Q378.506 676.45 375.404 676.45 Q373.205 676.45 370.751 677.214 Q368.321 677.978 365.543 679.529 L365.543 674.807 Q368.367 673.672 370.821 673.094 Q373.275 672.515 375.312 672.515 Q380.682 672.515 383.876 675.2 Q387.071 677.885 387.071 682.376 Q387.071 684.506 386.261 686.427 Q385.474 688.325 383.367 690.918 Q382.788 691.589 379.687 694.806 Q376.585 698.001 370.937 703.765 Z" fill="#000000" fill-rule="nonzero" fill-opacity="1" /><path clip-path="url(#clip110)" d="M511.251 689.066 Q514.607 689.783 516.482 692.052 Q518.38 694.32 518.38 697.654 Q518.38 702.769 514.862 705.57 Q511.343 708.371 504.862 708.371 Q502.686 708.371 500.371 707.931 Q498.079 707.515 495.626 706.658 L495.626 702.144 Q497.57 703.279 499.885 703.857 Q502.2 704.436 504.723 704.436 Q509.121 704.436 511.413 702.7 Q513.727 700.964 513.727 697.654 Q513.727 694.598 511.575 692.885 Q509.445 691.149 505.626 691.149 L501.598 691.149 L501.598 687.306 L505.811 687.306 Q509.26 687.306 511.089 685.941 Q512.917 684.552 512.917 681.959 Q512.917 679.297 511.019 677.885 Q509.144 676.45 505.626 676.45 Q503.704 676.45 501.505 676.867 Q499.306 677.283 496.667 678.163 L496.667 673.996 Q499.329 673.256 501.644 672.885 Q503.982 672.515 506.042 672.515 Q511.366 672.515 514.468 674.945 Q517.57 677.353 517.57 681.473 Q517.57 684.343 515.927 686.334 Q514.283 688.302 511.251 689.066 Z" fill="#000000" fill-rule="nonzero" fill-opacity="1" /><path clip-path="url(#clip110)" d="M640.731 677.214 L628.926 695.663 L640.731 695.663 L640.731 677.214 M639.504 673.14 L645.384 673.14 L645.384 695.663 L650.315 695.663 L650.315 699.552 L645.384 699.552 L645.384 707.7 L640.731 707.7 L640.731 699.552 L625.13 699.552 L625.13 695.038 L639.504 673.14 Z" fill="#000000" fill-rule="nonzero" fill-opacity="1" /><path clip-path="url(#clip110)" d="M758.719 673.14 L777.075 673.14 L777.075 677.075 L763.001 677.075 L763.001 685.547 Q764.02 685.2 765.038 685.038 Q766.057 684.853 767.075 684.853 Q772.862 684.853 776.242 688.024 Q779.622 691.195 779.622 696.612 Q779.622 702.191 776.149 705.292 Q772.677 708.371 766.358 708.371 Q764.182 708.371 761.913 708.001 Q759.668 707.63 757.261 706.89 L757.261 702.191 Q759.344 703.325 761.566 703.88 Q763.788 704.436 766.265 704.436 Q770.27 704.436 772.608 702.33 Q774.946 700.223 774.946 696.612 Q774.946 693.001 772.608 690.894 Q770.27 688.788 766.265 688.788 Q764.39 688.788 762.515 689.205 Q760.663 689.621 758.719 690.501 L758.719 673.14 Z" fill="#000000" fill-rule="nonzero" fill-opacity="1" /><path clip-path="url(#clip110)" d="M899.565 688.556 Q896.417 688.556 894.565 690.709 Q892.737 692.862 892.737 696.612 Q892.737 700.339 894.565 702.515 Q896.417 704.667 899.565 704.667 Q902.714 704.667 904.542 702.515 Q906.394 700.339 906.394 696.612 Q906.394 692.862 904.542 690.709 Q902.714 688.556 899.565 688.556 M908.848 673.904 L908.848 678.163 Q907.089 677.33 905.283 676.89 Q903.501 676.45 901.741 676.45 Q897.112 676.45 894.658 679.575 Q892.227 682.7 891.88 689.019 Q893.246 687.006 895.306 685.941 Q897.366 684.853 899.843 684.853 Q905.051 684.853 908.061 688.024 Q911.093 691.172 911.093 696.612 Q911.093 701.936 907.945 705.154 Q904.797 708.371 899.565 708.371 Q893.57 708.371 890.399 703.788 Q887.228 699.181 887.228 690.455 Q887.228 682.26 891.116 677.399 Q895.005 672.515 901.556 672.515 Q903.315 672.515 905.098 672.862 Q906.903 673.209 908.848 673.904 Z" fill="#000000" fill-rule="nonzero" fill-opacity="1" /><path clip-path="url(#clip110)" d="M1018.77 673.14 L1040.99 673.14 L1040.99 675.131 L1028.44 707.7 L1023.56 707.7 L1035.37 677.075 L1018.77 677.075 L1018.77 673.14 Z" fill="#000000" fill-rule="nonzero" fill-opacity="1" /><path clip-path="url(#clip110)" d="M1160.6 691.288 Q1157.27 691.288 1155.34 693.07 Q1153.45 694.853 1153.45 697.978 Q1153.45 701.103 1155.34 702.885 Q1157.27 704.667 1160.6 704.667 Q1163.93 704.667 1165.85 702.885 Q1167.77 701.08 1167.77 697.978 Q1167.77 694.853 1165.85 693.07 Q1163.96 691.288 1160.6 691.288 M1155.92 689.297 Q1152.91 688.556 1151.22 686.496 Q1149.56 684.436 1149.56 681.473 Q1149.56 677.33 1152.5 674.922 Q1155.46 672.515 1160.6 672.515 Q1165.76 672.515 1168.7 674.922 Q1171.64 677.33 1171.64 681.473 Q1171.64 684.436 1169.95 686.496 Q1168.28 688.556 1165.3 689.297 Q1168.68 690.084 1170.55 692.376 Q1172.45 694.668 1172.45 697.978 Q1172.45 703.001 1169.37 705.686 Q1166.32 708.371 1160.6 708.371 Q1154.88 708.371 1151.8 705.686 Q1148.75 703.001 1148.75 697.978 Q1148.75 694.668 1150.64 692.376 Q1152.54 690.084 1155.92 689.297 M1154.21 681.913 Q1154.21 684.598 1155.88 686.103 Q1157.57 687.607 1160.6 687.607 Q1163.61 687.607 1165.3 686.103 Q1167.01 684.598 1167.01 681.913 Q1167.01 679.228 1165.3 677.723 Q1163.61 676.219 1160.6 676.219 Q1157.57 676.219 1155.88 677.723 Q1154.21 679.228 1154.21 681.913 Z" fill="#000000" fill-rule="nonzero" fill-opacity="1" /><path clip-path="url(#clip110)" d="M1281.62 706.982 L1281.62 702.723 Q1283.38 703.556 1285.18 703.996 Q1286.99 704.436 1288.73 704.436 Q1293.35 704.436 1295.79 701.334 Q1298.24 698.209 1298.59 691.867 Q1297.24 693.857 1295.18 694.922 Q1293.12 695.987 1290.62 695.987 Q1285.44 695.987 1282.41 692.862 Q1279.4 689.714 1279.4 684.274 Q1279.4 678.95 1282.54 675.732 Q1285.69 672.515 1290.92 672.515 Q1296.92 672.515 1300.07 677.121 Q1303.24 681.705 1303.24 690.455 Q1303.24 698.626 1299.35 703.51 Q1295.48 708.371 1288.93 708.371 Q1287.17 708.371 1285.37 708.024 Q1283.56 707.677 1281.62 706.982 M1290.92 692.33 Q1294.07 692.33 1295.9 690.177 Q1297.75 688.024 1297.75 684.274 Q1297.75 680.547 1295.9 678.394 Q1294.07 676.219 1290.92 676.219 Q1287.78 676.219 1285.92 678.394 Q1284.1 680.547 1284.1 684.274 Q1284.1 688.024 1285.92 690.177 Q1287.78 692.33 1290.92 692.33 Z" fill="#000000" fill-rule="nonzero" fill-opacity="1" /><path clip-path="url(#clip110)" d="M1396.72 703.765 L1404.36 703.765 L1404.36 677.399 L1396.05 679.066 L1396.05 674.807 L1404.32 673.14 L1408.99 673.14 L1408.99 703.765 L1416.63 703.765 L1416.63 707.7 L1396.72 707.7 L1396.72 703.765 Z" fill="#000000" fill-rule="nonzero" fill-opacity="1" /><path clip-path="url(#clip110)" d="M1436.08 676.219 Q1432.46 676.219 1430.64 679.783 Q1428.83 683.325 1428.83 690.455 Q1428.83 697.561 1430.64 701.126 Q1432.46 704.667 1436.08 704.667 Q1439.71 704.667 1441.52 701.126 Q1443.34 697.561 1443.34 690.455 Q1443.34 683.325 1441.52 679.783 Q1439.71 676.219 1436.08 676.219 M1436.08 672.515 Q1441.89 672.515 1444.94 677.121 Q1448.02 681.705 1448.02 690.455 Q1448.02 699.181 1444.94 703.788 Q1441.89 708.371 1436.08 708.371 Q1430.27 708.371 1427.19 703.788 Q1424.13 699.181 1424.13 690.455 Q1424.13 681.705 1427.19 677.121 Q1430.27 672.515 1436.08 672.515 Z" fill="#000000" fill-rule="nonzero" fill-opacity="1" /><path clip-path="url(#clip110)" d="M777.368 735.039 L777.368 739.908 L771.767 739.908 Q768.616 739.908 767.374 741.182 Q766.165 742.455 766.165 745.765 L766.165 748.916 L775.809 748.916 L775.809 753.467 L766.165 753.467 L766.165 784.564 L760.277 784.564 L760.277 753.467 L754.675 753.467 L754.675 748.916 L760.277 748.916 L760.277 746.433 Q760.277 740.481 763.046 737.776 Q765.815 735.039 771.83 735.039 L777.368 735.039 Z" fill="#000000" fill-rule="nonzero" fill-opacity="1" /><path clip-path="url(#clip110)" d="M782.27 735.039 L788.126 735.039 L788.126 784.564 L782.27 784.564 L782.27 735.039 Z" fill="#000000" fill-rule="nonzero" fill-opacity="1" /><path clip-path="url(#clip110)" d="M830.872 765.276 L830.872 768.14 L803.945 768.14 Q804.327 774.188 807.574 777.371 Q810.852 780.522 816.677 780.522 Q820.05 780.522 823.202 779.694 Q826.384 778.867 829.504 777.211 L829.504 782.75 Q826.353 784.086 823.042 784.787 Q819.732 785.487 816.327 785.487 Q807.797 785.487 802.799 780.522 Q797.834 775.556 797.834 767.09 Q797.834 758.337 802.545 753.213 Q807.287 748.057 815.308 748.057 Q822.501 748.057 826.671 752.703 Q830.872 757.319 830.872 765.276 M825.016 763.557 Q824.952 758.751 822.31 755.886 Q819.7 753.022 815.372 753.022 Q810.47 753.022 807.51 755.791 Q804.582 758.56 804.136 763.589 L825.016 763.557 Z" fill="#000000" fill-rule="nonzero" fill-opacity="1" /><path clip-path="url(#clip110)" d="M870.976 765.276 L870.976 768.14 L844.049 768.14 Q844.431 774.188 847.678 777.371 Q850.956 780.522 856.781 780.522 Q860.154 780.522 863.305 779.694 Q866.488 778.867 869.608 777.211 L869.608 782.75 Q866.456 784.086 863.146 784.787 Q859.836 785.487 856.431 785.487 Q847.9 785.487 842.903 780.522 Q837.938 775.556 837.938 767.09 Q837.938 758.337 842.649 753.213 Q847.391 748.057 855.412 748.057 Q862.605 748.057 866.775 752.703 Q870.976 757.319 870.976 765.276 M865.12 763.557 Q865.056 758.751 862.414 755.886 Q859.804 753.022 855.476 753.022 Q850.574 753.022 847.614 755.791 Q844.686 758.56 844.24 763.589 L865.12 763.557 Z" fill="#000000" fill-rule="nonzero" fill-opacity="1" /><path clip-path="url(#clip110)" d="M886.381 738.794 L886.381 748.916 L898.444 748.916 L898.444 753.467 L886.381 753.467 L886.381 772.819 Q886.381 777.18 887.559 778.421 Q888.768 779.662 892.429 779.662 L898.444 779.662 L898.444 784.564 L892.429 784.564 Q885.649 784.564 883.071 782.049 Q880.493 779.503 880.493 772.819 L880.493 753.467 L876.196 753.467 L876.196 748.916 L880.493 748.916 L880.493 738.794 L886.381 738.794 Z" fill="#000000" fill-rule="nonzero" fill-opacity="1" /><path clip-path="url(#clip110)" d="M949.593 749.966 L949.593 755.504 Q947.11 754.231 944.436 753.595 Q941.763 752.958 938.898 752.958 Q934.538 752.958 932.342 754.295 Q930.177 755.632 930.177 758.305 Q930.177 760.342 931.737 761.52 Q933.296 762.666 938.007 763.716 L940.012 764.162 Q946.251 765.499 948.861 767.949 Q951.502 770.368 951.502 774.729 Q951.502 779.694 947.556 782.59 Q943.641 785.487 936.766 785.487 Q933.901 785.487 930.782 784.914 Q927.695 784.373 924.257 783.259 L924.257 777.211 Q927.504 778.898 930.655 779.758 Q933.806 780.585 936.893 780.585 Q941.031 780.585 943.259 779.185 Q945.487 777.753 945.487 775.174 Q945.487 772.787 943.863 771.514 Q942.272 770.241 936.829 769.063 L934.792 768.586 Q929.35 767.44 926.931 765.085 Q924.512 762.698 924.512 758.56 Q924.512 753.531 928.077 750.794 Q931.641 748.057 938.198 748.057 Q941.445 748.057 944.309 748.534 Q947.174 749.011 949.593 749.966 Z" fill="#000000" fill-rule="nonzero" fill-opacity="1" /><path clip-path="url(#clip110)" d="M960.828 748.916 L966.685 748.916 L966.685 784.564 L960.828 784.564 L960.828 748.916 M960.828 735.039 L966.685 735.039 L966.685 742.455 L960.828 742.455 L960.828 735.039 Z" fill="#000000" fill-rule="nonzero" fill-opacity="1" /><path clip-path="url(#clip110)" d="M976.392 748.916 L1004.21 748.916 L1004.21 754.263 L982.185 779.885 L1004.21 779.885 L1004.21 784.564 L975.597 784.564 L975.597 779.217 L997.622 753.595 L976.392 753.595 L976.392 748.916 Z" fill="#000000" fill-rule="nonzero" fill-opacity="1" /><path clip-path="url(#clip110)" d="M1043.65 765.276 L1043.65 768.14 L1016.72 768.14 Q1017.1 774.188 1020.35 777.371 Q1023.63 780.522 1029.45 780.522 Q1032.82 780.522 1035.98 779.694 Q1039.16 778.867 1042.28 777.211 L1042.28 782.75 Q1039.13 784.086 1035.82 784.787 Q1032.51 785.487 1029.1 785.487 Q1020.57 785.487 1015.57 780.522 Q1010.61 775.556 1010.61 767.09 Q1010.61 758.337 1015.32 753.213 Q1020.06 748.057 1028.08 748.057 Q1035.28 748.057 1039.44 752.703 Q1043.65 757.319 1043.65 765.276 M1037.79 763.557 Q1037.73 758.751 1035.08 755.886 Q1032.47 753.022 1028.15 753.022 Q1023.24 753.022 1020.28 755.791 Q1017.36 758.56 1016.91 763.589 L1037.79 763.557 Z" fill="#000000" fill-rule="nonzero" fill-opacity="1" /><polyline clip-path="url(#clip112)" style="stroke:#000000; stroke-linecap:round; stroke-linejoin:round; stroke-width:2; stroke-opacity:0.1; fill:none" points="245.565,651.7 1552.76,651.7 "/>
<polyline clip-path="url(#clip112)" style="stroke:#000000; stroke-linecap:round; stroke-linejoin:round; stroke-width:2; stroke-opacity:0.1; fill:none" points="245.565,502.508 1552.76,502.508 "/>
<polyline clip-path="url(#clip112)" style="stroke:#000000; stroke-linecap:round; stroke-linejoin:round; stroke-width:2; stroke-opacity:0.1; fill:none" points="245.565,353.315 1552.76,353.315 "/>
<polyline clip-path="url(#clip112)" style="stroke:#000000; stroke-linecap:round; stroke-linejoin:round; stroke-width:2; stroke-opacity:0.1; fill:none" points="245.565,204.123 1552.76,204.123 "/>
<polyline clip-path="url(#clip112)" style="stroke:#000000; stroke-linecap:round; stroke-linejoin:round; stroke-width:2; stroke-opacity:0.1; fill:none" points="245.565,54.931 1552.76,54.931 "/>
<polyline clip-path="url(#clip110)" style="stroke:#000000; stroke-linecap:round; stroke-linejoin:round; stroke-width:4; stroke-opacity:1; fill:none" points="245.565,651.7 245.565,47.2441 "/>
<polyline clip-path="url(#clip110)" style="stroke:#000000; stroke-linecap:round; stroke-linejoin:round; stroke-width:4; stroke-opacity:1; fill:none" points="245.565,651.7 264.462,651.7 "/>
<polyline clip-path="url(#clip110)" style="stroke:#000000; stroke-linecap:round; stroke-linejoin:round; stroke-width:4; stroke-opacity:1; fill:none" points="245.565,502.508 264.462,502.508 "/>
<polyline clip-path="url(#clip110)" style="stroke:#000000; stroke-linecap:round; stroke-linejoin:round; stroke-width:4; stroke-opacity:1; fill:none" points="245.565,353.315 264.462,353.315 "/>
<polyline clip-path="url(#clip110)" style="stroke:#000000; stroke-linecap:round; stroke-linejoin:round; stroke-width:4; stroke-opacity:1; fill:none" points="245.565,204.123 264.462,204.123 "/>
<polyline clip-path="url(#clip110)" style="stroke:#000000; stroke-linecap:round; stroke-linejoin:round; stroke-width:4; stroke-opacity:1; fill:none" points="245.565,54.931 264.462,54.931 "/>
<path clip-path="url(#clip110)" d="M209.62 637.499 Q206.009 637.499 204.181 641.063 Q202.375 644.605 202.375 651.735 Q202.375 658.841 204.181 662.406 Q206.009 665.947 209.62 665.947 Q213.255 665.947 215.06 662.406 Q216.889 658.841 216.889 651.735 Q216.889 644.605 215.06 641.063 Q213.255 637.499 209.62 637.499 M209.62 633.795 Q215.43 633.795 218.486 638.401 Q221.565 642.985 221.565 651.735 Q221.565 660.461 218.486 665.068 Q215.43 669.651 209.62 669.651 Q203.81 669.651 200.732 665.068 Q197.676 660.461 197.676 651.735 Q197.676 642.985 200.732 638.401 Q203.81 633.795 209.62 633.795 Z" fill="#000000" fill-rule="nonzero" fill-opacity="1" /><path clip-path="url(#clip110)" d="M113.163 515.852 L129.482 515.852 L129.482 519.788 L107.538 519.788 L107.538 515.852 Q110.2 513.098 114.783 508.468 Q119.389 503.816 120.57 502.473 Q122.815 499.95 123.695 498.214 Q124.598 496.454 124.598 494.765 Q124.598 492.01 122.653 490.274 Q120.732 488.538 117.63 488.538 Q115.431 488.538 112.977 489.302 Q110.547 490.066 107.769 491.616 L107.769 486.894 Q110.593 485.76 113.047 485.181 Q115.5 484.603 117.538 484.603 Q122.908 484.603 126.102 487.288 Q129.297 489.973 129.297 494.464 Q129.297 496.593 128.487 498.515 Q127.699 500.413 125.593 503.005 Q125.014 503.677 121.912 506.894 Q118.811 510.089 113.163 515.852 Z" fill="#000000" fill-rule="nonzero" fill-opacity="1" /><path clip-path="url(#clip110)" d="M149.297 488.306 Q145.686 488.306 143.857 491.871 Q142.051 495.413 142.051 502.542 Q142.051 509.649 143.857 513.214 Q145.686 516.755 149.297 516.755 Q152.931 516.755 154.736 513.214 Q156.565 509.649 156.565 502.542 Q156.565 495.413 154.736 491.871 Q152.931 488.306 149.297 488.306 M149.297 484.603 Q155.107 484.603 158.162 489.209 Q161.241 493.792 161.241 502.542 Q161.241 511.269 158.162 515.876 Q155.107 520.459 149.297 520.459 Q143.486 520.459 140.408 515.876 Q137.352 511.269 137.352 502.542 Q137.352 493.792 140.408 489.209 Q143.486 484.603 149.297 484.603 Z" fill="#000000" fill-rule="nonzero" fill-opacity="1" /><path clip-path="url(#clip110)" d="M179.458 488.306 Q175.847 488.306 174.019 491.871 Q172.213 495.413 172.213 502.542 Q172.213 509.649 174.019 513.214 Q175.847 516.755 179.458 516.755 Q183.093 516.755 184.898 513.214 Q186.727 509.649 186.727 502.542 Q186.727 495.413 184.898 491.871 Q183.093 488.306 179.458 488.306 M179.458 484.603 Q185.269 484.603 188.324 489.209 Q191.403 493.792 191.403 502.542 Q191.403 511.269 188.324 515.876 Q185.269 520.459 179.458 520.459 Q173.648 520.459 170.57 515.876 Q167.514 511.269 167.514 502.542 Q167.514 493.792 170.57 489.209 Q173.648 484.603 179.458 484.603 Z" fill="#000000" fill-rule="nonzero" fill-opacity="1" /><path clip-path="url(#clip110)" d="M209.62 488.306 Q206.009 488.306 204.181 491.871 Q202.375 495.413 202.375 502.542 Q202.375 509.649 204.181 513.214 Q206.009 516.755 209.62 516.755 Q213.255 516.755 215.06 513.214 Q216.889 509.649 216.889 502.542 Q216.889 495.413 215.06 491.871 Q213.255 488.306 209.62 488.306 M209.62 484.603 Q215.43 484.603 218.486 489.209 Q221.565 493.792 221.565 502.542 Q221.565 511.269 218.486 515.876 Q215.43 520.459 209.62 520.459 Q203.81 520.459 200.732 515.876 Q197.676 511.269 197.676 502.542 Q197.676 493.792 200.732 489.209 Q203.81 484.603 209.62 484.603 Z" fill="#000000" fill-rule="nonzero" fill-opacity="1" /><path clip-path="url(#clip110)" d="M121.982 340.109 L110.176 358.558 L121.982 358.558 L121.982 340.109 M120.755 336.035 L126.635 336.035 L126.635 358.558 L131.565 358.558 L131.565 362.447 L126.635 362.447 L126.635 370.595 L121.982 370.595 L121.982 362.447 L106.38 362.447 L106.38 357.933 L120.755 336.035 Z" fill="#000000" fill-rule="nonzero" fill-opacity="1" /><path clip-path="url(#clip110)" d="M149.297 339.114 Q145.686 339.114 143.857 342.679 Q142.051 346.221 142.051 353.35 Q142.051 360.457 143.857 364.021 Q145.686 367.563 149.297 367.563 Q152.931 367.563 154.736 364.021 Q156.565 360.457 156.565 353.35 Q156.565 346.221 154.736 342.679 Q152.931 339.114 149.297 339.114 M149.297 335.41 Q155.107 335.41 158.162 340.017 Q161.241 344.6 161.241 353.35 Q161.241 362.077 158.162 366.683 Q155.107 371.267 149.297 371.267 Q143.486 371.267 140.408 366.683 Q137.352 362.077 137.352 353.35 Q137.352 344.6 140.408 340.017 Q143.486 335.41 149.297 335.41 Z" fill="#000000" fill-rule="nonzero" fill-opacity="1" /><path clip-path="url(#clip110)" d="M179.458 339.114 Q175.847 339.114 174.019 342.679 Q172.213 346.221 172.213 353.35 Q172.213 360.457 174.019 364.021 Q175.847 367.563 179.458 367.563 Q183.093 367.563 184.898 364.021 Q186.727 360.457 186.727 353.35 Q186.727 346.221 184.898 342.679 Q183.093 339.114 179.458 339.114 M179.458 335.41 Q185.269 335.41 188.324 340.017 Q191.403 344.6 191.403 353.35 Q191.403 362.077 188.324 366.683 Q185.269 371.267 179.458 371.267 Q173.648 371.267 170.57 366.683 Q167.514 362.077 167.514 353.35 Q167.514 344.6 170.57 340.017 Q173.648 335.41 179.458 335.41 Z" fill="#000000" fill-rule="nonzero" fill-opacity="1" /><path clip-path="url(#clip110)" d="M209.62 339.114 Q206.009 339.114 204.181 342.679 Q202.375 346.221 202.375 353.35 Q202.375 360.457 204.181 364.021 Q206.009 367.563 209.62 367.563 Q213.255 367.563 215.06 364.021 Q216.889 360.457 216.889 353.35 Q216.889 346.221 215.06 342.679 Q213.255 339.114 209.62 339.114 M209.62 335.41 Q215.43 335.41 218.486 340.017 Q221.565 344.6 221.565 353.35 Q221.565 362.077 218.486 366.683 Q215.43 371.267 209.62 371.267 Q203.81 371.267 200.732 366.683 Q197.676 362.077 197.676 353.35 Q197.676 344.6 200.732 340.017 Q203.81 335.41 209.62 335.41 Z" fill="#000000" fill-rule="nonzero" fill-opacity="1" /><path clip-path="url(#clip110)" d="M119.713 202.26 Q116.565 202.26 114.713 204.413 Q112.885 206.565 112.885 210.315 Q112.885 214.042 114.713 216.218 Q116.565 218.371 119.713 218.371 Q122.862 218.371 124.69 216.218 Q126.542 214.042 126.542 210.315 Q126.542 206.565 124.69 204.413 Q122.862 202.26 119.713 202.26 M128.996 187.607 L128.996 191.866 Q127.237 191.033 125.431 190.593 Q123.649 190.153 121.889 190.153 Q117.26 190.153 114.806 193.278 Q112.375 196.403 112.028 202.723 Q113.394 200.709 115.454 199.644 Q117.514 198.556 119.991 198.556 Q125.2 198.556 128.209 201.727 Q131.241 204.876 131.241 210.315 Q131.241 215.639 128.093 218.857 Q124.945 222.075 119.713 222.075 Q113.718 222.075 110.547 217.491 Q107.376 212.885 107.376 204.158 Q107.376 195.964 111.264 191.102 Q115.153 186.218 121.704 186.218 Q123.463 186.218 125.246 186.565 Q127.051 186.913 128.996 187.607 Z" fill="#000000" fill-rule="nonzero" fill-opacity="1" /><path clip-path="url(#clip110)" d="M149.297 189.922 Q145.686 189.922 143.857 193.487 Q142.051 197.028 142.051 204.158 Q142.051 211.264 143.857 214.829 Q145.686 218.371 149.297 218.371 Q152.931 218.371 154.736 214.829 Q156.565 211.264 156.565 204.158 Q156.565 197.028 154.736 193.487 Q152.931 189.922 149.297 189.922 M149.297 186.218 Q155.107 186.218 158.162 190.825 Q161.241 195.408 161.241 204.158 Q161.241 212.885 158.162 217.491 Q155.107 222.075 149.297 222.075 Q143.486 222.075 140.408 217.491 Q137.352 212.885 137.352 204.158 Q137.352 195.408 140.408 190.825 Q143.486 186.218 149.297 186.218 Z" fill="#000000" fill-rule="nonzero" fill-opacity="1" /><path clip-path="url(#clip110)" d="M179.458 189.922 Q175.847 189.922 174.019 193.487 Q172.213 197.028 172.213 204.158 Q172.213 211.264 174.019 214.829 Q175.847 218.371 179.458 218.371 Q183.093 218.371 184.898 214.829 Q186.727 211.264 186.727 204.158 Q186.727 197.028 184.898 193.487 Q183.093 189.922 179.458 189.922 M179.458 186.218 Q185.269 186.218 188.324 190.825 Q191.403 195.408 191.403 204.158 Q191.403 212.885 188.324 217.491 Q185.269 222.075 179.458 222.075 Q173.648 222.075 170.57 217.491 Q167.514 212.885 167.514 204.158 Q167.514 195.408 170.57 190.825 Q173.648 186.218 179.458 186.218 Z" fill="#000000" fill-rule="nonzero" fill-opacity="1" /><path clip-path="url(#clip110)" d="M209.62 189.922 Q206.009 189.922 204.181 193.487 Q202.375 197.028 202.375 204.158 Q202.375 211.264 204.181 214.829 Q206.009 218.371 209.62 218.371 Q213.255 218.371 215.06 214.829 Q216.889 211.264 216.889 204.158 Q216.889 197.028 215.06 193.487 Q213.255 189.922 209.62 189.922 M209.62 186.218 Q215.43 186.218 218.486 190.825 Q221.565 195.408 221.565 204.158 Q221.565 212.885 218.486 217.491 Q215.43 222.075 209.62 222.075 Q203.81 222.075 200.732 217.491 Q197.676 212.885 197.676 204.158 Q197.676 195.408 200.732 190.825 Q203.81 186.218 209.62 186.218 Z" fill="#000000" fill-rule="nonzero" fill-opacity="1" /><path clip-path="url(#clip110)" d="M119.135 55.7991 Q115.801 55.7991 113.88 57.5815 Q111.982 59.3639 111.982 62.4889 Q111.982 65.6138 113.88 67.3962 Q115.801 69.1786 119.135 69.1786 Q122.468 69.1786 124.389 67.3962 Q126.311 65.5907 126.311 62.4889 Q126.311 59.3639 124.389 57.5815 Q122.491 55.7991 119.135 55.7991 M114.459 53.8084 Q111.45 53.0676 109.76 51.0074 Q108.093 48.9473 108.093 45.9843 Q108.093 41.8408 111.033 39.4334 Q113.996 37.026 119.135 37.026 Q124.297 37.026 127.237 39.4334 Q130.176 41.8408 130.176 45.9843 Q130.176 48.9473 128.487 51.0074 Q126.82 53.0676 123.834 53.8084 Q127.213 54.5954 129.088 56.887 Q130.987 59.1787 130.987 62.4889 Q130.987 67.512 127.908 70.1972 Q124.852 72.8823 119.135 72.8823 Q113.417 72.8823 110.338 70.1972 Q107.283 67.512 107.283 62.4889 Q107.283 59.1787 109.181 56.887 Q111.079 54.5954 114.459 53.8084 M112.746 46.4241 Q112.746 49.1093 114.413 50.6139 Q116.102 52.1186 119.135 52.1186 Q122.144 52.1186 123.834 50.6139 Q125.547 49.1093 125.547 46.4241 Q125.547 43.739 123.834 42.2343 Q122.144 40.7297 119.135 40.7297 Q116.102 40.7297 114.413 42.2343 Q112.746 43.739 112.746 46.4241 Z" fill="#000000" fill-rule="nonzero" fill-opacity="1" /><path clip-path="url(#clip110)" d="M149.297 40.7297 Q145.686 40.7297 143.857 44.2945 Q142.051 47.8362 142.051 54.9658 Q142.051 62.0722 143.857 65.637 Q145.686 69.1786 149.297 69.1786 Q152.931 69.1786 154.736 65.637 Q156.565 62.0722 156.565 54.9658 Q156.565 47.8362 154.736 44.2945 Q152.931 40.7297 149.297 40.7297 M149.297 37.026 Q155.107 37.026 158.162 41.6325 Q161.241 46.2158 161.241 54.9658 Q161.241 63.6926 158.162 68.299 Q155.107 72.8823 149.297 72.8823 Q143.486 72.8823 140.408 68.299 Q137.352 63.6926 137.352 54.9658 Q137.352 46.2158 140.408 41.6325 Q143.486 37.026 149.297 37.026 Z" fill="#000000" fill-rule="nonzero" fill-opacity="1" /><path clip-path="url(#clip110)" d="M179.458 40.7297 Q175.847 40.7297 174.019 44.2945 Q172.213 47.8362 172.213 54.9658 Q172.213 62.0722 174.019 65.637 Q175.847 69.1786 179.458 69.1786 Q183.093 69.1786 184.898 65.637 Q186.727 62.0722 186.727 54.9658 Q186.727 47.8362 184.898 44.2945 Q183.093 40.7297 179.458 40.7297 M179.458 37.026 Q185.269 37.026 188.324 41.6325 Q191.403 46.2158 191.403 54.9658 Q191.403 63.6926 188.324 68.299 Q185.269 72.8823 179.458 72.8823 Q173.648 72.8823 170.57 68.299 Q167.514 63.6926 167.514 54.9658 Q167.514 46.2158 170.57 41.6325 Q173.648 37.026 179.458 37.026 Z" fill="#000000" fill-rule="nonzero" fill-opacity="1" /><path clip-path="url(#clip110)" d="M209.62 40.7297 Q206.009 40.7297 204.181 44.2945 Q202.375 47.8362 202.375 54.9658 Q202.375 62.0722 204.181 65.637 Q206.009 69.1786 209.62 69.1786 Q213.255 69.1786 215.06 65.637 Q216.889 62.0722 216.889 54.9658 Q216.889 47.8362 215.06 44.2945 Q213.255 40.7297 209.62 40.7297 M209.62 37.026 Q215.43 37.026 218.486 41.6325 Q221.565 46.2158 221.565 54.9658 Q221.565 63.6926 218.486 68.299 Q215.43 72.8823 209.62 72.8823 Q203.81 72.8823 200.732 68.299 Q197.676 63.6926 197.676 54.9658 Q197.676 46.2158 200.732 41.6325 Q203.81 37.026 209.62 37.026 Z" fill="#000000" fill-rule="nonzero" fill-opacity="1" /><path clip-path="url(#clip110)" d="M39.3193 628.322 Q35.3726 626.126 33.4947 623.07 Q31.6168 620.015 31.6168 615.877 Q31.6168 610.307 35.5317 607.283 Q39.4148 604.259 46.6081 604.259 L68.1242 604.259 L68.1242 610.148 L46.799 610.148 Q41.6746 610.148 39.192 611.962 Q36.7094 613.776 36.7094 617.5 Q36.7094 622.052 39.7331 624.693 Q42.7568 627.335 47.9767 627.335 L68.1242 627.335 L68.1242 633.223 L46.799 633.223 Q41.6428 633.223 39.192 635.038 Q36.7094 636.852 36.7094 640.639 Q36.7094 645.127 39.7649 647.769 Q42.7886 650.411 47.9767 650.411 L68.1242 650.411 L68.1242 656.299 L32.4762 656.299 L32.4762 650.411 L38.0144 650.411 Q34.736 648.406 33.1764 645.605 Q31.6168 642.804 31.6168 638.952 Q31.6168 635.069 33.5902 632.364 Q35.5636 629.627 39.3193 628.322 Z" fill="#000000" fill-rule="nonzero" fill-opacity="1" /><path clip-path="url(#clip110)" d="M48.8361 562.087 L51.7006 562.087 L51.7006 589.014 Q57.7481 588.632 60.9309 585.385 Q64.0819 582.107 64.0819 576.282 Q64.0819 572.908 63.2544 569.757 Q62.4269 566.574 60.7718 563.455 L66.3099 563.455 Q67.6467 566.606 68.347 569.916 Q69.0472 573.227 69.0472 576.632 Q69.0472 585.162 64.0819 590.159 Q59.1167 595.125 50.6503 595.125 Q41.8974 595.125 36.7731 590.414 Q31.6168 585.672 31.6168 577.651 Q31.6168 570.457 36.2638 566.288 Q40.8789 562.087 48.8361 562.087 M47.1173 567.943 Q42.3112 568.007 39.4466 570.648 Q36.5821 573.258 36.5821 577.587 Q36.5821 582.489 39.3512 585.449 Q42.1202 588.377 47.1492 588.823 L47.1173 567.943 Z" fill="#000000" fill-rule="nonzero" fill-opacity="1" /><path clip-path="url(#clip110)" d="M50.2047 536.274 Q50.2047 543.371 51.8279 546.109 Q53.4512 548.846 57.3661 548.846 Q60.4853 548.846 62.3314 546.809 Q64.1456 544.74 64.1456 541.207 Q64.1456 536.337 60.7081 533.409 Q57.2388 530.449 51.5097 530.449 L50.2047 530.449 L50.2047 536.274 M47.7857 524.593 L68.1242 524.593 L68.1242 530.449 L62.7133 530.449 Q65.9598 532.454 67.5194 535.446 Q69.0472 538.438 69.0472 542.767 Q69.0472 548.241 65.9916 551.488 Q62.9043 554.702 57.7481 554.702 Q51.7325 554.702 48.6769 550.692 Q45.6214 546.65 45.6214 538.661 L45.6214 530.449 L45.0485 530.449 Q41.0062 530.449 38.8101 533.123 Q36.5821 535.764 36.5821 540.57 Q36.5821 543.626 37.3141 546.522 Q38.0462 549.419 39.5103 552.092 L34.0995 552.092 Q32.8581 548.878 32.2534 545.854 Q31.6168 542.83 31.6168 539.966 Q31.6168 532.231 35.6272 528.412 Q39.6376 524.593 47.7857 524.593 Z" fill="#000000" fill-rule="nonzero" fill-opacity="1" /><path clip-path="url(#clip110)" d="M46.6081 482.897 L68.1242 482.897 L68.1242 488.754 L46.799 488.754 Q41.7383 488.754 39.2238 490.727 Q36.7094 492.7 36.7094 496.647 Q36.7094 501.39 39.7331 504.127 Q42.7568 506.864 47.9767 506.864 L68.1242 506.864 L68.1242 512.752 L32.4762 512.752 L32.4762 506.864 L38.0144 506.864 Q34.7997 504.763 33.2083 501.931 Q31.6168 499.066 31.6168 495.342 Q31.6168 489.199 35.4363 486.048 Q39.2238 482.897 46.6081 482.897 Z" fill="#000000" fill-rule="nonzero" fill-opacity="1" /><path clip-path="url(#clip110)" d="M62.777 444.83 L81.6831 444.83 L81.6831 450.719 L32.4762 450.719 L32.4762 444.83 L37.8871 444.83 Q34.7042 442.984 33.1764 440.183 Q31.6168 437.351 31.6168 433.436 Q31.6168 426.943 36.7731 422.9 Q41.9293 418.826 50.332 418.826 Q58.7347 418.826 63.891 422.9 Q69.0472 426.943 69.0472 433.436 Q69.0472 437.351 67.5194 440.183 Q65.9598 442.984 62.777 444.83 M50.332 424.906 Q43.8708 424.906 40.2105 427.579 Q36.5184 430.221 36.5184 434.868 Q36.5184 439.515 40.2105 442.188 Q43.8708 444.83 50.332 444.83 Q56.7932 444.83 60.4853 442.188 Q64.1456 439.515 64.1456 434.868 Q64.1456 430.221 60.4853 427.579 Q56.7932 424.906 50.332 424.906 Z" fill="#000000" fill-rule="nonzero" fill-opacity="1" /><path clip-path="url(#clip110)" d="M48.8361 378.627 L51.7006 378.627 L51.7006 405.554 Q57.7481 405.172 60.9309 401.925 Q64.0819 398.647 64.0819 392.822 Q64.0819 389.449 63.2544 386.298 Q62.4269 383.115 60.7718 379.996 L66.3099 379.996 Q67.6467 383.147 68.347 386.457 Q69.0472 389.767 69.0472 393.173 Q69.0472 401.703 64.0819 406.7 Q59.1167 411.665 50.6503 411.665 Q41.8974 411.665 36.7731 406.954 Q31.6168 402.212 31.6168 394.191 Q31.6168 386.998 36.2638 382.828 Q40.8789 378.627 48.8361 378.627 M47.1173 384.483 Q42.3112 384.547 39.4466 387.189 Q36.5821 389.799 36.5821 394.127 Q36.5821 399.029 39.3512 401.989 Q42.1202 404.917 47.1492 405.363 L47.1173 384.483 Z" fill="#000000" fill-rule="nonzero" fill-opacity="1" /><path clip-path="url(#clip110)" d="M37.9507 348.358 Q37.3778 349.345 37.1232 350.522 Q36.8367 351.668 36.8367 353.069 Q36.8367 358.034 40.0832 360.707 Q43.2979 363.349 49.3453 363.349 L68.1242 363.349 L68.1242 369.237 L32.4762 369.237 L32.4762 363.349 L38.0144 363.349 Q34.7679 361.503 33.2083 358.543 Q31.6168 355.583 31.6168 351.35 Q31.6168 350.745 31.7123 350.013 Q31.776 349.281 31.9351 348.39 L37.9507 348.358 Z" fill="#000000" fill-rule="nonzero" fill-opacity="1" /><path clip-path="url(#clip110)" d="M18.599 324.168 L23.4687 324.168 L23.4687 329.77 Q23.4687 332.921 24.7419 334.162 Q26.015 335.372 29.3252 335.372 L32.4762 335.372 L32.4762 325.728 L37.0277 325.728 L37.0277 335.372 L68.1242 335.372 L68.1242 341.26 L37.0277 341.26 L37.0277 346.862 L32.4762 346.862 L32.4762 341.26 L29.9936 341.26 Q24.0416 341.26 21.3362 338.491 Q18.599 335.722 18.599 329.706 L18.599 324.168 Z" fill="#000000" fill-rule="nonzero" fill-opacity="1" /><path clip-path="url(#clip110)" d="M36.5821 305.453 Q36.5821 310.164 40.2742 312.901 Q43.9345 315.638 50.332 315.638 Q56.7295 315.638 60.4217 312.933 Q64.0819 310.196 64.0819 305.453 Q64.0819 300.774 60.3898 298.037 Q56.6977 295.3 50.332 295.3 Q43.9981 295.3 40.306 298.037 Q36.5821 300.774 36.5821 305.453 M31.6168 305.453 Q31.6168 297.814 36.5821 293.454 Q41.5473 289.093 50.332 289.093 Q59.0849 289.093 64.0819 293.454 Q69.0472 297.814 69.0472 305.453 Q69.0472 313.124 64.0819 317.484 Q59.0849 321.813 50.332 321.813 Q41.5473 321.813 36.5821 317.484 Q31.6168 313.124 31.6168 305.453 Z" fill="#000000" fill-rule="nonzero" fill-opacity="1" /><path clip-path="url(#clip110)" d="M37.9507 258.729 Q37.3778 259.716 37.1232 260.893 Q36.8367 262.039 36.8367 263.439 Q36.8367 268.405 40.0832 271.078 Q43.2979 273.72 49.3453 273.72 L68.1242 273.72 L68.1242 279.608 L32.4762 279.608 L32.4762 273.72 L38.0144 273.72 Q34.7679 271.874 33.2083 268.914 Q31.6168 265.954 31.6168 261.721 Q31.6168 261.116 31.7123 260.384 Q31.776 259.652 31.9351 258.761 L37.9507 258.729 Z" fill="#000000" fill-rule="nonzero" fill-opacity="1" /><path clip-path="url(#clip110)" d="M39.3193 225.977 Q35.3726 223.781 33.4947 220.726 Q31.6168 217.67 31.6168 213.532 Q31.6168 207.962 35.5317 204.939 Q39.4148 201.915 46.6081 201.915 L68.1242 201.915 L68.1242 207.803 L46.799 207.803 Q41.6746 207.803 39.192 209.617 Q36.7094 211.432 36.7094 215.156 Q36.7094 219.707 39.7331 222.349 Q42.7568 224.991 47.9767 224.991 L68.1242 224.991 L68.1242 230.879 L46.799 230.879 Q41.6428 230.879 39.192 232.693 Q36.7094 234.507 36.7094 238.295 Q36.7094 242.783 39.7649 245.424 Q42.7886 248.066 47.9767 248.066 L68.1242 248.066 L68.1242 253.955 L32.4762 253.955 L32.4762 248.066 L38.0144 248.066 Q34.736 246.061 33.1764 243.26 Q31.6168 240.459 31.6168 236.608 Q31.6168 232.725 33.5902 230.019 Q35.5636 227.282 39.3193 225.977 Z" fill="#000000" fill-rule="nonzero" fill-opacity="1" /><path clip-path="url(#clip110)" d="M50.2047 174.033 Q50.2047 181.131 51.8279 183.868 Q53.4512 186.605 57.3661 186.605 Q60.4853 186.605 62.3314 184.568 Q64.1456 182.499 64.1456 178.967 Q64.1456 174.097 60.7081 171.169 Q57.2388 168.208 51.5097 168.208 L50.2047 168.208 L50.2047 174.033 M47.7857 162.352 L68.1242 162.352 L68.1242 168.208 L62.7133 168.208 Q65.9598 170.214 67.5194 173.206 Q69.0472 176.197 69.0472 180.526 Q69.0472 186.001 65.9916 189.247 Q62.9043 192.462 57.7481 192.462 Q51.7325 192.462 48.6769 188.451 Q45.6214 184.409 45.6214 176.42 L45.6214 168.208 L45.0485 168.208 Q41.0062 168.208 38.8101 170.882 Q36.5821 173.524 36.5821 178.33 Q36.5821 181.385 37.3141 184.282 Q38.0462 187.178 39.5103 189.852 L34.0995 189.852 Q32.8581 186.637 32.2534 183.613 Q31.6168 180.59 31.6168 177.725 Q31.6168 169.991 35.6272 166.171 Q39.6376 162.352 47.7857 162.352 Z" fill="#000000" fill-rule="nonzero" fill-opacity="1" /><path clip-path="url(#clip110)" d="M46.6081 120.657 L68.1242 120.657 L68.1242 126.513 L46.799 126.513 Q41.7383 126.513 39.2238 128.486 Q36.7094 130.46 36.7094 134.407 Q36.7094 139.149 39.7331 141.886 Q42.7568 144.624 47.9767 144.624 L68.1242 144.624 L68.1242 150.512 L32.4762 150.512 L32.4762 144.624 L38.0144 144.624 Q34.7997 142.523 33.2083 139.69 Q31.6168 136.826 31.6168 133.102 Q31.6168 126.959 35.4363 123.808 Q39.2238 120.657 46.6081 120.657 Z" fill="#000000" fill-rule="nonzero" fill-opacity="1" /><path clip-path="url(#clip110)" d="M33.8448 83.3218 L39.3193 83.3218 Q37.9507 85.8044 37.2823 88.3189 Q36.5821 90.8015 36.5821 93.3478 Q36.5821 99.0451 40.2105 102.196 Q43.8072 105.347 50.332 105.347 Q56.8569 105.347 60.4853 102.196 Q64.0819 99.0451 64.0819 93.3478 Q64.0819 90.8015 63.4135 88.3189 Q62.7133 85.8044 61.3447 83.3218 L66.7555 83.3218 Q67.9014 85.7726 68.4743 88.4143 Q69.0472 91.0243 69.0472 93.9843 Q69.0472 102.037 63.9864 106.779 Q58.9257 111.522 50.332 111.522 Q41.611 111.522 36.6139 106.748 Q31.6168 101.941 31.6168 93.6024 Q31.6168 90.897 32.1897 88.3189 Q32.7308 85.7407 33.8448 83.3218 Z" fill="#000000" fill-rule="nonzero" fill-opacity="1" /><path clip-path="url(#clip110)" d="M48.8361 42.6449 L51.7006 42.6449 L51.7006 69.5718 Q57.7481 69.1899 60.9309 65.9434 Q64.0819 62.6651 64.0819 56.8404 Q64.0819 53.4666 63.2544 50.3156 Q62.4269 47.1327 60.7718 44.0135 L66.3099 44.0135 Q67.6467 47.1646 68.347 50.4747 Q69.0472 53.7849 69.0472 57.1905 Q69.0472 65.7206 64.0819 70.7177 Q59.1167 75.6829 50.6503 75.6829 Q41.8974 75.6829 36.7731 70.9723 Q31.6168 66.2299 31.6168 58.2091 Q31.6168 51.0158 36.2638 46.8463 Q40.8789 42.6449 48.8361 42.6449 M47.1173 48.5014 Q42.3112 48.565 39.4466 51.2068 Q36.5821 53.8167 36.5821 58.1454 Q36.5821 63.047 39.3512 66.0071 Q42.1202 68.9353 47.1492 69.3809 L47.1173 48.5014 Z" fill="#000000" fill-rule="nonzero" fill-opacity="1" /><path clip-path="url(#clip112)" d="M323.996 456.289 L323.996 651.7 L428.571 651.7 L428.571 456.289 L323.996 456.289 L323.996 456.289  Z" fill="#34495e" fill-rule="evenodd" fill-opacity="1"/>
<polyline clip-path="url(#clip112)" style="stroke:#ffffff; stroke-linecap:round; stroke-linejoin:round; stroke-width:4; stroke-opacity:1; fill:none" points="323.996,456.289 323.996,651.7 428.571,651.7 428.571,456.289 323.996,456.289 "/>
<path clip-path="url(#clip112)" d="M454.715 424.394 L454.715 651.7 L559.291 651.7 L559.291 424.394 L454.715 424.394 L454.715 424.394  Z" fill="#34495e" fill-rule="evenodd" fill-opacity="1"/>
<polyline clip-path="url(#clip112)" style="stroke:#ffffff; stroke-linecap:round; stroke-linejoin:round; stroke-width:4; stroke-opacity:1; fill:none" points="454.715,424.394 454.715,651.7 559.291,651.7 559.291,424.394 454.715,424.394 "/>
<path clip-path="url(#clip112)" d="M585.434 120.872 L585.434 651.7 L690.01 651.7 L690.01 120.872 L585.434 120.872 L585.434 120.872  Z" fill="#34495e" fill-rule="evenodd" fill-opacity="1"/>
<polyline clip-path="url(#clip112)" style="stroke:#ffffff; stroke-linecap:round; stroke-linejoin:round; stroke-width:4; stroke-opacity:1; fill:none" points="585.434,120.872 585.434,651.7 690.01,651.7 690.01,120.872 585.434,120.872 "/>
<path clip-path="url(#clip112)" d="M716.154 47.2441 L716.154 651.7 L820.729 651.7 L820.729 47.2441 L716.154 47.2441 L716.154 47.2441  Z" fill="#34495e" fill-rule="evenodd" fill-opacity="1"/>
<polyline clip-path="url(#clip112)" style="stroke:#ffffff; stroke-linecap:round; stroke-linejoin:round; stroke-width:4; stroke-opacity:1; fill:none" points="716.154,47.2441 716.154,651.7 820.729,651.7 820.729,47.2441 716.154,47.2441 "/>
<path clip-path="url(#clip112)" d="M846.873 50.9489 L846.873 651.7 L951.448 651.7 L951.448 50.9489 L846.873 50.9489 L846.873 50.9489  Z" fill="#34495e" fill-rule="evenodd" fill-opacity="1"/>
<polyline clip-path="url(#clip112)" style="stroke:#ffffff; stroke-linecap:round; stroke-linejoin:round; stroke-width:4; stroke-opacity:1; fill:none" points="846.873,50.9489 846.873,651.7 951.448,651.7 951.448,50.9489 846.873,50.9489 "/>
<path clip-path="url(#clip112)" d="M977.592 59.6077 L977.592 651.7 L1082.17 651.7 L1082.17 59.6077 L977.592 59.6077 L977.592 59.6077  Z" fill="#34495e" fill-rule="evenodd" fill-opacity="1"/>
<polyline clip-path="url(#clip112)" style="stroke:#ffffff; stroke-linecap:round; stroke-linejoin:round; stroke-width:4; stroke-opacity:1; fill:none" points="977.592,59.6077 977.592,651.7 1082.17,651.7 1082.17,59.6077 977.592,59.6077 "/>
<path clip-path="url(#clip112)" d="M1108.31 50.7176 L1108.31 651.7 L1212.89 651.7 L1212.89 50.7176 L1108.31 50.7176 L1108.31 50.7176  Z" fill="#34495e" fill-rule="evenodd" fill-opacity="1"/>
<polyline clip-path="url(#clip112)" style="stroke:#ffffff; stroke-linecap:round; stroke-linejoin:round; stroke-width:4; stroke-opacity:1; fill:none" points="1108.31,50.7176 1108.31,651.7 1212.89,651.7 1212.89,50.7176 1108.31,50.7176 "/>
<path clip-path="url(#clip112)" d="M1239.03 64.1854 L1239.03 651.7 L1343.61 651.7 L1343.61 64.1854 L1239.03 64.1854 L1239.03 64.1854  Z" fill="#34495e" fill-rule="evenodd" fill-opacity="1"/>
<polyline clip-path="url(#clip112)" style="stroke:#ffffff; stroke-linecap:round; stroke-linejoin:round; stroke-width:4; stroke-opacity:1; fill:none" points="1239.03,64.1854 1239.03,651.7 1343.61,651.7 1343.61,64.1854 1239.03,64.1854 "/>
<path clip-path="url(#clip112)" d="M1369.75 95.3804 L1369.75 651.7 L1474.32 651.7 L1474.32 95.3804 L1369.75 95.3804 L1369.75 95.3804  Z" fill="#34495e" fill-rule="evenodd" fill-opacity="1"/>
<polyline clip-path="url(#clip112)" style="stroke:#ffffff; stroke-linecap:round; stroke-linejoin:round; stroke-width:4; stroke-opacity:1; fill:none" points="1369.75,95.3804 1369.75,651.7 1474.32,651.7 1474.32,95.3804 1369.75,95.3804 "/>
<circle clip-path="url(#clip112)" style="fill:#34495e; stroke:none; fill-opacity:0" cx="376.284" cy="456.289" r="2"/>
<circle clip-path="url(#clip112)" style="fill:#34495e; stroke:none; fill-opacity:0" cx="507.003" cy="424.394" r="2"/>
<circle clip-path="url(#clip112)" style="fill:#34495e; stroke:none; fill-opacity:0" cx="637.722" cy="120.872" r="2"/>
<circle clip-path="url(#clip112)" style="fill:#34495e; stroke:none; fill-opacity:0" cx="768.441" cy="47.2441" r="2"/>
<circle clip-path="url(#clip112)" style="fill:#34495e; stroke:none; fill-opacity:0" cx="899.16" cy="50.9489" r="2"/>
<circle clip-path="url(#clip112)" style="fill:#34495e; stroke:none; fill-opacity:0" cx="1029.88" cy="59.6077" r="2"/>
<circle clip-path="url(#clip112)" style="fill:#34495e; stroke:none; fill-opacity:0" cx="1160.6" cy="50.7176" r="2"/>
<circle clip-path="url(#clip112)" style="fill:#34495e; stroke:none; fill-opacity:0" cx="1291.32" cy="64.1854" r="2"/>
<circle clip-path="url(#clip112)" style="fill:#34495e; stroke:none; fill-opacity:0" cx="1422.04" cy="95.3804" r="2"/>
</svg>
