<?xml version="1.0" encoding="UTF-8" standalone="no"?>
<svg
   width="600"
   height="400"
   viewBox="0 0 2400 1600"
   version="1.1"
   id="svg473"
   sodipodi:docname="Compared to non-specialized 5k.svg"
   inkscape:version="1.2.2 (b0a8486, 2022-12-01)"
   xmlns:inkscape="http://www.inkscape.org/namespaces/inkscape"
   xmlns:sodipodi="http://sodipodi.sourceforge.net/DTD/sodipodi-0.dtd"
   xmlns="http://www.w3.org/2000/svg"
   xmlns:svg="http://www.w3.org/2000/svg">
  <sodipodi:namedview
     id="namedview475"
     pagecolor="#ffffff"
     bordercolor="#000000"
     borderopacity="0.25"
     inkscape:showpageshadow="2"
     inkscape:pageopacity="0.0"
     inkscape:pagecheckerboard="0"
     inkscape:deskcolor="#d1d1d1"
     showgrid="false"
     inkscape:zoom="2.5153174"
     inkscape:cx="325.40625"
     inkscape:cy="210.90778"
     inkscape:window-width="2560"
     inkscape:window-height="1376"
     inkscape:window-x="1440"
     inkscape:window-y="540"
     inkscape:window-maximized="1"
     inkscape:current-layer="svg473" />
  <defs
     id="defs185">
    <clipPath
       id="clip510">
      <rect
         x="0"
         y="0"
         width="2400"
         height="1600"
         id="rect182" />
    </clipPath>
  </defs>
  <path
     clip-path="url(#clip510)"
     d="M0 1600 L2400 1600 L2400 0 L0 0  Z"
     fill="#ffffff"
     fill-rule="evenodd"
     fill-opacity="1"
     id="path187" />
  <defs
     id="defs192">
    <clipPath
       id="clip511">
      <rect
         x="480"
         y="0"
         width="1681"
         height="1600"
         id="rect189" />
    </clipPath>
  </defs>
  <path
     clip-path="url(#clip510)"
     d="M264.287 1388.62 L2352.76 1388.62 L2352.76 247.477 L264.287 247.477  Z"
     fill="#ffffff"
     fill-rule="evenodd"
     fill-opacity="1"
     id="path194" />
  <defs
     id="defs199">
    <clipPath
       id="clip512">
      <rect
         x="264"
         y="247"
         width="2089"
         height="1142"
         id="rect196" />
    </clipPath>
  </defs>
  <polyline
     clip-path="url(#clip512)"
     style="stroke:#000000; stroke-linecap:round; stroke-linejoin:round; stroke-width:2; stroke-opacity:0.1; fill:none"
     points="2293.65,1388.62 2293.65,247.477 "
     id="polyline201" />
  <polyline
     clip-path="url(#clip512)"
     style="stroke:#000000; stroke-linecap:round; stroke-linejoin:round; stroke-width:2; stroke-opacity:0.1; fill:none"
     points="1899.6,1388.62 1899.6,247.477 "
     id="polyline203" />
  <polyline
     clip-path="url(#clip512)"
     style="stroke:#000000; stroke-linecap:round; stroke-linejoin:round; stroke-width:2; stroke-opacity:0.1; fill:none"
     points="1505.55,1388.62 1505.55,247.477 "
     id="polyline205" />
  <polyline
     clip-path="url(#clip512)"
     style="stroke:#000000; stroke-linecap:round; stroke-linejoin:round; stroke-width:2; stroke-opacity:0.1; fill:none"
     points="1111.5,1388.62 1111.5,247.477 "
     id="polyline207" />
  <polyline
     clip-path="url(#clip512)"
     style="stroke:#000000; stroke-linecap:round; stroke-linejoin:round; stroke-width:2; stroke-opacity:0.1; fill:none"
     points="717.446,1388.62 717.446,247.477 "
     id="polyline209" />
  <polyline
     clip-path="url(#clip512)"
     style="stroke:#000000; stroke-linecap:round; stroke-linejoin:round; stroke-width:2; stroke-opacity:0.1; fill:none"
     points="323.395,1388.62 323.395,247.477 "
     id="polyline211" />
  <polyline
     clip-path="url(#clip510)"
     style="stroke:#000000; stroke-linecap:round; stroke-linejoin:round; stroke-width:4; stroke-opacity:1; fill:none"
     points="2352.76,1388.62 264.287,1388.62 "
     id="polyline213" />
  <polyline
     clip-path="url(#clip510)"
     style="stroke:#000000; stroke-linecap:round; stroke-linejoin:round; stroke-width:4; stroke-opacity:1; fill:none"
     points="2293.65,1388.62 2293.65,1372.54 "
     id="polyline215" />
  <polyline
     clip-path="url(#clip510)"
     style="stroke:#000000; stroke-linecap:round; stroke-linejoin:round; stroke-width:4; stroke-opacity:1; fill:none"
     points="1899.6,1388.62 1899.6,1372.54 "
     id="polyline217" />
  <polyline
     clip-path="url(#clip510)"
     style="stroke:#000000; stroke-linecap:round; stroke-linejoin:round; stroke-width:4; stroke-opacity:1; fill:none"
     points="1505.55,1388.62 1505.55,1372.54 "
     id="polyline219" />
  <polyline
     clip-path="url(#clip510)"
     style="stroke:#000000; stroke-linecap:round; stroke-linejoin:round; stroke-width:4; stroke-opacity:1; fill:none"
     points="1111.5,1388.62 1111.5,1372.54 "
     id="polyline221" />
  <polyline
     clip-path="url(#clip510)"
     style="stroke:#000000; stroke-linecap:round; stroke-linejoin:round; stroke-width:4; stroke-opacity:1; fill:none"
     points="717.446,1388.62 717.446,1372.54 "
     id="polyline223" />
  <polyline
     clip-path="url(#clip510)"
     style="stroke:#000000; stroke-linecap:round; stroke-linejoin:round; stroke-width:4; stroke-opacity:1; fill:none"
     points="323.395,1388.62 323.395,1372.54 "
     id="polyline225" />
  <path
     clip-path="url(#clip510)"
     d="M2264.66 1426.09 L2264.66 1430.07 Q2262.85 1429.08 2261.02 1428.59 Q2259.22 1428.08 2257.36 1428.08 Q2253.22 1428.08 2250.93 1430.72 Q2248.64 1433.33 2248.64 1438.08 Q2248.64 1442.83 2250.93 1445.46 Q2253.22 1448.08 2257.36 1448.08 Q2259.22 1448.08 2261.02 1447.59 Q2262.85 1447.08 2264.66 1446.09 L2264.66 1450.02 Q2262.87 1450.86 2260.95 1451.27 Q2259.05 1451.69 2256.9 1451.69 Q2251.04 1451.69 2247.6 1448.01 Q2244.15 1444.33 2244.15 1438.08 Q2244.15 1431.74 2247.62 1428.1 Q2251.11 1424.47 2257.18 1424.47 Q2259.15 1424.47 2261.02 1424.89 Q2262.9 1425.28 2264.66 1426.09 Z"
     fill="#000000"
     fill-rule="nonzero"
     fill-opacity="1"
     id="path227" />
  <path
     clip-path="url(#clip510)"
     d="M2283.85 1437.99 Q2278.68 1437.99 2276.69 1439.17 Q2274.7 1440.35 2274.7 1443.2 Q2274.7 1445.46 2276.18 1446.81 Q2277.69 1448.13 2280.26 1448.13 Q2283.8 1448.13 2285.93 1445.63 Q2288.08 1443.1 2288.08 1438.94 L2288.08 1437.99 L2283.85 1437.99 M2292.34 1436.23 L2292.34 1451.02 L2288.08 1451.02 L2288.08 1447.08 Q2286.62 1449.45 2284.45 1450.58 Q2282.27 1451.69 2279.12 1451.69 Q2275.14 1451.69 2272.78 1449.47 Q2270.44 1447.22 2270.44 1443.47 Q2270.44 1439.1 2273.36 1436.88 Q2276.3 1434.65 2282.11 1434.65 L2288.08 1434.65 L2288.08 1434.24 Q2288.08 1431.3 2286.14 1429.7 Q2284.22 1428.08 2280.72 1428.08 Q2278.5 1428.08 2276.39 1428.61 Q2274.28 1429.14 2272.34 1430.21 L2272.34 1426.27 Q2274.68 1425.37 2276.88 1424.93 Q2279.08 1424.47 2281.16 1424.47 Q2286.78 1424.47 2289.56 1427.39 Q2292.34 1430.3 2292.34 1436.23 Z"
     fill="#000000"
     fill-rule="nonzero"
     fill-opacity="1"
     id="path229" />
  <path
     clip-path="url(#clip510)"
     d="M2316.14 1429.08 Q2315.42 1428.66 2314.56 1428.47 Q2313.73 1428.27 2312.71 1428.27 Q2309.1 1428.27 2307.16 1430.63 Q2305.23 1432.96 2305.23 1437.36 L2305.23 1451.02 L2300.95 1451.02 L2300.95 1425.09 L2305.23 1425.09 L2305.23 1429.12 Q2306.58 1426.76 2308.73 1425.63 Q2310.88 1424.47 2313.96 1424.47 Q2314.4 1424.47 2314.93 1424.54 Q2315.47 1424.58 2316.11 1424.7 L2316.14 1429.08 Z"
     fill="#000000"
     fill-rule="nonzero"
     fill-opacity="1"
     id="path231" />
  <path
     clip-path="url(#clip510)"
     d="M2331.21 1419.54 Q2327.59 1419.54 2325.77 1423.1 Q2323.96 1426.64 2323.96 1433.77 Q2323.96 1440.88 2325.77 1444.45 Q2327.59 1447.99 2331.21 1447.99 Q2334.84 1447.99 2336.65 1444.45 Q2338.47 1440.88 2338.47 1433.77 Q2338.47 1426.64 2336.65 1423.1 Q2334.84 1419.54 2331.21 1419.54 M2331.21 1415.83 Q2337.02 1415.83 2340.07 1420.44 Q2343.15 1425.02 2343.15 1433.77 Q2343.15 1442.5 2340.07 1447.11 Q2337.02 1451.69 2331.21 1451.69 Q2325.4 1451.69 2322.32 1447.11 Q2319.26 1442.5 2319.26 1433.77 Q2319.26 1425.02 2322.32 1420.44 Q2325.4 1415.83 2331.21 1415.83 Z"
     fill="#000000"
     fill-rule="nonzero"
     fill-opacity="1"
     id="path233" />
  <path
     clip-path="url(#clip510)"
     d="M2197.92 1466.89 Q2194.82 1472.21 2193.31 1477.42 Q2191.81 1482.63 2191.81 1487.98 Q2191.81 1493.32 2193.31 1498.58 Q2194.84 1503.81 2197.92 1509.11 L2194.22 1509.11 Q2190.74 1503.67 2189.01 1498.42 Q2187.29 1493.16 2187.29 1487.98 Q2187.29 1482.81 2189.01 1477.58 Q2190.72 1472.35 2194.22 1466.89 L2197.92 1466.89 Z"
     fill="#000000"
     fill-rule="nonzero"
     fill-opacity="1"
     id="path235" />
  <path
     clip-path="url(#clip510)"
     d="M2221.21 1480.92 Q2220.49 1480.5 2219.63 1480.31 Q2218.8 1480.11 2217.78 1480.11 Q2214.17 1480.11 2212.23 1482.47 Q2210.3 1484.8 2210.3 1489.2 L2210.3 1502.86 L2206.02 1502.86 L2206.02 1476.93 L2210.3 1476.93 L2210.3 1480.96 Q2211.65 1478.6 2213.8 1477.47 Q2215.95 1476.31 2219.03 1476.31 Q2219.47 1476.31 2220 1476.38 Q2220.54 1476.42 2221.18 1476.54 L2221.21 1480.92 Z"
     fill="#000000"
     fill-rule="nonzero"
     fill-opacity="1"
     id="path237" />
  <path
     clip-path="url(#clip510)"
     d="M2237.46 1489.83 Q2232.29 1489.83 2230.3 1491.01 Q2228.31 1492.19 2228.31 1495.04 Q2228.31 1497.3 2229.79 1498.65 Q2231.3 1499.97 2233.87 1499.97 Q2237.41 1499.97 2239.54 1497.47 Q2241.69 1494.94 2241.69 1490.78 L2241.69 1489.83 L2237.46 1489.83 M2245.95 1488.07 L2245.95 1502.86 L2241.69 1502.86 L2241.69 1498.92 Q2240.23 1501.29 2238.06 1502.42 Q2235.88 1503.53 2232.73 1503.53 Q2228.75 1503.53 2226.39 1501.31 Q2224.05 1499.06 2224.05 1495.31 Q2224.05 1490.94 2226.97 1488.72 Q2229.91 1486.49 2235.72 1486.49 L2241.69 1486.49 L2241.69 1486.08 Q2241.69 1483.14 2239.75 1481.54 Q2237.83 1479.92 2234.33 1479.92 Q2232.11 1479.92 2230 1480.45 Q2227.9 1480.98 2225.95 1482.05 L2225.95 1478.11 Q2228.29 1477.21 2230.49 1476.77 Q2232.69 1476.31 2234.77 1476.31 Q2240.4 1476.31 2243.17 1479.23 Q2245.95 1482.14 2245.95 1488.07 Z"
     fill="#000000"
     fill-rule="nonzero"
     fill-opacity="1"
     id="path239" />
  <path
     clip-path="url(#clip510)"
     d="M2276.28 1487.21 L2276.28 1502.86 L2272.02 1502.86 L2272.02 1487.35 Q2272.02 1483.67 2270.58 1481.84 Q2269.15 1480.01 2266.28 1480.01 Q2262.83 1480.01 2260.84 1482.21 Q2258.85 1484.41 2258.85 1488.21 L2258.85 1502.86 L2254.56 1502.86 L2254.56 1476.93 L2258.85 1476.93 L2258.85 1480.96 Q2260.37 1478.62 2262.43 1477.47 Q2264.52 1476.31 2267.22 1476.31 Q2271.69 1476.31 2273.98 1479.09 Q2276.28 1481.84 2276.28 1487.21 Z"
     fill="#000000"
     fill-rule="nonzero"
     fill-opacity="1"
     id="path241" />
  <path
     clip-path="url(#clip510)"
     d="M2301.83 1480.87 L2301.83 1466.84 L2306.09 1466.84 L2306.09 1502.86 L2301.83 1502.86 L2301.83 1498.97 Q2300.49 1501.29 2298.43 1502.42 Q2296.39 1503.53 2293.52 1503.53 Q2288.82 1503.53 2285.86 1499.78 Q2282.92 1496.03 2282.92 1489.92 Q2282.92 1483.81 2285.86 1480.06 Q2288.82 1476.31 2293.52 1476.31 Q2296.39 1476.31 2298.43 1477.44 Q2300.49 1478.55 2301.83 1480.87 M2287.32 1489.92 Q2287.32 1494.62 2289.24 1497.3 Q2291.18 1499.97 2294.56 1499.97 Q2297.94 1499.97 2299.89 1497.3 Q2301.83 1494.62 2301.83 1489.92 Q2301.83 1485.22 2299.89 1482.56 Q2297.94 1479.87 2294.56 1479.87 Q2291.18 1479.87 2289.24 1482.56 Q2287.32 1485.22 2287.32 1489.92 Z"
     fill="#000000"
     fill-rule="nonzero"
     fill-opacity="1"
     id="path243" />
  <path
     clip-path="url(#clip510)"
     d="M2324.91 1479.92 Q2321.48 1479.92 2319.49 1482.61 Q2317.5 1485.27 2317.5 1489.92 Q2317.5 1494.57 2319.47 1497.26 Q2321.46 1499.92 2324.91 1499.92 Q2328.31 1499.92 2330.3 1497.23 Q2332.29 1494.55 2332.29 1489.92 Q2332.29 1485.31 2330.3 1482.63 Q2328.31 1479.92 2324.91 1479.92 M2324.91 1476.31 Q2330.47 1476.31 2333.64 1479.92 Q2336.81 1483.53 2336.81 1489.92 Q2336.81 1496.29 2333.64 1499.92 Q2330.47 1503.53 2324.91 1503.53 Q2319.33 1503.53 2316.16 1499.92 Q2313.01 1496.29 2313.01 1489.92 Q2313.01 1483.53 2316.16 1479.92 Q2319.33 1476.31 2324.91 1476.31 Z"
     fill="#000000"
     fill-rule="nonzero"
     fill-opacity="1"
     id="path245" />
  <path
     clip-path="url(#clip510)"
     d="M2364.05 1481.91 Q2365.65 1479.04 2367.87 1477.67 Q2370.09 1476.31 2373.1 1476.31 Q2377.15 1476.31 2379.35 1479.16 Q2381.55 1481.98 2381.55 1487.21 L2381.55 1502.86 L2377.27 1502.86 L2377.27 1487.35 Q2377.27 1483.62 2375.95 1481.82 Q2374.63 1480.01 2371.92 1480.01 Q2368.61 1480.01 2366.69 1482.21 Q2364.77 1484.41 2364.77 1488.21 L2364.77 1502.86 L2360.49 1502.86 L2360.49 1487.35 Q2360.49 1483.6 2359.17 1481.82 Q2357.85 1480.01 2355.09 1480.01 Q2351.83 1480.01 2349.91 1482.23 Q2347.99 1484.43 2347.99 1488.21 L2347.99 1502.86 L2343.71 1502.86 L2343.71 1476.93 L2347.99 1476.93 L2347.99 1480.96 Q2349.45 1478.58 2351.48 1477.44 Q2353.52 1476.31 2356.32 1476.31 Q2359.15 1476.31 2361.11 1477.74 Q2363.1 1479.18 2364.05 1481.91 Z"
     fill="#000000"
     fill-rule="nonzero"
     fill-opacity="1"
     id="path247" />
  <path
     clip-path="url(#clip510)"
     d="M2389.38 1466.89 L2393.08 1466.89 Q2396.55 1472.35 2398.27 1477.58 Q2400 1482.81 2400 1487.98 Q2400 1493.16 2398.27 1498.42 Q2396.55 1503.67 2393.08 1509.11 L2389.38 1509.11 Q2392.46 1503.81 2393.96 1498.58 Q2395.49 1493.32 2395.49 1487.98 Q2395.49 1482.63 2393.96 1477.42 Q2392.46 1472.21 2389.38 1466.89 Z"
     fill="#000000"
     fill-rule="nonzero"
     fill-opacity="1"
     id="path249" />
  <path
     clip-path="url(#clip510)"
     d="M1871.22 1426.09 L1871.22 1430.07 Q1869.41 1429.08 1867.58 1428.59 Q1865.78 1428.08 1863.93 1428.08 Q1859.78 1428.08 1857.49 1430.72 Q1855.2 1433.33 1855.2 1438.08 Q1855.2 1442.83 1857.49 1445.46 Q1859.78 1448.08 1863.93 1448.08 Q1865.78 1448.08 1867.58 1447.59 Q1869.41 1447.08 1871.22 1446.09 L1871.22 1450.02 Q1869.44 1450.86 1867.51 1451.27 Q1865.62 1451.69 1863.46 1451.69 Q1857.61 1451.69 1854.16 1448.01 Q1850.71 1444.33 1850.71 1438.08 Q1850.71 1431.74 1854.18 1428.1 Q1857.68 1424.47 1863.74 1424.47 Q1865.71 1424.47 1867.58 1424.89 Q1869.46 1425.28 1871.22 1426.09 Z"
     fill="#000000"
     fill-rule="nonzero"
     fill-opacity="1"
     id="path251" />
  <path
     clip-path="url(#clip510)"
     d="M1890.41 1437.99 Q1885.25 1437.99 1883.26 1439.17 Q1881.26 1440.35 1881.26 1443.2 Q1881.26 1445.46 1882.75 1446.81 Q1884.25 1448.13 1886.82 1448.13 Q1890.36 1448.13 1892.49 1445.63 Q1894.64 1443.1 1894.64 1438.94 L1894.64 1437.99 L1890.41 1437.99 M1898.9 1436.23 L1898.9 1451.02 L1894.64 1451.02 L1894.64 1447.08 Q1893.19 1449.45 1891.01 1450.58 Q1888.83 1451.69 1885.69 1451.69 Q1881.7 1451.69 1879.34 1449.47 Q1877.01 1447.22 1877.01 1443.47 Q1877.01 1439.1 1879.92 1436.88 Q1882.86 1434.65 1888.67 1434.65 L1894.64 1434.65 L1894.64 1434.24 Q1894.64 1431.3 1892.7 1429.7 Q1890.78 1428.08 1887.28 1428.08 Q1885.06 1428.08 1882.95 1428.61 Q1880.85 1429.14 1878.9 1430.21 L1878.9 1426.27 Q1881.24 1425.37 1883.44 1424.93 Q1885.64 1424.47 1887.72 1424.47 Q1893.35 1424.47 1896.13 1427.39 Q1898.9 1430.3 1898.9 1436.23 Z"
     fill="#000000"
     fill-rule="nonzero"
     fill-opacity="1"
     id="path253" />
  <path
     clip-path="url(#clip510)"
     d="M1922.7 1429.08 Q1921.98 1428.66 1921.13 1428.47 Q1920.29 1428.27 1919.27 1428.27 Q1915.66 1428.27 1913.72 1430.63 Q1911.8 1432.96 1911.8 1437.36 L1911.8 1451.02 L1907.51 1451.02 L1907.51 1425.09 L1911.8 1425.09 L1911.8 1429.12 Q1913.14 1426.76 1915.29 1425.63 Q1917.44 1424.47 1920.52 1424.47 Q1920.96 1424.47 1921.5 1424.54 Q1922.03 1424.58 1922.68 1424.7 L1922.7 1429.08 Z"
     fill="#000000"
     fill-rule="nonzero"
     fill-opacity="1"
     id="path255" />
  <path
     clip-path="url(#clip510)"
     d="M1928.58 1447.08 L1936.22 1447.08 L1936.22 1420.72 L1927.91 1422.39 L1927.91 1418.13 L1936.17 1416.46 L1940.85 1416.46 L1940.85 1447.08 L1948.49 1447.08 L1948.49 1451.02 L1928.58 1451.02 L1928.58 1447.08 Z"
     fill="#000000"
     fill-rule="nonzero"
     fill-opacity="1"
     id="path257" />
  <path
     clip-path="url(#clip510)"
     d="M1477.35 1426.09 L1477.35 1430.07 Q1475.55 1429.08 1473.72 1428.59 Q1471.91 1428.08 1470.06 1428.08 Q1465.92 1428.08 1463.63 1430.72 Q1461.33 1433.33 1461.33 1438.08 Q1461.33 1442.83 1463.63 1445.46 Q1465.92 1448.08 1470.06 1448.08 Q1471.91 1448.08 1473.72 1447.59 Q1475.55 1447.08 1477.35 1446.09 L1477.35 1450.02 Q1475.57 1450.86 1473.65 1451.27 Q1471.75 1451.69 1469.6 1451.69 Q1463.74 1451.69 1460.29 1448.01 Q1456.84 1444.33 1456.84 1438.08 Q1456.84 1431.74 1460.32 1428.1 Q1463.81 1424.47 1469.88 1424.47 Q1471.84 1424.47 1473.72 1424.89 Q1475.59 1425.28 1477.35 1426.09 Z"
     fill="#000000"
     fill-rule="nonzero"
     fill-opacity="1"
     id="path259" />
  <path
     clip-path="url(#clip510)"
     d="M1496.54 1437.99 Q1491.38 1437.99 1489.39 1439.17 Q1487.4 1440.35 1487.4 1443.2 Q1487.4 1445.46 1488.88 1446.81 Q1490.38 1448.13 1492.95 1448.13 Q1496.5 1448.13 1498.63 1445.63 Q1500.78 1443.1 1500.78 1438.94 L1500.78 1437.99 L1496.54 1437.99 M1505.04 1436.23 L1505.04 1451.02 L1500.78 1451.02 L1500.78 1447.08 Q1499.32 1449.45 1497.14 1450.58 Q1494.97 1451.69 1491.82 1451.69 Q1487.84 1451.69 1485.48 1449.47 Q1483.14 1447.22 1483.14 1443.47 Q1483.14 1439.1 1486.06 1436.88 Q1489 1434.65 1494.81 1434.65 L1500.78 1434.65 L1500.78 1434.24 Q1500.78 1431.3 1498.83 1429.7 Q1496.91 1428.08 1493.42 1428.08 Q1491.2 1428.08 1489.09 1428.61 Q1486.98 1429.14 1485.04 1430.21 L1485.04 1426.27 Q1487.38 1425.37 1489.57 1424.93 Q1491.77 1424.47 1493.86 1424.47 Q1499.48 1424.47 1502.26 1427.39 Q1505.04 1430.3 1505.04 1436.23 Z"
     fill="#000000"
     fill-rule="nonzero"
     fill-opacity="1"
     id="path261" />
  <path
     clip-path="url(#clip510)"
     d="M1528.83 1429.08 Q1528.12 1428.66 1527.26 1428.47 Q1526.43 1428.27 1525.41 1428.27 Q1521.8 1428.27 1519.85 1430.63 Q1517.93 1432.96 1517.93 1437.36 L1517.93 1451.02 L1513.65 1451.02 L1513.65 1425.09 L1517.93 1425.09 L1517.93 1429.12 Q1519.27 1426.76 1521.43 1425.63 Q1523.58 1424.47 1526.66 1424.47 Q1527.1 1424.47 1527.63 1424.54 Q1528.16 1424.58 1528.81 1424.7 L1528.83 1429.08 Z"
     fill="#000000"
     fill-rule="nonzero"
     fill-opacity="1"
     id="path263" />
  <path
     clip-path="url(#clip510)"
     d="M1537.93 1447.08 L1554.25 1447.08 L1554.25 1451.02 L1532.31 1451.02 L1532.31 1447.08 Q1534.97 1444.33 1539.55 1439.7 Q1544.16 1435.05 1545.34 1433.71 Q1547.58 1431.18 1548.46 1429.45 Q1549.37 1427.69 1549.37 1426 Q1549.37 1423.24 1547.42 1421.51 Q1545.5 1419.77 1542.4 1419.77 Q1540.2 1419.77 1537.75 1420.53 Q1535.32 1421.3 1532.54 1422.85 L1532.54 1418.13 Q1535.36 1416.99 1537.82 1416.41 Q1540.27 1415.83 1542.31 1415.83 Q1547.68 1415.83 1550.87 1418.52 Q1554.07 1421.21 1554.07 1425.7 Q1554.07 1427.83 1553.26 1429.75 Q1552.47 1431.64 1550.36 1434.24 Q1549.78 1434.91 1546.68 1438.13 Q1543.58 1441.32 1537.93 1447.08 Z"
     fill="#000000"
     fill-rule="nonzero"
     fill-opacity="1"
     id="path265" />
  <path
     clip-path="url(#clip510)"
     d="M1082.83 1426.09 L1082.83 1430.07 Q1081.02 1429.08 1079.19 1428.59 Q1077.39 1428.08 1075.54 1428.08 Q1071.39 1428.08 1069.1 1430.72 Q1066.81 1433.33 1066.81 1438.08 Q1066.81 1442.83 1069.1 1445.46 Q1071.39 1448.08 1075.54 1448.08 Q1077.39 1448.08 1079.19 1447.59 Q1081.02 1447.08 1082.83 1446.09 L1082.83 1450.02 Q1081.05 1450.86 1079.12 1451.27 Q1077.23 1451.69 1075.07 1451.69 Q1069.22 1451.69 1065.77 1448.01 Q1062.32 1444.33 1062.32 1438.08 Q1062.32 1431.74 1065.79 1428.1 Q1069.29 1424.47 1075.35 1424.47 Q1077.32 1424.47 1079.19 1424.89 Q1081.07 1425.28 1082.83 1426.09 Z"
     fill="#000000"
     fill-rule="nonzero"
     fill-opacity="1"
     id="path267" />
  <path
     clip-path="url(#clip510)"
     d="M1102.02 1437.99 Q1096.86 1437.99 1094.86 1439.17 Q1092.87 1440.35 1092.87 1443.2 Q1092.87 1445.46 1094.36 1446.81 Q1095.86 1448.13 1098.43 1448.13 Q1101.97 1448.13 1104.1 1445.63 Q1106.25 1443.1 1106.25 1438.94 L1106.25 1437.99 L1102.02 1437.99 M1110.51 1436.23 L1110.51 1451.02 L1106.25 1451.02 L1106.25 1447.08 Q1104.79 1449.45 1102.62 1450.58 Q1100.44 1451.69 1097.29 1451.69 Q1093.31 1451.69 1090.95 1449.47 Q1088.61 1447.22 1088.61 1443.47 Q1088.61 1439.1 1091.53 1436.88 Q1094.47 1434.65 1100.28 1434.65 L1106.25 1434.65 L1106.25 1434.24 Q1106.25 1431.3 1104.31 1429.7 Q1102.39 1428.08 1098.89 1428.08 Q1096.67 1428.08 1094.56 1428.61 Q1092.46 1429.14 1090.51 1430.21 L1090.51 1426.27 Q1092.85 1425.37 1095.05 1424.93 Q1097.25 1424.47 1099.33 1424.47 Q1104.96 1424.47 1107.73 1427.39 Q1110.51 1430.3 1110.51 1436.23 Z"
     fill="#000000"
     fill-rule="nonzero"
     fill-opacity="1"
     id="path269" />
  <path
     clip-path="url(#clip510)"
     d="M1134.31 1429.08 Q1133.59 1428.66 1132.73 1428.47 Q1131.9 1428.27 1130.88 1428.27 Q1127.27 1428.27 1125.33 1430.63 Q1123.41 1432.96 1123.41 1437.36 L1123.41 1451.02 L1119.12 1451.02 L1119.12 1425.09 L1123.41 1425.09 L1123.41 1429.12 Q1124.75 1426.76 1126.9 1425.63 Q1129.05 1424.47 1132.13 1424.47 Q1132.57 1424.47 1133.1 1424.54 Q1133.64 1424.58 1134.29 1424.7 L1134.31 1429.08 Z"
     fill="#000000"
     fill-rule="nonzero"
     fill-opacity="1"
     id="path271" />
  <path
     clip-path="url(#clip510)"
     d="M1153.54 1432.39 Q1156.9 1433.1 1158.78 1435.37 Q1160.67 1437.64 1160.67 1440.97 Q1160.67 1446.09 1157.16 1448.89 Q1153.64 1451.69 1147.16 1451.69 Q1144.98 1451.69 1142.67 1451.25 Q1140.37 1450.83 1137.92 1449.98 L1137.92 1445.46 Q1139.86 1446.6 1142.18 1447.18 Q1144.49 1447.76 1147.02 1447.76 Q1151.42 1447.76 1153.71 1446.02 Q1156.02 1444.28 1156.02 1440.97 Q1156.02 1437.92 1153.87 1436.21 Q1151.74 1434.47 1147.92 1434.47 L1143.89 1434.47 L1143.89 1430.63 L1148.1 1430.63 Q1151.55 1430.63 1153.38 1429.26 Q1155.21 1427.87 1155.21 1425.28 Q1155.21 1422.62 1153.31 1421.21 Q1151.44 1419.77 1147.92 1419.77 Q1146 1419.77 1143.8 1420.19 Q1141.6 1420.6 1138.96 1421.48 L1138.96 1417.32 Q1141.62 1416.58 1143.94 1416.21 Q1146.28 1415.83 1148.34 1415.83 Q1153.66 1415.83 1156.76 1418.27 Q1159.86 1420.67 1159.86 1424.79 Q1159.86 1427.66 1158.22 1429.65 Q1156.58 1431.62 1153.54 1432.39 Z"
     fill="#000000"
     fill-rule="nonzero"
     fill-opacity="1"
     id="path273" />
  <path
     clip-path="url(#clip510)"
     d="M688.21 1426.09 L688.21 1430.07 Q686.404 1429.08 684.575 1428.59 Q682.77 1428.08 680.918 1428.08 Q676.775 1428.08 674.483 1430.72 Q672.191 1433.33 672.191 1438.08 Q672.191 1442.83 674.483 1445.46 Q676.775 1448.08 680.918 1448.08 Q682.77 1448.08 684.575 1447.59 Q686.404 1447.08 688.21 1446.09 L688.21 1450.02 Q686.427 1450.86 684.506 1451.27 Q682.608 1451.69 680.455 1451.69 Q674.599 1451.69 671.15 1448.01 Q667.7 1444.33 667.7 1438.08 Q667.7 1431.74 671.173 1428.1 Q674.668 1424.47 680.733 1424.47 Q682.7 1424.47 684.575 1424.89 Q686.45 1425.28 688.21 1426.09 Z"
     fill="#000000"
     fill-rule="nonzero"
     fill-opacity="1"
     id="path275" />
  <path
     clip-path="url(#clip510)"
     d="M707.399 1437.99 Q702.237 1437.99 700.247 1439.17 Q698.256 1440.35 698.256 1443.2 Q698.256 1445.46 699.737 1446.81 Q701.242 1448.13 703.811 1448.13 Q707.353 1448.13 709.483 1445.63 Q711.635 1443.1 711.635 1438.94 L711.635 1437.99 L707.399 1437.99 M715.895 1436.23 L715.895 1451.02 L711.635 1451.02 L711.635 1447.08 Q710.177 1449.45 708.001 1450.58 Q705.825 1451.69 702.677 1451.69 Q698.696 1451.69 696.335 1449.47 Q693.997 1447.22 693.997 1443.47 Q693.997 1439.1 696.913 1436.88 Q699.853 1434.65 705.663 1434.65 L711.635 1434.65 L711.635 1434.24 Q711.635 1431.3 709.691 1429.7 Q707.77 1428.08 704.274 1428.08 Q702.052 1428.08 699.946 1428.61 Q697.839 1429.14 695.895 1430.21 L695.895 1426.27 Q698.233 1425.37 700.432 1424.93 Q702.631 1424.47 704.714 1424.47 Q710.339 1424.47 713.117 1427.39 Q715.895 1430.3 715.895 1436.23 Z"
     fill="#000000"
     fill-rule="nonzero"
     fill-opacity="1"
     id="path277" />
  <path
     clip-path="url(#clip510)"
     d="M739.691 1429.08 Q738.973 1428.66 738.117 1428.47 Q737.283 1428.27 736.265 1428.27 Q732.654 1428.27 730.709 1430.63 Q728.788 1432.96 728.788 1437.36 L728.788 1451.02 L724.506 1451.02 L724.506 1425.09 L728.788 1425.09 L728.788 1429.12 Q730.131 1426.76 732.283 1425.63 Q734.436 1424.47 737.515 1424.47 Q737.955 1424.47 738.487 1424.54 Q739.02 1424.58 739.668 1424.7 L739.691 1429.08 Z"
     fill="#000000"
     fill-rule="nonzero"
     fill-opacity="1"
     id="path279" />
  <path
     clip-path="url(#clip510)"
     d="M757.607 1420.53 L745.802 1438.98 L757.607 1438.98 L757.607 1420.53 M756.381 1416.46 L762.26 1416.46 L762.26 1438.98 L767.191 1438.98 L767.191 1442.87 L762.26 1442.87 L762.26 1451.02 L757.607 1451.02 L757.607 1442.87 L742.006 1442.87 L742.006 1438.36 L756.381 1416.46 Z"
     fill="#000000"
     fill-rule="nonzero"
     fill-opacity="1"
     id="path281" />
  <path
     clip-path="url(#clip510)"
     d="M294.9 1426.09 L294.9 1430.07 Q293.094 1429.08 291.265 1428.59 Q289.46 1428.08 287.608 1428.08 Q283.465 1428.08 281.173 1430.72 Q278.881 1433.33 278.881 1438.08 Q278.881 1442.83 281.173 1445.46 Q283.465 1448.08 287.608 1448.08 Q289.46 1448.08 291.265 1447.59 Q293.094 1447.08 294.9 1446.09 L294.9 1450.02 Q293.117 1450.86 291.196 1451.27 Q289.298 1451.69 287.145 1451.69 Q281.289 1451.69 277.84 1448.01 Q274.391 1444.33 274.391 1438.08 Q274.391 1431.74 277.863 1428.1 Q281.358 1424.47 287.423 1424.47 Q289.39 1424.47 291.265 1424.89 Q293.14 1425.28 294.9 1426.09 Z"
     fill="#000000"
     fill-rule="nonzero"
     fill-opacity="1"
     id="path283" />
  <path
     clip-path="url(#clip510)"
     d="M314.089 1437.99 Q308.927 1437.99 306.937 1439.17 Q304.946 1440.35 304.946 1443.2 Q304.946 1445.46 306.427 1446.81 Q307.932 1448.13 310.501 1448.13 Q314.043 1448.13 316.173 1445.63 Q318.326 1443.1 318.326 1438.94 L318.326 1437.99 L314.089 1437.99 M322.585 1436.23 L322.585 1451.02 L318.326 1451.02 L318.326 1447.08 Q316.867 1449.45 314.691 1450.58 Q312.515 1451.69 309.367 1451.69 Q305.386 1451.69 303.025 1449.47 Q300.687 1447.22 300.687 1443.47 Q300.687 1439.1 303.603 1436.88 Q306.543 1434.65 312.353 1434.65 L318.326 1434.65 L318.326 1434.24 Q318.326 1431.3 316.381 1429.7 Q314.46 1428.08 310.964 1428.08 Q308.742 1428.08 306.636 1428.61 Q304.529 1429.14 302.585 1430.21 L302.585 1426.27 Q304.923 1425.37 307.122 1424.93 Q309.321 1424.47 311.404 1424.47 Q317.029 1424.47 319.807 1427.39 Q322.585 1430.3 322.585 1436.23 Z"
     fill="#000000"
     fill-rule="nonzero"
     fill-opacity="1"
     id="path285" />
  <path
     clip-path="url(#clip510)"
     d="M346.381 1429.08 Q345.663 1428.66 344.807 1428.47 Q343.974 1428.27 342.955 1428.27 Q339.344 1428.27 337.399 1430.63 Q335.478 1432.96 335.478 1437.36 L335.478 1451.02 L331.196 1451.02 L331.196 1425.09 L335.478 1425.09 L335.478 1429.12 Q336.821 1426.76 338.974 1425.63 Q341.126 1424.47 344.205 1424.47 Q344.645 1424.47 345.177 1424.54 Q345.71 1424.58 346.358 1424.7 L346.381 1429.08 Z"
     fill="#000000"
     fill-rule="nonzero"
     fill-opacity="1"
     id="path287" />
  <path
     clip-path="url(#clip510)"
     d="M351.497 1416.46 L369.853 1416.46 L369.853 1420.4 L355.779 1420.4 L355.779 1428.87 Q356.798 1428.52 357.816 1428.36 Q358.835 1428.17 359.853 1428.17 Q365.64 1428.17 369.02 1431.34 Q372.399 1434.52 372.399 1439.93 Q372.399 1445.51 368.927 1448.61 Q365.455 1451.69 359.135 1451.69 Q356.96 1451.69 354.691 1451.32 Q352.446 1450.95 350.038 1450.21 L350.038 1445.51 Q352.122 1446.64 354.344 1447.2 Q356.566 1447.76 359.043 1447.76 Q363.047 1447.76 365.385 1445.65 Q367.723 1443.54 367.723 1439.93 Q367.723 1436.32 365.385 1434.21 Q363.047 1432.11 359.043 1432.11 Q357.168 1432.11 355.293 1432.52 Q353.441 1432.94 351.497 1433.82 L351.497 1416.46 Z"
     fill="#000000"
     fill-rule="nonzero"
     fill-opacity="1"
     id="path289" />
  <path
     clip-path="url(#clip510)"
     d="M1195.58 1535.8 L1201.43 1535.8 L1201.43 1585.32 L1195.58 1585.32 L1195.58 1535.8 Z"
     fill="#000000"
     fill-rule="nonzero"
     fill-opacity="1"
     id="path291" />
  <path
     clip-path="url(#clip510)"
     d="M1244.18 1566.04 L1244.18 1568.9 L1217.25 1568.9 Q1217.64 1574.95 1220.88 1578.13 Q1224.16 1581.28 1229.98 1581.28 Q1233.36 1581.28 1236.51 1580.45 Q1239.69 1579.63 1242.81 1577.97 L1242.81 1583.51 Q1239.66 1584.85 1236.35 1585.55 Q1233.04 1586.25 1229.63 1586.25 Q1221.1 1586.25 1216.11 1581.28 Q1211.14 1576.32 1211.14 1567.85 Q1211.14 1559.1 1215.85 1553.97 Q1220.6 1548.82 1228.62 1548.82 Q1235.81 1548.82 1239.98 1553.46 Q1244.18 1558.08 1244.18 1566.04 M1238.32 1564.32 Q1238.26 1559.51 1235.62 1556.65 Q1233.01 1553.78 1228.68 1553.78 Q1223.78 1553.78 1220.82 1556.55 Q1217.89 1559.32 1217.44 1564.35 L1238.32 1564.32 Z"
     fill="#000000"
     fill-rule="nonzero"
     fill-opacity="1"
     id="path293" />
  <path
     clip-path="url(#clip510)"
     d="M1269.99 1567.4 Q1262.9 1567.4 1260.16 1569.03 Q1257.42 1570.65 1257.42 1574.57 Q1257.42 1577.68 1259.46 1579.53 Q1261.53 1581.35 1265.06 1581.35 Q1269.93 1581.35 1272.86 1577.91 Q1275.82 1574.44 1275.82 1568.71 L1275.82 1567.4 L1269.99 1567.4 M1281.67 1564.99 L1281.67 1585.32 L1275.82 1585.32 L1275.82 1579.91 Q1273.81 1583.16 1270.82 1584.72 Q1267.83 1586.25 1263.5 1586.25 Q1258.03 1586.25 1254.78 1583.19 Q1251.56 1580.1 1251.56 1574.95 Q1251.56 1568.93 1255.57 1565.88 Q1259.62 1562.82 1267.61 1562.82 L1275.82 1562.82 L1275.82 1562.25 Q1275.82 1558.21 1273.14 1556.01 Q1270.5 1553.78 1265.7 1553.78 Q1262.64 1553.78 1259.74 1554.51 Q1256.85 1555.25 1254.17 1556.71 L1254.17 1551.3 Q1257.39 1550.06 1260.41 1549.45 Q1263.44 1548.82 1266.3 1548.82 Q1274.04 1548.82 1277.85 1552.83 Q1281.67 1556.84 1281.67 1564.99 Z"
     fill="#000000"
     fill-rule="nonzero"
     fill-opacity="1"
     id="path295" />
  <path
     clip-path="url(#clip510)"
     d="M1314.39 1555.15 Q1313.41 1554.58 1312.23 1554.32 Q1311.08 1554.04 1309.68 1554.04 Q1304.72 1554.04 1302.04 1557.28 Q1299.4 1560.5 1299.4 1566.55 L1299.4 1585.32 L1293.51 1585.32 L1293.51 1549.68 L1299.4 1549.68 L1299.4 1555.21 Q1301.25 1551.97 1304.21 1550.41 Q1307.17 1548.82 1311.4 1548.82 Q1312.01 1548.82 1312.74 1548.91 Q1313.47 1548.98 1314.36 1549.13 L1314.39 1555.15 Z"
     fill="#000000"
     fill-rule="nonzero"
     fill-opacity="1"
     id="path297" />
  <path
     clip-path="url(#clip510)"
     d="M1349.02 1563.81 L1349.02 1585.32 L1343.17 1585.32 L1343.17 1564 Q1343.17 1558.94 1341.19 1556.42 Q1339.22 1553.91 1335.27 1553.91 Q1330.53 1553.91 1327.79 1556.93 Q1325.06 1559.96 1325.06 1565.18 L1325.06 1585.32 L1319.17 1585.32 L1319.17 1549.68 L1325.06 1549.68 L1325.06 1555.21 Q1327.16 1552 1329.99 1550.41 Q1332.85 1548.82 1336.58 1548.82 Q1342.72 1548.82 1345.87 1552.64 Q1349.02 1556.42 1349.02 1563.81 Z"
     fill="#000000"
     fill-rule="nonzero"
     fill-opacity="1"
     id="path299" />
  <path
     clip-path="url(#clip510)"
     d="M1391.2 1566.04 L1391.2 1568.9 L1364.27 1568.9 Q1364.65 1574.95 1367.9 1578.13 Q1371.18 1581.28 1377 1581.28 Q1380.37 1581.28 1383.53 1580.45 Q1386.71 1579.63 1389.83 1577.97 L1389.83 1583.51 Q1386.68 1584.85 1383.37 1585.55 Q1380.06 1586.25 1376.65 1586.25 Q1368.12 1586.25 1363.12 1581.28 Q1358.16 1576.32 1358.16 1567.85 Q1358.16 1559.1 1362.87 1553.97 Q1367.61 1548.82 1375.63 1548.82 Q1382.83 1548.82 1386.99 1553.46 Q1391.2 1558.08 1391.2 1566.04 M1385.34 1564.32 Q1385.28 1559.51 1382.63 1556.65 Q1380.02 1553.78 1375.7 1553.78 Q1370.79 1553.78 1367.83 1556.55 Q1364.91 1559.32 1364.46 1564.35 L1385.34 1564.32 Z"
     fill="#000000"
     fill-rule="nonzero"
     fill-opacity="1"
     id="path301" />
  <path
     clip-path="url(#clip510)"
     d="M1421.47 1555.15 Q1420.48 1554.58 1419.3 1554.32 Q1418.15 1554.04 1416.75 1554.04 Q1411.79 1554.04 1409.12 1557.28 Q1406.47 1560.5 1406.47 1566.55 L1406.47 1585.32 L1400.59 1585.32 L1400.59 1549.68 L1406.47 1549.68 L1406.47 1555.21 Q1408.32 1551.97 1411.28 1550.41 Q1414.24 1548.82 1418.47 1548.82 Q1419.08 1548.82 1419.81 1548.91 Q1420.54 1548.98 1421.43 1549.13 L1421.47 1555.15 Z"
     fill="#000000"
     fill-rule="nonzero"
     fill-opacity="1"
     id="path303" />
  <polyline
     clip-path="url(#clip512)"
     style="stroke:#000000; stroke-linecap:round; stroke-linejoin:round; stroke-width:2; stroke-opacity:0.1; fill:none"
     points="2352.76,1303.61 264.287,1303.61 "
     id="polyline305" />
  <polyline
     clip-path="url(#clip512)"
     style="stroke:#000000; stroke-linecap:round; stroke-linejoin:round; stroke-width:2; stroke-opacity:0.1; fill:none"
     points="2352.76,1079.87 264.287,1079.87 "
     id="polyline307" />
  <polyline
     clip-path="url(#clip512)"
     style="stroke:#000000; stroke-linecap:round; stroke-linejoin:round; stroke-width:2; stroke-opacity:0.1; fill:none"
     points="2352.76,856.122 264.287,856.122 "
     id="polyline309" />
  <polyline
     clip-path="url(#clip512)"
     style="stroke:#000000; stroke-linecap:round; stroke-linejoin:round; stroke-width:2; stroke-opacity:0.1; fill:none"
     points="2352.76,632.377 264.287,632.377 "
     id="polyline311" />
  <polyline
     clip-path="url(#clip512)"
     style="stroke:#000000; stroke-linecap:round; stroke-linejoin:round; stroke-width:2; stroke-opacity:0.1; fill:none"
     points="2352.76,408.633 264.287,408.633 "
     id="polyline313" />
  <polyline
     clip-path="url(#clip510)"
     style="stroke:#000000; stroke-linecap:round; stroke-linejoin:round; stroke-width:4; stroke-opacity:1; fill:none"
     points="264.287,1388.62 264.287,247.477 "
     id="polyline315" />
  <polyline
     clip-path="url(#clip510)"
     style="stroke:#000000; stroke-linecap:round; stroke-linejoin:round; stroke-width:4; stroke-opacity:1; fill:none"
     points="264.287,1303.61 283.185,1303.61 "
     id="polyline317" />
  <polyline
     clip-path="url(#clip510)"
     style="stroke:#000000; stroke-linecap:round; stroke-linejoin:round; stroke-width:4; stroke-opacity:1; fill:none"
     points="264.287,1079.87 283.185,1079.87 "
     id="polyline319" />
  <polyline
     clip-path="url(#clip510)"
     style="stroke:#000000; stroke-linecap:round; stroke-linejoin:round; stroke-width:4; stroke-opacity:1; fill:none"
     points="264.287,856.122 283.185,856.122 "
     id="polyline321" />
  <polyline
     clip-path="url(#clip510)"
     style="stroke:#000000; stroke-linecap:round; stroke-linejoin:round; stroke-width:4; stroke-opacity:1; fill:none"
     points="264.287,632.377 283.185,632.377 "
     id="polyline323" />
  <polyline
     clip-path="url(#clip510)"
     style="stroke:#000000; stroke-linecap:round; stroke-linejoin:round; stroke-width:4; stroke-opacity:1; fill:none"
     points="264.287,408.633 283.185,408.633 "
     id="polyline325" />
  <path
     clip-path="url(#clip510)"
     d="M119.885 1316.96 L136.204 1316.96 L136.204 1320.89 L114.26 1320.89 L114.26 1316.96 Q116.922 1314.2 121.505 1309.57 Q126.112 1304.92 127.292 1303.58 Q129.538 1301.05 130.417 1299.32 Q131.32 1297.56 131.32 1295.87 Q131.32 1293.11 129.376 1291.38 Q127.455 1289.64 124.353 1289.64 Q122.154 1289.64 119.7 1290.41 Q117.269 1291.17 114.492 1292.72 L114.492 1288 Q117.316 1286.86 119.769 1286.29 Q122.223 1285.71 124.26 1285.71 Q129.63 1285.71 132.825 1288.39 Q136.019 1291.08 136.019 1295.57 Q136.019 1297.7 135.209 1299.62 Q134.422 1301.52 132.316 1304.11 Q131.737 1304.78 128.635 1308 Q125.533 1311.19 119.885 1316.96 Z"
     fill="#000000"
     fill-rule="nonzero"
     fill-opacity="1"
     id="path327" />
  <path
     clip-path="url(#clip510)"
     d="M158.866 1290.41 L147.061 1308.85 L158.866 1308.85 L158.866 1290.41 M157.64 1286.33 L163.519 1286.33 L163.519 1308.85 L168.45 1308.85 L168.45 1312.74 L163.519 1312.74 L163.519 1320.89 L158.866 1320.89 L158.866 1312.74 L143.265 1312.74 L143.265 1308.23 L157.64 1286.33 Z"
     fill="#000000"
     fill-rule="nonzero"
     fill-opacity="1"
     id="path329" />
  <path
     clip-path="url(#clip510)"
     d="M186.181 1289.41 Q182.57 1289.41 180.741 1292.98 Q178.936 1296.52 178.936 1303.65 Q178.936 1310.75 180.741 1314.32 Q182.57 1317.86 186.181 1317.86 Q189.815 1317.86 191.621 1314.32 Q193.45 1310.75 193.45 1303.65 Q193.45 1296.52 191.621 1292.98 Q189.815 1289.41 186.181 1289.41 M186.181 1285.71 Q191.991 1285.71 195.047 1290.31 Q198.125 1294.9 198.125 1303.65 Q198.125 1312.37 195.047 1316.98 Q191.991 1321.56 186.181 1321.56 Q180.371 1321.56 177.292 1316.98 Q174.237 1312.37 174.237 1303.65 Q174.237 1294.9 177.292 1290.31 Q180.371 1285.71 186.181 1285.71 Z"
     fill="#000000"
     fill-rule="nonzero"
     fill-opacity="1"
     id="path331" />
  <path
     clip-path="url(#clip510)"
     d="M216.343 1289.41 Q212.732 1289.41 210.903 1292.98 Q209.098 1296.52 209.098 1303.65 Q209.098 1310.75 210.903 1314.32 Q212.732 1317.86 216.343 1317.86 Q219.977 1317.86 221.783 1314.32 Q223.611 1310.75 223.611 1303.65 Q223.611 1296.52 221.783 1292.98 Q219.977 1289.41 216.343 1289.41 M216.343 1285.71 Q222.153 1285.71 225.209 1290.31 Q228.287 1294.9 228.287 1303.65 Q228.287 1312.37 225.209 1316.98 Q222.153 1321.56 216.343 1321.56 Q210.533 1321.56 207.454 1316.98 Q204.399 1312.37 204.399 1303.65 Q204.399 1294.9 207.454 1290.31 Q210.533 1285.71 216.343 1285.71 Z"
     fill="#000000"
     fill-rule="nonzero"
     fill-opacity="1"
     id="path333" />
  <path
     clip-path="url(#clip510)"
     d="M119.885 1093.21 L136.204 1093.21 L136.204 1097.15 L114.26 1097.15 L114.26 1093.21 Q116.922 1090.46 121.505 1085.83 Q126.112 1081.17 127.292 1079.83 Q129.538 1077.31 130.417 1075.57 Q131.32 1073.81 131.32 1072.12 Q131.32 1069.37 129.376 1067.63 Q127.455 1065.9 124.353 1065.9 Q122.154 1065.9 119.7 1066.66 Q117.269 1067.42 114.492 1068.98 L114.492 1064.25 Q117.316 1063.12 119.769 1062.54 Q122.223 1061.96 124.26 1061.96 Q129.63 1061.96 132.825 1064.65 Q136.019 1067.33 136.019 1071.82 Q136.019 1073.95 135.209 1075.87 Q134.422 1077.77 132.316 1080.36 Q131.737 1081.04 128.635 1084.25 Q125.533 1087.45 119.885 1093.21 Z"
     fill="#000000"
     fill-rule="nonzero"
     fill-opacity="1"
     id="path335" />
  <path
     clip-path="url(#clip510)"
     d="M144.839 1062.59 L167.061 1062.59 L167.061 1064.58 L154.515 1097.15 L149.63 1097.15 L161.436 1066.52 L144.839 1066.52 L144.839 1062.59 Z"
     fill="#000000"
     fill-rule="nonzero"
     fill-opacity="1"
     id="path337" />
  <path
     clip-path="url(#clip510)"
     d="M186.181 1065.67 Q182.57 1065.67 180.741 1069.23 Q178.936 1072.77 178.936 1079.9 Q178.936 1087.01 180.741 1090.57 Q182.57 1094.11 186.181 1094.11 Q189.815 1094.11 191.621 1090.57 Q193.45 1087.01 193.45 1079.9 Q193.45 1072.77 191.621 1069.23 Q189.815 1065.67 186.181 1065.67 M186.181 1061.96 Q191.991 1061.96 195.047 1066.57 Q198.125 1071.15 198.125 1079.9 Q198.125 1088.63 195.047 1093.23 Q191.991 1097.82 186.181 1097.82 Q180.371 1097.82 177.292 1093.23 Q174.237 1088.63 174.237 1079.9 Q174.237 1071.15 177.292 1066.57 Q180.371 1061.96 186.181 1061.96 Z"
     fill="#000000"
     fill-rule="nonzero"
     fill-opacity="1"
     id="path339" />
  <path
     clip-path="url(#clip510)"
     d="M216.343 1065.67 Q212.732 1065.67 210.903 1069.23 Q209.098 1072.77 209.098 1079.9 Q209.098 1087.01 210.903 1090.57 Q212.732 1094.11 216.343 1094.11 Q219.977 1094.11 221.783 1090.57 Q223.611 1087.01 223.611 1079.9 Q223.611 1072.77 221.783 1069.23 Q219.977 1065.67 216.343 1065.67 M216.343 1061.96 Q222.153 1061.96 225.209 1066.57 Q228.287 1071.15 228.287 1079.9 Q228.287 1088.63 225.209 1093.23 Q222.153 1097.82 216.343 1097.82 Q210.533 1097.82 207.454 1093.23 Q204.399 1088.63 204.399 1079.9 Q204.399 1071.15 207.454 1066.57 Q210.533 1061.96 216.343 1061.96 Z"
     fill="#000000"
     fill-rule="nonzero"
     fill-opacity="1"
     id="path341" />
  <path
     clip-path="url(#clip510)"
     d="M130.024 854.768 Q133.38 855.486 135.255 857.754 Q137.154 860.023 137.154 863.356 Q137.154 868.472 133.635 871.273 Q130.117 874.073 123.635 874.073 Q121.459 874.073 119.144 873.634 Q116.853 873.217 114.399 872.36 L114.399 867.847 Q116.343 868.981 118.658 869.56 Q120.973 870.138 123.496 870.138 Q127.894 870.138 130.186 868.402 Q132.501 866.666 132.501 863.356 Q132.501 860.3 130.348 858.587 Q128.218 856.851 124.399 856.851 L120.371 856.851 L120.371 853.009 L124.584 853.009 Q128.033 853.009 129.862 851.643 Q131.691 850.254 131.691 847.662 Q131.691 845 129.792 843.587 Q127.917 842.152 124.399 842.152 Q122.478 842.152 120.279 842.569 Q118.08 842.986 115.441 843.865 L115.441 839.699 Q118.103 838.958 120.418 838.588 Q122.755 838.217 124.816 838.217 Q130.14 838.217 133.242 840.648 Q136.343 843.055 136.343 847.175 Q136.343 850.046 134.7 852.037 Q133.056 854.004 130.024 854.768 Z"
     fill="#000000"
     fill-rule="nonzero"
     fill-opacity="1"
     id="path343" />
  <path
     clip-path="url(#clip510)"
     d="M156.019 841.921 Q152.408 841.921 150.579 845.486 Q148.774 849.027 148.774 856.157 Q148.774 863.263 150.579 866.828 Q152.408 870.37 156.019 870.37 Q159.653 870.37 161.459 866.828 Q163.288 863.263 163.288 856.157 Q163.288 849.027 161.459 845.486 Q159.653 841.921 156.019 841.921 M156.019 838.217 Q161.829 838.217 164.885 842.824 Q167.964 847.407 167.964 856.157 Q167.964 864.884 164.885 869.49 Q161.829 874.073 156.019 874.073 Q150.209 874.073 147.13 869.49 Q144.075 864.884 144.075 856.157 Q144.075 847.407 147.13 842.824 Q150.209 838.217 156.019 838.217 Z"
     fill="#000000"
     fill-rule="nonzero"
     fill-opacity="1"
     id="path345" />
  <path
     clip-path="url(#clip510)"
     d="M186.181 841.921 Q182.57 841.921 180.741 845.486 Q178.936 849.027 178.936 856.157 Q178.936 863.263 180.741 866.828 Q182.57 870.37 186.181 870.37 Q189.815 870.37 191.621 866.828 Q193.45 863.263 193.45 856.157 Q193.45 849.027 191.621 845.486 Q189.815 841.921 186.181 841.921 M186.181 838.217 Q191.991 838.217 195.047 842.824 Q198.125 847.407 198.125 856.157 Q198.125 864.884 195.047 869.49 Q191.991 874.073 186.181 874.073 Q180.371 874.073 177.292 869.49 Q174.237 864.884 174.237 856.157 Q174.237 847.407 177.292 842.824 Q180.371 838.217 186.181 838.217 Z"
     fill="#000000"
     fill-rule="nonzero"
     fill-opacity="1"
     id="path347" />
  <path
     clip-path="url(#clip510)"
     d="M216.343 841.921 Q212.732 841.921 210.903 845.486 Q209.098 849.027 209.098 856.157 Q209.098 863.263 210.903 866.828 Q212.732 870.37 216.343 870.37 Q219.977 870.37 221.783 866.828 Q223.611 863.263 223.611 856.157 Q223.611 849.027 221.783 845.486 Q219.977 841.921 216.343 841.921 M216.343 838.217 Q222.153 838.217 225.209 842.824 Q228.287 847.407 228.287 856.157 Q228.287 864.884 225.209 869.49 Q222.153 874.073 216.343 874.073 Q210.533 874.073 207.454 869.49 Q204.399 864.884 204.399 856.157 Q204.399 847.407 207.454 842.824 Q210.533 838.217 216.343 838.217 Z"
     fill="#000000"
     fill-rule="nonzero"
     fill-opacity="1"
     id="path349" />
  <path
     clip-path="url(#clip510)"
     d="M130.024 631.023 Q133.38 631.741 135.255 634.009 Q137.154 636.278 137.154 639.611 Q137.154 644.727 133.635 647.528 Q130.117 650.329 123.635 650.329 Q121.459 650.329 119.144 649.889 Q116.853 649.472 114.399 648.616 L114.399 644.102 Q116.343 645.236 118.658 645.815 Q120.973 646.393 123.496 646.393 Q127.894 646.393 130.186 644.657 Q132.501 642.921 132.501 639.611 Q132.501 636.556 130.348 634.843 Q128.218 633.107 124.399 633.107 L120.371 633.107 L120.371 629.264 L124.584 629.264 Q128.033 629.264 129.862 627.898 Q131.691 626.509 131.691 623.917 Q131.691 621.255 129.792 619.843 Q127.917 618.408 124.399 618.408 Q122.478 618.408 120.279 618.824 Q118.08 619.241 115.441 620.12 L115.441 615.954 Q118.103 615.213 120.418 614.843 Q122.755 614.472 124.816 614.472 Q130.14 614.472 133.242 616.903 Q136.343 619.31 136.343 623.431 Q136.343 626.301 134.7 628.292 Q133.056 630.259 130.024 631.023 Z"
     fill="#000000"
     fill-rule="nonzero"
     fill-opacity="1"
     id="path351" />
  <path
     clip-path="url(#clip510)"
     d="M160.186 631.023 Q163.542 631.741 165.417 634.009 Q167.315 636.278 167.315 639.611 Q167.315 644.727 163.797 647.528 Q160.278 650.329 153.797 650.329 Q151.621 650.329 149.306 649.889 Q147.015 649.472 144.561 648.616 L144.561 644.102 Q146.505 645.236 148.82 645.815 Q151.135 646.393 153.658 646.393 Q158.056 646.393 160.348 644.657 Q162.663 642.921 162.663 639.611 Q162.663 636.556 160.51 634.843 Q158.38 633.107 154.561 633.107 L150.533 633.107 L150.533 629.264 L154.746 629.264 Q158.195 629.264 160.024 627.898 Q161.852 626.509 161.852 623.917 Q161.852 621.255 159.954 619.843 Q158.079 618.408 154.561 618.408 Q152.64 618.408 150.441 618.824 Q148.241 619.241 145.603 620.12 L145.603 615.954 Q148.265 615.213 150.579 614.843 Q152.917 614.472 154.978 614.472 Q160.302 614.472 163.403 616.903 Q166.505 619.31 166.505 623.431 Q166.505 626.301 164.862 628.292 Q163.218 630.259 160.186 631.023 Z"
     fill="#000000"
     fill-rule="nonzero"
     fill-opacity="1"
     id="path353" />
  <path
     clip-path="url(#clip510)"
     d="M186.181 618.176 Q182.57 618.176 180.741 621.741 Q178.936 625.282 178.936 632.412 Q178.936 639.519 180.741 643.083 Q182.57 646.625 186.181 646.625 Q189.815 646.625 191.621 643.083 Q193.45 639.519 193.45 632.412 Q193.45 625.282 191.621 621.741 Q189.815 618.176 186.181 618.176 M186.181 614.472 Q191.991 614.472 195.047 619.079 Q198.125 623.662 198.125 632.412 Q198.125 641.139 195.047 645.745 Q191.991 650.329 186.181 650.329 Q180.371 650.329 177.292 645.745 Q174.237 641.139 174.237 632.412 Q174.237 623.662 177.292 619.079 Q180.371 614.472 186.181 614.472 Z"
     fill="#000000"
     fill-rule="nonzero"
     fill-opacity="1"
     id="path355" />
  <path
     clip-path="url(#clip510)"
     d="M216.343 618.176 Q212.732 618.176 210.903 621.741 Q209.098 625.282 209.098 632.412 Q209.098 639.519 210.903 643.083 Q212.732 646.625 216.343 646.625 Q219.977 646.625 221.783 643.083 Q223.611 639.519 223.611 632.412 Q223.611 625.282 221.783 621.741 Q219.977 618.176 216.343 618.176 M216.343 614.472 Q222.153 614.472 225.209 619.079 Q228.287 623.662 228.287 632.412 Q228.287 641.139 225.209 645.745 Q222.153 650.329 216.343 650.329 Q210.533 650.329 207.454 645.745 Q204.399 641.139 204.399 632.412 Q204.399 623.662 207.454 619.079 Q210.533 614.472 216.343 614.472 Z"
     fill="#000000"
     fill-rule="nonzero"
     fill-opacity="1"
     id="path357" />
  <path
     clip-path="url(#clip510)"
     d="M130.024 407.278 Q133.38 407.996 135.255 410.264 Q137.154 412.533 137.154 415.866 Q137.154 420.982 133.635 423.783 Q130.117 426.584 123.635 426.584 Q121.459 426.584 119.144 426.144 Q116.853 425.727 114.399 424.871 L114.399 420.357 Q116.343 421.491 118.658 422.07 Q120.973 422.649 123.496 422.649 Q127.894 422.649 130.186 420.913 Q132.501 419.176 132.501 415.866 Q132.501 412.811 130.348 411.098 Q128.218 409.362 124.399 409.362 L120.371 409.362 L120.371 405.519 L124.584 405.519 Q128.033 405.519 129.862 404.153 Q131.691 402.765 131.691 400.172 Q131.691 397.51 129.792 396.098 Q127.917 394.663 124.399 394.663 Q122.478 394.663 120.279 395.079 Q118.08 395.496 115.441 396.376 L115.441 392.209 Q118.103 391.468 120.418 391.098 Q122.755 390.728 124.816 390.728 Q130.14 390.728 133.242 393.158 Q136.343 395.565 136.343 399.686 Q136.343 402.556 134.7 404.547 Q133.056 406.514 130.024 407.278 Z"
     fill="#000000"
     fill-rule="nonzero"
     fill-opacity="1"
     id="path359" />
  <path
     clip-path="url(#clip510)"
     d="M156.598 406.769 Q153.45 406.769 151.598 408.922 Q149.769 411.075 149.769 414.825 Q149.769 418.551 151.598 420.727 Q153.45 422.88 156.598 422.88 Q159.746 422.88 161.575 420.727 Q163.427 418.551 163.427 414.825 Q163.427 411.075 161.575 408.922 Q159.746 406.769 156.598 406.769 M165.88 392.116 L165.88 396.376 Q164.121 395.542 162.315 395.103 Q160.533 394.663 158.774 394.663 Q154.144 394.663 151.691 397.788 Q149.26 400.913 148.913 407.232 Q150.278 405.218 152.339 404.153 Q154.399 403.065 156.876 403.065 Q162.084 403.065 165.093 406.237 Q168.126 409.385 168.126 414.825 Q168.126 420.149 164.977 423.366 Q161.829 426.584 156.598 426.584 Q150.603 426.584 147.431 422.001 Q144.26 417.394 144.26 408.667 Q144.26 400.473 148.149 395.612 Q152.038 390.728 158.589 390.728 Q160.348 390.728 162.13 391.075 Q163.936 391.422 165.88 392.116 Z"
     fill="#000000"
     fill-rule="nonzero"
     fill-opacity="1"
     id="path361" />
  <path
     clip-path="url(#clip510)"
     d="M186.181 394.431 Q182.57 394.431 180.741 397.996 Q178.936 401.538 178.936 408.667 Q178.936 415.774 180.741 419.339 Q182.57 422.88 186.181 422.88 Q189.815 422.88 191.621 419.339 Q193.45 415.774 193.45 408.667 Q193.45 401.538 191.621 397.996 Q189.815 394.431 186.181 394.431 M186.181 390.728 Q191.991 390.728 195.047 395.334 Q198.125 399.917 198.125 408.667 Q198.125 417.394 195.047 422.001 Q191.991 426.584 186.181 426.584 Q180.371 426.584 177.292 422.001 Q174.237 417.394 174.237 408.667 Q174.237 399.917 177.292 395.334 Q180.371 390.728 186.181 390.728 Z"
     fill="#000000"
     fill-rule="nonzero"
     fill-opacity="1"
     id="path363" />
  <path
     clip-path="url(#clip510)"
     d="M216.343 394.431 Q212.732 394.431 210.903 397.996 Q209.098 401.538 209.098 408.667 Q209.098 415.774 210.903 419.339 Q212.732 422.88 216.343 422.88 Q219.977 422.88 221.783 419.339 Q223.611 415.774 223.611 408.667 Q223.611 401.538 221.783 397.996 Q219.977 394.431 216.343 394.431 M216.343 390.728 Q222.153 390.728 225.209 395.334 Q228.287 399.917 228.287 408.667 Q228.287 417.394 225.209 422.001 Q222.153 426.584 216.343 426.584 Q210.533 426.584 207.454 422.001 Q204.399 417.394 204.399 408.667 Q204.399 399.917 207.454 395.334 Q210.533 390.728 216.343 390.728 Z"
     fill="#000000"
     fill-rule="nonzero"
     fill-opacity="1"
     id="path365" />
  <path
     clip-path="url(#clip510)"
     d="M58.657 1016.2 L77.5631 1016.2 L77.5631 1022.09 L28.3562 1022.09 L28.3562 1016.2 L33.7671 1016.2 Q30.5842 1014.35 29.0564 1011.55 Q27.4968 1008.72 27.4968 1004.8 Q27.4968 998.309 32.6531 994.267 Q37.8093 990.193 46.212 990.193 Q54.6147 990.193 59.771 994.267 Q64.9272 998.309 64.9272 1004.8 Q64.9272 1008.72 63.3994 1011.55 Q61.8398 1014.35 58.657 1016.2 M46.212 996.272 Q39.7508 996.272 36.0905 998.946 Q32.3984 1001.59 32.3984 1006.23 Q32.3984 1010.88 36.0905 1013.55 Q39.7508 1016.2 46.212 1016.2 Q52.6732 1016.2 56.3653 1013.55 Q60.0256 1010.88 60.0256 1006.23 Q60.0256 1001.59 56.3653 998.946 Q52.6732 996.272 46.212 996.272 Z"
     fill="#000000"
     fill-rule="nonzero"
     fill-opacity="1"
     id="path367" />
  <path
     clip-path="url(#clip510)"
     d="M44.7161 949.993 L47.5806 949.993 L47.5806 976.92 Q53.6281 976.538 56.8109 973.292 Q59.9619 970.014 59.9619 964.189 Q59.9619 960.815 59.1344 957.664 Q58.3069 954.481 56.6518 951.362 L62.1899 951.362 Q63.5267 954.513 64.227 957.823 Q64.9272 961.133 64.9272 964.539 Q64.9272 973.069 59.9619 978.066 Q54.9967 983.031 46.5303 983.031 Q37.7774 983.031 32.6531 978.321 Q27.4968 973.578 27.4968 965.558 Q27.4968 958.364 32.1438 954.195 Q36.7589 949.993 44.7161 949.993 M42.9973 955.85 Q38.1912 955.914 35.3266 958.555 Q32.4621 961.165 32.4621 965.494 Q32.4621 970.396 35.2312 973.356 Q38.0002 976.284 43.0292 976.729 L42.9973 955.85 Z"
     fill="#000000"
     fill-rule="nonzero"
     fill-opacity="1"
     id="path369" />
  <path
     clip-path="url(#clip510)"
     d="M33.8307 919.724 Q33.2578 920.711 33.0032 921.889 Q32.7167 923.035 32.7167 924.435 Q32.7167 929.4 35.9632 932.074 Q39.1779 934.716 45.2253 934.716 L64.0042 934.716 L64.0042 940.604 L28.3562 940.604 L28.3562 934.716 L33.8944 934.716 Q30.6479 932.87 29.0883 929.91 Q27.4968 926.95 27.4968 922.716 Q27.4968 922.112 27.5923 921.38 Q27.656 920.648 27.8151 919.756 L33.8307 919.724 Z"
     fill="#000000"
     fill-rule="nonzero"
     fill-opacity="1"
     id="path371" />
  <path
     clip-path="url(#clip510)"
     d="M14.479 895.535 L19.3487 895.535 L19.3487 901.137 Q19.3487 904.288 20.6219 905.529 Q21.895 906.738 25.2052 906.738 L28.3562 906.738 L28.3562 897.094 L32.9077 897.094 L32.9077 906.738 L64.0042 906.738 L64.0042 912.627 L32.9077 912.627 L32.9077 918.229 L28.3562 918.229 L28.3562 912.627 L25.8736 912.627 Q19.9216 912.627 17.2162 909.858 Q14.479 907.089 14.479 901.073 L14.479 895.535 Z"
     fill="#000000"
     fill-rule="nonzero"
     fill-opacity="1"
     id="path373" />
  <path
     clip-path="url(#clip510)"
     d="M32.4621 876.82 Q32.4621 881.53 36.1542 884.267 Q39.8145 887.005 46.212 887.005 Q52.6095 887.005 56.3017 884.299 Q59.9619 881.562 59.9619 876.82 Q59.9619 872.141 56.2698 869.404 Q52.5777 866.666 46.212 866.666 Q39.8781 866.666 36.186 869.404 Q32.4621 872.141 32.4621 876.82 M27.4968 876.82 Q27.4968 869.181 32.4621 864.82 Q37.4273 860.46 46.212 860.46 Q54.9649 860.46 59.9619 864.82 Q64.9272 869.181 64.9272 876.82 Q64.9272 884.49 59.9619 888.851 Q54.9649 893.179 46.212 893.179 Q37.4273 893.179 32.4621 888.851 Q27.4968 884.49 27.4968 876.82 Z"
     fill="#000000"
     fill-rule="nonzero"
     fill-opacity="1"
     id="path375" />
  <path
     clip-path="url(#clip510)"
     d="M33.8307 830.095 Q33.2578 831.082 33.0032 832.26 Q32.7167 833.405 32.7167 834.806 Q32.7167 839.771 35.9632 842.445 Q39.1779 845.087 45.2253 845.087 L64.0042 845.087 L64.0042 850.975 L28.3562 850.975 L28.3562 845.087 L33.8944 845.087 Q30.6479 843.241 29.0883 840.28 Q27.4968 837.32 27.4968 833.087 Q27.4968 832.482 27.5923 831.75 Q27.656 831.018 27.8151 830.127 L33.8307 830.095 Z"
     fill="#000000"
     fill-rule="nonzero"
     fill-opacity="1"
     id="path377" />
  <path
     clip-path="url(#clip510)"
     d="M35.1993 797.344 Q31.2526 795.148 29.3747 792.092 Q27.4968 789.037 27.4968 784.899 Q27.4968 779.329 31.4117 776.305 Q35.2948 773.281 42.4881 773.281 L64.0042 773.281 L64.0042 779.17 L42.679 779.17 Q37.5546 779.17 35.072 780.984 Q32.5894 782.798 32.5894 786.522 Q32.5894 791.074 35.6131 793.715 Q38.6368 796.357 43.8567 796.357 L64.0042 796.357 L64.0042 802.245 L42.679 802.245 Q37.5228 802.245 35.072 804.06 Q32.5894 805.874 32.5894 809.661 Q32.5894 814.149 35.6449 816.791 Q38.6686 819.433 43.8567 819.433 L64.0042 819.433 L64.0042 825.321 L28.3562 825.321 L28.3562 819.433 L33.8944 819.433 Q30.616 817.428 29.0564 814.627 Q27.4968 811.826 27.4968 807.975 Q27.4968 804.091 29.4702 801.386 Q31.4436 798.649 35.1993 797.344 Z"
     fill="#000000"
     fill-rule="nonzero"
     fill-opacity="1"
     id="path379" />
  <path
     clip-path="url(#clip510)"
     d="M46.0847 745.4 Q46.0847 752.497 47.7079 755.235 Q49.3312 757.972 53.2461 757.972 Q56.3653 757.972 58.2114 755.935 Q60.0256 753.866 60.0256 750.333 Q60.0256 745.463 56.5881 742.535 Q53.1188 739.575 47.3897 739.575 L46.0847 739.575 L46.0847 745.4 M43.6657 733.719 L64.0042 733.719 L64.0042 739.575 L58.5933 739.575 Q61.8398 741.58 63.3994 744.572 Q64.9272 747.564 64.9272 751.893 Q64.9272 757.367 61.8716 760.614 Q58.7843 763.828 53.6281 763.828 Q47.6125 763.828 44.5569 759.818 Q41.5014 755.776 41.5014 747.787 L41.5014 739.575 L40.9285 739.575 Q36.8862 739.575 34.6901 742.249 Q32.4621 744.89 32.4621 749.696 Q32.4621 752.752 33.1941 755.648 Q33.9262 758.545 35.3903 761.218 L29.9795 761.218 Q28.7381 758.004 28.1334 754.98 Q27.4968 751.956 27.4968 749.092 Q27.4968 741.357 31.5072 737.538 Q35.5176 733.719 43.6657 733.719 Z"
     fill="#000000"
     fill-rule="nonzero"
     fill-opacity="1"
     id="path381" />
  <path
     clip-path="url(#clip510)"
     d="M42.4881 692.023 L64.0042 692.023 L64.0042 697.88 L42.679 697.88 Q37.6183 697.88 35.1038 699.853 Q32.5894 701.826 32.5894 705.773 Q32.5894 710.516 35.6131 713.253 Q38.6368 715.99 43.8567 715.99 L64.0042 715.99 L64.0042 721.878 L28.3562 721.878 L28.3562 715.99 L33.8944 715.99 Q30.6797 713.889 29.0883 711.057 Q27.4968 708.192 27.4968 704.468 Q27.4968 698.325 31.3163 695.174 Q35.1038 692.023 42.4881 692.023 Z"
     fill="#000000"
     fill-rule="nonzero"
     fill-opacity="1"
     id="path383" />
  <path
     clip-path="url(#clip510)"
     d="M29.7248 654.688 L35.1993 654.688 Q33.8307 657.171 33.1623 659.685 Q32.4621 662.168 32.4621 664.714 Q32.4621 670.412 36.0905 673.563 Q39.6872 676.714 46.212 676.714 Q52.7369 676.714 56.3653 673.563 Q59.9619 670.412 59.9619 664.714 Q59.9619 662.168 59.2935 659.685 Q58.5933 657.171 57.2247 654.688 L62.6355 654.688 Q63.7814 657.139 64.3543 659.781 Q64.9272 662.391 64.9272 665.351 Q64.9272 673.403 59.8664 678.146 Q54.8057 682.888 46.212 682.888 Q37.491 682.888 32.4939 678.114 Q27.4968 673.308 27.4968 664.969 Q27.4968 662.263 28.0697 659.685 Q28.6108 657.107 29.7248 654.688 Z"
     fill="#000000"
     fill-rule="nonzero"
     fill-opacity="1"
     id="path385" />
  <path
     clip-path="url(#clip510)"
     d="M44.7161 614.011 L47.5806 614.011 L47.5806 640.938 Q53.6281 640.556 56.8109 637.31 Q59.9619 634.032 59.9619 628.207 Q59.9619 624.833 59.1344 621.682 Q58.3069 618.499 56.6518 615.38 L62.1899 615.38 Q63.5267 618.531 64.227 621.841 Q64.9272 625.151 64.9272 628.557 Q64.9272 637.087 59.9619 642.084 Q54.9967 647.049 46.5303 647.049 Q37.7774 647.049 32.6531 642.339 Q27.4968 637.596 27.4968 629.576 Q27.4968 622.382 32.1438 618.213 Q36.7589 614.011 44.7161 614.011 M42.9973 619.868 Q38.1912 619.932 35.3266 622.573 Q32.4621 625.183 32.4621 629.512 Q32.4621 634.414 35.2312 637.374 Q38.0002 640.302 43.0292 640.747 L42.9973 619.868 Z"
     fill="#000000"
     fill-rule="nonzero"
     fill-opacity="1"
     id="path387" />
  <polyline
     clip-path="url(#clip512)"
     style="stroke:#2980b9; stroke-linecap:round; stroke-linejoin:round; stroke-width:8; stroke-opacity:1; fill:none"
     points="1899.6,1063.12 1505.55,1057.12 1111.5,906.413 717.446,724.125 323.395,802.264 "
     id="polyline389" />
  <polyline
     clip-path="url(#clip512)"
     style="stroke:#16a085; stroke-linecap:round; stroke-linejoin:round; stroke-width:8; stroke-opacity:1; fill:none"
     points="1899.6,1090.63 1505.55,887.417 1111.5,735.3 717.446,669.571 323.395,396.64 "
     id="polyline391" />
  <path
     clip-path="url(#clip510)"
     d="M953.428 202.764 L1663.61 202.764 L1663.61 47.2441 L953.428 47.2441  Z"
     fill="#ffffff"
     fill-rule="evenodd"
     fill-opacity="1"
     id="path393" />
  <polyline
     clip-path="url(#clip510)"
     style="fill:none;stroke:#000000;stroke-width:4;stroke-linecap:round;stroke-linejoin:round;stroke-opacity:1"
     points="953.428,202.764 1663.61,202.764 1663.61,47.2441 953.428,47.2441 953.428,202.764 "
     id="polyline395"
     transform="matrix(1.4629616,0,0,0.99469351,-440.98789,0.66333223)" />
  <polyline
     clip-path="url(#clip510)"
     style="stroke:#2980b9; stroke-linecap:round; stroke-linejoin:round; stroke-width:8; stroke-opacity:1; fill:none"
     points="976.633,99.0841 1115.86,99.0841 "
     id="polyline397" />
  <polyline
     clip-path="url(#clip510)"
     style="stroke:#16a085; stroke-linecap:round; stroke-linejoin:round; stroke-width:8; stroke-opacity:1; fill:none"
     points="976.633,150.924 1115.86,150.924 "
     id="polyline435" />
  <text
     xml:space="preserve"
     style="font-style:normal;font-variant:normal;font-weight:normal;font-stretch:normal;font-size:48px;font-family:sans-serif;-inkscape-font-specification:sans-serif;fill:#000000;fill-opacity:1;stroke-width:151.181;stroke-linecap:round;stroke-linejoin:round"
     x="1126.3428"
     y="112.37163"
     id="text645"><tspan
       sodipodi:role="line"
       id="tspan643"
       style="font-style:normal;font-variant:normal;font-weight:normal;font-stretch:normal;font-size:48px;font-family:sans-serif;-inkscape-font-specification:sans-serif;fill:#000000;fill-opacity:1;stroke-width:151.181"
       x="1126.3428"
       y="112.37163">Trained for 5000 runs</tspan></text>
  <text
     xml:space="preserve"
     style="font-style:normal;font-variant:normal;font-weight:normal;font-stretch:normal;font-size:48px;font-family:sans-serif;-inkscape-font-specification:sans-serif;fill:#000000;fill-opacity:1;stroke-width:151.181;stroke-linecap:round;stroke-linejoin:round"
     x="1129.1246"
     y="162.01984"
     id="text645-3"><tspan
       sodipodi:role="line"
       id="tspan643-6"
       style="font-style:normal;font-variant:normal;font-weight:normal;font-stretch:normal;font-size:48px;font-family:sans-serif;-inkscape-font-specification:sans-serif;fill:#000000;fill-opacity:1;stroke-width:151.181"
       x="1129.1246"
       y="162.01984">Single policy trained for 5000 runs</tspan></text>
</svg>
