<?xml version="1.0" encoding="utf-8"?>
<svg xmlns="http://www.w3.org/2000/svg" xmlns:xlink="http://www.w3.org/1999/xlink" width="600" height="400" viewBox="0 0 2400 1600">
<defs>
  <clipPath id="clip910">
    <rect x="0" y="0" width="2400" height="1600"/>
  </clipPath>
</defs>
<path clip-path="url(#clip910)" d="M0 1600 L2400 1600 L2400 0 L0 0  Z" fill="#ffffff" fill-rule="evenodd" fill-opacity="1"/>
<defs>
  <clipPath id="clip911">
    <rect x="480" y="0" width="1681" height="1600"/>
  </clipPath>
</defs>
<path clip-path="url(#clip910)" d="M264.287 1388.62 L2352.76 1388.62 L2352.76 299.317 L264.287 299.317  Z" fill="#ffffff" fill-rule="evenodd" fill-opacity="1"/>
<defs>
  <clipPath id="clip912">
    <rect x="264" y="299" width="2089" height="1090"/>
  </clipPath>
</defs>
<polyline clip-path="url(#clip912)" style="stroke:#000000; stroke-linecap:round; stroke-linejoin:round; stroke-width:2; stroke-opacity:0.1; fill:none" points="2293.65,1388.62 2293.65,299.317 "/>
<polyline clip-path="url(#clip912)" style="stroke:#000000; stroke-linecap:round; stroke-linejoin:round; stroke-width:2; stroke-opacity:0.1; fill:none" points="1899.6,1388.62 1899.6,299.317 "/>
<polyline clip-path="url(#clip912)" style="stroke:#000000; stroke-linecap:round; stroke-linejoin:round; stroke-width:2; stroke-opacity:0.1; fill:none" points="1505.55,1388.62 1505.55,299.317 "/>
<polyline clip-path="url(#clip912)" style="stroke:#000000; stroke-linecap:round; stroke-linejoin:round; stroke-width:2; stroke-opacity:0.1; fill:none" points="1111.5,1388.62 1111.5,299.317 "/>
<polyline clip-path="url(#clip912)" style="stroke:#000000; stroke-linecap:round; stroke-linejoin:round; stroke-width:2; stroke-opacity:0.1; fill:none" points="717.446,1388.62 717.446,299.317 "/>
<polyline clip-path="url(#clip912)" style="stroke:#000000; stroke-linecap:round; stroke-linejoin:round; stroke-width:2; stroke-opacity:0.1; fill:none" points="323.395,1388.62 323.395,299.317 "/>
<polyline clip-path="url(#clip910)" style="stroke:#000000; stroke-linecap:round; stroke-linejoin:round; stroke-width:4; stroke-opacity:1; fill:none" points="2352.76,1388.62 264.287,1388.62 "/>
<polyline clip-path="url(#clip910)" style="stroke:#000000; stroke-linecap:round; stroke-linejoin:round; stroke-width:4; stroke-opacity:1; fill:none" points="2293.65,1388.62 2293.65,1373.27 "/>
<polyline clip-path="url(#clip910)" style="stroke:#000000; stroke-linecap:round; stroke-linejoin:round; stroke-width:4; stroke-opacity:1; fill:none" points="1899.6,1388.62 1899.6,1373.27 "/>
<polyline clip-path="url(#clip910)" style="stroke:#000000; stroke-linecap:round; stroke-linejoin:round; stroke-width:4; stroke-opacity:1; fill:none" points="1505.55,1388.62 1505.55,1373.27 "/>
<polyline clip-path="url(#clip910)" style="stroke:#000000; stroke-linecap:round; stroke-linejoin:round; stroke-width:4; stroke-opacity:1; fill:none" points="1111.5,1388.62 1111.5,1373.27 "/>
<polyline clip-path="url(#clip910)" style="stroke:#000000; stroke-linecap:round; stroke-linejoin:round; stroke-width:4; stroke-opacity:1; fill:none" points="717.446,1388.62 717.446,1373.27 "/>
<polyline clip-path="url(#clip910)" style="stroke:#000000; stroke-linecap:round; stroke-linejoin:round; stroke-width:4; stroke-opacity:1; fill:none" points="323.395,1388.62 323.395,1373.27 "/>
<path clip-path="url(#clip910)" d="M2264.66 1426.09 L2264.66 1430.07 Q2262.85 1429.08 2261.02 1428.59 Q2259.22 1428.08 2257.36 1428.08 Q2253.22 1428.08 2250.93 1430.72 Q2248.64 1433.33 2248.64 1438.08 Q2248.64 1442.83 2250.93 1445.46 Q2253.22 1448.08 2257.36 1448.08 Q2259.22 1448.08 2261.02 1447.59 Q2262.85 1447.08 2264.66 1446.09 L2264.66 1450.02 Q2262.87 1450.86 2260.95 1451.27 Q2259.05 1451.69 2256.9 1451.69 Q2251.04 1451.69 2247.6 1448.01 Q2244.15 1444.33 2244.15 1438.08 Q2244.15 1431.74 2247.62 1428.1 Q2251.11 1424.47 2257.18 1424.47 Q2259.15 1424.47 2261.02 1424.89 Q2262.9 1425.28 2264.66 1426.09 Z" fill="#000000" fill-rule="nonzero" fill-opacity="1" /><path clip-path="url(#clip910)" d="M2283.85 1437.99 Q2278.68 1437.99 2276.69 1439.17 Q2274.7 1440.35 2274.7 1443.2 Q2274.7 1445.46 2276.18 1446.81 Q2277.69 1448.13 2280.26 1448.13 Q2283.8 1448.13 2285.93 1445.63 Q2288.08 1443.1 2288.08 1438.94 L2288.08 1437.99 L2283.85 1437.99 M2292.34 1436.23 L2292.34 1451.02 L2288.08 1451.02 L2288.08 1447.08 Q2286.62 1449.45 2284.45 1450.58 Q2282.27 1451.69 2279.12 1451.69 Q2275.14 1451.69 2272.78 1449.47 Q2270.44 1447.22 2270.44 1443.47 Q2270.44 1439.1 2273.36 1436.88 Q2276.3 1434.65 2282.11 1434.65 L2288.08 1434.65 L2288.08 1434.24 Q2288.08 1431.3 2286.14 1429.7 Q2284.22 1428.08 2280.72 1428.08 Q2278.5 1428.08 2276.39 1428.61 Q2274.28 1429.14 2272.34 1430.21 L2272.34 1426.27 Q2274.68 1425.37 2276.88 1424.93 Q2279.08 1424.47 2281.16 1424.47 Q2286.78 1424.47 2289.56 1427.39 Q2292.34 1430.3 2292.34 1436.23 Z" fill="#000000" fill-rule="nonzero" fill-opacity="1" /><path clip-path="url(#clip910)" d="M2316.14 1429.08 Q2315.42 1428.66 2314.56 1428.47 Q2313.73 1428.27 2312.71 1428.27 Q2309.1 1428.27 2307.16 1430.63 Q2305.23 1432.96 2305.23 1437.36 L2305.23 1451.02 L2300.95 1451.02 L2300.95 1425.09 L2305.23 1425.09 L2305.23 1429.12 Q2306.58 1426.76 2308.73 1425.63 Q2310.88 1424.47 2313.96 1424.47 Q2314.4 1424.47 2314.93 1424.54 Q2315.47 1424.58 2316.11 1424.7 L2316.14 1429.08 Z" fill="#000000" fill-rule="nonzero" fill-opacity="1" /><path clip-path="url(#clip910)" d="M2331.21 1419.54 Q2327.59 1419.54 2325.77 1423.1 Q2323.96 1426.64 2323.96 1433.77 Q2323.96 1440.88 2325.77 1444.45 Q2327.59 1447.99 2331.21 1447.99 Q2334.84 1447.99 2336.65 1444.45 Q2338.47 1440.88 2338.47 1433.77 Q2338.47 1426.64 2336.65 1423.1 Q2334.84 1419.54 2331.21 1419.54 M2331.21 1415.83 Q2337.02 1415.83 2340.07 1420.44 Q2343.15 1425.02 2343.15 1433.77 Q2343.15 1442.5 2340.07 1447.11 Q2337.02 1451.69 2331.21 1451.69 Q2325.4 1451.69 2322.32 1447.11 Q2319.26 1442.5 2319.26 1433.77 Q2319.26 1425.02 2322.32 1420.44 Q2325.4 1415.83 2331.21 1415.83 Z" fill="#000000" fill-rule="nonzero" fill-opacity="1" /><path clip-path="url(#clip910)" d="M2197.92 1466.89 Q2194.82 1472.21 2193.31 1477.42 Q2191.81 1482.63 2191.81 1487.98 Q2191.81 1493.32 2193.31 1498.58 Q2194.84 1503.81 2197.92 1509.11 L2194.22 1509.11 Q2190.74 1503.67 2189.01 1498.42 Q2187.29 1493.16 2187.29 1487.98 Q2187.29 1482.81 2189.01 1477.58 Q2190.72 1472.35 2194.22 1466.89 L2197.92 1466.89 Z" fill="#000000" fill-rule="nonzero" fill-opacity="1" /><path clip-path="url(#clip910)" d="M2221.21 1480.92 Q2220.49 1480.5 2219.63 1480.31 Q2218.8 1480.11 2217.78 1480.11 Q2214.17 1480.11 2212.23 1482.47 Q2210.3 1484.8 2210.3 1489.2 L2210.3 1502.86 L2206.02 1502.86 L2206.02 1476.93 L2210.3 1476.93 L2210.3 1480.96 Q2211.65 1478.6 2213.8 1477.47 Q2215.95 1476.31 2219.03 1476.31 Q2219.47 1476.31 2220 1476.38 Q2220.54 1476.42 2221.18 1476.54 L2221.21 1480.92 Z" fill="#000000" fill-rule="nonzero" fill-opacity="1" /><path clip-path="url(#clip910)" d="M2237.46 1489.83 Q2232.29 1489.83 2230.3 1491.01 Q2228.31 1492.19 2228.31 1495.04 Q2228.31 1497.3 2229.79 1498.65 Q2231.3 1499.97 2233.87 1499.97 Q2237.41 1499.97 2239.54 1497.47 Q2241.69 1494.94 2241.69 1490.78 L2241.69 1489.83 L2237.46 1489.83 M2245.95 1488.07 L2245.95 1502.86 L2241.69 1502.86 L2241.69 1498.92 Q2240.23 1501.29 2238.06 1502.42 Q2235.88 1503.53 2232.73 1503.53 Q2228.75 1503.53 2226.39 1501.31 Q2224.05 1499.06 2224.05 1495.31 Q2224.05 1490.94 2226.97 1488.72 Q2229.91 1486.49 2235.72 1486.49 L2241.69 1486.49 L2241.69 1486.08 Q2241.69 1483.14 2239.75 1481.54 Q2237.83 1479.92 2234.33 1479.92 Q2232.11 1479.92 2230 1480.45 Q2227.9 1480.98 2225.95 1482.05 L2225.95 1478.11 Q2228.29 1477.21 2230.49 1476.77 Q2232.69 1476.31 2234.77 1476.31 Q2240.4 1476.31 2243.17 1479.23 Q2245.95 1482.14 2245.95 1488.07 Z" fill="#000000" fill-rule="nonzero" fill-opacity="1" /><path clip-path="url(#clip910)" d="M2276.28 1487.21 L2276.28 1502.86 L2272.02 1502.86 L2272.02 1487.35 Q2272.02 1483.67 2270.58 1481.84 Q2269.15 1480.01 2266.28 1480.01 Q2262.83 1480.01 2260.84 1482.21 Q2258.85 1484.41 2258.85 1488.21 L2258.85 1502.86 L2254.56 1502.86 L2254.56 1476.93 L2258.85 1476.93 L2258.85 1480.96 Q2260.37 1478.62 2262.43 1477.47 Q2264.52 1476.31 2267.22 1476.31 Q2271.69 1476.31 2273.98 1479.09 Q2276.28 1481.84 2276.28 1487.21 Z" fill="#000000" fill-rule="nonzero" fill-opacity="1" /><path clip-path="url(#clip910)" d="M2301.83 1480.87 L2301.83 1466.84 L2306.09 1466.84 L2306.09 1502.86 L2301.83 1502.86 L2301.83 1498.97 Q2300.49 1501.29 2298.43 1502.42 Q2296.39 1503.53 2293.52 1503.53 Q2288.82 1503.53 2285.86 1499.78 Q2282.92 1496.03 2282.92 1489.92 Q2282.92 1483.81 2285.86 1480.06 Q2288.82 1476.31 2293.52 1476.31 Q2296.39 1476.31 2298.43 1477.44 Q2300.49 1478.55 2301.83 1480.87 M2287.32 1489.92 Q2287.32 1494.62 2289.24 1497.3 Q2291.18 1499.97 2294.56 1499.97 Q2297.94 1499.97 2299.89 1497.3 Q2301.83 1494.62 2301.83 1489.92 Q2301.83 1485.22 2299.89 1482.56 Q2297.94 1479.87 2294.56 1479.87 Q2291.18 1479.87 2289.24 1482.56 Q2287.32 1485.22 2287.32 1489.92 Z" fill="#000000" fill-rule="nonzero" fill-opacity="1" /><path clip-path="url(#clip910)" d="M2324.91 1479.92 Q2321.48 1479.92 2319.49 1482.61 Q2317.5 1485.27 2317.5 1489.92 Q2317.5 1494.57 2319.47 1497.26 Q2321.46 1499.92 2324.91 1499.92 Q2328.31 1499.92 2330.3 1497.23 Q2332.29 1494.55 2332.29 1489.92 Q2332.29 1485.31 2330.3 1482.63 Q2328.31 1479.92 2324.91 1479.92 M2324.91 1476.31 Q2330.47 1476.31 2333.64 1479.92 Q2336.81 1483.53 2336.81 1489.92 Q2336.81 1496.29 2333.64 1499.92 Q2330.47 1503.53 2324.91 1503.53 Q2319.33 1503.53 2316.16 1499.92 Q2313.01 1496.29 2313.01 1489.92 Q2313.01 1483.53 2316.16 1479.92 Q2319.33 1476.31 2324.91 1476.31 Z" fill="#000000" fill-rule="nonzero" fill-opacity="1" /><path clip-path="url(#clip910)" d="M2364.05 1481.91 Q2365.65 1479.04 2367.87 1477.67 Q2370.09 1476.31 2373.1 1476.31 Q2377.15 1476.31 2379.35 1479.16 Q2381.55 1481.98 2381.55 1487.21 L2381.55 1502.86 L2377.27 1502.86 L2377.27 1487.35 Q2377.27 1483.62 2375.95 1481.82 Q2374.63 1480.01 2371.92 1480.01 Q2368.61 1480.01 2366.69 1482.21 Q2364.77 1484.41 2364.77 1488.21 L2364.77 1502.86 L2360.49 1502.86 L2360.49 1487.35 Q2360.49 1483.6 2359.17 1481.82 Q2357.85 1480.01 2355.09 1480.01 Q2351.83 1480.01 2349.91 1482.23 Q2347.99 1484.43 2347.99 1488.21 L2347.99 1502.86 L2343.71 1502.86 L2343.71 1476.93 L2347.99 1476.93 L2347.99 1480.96 Q2349.45 1478.58 2351.48 1477.44 Q2353.52 1476.31 2356.32 1476.31 Q2359.15 1476.31 2361.11 1477.74 Q2363.1 1479.18 2364.05 1481.91 Z" fill="#000000" fill-rule="nonzero" fill-opacity="1" /><path clip-path="url(#clip910)" d="M2389.38 1466.89 L2393.08 1466.89 Q2396.55 1472.35 2398.27 1477.58 Q2400 1482.81 2400 1487.98 Q2400 1493.16 2398.27 1498.42 Q2396.55 1503.67 2393.08 1509.11 L2389.38 1509.11 Q2392.46 1503.81 2393.96 1498.58 Q2395.49 1493.32 2395.49 1487.98 Q2395.49 1482.63 2393.96 1477.42 Q2392.46 1472.21 2389.38 1466.89 Z" fill="#000000" fill-rule="nonzero" fill-opacity="1" /><path clip-path="url(#clip910)" d="M1871.22 1426.09 L1871.22 1430.07 Q1869.41 1429.08 1867.58 1428.59 Q1865.78 1428.08 1863.93 1428.08 Q1859.78 1428.08 1857.49 1430.72 Q1855.2 1433.33 1855.2 1438.08 Q1855.2 1442.83 1857.49 1445.46 Q1859.78 1448.08 1863.93 1448.08 Q1865.78 1448.08 1867.58 1447.59 Q1869.41 1447.08 1871.22 1446.09 L1871.22 1450.02 Q1869.44 1450.86 1867.51 1451.27 Q1865.62 1451.69 1863.46 1451.69 Q1857.61 1451.69 1854.16 1448.01 Q1850.71 1444.33 1850.71 1438.08 Q1850.71 1431.74 1854.18 1428.1 Q1857.68 1424.47 1863.74 1424.47 Q1865.71 1424.47 1867.58 1424.89 Q1869.46 1425.28 1871.22 1426.09 Z" fill="#000000" fill-rule="nonzero" fill-opacity="1" /><path clip-path="url(#clip910)" d="M1890.41 1437.99 Q1885.25 1437.99 1883.26 1439.17 Q1881.26 1440.35 1881.26 1443.2 Q1881.26 1445.46 1882.75 1446.81 Q1884.25 1448.13 1886.82 1448.13 Q1890.36 1448.13 1892.49 1445.63 Q1894.64 1443.1 1894.64 1438.94 L1894.64 1437.99 L1890.41 1437.99 M1898.9 1436.23 L1898.9 1451.02 L1894.64 1451.02 L1894.64 1447.08 Q1893.19 1449.45 1891.01 1450.58 Q1888.83 1451.69 1885.69 1451.69 Q1881.7 1451.69 1879.34 1449.47 Q1877.01 1447.22 1877.01 1443.47 Q1877.01 1439.1 1879.92 1436.88 Q1882.86 1434.65 1888.67 1434.65 L1894.64 1434.65 L1894.64 1434.24 Q1894.64 1431.3 1892.7 1429.7 Q1890.78 1428.08 1887.28 1428.08 Q1885.06 1428.08 1882.95 1428.61 Q1880.85 1429.14 1878.9 1430.21 L1878.9 1426.27 Q1881.24 1425.37 1883.44 1424.93 Q1885.64 1424.47 1887.72 1424.47 Q1893.35 1424.47 1896.13 1427.39 Q1898.9 1430.3 1898.9 1436.23 Z" fill="#000000" fill-rule="nonzero" fill-opacity="1" /><path clip-path="url(#clip910)" d="M1922.7 1429.08 Q1921.98 1428.66 1921.13 1428.47 Q1920.29 1428.27 1919.27 1428.27 Q1915.66 1428.27 1913.72 1430.63 Q1911.8 1432.96 1911.8 1437.36 L1911.8 1451.02 L1907.51 1451.02 L1907.51 1425.09 L1911.8 1425.09 L1911.8 1429.12 Q1913.14 1426.76 1915.29 1425.63 Q1917.44 1424.47 1920.52 1424.47 Q1920.96 1424.47 1921.5 1424.54 Q1922.03 1424.58 1922.68 1424.7 L1922.7 1429.08 Z" fill="#000000" fill-rule="nonzero" fill-opacity="1" /><path clip-path="url(#clip910)" d="M1928.58 1447.08 L1936.22 1447.08 L1936.22 1420.72 L1927.91 1422.39 L1927.91 1418.13 L1936.17 1416.46 L1940.85 1416.46 L1940.85 1447.08 L1948.49 1447.08 L1948.49 1451.02 L1928.58 1451.02 L1928.58 1447.08 Z" fill="#000000" fill-rule="nonzero" fill-opacity="1" /><path clip-path="url(#clip910)" d="M1477.35 1426.09 L1477.35 1430.07 Q1475.55 1429.08 1473.72 1428.59 Q1471.91 1428.08 1470.06 1428.08 Q1465.92 1428.08 1463.63 1430.72 Q1461.33 1433.33 1461.33 1438.08 Q1461.33 1442.83 1463.63 1445.46 Q1465.92 1448.08 1470.06 1448.08 Q1471.91 1448.08 1473.72 1447.59 Q1475.55 1447.08 1477.35 1446.09 L1477.35 1450.02 Q1475.57 1450.86 1473.65 1451.27 Q1471.75 1451.69 1469.6 1451.69 Q1463.74 1451.69 1460.29 1448.01 Q1456.84 1444.33 1456.84 1438.08 Q1456.84 1431.74 1460.32 1428.1 Q1463.81 1424.47 1469.88 1424.47 Q1471.84 1424.47 1473.72 1424.89 Q1475.59 1425.28 1477.35 1426.09 Z" fill="#000000" fill-rule="nonzero" fill-opacity="1" /><path clip-path="url(#clip910)" d="M1496.54 1437.99 Q1491.38 1437.99 1489.39 1439.17 Q1487.4 1440.35 1487.4 1443.2 Q1487.4 1445.46 1488.88 1446.81 Q1490.38 1448.13 1492.95 1448.13 Q1496.5 1448.13 1498.63 1445.63 Q1500.78 1443.1 1500.78 1438.94 L1500.78 1437.99 L1496.54 1437.99 M1505.04 1436.23 L1505.04 1451.02 L1500.78 1451.02 L1500.78 1447.08 Q1499.32 1449.45 1497.14 1450.58 Q1494.97 1451.69 1491.82 1451.69 Q1487.84 1451.69 1485.48 1449.47 Q1483.14 1447.22 1483.14 1443.47 Q1483.14 1439.1 1486.06 1436.88 Q1489 1434.65 1494.81 1434.65 L1500.78 1434.65 L1500.78 1434.24 Q1500.78 1431.3 1498.83 1429.7 Q1496.91 1428.08 1493.42 1428.08 Q1491.2 1428.08 1489.09 1428.61 Q1486.98 1429.14 1485.04 1430.21 L1485.04 1426.27 Q1487.38 1425.37 1489.57 1424.93 Q1491.77 1424.47 1493.86 1424.47 Q1499.48 1424.47 1502.26 1427.39 Q1505.04 1430.3 1505.04 1436.23 Z" fill="#000000" fill-rule="nonzero" fill-opacity="1" /><path clip-path="url(#clip910)" d="M1528.83 1429.08 Q1528.12 1428.66 1527.26 1428.47 Q1526.43 1428.27 1525.41 1428.27 Q1521.8 1428.27 1519.85 1430.63 Q1517.93 1432.96 1517.93 1437.36 L1517.93 1451.02 L1513.65 1451.02 L1513.65 1425.09 L1517.93 1425.09 L1517.93 1429.12 Q1519.27 1426.76 1521.43 1425.63 Q1523.58 1424.47 1526.66 1424.47 Q1527.1 1424.47 1527.63 1424.54 Q1528.16 1424.58 1528.81 1424.7 L1528.83 1429.08 Z" fill="#000000" fill-rule="nonzero" fill-opacity="1" /><path clip-path="url(#clip910)" d="M1537.93 1447.08 L1554.25 1447.08 L1554.25 1451.02 L1532.31 1451.02 L1532.31 1447.08 Q1534.97 1444.33 1539.55 1439.7 Q1544.16 1435.05 1545.34 1433.71 Q1547.58 1431.18 1548.46 1429.45 Q1549.37 1427.69 1549.37 1426 Q1549.37 1423.24 1547.42 1421.51 Q1545.5 1419.77 1542.4 1419.77 Q1540.2 1419.77 1537.75 1420.53 Q1535.32 1421.3 1532.54 1422.85 L1532.54 1418.13 Q1535.36 1416.99 1537.82 1416.41 Q1540.27 1415.83 1542.31 1415.83 Q1547.68 1415.83 1550.87 1418.52 Q1554.07 1421.21 1554.07 1425.7 Q1554.07 1427.83 1553.26 1429.75 Q1552.47 1431.64 1550.36 1434.24 Q1549.78 1434.91 1546.68 1438.13 Q1543.58 1441.32 1537.93 1447.08 Z" fill="#000000" fill-rule="nonzero" fill-opacity="1" /><path clip-path="url(#clip910)" d="M1082.83 1426.09 L1082.83 1430.07 Q1081.02 1429.08 1079.19 1428.59 Q1077.39 1428.08 1075.54 1428.08 Q1071.39 1428.08 1069.1 1430.72 Q1066.81 1433.33 1066.81 1438.08 Q1066.81 1442.83 1069.1 1445.46 Q1071.39 1448.08 1075.54 1448.08 Q1077.39 1448.08 1079.19 1447.59 Q1081.02 1447.08 1082.83 1446.09 L1082.83 1450.02 Q1081.05 1450.86 1079.12 1451.27 Q1077.23 1451.69 1075.07 1451.69 Q1069.22 1451.69 1065.77 1448.01 Q1062.32 1444.33 1062.32 1438.08 Q1062.32 1431.74 1065.79 1428.1 Q1069.29 1424.47 1075.35 1424.47 Q1077.32 1424.47 1079.19 1424.89 Q1081.07 1425.28 1082.83 1426.09 Z" fill="#000000" fill-rule="nonzero" fill-opacity="1" /><path clip-path="url(#clip910)" d="M1102.02 1437.99 Q1096.86 1437.99 1094.86 1439.17 Q1092.87 1440.35 1092.87 1443.2 Q1092.87 1445.46 1094.36 1446.81 Q1095.86 1448.13 1098.43 1448.13 Q1101.97 1448.13 1104.1 1445.63 Q1106.25 1443.1 1106.25 1438.94 L1106.25 1437.99 L1102.02 1437.99 M1110.51 1436.23 L1110.51 1451.02 L1106.25 1451.02 L1106.25 1447.08 Q1104.79 1449.45 1102.62 1450.58 Q1100.44 1451.69 1097.29 1451.69 Q1093.31 1451.69 1090.95 1449.47 Q1088.61 1447.22 1088.61 1443.47 Q1088.61 1439.1 1091.53 1436.88 Q1094.47 1434.65 1100.28 1434.65 L1106.25 1434.65 L1106.25 1434.24 Q1106.25 1431.3 1104.31 1429.7 Q1102.39 1428.08 1098.89 1428.08 Q1096.67 1428.08 1094.56 1428.61 Q1092.46 1429.14 1090.51 1430.21 L1090.51 1426.27 Q1092.85 1425.37 1095.05 1424.93 Q1097.25 1424.47 1099.33 1424.47 Q1104.96 1424.47 1107.73 1427.39 Q1110.51 1430.3 1110.51 1436.23 Z" fill="#000000" fill-rule="nonzero" fill-opacity="1" /><path clip-path="url(#clip910)" d="M1134.31 1429.08 Q1133.59 1428.66 1132.73 1428.47 Q1131.9 1428.27 1130.88 1428.27 Q1127.27 1428.27 1125.33 1430.63 Q1123.41 1432.96 1123.41 1437.36 L1123.41 1451.02 L1119.12 1451.02 L1119.12 1425.09 L1123.41 1425.09 L1123.41 1429.12 Q1124.75 1426.76 1126.9 1425.63 Q1129.05 1424.47 1132.13 1424.47 Q1132.57 1424.47 1133.1 1424.54 Q1133.64 1424.58 1134.29 1424.7 L1134.31 1429.08 Z" fill="#000000" fill-rule="nonzero" fill-opacity="1" /><path clip-path="url(#clip910)" d="M1153.54 1432.39 Q1156.9 1433.1 1158.78 1435.37 Q1160.67 1437.64 1160.67 1440.97 Q1160.67 1446.09 1157.16 1448.89 Q1153.64 1451.69 1147.16 1451.69 Q1144.98 1451.69 1142.67 1451.25 Q1140.37 1450.83 1137.92 1449.98 L1137.92 1445.46 Q1139.86 1446.6 1142.18 1447.18 Q1144.49 1447.76 1147.02 1447.76 Q1151.42 1447.76 1153.71 1446.02 Q1156.02 1444.28 1156.02 1440.97 Q1156.02 1437.92 1153.87 1436.21 Q1151.74 1434.47 1147.92 1434.47 L1143.89 1434.47 L1143.89 1430.63 L1148.1 1430.63 Q1151.55 1430.63 1153.38 1429.26 Q1155.21 1427.87 1155.21 1425.28 Q1155.21 1422.62 1153.31 1421.21 Q1151.44 1419.77 1147.92 1419.77 Q1146 1419.77 1143.8 1420.19 Q1141.6 1420.6 1138.96 1421.48 L1138.96 1417.32 Q1141.62 1416.58 1143.94 1416.21 Q1146.28 1415.83 1148.34 1415.83 Q1153.66 1415.83 1156.76 1418.27 Q1159.86 1420.67 1159.86 1424.79 Q1159.86 1427.66 1158.22 1429.65 Q1156.58 1431.62 1153.54 1432.39 Z" fill="#000000" fill-rule="nonzero" fill-opacity="1" /><path clip-path="url(#clip910)" d="M688.21 1426.09 L688.21 1430.07 Q686.404 1429.08 684.575 1428.59 Q682.77 1428.08 680.918 1428.08 Q676.775 1428.08 674.483 1430.72 Q672.191 1433.33 672.191 1438.08 Q672.191 1442.83 674.483 1445.46 Q676.775 1448.08 680.918 1448.08 Q682.77 1448.08 684.575 1447.59 Q686.404 1447.08 688.21 1446.09 L688.21 1450.02 Q686.427 1450.86 684.506 1451.27 Q682.608 1451.69 680.455 1451.69 Q674.599 1451.69 671.15 1448.01 Q667.7 1444.33 667.7 1438.08 Q667.7 1431.74 671.173 1428.1 Q674.668 1424.47 680.733 1424.47 Q682.7 1424.47 684.575 1424.89 Q686.45 1425.28 688.21 1426.09 Z" fill="#000000" fill-rule="nonzero" fill-opacity="1" /><path clip-path="url(#clip910)" d="M707.399 1437.99 Q702.237 1437.99 700.247 1439.17 Q698.256 1440.35 698.256 1443.2 Q698.256 1445.46 699.737 1446.81 Q701.242 1448.13 703.811 1448.13 Q707.353 1448.13 709.483 1445.63 Q711.635 1443.1 711.635 1438.94 L711.635 1437.99 L707.399 1437.99 M715.895 1436.23 L715.895 1451.02 L711.635 1451.02 L711.635 1447.08 Q710.177 1449.45 708.001 1450.58 Q705.825 1451.69 702.677 1451.69 Q698.696 1451.69 696.335 1449.47 Q693.997 1447.22 693.997 1443.47 Q693.997 1439.1 696.913 1436.88 Q699.853 1434.65 705.663 1434.65 L711.635 1434.65 L711.635 1434.24 Q711.635 1431.3 709.691 1429.7 Q707.77 1428.08 704.274 1428.08 Q702.052 1428.08 699.946 1428.61 Q697.839 1429.14 695.895 1430.21 L695.895 1426.27 Q698.233 1425.37 700.432 1424.93 Q702.631 1424.47 704.714 1424.47 Q710.339 1424.47 713.117 1427.39 Q715.895 1430.3 715.895 1436.23 Z" fill="#000000" fill-rule="nonzero" fill-opacity="1" /><path clip-path="url(#clip910)" d="M739.691 1429.08 Q738.973 1428.66 738.117 1428.47 Q737.283 1428.27 736.265 1428.27 Q732.654 1428.27 730.709 1430.63 Q728.788 1432.96 728.788 1437.36 L728.788 1451.02 L724.506 1451.02 L724.506 1425.09 L728.788 1425.09 L728.788 1429.12 Q730.131 1426.76 732.283 1425.63 Q734.436 1424.47 737.515 1424.47 Q737.955 1424.47 738.487 1424.54 Q739.02 1424.58 739.668 1424.7 L739.691 1429.08 Z" fill="#000000" fill-rule="nonzero" fill-opacity="1" /><path clip-path="url(#clip910)" d="M757.607 1420.53 L745.802 1438.98 L757.607 1438.98 L757.607 1420.53 M756.381 1416.46 L762.26 1416.46 L762.26 1438.98 L767.191 1438.98 L767.191 1442.87 L762.26 1442.87 L762.26 1451.02 L757.607 1451.02 L757.607 1442.87 L742.006 1442.87 L742.006 1438.36 L756.381 1416.46 Z" fill="#000000" fill-rule="nonzero" fill-opacity="1" /><path clip-path="url(#clip910)" d="M294.9 1426.09 L294.9 1430.07 Q293.094 1429.08 291.265 1428.59 Q289.46 1428.08 287.608 1428.08 Q283.465 1428.08 281.173 1430.72 Q278.881 1433.33 278.881 1438.08 Q278.881 1442.83 281.173 1445.46 Q283.465 1448.08 287.608 1448.08 Q289.46 1448.08 291.265 1447.59 Q293.094 1447.08 294.9 1446.09 L294.9 1450.02 Q293.117 1450.86 291.196 1451.27 Q289.298 1451.69 287.145 1451.69 Q281.289 1451.69 277.84 1448.01 Q274.391 1444.33 274.391 1438.08 Q274.391 1431.74 277.863 1428.1 Q281.358 1424.47 287.423 1424.47 Q289.39 1424.47 291.265 1424.89 Q293.14 1425.28 294.9 1426.09 Z" fill="#000000" fill-rule="nonzero" fill-opacity="1" /><path clip-path="url(#clip910)" d="M314.089 1437.99 Q308.927 1437.99 306.937 1439.17 Q304.946 1440.35 304.946 1443.2 Q304.946 1445.46 306.427 1446.81 Q307.932 1448.13 310.501 1448.13 Q314.043 1448.13 316.173 1445.63 Q318.326 1443.1 318.326 1438.94 L318.326 1437.99 L314.089 1437.99 M322.585 1436.23 L322.585 1451.02 L318.326 1451.02 L318.326 1447.08 Q316.867 1449.45 314.691 1450.58 Q312.515 1451.69 309.367 1451.69 Q305.386 1451.69 303.025 1449.47 Q300.687 1447.22 300.687 1443.47 Q300.687 1439.1 303.603 1436.88 Q306.543 1434.65 312.353 1434.65 L318.326 1434.65 L318.326 1434.24 Q318.326 1431.3 316.381 1429.7 Q314.46 1428.08 310.964 1428.08 Q308.742 1428.08 306.636 1428.61 Q304.529 1429.14 302.585 1430.21 L302.585 1426.27 Q304.923 1425.37 307.122 1424.93 Q309.321 1424.47 311.404 1424.47 Q317.029 1424.47 319.807 1427.39 Q322.585 1430.3 322.585 1436.23 Z" fill="#000000" fill-rule="nonzero" fill-opacity="1" /><path clip-path="url(#clip910)" d="M346.381 1429.08 Q345.663 1428.66 344.807 1428.47 Q343.974 1428.27 342.955 1428.27 Q339.344 1428.27 337.399 1430.63 Q335.478 1432.96 335.478 1437.36 L335.478 1451.02 L331.196 1451.02 L331.196 1425.09 L335.478 1425.09 L335.478 1429.12 Q336.821 1426.76 338.974 1425.63 Q341.126 1424.47 344.205 1424.47 Q344.645 1424.47 345.177 1424.54 Q345.71 1424.58 346.358 1424.7 L346.381 1429.08 Z" fill="#000000" fill-rule="nonzero" fill-opacity="1" /><path clip-path="url(#clip910)" d="M351.497 1416.46 L369.853 1416.46 L369.853 1420.4 L355.779 1420.4 L355.779 1428.87 Q356.798 1428.52 357.816 1428.36 Q358.835 1428.17 359.853 1428.17 Q365.64 1428.17 369.02 1431.34 Q372.399 1434.52 372.399 1439.93 Q372.399 1445.51 368.927 1448.61 Q365.455 1451.69 359.135 1451.69 Q356.96 1451.69 354.691 1451.32 Q352.446 1450.95 350.038 1450.21 L350.038 1445.51 Q352.122 1446.64 354.344 1447.2 Q356.566 1447.76 359.043 1447.76 Q363.047 1447.76 365.385 1445.65 Q367.723 1443.54 367.723 1439.93 Q367.723 1436.32 365.385 1434.21 Q363.047 1432.11 359.043 1432.11 Q357.168 1432.11 355.293 1432.52 Q353.441 1432.94 351.497 1433.82 L351.497 1416.46 Z" fill="#000000" fill-rule="nonzero" fill-opacity="1" /><path clip-path="url(#clip910)" d="M1195.58 1535.8 L1201.43 1535.8 L1201.43 1585.32 L1195.58 1585.32 L1195.58 1535.8 Z" fill="#000000" fill-rule="nonzero" fill-opacity="1" /><path clip-path="url(#clip910)" d="M1244.18 1566.04 L1244.18 1568.9 L1217.25 1568.9 Q1217.64 1574.95 1220.88 1578.13 Q1224.16 1581.28 1229.98 1581.28 Q1233.36 1581.28 1236.51 1580.45 Q1239.69 1579.63 1242.81 1577.97 L1242.81 1583.51 Q1239.66 1584.85 1236.35 1585.55 Q1233.04 1586.25 1229.63 1586.25 Q1221.1 1586.25 1216.11 1581.28 Q1211.14 1576.32 1211.14 1567.85 Q1211.14 1559.1 1215.85 1553.97 Q1220.6 1548.82 1228.62 1548.82 Q1235.81 1548.82 1239.98 1553.46 Q1244.18 1558.08 1244.18 1566.04 M1238.32 1564.32 Q1238.26 1559.51 1235.62 1556.65 Q1233.01 1553.78 1228.68 1553.78 Q1223.78 1553.78 1220.82 1556.55 Q1217.89 1559.32 1217.44 1564.35 L1238.32 1564.32 Z" fill="#000000" fill-rule="nonzero" fill-opacity="1" /><path clip-path="url(#clip910)" d="M1269.99 1567.4 Q1262.9 1567.4 1260.16 1569.03 Q1257.42 1570.65 1257.42 1574.57 Q1257.42 1577.68 1259.46 1579.53 Q1261.53 1581.35 1265.06 1581.35 Q1269.93 1581.35 1272.86 1577.91 Q1275.82 1574.44 1275.82 1568.71 L1275.82 1567.4 L1269.99 1567.4 M1281.67 1564.99 L1281.67 1585.32 L1275.82 1585.32 L1275.82 1579.91 Q1273.81 1583.16 1270.82 1584.72 Q1267.83 1586.25 1263.5 1586.25 Q1258.03 1586.25 1254.78 1583.19 Q1251.56 1580.1 1251.56 1574.95 Q1251.56 1568.93 1255.57 1565.88 Q1259.62 1562.82 1267.61 1562.82 L1275.82 1562.82 L1275.82 1562.25 Q1275.82 1558.21 1273.14 1556.01 Q1270.5 1553.78 1265.7 1553.78 Q1262.64 1553.78 1259.74 1554.51 Q1256.85 1555.25 1254.17 1556.71 L1254.17 1551.3 Q1257.39 1550.06 1260.41 1549.45 Q1263.44 1548.82 1266.3 1548.82 Q1274.04 1548.82 1277.85 1552.83 Q1281.67 1556.84 1281.67 1564.99 Z" fill="#000000" fill-rule="nonzero" fill-opacity="1" /><path clip-path="url(#clip910)" d="M1314.39 1555.15 Q1313.41 1554.58 1312.23 1554.32 Q1311.08 1554.04 1309.68 1554.04 Q1304.72 1554.04 1302.04 1557.28 Q1299.4 1560.5 1299.4 1566.55 L1299.4 1585.32 L1293.51 1585.32 L1293.51 1549.68 L1299.4 1549.68 L1299.4 1555.21 Q1301.25 1551.97 1304.21 1550.41 Q1307.17 1548.82 1311.4 1548.82 Q1312.01 1548.82 1312.74 1548.91 Q1313.47 1548.98 1314.36 1549.13 L1314.39 1555.15 Z" fill="#000000" fill-rule="nonzero" fill-opacity="1" /><path clip-path="url(#clip910)" d="M1349.02 1563.81 L1349.02 1585.32 L1343.17 1585.32 L1343.17 1564 Q1343.17 1558.94 1341.19 1556.42 Q1339.22 1553.91 1335.27 1553.91 Q1330.53 1553.91 1327.79 1556.93 Q1325.06 1559.96 1325.06 1565.18 L1325.06 1585.32 L1319.17 1585.32 L1319.17 1549.68 L1325.06 1549.68 L1325.06 1555.21 Q1327.16 1552 1329.99 1550.41 Q1332.85 1548.82 1336.58 1548.82 Q1342.72 1548.82 1345.87 1552.64 Q1349.02 1556.42 1349.02 1563.81 Z" fill="#000000" fill-rule="nonzero" fill-opacity="1" /><path clip-path="url(#clip910)" d="M1391.2 1566.04 L1391.2 1568.9 L1364.27 1568.9 Q1364.65 1574.95 1367.9 1578.13 Q1371.18 1581.28 1377 1581.28 Q1380.37 1581.28 1383.53 1580.45 Q1386.71 1579.63 1389.83 1577.97 L1389.83 1583.51 Q1386.68 1584.85 1383.37 1585.55 Q1380.06 1586.25 1376.65 1586.25 Q1368.12 1586.25 1363.12 1581.28 Q1358.16 1576.32 1358.16 1567.85 Q1358.16 1559.1 1362.87 1553.97 Q1367.61 1548.82 1375.63 1548.82 Q1382.83 1548.82 1386.99 1553.46 Q1391.2 1558.08 1391.2 1566.04 M1385.34 1564.32 Q1385.28 1559.51 1382.63 1556.65 Q1380.02 1553.78 1375.7 1553.78 Q1370.79 1553.78 1367.83 1556.55 Q1364.91 1559.32 1364.46 1564.35 L1385.34 1564.32 Z" fill="#000000" fill-rule="nonzero" fill-opacity="1" /><path clip-path="url(#clip910)" d="M1421.47 1555.15 Q1420.48 1554.58 1419.3 1554.32 Q1418.15 1554.04 1416.75 1554.04 Q1411.79 1554.04 1409.12 1557.28 Q1406.47 1560.5 1406.47 1566.55 L1406.47 1585.32 L1400.59 1585.32 L1400.59 1549.68 L1406.47 1549.68 L1406.47 1555.21 Q1408.32 1551.97 1411.28 1550.41 Q1414.24 1548.82 1418.47 1548.82 Q1419.08 1548.82 1419.81 1548.91 Q1420.54 1548.98 1421.43 1549.13 L1421.47 1555.15 Z" fill="#000000" fill-rule="nonzero" fill-opacity="1" /><polyline clip-path="url(#clip912)" style="stroke:#000000; stroke-linecap:round; stroke-linejoin:round; stroke-width:2; stroke-opacity:0.1; fill:none" points="2352.76,1307.47 264.287,1307.47 "/>
<polyline clip-path="url(#clip912)" style="stroke:#000000; stroke-linecap:round; stroke-linejoin:round; stroke-width:2; stroke-opacity:0.1; fill:none" points="2352.76,1093.89 264.287,1093.89 "/>
<polyline clip-path="url(#clip912)" style="stroke:#000000; stroke-linecap:round; stroke-linejoin:round; stroke-width:2; stroke-opacity:0.1; fill:none" points="2352.76,880.313 264.287,880.313 "/>
<polyline clip-path="url(#clip912)" style="stroke:#000000; stroke-linecap:round; stroke-linejoin:round; stroke-width:2; stroke-opacity:0.1; fill:none" points="2352.76,666.732 264.287,666.732 "/>
<polyline clip-path="url(#clip912)" style="stroke:#000000; stroke-linecap:round; stroke-linejoin:round; stroke-width:2; stroke-opacity:0.1; fill:none" points="2352.76,453.152 264.287,453.152 "/>
<polyline clip-path="url(#clip910)" style="stroke:#000000; stroke-linecap:round; stroke-linejoin:round; stroke-width:4; stroke-opacity:1; fill:none" points="264.287,1388.62 264.287,299.317 "/>
<polyline clip-path="url(#clip910)" style="stroke:#000000; stroke-linecap:round; stroke-linejoin:round; stroke-width:4; stroke-opacity:1; fill:none" points="264.287,1307.47 283.185,1307.47 "/>
<polyline clip-path="url(#clip910)" style="stroke:#000000; stroke-linecap:round; stroke-linejoin:round; stroke-width:4; stroke-opacity:1; fill:none" points="264.287,1093.89 283.185,1093.89 "/>
<polyline clip-path="url(#clip910)" style="stroke:#000000; stroke-linecap:round; stroke-linejoin:round; stroke-width:4; stroke-opacity:1; fill:none" points="264.287,880.313 283.185,880.313 "/>
<polyline clip-path="url(#clip910)" style="stroke:#000000; stroke-linecap:round; stroke-linejoin:round; stroke-width:4; stroke-opacity:1; fill:none" points="264.287,666.732 283.185,666.732 "/>
<polyline clip-path="url(#clip910)" style="stroke:#000000; stroke-linecap:round; stroke-linejoin:round; stroke-width:4; stroke-opacity:1; fill:none" points="264.287,453.152 283.185,453.152 "/>
<path clip-path="url(#clip910)" d="M119.885 1320.82 L136.204 1320.82 L136.204 1324.75 L114.26 1324.75 L114.26 1320.82 Q116.922 1318.06 121.505 1313.43 Q126.112 1308.78 127.292 1307.44 Q129.538 1304.92 130.417 1303.18 Q131.32 1301.42 131.32 1299.73 Q131.32 1296.98 129.376 1295.24 Q127.455 1293.5 124.353 1293.5 Q122.154 1293.5 119.7 1294.27 Q117.269 1295.03 114.492 1296.58 L114.492 1291.86 Q117.316 1290.73 119.769 1290.15 Q122.223 1289.57 124.26 1289.57 Q129.63 1289.57 132.825 1292.25 Q136.019 1294.94 136.019 1299.43 Q136.019 1301.56 135.209 1303.48 Q134.422 1305.38 132.316 1307.97 Q131.737 1308.64 128.635 1311.86 Q125.533 1315.05 119.885 1320.82 Z" fill="#000000" fill-rule="nonzero" fill-opacity="1" /><path clip-path="url(#clip910)" d="M158.866 1294.27 L147.061 1312.72 L158.866 1312.72 L158.866 1294.27 M157.64 1290.19 L163.519 1290.19 L163.519 1312.72 L168.45 1312.72 L168.45 1316.61 L163.519 1316.61 L163.519 1324.75 L158.866 1324.75 L158.866 1316.61 L143.265 1316.61 L143.265 1312.09 L157.64 1290.19 Z" fill="#000000" fill-rule="nonzero" fill-opacity="1" /><path clip-path="url(#clip910)" d="M186.181 1293.27 Q182.57 1293.27 180.741 1296.84 Q178.936 1300.38 178.936 1307.51 Q178.936 1314.61 180.741 1318.18 Q182.57 1321.72 186.181 1321.72 Q189.815 1321.72 191.621 1318.18 Q193.45 1314.61 193.45 1307.51 Q193.45 1300.38 191.621 1296.84 Q189.815 1293.27 186.181 1293.27 M186.181 1289.57 Q191.991 1289.57 195.047 1294.17 Q198.125 1298.76 198.125 1307.51 Q198.125 1316.24 195.047 1320.84 Q191.991 1325.42 186.181 1325.42 Q180.371 1325.42 177.292 1320.84 Q174.237 1316.24 174.237 1307.51 Q174.237 1298.76 177.292 1294.17 Q180.371 1289.57 186.181 1289.57 Z" fill="#000000" fill-rule="nonzero" fill-opacity="1" /><path clip-path="url(#clip910)" d="M216.343 1293.27 Q212.732 1293.27 210.903 1296.84 Q209.098 1300.38 209.098 1307.51 Q209.098 1314.61 210.903 1318.18 Q212.732 1321.72 216.343 1321.72 Q219.977 1321.72 221.783 1318.18 Q223.611 1314.61 223.611 1307.51 Q223.611 1300.38 221.783 1296.84 Q219.977 1293.27 216.343 1293.27 M216.343 1289.57 Q222.153 1289.57 225.209 1294.17 Q228.287 1298.76 228.287 1307.51 Q228.287 1316.24 225.209 1320.84 Q222.153 1325.42 216.343 1325.42 Q210.533 1325.42 207.454 1320.84 Q204.399 1316.24 204.399 1307.51 Q204.399 1298.76 207.454 1294.17 Q210.533 1289.57 216.343 1289.57 Z" fill="#000000" fill-rule="nonzero" fill-opacity="1" /><path clip-path="url(#clip910)" d="M119.885 1107.24 L136.204 1107.24 L136.204 1111.17 L114.26 1111.17 L114.26 1107.24 Q116.922 1104.48 121.505 1099.85 Q126.112 1095.2 127.292 1093.86 Q129.538 1091.34 130.417 1089.6 Q131.32 1087.84 131.32 1086.15 Q131.32 1083.4 129.376 1081.66 Q127.455 1079.92 124.353 1079.92 Q122.154 1079.92 119.7 1080.69 Q117.269 1081.45 114.492 1083 L114.492 1078.28 Q117.316 1077.15 119.769 1076.57 Q122.223 1075.99 124.26 1075.99 Q129.63 1075.99 132.825 1078.67 Q136.019 1081.36 136.019 1085.85 Q136.019 1087.98 135.209 1089.9 Q134.422 1091.8 132.316 1094.39 Q131.737 1095.06 128.635 1098.28 Q125.533 1101.47 119.885 1107.24 Z" fill="#000000" fill-rule="nonzero" fill-opacity="1" /><path clip-path="url(#clip910)" d="M144.839 1076.61 L167.061 1076.61 L167.061 1078.6 L154.515 1111.17 L149.63 1111.17 L161.436 1080.55 L144.839 1080.55 L144.839 1076.61 Z" fill="#000000" fill-rule="nonzero" fill-opacity="1" /><path clip-path="url(#clip910)" d="M186.181 1079.69 Q182.57 1079.69 180.741 1083.26 Q178.936 1086.8 178.936 1093.93 Q178.936 1101.03 180.741 1104.6 Q182.57 1108.14 186.181 1108.14 Q189.815 1108.14 191.621 1104.6 Q193.45 1101.03 193.45 1093.93 Q193.45 1086.8 191.621 1083.26 Q189.815 1079.69 186.181 1079.69 M186.181 1075.99 Q191.991 1075.99 195.047 1080.59 Q198.125 1085.18 198.125 1093.93 Q198.125 1102.65 195.047 1107.26 Q191.991 1111.84 186.181 1111.84 Q180.371 1111.84 177.292 1107.26 Q174.237 1102.65 174.237 1093.93 Q174.237 1085.18 177.292 1080.59 Q180.371 1075.99 186.181 1075.99 Z" fill="#000000" fill-rule="nonzero" fill-opacity="1" /><path clip-path="url(#clip910)" d="M216.343 1079.69 Q212.732 1079.69 210.903 1083.26 Q209.098 1086.8 209.098 1093.93 Q209.098 1101.03 210.903 1104.6 Q212.732 1108.14 216.343 1108.14 Q219.977 1108.14 221.783 1104.6 Q223.611 1101.03 223.611 1093.93 Q223.611 1086.8 221.783 1083.26 Q219.977 1079.69 216.343 1079.69 M216.343 1075.99 Q222.153 1075.99 225.209 1080.59 Q228.287 1085.18 228.287 1093.93 Q228.287 1102.65 225.209 1107.26 Q222.153 1111.84 216.343 1111.84 Q210.533 1111.84 207.454 1107.26 Q204.399 1102.65 204.399 1093.93 Q204.399 1085.18 207.454 1080.59 Q210.533 1075.99 216.343 1075.99 Z" fill="#000000" fill-rule="nonzero" fill-opacity="1" /><path clip-path="url(#clip910)" d="M130.024 878.958 Q133.38 879.676 135.255 881.944 Q137.154 884.213 137.154 887.546 Q137.154 892.662 133.635 895.463 Q130.117 898.264 123.635 898.264 Q121.459 898.264 119.144 897.824 Q116.853 897.407 114.399 896.551 L114.399 892.037 Q116.343 893.171 118.658 893.75 Q120.973 894.329 123.496 894.329 Q127.894 894.329 130.186 892.593 Q132.501 890.856 132.501 887.546 Q132.501 884.491 130.348 882.778 Q128.218 881.042 124.399 881.042 L120.371 881.042 L120.371 877.199 L124.584 877.199 Q128.033 877.199 129.862 875.833 Q131.691 874.444 131.691 871.852 Q131.691 869.19 129.792 867.778 Q127.917 866.343 124.399 866.343 Q122.478 866.343 120.279 866.759 Q118.08 867.176 115.441 868.056 L115.441 863.889 Q118.103 863.148 120.418 862.778 Q122.755 862.408 124.816 862.408 Q130.14 862.408 133.242 864.838 Q136.343 867.245 136.343 871.366 Q136.343 874.236 134.7 876.227 Q133.056 878.194 130.024 878.958 Z" fill="#000000" fill-rule="nonzero" fill-opacity="1" /><path clip-path="url(#clip910)" d="M156.019 866.111 Q152.408 866.111 150.579 869.676 Q148.774 873.218 148.774 880.347 Q148.774 887.454 150.579 891.018 Q152.408 894.56 156.019 894.56 Q159.653 894.56 161.459 891.018 Q163.288 887.454 163.288 880.347 Q163.288 873.218 161.459 869.676 Q159.653 866.111 156.019 866.111 M156.019 862.408 Q161.829 862.408 164.885 867.014 Q167.964 871.597 167.964 880.347 Q167.964 889.074 164.885 893.68 Q161.829 898.264 156.019 898.264 Q150.209 898.264 147.13 893.68 Q144.075 889.074 144.075 880.347 Q144.075 871.597 147.13 867.014 Q150.209 862.408 156.019 862.408 Z" fill="#000000" fill-rule="nonzero" fill-opacity="1" /><path clip-path="url(#clip910)" d="M186.181 866.111 Q182.57 866.111 180.741 869.676 Q178.936 873.218 178.936 880.347 Q178.936 887.454 180.741 891.018 Q182.57 894.56 186.181 894.56 Q189.815 894.56 191.621 891.018 Q193.45 887.454 193.45 880.347 Q193.45 873.218 191.621 869.676 Q189.815 866.111 186.181 866.111 M186.181 862.408 Q191.991 862.408 195.047 867.014 Q198.125 871.597 198.125 880.347 Q198.125 889.074 195.047 893.68 Q191.991 898.264 186.181 898.264 Q180.371 898.264 177.292 893.68 Q174.237 889.074 174.237 880.347 Q174.237 871.597 177.292 867.014 Q180.371 862.408 186.181 862.408 Z" fill="#000000" fill-rule="nonzero" fill-opacity="1" /><path clip-path="url(#clip910)" d="M216.343 866.111 Q212.732 866.111 210.903 869.676 Q209.098 873.218 209.098 880.347 Q209.098 887.454 210.903 891.018 Q212.732 894.56 216.343 894.56 Q219.977 894.56 221.783 891.018 Q223.611 887.454 223.611 880.347 Q223.611 873.218 221.783 869.676 Q219.977 866.111 216.343 866.111 M216.343 862.408 Q222.153 862.408 225.209 867.014 Q228.287 871.597 228.287 880.347 Q228.287 889.074 225.209 893.68 Q222.153 898.264 216.343 898.264 Q210.533 898.264 207.454 893.68 Q204.399 889.074 204.399 880.347 Q204.399 871.597 207.454 867.014 Q210.533 862.408 216.343 862.408 Z" fill="#000000" fill-rule="nonzero" fill-opacity="1" /><path clip-path="url(#clip910)" d="M130.024 665.378 Q133.38 666.095 135.255 668.364 Q137.154 670.632 137.154 673.966 Q137.154 679.081 133.635 681.882 Q130.117 684.683 123.635 684.683 Q121.459 684.683 119.144 684.243 Q116.853 683.827 114.399 682.97 L114.399 678.456 Q116.343 679.591 118.658 680.169 Q120.973 680.748 123.496 680.748 Q127.894 680.748 130.186 679.012 Q132.501 677.276 132.501 673.966 Q132.501 670.91 130.348 669.197 Q128.218 667.461 124.399 667.461 L120.371 667.461 L120.371 663.619 L124.584 663.619 Q128.033 663.619 129.862 662.253 Q131.691 660.864 131.691 658.271 Q131.691 655.609 129.792 654.197 Q127.917 652.762 124.399 652.762 Q122.478 652.762 120.279 653.179 Q118.08 653.596 115.441 654.475 L115.441 650.308 Q118.103 649.568 120.418 649.197 Q122.755 648.827 124.816 648.827 Q130.14 648.827 133.242 651.258 Q136.343 653.665 136.343 657.785 Q136.343 660.656 134.7 662.646 Q133.056 664.614 130.024 665.378 Z" fill="#000000" fill-rule="nonzero" fill-opacity="1" /><path clip-path="url(#clip910)" d="M160.186 665.378 Q163.542 666.095 165.417 668.364 Q167.315 670.632 167.315 673.966 Q167.315 679.081 163.797 681.882 Q160.278 684.683 153.797 684.683 Q151.621 684.683 149.306 684.243 Q147.015 683.827 144.561 682.97 L144.561 678.456 Q146.505 679.591 148.82 680.169 Q151.135 680.748 153.658 680.748 Q158.056 680.748 160.348 679.012 Q162.663 677.276 162.663 673.966 Q162.663 670.91 160.51 669.197 Q158.38 667.461 154.561 667.461 L150.533 667.461 L150.533 663.619 L154.746 663.619 Q158.195 663.619 160.024 662.253 Q161.852 660.864 161.852 658.271 Q161.852 655.609 159.954 654.197 Q158.079 652.762 154.561 652.762 Q152.64 652.762 150.441 653.179 Q148.241 653.596 145.603 654.475 L145.603 650.308 Q148.265 649.568 150.579 649.197 Q152.917 648.827 154.978 648.827 Q160.302 648.827 163.403 651.258 Q166.505 653.665 166.505 657.785 Q166.505 660.656 164.862 662.646 Q163.218 664.614 160.186 665.378 Z" fill="#000000" fill-rule="nonzero" fill-opacity="1" /><path clip-path="url(#clip910)" d="M186.181 652.531 Q182.57 652.531 180.741 656.096 Q178.936 659.637 178.936 666.767 Q178.936 673.873 180.741 677.438 Q182.57 680.98 186.181 680.98 Q189.815 680.98 191.621 677.438 Q193.45 673.873 193.45 666.767 Q193.45 659.637 191.621 656.096 Q189.815 652.531 186.181 652.531 M186.181 648.827 Q191.991 648.827 195.047 653.433 Q198.125 658.017 198.125 666.767 Q198.125 675.494 195.047 680.1 Q191.991 684.683 186.181 684.683 Q180.371 684.683 177.292 680.1 Q174.237 675.494 174.237 666.767 Q174.237 658.017 177.292 653.433 Q180.371 648.827 186.181 648.827 Z" fill="#000000" fill-rule="nonzero" fill-opacity="1" /><path clip-path="url(#clip910)" d="M216.343 652.531 Q212.732 652.531 210.903 656.096 Q209.098 659.637 209.098 666.767 Q209.098 673.873 210.903 677.438 Q212.732 680.98 216.343 680.98 Q219.977 680.98 221.783 677.438 Q223.611 673.873 223.611 666.767 Q223.611 659.637 221.783 656.096 Q219.977 652.531 216.343 652.531 M216.343 648.827 Q222.153 648.827 225.209 653.433 Q228.287 658.017 228.287 666.767 Q228.287 675.494 225.209 680.1 Q222.153 684.683 216.343 684.683 Q210.533 684.683 207.454 680.1 Q204.399 675.494 204.399 666.767 Q204.399 658.017 207.454 653.433 Q210.533 648.827 216.343 648.827 Z" fill="#000000" fill-rule="nonzero" fill-opacity="1" /><path clip-path="url(#clip910)" d="M130.024 451.797 Q133.38 452.515 135.255 454.783 Q137.154 457.052 137.154 460.385 Q137.154 465.501 133.635 468.302 Q130.117 471.103 123.635 471.103 Q121.459 471.103 119.144 470.663 Q116.853 470.246 114.399 469.39 L114.399 464.876 Q116.343 466.01 118.658 466.589 Q120.973 467.168 123.496 467.168 Q127.894 467.168 130.186 465.432 Q132.501 463.695 132.501 460.385 Q132.501 457.33 130.348 455.617 Q128.218 453.881 124.399 453.881 L120.371 453.881 L120.371 450.038 L124.584 450.038 Q128.033 450.038 129.862 448.672 Q131.691 447.284 131.691 444.691 Q131.691 442.029 129.792 440.617 Q127.917 439.182 124.399 439.182 Q122.478 439.182 120.279 439.598 Q118.08 440.015 115.441 440.895 L115.441 436.728 Q118.103 435.987 120.418 435.617 Q122.755 435.247 124.816 435.247 Q130.14 435.247 133.242 437.677 Q136.343 440.084 136.343 444.205 Q136.343 447.075 134.7 449.066 Q133.056 451.033 130.024 451.797 Z" fill="#000000" fill-rule="nonzero" fill-opacity="1" /><path clip-path="url(#clip910)" d="M156.598 451.288 Q153.45 451.288 151.598 453.441 Q149.769 455.594 149.769 459.344 Q149.769 463.07 151.598 465.246 Q153.45 467.399 156.598 467.399 Q159.746 467.399 161.575 465.246 Q163.427 463.07 163.427 459.344 Q163.427 455.594 161.575 453.441 Q159.746 451.288 156.598 451.288 M165.88 436.635 L165.88 440.895 Q164.121 440.061 162.315 439.622 Q160.533 439.182 158.774 439.182 Q154.144 439.182 151.691 442.307 Q149.26 445.432 148.913 451.751 Q150.278 449.737 152.339 448.672 Q154.399 447.584 156.876 447.584 Q162.084 447.584 165.093 450.756 Q168.126 453.904 168.126 459.344 Q168.126 464.668 164.977 467.885 Q161.829 471.103 156.598 471.103 Q150.603 471.103 147.431 466.52 Q144.26 461.913 144.26 453.186 Q144.26 444.992 148.149 440.131 Q152.038 435.247 158.589 435.247 Q160.348 435.247 162.13 435.594 Q163.936 435.941 165.88 436.635 Z" fill="#000000" fill-rule="nonzero" fill-opacity="1" /><path clip-path="url(#clip910)" d="M186.181 438.95 Q182.57 438.95 180.741 442.515 Q178.936 446.057 178.936 453.186 Q178.936 460.293 180.741 463.857 Q182.57 467.399 186.181 467.399 Q189.815 467.399 191.621 463.857 Q193.45 460.293 193.45 453.186 Q193.45 446.057 191.621 442.515 Q189.815 438.95 186.181 438.95 M186.181 435.247 Q191.991 435.247 195.047 439.853 Q198.125 444.436 198.125 453.186 Q198.125 461.913 195.047 466.52 Q191.991 471.103 186.181 471.103 Q180.371 471.103 177.292 466.52 Q174.237 461.913 174.237 453.186 Q174.237 444.436 177.292 439.853 Q180.371 435.247 186.181 435.247 Z" fill="#000000" fill-rule="nonzero" fill-opacity="1" /><path clip-path="url(#clip910)" d="M216.343 438.95 Q212.732 438.95 210.903 442.515 Q209.098 446.057 209.098 453.186 Q209.098 460.293 210.903 463.857 Q212.732 467.399 216.343 467.399 Q219.977 467.399 221.783 463.857 Q223.611 460.293 223.611 453.186 Q223.611 446.057 221.783 442.515 Q219.977 438.95 216.343 438.95 M216.343 435.247 Q222.153 435.247 225.209 439.853 Q228.287 444.436 228.287 453.186 Q228.287 461.913 225.209 466.52 Q222.153 471.103 216.343 471.103 Q210.533 471.103 207.454 466.52 Q204.399 461.913 204.399 453.186 Q204.399 444.436 207.454 439.853 Q210.533 435.247 216.343 435.247 Z" fill="#000000" fill-rule="nonzero" fill-opacity="1" /><path clip-path="url(#clip910)" d="M58.657 1042.12 L77.5631 1042.12 L77.5631 1048.01 L28.3562 1048.01 L28.3562 1042.12 L33.7671 1042.12 Q30.5842 1040.27 29.0564 1037.47 Q27.4968 1034.64 27.4968 1030.72 Q27.4968 1024.23 32.6531 1020.19 Q37.8093 1016.11 46.212 1016.11 Q54.6147 1016.11 59.771 1020.19 Q64.9272 1024.23 64.9272 1030.72 Q64.9272 1034.64 63.3994 1037.47 Q61.8398 1040.27 58.657 1042.12 M46.212 1022.19 Q39.7508 1022.19 36.0905 1024.87 Q32.3984 1027.51 32.3984 1032.15 Q32.3984 1036.8 36.0905 1039.47 Q39.7508 1042.12 46.212 1042.12 Q52.6732 1042.12 56.3653 1039.47 Q60.0256 1036.8 60.0256 1032.15 Q60.0256 1027.51 56.3653 1024.87 Q52.6732 1022.19 46.212 1022.19 Z" fill="#000000" fill-rule="nonzero" fill-opacity="1" /><path clip-path="url(#clip910)" d="M44.7161 975.913 L47.5806 975.913 L47.5806 1002.84 Q53.6281 1002.46 56.8109 999.212 Q59.9619 995.934 59.9619 990.109 Q59.9619 986.735 59.1344 983.584 Q58.3069 980.401 56.6518 977.282 L62.1899 977.282 Q63.5267 980.433 64.227 983.743 Q64.9272 987.053 64.9272 990.459 Q64.9272 998.989 59.9619 1003.99 Q54.9967 1008.95 46.5303 1008.95 Q37.7774 1008.95 32.6531 1004.24 Q27.4968 999.498 27.4968 991.478 Q27.4968 984.284 32.1438 980.115 Q36.7589 975.913 44.7161 975.913 M42.9973 981.77 Q38.1912 981.834 35.3266 984.475 Q32.4621 987.085 32.4621 991.414 Q32.4621 996.316 35.2312 999.276 Q38.0002 1002.2 43.0292 1002.65 L42.9973 981.77 Z" fill="#000000" fill-rule="nonzero" fill-opacity="1" /><path clip-path="url(#clip910)" d="M33.8307 945.644 Q33.2578 946.631 33.0032 947.809 Q32.7167 948.955 32.7167 950.355 Q32.7167 955.32 35.9632 957.994 Q39.1779 960.636 45.2253 960.636 L64.0042 960.636 L64.0042 966.524 L28.3562 966.524 L28.3562 960.636 L33.8944 960.636 Q30.6479 958.79 29.0883 955.83 Q27.4968 952.87 27.4968 948.636 Q27.4968 948.032 27.5923 947.3 Q27.656 946.568 27.8151 945.676 L33.8307 945.644 Z" fill="#000000" fill-rule="nonzero" fill-opacity="1" /><path clip-path="url(#clip910)" d="M14.479 921.455 L19.3487 921.455 L19.3487 927.057 Q19.3487 930.208 20.6219 931.449 Q21.895 932.658 25.2052 932.658 L28.3562 932.658 L28.3562 923.014 L32.9077 923.014 L32.9077 932.658 L64.0042 932.658 L64.0042 938.547 L32.9077 938.547 L32.9077 944.149 L28.3562 944.149 L28.3562 938.547 L25.8736 938.547 Q19.9216 938.547 17.2162 935.778 Q14.479 933.009 14.479 926.993 L14.479 921.455 Z" fill="#000000" fill-rule="nonzero" fill-opacity="1" /><path clip-path="url(#clip910)" d="M32.4621 902.74 Q32.4621 907.45 36.1542 910.187 Q39.8145 912.925 46.212 912.925 Q52.6095 912.925 56.3017 910.219 Q59.9619 907.482 59.9619 902.74 Q59.9619 898.061 56.2698 895.324 Q52.5777 892.586 46.212 892.586 Q39.8781 892.586 36.186 895.324 Q32.4621 898.061 32.4621 902.74 M27.4968 902.74 Q27.4968 895.101 32.4621 890.74 Q37.4273 886.38 46.212 886.38 Q54.9649 886.38 59.9619 890.74 Q64.9272 895.101 64.9272 902.74 Q64.9272 910.41 59.9619 914.771 Q54.9649 919.099 46.212 919.099 Q37.4273 919.099 32.4621 914.771 Q27.4968 910.41 27.4968 902.74 Z" fill="#000000" fill-rule="nonzero" fill-opacity="1" /><path clip-path="url(#clip910)" d="M33.8307 856.015 Q33.2578 857.002 33.0032 858.18 Q32.7167 859.325 32.7167 860.726 Q32.7167 865.691 35.9632 868.365 Q39.1779 871.007 45.2253 871.007 L64.0042 871.007 L64.0042 876.895 L28.3562 876.895 L28.3562 871.007 L33.8944 871.007 Q30.6479 869.161 29.0883 866.2 Q27.4968 863.24 27.4968 859.007 Q27.4968 858.402 27.5923 857.67 Q27.656 856.938 27.8151 856.047 L33.8307 856.015 Z" fill="#000000" fill-rule="nonzero" fill-opacity="1" /><path clip-path="url(#clip910)" d="M35.1993 823.264 Q31.2526 821.068 29.3747 818.012 Q27.4968 814.957 27.4968 810.819 Q27.4968 805.249 31.4117 802.225 Q35.2948 799.201 42.4881 799.201 L64.0042 799.201 L64.0042 805.09 L42.679 805.09 Q37.5546 805.09 35.072 806.904 Q32.5894 808.718 32.5894 812.442 Q32.5894 816.994 35.6131 819.635 Q38.6368 822.277 43.8567 822.277 L64.0042 822.277 L64.0042 828.165 L42.679 828.165 Q37.5228 828.165 35.072 829.98 Q32.5894 831.794 32.5894 835.581 Q32.5894 840.069 35.6449 842.711 Q38.6686 845.353 43.8567 845.353 L64.0042 845.353 L64.0042 851.241 L28.3562 851.241 L28.3562 845.353 L33.8944 845.353 Q30.616 843.348 29.0564 840.547 Q27.4968 837.746 27.4968 833.895 Q27.4968 830.011 29.4702 827.306 Q31.4436 824.569 35.1993 823.264 Z" fill="#000000" fill-rule="nonzero" fill-opacity="1" /><path clip-path="url(#clip910)" d="M46.0847 771.32 Q46.0847 778.417 47.7079 781.155 Q49.3312 783.892 53.2461 783.892 Q56.3653 783.892 58.2114 781.855 Q60.0256 779.786 60.0256 776.253 Q60.0256 771.383 56.5881 768.455 Q53.1188 765.495 47.3897 765.495 L46.0847 765.495 L46.0847 771.32 M43.6657 759.639 L64.0042 759.639 L64.0042 765.495 L58.5933 765.495 Q61.8398 767.5 63.3994 770.492 Q64.9272 773.484 64.9272 777.813 Q64.9272 783.287 61.8716 786.534 Q58.7843 789.748 53.6281 789.748 Q47.6125 789.748 44.5569 785.738 Q41.5014 781.696 41.5014 773.707 L41.5014 765.495 L40.9285 765.495 Q36.8862 765.495 34.6901 768.169 Q32.4621 770.81 32.4621 775.616 Q32.4621 778.672 33.1941 781.568 Q33.9262 784.465 35.3903 787.138 L29.9795 787.138 Q28.7381 783.924 28.1334 780.9 Q27.4968 777.876 27.4968 775.012 Q27.4968 767.277 31.5072 763.458 Q35.5176 759.639 43.6657 759.639 Z" fill="#000000" fill-rule="nonzero" fill-opacity="1" /><path clip-path="url(#clip910)" d="M42.4881 717.943 L64.0042 717.943 L64.0042 723.8 L42.679 723.8 Q37.6183 723.8 35.1038 725.773 Q32.5894 727.746 32.5894 731.693 Q32.5894 736.436 35.6131 739.173 Q38.6368 741.91 43.8567 741.91 L64.0042 741.91 L64.0042 747.798 L28.3562 747.798 L28.3562 741.91 L33.8944 741.91 Q30.6797 739.809 29.0883 736.977 Q27.4968 734.112 27.4968 730.388 Q27.4968 724.245 31.3163 721.094 Q35.1038 717.943 42.4881 717.943 Z" fill="#000000" fill-rule="nonzero" fill-opacity="1" /><path clip-path="url(#clip910)" d="M29.7248 680.608 L35.1993 680.608 Q33.8307 683.091 33.1623 685.605 Q32.4621 688.088 32.4621 690.634 Q32.4621 696.332 36.0905 699.483 Q39.6872 702.634 46.212 702.634 Q52.7369 702.634 56.3653 699.483 Q59.9619 696.332 59.9619 690.634 Q59.9619 688.088 59.2935 685.605 Q58.5933 683.091 57.2247 680.608 L62.6355 680.608 Q63.7814 683.059 64.3543 685.701 Q64.9272 688.311 64.9272 691.271 Q64.9272 699.323 59.8664 704.066 Q54.8057 708.808 46.212 708.808 Q37.491 708.808 32.4939 704.034 Q27.4968 699.228 27.4968 690.889 Q27.4968 688.183 28.0697 685.605 Q28.6108 683.027 29.7248 680.608 Z" fill="#000000" fill-rule="nonzero" fill-opacity="1" /><path clip-path="url(#clip910)" d="M44.7161 639.931 L47.5806 639.931 L47.5806 666.858 Q53.6281 666.476 56.8109 663.23 Q59.9619 659.952 59.9619 654.127 Q59.9619 650.753 59.1344 647.602 Q58.3069 644.419 56.6518 641.3 L62.1899 641.3 Q63.5267 644.451 64.227 647.761 Q64.9272 651.071 64.9272 654.477 Q64.9272 663.007 59.9619 668.004 Q54.9967 672.969 46.5303 672.969 Q37.7774 672.969 32.6531 668.259 Q27.4968 663.516 27.4968 655.496 Q27.4968 648.302 32.1438 644.133 Q36.7589 639.931 44.7161 639.931 M42.9973 645.788 Q38.1912 645.852 35.3266 648.493 Q32.4621 651.103 32.4621 655.432 Q32.4621 660.334 35.2312 663.294 Q38.0002 666.222 43.0292 666.667 L42.9973 645.788 Z" fill="#000000" fill-rule="nonzero" fill-opacity="1" /><polyline clip-path="url(#clip912)" style="stroke:#2980b9; stroke-linecap:round; stroke-linejoin:round; stroke-width:8; stroke-opacity:1; fill:none" points="1899.6,1077.91 1505.55,1072.18 1111.5,928.318 717.446,754.312 323.395,828.901 "/>
<polyline clip-path="url(#clip912)" style="stroke:#16a085; stroke-linecap:round; stroke-linejoin:round; stroke-width:8; stroke-opacity:1; fill:none" points="1899.6,1189.07 1505.55,1061.43 1111.5,986.087 717.446,1007.23 323.395,844.972 "/>
<polyline clip-path="url(#clip912)" style="stroke:#8e44ad; stroke-linecap:round; stroke-linejoin:round; stroke-width:8; stroke-opacity:1; fill:none" points="1899.6,1175.33 1505.55,1117.85 1111.5,965.901 717.446,1041.62 323.395,837.411 "/>
<path clip-path="url(#clip910)" d="M938.347 254.604 L1678.7 254.604 L1678.7 47.2441 L938.347 47.2441  Z" fill="#ffffff" fill-rule="evenodd" fill-opacity="1"/>
<polyline clip-path="url(#clip910)" style="stroke:#000000; stroke-linecap:round; stroke-linejoin:round; stroke-width:4; stroke-opacity:1; fill:none" points="938.347,254.604 1678.7,254.604 1678.7,47.2441 938.347,47.2441 938.347,254.604 "/>
<polyline clip-path="url(#clip910)" style="stroke:#2980b9; stroke-linecap:round; stroke-linejoin:round; stroke-width:8; stroke-opacity:1; fill:none" points="961.553,99.0841 1100.78,99.0841 "/>
<path clip-path="url(#clip910)" d="M1131.4 83.0772 L1131.4 90.4383 L1140.17 90.4383 L1140.17 93.7485 L1131.4 93.7485 L1131.4 107.822 Q1131.4 110.994 1132.25 111.897 Q1133.13 112.799 1135.79 112.799 L1140.17 112.799 L1140.17 116.364 L1135.79 116.364 Q1130.86 116.364 1128.99 114.535 Q1127.11 112.684 1127.11 107.822 L1127.11 93.7485 L1123.99 93.7485 L1123.99 90.4383 L1127.11 90.4383 L1127.11 83.0772 L1131.4 83.0772 Z" fill="#000000" fill-rule="nonzero" fill-opacity="1" /><path clip-path="url(#clip910)" d="M1160.79 94.4198 Q1160.08 94.0031 1159.22 93.8179 Q1158.39 93.6096 1157.37 93.6096 Q1153.76 93.6096 1151.81 95.9707 Q1149.89 98.3086 1149.89 102.707 L1149.89 116.364 L1145.61 116.364 L1145.61 90.4383 L1149.89 90.4383 L1149.89 94.4661 Q1151.23 92.105 1153.39 90.9707 Q1155.54 89.8133 1158.62 89.8133 Q1159.06 89.8133 1159.59 89.8828 Q1160.12 89.9291 1160.77 90.0448 L1160.79 94.4198 Z" fill="#000000" fill-rule="nonzero" fill-opacity="1" /><path clip-path="url(#clip910)" d="M1177.04 103.332 Q1171.88 103.332 1169.89 104.512 Q1167.9 105.693 1167.9 108.54 Q1167.9 110.809 1169.38 112.151 Q1170.89 113.471 1173.46 113.471 Q1177 113.471 1179.13 110.971 Q1181.28 108.447 1181.28 104.281 L1181.28 103.332 L1177.04 103.332 M1185.54 101.573 L1185.54 116.364 L1181.28 116.364 L1181.28 112.429 Q1179.82 114.79 1177.65 115.924 Q1175.47 117.035 1172.32 117.035 Q1168.34 117.035 1165.98 114.813 Q1163.64 112.568 1163.64 108.818 Q1163.64 104.443 1166.56 102.221 Q1169.5 99.9984 1175.31 99.9984 L1181.28 99.9984 L1181.28 99.5818 Q1181.28 96.642 1179.34 95.0448 Q1177.41 93.4244 1173.92 93.4244 Q1171.7 93.4244 1169.59 93.9568 Q1167.48 94.4892 1165.54 95.554 L1165.54 91.6189 Q1167.88 90.7161 1170.08 90.2763 Q1172.28 89.8133 1174.36 89.8133 Q1179.98 89.8133 1182.76 92.73 Q1185.54 95.6466 1185.54 101.573 Z" fill="#000000" fill-rule="nonzero" fill-opacity="1" /><path clip-path="url(#clip910)" d="M1194.31 90.4383 L1198.57 90.4383 L1198.57 116.364 L1194.31 116.364 L1194.31 90.4383 M1194.31 80.3458 L1198.57 80.3458 L1198.57 85.7393 L1194.31 85.7393 L1194.31 80.3458 Z" fill="#000000" fill-rule="nonzero" fill-opacity="1" /><path clip-path="url(#clip910)" d="M1229.03 100.716 L1229.03 116.364 L1224.78 116.364 L1224.78 100.855 Q1224.78 97.1744 1223.34 95.3457 Q1221.91 93.517 1219.03 93.517 Q1215.59 93.517 1213.59 95.7161 Q1211.6 97.9151 1211.6 101.711 L1211.6 116.364 L1207.32 116.364 L1207.32 90.4383 L1211.6 90.4383 L1211.6 94.4661 Q1213.13 92.1281 1215.19 90.9707 Q1217.28 89.8133 1219.98 89.8133 Q1224.45 89.8133 1226.74 92.5911 Q1229.03 95.3457 1229.03 100.716 Z" fill="#000000" fill-rule="nonzero" fill-opacity="1" /><path clip-path="url(#clip910)" d="M1259.71 102.336 L1259.71 104.42 L1240.12 104.42 Q1240.4 108.818 1242.76 111.133 Q1245.15 113.424 1249.38 113.424 Q1251.84 113.424 1254.13 112.822 Q1256.44 112.221 1258.71 111.017 L1258.71 115.045 Q1256.42 116.017 1254.01 116.526 Q1251.6 117.035 1249.13 117.035 Q1242.92 117.035 1239.29 113.424 Q1235.68 109.813 1235.68 103.656 Q1235.68 97.2901 1239.1 93.5633 Q1242.55 89.8133 1248.39 89.8133 Q1253.62 89.8133 1256.65 93.1929 Q1259.71 96.5494 1259.71 102.336 M1255.45 101.086 Q1255.4 97.591 1253.48 95.5077 Q1251.58 93.4244 1248.43 93.4244 Q1244.87 93.4244 1242.72 95.4383 Q1240.59 97.4522 1240.26 101.11 L1255.45 101.086 Z" fill="#000000" fill-rule="nonzero" fill-opacity="1" /><path clip-path="url(#clip910)" d="M1283.76 94.3735 L1283.76 80.3458 L1288.02 80.3458 L1288.02 116.364 L1283.76 116.364 L1283.76 112.475 Q1282.41 114.79 1280.35 115.924 Q1278.32 117.035 1275.45 117.035 Q1270.75 117.035 1267.78 113.285 Q1264.84 109.535 1264.84 103.424 Q1264.84 97.3133 1267.78 93.5633 Q1270.75 89.8133 1275.45 89.8133 Q1278.32 89.8133 1280.35 90.9476 Q1282.41 92.0587 1283.76 94.3735 M1269.24 103.424 Q1269.24 108.123 1271.16 110.809 Q1273.11 113.471 1276.49 113.471 Q1279.87 113.471 1281.81 110.809 Q1283.76 108.123 1283.76 103.424 Q1283.76 98.7253 1281.81 96.0633 Q1279.87 93.3781 1276.49 93.3781 Q1273.11 93.3781 1271.16 96.0633 Q1269.24 98.7253 1269.24 103.424 Z" fill="#000000" fill-rule="nonzero" fill-opacity="1" /><path clip-path="url(#clip910)" d="M1324.98 80.3458 L1324.98 83.8874 L1320.91 83.8874 Q1318.62 83.8874 1317.71 84.8133 Q1316.84 85.7393 1316.84 88.1467 L1316.84 90.4383 L1323.85 90.4383 L1323.85 93.7485 L1316.84 93.7485 L1316.84 116.364 L1312.55 116.364 L1312.55 93.7485 L1308.48 93.7485 L1308.48 90.4383 L1312.55 90.4383 L1312.55 88.6328 Q1312.55 84.3041 1314.57 82.3365 Q1316.58 80.3458 1320.96 80.3458 L1324.98 80.3458 Z" fill="#000000" fill-rule="nonzero" fill-opacity="1" /><path clip-path="url(#clip910)" d="M1338.59 93.4244 Q1335.17 93.4244 1333.18 96.1096 Q1331.19 98.7716 1331.19 103.424 Q1331.19 108.077 1333.15 110.762 Q1335.15 113.424 1338.59 113.424 Q1342 113.424 1343.99 110.739 Q1345.98 108.054 1345.98 103.424 Q1345.98 98.8179 1343.99 96.1327 Q1342 93.4244 1338.59 93.4244 M1338.59 89.8133 Q1344.15 89.8133 1347.32 93.4244 Q1350.49 97.0355 1350.49 103.424 Q1350.49 109.79 1347.32 113.424 Q1344.15 117.035 1338.59 117.035 Q1333.02 117.035 1329.84 113.424 Q1326.7 109.79 1326.7 103.424 Q1326.7 97.0355 1329.84 93.4244 Q1333.02 89.8133 1338.59 89.8133 Z" fill="#000000" fill-rule="nonzero" fill-opacity="1" /><path clip-path="url(#clip910)" d="M1372.58 94.4198 Q1371.86 94.0031 1371 93.8179 Q1370.17 93.6096 1369.15 93.6096 Q1365.54 93.6096 1363.59 95.9707 Q1361.67 98.3086 1361.67 102.707 L1361.67 116.364 L1357.39 116.364 L1357.39 90.4383 L1361.67 90.4383 L1361.67 94.4661 Q1363.02 92.105 1365.17 90.9707 Q1367.32 89.8133 1370.4 89.8133 Q1370.84 89.8133 1371.37 89.8828 Q1371.9 89.9291 1372.55 90.0448 L1372.58 94.4198 Z" fill="#000000" fill-rule="nonzero" fill-opacity="1" /><path clip-path="url(#clip910)" d="M1392.76 81.8041 L1411.12 81.8041 L1411.12 85.7393 L1397.04 85.7393 L1397.04 94.2114 Q1398.06 93.8642 1399.08 93.7022 Q1400.1 93.517 1401.12 93.517 Q1406.9 93.517 1410.28 96.6883 Q1413.66 99.8596 1413.66 105.276 Q1413.66 110.855 1410.19 113.957 Q1406.72 117.035 1400.4 117.035 Q1398.22 117.035 1395.96 116.665 Q1393.71 116.295 1391.3 115.554 L1391.3 110.855 Q1393.39 111.989 1395.61 112.545 Q1397.83 113.1 1400.31 113.1 Q1404.31 113.1 1406.65 110.994 Q1408.99 108.887 1408.99 105.276 Q1408.99 101.665 1406.65 99.5586 Q1404.31 97.4522 1400.31 97.4522 Q1398.43 97.4522 1396.56 97.8688 Q1394.71 98.2855 1392.76 99.1651 L1392.76 81.8041 Z" fill="#000000" fill-rule="nonzero" fill-opacity="1" /><path clip-path="url(#clip910)" d="M1432.88 84.8828 Q1429.27 84.8828 1427.44 88.4476 Q1425.63 91.9892 1425.63 99.1188 Q1425.63 106.225 1427.44 109.79 Q1429.27 113.332 1432.88 113.332 Q1436.51 113.332 1438.32 109.79 Q1440.14 106.225 1440.14 99.1188 Q1440.14 91.9892 1438.32 88.4476 Q1436.51 84.8828 1432.88 84.8828 M1432.88 81.1791 Q1438.69 81.1791 1441.74 85.7856 Q1444.82 90.3689 1444.82 99.1188 Q1444.82 107.846 1441.74 112.452 Q1438.69 117.035 1432.88 117.035 Q1427.07 117.035 1423.99 112.452 Q1420.93 107.846 1420.93 99.1188 Q1420.93 90.3689 1423.99 85.7856 Q1427.07 81.1791 1432.88 81.1791 Z" fill="#000000" fill-rule="nonzero" fill-opacity="1" /><path clip-path="url(#clip910)" d="M1463.04 84.8828 Q1459.43 84.8828 1457.6 88.4476 Q1455.79 91.9892 1455.79 99.1188 Q1455.79 106.225 1457.6 109.79 Q1459.43 113.332 1463.04 113.332 Q1466.67 113.332 1468.48 109.79 Q1470.31 106.225 1470.31 99.1188 Q1470.31 91.9892 1468.48 88.4476 Q1466.67 84.8828 1463.04 84.8828 M1463.04 81.1791 Q1468.85 81.1791 1471.9 85.7856 Q1474.98 90.3689 1474.98 99.1188 Q1474.98 107.846 1471.9 112.452 Q1468.85 117.035 1463.04 117.035 Q1457.23 117.035 1454.15 112.452 Q1451.09 107.846 1451.09 99.1188 Q1451.09 90.3689 1454.15 85.7856 Q1457.23 81.1791 1463.04 81.1791 Z" fill="#000000" fill-rule="nonzero" fill-opacity="1" /><path clip-path="url(#clip910)" d="M1493.2 84.8828 Q1489.59 84.8828 1487.76 88.4476 Q1485.95 91.9892 1485.95 99.1188 Q1485.95 106.225 1487.76 109.79 Q1489.59 113.332 1493.2 113.332 Q1496.83 113.332 1498.64 109.79 Q1500.47 106.225 1500.47 99.1188 Q1500.47 91.9892 1498.64 88.4476 Q1496.83 84.8828 1493.2 84.8828 M1493.2 81.1791 Q1499.01 81.1791 1502.07 85.7856 Q1505.14 90.3689 1505.14 99.1188 Q1505.14 107.846 1502.07 112.452 Q1499.01 117.035 1493.2 117.035 Q1487.39 117.035 1484.31 112.452 Q1481.26 107.846 1481.26 99.1188 Q1481.26 90.3689 1484.31 85.7856 Q1487.39 81.1791 1493.2 81.1791 Z" fill="#000000" fill-rule="nonzero" fill-opacity="1" /><path clip-path="url(#clip910)" d="M1542.85 94.4198 Q1542.13 94.0031 1541.28 93.8179 Q1540.45 93.6096 1539.43 93.6096 Q1535.82 93.6096 1533.87 95.9707 Q1531.95 98.3086 1531.95 102.707 L1531.95 116.364 L1527.67 116.364 L1527.67 90.4383 L1531.95 90.4383 L1531.95 94.4661 Q1533.29 92.105 1535.45 90.9707 Q1537.6 89.8133 1540.68 89.8133 Q1541.12 89.8133 1541.65 89.8828 Q1542.18 89.9291 1542.83 90.0448 L1542.85 94.4198 Z" fill="#000000" fill-rule="nonzero" fill-opacity="1" /><path clip-path="url(#clip910)" d="M1546.88 106.133 L1546.88 90.4383 L1551.14 90.4383 L1551.14 105.971 Q1551.14 109.651 1552.57 111.503 Q1554.01 113.332 1556.88 113.332 Q1560.33 113.332 1562.32 111.133 Q1564.33 108.934 1564.33 105.137 L1564.33 90.4383 L1568.59 90.4383 L1568.59 116.364 L1564.33 116.364 L1564.33 112.383 Q1562.78 114.744 1560.72 115.901 Q1558.69 117.035 1555.98 117.035 Q1551.51 117.035 1549.2 114.258 Q1546.88 111.48 1546.88 106.133 M1557.6 89.8133 L1557.6 89.8133 Z" fill="#000000" fill-rule="nonzero" fill-opacity="1" /><path clip-path="url(#clip910)" d="M1598.92 100.716 L1598.92 116.364 L1594.66 116.364 L1594.66 100.855 Q1594.66 97.1744 1593.22 95.3457 Q1591.79 93.517 1588.92 93.517 Q1585.47 93.517 1583.48 95.7161 Q1581.49 97.9151 1581.49 101.711 L1581.49 116.364 L1577.2 116.364 L1577.2 90.4383 L1581.49 90.4383 L1581.49 94.4661 Q1583.01 92.1281 1585.07 90.9707 Q1587.16 89.8133 1589.87 89.8133 Q1594.33 89.8133 1596.63 92.5911 Q1598.92 95.3457 1598.92 100.716 Z" fill="#000000" fill-rule="nonzero" fill-opacity="1" /><path clip-path="url(#clip910)" d="M1623.94 91.2022 L1623.94 95.2299 Q1622.13 94.304 1620.19 93.8411 Q1618.25 93.3781 1616.16 93.3781 Q1612.99 93.3781 1611.39 94.3503 Q1609.82 95.3225 1609.82 97.267 Q1609.82 98.7484 1610.95 99.6049 Q1612.09 100.438 1615.51 101.202 L1616.97 101.526 Q1621.51 102.498 1623.41 104.281 Q1625.33 106.04 1625.33 109.211 Q1625.33 112.822 1622.46 114.929 Q1619.61 117.035 1614.61 117.035 Q1612.53 117.035 1610.26 116.619 Q1608.01 116.225 1605.51 115.415 L1605.51 111.017 Q1607.88 112.244 1610.17 112.869 Q1612.46 113.471 1614.7 113.471 Q1617.71 113.471 1619.33 112.452 Q1620.95 111.41 1620.95 109.535 Q1620.95 107.799 1619.77 106.873 Q1618.62 105.947 1614.66 105.091 L1613.18 104.744 Q1609.22 103.91 1607.46 102.198 Q1605.7 100.461 1605.7 97.4522 Q1605.7 93.7948 1608.29 91.804 Q1610.88 89.8133 1615.65 89.8133 Q1618.01 89.8133 1620.1 90.1605 Q1622.18 90.5078 1623.94 91.2022 Z" fill="#000000" fill-rule="nonzero" fill-opacity="1" /><polyline clip-path="url(#clip910)" style="stroke:#16a085; stroke-linecap:round; stroke-linejoin:round; stroke-width:8; stroke-opacity:1; fill:none" points="961.553,150.924 1100.78,150.924 "/>
<path clip-path="url(#clip910)" d="M1131.4 134.917 L1131.4 142.278 L1140.17 142.278 L1140.17 145.588 L1131.4 145.588 L1131.4 159.662 Q1131.4 162.834 1132.25 163.737 Q1133.13 164.639 1135.79 164.639 L1140.17 164.639 L1140.17 168.204 L1135.79 168.204 Q1130.86 168.204 1128.99 166.375 Q1127.11 164.524 1127.11 159.662 L1127.11 145.588 L1123.99 145.588 L1123.99 142.278 L1127.11 142.278 L1127.11 134.917 L1131.4 134.917 Z" fill="#000000" fill-rule="nonzero" fill-opacity="1" /><path clip-path="url(#clip910)" d="M1160.79 146.26 Q1160.08 145.843 1159.22 145.658 Q1158.39 145.45 1157.37 145.45 Q1153.76 145.45 1151.81 147.811 Q1149.89 150.149 1149.89 154.547 L1149.89 168.204 L1145.61 168.204 L1145.61 142.278 L1149.89 142.278 L1149.89 146.306 Q1151.23 143.945 1153.39 142.811 Q1155.54 141.653 1158.62 141.653 Q1159.06 141.653 1159.59 141.723 Q1160.12 141.769 1160.77 141.885 L1160.79 146.26 Z" fill="#000000" fill-rule="nonzero" fill-opacity="1" /><path clip-path="url(#clip910)" d="M1177.04 155.172 Q1171.88 155.172 1169.89 156.352 Q1167.9 157.533 1167.9 160.38 Q1167.9 162.649 1169.38 163.991 Q1170.89 165.311 1173.46 165.311 Q1177 165.311 1179.13 162.811 Q1181.28 160.287 1181.28 156.121 L1181.28 155.172 L1177.04 155.172 M1185.54 153.413 L1185.54 168.204 L1181.28 168.204 L1181.28 164.269 Q1179.82 166.63 1177.65 167.764 Q1175.47 168.875 1172.32 168.875 Q1168.34 168.875 1165.98 166.653 Q1163.64 164.408 1163.64 160.658 Q1163.64 156.283 1166.56 154.061 Q1169.5 151.838 1175.31 151.838 L1181.28 151.838 L1181.28 151.422 Q1181.28 148.482 1179.34 146.885 Q1177.41 145.264 1173.92 145.264 Q1171.7 145.264 1169.59 145.797 Q1167.48 146.329 1165.54 147.394 L1165.54 143.459 Q1167.88 142.556 1170.08 142.116 Q1172.28 141.653 1174.36 141.653 Q1179.98 141.653 1182.76 144.57 Q1185.54 147.487 1185.54 153.413 Z" fill="#000000" fill-rule="nonzero" fill-opacity="1" /><path clip-path="url(#clip910)" d="M1194.31 142.278 L1198.57 142.278 L1198.57 168.204 L1194.31 168.204 L1194.31 142.278 M1194.31 132.186 L1198.57 132.186 L1198.57 137.579 L1194.31 137.579 L1194.31 132.186 Z" fill="#000000" fill-rule="nonzero" fill-opacity="1" /><path clip-path="url(#clip910)" d="M1229.03 152.556 L1229.03 168.204 L1224.78 168.204 L1224.78 152.695 Q1224.78 149.014 1223.34 147.186 Q1221.91 145.357 1219.03 145.357 Q1215.59 145.357 1213.59 147.556 Q1211.6 149.755 1211.6 153.551 L1211.6 168.204 L1207.32 168.204 L1207.32 142.278 L1211.6 142.278 L1211.6 146.306 Q1213.13 143.968 1215.19 142.811 Q1217.28 141.653 1219.98 141.653 Q1224.45 141.653 1226.74 144.431 Q1229.03 147.186 1229.03 152.556 Z" fill="#000000" fill-rule="nonzero" fill-opacity="1" /><path clip-path="url(#clip910)" d="M1259.71 154.176 L1259.71 156.26 L1240.12 156.26 Q1240.4 160.658 1242.76 162.973 Q1245.15 165.264 1249.38 165.264 Q1251.84 165.264 1254.13 164.662 Q1256.44 164.061 1258.71 162.857 L1258.71 166.885 Q1256.42 167.857 1254.01 168.366 Q1251.6 168.875 1249.13 168.875 Q1242.92 168.875 1239.29 165.264 Q1235.68 161.653 1235.68 155.496 Q1235.68 149.13 1239.1 145.403 Q1242.55 141.653 1248.39 141.653 Q1253.62 141.653 1256.65 145.033 Q1259.71 148.389 1259.71 154.176 M1255.45 152.926 Q1255.4 149.431 1253.48 147.348 Q1251.58 145.264 1248.43 145.264 Q1244.87 145.264 1242.72 147.278 Q1240.59 149.292 1240.26 152.95 L1255.45 152.926 Z" fill="#000000" fill-rule="nonzero" fill-opacity="1" /><path clip-path="url(#clip910)" d="M1283.76 146.213 L1283.76 132.186 L1288.02 132.186 L1288.02 168.204 L1283.76 168.204 L1283.76 164.315 Q1282.41 166.63 1280.35 167.764 Q1278.32 168.875 1275.45 168.875 Q1270.75 168.875 1267.78 165.125 Q1264.84 161.375 1264.84 155.264 Q1264.84 149.153 1267.78 145.403 Q1270.75 141.653 1275.45 141.653 Q1278.32 141.653 1280.35 142.788 Q1282.41 143.899 1283.76 146.213 M1269.24 155.264 Q1269.24 159.963 1271.16 162.649 Q1273.11 165.311 1276.49 165.311 Q1279.87 165.311 1281.81 162.649 Q1283.76 159.963 1283.76 155.264 Q1283.76 150.565 1281.81 147.903 Q1279.87 145.218 1276.49 145.218 Q1273.11 145.218 1271.16 147.903 Q1269.24 150.565 1269.24 155.264 Z" fill="#000000" fill-rule="nonzero" fill-opacity="1" /><path clip-path="url(#clip910)" d="M1324.98 132.186 L1324.98 135.727 L1320.91 135.727 Q1318.62 135.727 1317.71 136.653 Q1316.84 137.579 1316.84 139.987 L1316.84 142.278 L1323.85 142.278 L1323.85 145.588 L1316.84 145.588 L1316.84 168.204 L1312.55 168.204 L1312.55 145.588 L1308.48 145.588 L1308.48 142.278 L1312.55 142.278 L1312.55 140.473 Q1312.55 136.144 1314.57 134.176 Q1316.58 132.186 1320.96 132.186 L1324.98 132.186 Z" fill="#000000" fill-rule="nonzero" fill-opacity="1" /><path clip-path="url(#clip910)" d="M1338.59 145.264 Q1335.17 145.264 1333.18 147.95 Q1331.19 150.612 1331.19 155.264 Q1331.19 159.917 1333.15 162.602 Q1335.15 165.264 1338.59 165.264 Q1342 165.264 1343.99 162.579 Q1345.98 159.894 1345.98 155.264 Q1345.98 150.658 1343.99 147.973 Q1342 145.264 1338.59 145.264 M1338.59 141.653 Q1344.15 141.653 1347.32 145.264 Q1350.49 148.875 1350.49 155.264 Q1350.49 161.63 1347.32 165.264 Q1344.15 168.875 1338.59 168.875 Q1333.02 168.875 1329.84 165.264 Q1326.7 161.63 1326.7 155.264 Q1326.7 148.875 1329.84 145.264 Q1333.02 141.653 1338.59 141.653 Z" fill="#000000" fill-rule="nonzero" fill-opacity="1" /><path clip-path="url(#clip910)" d="M1372.58 146.26 Q1371.86 145.843 1371 145.658 Q1370.17 145.45 1369.15 145.45 Q1365.54 145.45 1363.59 147.811 Q1361.67 150.149 1361.67 154.547 L1361.67 168.204 L1357.39 168.204 L1357.39 142.278 L1361.67 142.278 L1361.67 146.306 Q1363.02 143.945 1365.17 142.811 Q1367.32 141.653 1370.4 141.653 Q1370.84 141.653 1371.37 141.723 Q1371.9 141.769 1372.55 141.885 L1372.58 146.26 Z" fill="#000000" fill-rule="nonzero" fill-opacity="1" /><path clip-path="url(#clip910)" d="M1393.52 164.269 L1401.16 164.269 L1401.16 137.903 L1392.85 139.57 L1392.85 135.311 L1401.12 133.644 L1405.79 133.644 L1405.79 164.269 L1413.43 164.269 L1413.43 168.204 L1393.52 168.204 L1393.52 164.269 Z" fill="#000000" fill-rule="nonzero" fill-opacity="1" /><path clip-path="url(#clip910)" d="M1432.88 136.723 Q1429.27 136.723 1427.44 140.288 Q1425.63 143.829 1425.63 150.959 Q1425.63 158.065 1427.44 161.63 Q1429.27 165.172 1432.88 165.172 Q1436.51 165.172 1438.32 161.63 Q1440.14 158.065 1440.14 150.959 Q1440.14 143.829 1438.32 140.288 Q1436.51 136.723 1432.88 136.723 M1432.88 133.019 Q1438.69 133.019 1441.74 137.626 Q1444.82 142.209 1444.82 150.959 Q1444.82 159.686 1441.74 164.292 Q1438.69 168.875 1432.88 168.875 Q1427.07 168.875 1423.99 164.292 Q1420.93 159.686 1420.93 150.959 Q1420.93 142.209 1423.99 137.626 Q1427.07 133.019 1432.88 133.019 Z" fill="#000000" fill-rule="nonzero" fill-opacity="1" /><path clip-path="url(#clip910)" d="M1463.04 136.723 Q1459.43 136.723 1457.6 140.288 Q1455.79 143.829 1455.79 150.959 Q1455.79 158.065 1457.6 161.63 Q1459.43 165.172 1463.04 165.172 Q1466.67 165.172 1468.48 161.63 Q1470.31 158.065 1470.31 150.959 Q1470.31 143.829 1468.48 140.288 Q1466.67 136.723 1463.04 136.723 M1463.04 133.019 Q1468.85 133.019 1471.9 137.626 Q1474.98 142.209 1474.98 150.959 Q1474.98 159.686 1471.9 164.292 Q1468.85 168.875 1463.04 168.875 Q1457.23 168.875 1454.15 164.292 Q1451.09 159.686 1451.09 150.959 Q1451.09 142.209 1454.15 137.626 Q1457.23 133.019 1463.04 133.019 Z" fill="#000000" fill-rule="nonzero" fill-opacity="1" /><path clip-path="url(#clip910)" d="M1493.2 136.723 Q1489.59 136.723 1487.76 140.288 Q1485.95 143.829 1485.95 150.959 Q1485.95 158.065 1487.76 161.63 Q1489.59 165.172 1493.2 165.172 Q1496.83 165.172 1498.64 161.63 Q1500.47 158.065 1500.47 150.959 Q1500.47 143.829 1498.64 140.288 Q1496.83 136.723 1493.2 136.723 M1493.2 133.019 Q1499.01 133.019 1502.07 137.626 Q1505.14 142.209 1505.14 150.959 Q1505.14 159.686 1502.07 164.292 Q1499.01 168.875 1493.2 168.875 Q1487.39 168.875 1484.31 164.292 Q1481.26 159.686 1481.26 150.959 Q1481.26 142.209 1484.31 137.626 Q1487.39 133.019 1493.2 133.019 Z" fill="#000000" fill-rule="nonzero" fill-opacity="1" /><path clip-path="url(#clip910)" d="M1523.36 136.723 Q1519.75 136.723 1517.92 140.288 Q1516.12 143.829 1516.12 150.959 Q1516.12 158.065 1517.92 161.63 Q1519.75 165.172 1523.36 165.172 Q1527 165.172 1528.8 161.63 Q1530.63 158.065 1530.63 150.959 Q1530.63 143.829 1528.8 140.288 Q1527 136.723 1523.36 136.723 M1523.36 133.019 Q1529.17 133.019 1532.23 137.626 Q1535.31 142.209 1535.31 150.959 Q1535.31 159.686 1532.23 164.292 Q1529.17 168.875 1523.36 168.875 Q1517.55 168.875 1514.47 164.292 Q1511.42 159.686 1511.42 150.959 Q1511.42 142.209 1514.47 137.626 Q1517.55 133.019 1523.36 133.019 Z" fill="#000000" fill-rule="nonzero" fill-opacity="1" /><path clip-path="url(#clip910)" d="M1573.01 146.26 Q1572.3 145.843 1571.44 145.658 Q1570.61 145.45 1569.59 145.45 Q1565.98 145.45 1564.03 147.811 Q1562.11 150.149 1562.11 154.547 L1562.11 168.204 L1557.83 168.204 L1557.83 142.278 L1562.11 142.278 L1562.11 146.306 Q1563.45 143.945 1565.61 142.811 Q1567.76 141.653 1570.84 141.653 Q1571.28 141.653 1571.81 141.723 Q1572.34 141.769 1572.99 141.885 L1573.01 146.26 Z" fill="#000000" fill-rule="nonzero" fill-opacity="1" /><path clip-path="url(#clip910)" d="M1577.04 157.973 L1577.04 142.278 L1581.3 142.278 L1581.3 157.811 Q1581.3 161.491 1582.74 163.343 Q1584.17 165.172 1587.04 165.172 Q1590.49 165.172 1592.48 162.973 Q1594.5 160.774 1594.5 156.977 L1594.5 142.278 L1598.75 142.278 L1598.75 168.204 L1594.5 168.204 L1594.5 164.223 Q1592.94 166.584 1590.88 167.741 Q1588.85 168.875 1586.14 168.875 Q1581.67 168.875 1579.36 166.098 Q1577.04 163.32 1577.04 157.973 M1587.76 141.653 L1587.76 141.653 Z" fill="#000000" fill-rule="nonzero" fill-opacity="1" /><path clip-path="url(#clip910)" d="M1629.08 152.556 L1629.08 168.204 L1624.82 168.204 L1624.82 152.695 Q1624.82 149.014 1623.38 147.186 Q1621.95 145.357 1619.08 145.357 Q1615.63 145.357 1613.64 147.556 Q1611.65 149.755 1611.65 153.551 L1611.65 168.204 L1607.37 168.204 L1607.37 142.278 L1611.65 142.278 L1611.65 146.306 Q1613.18 143.968 1615.24 142.811 Q1617.32 141.653 1620.03 141.653 Q1624.5 141.653 1626.79 144.431 Q1629.08 147.186 1629.08 152.556 Z" fill="#000000" fill-rule="nonzero" fill-opacity="1" /><path clip-path="url(#clip910)" d="M1654.1 143.042 L1654.1 147.07 Q1652.3 146.144 1650.35 145.681 Q1648.41 145.218 1646.32 145.218 Q1643.15 145.218 1641.56 146.19 Q1639.98 147.163 1639.98 149.107 Q1639.98 150.588 1641.12 151.445 Q1642.25 152.278 1645.68 153.042 L1647.13 153.366 Q1651.67 154.338 1653.57 156.121 Q1655.49 157.88 1655.49 161.051 Q1655.49 164.662 1652.62 166.769 Q1649.77 168.875 1644.77 168.875 Q1642.69 168.875 1640.42 168.459 Q1638.18 168.065 1635.68 167.255 L1635.68 162.857 Q1638.04 164.084 1640.33 164.709 Q1642.62 165.311 1644.87 165.311 Q1647.88 165.311 1649.5 164.292 Q1651.12 163.25 1651.12 161.375 Q1651.12 159.639 1649.94 158.713 Q1648.78 157.787 1644.82 156.931 L1643.34 156.584 Q1639.38 155.75 1637.62 154.038 Q1635.86 152.301 1635.86 149.292 Q1635.86 145.635 1638.45 143.644 Q1641.05 141.653 1645.81 141.653 Q1648.18 141.653 1650.26 142.001 Q1652.34 142.348 1654.1 143.042 Z" fill="#000000" fill-rule="nonzero" fill-opacity="1" /><polyline clip-path="url(#clip910)" style="stroke:#8e44ad; stroke-linecap:round; stroke-linejoin:round; stroke-width:8; stroke-opacity:1; fill:none" points="961.553,202.764 1100.78,202.764 "/>
<path clip-path="url(#clip910)" d="M1131.4 186.757 L1131.4 194.118 L1140.17 194.118 L1140.17 197.428 L1131.4 197.428 L1131.4 211.502 Q1131.4 214.674 1132.25 215.577 Q1133.13 216.479 1135.79 216.479 L1140.17 216.479 L1140.17 220.044 L1135.79 220.044 Q1130.86 220.044 1128.99 218.215 Q1127.11 216.364 1127.11 211.502 L1127.11 197.428 L1123.99 197.428 L1123.99 194.118 L1127.11 194.118 L1127.11 186.757 L1131.4 186.757 Z" fill="#000000" fill-rule="nonzero" fill-opacity="1" /><path clip-path="url(#clip910)" d="M1160.79 198.1 Q1160.08 197.683 1159.22 197.498 Q1158.39 197.29 1157.37 197.29 Q1153.76 197.29 1151.81 199.651 Q1149.89 201.989 1149.89 206.387 L1149.89 220.044 L1145.61 220.044 L1145.61 194.118 L1149.89 194.118 L1149.89 198.146 Q1151.23 195.785 1153.39 194.651 Q1155.54 193.493 1158.62 193.493 Q1159.06 193.493 1159.59 193.563 Q1160.12 193.609 1160.77 193.725 L1160.79 198.1 Z" fill="#000000" fill-rule="nonzero" fill-opacity="1" /><path clip-path="url(#clip910)" d="M1177.04 207.012 Q1171.88 207.012 1169.89 208.192 Q1167.9 209.373 1167.9 212.22 Q1167.9 214.489 1169.38 215.831 Q1170.89 217.151 1173.46 217.151 Q1177 217.151 1179.13 214.651 Q1181.28 212.127 1181.28 207.961 L1181.28 207.012 L1177.04 207.012 M1185.54 205.253 L1185.54 220.044 L1181.28 220.044 L1181.28 216.109 Q1179.82 218.47 1177.65 219.604 Q1175.47 220.715 1172.32 220.715 Q1168.34 220.715 1165.98 218.493 Q1163.64 216.248 1163.64 212.498 Q1163.64 208.123 1166.56 205.901 Q1169.5 203.678 1175.31 203.678 L1181.28 203.678 L1181.28 203.262 Q1181.28 200.322 1179.34 198.725 Q1177.41 197.104 1173.92 197.104 Q1171.7 197.104 1169.59 197.637 Q1167.48 198.169 1165.54 199.234 L1165.54 195.299 Q1167.88 194.396 1170.08 193.956 Q1172.28 193.493 1174.36 193.493 Q1179.98 193.493 1182.76 196.41 Q1185.54 199.327 1185.54 205.253 Z" fill="#000000" fill-rule="nonzero" fill-opacity="1" /><path clip-path="url(#clip910)" d="M1194.31 194.118 L1198.57 194.118 L1198.57 220.044 L1194.31 220.044 L1194.31 194.118 M1194.31 184.026 L1198.57 184.026 L1198.57 189.419 L1194.31 189.419 L1194.31 184.026 Z" fill="#000000" fill-rule="nonzero" fill-opacity="1" /><path clip-path="url(#clip910)" d="M1229.03 204.396 L1229.03 220.044 L1224.78 220.044 L1224.78 204.535 Q1224.78 200.854 1223.34 199.026 Q1221.91 197.197 1219.03 197.197 Q1215.59 197.197 1213.59 199.396 Q1211.6 201.595 1211.6 205.391 L1211.6 220.044 L1207.32 220.044 L1207.32 194.118 L1211.6 194.118 L1211.6 198.146 Q1213.13 195.808 1215.19 194.651 Q1217.28 193.493 1219.98 193.493 Q1224.45 193.493 1226.74 196.271 Q1229.03 199.026 1229.03 204.396 Z" fill="#000000" fill-rule="nonzero" fill-opacity="1" /><path clip-path="url(#clip910)" d="M1259.71 206.016 L1259.71 208.1 L1240.12 208.1 Q1240.4 212.498 1242.76 214.813 Q1245.15 217.104 1249.38 217.104 Q1251.84 217.104 1254.13 216.502 Q1256.44 215.901 1258.71 214.697 L1258.71 218.725 Q1256.42 219.697 1254.01 220.206 Q1251.6 220.715 1249.13 220.715 Q1242.92 220.715 1239.29 217.104 Q1235.68 213.493 1235.68 207.336 Q1235.68 200.97 1239.1 197.243 Q1242.55 193.493 1248.39 193.493 Q1253.62 193.493 1256.65 196.873 Q1259.71 200.229 1259.71 206.016 M1255.45 204.766 Q1255.4 201.271 1253.48 199.188 Q1251.58 197.104 1248.43 197.104 Q1244.87 197.104 1242.72 199.118 Q1240.59 201.132 1240.26 204.79 L1255.45 204.766 Z" fill="#000000" fill-rule="nonzero" fill-opacity="1" /><path clip-path="url(#clip910)" d="M1283.76 198.053 L1283.76 184.026 L1288.02 184.026 L1288.02 220.044 L1283.76 220.044 L1283.76 216.155 Q1282.41 218.47 1280.35 219.604 Q1278.32 220.715 1275.45 220.715 Q1270.75 220.715 1267.78 216.965 Q1264.84 213.215 1264.84 207.104 Q1264.84 200.993 1267.78 197.243 Q1270.75 193.493 1275.45 193.493 Q1278.32 193.493 1280.35 194.628 Q1282.41 195.739 1283.76 198.053 M1269.24 207.104 Q1269.24 211.803 1271.16 214.489 Q1273.11 217.151 1276.49 217.151 Q1279.87 217.151 1281.81 214.489 Q1283.76 211.803 1283.76 207.104 Q1283.76 202.405 1281.81 199.743 Q1279.87 197.058 1276.49 197.058 Q1273.11 197.058 1271.16 199.743 Q1269.24 202.405 1269.24 207.104 Z" fill="#000000" fill-rule="nonzero" fill-opacity="1" /><path clip-path="url(#clip910)" d="M1324.98 184.026 L1324.98 187.567 L1320.91 187.567 Q1318.62 187.567 1317.71 188.493 Q1316.84 189.419 1316.84 191.827 L1316.84 194.118 L1323.85 194.118 L1323.85 197.428 L1316.84 197.428 L1316.84 220.044 L1312.55 220.044 L1312.55 197.428 L1308.48 197.428 L1308.48 194.118 L1312.55 194.118 L1312.55 192.313 Q1312.55 187.984 1314.57 186.016 Q1316.58 184.026 1320.96 184.026 L1324.98 184.026 Z" fill="#000000" fill-rule="nonzero" fill-opacity="1" /><path clip-path="url(#clip910)" d="M1338.59 197.104 Q1335.17 197.104 1333.18 199.79 Q1331.19 202.452 1331.19 207.104 Q1331.19 211.757 1333.15 214.442 Q1335.15 217.104 1338.59 217.104 Q1342 217.104 1343.99 214.419 Q1345.98 211.734 1345.98 207.104 Q1345.98 202.498 1343.99 199.813 Q1342 197.104 1338.59 197.104 M1338.59 193.493 Q1344.15 193.493 1347.32 197.104 Q1350.49 200.715 1350.49 207.104 Q1350.49 213.47 1347.32 217.104 Q1344.15 220.715 1338.59 220.715 Q1333.02 220.715 1329.84 217.104 Q1326.7 213.47 1326.7 207.104 Q1326.7 200.715 1329.84 197.104 Q1333.02 193.493 1338.59 193.493 Z" fill="#000000" fill-rule="nonzero" fill-opacity="1" /><path clip-path="url(#clip910)" d="M1372.58 198.1 Q1371.86 197.683 1371 197.498 Q1370.17 197.29 1369.15 197.29 Q1365.54 197.29 1363.59 199.651 Q1361.67 201.989 1361.67 206.387 L1361.67 220.044 L1357.39 220.044 L1357.39 194.118 L1361.67 194.118 L1361.67 198.146 Q1363.02 195.785 1365.17 194.651 Q1367.32 193.493 1370.4 193.493 Q1370.84 193.493 1371.37 193.563 Q1371.9 193.609 1372.55 193.725 L1372.58 198.1 Z" fill="#000000" fill-rule="nonzero" fill-opacity="1" /><path clip-path="url(#clip910)" d="M1396.74 216.109 L1413.06 216.109 L1413.06 220.044 L1391.12 220.044 L1391.12 216.109 Q1393.78 213.354 1398.36 208.725 Q1402.97 204.072 1404.15 202.729 Q1406.39 200.206 1407.27 198.47 Q1408.18 196.711 1408.18 195.021 Q1408.18 192.266 1406.23 190.53 Q1404.31 188.794 1401.21 188.794 Q1399.01 188.794 1396.56 189.558 Q1394.13 190.322 1391.35 191.873 L1391.35 187.151 Q1394.17 186.016 1396.63 185.438 Q1399.08 184.859 1401.12 184.859 Q1406.49 184.859 1409.68 187.544 Q1412.88 190.229 1412.88 194.72 Q1412.88 196.85 1412.07 198.771 Q1411.28 200.669 1409.17 203.262 Q1408.59 203.933 1405.49 207.151 Q1402.39 210.345 1396.74 216.109 Z" fill="#000000" fill-rule="nonzero" fill-opacity="1" /><path clip-path="url(#clip910)" d="M1432.88 188.563 Q1429.27 188.563 1427.44 192.128 Q1425.63 195.669 1425.63 202.799 Q1425.63 209.905 1427.44 213.47 Q1429.27 217.012 1432.88 217.012 Q1436.51 217.012 1438.32 213.47 Q1440.14 209.905 1440.14 202.799 Q1440.14 195.669 1438.32 192.128 Q1436.51 188.563 1432.88 188.563 M1432.88 184.859 Q1438.69 184.859 1441.74 189.466 Q1444.82 194.049 1444.82 202.799 Q1444.82 211.526 1441.74 216.132 Q1438.69 220.715 1432.88 220.715 Q1427.07 220.715 1423.99 216.132 Q1420.93 211.526 1420.93 202.799 Q1420.93 194.049 1423.99 189.466 Q1427.07 184.859 1432.88 184.859 Z" fill="#000000" fill-rule="nonzero" fill-opacity="1" /><path clip-path="url(#clip910)" d="M1463.04 188.563 Q1459.43 188.563 1457.6 192.128 Q1455.79 195.669 1455.79 202.799 Q1455.79 209.905 1457.6 213.47 Q1459.43 217.012 1463.04 217.012 Q1466.67 217.012 1468.48 213.47 Q1470.31 209.905 1470.31 202.799 Q1470.31 195.669 1468.48 192.128 Q1466.67 188.563 1463.04 188.563 M1463.04 184.859 Q1468.85 184.859 1471.9 189.466 Q1474.98 194.049 1474.98 202.799 Q1474.98 211.526 1471.9 216.132 Q1468.85 220.715 1463.04 220.715 Q1457.23 220.715 1454.15 216.132 Q1451.09 211.526 1451.09 202.799 Q1451.09 194.049 1454.15 189.466 Q1457.23 184.859 1463.04 184.859 Z" fill="#000000" fill-rule="nonzero" fill-opacity="1" /><path clip-path="url(#clip910)" d="M1493.2 188.563 Q1489.59 188.563 1487.76 192.128 Q1485.95 195.669 1485.95 202.799 Q1485.95 209.905 1487.76 213.47 Q1489.59 217.012 1493.2 217.012 Q1496.83 217.012 1498.64 213.47 Q1500.47 209.905 1500.47 202.799 Q1500.47 195.669 1498.64 192.128 Q1496.83 188.563 1493.2 188.563 M1493.2 184.859 Q1499.01 184.859 1502.07 189.466 Q1505.14 194.049 1505.14 202.799 Q1505.14 211.526 1502.07 216.132 Q1499.01 220.715 1493.2 220.715 Q1487.39 220.715 1484.31 216.132 Q1481.26 211.526 1481.26 202.799 Q1481.26 194.049 1484.31 189.466 Q1487.39 184.859 1493.2 184.859 Z" fill="#000000" fill-rule="nonzero" fill-opacity="1" /><path clip-path="url(#clip910)" d="M1523.36 188.563 Q1519.75 188.563 1517.92 192.128 Q1516.12 195.669 1516.12 202.799 Q1516.12 209.905 1517.92 213.47 Q1519.75 217.012 1523.36 217.012 Q1527 217.012 1528.8 213.47 Q1530.63 209.905 1530.63 202.799 Q1530.63 195.669 1528.8 192.128 Q1527 188.563 1523.36 188.563 M1523.36 184.859 Q1529.17 184.859 1532.23 189.466 Q1535.31 194.049 1535.31 202.799 Q1535.31 211.526 1532.23 216.132 Q1529.17 220.715 1523.36 220.715 Q1517.55 220.715 1514.47 216.132 Q1511.42 211.526 1511.42 202.799 Q1511.42 194.049 1514.47 189.466 Q1517.55 184.859 1523.36 184.859 Z" fill="#000000" fill-rule="nonzero" fill-opacity="1" /><path clip-path="url(#clip910)" d="M1573.01 198.1 Q1572.3 197.683 1571.44 197.498 Q1570.61 197.29 1569.59 197.29 Q1565.98 197.29 1564.03 199.651 Q1562.11 201.989 1562.11 206.387 L1562.11 220.044 L1557.83 220.044 L1557.83 194.118 L1562.11 194.118 L1562.11 198.146 Q1563.45 195.785 1565.61 194.651 Q1567.76 193.493 1570.84 193.493 Q1571.28 193.493 1571.81 193.563 Q1572.34 193.609 1572.99 193.725 L1573.01 198.1 Z" fill="#000000" fill-rule="nonzero" fill-opacity="1" /><path clip-path="url(#clip910)" d="M1577.04 209.813 L1577.04 194.118 L1581.3 194.118 L1581.3 209.651 Q1581.3 213.331 1582.74 215.183 Q1584.17 217.012 1587.04 217.012 Q1590.49 217.012 1592.48 214.813 Q1594.5 212.614 1594.5 208.817 L1594.5 194.118 L1598.75 194.118 L1598.75 220.044 L1594.5 220.044 L1594.5 216.063 Q1592.94 218.424 1590.88 219.581 Q1588.85 220.715 1586.14 220.715 Q1581.67 220.715 1579.36 217.938 Q1577.04 215.16 1577.04 209.813 M1587.76 193.493 L1587.76 193.493 Z" fill="#000000" fill-rule="nonzero" fill-opacity="1" /><path clip-path="url(#clip910)" d="M1629.08 204.396 L1629.08 220.044 L1624.82 220.044 L1624.82 204.535 Q1624.82 200.854 1623.38 199.026 Q1621.95 197.197 1619.08 197.197 Q1615.63 197.197 1613.64 199.396 Q1611.65 201.595 1611.65 205.391 L1611.65 220.044 L1607.37 220.044 L1607.37 194.118 L1611.65 194.118 L1611.65 198.146 Q1613.18 195.808 1615.24 194.651 Q1617.32 193.493 1620.03 193.493 Q1624.5 193.493 1626.79 196.271 Q1629.08 199.026 1629.08 204.396 Z" fill="#000000" fill-rule="nonzero" fill-opacity="1" /><path clip-path="url(#clip910)" d="M1654.1 194.882 L1654.1 198.91 Q1652.3 197.984 1650.35 197.521 Q1648.41 197.058 1646.32 197.058 Q1643.15 197.058 1641.56 198.03 Q1639.98 199.003 1639.98 200.947 Q1639.98 202.428 1641.12 203.285 Q1642.25 204.118 1645.68 204.882 L1647.13 205.206 Q1651.67 206.178 1653.57 207.961 Q1655.49 209.72 1655.49 212.891 Q1655.49 216.502 1652.62 218.609 Q1649.77 220.715 1644.77 220.715 Q1642.69 220.715 1640.42 220.299 Q1638.18 219.905 1635.68 219.095 L1635.68 214.697 Q1638.04 215.924 1640.33 216.549 Q1642.62 217.151 1644.87 217.151 Q1647.88 217.151 1649.5 216.132 Q1651.12 215.09 1651.12 213.215 Q1651.12 211.479 1649.94 210.553 Q1648.78 209.627 1644.82 208.771 L1643.34 208.424 Q1639.38 207.59 1637.62 205.878 Q1635.86 204.141 1635.86 201.132 Q1635.86 197.475 1638.45 195.484 Q1641.05 193.493 1645.81 193.493 Q1648.18 193.493 1650.26 193.841 Q1652.34 194.188 1654.1 194.882 Z" fill="#000000" fill-rule="nonzero" fill-opacity="1" /></svg>
