<?xml version="1.0" encoding="utf-8"?>
<svg xmlns="http://www.w3.org/2000/svg" xmlns:xlink="http://www.w3.org/1999/xlink" width="350" height="200" viewBox="0 0 1400 800">
<defs>
  <clipPath id="clip080">
    <rect x="0" y="0" width="1400" height="800"/>
  </clipPath>
</defs>
<path clip-path="url(#clip080)" d="M0 800 L1400 800 L1400 0 L0 0  Z" fill="#ffffff" fill-rule="evenodd" fill-opacity="1"/>
<defs>
  <clipPath id="clip081">
    <rect x="280" y="0" width="981" height="800"/>
  </clipPath>
</defs>
<path clip-path="url(#clip080)" d="M218.55 642.906 L1352.76 642.906 L1352.76 47.2441 L218.55 47.2441  Z" fill="#ffffff" fill-rule="evenodd" fill-opacity="1"/>
<defs>
  <clipPath id="clip082">
    <rect x="218" y="47" width="1135" height="597"/>
  </clipPath>
</defs>
<polyline clip-path="url(#clip082)" style="stroke:#000000; stroke-linecap:round; stroke-linejoin:round; stroke-width:2; stroke-opacity:0.1; fill:none" points="380.579,642.906 380.579,47.2441 "/>
<polyline clip-path="url(#clip082)" style="stroke:#000000; stroke-linecap:round; stroke-linejoin:round; stroke-width:2; stroke-opacity:0.1; fill:none" points="542.609,642.906 542.609,47.2441 "/>
<polyline clip-path="url(#clip082)" style="stroke:#000000; stroke-linecap:round; stroke-linejoin:round; stroke-width:2; stroke-opacity:0.1; fill:none" points="704.638,642.906 704.638,47.2441 "/>
<polyline clip-path="url(#clip082)" style="stroke:#000000; stroke-linecap:round; stroke-linejoin:round; stroke-width:2; stroke-opacity:0.1; fill:none" points="866.668,642.906 866.668,47.2441 "/>
<polyline clip-path="url(#clip082)" style="stroke:#000000; stroke-linecap:round; stroke-linejoin:round; stroke-width:2; stroke-opacity:0.1; fill:none" points="1028.7,642.906 1028.7,47.2441 "/>
<polyline clip-path="url(#clip082)" style="stroke:#000000; stroke-linecap:round; stroke-linejoin:round; stroke-width:2; stroke-opacity:0.1; fill:none" points="1190.73,642.906 1190.73,47.2441 "/>
<polyline clip-path="url(#clip080)" style="stroke:#000000; stroke-linecap:round; stroke-linejoin:round; stroke-width:4; stroke-opacity:1; fill:none" points="218.55,642.906 1352.76,642.906 "/>
<polyline clip-path="url(#clip080)" style="stroke:#000000; stroke-linecap:round; stroke-linejoin:round; stroke-width:4; stroke-opacity:1; fill:none" points="380.579,642.906 380.579,624.008 "/>
<polyline clip-path="url(#clip080)" style="stroke:#000000; stroke-linecap:round; stroke-linejoin:round; stroke-width:4; stroke-opacity:1; fill:none" points="542.609,642.906 542.609,624.008 "/>
<polyline clip-path="url(#clip080)" style="stroke:#000000; stroke-linecap:round; stroke-linejoin:round; stroke-width:4; stroke-opacity:1; fill:none" points="704.638,642.906 704.638,624.008 "/>
<polyline clip-path="url(#clip080)" style="stroke:#000000; stroke-linecap:round; stroke-linejoin:round; stroke-width:4; stroke-opacity:1; fill:none" points="866.668,642.906 866.668,624.008 "/>
<polyline clip-path="url(#clip080)" style="stroke:#000000; stroke-linecap:round; stroke-linejoin:round; stroke-width:4; stroke-opacity:1; fill:none" points="1028.7,642.906 1028.7,624.008 "/>
<polyline clip-path="url(#clip080)" style="stroke:#000000; stroke-linecap:round; stroke-linejoin:round; stroke-width:4; stroke-opacity:1; fill:none" points="1190.73,642.906 1190.73,624.008 "/>
<path clip-path="url(#clip080)" d="M370.476 697.306 Q370.476 696.392 370.55 696.12 Q370.649 695.848 371.044 695.428 L380.752 684.608 Q386.064 678.63 386.064 673.417 Q386.064 670.033 384.285 667.612 Q382.531 665.191 379.295 665.191 Q377.072 665.191 375.194 666.55 Q373.317 667.909 372.452 670.329 Q372.6 670.28 373.119 670.28 Q374.379 670.28 375.071 671.071 Q375.787 671.861 375.787 672.923 Q375.787 674.282 374.898 674.949 Q374.033 675.591 373.168 675.591 Q372.823 675.591 372.353 675.517 Q371.908 675.443 371.192 674.751 Q370.476 674.035 370.476 672.775 Q370.476 669.243 373.144 666.426 Q375.836 663.61 379.937 663.61 Q384.581 663.61 387.62 666.377 Q390.683 669.119 390.683 673.417 Q390.683 674.924 390.214 676.308 Q389.769 677.666 389.151 678.729 Q388.559 679.791 386.928 681.495 Q385.298 683.2 383.988 684.41 Q382.679 685.621 379.739 688.19 L374.379 693.402 L383.494 693.402 Q387.941 693.402 388.287 693.007 Q388.781 692.291 389.398 688.511 L390.683 688.511 L389.25 697.306 L370.476 697.306 Z" fill="#000000" fill-rule="nonzero" fill-opacity="1" /><path clip-path="url(#clip080)" d="M532.11 690.487 Q532.11 688.981 532.974 688.264 Q533.839 687.548 534.951 687.548 Q536.112 687.548 536.927 688.314 Q537.767 689.055 537.767 690.364 Q537.767 691.772 536.779 692.563 Q535.815 693.353 534.432 693.155 Q535.642 695.181 537.866 696.095 Q540.114 697.009 542.189 697.009 Q544.363 697.009 546.117 695.132 Q547.895 693.254 547.895 688.659 Q547.895 684.756 546.364 682.508 Q544.857 680.26 541.868 680.26 L539.644 680.26 Q538.879 680.26 538.656 680.186 Q538.434 680.112 538.434 679.692 Q538.434 679.198 539.2 679.099 Q539.966 679.099 541.176 678.951 Q544.116 678.852 545.672 676.308 Q547.08 673.936 547.08 670.552 Q547.08 667.464 545.598 666.179 Q544.14 664.87 542.238 664.87 Q540.46 664.87 538.508 665.611 Q536.556 666.352 535.494 668.007 Q538.632 668.007 538.632 670.552 Q538.632 671.663 537.915 672.405 Q537.223 673.121 536.062 673.121 Q534.951 673.121 534.21 672.429 Q533.469 671.713 533.469 670.502 Q533.469 667.612 536.038 665.611 Q538.632 663.61 542.436 663.61 Q546.191 663.61 548.958 665.586 Q551.749 667.563 551.749 670.601 Q551.749 673.59 549.773 676.036 Q547.797 678.482 544.659 679.494 Q548.513 680.26 550.81 682.879 Q553.108 685.473 553.108 688.659 Q553.108 692.612 549.995 695.527 Q546.882 698.417 542.337 698.417 Q538.137 698.417 535.124 696.144 Q532.11 693.872 532.11 690.487 Z" fill="#000000" fill-rule="nonzero" fill-opacity="1" /><path clip-path="url(#clip080)" d="M693.423 688.956 L693.423 687.4 L708.961 663.66 Q709.357 663.042 709.974 663.067 Q710.542 663.067 710.666 663.289 Q710.789 663.511 710.789 664.376 L710.789 687.4 L715.854 687.4 L715.854 688.956 L710.789 688.956 L710.789 693.353 Q710.789 694.811 711.382 695.28 Q712 695.749 714.618 695.749 L715.681 695.749 L715.681 697.306 Q713.606 697.157 708.813 697.157 Q704.045 697.157 701.97 697.306 L701.97 695.749 L703.033 695.749 Q705.651 695.749 706.269 695.305 Q706.886 694.835 706.886 693.353 L706.886 688.956 L693.423 688.956 M694.856 687.4 L707.183 687.4 L707.183 668.526 L694.856 687.4 Z" fill="#000000" fill-rule="nonzero" fill-opacity="1" /><path clip-path="url(#clip080)" d="M856.564 689.153 Q856.564 687.647 857.379 687.078 Q858.194 686.485 859.059 686.485 Q860.22 686.485 860.887 687.227 Q861.579 687.943 861.579 688.956 Q861.579 689.969 860.887 690.71 Q860.22 691.426 859.059 691.426 Q858.491 691.426 858.194 691.327 Q858.861 693.649 860.887 695.329 Q862.937 697.009 865.63 697.009 Q869.014 697.009 871.04 693.724 Q872.251 691.599 872.251 686.782 Q872.251 682.533 871.337 680.408 Q869.928 677.172 867.038 677.172 Q862.937 677.172 860.517 680.705 Q860.22 681.15 859.874 681.174 Q859.38 681.174 859.257 680.903 Q859.158 680.606 859.158 679.84 L859.158 664.87 Q859.158 663.66 859.652 663.66 Q859.85 663.66 860.269 663.808 Q863.456 665.216 866.989 665.241 Q870.62 665.241 873.881 663.758 Q874.128 663.61 874.276 663.61 Q874.77 663.61 874.795 664.178 Q874.795 664.376 874.375 664.969 Q873.98 665.537 873.115 666.303 Q872.251 667.044 871.139 667.76 Q870.027 668.477 868.397 668.971 Q866.791 669.44 865.013 669.44 Q862.888 669.44 860.714 668.773 L860.714 678.63 Q863.333 676.061 867.137 676.061 Q871.188 676.061 873.98 679.322 Q876.771 682.582 876.771 687.128 Q876.771 691.896 873.461 695.156 Q870.176 698.417 865.729 698.417 Q861.678 698.417 859.108 695.527 Q856.564 692.637 856.564 689.153 Z" fill="#000000" fill-rule="nonzero" fill-opacity="1" /><path clip-path="url(#clip080)" d="M1018.2 681.322 Q1018.2 673.368 1022.25 668.501 Q1026.3 663.61 1031.51 663.61 Q1034.55 663.61 1036.23 665.166 Q1037.94 666.698 1037.94 669.07 Q1037.94 670.379 1037.17 670.947 Q1036.4 671.515 1035.61 671.515 Q1034.7 671.515 1033.98 670.898 Q1033.27 670.28 1033.27 669.168 Q1033.27 666.896 1036.06 666.896 Q1034.75 664.87 1031.61 664.87 Q1030.65 664.87 1029.66 665.166 Q1028.67 665.438 1027.39 666.377 Q1026.1 667.316 1025.12 668.798 Q1024.13 670.28 1023.44 673.072 Q1022.74 675.863 1022.74 679.494 L1022.74 680.705 Q1024.82 675.69 1029.07 675.715 Q1033.32 675.715 1036.26 678.951 Q1039.2 682.187 1039.2 686.98 Q1039.2 691.896 1036.13 695.156 Q1033.07 698.417 1028.77 698.417 Q1026.84 698.417 1025.09 697.602 Q1023.36 696.811 1021.73 694.983 Q1020.12 693.155 1019.16 689.648 Q1018.2 686.14 1018.2 681.322 M1022.84 685.868 Q1022.84 690.833 1023.76 693.205 Q1023.9 693.6 1024.23 694.144 Q1024.57 694.687 1025.14 695.403 Q1025.73 696.095 1026.7 696.564 Q1027.66 697.009 1028.77 697.009 Q1032.16 697.009 1033.79 693.724 Q1034.65 691.896 1034.65 686.93 Q1034.65 681.866 1033.74 680.013 Q1032.18 676.876 1029.02 676.876 Q1026.89 676.876 1025.41 678.333 Q1023.95 679.791 1023.39 681.742 Q1022.84 683.694 1022.84 685.868 Z" fill="#000000" fill-rule="nonzero" fill-opacity="1" /><path clip-path="url(#clip080)" d="M1179.88 673.516 L1181.54 663.116 L1182.8 663.116 Q1182.94 663.734 1183.19 664.005 Q1183.46 664.277 1184.9 664.499 Q1186.35 664.722 1189.29 664.722 L1201.57 664.722 Q1201.57 665.883 1201.13 666.5 L1194.28 676.11 Q1192.11 679.149 1191.15 684.756 Q1190.58 688.511 1190.6 693.057 L1190.6 695.626 Q1190.6 698.417 1188.26 698.417 Q1185.93 698.417 1185.93 695.626 Q1185.93 685.967 1192.16 676.604 Q1192.83 675.641 1195.27 672.207 Q1197.74 668.773 1197.84 668.625 L1187.37 668.625 Q1182.77 668.625 1182.4 668.921 Q1181.91 669.366 1181.14 673.516 L1179.88 673.516 Z" fill="#000000" fill-rule="nonzero" fill-opacity="1" /><path clip-path="url(#clip080)" d="M645.386 772.77 L645.386 770.63 L647.05 770.63 Q650.82 770.63 651.67 770.018 Q652.553 769.373 652.553 767.335 L652.553 730.888 Q652.553 728.884 651.67 728.273 Q650.786 727.627 647.05 727.627 L645.386 727.627 L645.386 725.453 L683.565 725.453 L685.501 741.112 L683.769 741.112 Q683.293 737.138 682.648 734.896 Q682.036 732.62 680.61 730.82 Q679.183 729.02 676.771 728.341 Q674.394 727.627 670.487 727.627 L662.132 727.627 Q659.754 727.627 659.244 728.137 Q658.735 728.612 658.735 730.413 L658.735 748.008 L664.713 748.008 Q669.434 748.008 670.759 746.309 Q672.084 744.611 672.084 739.855 L673.816 739.855 L673.816 758.3 L672.084 758.3 Q672.084 753.51 670.759 751.846 Q669.434 750.147 664.713 750.147 L658.735 750.147 L658.735 767.267 Q658.735 768.727 658.973 769.305 Q659.21 769.848 660.671 770.256 Q662.132 770.63 665.324 770.63 L667.634 770.63 L667.634 772.77 Q665.121 772.566 655.949 772.566 Q647.831 772.566 645.386 772.77 Z" fill="#000000" fill-rule="nonzero" fill-opacity="1" /><path clip-path="url(#clip080)" d="M690.732 772.77 L690.732 770.63 Q694.434 770.63 695.283 770.188 Q696.133 769.713 696.133 767.471 L696.133 731.296 Q696.133 728.714 695.215 728.069 Q694.332 727.423 690.732 727.423 L690.732 725.25 L700.718 724.502 L700.718 767.471 Q700.718 769.713 701.601 770.188 Q702.484 770.63 706.153 770.63 L706.153 772.77 Q705.304 772.77 703.537 772.702 Q701.771 772.634 700.48 772.6 Q699.19 772.566 698.442 772.566 Q697.627 772.566 690.732 772.77 Z" fill="#000000" fill-rule="nonzero" fill-opacity="1" /><path clip-path="url(#clip080)" d="M709.618 757.45 Q709.618 750.895 713.829 746.241 Q718.041 741.588 724.088 741.588 Q730.202 741.588 733.361 745.562 Q736.553 749.536 736.553 755.243 Q736.553 756.296 736.282 756.499 Q736.01 756.703 734.821 756.703 L715.392 756.703 Q715.392 763.802 717.498 767.131 Q720.419 771.785 725.344 771.785 Q726.024 771.785 726.839 771.649 Q727.654 771.513 729.318 770.935 Q730.983 770.324 732.443 768.727 Q733.904 767.131 734.753 764.617 Q734.957 763.632 735.636 763.666 Q736.553 763.666 736.553 764.482 Q736.553 765.093 735.874 766.486 Q735.229 767.844 733.972 769.475 Q732.715 771.105 730.27 772.328 Q727.858 773.551 724.937 773.551 Q718.823 773.551 714.203 768.931 Q709.618 764.278 709.618 757.45 M715.46 755.243 L731.968 755.243 Q731.968 753.782 731.696 752.152 Q731.458 750.521 730.711 748.279 Q729.998 746.003 728.299 744.577 Q726.601 743.15 724.088 743.15 Q722.967 743.15 721.744 743.626 Q720.555 744.101 719.094 745.256 Q717.634 746.411 716.615 749.027 Q715.596 751.642 715.46 755.243 Z" fill="#000000" fill-rule="nonzero" fill-opacity="1" /><path clip-path="url(#clip080)" d="M740.494 757.45 Q740.494 750.895 744.706 746.241 Q748.917 741.588 754.964 741.588 Q761.078 741.588 764.237 745.562 Q767.43 749.536 767.43 755.243 Q767.43 756.296 767.158 756.499 Q766.886 756.703 765.697 756.703 L746.268 756.703 Q746.268 763.802 748.374 767.131 Q751.295 771.785 756.22 771.785 Q756.9 771.785 757.715 771.649 Q758.53 771.513 760.195 770.935 Q761.859 770.324 763.32 768.727 Q764.78 767.131 765.629 764.617 Q765.833 763.632 766.512 763.666 Q767.43 763.666 767.43 764.482 Q767.43 765.093 766.75 766.486 Q766.105 767.844 764.848 769.475 Q763.591 771.105 761.146 772.328 Q758.734 773.551 755.813 773.551 Q749.699 773.551 745.079 768.931 Q740.494 764.278 740.494 757.45 M746.336 755.243 L762.844 755.243 Q762.844 753.782 762.572 752.152 Q762.335 750.521 761.587 748.279 Q760.874 746.003 759.176 744.577 Q757.477 743.15 754.964 743.15 Q753.843 743.15 752.62 743.626 Q751.431 744.101 749.97 745.256 Q748.51 746.411 747.491 749.027 Q746.472 751.642 746.336 755.243 Z" fill="#000000" fill-rule="nonzero" fill-opacity="1" /><path clip-path="url(#clip080)" d="M770.758 744.95 L770.758 743.422 Q773.951 743.286 776.057 741.044 Q778.197 738.768 778.91 735.983 Q779.658 733.198 779.726 729.971 L781.458 729.971 L781.458 742.777 L791.41 742.777 L791.41 744.95 L781.458 744.95 L781.458 764.278 Q781.458 771.785 786.145 771.785 Q788.15 771.785 789.474 769.746 Q790.799 767.674 790.799 764.006 L790.799 760.168 L792.531 760.168 L792.531 764.142 Q792.531 767.912 790.799 770.732 Q789.067 773.551 785.636 773.551 Q784.379 773.551 783.122 773.211 Q781.9 772.905 780.269 772.09 Q778.673 771.241 777.654 769.203 Q776.669 767.131 776.669 764.142 L776.669 744.95 L770.758 744.95 Z" fill="#000000" fill-rule="nonzero" fill-opacity="1" /><path clip-path="url(#clip080)" d="M821.845 771.852 L821.845 762.681 Q821.845 761.9 821.879 761.628 Q821.913 761.357 822.117 761.153 Q822.32 760.949 822.728 760.949 Q823.204 760.949 823.373 761.153 Q823.577 761.357 823.713 762.138 Q824.766 766.927 827.008 769.475 Q829.284 771.988 833.394 771.988 Q837.3 771.988 839.27 770.256 Q841.24 768.524 841.24 765.67 Q841.24 760.575 834.005 759.285 Q829.827 758.435 828.095 757.892 Q826.363 757.315 824.834 756.058 Q821.845 753.612 821.845 750.147 Q821.845 746.683 824.46 744.135 Q827.11 741.588 832.952 741.588 Q836.858 741.588 839.508 743.558 Q840.289 742.946 840.697 742.437 Q841.614 741.588 842.089 741.588 Q842.633 741.588 842.735 741.961 Q842.837 742.301 842.837 743.286 L842.837 750.283 Q842.837 751.065 842.803 751.336 Q842.769 751.608 842.565 751.812 Q842.361 751.982 841.919 751.982 Q841.138 751.982 841.104 751.336 Q840.561 742.912 832.952 742.912 Q828.842 742.912 827.008 744.509 Q825.174 746.071 825.174 748.211 Q825.174 749.4 825.717 750.317 Q826.295 751.2 827.008 751.744 Q827.755 752.253 829.114 752.763 Q830.473 753.238 831.288 753.408 Q832.137 753.578 833.733 753.918 Q839.304 754.971 841.648 757.247 Q844.569 760.168 844.569 763.87 Q844.569 767.98 841.784 770.765 Q838.998 773.551 833.394 773.551 Q828.876 773.551 825.717 770.528 Q825.31 770.935 825.004 771.309 Q824.698 771.649 824.562 771.785 Q824.46 771.92 824.426 772.022 Q824.392 772.09 824.324 772.158 Q822.932 773.551 822.592 773.551 Q822.049 773.551 821.947 773.177 Q821.845 772.837 821.845 771.852 Z" fill="#000000" fill-rule="nonzero" fill-opacity="1" /><path clip-path="url(#clip080)" d="M849.222 772.77 L849.222 770.63 Q852.925 770.63 853.774 770.188 Q854.623 769.713 854.623 767.471 L854.623 748.755 Q854.623 746.173 853.74 745.562 Q852.891 744.95 849.494 744.95 L849.494 742.777 L859.209 742.029 L859.209 767.539 Q859.209 769.611 859.956 770.12 Q860.703 770.63 864.1 770.63 L864.1 772.77 Q857.001 772.566 856.865 772.566 Q855.914 772.566 849.222 772.77 M852.144 729.903 Q852.144 728.51 853.197 727.389 Q854.283 726.235 855.812 726.235 Q857.341 726.235 858.427 727.288 Q859.514 728.307 859.514 729.937 Q859.514 731.533 858.427 732.586 Q857.341 733.605 855.812 733.605 Q854.216 733.605 853.163 732.485 Q852.144 731.364 852.144 729.903 Z" fill="#000000" fill-rule="nonzero" fill-opacity="1" /><path clip-path="url(#clip080)" d="M868.108 771.785 Q868.108 771.309 868.753 770.528 L888.149 744.305 L880.234 744.305 Q874.732 744.305 872.931 746.343 Q871.165 748.347 870.825 753.986 L869.093 753.986 L869.874 742.777 L892.123 742.777 Q892.904 742.777 893.21 742.811 Q893.516 742.845 893.719 743.082 Q893.923 743.286 893.923 743.694 Q893.923 744.101 893.312 744.883 L873.95 771.037 L882.171 771.037 Q887.945 771.037 889.881 768.626 Q891.851 766.214 892.327 759.76 L894.059 759.76 L892.87 772.77 L869.942 772.77 Q868.821 772.77 868.448 772.634 Q868.108 772.464 868.108 771.785 Z" fill="#000000" fill-rule="nonzero" fill-opacity="1" /><path clip-path="url(#clip080)" d="M898.984 757.45 Q898.984 750.895 903.196 746.241 Q907.408 741.588 913.454 741.588 Q919.568 741.588 922.727 745.562 Q925.92 749.536 925.92 755.243 Q925.92 756.296 925.648 756.499 Q925.377 756.703 924.188 756.703 L904.759 756.703 Q904.759 763.802 906.865 767.131 Q909.786 771.785 914.711 771.785 Q915.39 771.785 916.206 771.649 Q917.021 771.513 918.685 770.935 Q920.35 770.324 921.81 768.727 Q923.271 767.131 924.12 764.617 Q924.324 763.632 925.003 763.666 Q925.92 763.666 925.92 764.482 Q925.92 765.093 925.241 766.486 Q924.595 767.844 923.339 769.475 Q922.082 771.105 919.636 772.328 Q917.225 773.551 914.303 773.551 Q908.189 773.551 903.57 768.931 Q898.984 764.278 898.984 757.45 M904.827 755.243 L921.335 755.243 Q921.335 753.782 921.063 752.152 Q920.825 750.521 920.078 748.279 Q919.364 746.003 917.666 744.577 Q915.968 743.15 913.454 743.15 Q912.333 743.15 911.11 743.626 Q909.922 744.101 908.461 745.256 Q907 746.411 905.981 749.027 Q904.962 751.642 904.827 755.243 Z" fill="#000000" fill-rule="nonzero" fill-opacity="1" /><polyline clip-path="url(#clip082)" style="stroke:#000000; stroke-linecap:round; stroke-linejoin:round; stroke-width:2; stroke-opacity:0.1; fill:none" points="218.55,531.219 1352.76,531.219 "/>
<polyline clip-path="url(#clip082)" style="stroke:#000000; stroke-linecap:round; stroke-linejoin:round; stroke-width:2; stroke-opacity:0.1; fill:none" points="218.55,382.304 1352.76,382.304 "/>
<polyline clip-path="url(#clip082)" style="stroke:#000000; stroke-linecap:round; stroke-linejoin:round; stroke-width:2; stroke-opacity:0.1; fill:none" points="218.55,233.388 1352.76,233.388 "/>
<polyline clip-path="url(#clip082)" style="stroke:#000000; stroke-linecap:round; stroke-linejoin:round; stroke-width:2; stroke-opacity:0.1; fill:none" points="218.55,84.4729 1352.76,84.4729 "/>
<polyline clip-path="url(#clip080)" style="stroke:#000000; stroke-linecap:round; stroke-linejoin:round; stroke-width:4; stroke-opacity:1; fill:none" points="218.55,642.906 218.55,47.2441 "/>
<polyline clip-path="url(#clip080)" style="stroke:#000000; stroke-linecap:round; stroke-linejoin:round; stroke-width:4; stroke-opacity:1; fill:none" points="218.55,531.219 237.448,531.219 "/>
<polyline clip-path="url(#clip080)" style="stroke:#000000; stroke-linecap:round; stroke-linejoin:round; stroke-width:4; stroke-opacity:1; fill:none" points="218.55,382.304 237.448,382.304 "/>
<polyline clip-path="url(#clip080)" style="stroke:#000000; stroke-linecap:round; stroke-linejoin:round; stroke-width:4; stroke-opacity:1; fill:none" points="218.55,233.388 237.448,233.388 "/>
<polyline clip-path="url(#clip080)" style="stroke:#000000; stroke-linecap:round; stroke-linejoin:round; stroke-width:4; stroke-opacity:1; fill:none" points="218.55,84.4729 237.448,84.4729 "/>
<path clip-path="url(#clip080)" d="M145.871 535.135 Q146.167 535.431 146.167 535.851 Q146.167 536.271 145.871 536.567 Q145.574 536.864 145.154 536.864 L113.484 536.864 Q113.064 536.864 112.768 536.567 Q112.472 536.271 112.472 535.851 Q112.472 535.431 112.768 535.135 Q113.064 534.838 113.484 534.838 L145.154 534.838 Q145.574 534.838 145.871 535.135 Z" fill="#000000" fill-rule="nonzero" fill-opacity="1" /><path clip-path="url(#clip080)" d="M151.108 540.866 Q151.108 535.209 158.395 531.553 Q155.258 529.428 154.69 528.81 Q152.466 526.34 152.466 523.252 Q152.466 519.72 155.134 517.274 Q157.827 514.804 161.631 514.804 Q165.263 514.804 168.005 516.903 Q170.747 519.003 170.747 522.338 Q170.747 527.032 164.62 530.194 Q168.672 532.714 169.635 533.776 Q172.105 536.518 172.105 540.001 Q172.105 544.052 168.993 546.844 Q165.88 549.611 161.582 549.611 Q157.382 549.611 154.245 547.165 Q151.108 544.719 151.108 540.866 M153.627 540.866 Q153.627 544.003 155.974 546.103 Q158.346 548.203 161.631 548.203 Q164.818 548.203 167.19 546.375 Q169.586 544.546 169.586 541.829 Q169.586 540.767 169.215 539.853 Q168.869 538.939 168.153 538.222 Q167.461 537.481 167.017 537.16 Q166.597 536.814 165.781 536.246 L159.556 532.318 Q153.627 535.604 153.627 540.866 M154.69 521.276 Q154.69 523.697 157.234 525.377 L163.509 529.428 Q168.524 526.488 168.524 522.338 Q168.524 519.646 166.473 517.867 Q164.423 516.064 161.582 516.064 Q158.79 516.064 156.74 517.546 Q154.69 519.003 154.69 521.276 Z" fill="#000000" fill-rule="nonzero" fill-opacity="1" /><path clip-path="url(#clip080)" d="M176.256 532.318 Q176.256 524.883 178.133 520.831 Q180.752 514.804 186.928 514.804 Q188.237 514.804 189.595 515.174 Q190.979 515.52 192.708 516.879 Q194.462 518.237 195.524 520.461 Q197.55 524.759 197.55 532.318 Q197.55 539.705 195.673 543.731 Q192.93 549.611 186.878 549.611 Q184.605 549.611 182.283 548.45 Q179.986 547.289 178.528 544.497 Q176.256 540.322 176.256 532.318 M180.455 531.701 Q180.455 539.334 180.999 542.373 Q181.616 545.658 183.296 547.091 Q185.001 548.499 186.878 548.499 Q188.904 548.499 190.584 546.992 Q192.288 545.461 192.807 542.175 Q193.375 538.939 193.35 531.701 Q193.35 524.66 192.856 521.844 Q192.189 518.559 190.411 517.249 Q188.657 515.915 186.878 515.915 Q186.211 515.915 185.495 516.113 Q184.803 516.311 183.79 516.879 Q182.777 517.447 181.987 518.855 Q181.221 520.263 180.85 522.388 Q180.455 525.13 180.455 531.701 Z" fill="#000000" fill-rule="nonzero" fill-opacity="1" /><path clip-path="url(#clip080)" d="M145.871 386.219 Q146.167 386.516 146.167 386.936 Q146.167 387.356 145.871 387.652 Q145.574 387.948 145.154 387.948 L113.484 387.948 Q113.064 387.948 112.768 387.652 Q112.472 387.356 112.472 386.936 Q112.472 386.516 112.768 386.219 Q113.064 385.923 113.484 385.923 L145.154 385.923 Q145.574 385.923 145.871 386.219 Z" fill="#000000" fill-rule="nonzero" fill-opacity="1" /><path clip-path="url(#clip080)" d="M151.108 383.601 Q151.108 375.646 155.159 370.78 Q159.21 365.888 164.423 365.888 Q167.461 365.888 169.141 367.445 Q170.846 368.976 170.846 371.348 Q170.846 372.657 170.08 373.225 Q169.314 373.793 168.524 373.793 Q167.609 373.793 166.893 373.176 Q166.177 372.558 166.177 371.447 Q166.177 369.174 168.968 369.174 Q167.659 367.148 164.522 367.148 Q163.558 367.148 162.57 367.445 Q161.582 367.716 160.297 368.655 Q159.013 369.594 158.025 371.076 Q157.036 372.558 156.345 375.35 Q155.653 378.141 155.653 381.773 L155.653 382.983 Q157.728 377.968 161.977 377.993 Q166.226 377.993 169.166 381.229 Q172.105 384.465 172.105 389.258 Q172.105 394.174 169.042 397.434 Q165.979 400.695 161.681 400.695 Q159.754 400.695 158 399.88 Q156.271 399.09 154.64 397.262 Q153.035 395.434 152.071 391.926 Q151.108 388.418 151.108 383.601 M155.752 388.146 Q155.752 393.111 156.666 395.483 Q156.814 395.878 157.135 396.422 Q157.481 396.965 158.049 397.682 Q158.642 398.373 159.606 398.843 Q160.569 399.287 161.681 399.287 Q165.065 399.287 166.695 396.002 Q167.56 394.174 167.56 389.208 Q167.56 384.144 166.646 382.291 Q165.09 379.154 161.928 379.154 Q159.803 379.154 158.321 380.611 Q156.864 382.069 156.295 384.021 Q155.752 385.972 155.752 388.146 Z" fill="#000000" fill-rule="nonzero" fill-opacity="1" /><path clip-path="url(#clip080)" d="M176.256 383.403 Q176.256 375.967 178.133 371.916 Q180.752 365.888 186.928 365.888 Q188.237 365.888 189.595 366.259 Q190.979 366.605 192.708 367.963 Q194.462 369.322 195.524 371.545 Q197.55 375.844 197.55 383.403 Q197.55 390.789 195.673 394.816 Q192.93 400.695 186.878 400.695 Q184.605 400.695 182.283 399.534 Q179.986 398.373 178.528 395.582 Q176.256 391.407 176.256 383.403 M180.455 382.785 Q180.455 390.419 180.999 393.457 Q181.616 396.743 183.296 398.176 Q185.001 399.584 186.878 399.584 Q188.904 399.584 190.584 398.077 Q192.288 396.545 192.807 393.26 Q193.375 390.023 193.35 382.785 Q193.35 375.745 192.856 372.929 Q192.189 369.643 190.411 368.334 Q188.657 367 186.878 367 Q186.211 367 185.495 367.198 Q184.803 367.395 183.79 367.963 Q182.777 368.532 181.987 369.94 Q181.221 371.348 180.85 373.472 Q180.455 376.214 180.455 382.785 Z" fill="#000000" fill-rule="nonzero" fill-opacity="1" /><path clip-path="url(#clip080)" d="M145.871 237.304 Q146.167 237.6 146.167 238.02 Q146.167 238.44 145.871 238.737 Q145.574 239.033 145.154 239.033 L113.484 239.033 Q113.064 239.033 112.768 238.737 Q112.472 238.44 112.472 238.02 Q112.472 237.6 112.768 237.304 Q113.064 237.007 113.484 237.007 L145.154 237.007 Q145.574 237.007 145.871 237.304 Z" fill="#000000" fill-rule="nonzero" fill-opacity="1" /><path clip-path="url(#clip080)" d="M150.391 242.319 L150.391 240.762 L165.93 217.022 Q166.325 216.405 166.942 216.429 Q167.511 216.429 167.634 216.652 Q167.758 216.874 167.758 217.739 L167.758 240.762 L172.822 240.762 L172.822 242.319 L167.758 242.319 L167.758 246.716 Q167.758 248.173 168.351 248.643 Q168.968 249.112 171.587 249.112 L172.649 249.112 L172.649 250.668 Q170.574 250.52 165.781 250.52 Q161.014 250.52 158.939 250.668 L158.939 249.112 L160.001 249.112 Q162.619 249.112 163.237 248.667 Q163.855 248.198 163.855 246.716 L163.855 242.319 L150.391 242.319 M151.824 240.762 L164.151 240.762 L164.151 221.889 L151.824 240.762 Z" fill="#000000" fill-rule="nonzero" fill-opacity="1" /><path clip-path="url(#clip080)" d="M176.256 234.488 Q176.256 227.052 178.133 223.001 Q180.752 216.973 186.928 216.973 Q188.237 216.973 189.595 217.343 Q190.979 217.689 192.708 219.048 Q194.462 220.407 195.524 222.63 Q197.55 226.928 197.55 234.488 Q197.55 241.874 195.673 245.901 Q192.93 251.78 186.878 251.78 Q184.605 251.78 182.283 250.619 Q179.986 249.458 178.528 246.666 Q176.256 242.491 176.256 234.488 M180.455 233.87 Q180.455 241.503 180.999 244.542 Q181.616 247.827 183.296 249.26 Q185.001 250.668 186.878 250.668 Q188.904 250.668 190.584 249.161 Q192.288 247.63 192.807 244.344 Q193.375 241.108 193.35 233.87 Q193.35 226.83 192.856 224.013 Q192.189 220.728 190.411 219.419 Q188.657 218.085 186.878 218.085 Q186.211 218.085 185.495 218.282 Q184.803 218.48 183.79 219.048 Q182.777 219.616 181.987 221.024 Q181.221 222.432 180.85 224.557 Q180.455 227.299 180.455 233.87 Z" fill="#000000" fill-rule="nonzero" fill-opacity="1" /><path clip-path="url(#clip080)" d="M145.871 88.3884 Q146.167 88.6849 146.167 89.1048 Q146.167 89.5248 145.871 89.8212 Q145.574 90.1177 145.154 90.1177 L113.484 90.1177 Q113.064 90.1177 112.768 89.8212 Q112.472 89.5248 112.472 89.1048 Q112.472 88.6849 112.768 88.3884 Q113.064 88.092 113.484 88.092 L145.154 88.092 Q145.574 88.092 145.871 88.3884 Z" fill="#000000" fill-rule="nonzero" fill-opacity="1" /><path clip-path="url(#clip080)" d="M151.503 101.753 Q151.503 100.839 151.577 100.567 Q151.676 100.295 152.071 99.8755 L161.779 89.0554 Q167.091 83.0772 167.091 77.8648 Q167.091 74.4804 165.312 72.0595 Q163.558 69.6386 160.322 69.6386 Q158.099 69.6386 156.221 70.9973 Q154.344 72.3559 153.479 74.7769 Q153.627 74.7275 154.146 74.7275 Q155.406 74.7275 156.098 75.518 Q156.814 76.3085 156.814 77.3707 Q156.814 78.7294 155.925 79.3964 Q155.06 80.0387 154.196 80.0387 Q153.85 80.0387 153.38 79.9646 Q152.936 79.8905 152.219 79.1988 Q151.503 78.4824 151.503 77.2225 Q151.503 73.6899 154.171 70.8737 Q156.864 68.0576 160.964 68.0576 Q165.609 68.0576 168.647 70.8243 Q171.71 73.5664 171.71 77.8648 Q171.71 79.3717 171.241 80.7551 Q170.796 82.1138 170.179 83.176 Q169.586 84.2383 167.955 85.9428 Q166.325 87.6473 165.016 88.8578 Q163.706 90.0682 160.767 92.6374 L155.406 97.8498 L164.522 97.8498 Q168.968 97.8498 169.314 97.4546 Q169.808 96.7382 170.426 92.9585 L171.71 92.9585 L170.277 101.753 L151.503 101.753 Z" fill="#000000" fill-rule="nonzero" fill-opacity="1" /><path clip-path="url(#clip080)" d="M176.256 85.5722 Q176.256 78.1365 178.133 74.0852 Q180.752 68.0576 186.928 68.0576 Q188.237 68.0576 189.595 68.4281 Q190.979 68.774 192.708 70.1326 Q194.462 71.4913 195.524 73.7146 Q197.55 78.013 197.55 85.5722 Q197.55 92.9585 195.673 96.9852 Q192.93 102.865 186.878 102.865 Q184.605 102.865 182.283 101.704 Q179.986 100.542 178.528 97.751 Q176.256 93.5761 176.256 85.5722 M180.455 84.9547 Q180.455 92.588 180.999 95.6265 Q181.616 98.912 183.296 100.345 Q185.001 101.753 186.878 101.753 Q188.904 101.753 190.584 100.246 Q192.288 98.7144 192.807 95.4289 Q193.375 92.1927 193.35 84.9547 Q193.35 77.9142 192.856 75.098 Q192.189 71.8125 190.411 70.5032 Q188.657 69.1692 186.878 69.1692 Q186.211 69.1692 185.495 69.3668 Q184.803 69.5645 183.79 70.1326 Q182.777 70.7008 181.987 72.1089 Q181.221 73.517 180.85 75.6415 Q180.455 78.3836 180.455 84.9547 Z" fill="#000000" fill-rule="nonzero" fill-opacity="1" /><path clip-path="url(#clip080)" d="M77.2156 541.778 L75.0757 541.778 Q75.0757 539.265 74.6001 537.668 Q74.0906 536.072 73.1735 535.494 Q72.2224 534.883 71.611 534.747 Q70.9656 534.611 69.9127 534.611 L35.1303 534.611 Q33.1263 534.611 32.5149 535.494 Q31.8695 536.344 31.8695 540.114 L31.8695 541.778 L29.6956 541.778 L29.6956 530.026 Q29.6956 528.769 29.9334 528.429 Q30.1372 528.09 31.2241 527.58 L70.1844 512.499 L31.0203 497.281 Q30.0353 496.942 29.8654 496.636 Q29.6956 496.296 29.6956 494.972 L29.6956 483.219 L31.8695 483.219 L31.8695 484.883 Q31.8695 488.654 32.5149 489.537 Q33.1263 490.386 35.1303 490.386 L71.7808 490.386 Q73.7849 490.386 74.4303 489.537 Q75.0757 488.654 75.0757 484.883 L75.0757 483.219 L77.2156 483.219 Q77.0118 485.801 77.0118 493.171 Q77.0118 500.61 77.2156 503.192 L75.0757 503.192 L75.0757 501.493 Q75.0757 497.723 74.4642 496.874 Q73.8189 496.025 71.7808 496.025 L31.8695 496.025 L31.8695 496.093 L75.8909 513.178 Q77.2156 513.654 77.2156 514.435 Q77.2156 515.284 75.6871 515.828 L32.413 532.607 L32.413 532.675 L69.9127 532.675 Q70.9656 532.675 71.611 532.539 Q72.2224 532.403 73.1735 531.826 Q74.0906 531.215 74.6001 529.618 Q75.0757 528.022 75.0757 525.508 L77.2156 525.508 Q77.0118 532.811 77.0118 533.66 Q77.0118 534.475 77.2156 541.778 Z" fill="#000000" fill-rule="nonzero" fill-opacity="1" /><path clip-path="url(#clip080)" d="M61.8964 478.735 Q55.3408 478.735 50.6873 474.524 Q46.0338 470.312 46.0338 464.265 Q46.0338 458.151 50.0079 454.992 Q53.9821 451.8 59.6886 451.8 Q60.7415 451.8 60.9453 452.071 Q61.1491 452.343 61.1491 453.532 L61.1491 472.961 Q68.2483 472.961 71.577 470.855 Q76.2305 467.934 76.2305 463.009 Q76.2305 462.329 76.0947 461.514 Q75.9588 460.699 75.3814 459.035 Q74.77 457.37 73.1735 455.91 Q71.577 454.449 69.0635 453.6 Q68.0784 453.396 68.1124 452.717 Q68.1124 451.8 68.9276 451.8 Q69.539 451.8 70.9317 452.479 Q72.2904 453.124 73.9208 454.381 Q75.5512 455.638 76.774 458.083 Q77.9968 460.495 77.9968 463.416 Q77.9968 469.53 73.3773 474.15 Q68.7238 478.735 61.8964 478.735 M59.6886 472.893 L59.6886 456.385 Q58.228 456.385 56.5975 456.657 Q54.9671 456.895 52.7253 457.642 Q50.4495 458.355 49.0229 460.054 Q47.5963 461.752 47.5963 464.265 Q47.5963 465.386 48.0718 466.609 Q48.5473 467.798 49.7022 469.259 Q50.8571 470.719 53.4726 471.738 Q56.088 472.757 59.6886 472.893 Z" fill="#000000" fill-rule="nonzero" fill-opacity="1" /><path clip-path="url(#clip080)" d="M70.592 446.874 Q64.6817 446.874 61.5567 439.911 Q59.5527 435.733 59.0432 427.105 L56.4956 427.105 Q52.1818 427.105 49.906 429.381 Q47.5963 431.623 47.5963 434.476 Q47.5963 439.571 50.7892 442.017 Q50.8571 439.945 51.9101 439.198 Q52.9291 438.45 53.9821 438.45 Q55.3747 438.45 56.2918 439.334 Q57.175 440.183 57.175 441.643 Q57.175 443.036 56.3258 443.953 Q55.4427 444.87 53.9141 444.87 Q50.5174 444.87 48.2756 441.813 Q46.0338 438.722 46.0338 434.34 Q46.0338 428.634 49.8721 424.83 Q51.0609 423.641 52.5894 423.063 Q54.1179 422.452 55.137 422.384 Q56.122 422.316 58.0921 422.316 L71.9846 422.316 Q72.3923 422.316 73.0716 422.18 Q73.7509 422.044 74.6341 421.433 Q75.4833 420.788 75.4833 419.735 Q75.4833 417.221 71.0336 417.255 L67.1274 417.255 L67.1274 415.489 L71.0336 415.489 Q74.736 415.489 76.1966 417.459 Q77.6232 419.395 77.6232 421.195 Q77.6232 423.505 75.9248 424.965 Q74.2265 426.426 71.9167 426.63 Q74.5662 427.683 76.2985 430.095 Q77.9968 432.472 77.9968 435.733 Q77.9968 438.247 77.3515 440.624 Q76.74 442.968 75.0077 444.938 Q73.2414 446.874 70.592 446.874 M70.5241 441.507 Q73.1056 441.507 74.77 439.673 Q76.4343 437.839 76.4343 435.258 Q76.4343 432.336 74.1925 429.721 Q71.9167 427.105 67.467 427.105 L60.5038 427.105 Q60.7755 434.816 63.8665 438.179 Q66.9235 441.507 70.5241 441.507 Z" fill="#000000" fill-rule="nonzero" fill-opacity="1" /><path clip-path="url(#clip080)" d="M77.2156 412.771 L75.0757 412.771 Q75.0757 409.069 74.6341 408.22 Q74.1585 407.371 71.9167 407.371 L53.2688 407.371 Q50.6873 407.371 50.0419 408.288 Q49.3965 409.171 49.3965 412.771 L47.2226 412.771 L46.4753 402.989 L53.7783 402.989 Q46.4753 399.728 46.4753 392.697 Q46.4753 387.466 49.0568 385.394 Q50.7892 383.865 52.7253 383.56 Q54.6614 383.22 59.6886 383.22 L72.9697 383.22 Q74.4303 383.152 74.77 382.031 Q75.0757 380.91 75.0757 377.785 L77.2156 377.785 Q77.0118 384.884 77.0118 385.598 Q77.0118 386.141 77.2156 393.444 L75.0757 393.444 Q75.0757 389.742 74.6341 388.892 Q74.1585 388.009 71.9167 388.009 L55.7144 388.009 Q52.1818 388.009 50.1098 389.096 Q48.0039 390.183 48.0039 393.172 Q48.0039 396.773 51.0269 399.66 Q54.05 402.547 59.1451 402.547 L71.9167 402.547 Q74.1585 402.547 74.6341 401.698 Q75.0757 400.815 75.0757 397.146 L77.2156 397.146 Q77.0118 404.246 77.0118 404.925 Q77.0118 405.468 77.2156 412.771 Z" fill="#000000" fill-rule="nonzero" fill-opacity="1" /><path clip-path="url(#clip080)" d="M77.2156 351.359 L75.0757 351.359 Q75.0757 347.656 74.6341 346.807 Q74.1585 345.924 71.9167 345.924 L53.2688 345.924 Q50.6873 345.924 50.0419 346.841 Q49.3965 347.724 49.3965 351.359 L47.2226 351.359 L46.4753 341.678 L54.1179 341.678 Q51.1288 340.693 48.8191 338.621 Q46.4753 336.515 46.4753 333.118 Q46.4753 330.877 47.7321 329.45 Q48.9889 327.989 50.7212 327.989 Q52.2498 327.989 53.031 328.94 Q53.7783 329.858 53.7783 330.978 Q53.7783 332.235 52.997 333.118 Q52.1818 333.968 50.7892 333.968 Q49.94 333.968 49.2946 333.594 Q48.6153 333.186 48.3775 332.881 Q48.1397 332.575 48.0718 332.371 Q48.0039 332.507 48.0039 333.118 Q48.0039 336.957 51.8421 339.165 Q55.6465 341.338 61.0812 341.338 L71.7808 341.338 Q73.7849 341.338 74.4303 340.523 Q75.0757 339.674 75.0757 336.04 L75.0757 334.579 L77.2156 334.579 Q77.0118 337.364 77.0118 343.41 Q77.0118 344.26 77.0458 345.584 Q77.0797 346.909 77.1477 348.641 Q77.2156 350.374 77.2156 351.359 Z" fill="#000000" fill-rule="nonzero" fill-opacity="1" /><path clip-path="url(#clip080)" d="M61.8964 324.185 Q55.3408 324.185 50.6873 319.973 Q46.0338 315.761 46.0338 309.715 Q46.0338 303.601 50.0079 300.442 Q53.9821 297.249 59.6886 297.249 Q60.7415 297.249 60.9453 297.521 Q61.1491 297.793 61.1491 298.981 L61.1491 318.411 Q68.2483 318.411 71.577 316.305 Q76.2305 313.384 76.2305 308.458 Q76.2305 307.779 76.0947 306.964 Q75.9588 306.149 75.3814 304.484 Q74.77 302.82 73.1735 301.359 Q71.577 299.899 69.0635 299.049 Q68.0784 298.846 68.1124 298.166 Q68.1124 297.249 68.9276 297.249 Q69.539 297.249 70.9317 297.928 Q72.2904 298.574 73.9208 299.831 Q75.5512 301.087 76.774 303.533 Q77.9968 305.945 77.9968 308.866 Q77.9968 314.98 73.3773 319.599 Q68.7238 324.185 61.8964 324.185 M59.6886 318.343 L59.6886 301.835 Q58.228 301.835 56.5975 302.106 Q54.9671 302.344 52.7253 303.091 Q50.4495 303.805 49.0229 305.503 Q47.5963 307.201 47.5963 309.715 Q47.5963 310.836 48.0718 312.059 Q48.5473 313.248 49.7022 314.708 Q50.8571 316.169 53.4726 317.188 Q56.088 318.207 59.6886 318.343 Z" fill="#000000" fill-rule="nonzero" fill-opacity="1" /><path clip-path="url(#clip080)" d="M49.3965 293.988 L47.2226 293.988 Q47.4264 290.218 47.4264 287.535 Q47.4264 286.21 47.2226 279.926 L49.3965 279.926 Q49.3965 284.036 51.2647 284.036 Q51.6723 284.036 52.5215 283.696 L71.1015 277.073 L54.2538 271.094 Q50.8571 272.351 50.4495 272.691 Q49.3965 273.54 49.3965 277.073 L47.2226 277.073 Q47.4264 273.948 47.4264 270.891 Q47.4264 269.702 47.2226 263.656 L49.3965 263.656 Q49.3965 267.766 51.2647 267.766 Q51.5364 267.766 52.5894 267.426 L71.9846 260.531 L54.1859 254.213 Q53.2688 253.873 52.7253 253.839 Q51.1968 253.839 50.3476 254.926 Q49.4644 256.013 49.3965 257.881 L47.2226 257.881 Q47.4264 253.907 47.4264 251.427 Q47.4264 248.642 47.2226 246.332 L49.3965 246.332 Q49.5324 250.646 53.8462 252.175 L76.6721 260.327 Q77.9289 261.108 77.9968 261.72 Q77.9968 262.637 76.6721 263.112 L56.9032 270.211 L76.6042 277.242 Q77.4534 277.514 77.7251 277.752 Q77.9968 277.99 77.9968 278.635 Q77.9968 279.247 77.6232 279.518 Q77.2835 279.79 76.4343 280.096 L51.8082 288.859 Q50.2117 289.471 49.8041 290.388 Q49.3965 291.271 49.3965 293.988 Z" fill="#000000" fill-rule="nonzero" fill-opacity="1" /><path clip-path="url(#clip080)" d="M70.592 244.057 Q64.6817 244.057 61.5567 237.093 Q59.5527 232.915 59.0432 224.288 L56.4956 224.288 Q52.1818 224.288 49.906 226.564 Q47.5963 228.805 47.5963 231.659 Q47.5963 236.754 50.7892 239.199 Q50.8571 237.127 51.9101 236.38 Q52.9291 235.633 53.9821 235.633 Q55.3747 235.633 56.2918 236.516 Q57.175 237.365 57.175 238.826 Q57.175 240.218 56.3258 241.135 Q55.4427 242.053 53.9141 242.053 Q50.5174 242.053 48.2756 238.996 Q46.0338 235.905 46.0338 231.523 Q46.0338 225.816 49.8721 222.012 Q51.0609 220.823 52.5894 220.246 Q54.1179 219.634 55.137 219.566 Q56.122 219.498 58.0921 219.498 L71.9846 219.498 Q72.3923 219.498 73.0716 219.363 Q73.7509 219.227 74.6341 218.615 Q75.4833 217.97 75.4833 216.917 Q75.4833 214.403 71.0336 214.437 L67.1274 214.437 L67.1274 212.671 L71.0336 212.671 Q74.736 212.671 76.1966 214.641 Q77.6232 216.577 77.6232 218.377 Q77.6232 220.687 75.9248 222.148 Q74.2265 223.608 71.9167 223.812 Q74.5662 224.865 76.2985 227.277 Q77.9968 229.655 77.9968 232.915 Q77.9968 235.429 77.3515 237.807 Q76.74 240.15 75.0077 242.12 Q73.2414 244.057 70.592 244.057 M70.5241 238.69 Q73.1056 238.69 74.77 236.856 Q76.4343 235.021 76.4343 232.44 Q76.4343 229.519 74.1925 226.903 Q71.9167 224.288 67.467 224.288 L60.5038 224.288 Q60.7755 231.998 63.8665 235.361 Q66.9235 238.69 70.5241 238.69 Z" fill="#000000" fill-rule="nonzero" fill-opacity="1" /><path clip-path="url(#clip080)" d="M77.2156 210.259 L75.0757 210.259 Q75.0757 206.557 74.6341 205.708 Q74.1585 204.825 71.9167 204.825 L53.2688 204.825 Q50.6873 204.825 50.0419 205.742 Q49.3965 206.625 49.3965 210.259 L47.2226 210.259 L46.4753 200.579 L54.1179 200.579 Q51.1288 199.594 48.8191 197.522 Q46.4753 195.416 46.4753 192.019 Q46.4753 189.777 47.7321 188.351 Q48.9889 186.89 50.7212 186.89 Q52.2498 186.89 53.031 187.841 Q53.7783 188.758 53.7783 189.879 Q53.7783 191.136 52.997 192.019 Q52.1818 192.868 50.7892 192.868 Q49.94 192.868 49.2946 192.495 Q48.6153 192.087 48.3775 191.781 Q48.1397 191.476 48.0718 191.272 Q48.0039 191.408 48.0039 192.019 Q48.0039 195.857 51.8421 198.065 Q55.6465 200.239 61.0812 200.239 L71.7808 200.239 Q73.7849 200.239 74.4303 199.424 Q75.0757 198.575 75.0757 194.94 L75.0757 193.48 L77.2156 193.48 Q77.0118 196.265 77.0118 202.311 Q77.0118 203.16 77.0458 204.485 Q77.0797 205.81 77.1477 207.542 Q77.2156 209.274 77.2156 210.259 Z" fill="#000000" fill-rule="nonzero" fill-opacity="1" /><path clip-path="url(#clip080)" d="M62.2701 182.644 Q55.6465 182.644 51.0609 178.025 Q46.4753 173.405 46.4753 167.155 Q46.4753 161.856 50.7892 158.392 L35.7417 158.392 Q33.1602 158.392 32.5149 159.309 Q31.8695 160.192 31.8695 163.792 L29.6956 163.792 L28.9483 153.772 L71.1694 153.772 Q73.7509 153.772 74.4303 152.889 Q75.0757 151.972 75.0757 148.371 L77.2156 148.371 L77.9968 158.595 L73.3773 158.595 Q77.9629 162.196 77.9968 167.902 Q77.9968 173.881 73.4113 178.262 Q68.8257 182.644 62.2701 182.644 M62.338 176.87 Q68.7917 176.87 71.9846 174.866 Q76.4343 172.08 76.4343 167.563 Q76.4343 162.4 71.577 159.343 Q70.3882 158.561 68.9955 158.595 L54.7294 158.595 Q53.3367 158.595 52.1818 159.343 Q48.0039 162.196 48.0039 166.849 Q48.0039 171.707 52.4536 174.73 Q55.7823 176.87 62.338 176.87 Z" fill="#000000" fill-rule="nonzero" fill-opacity="1" /><path clip-path="url(#clip082)" d="M315.768 131.286 L315.768 -64.4424 L445.391 -64.4424 L445.391 131.286 L315.768 131.286 L315.768 131.286  Z" fill="#34495e" fill-rule="evenodd" fill-opacity="1"/>
<polyline clip-path="url(#clip082)" style="stroke:#ffffff; stroke-linecap:round; stroke-linejoin:round; stroke-width:4; stroke-opacity:1; fill:none" points="315.768,131.286 315.768,-64.4424 445.391,-64.4424 445.391,131.286 315.768,131.286 "/>
<path clip-path="url(#clip082)" d="M477.797 156.783 L477.797 -64.4424 L607.421 -64.4424 L607.421 156.783 L477.797 156.783 L477.797 156.783  Z" fill="#34495e" fill-rule="evenodd" fill-opacity="1"/>
<polyline clip-path="url(#clip082)" style="stroke:#ffffff; stroke-linecap:round; stroke-linejoin:round; stroke-width:4; stroke-opacity:1; fill:none" points="477.797,156.783 477.797,-64.4424 607.421,-64.4424 607.421,156.783 477.797,156.783 "/>
<path clip-path="url(#clip082)" d="M639.826 397.616 L639.826 -64.4424 L769.45 -64.4424 L769.45 397.616 L639.826 397.616 L639.826 397.616  Z" fill="#34495e" fill-rule="evenodd" fill-opacity="1"/>
<polyline clip-path="url(#clip082)" style="stroke:#ffffff; stroke-linecap:round; stroke-linejoin:round; stroke-width:4; stroke-opacity:1; fill:none" points="639.826,397.616 639.826,-64.4424 769.45,-64.4424 769.45,397.616 639.826,397.616 "/>
<path clip-path="url(#clip082)" d="M801.856 545.498 L801.856 -64.4424 L931.479 -64.4424 L931.479 545.498 L801.856 545.498 L801.856 545.498  Z" fill="#34495e" fill-rule="evenodd" fill-opacity="1"/>
<polyline clip-path="url(#clip082)" style="stroke:#ffffff; stroke-linecap:round; stroke-linejoin:round; stroke-width:4; stroke-opacity:1; fill:none" points="801.856,545.498 801.856,-64.4424 931.479,-64.4424 931.479,545.498 801.856,545.498 "/>
<path clip-path="url(#clip082)" d="M963.885 544.299 L963.885 -64.4424 L1093.51 -64.4424 L1093.51 544.299 L963.885 544.299 L963.885 544.299  Z" fill="#34495e" fill-rule="evenodd" fill-opacity="1"/>
<polyline clip-path="url(#clip082)" style="stroke:#ffffff; stroke-linecap:round; stroke-linejoin:round; stroke-width:4; stroke-opacity:1; fill:none" points="963.885,544.299 963.885,-64.4424 1093.51,-64.4424 1093.51,544.299 963.885,544.299 "/>
<path clip-path="url(#clip082)" d="M1125.91 541.714 L1125.91 -64.4424 L1255.54 -64.4424 L1255.54 541.714 L1125.91 541.714 L1125.91 541.714  Z" fill="#34495e" fill-rule="evenodd" fill-opacity="1"/>
<polyline clip-path="url(#clip082)" style="stroke:#ffffff; stroke-linecap:round; stroke-linejoin:round; stroke-width:4; stroke-opacity:1; fill:none" points="1125.91,541.714 1125.91,-64.4424 1255.54,-64.4424 1255.54,541.714 1125.91,541.714 "/>
<circle clip-path="url(#clip082)" style="fill:#34495e; stroke:none; fill-opacity:0" cx="380.579" cy="131.286" r="2"/>
<circle clip-path="url(#clip082)" style="fill:#34495e; stroke:none; fill-opacity:0" cx="542.609" cy="156.783" r="2"/>
<circle clip-path="url(#clip082)" style="fill:#34495e; stroke:none; fill-opacity:0" cx="704.638" cy="397.616" r="2"/>
<circle clip-path="url(#clip082)" style="fill:#34495e; stroke:none; fill-opacity:0" cx="866.668" cy="545.498" r="2"/>
<circle clip-path="url(#clip082)" style="fill:#34495e; stroke:none; fill-opacity:0" cx="1028.7" cy="544.299" r="2"/>
<circle clip-path="url(#clip082)" style="fill:#34495e; stroke:none; fill-opacity:0" cx="1190.73" cy="541.714" r="2"/>
</svg>
