<?xml version="1.0" encoding="utf-8"?>
<svg xmlns="http://www.w3.org/2000/svg" xmlns:xlink="http://www.w3.org/1999/xlink" width="300" height="250" viewBox="0 0 1200 1000">
<defs>
  <clipPath id="clip270">
    <rect x="0" y="0" width="1200" height="1000"/>
  </clipPath>
</defs>
<path clip-path="url(#clip270)" d="M0 1000 L1200 1000 L1200 0 L0 0  Z" fill="#ffffff" fill-rule="evenodd" fill-opacity="1"/>
<defs>
  <clipPath id="clip271">
    <rect x="240" y="0" width="841" height="841"/>
  </clipPath>
</defs>
<path clip-path="url(#clip270)" d="M235.219 808.66 L1152.76 808.66 L1152.76 47.2441 L235.219 47.2441  Z" fill="#ffffff" fill-rule="evenodd" fill-opacity="1"/>
<defs>
  <clipPath id="clip272">
    <rect x="235" y="47" width="919" height="762"/>
  </clipPath>
</defs>
<polyline clip-path="url(#clip272)" style="stroke:#000000; stroke-linecap:round; stroke-linejoin:round; stroke-width:2; stroke-opacity:0.1; fill:none" points="436.061,808.66 436.061,47.2441 "/>
<polyline clip-path="url(#clip272)" style="stroke:#000000; stroke-linecap:round; stroke-linejoin:round; stroke-width:2; stroke-opacity:0.1; fill:none" points="951.914,808.66 951.914,47.2441 "/>
<polyline clip-path="url(#clip270)" style="stroke:#000000; stroke-linecap:round; stroke-linejoin:round; stroke-width:4; stroke-opacity:1; fill:none" points="235.219,808.66 1152.76,808.66 "/>
<polyline clip-path="url(#clip270)" style="stroke:#000000; stroke-linecap:round; stroke-linejoin:round; stroke-width:4; stroke-opacity:1; fill:none" points="436.061,808.66 436.061,789.762 "/>
<polyline clip-path="url(#clip270)" style="stroke:#000000; stroke-linecap:round; stroke-linejoin:round; stroke-width:4; stroke-opacity:1; fill:none" points="951.914,808.66 951.914,789.762 "/>
<path clip-path="url(#clip270)" d="M312.544 844.167 Q312.544 836.534 317.756 831.174 Q322.969 825.788 330.133 825.788 Q332.356 825.788 334.332 826.603 Q336.309 827.419 337.223 828.135 Q338.137 828.827 339.446 830.136 L341.99 826.406 Q342.386 825.788 342.781 825.788 Q343.201 825.788 343.275 826.035 Q343.349 826.258 343.349 826.999 L343.349 839.004 Q343.349 839.82 343.25 840.017 Q343.151 840.215 342.534 840.215 Q342.04 840.215 341.916 840.067 Q341.817 839.919 341.719 839.35 Q340.953 833.891 337.914 830.63 Q334.9 827.369 330.701 827.369 Q329.49 827.369 328.132 827.641 Q326.798 827.913 324.846 828.95 Q322.919 829.988 321.412 831.717 Q319.93 833.422 318.843 836.682 Q317.756 839.919 317.756 844.217 Q317.756 848.466 318.843 851.727 Q319.93 854.988 321.412 856.692 Q322.919 858.372 324.846 859.409 Q326.798 860.447 328.156 860.743 Q329.54 861.015 330.75 861.015 Q335.098 861.015 338.433 857.927 Q341.768 854.839 342.089 849.627 Q342.139 849.38 342.139 849.281 Q342.139 849.158 342.188 849.034 Q342.237 848.911 342.361 848.861 Q342.484 848.812 342.682 848.812 Q343.349 848.812 343.349 849.676 Q343.349 854.493 339.644 858.545 Q335.963 862.571 330.133 862.571 Q322.944 862.571 317.732 857.236 Q312.544 851.9 312.544 844.167 Z" fill="#000000" fill-rule="nonzero" fill-opacity="1" /><path clip-path="url(#clip270)" d="M347.623 850.319 Q347.623 845.551 350.686 842.167 Q353.749 838.782 358.146 838.782 Q362.593 838.782 364.89 841.672 Q367.212 844.563 367.212 848.713 Q367.212 849.479 367.015 849.627 Q366.817 849.775 365.953 849.775 L351.822 849.775 Q351.822 854.938 353.354 857.359 Q355.478 860.743 359.06 860.743 Q359.554 860.743 360.147 860.645 Q360.74 860.546 361.951 860.126 Q363.161 859.681 364.223 858.52 Q365.286 857.359 365.903 855.531 Q366.051 854.815 366.545 854.839 Q367.212 854.839 367.212 855.432 Q367.212 855.877 366.718 856.89 Q366.249 857.878 365.335 859.064 Q364.421 860.249 362.642 861.139 Q360.888 862.028 358.764 862.028 Q354.317 862.028 350.958 858.668 Q347.623 855.284 347.623 850.319 M351.872 848.713 L363.878 848.713 Q363.878 847.651 363.68 846.465 Q363.507 845.279 362.963 843.649 Q362.445 841.994 361.21 840.956 Q359.974 839.919 358.146 839.919 Q357.331 839.919 356.442 840.264 Q355.577 840.61 354.515 841.45 Q353.453 842.29 352.712 844.192 Q351.97 846.094 351.872 848.713 Z" fill="#000000" fill-rule="nonzero" fill-opacity="1" /><path clip-path="url(#clip270)" d="M370.3 861.46 L370.3 859.904 Q372.993 859.904 373.611 859.582 Q374.228 859.237 374.228 857.606 L374.228 844.044 Q374.228 842.167 373.561 841.697 Q372.919 841.228 370.3 841.228 L370.3 839.647 L377.415 839.103 L377.415 844.415 Q379.786 839.103 384.9 839.103 Q388.704 839.103 390.211 840.981 Q391.323 842.241 391.545 843.649 Q391.792 845.057 391.792 848.713 L391.792 858.372 Q391.842 859.434 392.657 859.681 Q393.472 859.904 395.745 859.904 L395.745 861.46 Q390.582 861.312 390.063 861.312 Q389.668 861.312 384.357 861.46 L384.357 859.904 Q387.049 859.904 387.667 859.582 Q388.309 859.237 388.309 857.606 L388.309 845.823 Q388.309 843.253 387.519 841.747 Q386.728 840.215 384.554 840.215 Q381.936 840.215 379.836 842.414 Q377.736 844.612 377.736 848.318 L377.736 857.606 Q377.736 859.237 378.354 859.582 Q378.996 859.904 381.664 859.904 L381.664 861.46 Q376.501 861.312 376.007 861.312 Q375.612 861.312 370.3 861.46 Z" fill="#000000" fill-rule="nonzero" fill-opacity="1" /><path clip-path="url(#clip270)" d="M396.288 841.228 L396.288 840.116 Q398.61 840.017 400.142 838.387 Q401.698 836.732 402.217 834.706 Q402.761 832.68 402.81 830.334 L404.07 830.334 L404.07 839.647 L411.308 839.647 L411.308 841.228 L404.07 841.228 L404.07 855.284 Q404.07 860.743 407.479 860.743 Q408.936 860.743 409.9 859.261 Q410.863 857.754 410.863 855.086 L410.863 852.295 L412.123 852.295 L412.123 855.185 Q412.123 857.927 410.863 859.978 Q409.603 862.028 407.108 862.028 Q406.194 862.028 405.28 861.781 Q404.391 861.559 403.205 860.966 Q402.044 860.348 401.303 858.866 Q400.587 857.359 400.587 855.185 L400.587 841.228 L396.288 841.228 Z" fill="#000000" fill-rule="nonzero" fill-opacity="1" /><path clip-path="url(#clip270)" d="M416.347 861.46 L416.347 859.904 Q419.04 859.904 419.658 859.582 Q420.3 859.237 420.3 857.606 L420.3 844.044 Q420.3 842.167 419.633 841.697 Q418.991 841.228 416.347 841.228 L416.347 839.647 L423.388 839.103 L423.388 844.662 Q424.104 842.488 425.611 840.808 Q427.143 839.103 429.613 839.103 Q431.244 839.103 432.281 840.017 Q433.343 840.931 433.343 842.191 Q433.343 843.303 432.652 843.871 Q431.985 844.415 431.169 844.415 Q430.255 844.415 429.613 843.846 Q428.996 843.253 428.996 842.241 Q428.996 841.623 429.267 841.154 Q429.564 840.66 429.786 840.487 Q430.008 840.314 430.157 840.264 Q430.058 840.215 429.613 840.215 Q426.822 840.215 425.216 843.006 Q423.635 845.773 423.635 849.726 L423.635 857.507 Q423.635 858.965 424.228 859.434 Q424.845 859.904 427.489 859.904 L428.551 859.904 L428.551 861.46 Q426.525 861.312 422.128 861.312 Q421.51 861.312 420.547 861.336 Q419.584 861.361 418.324 861.41 Q417.064 861.46 416.347 861.46 Z" fill="#000000" fill-rule="nonzero" fill-opacity="1" /><path clip-path="url(#clip270)" d="M436.827 856.643 Q436.827 852.344 441.891 850.072 Q444.929 848.614 451.204 848.244 L451.204 846.391 Q451.204 843.253 449.549 841.598 Q447.918 839.919 445.843 839.919 Q442.138 839.919 440.359 842.241 Q441.866 842.29 442.409 843.056 Q442.953 843.797 442.953 844.563 Q442.953 845.576 442.311 846.243 Q441.693 846.885 440.631 846.885 Q439.618 846.885 438.951 846.267 Q438.284 845.625 438.284 844.513 Q438.284 842.043 440.507 840.413 Q442.755 838.782 445.942 838.782 Q450.092 838.782 452.859 841.574 Q453.724 842.438 454.144 843.55 Q454.588 844.662 454.638 845.403 Q454.687 846.119 454.687 847.552 L454.687 857.656 Q454.687 857.952 454.786 858.446 Q454.885 858.94 455.329 859.582 Q455.799 860.2 456.565 860.2 Q458.393 860.2 458.368 856.964 L458.368 854.123 L459.652 854.123 L459.652 856.964 Q459.652 859.656 458.22 860.719 Q456.812 861.756 455.502 861.756 Q453.822 861.756 452.76 860.521 Q451.698 859.286 451.55 857.606 Q450.784 859.533 449.03 860.793 Q447.301 862.028 444.929 862.028 Q443.101 862.028 441.372 861.559 Q439.667 861.114 438.235 859.854 Q436.827 858.57 436.827 856.643 M440.73 856.593 Q440.73 858.471 442.064 859.681 Q443.398 860.892 445.275 860.892 Q447.4 860.892 449.302 859.261 Q451.204 857.606 451.204 854.37 L451.204 849.306 Q445.596 849.503 443.151 851.751 Q440.73 853.975 440.73 856.593 Z" fill="#000000" fill-rule="nonzero" fill-opacity="1" /><path clip-path="url(#clip270)" d="M461.678 861.46 L461.678 859.904 Q464.371 859.904 464.988 859.582 Q465.606 859.237 465.606 857.606 L465.606 831.297 Q465.606 829.42 464.939 828.95 Q464.297 828.481 461.678 828.481 L461.678 826.9 L468.941 826.356 L468.941 857.606 Q468.941 859.237 469.583 859.582 Q470.225 859.904 472.893 859.904 L472.893 861.46 Q472.276 861.46 470.991 861.41 Q469.707 861.361 468.768 861.336 Q467.829 861.312 467.286 861.312 Q466.693 861.312 461.678 861.46 Z" fill="#000000" fill-rule="nonzero" fill-opacity="1" /><path clip-path="url(#clip270)" d="M475.685 861.46 L475.685 859.904 Q478.378 859.904 478.995 859.582 Q479.613 859.237 479.613 857.606 L479.613 843.995 Q479.613 842.117 478.97 841.672 Q478.353 841.228 475.883 841.228 L475.883 839.647 L482.948 839.103 L482.948 857.656 Q482.948 859.162 483.491 859.533 Q484.035 859.904 486.505 859.904 L486.505 861.46 Q481.342 861.312 481.243 861.312 Q480.551 861.312 475.685 861.46 M477.809 830.284 Q477.809 829.271 478.575 828.456 Q479.366 827.616 480.477 827.616 Q481.589 827.616 482.38 828.382 Q483.17 829.123 483.17 830.309 Q483.17 831.47 482.38 832.236 Q481.589 832.977 480.477 832.977 Q479.316 832.977 478.551 832.162 Q477.809 831.346 477.809 830.284 Z" fill="#000000" fill-rule="nonzero" fill-opacity="1" /><path clip-path="url(#clip270)" d="M489.42 860.743 Q489.42 860.398 489.889 859.829 L503.995 840.758 L498.239 840.758 Q494.237 840.758 492.928 842.241 Q491.643 843.698 491.396 847.799 L490.136 847.799 L490.705 839.647 L506.885 839.647 Q507.453 839.647 507.676 839.671 Q507.898 839.696 508.046 839.869 Q508.195 840.017 508.195 840.314 Q508.195 840.61 507.75 841.178 L493.669 860.2 L499.647 860.2 Q503.847 860.2 505.255 858.446 Q506.688 856.692 507.033 851.998 L508.293 851.998 L507.429 861.46 L490.754 861.46 Q489.939 861.46 489.667 861.361 Q489.42 861.238 489.42 860.743 Z" fill="#000000" fill-rule="nonzero" fill-opacity="1" /><path clip-path="url(#clip270)" d="M511.875 850.319 Q511.875 845.551 514.939 842.167 Q518.002 838.782 522.399 838.782 Q526.846 838.782 529.143 841.672 Q531.465 844.563 531.465 848.713 Q531.465 849.479 531.267 849.627 Q531.07 849.775 530.205 849.775 L516.075 849.775 Q516.075 854.938 517.607 857.359 Q519.731 860.743 523.313 860.743 Q523.807 860.743 524.4 860.645 Q524.993 860.546 526.203 860.126 Q527.414 859.681 528.476 858.52 Q529.538 857.359 530.156 855.531 Q530.304 854.815 530.798 854.839 Q531.465 854.839 531.465 855.432 Q531.465 855.877 530.971 856.89 Q530.502 857.878 529.588 859.064 Q528.674 860.249 526.895 861.139 Q525.141 862.028 523.017 862.028 Q518.57 862.028 515.21 858.668 Q511.875 855.284 511.875 850.319 M516.124 848.713 L528.13 848.713 Q528.13 847.651 527.933 846.465 Q527.76 845.279 527.216 843.649 Q526.697 841.994 525.462 840.956 Q524.227 839.919 522.399 839.919 Q521.584 839.919 520.694 840.264 Q519.83 840.61 518.768 841.45 Q517.705 842.29 516.964 844.192 Q516.223 846.094 516.124 848.713 Z" fill="#000000" fill-rule="nonzero" fill-opacity="1" /><path clip-path="url(#clip270)" d="M534.652 850.59 Q534.652 845.773 538.011 842.438 Q541.371 839.103 545.917 839.103 Q549.77 839.103 552.29 842.241 L552.29 831.297 Q552.29 829.42 551.623 828.95 Q550.981 828.481 548.362 828.481 L548.362 826.9 L555.65 826.356 L555.65 857.063 Q555.65 858.94 556.292 859.434 Q556.959 859.904 559.578 859.904 L559.578 861.46 L552.142 862.028 L552.142 858.668 Q549.523 862.003 545.373 862.028 Q541.025 862.028 537.839 858.693 Q534.652 855.358 534.652 850.59 M538.851 850.64 Q538.851 855.333 540.309 857.656 Q542.335 860.892 545.62 860.892 Q549.375 860.892 551.598 857.359 Q552.167 856.494 552.142 855.482 L552.142 845.106 Q552.142 844.093 551.598 843.253 Q549.523 840.215 546.139 840.215 Q542.606 840.215 540.408 843.451 Q538.851 845.872 538.851 850.64 Z" fill="#000000" fill-rule="nonzero" fill-opacity="1" /><path clip-path="url(#clip270)" d="M777.977 861.46 L777.977 859.904 Q779.805 859.904 780.966 859.558 Q782.128 859.187 782.547 858.52 Q782.967 857.828 783.066 857.384 Q783.19 856.914 783.19 856.149 L783.19 829.741 Q783.19 829.024 782.992 828.851 Q782.819 828.678 781.955 828.58 Q780.448 828.481 779.435 828.481 L777.977 828.481 L777.977 826.9 L786.574 826.9 Q787.291 826.9 787.488 826.999 Q787.686 827.097 788.032 827.567 L805.892 853.827 L805.892 832.211 Q805.892 831.445 805.793 831.001 Q805.695 830.556 805.25 829.864 Q804.83 829.173 803.669 828.827 Q802.508 828.481 800.68 828.481 L800.68 826.9 Q805.991 827.048 806.584 827.048 Q807.201 827.048 812.513 826.9 L812.513 828.481 Q810.685 828.481 809.524 828.827 Q808.362 829.173 807.943 829.864 Q807.523 830.556 807.399 831.025 Q807.3 831.47 807.3 832.211 L807.3 860.151 Q807.3 860.966 807.201 861.213 Q807.103 861.46 806.609 861.46 Q806.263 861.46 805.744 860.793 L785.092 830.457 Q784.894 830.161 784.598 829.84 L784.598 856.149 Q784.598 856.914 784.697 857.384 Q784.795 857.828 785.215 858.52 Q785.66 859.187 786.821 859.558 Q787.982 859.904 789.81 859.904 L789.81 861.46 Q784.499 861.312 783.881 861.312 Q783.289 861.312 777.977 861.46 Z" fill="#000000" fill-rule="nonzero" fill-opacity="1" /><path clip-path="url(#clip270)" d="M818.985 858.742 Q815.65 855.432 815.65 850.64 Q815.65 845.823 818.911 842.315 Q822.196 838.782 826.89 838.782 Q831.485 838.782 834.77 842.29 Q838.081 845.773 838.081 850.64 Q838.081 855.408 834.746 858.718 Q831.435 862.028 826.841 862.028 Q822.345 862.028 818.985 858.742 M819.85 850.22 Q819.85 855.136 821.134 857.359 Q823.11 860.743 826.89 860.743 Q828.767 860.743 830.324 859.731 Q831.905 858.718 832.769 857.013 Q833.881 854.79 833.881 850.22 Q833.881 845.353 832.547 843.204 Q830.571 839.919 826.841 839.919 Q825.21 839.919 823.604 840.783 Q822.023 841.623 821.06 843.303 Q819.85 845.526 819.85 850.22 Z" fill="#000000" fill-rule="nonzero" fill-opacity="1" /><path clip-path="url(#clip270)" d="M840.502 841.228 L840.502 840.116 Q842.824 840.017 844.355 838.387 Q845.912 836.732 846.43 834.706 Q846.974 832.68 847.023 830.334 L848.283 830.334 L848.283 839.647 L855.521 839.647 L855.521 841.228 L848.283 841.228 L848.283 855.284 Q848.283 860.743 851.692 860.743 Q853.15 860.743 854.113 859.261 Q855.077 857.754 855.077 855.086 L855.077 852.295 L856.336 852.295 L856.336 855.185 Q856.336 857.927 855.077 859.978 Q853.817 862.028 851.322 862.028 Q850.408 862.028 849.494 861.781 Q848.604 861.559 847.418 860.966 Q846.257 860.348 845.516 858.866 Q844.8 857.359 844.8 855.185 L844.8 841.228 L840.502 841.228 Z" fill="#000000" fill-rule="nonzero" fill-opacity="1" /><path clip-path="url(#clip270)" d="M878.816 844.167 Q878.816 836.534 884.029 831.174 Q889.241 825.788 896.405 825.788 Q898.629 825.788 900.605 826.603 Q902.581 827.419 903.495 828.135 Q904.409 828.827 905.718 830.136 L908.263 826.406 Q908.658 825.788 909.053 825.788 Q909.473 825.788 909.547 826.035 Q909.622 826.258 909.622 826.999 L909.622 839.004 Q909.622 839.82 909.523 840.017 Q909.424 840.215 908.806 840.215 Q908.312 840.215 908.189 840.067 Q908.09 839.919 907.991 839.35 Q907.225 833.891 904.187 830.63 Q901.173 827.369 896.973 827.369 Q895.763 827.369 894.404 827.641 Q893.07 827.913 891.119 828.95 Q889.192 829.988 887.685 831.717 Q886.203 833.422 885.116 836.682 Q884.029 839.919 884.029 844.217 Q884.029 848.466 885.116 851.727 Q886.203 854.988 887.685 856.692 Q889.192 858.372 891.119 859.409 Q893.07 860.447 894.429 860.743 Q895.812 861.015 897.023 861.015 Q901.371 861.015 904.706 857.927 Q908.041 854.839 908.362 849.627 Q908.411 849.38 908.411 849.281 Q908.411 849.158 908.46 849.034 Q908.51 848.911 908.633 848.861 Q908.757 848.812 908.955 848.812 Q909.622 848.812 909.622 849.676 Q909.622 854.493 905.916 858.545 Q902.235 862.571 896.405 862.571 Q889.217 862.571 884.004 857.236 Q878.816 851.9 878.816 844.167 Z" fill="#000000" fill-rule="nonzero" fill-opacity="1" /><path clip-path="url(#clip270)" d="M913.895 850.319 Q913.895 845.551 916.958 842.167 Q920.022 838.782 924.419 838.782 Q928.865 838.782 931.163 841.672 Q933.485 844.563 933.485 848.713 Q933.485 849.479 933.287 849.627 Q933.09 849.775 932.225 849.775 L918.095 849.775 Q918.095 854.938 919.626 857.359 Q921.751 860.743 925.333 860.743 Q925.827 860.743 926.42 860.645 Q927.013 860.546 928.223 860.126 Q929.434 859.681 930.496 858.52 Q931.558 857.359 932.176 855.531 Q932.324 854.815 932.818 854.839 Q933.485 854.839 933.485 855.432 Q933.485 855.877 932.991 856.89 Q932.522 857.878 931.608 859.064 Q930.694 860.249 928.915 861.139 Q927.161 862.028 925.036 862.028 Q920.59 862.028 917.23 858.668 Q913.895 855.284 913.895 850.319 M918.144 848.713 L930.15 848.713 Q930.15 847.651 929.952 846.465 Q929.779 845.279 929.236 843.649 Q928.717 841.994 927.482 840.956 Q926.247 839.919 924.419 839.919 Q923.604 839.919 922.714 840.264 Q921.85 840.61 920.787 841.45 Q919.725 842.29 918.984 844.192 Q918.243 846.094 918.144 848.713 Z" fill="#000000" fill-rule="nonzero" fill-opacity="1" /><path clip-path="url(#clip270)" d="M936.573 861.46 L936.573 859.904 Q939.266 859.904 939.883 859.582 Q940.501 859.237 940.501 857.606 L940.501 844.044 Q940.501 842.167 939.834 841.697 Q939.191 841.228 936.573 841.228 L936.573 839.647 L943.687 839.103 L943.687 844.415 Q946.059 839.103 951.173 839.103 Q954.977 839.103 956.484 840.981 Q957.595 842.241 957.818 843.649 Q958.065 845.057 958.065 848.713 L958.065 858.372 Q958.114 859.434 958.929 859.681 Q959.745 859.904 962.017 859.904 L962.017 861.46 Q956.854 861.312 956.336 861.312 Q955.94 861.312 950.629 861.46 L950.629 859.904 Q953.322 859.904 953.939 859.582 Q954.582 859.237 954.582 857.606 L954.582 845.823 Q954.582 843.253 953.791 841.747 Q953.001 840.215 950.827 840.215 Q948.208 840.215 946.108 842.414 Q944.009 844.612 944.009 848.318 L944.009 857.606 Q944.009 859.237 944.626 859.582 Q945.269 859.904 947.936 859.904 L947.936 861.46 Q942.773 861.312 942.279 861.312 Q941.884 861.312 936.573 861.46 Z" fill="#000000" fill-rule="nonzero" fill-opacity="1" /><path clip-path="url(#clip270)" d="M962.561 841.228 L962.561 840.116 Q964.883 840.017 966.415 838.387 Q967.971 836.732 968.49 834.706 Q969.033 832.68 969.083 830.334 L970.342 830.334 L970.342 839.647 L977.58 839.647 L977.58 841.228 L970.342 841.228 L970.342 855.284 Q970.342 860.743 973.751 860.743 Q975.209 860.743 976.172 859.261 Q977.136 857.754 977.136 855.086 L977.136 852.295 L978.396 852.295 L978.396 855.185 Q978.396 857.927 977.136 859.978 Q975.876 862.028 973.381 862.028 Q972.467 862.028 971.553 861.781 Q970.664 861.559 969.478 860.966 Q968.317 860.348 967.576 858.866 Q966.859 857.359 966.859 855.185 L966.859 841.228 L962.561 841.228 Z" fill="#000000" fill-rule="nonzero" fill-opacity="1" /><path clip-path="url(#clip270)" d="M982.62 861.46 L982.62 859.904 Q985.313 859.904 985.93 859.582 Q986.573 859.237 986.573 857.606 L986.573 844.044 Q986.573 842.167 985.906 841.697 Q985.263 841.228 982.62 841.228 L982.62 839.647 L989.66 839.103 L989.66 844.662 Q990.377 842.488 991.884 840.808 Q993.415 839.103 995.886 839.103 Q997.516 839.103 998.554 840.017 Q999.616 840.931 999.616 842.191 Q999.616 843.303 998.924 843.871 Q998.257 844.415 997.442 844.415 Q996.528 844.415 995.886 843.846 Q995.268 843.253 995.268 842.241 Q995.268 841.623 995.54 841.154 Q995.836 840.66 996.059 840.487 Q996.281 840.314 996.429 840.264 Q996.33 840.215 995.886 840.215 Q993.094 840.215 991.488 843.006 Q989.907 845.773 989.907 849.726 L989.907 857.507 Q989.907 858.965 990.5 859.434 Q991.118 859.904 993.761 859.904 L994.823 859.904 L994.823 861.46 Q992.798 861.312 988.401 861.312 Q987.783 861.312 986.82 861.336 Q985.856 861.361 984.596 861.41 Q983.336 861.46 982.62 861.46 Z" fill="#000000" fill-rule="nonzero" fill-opacity="1" /><path clip-path="url(#clip270)" d="M1003.1 856.643 Q1003.1 852.344 1008.16 850.072 Q1011.2 848.614 1017.48 848.244 L1017.48 846.391 Q1017.48 843.253 1015.82 841.598 Q1014.19 839.919 1012.12 839.919 Q1008.41 839.919 1006.63 842.241 Q1008.14 842.29 1008.68 843.056 Q1009.23 843.797 1009.23 844.563 Q1009.23 845.576 1008.58 846.243 Q1007.97 846.885 1006.9 846.885 Q1005.89 846.885 1005.22 846.267 Q1004.56 845.625 1004.56 844.513 Q1004.56 842.043 1006.78 840.413 Q1009.03 838.782 1012.21 838.782 Q1016.36 838.782 1019.13 841.574 Q1020 842.438 1020.42 843.55 Q1020.86 844.662 1020.91 845.403 Q1020.96 846.119 1020.96 847.552 L1020.96 857.656 Q1020.96 857.952 1021.06 858.446 Q1021.16 858.94 1021.6 859.582 Q1022.07 860.2 1022.84 860.2 Q1024.67 860.2 1024.64 856.964 L1024.64 854.123 L1025.92 854.123 L1025.92 856.964 Q1025.92 859.656 1024.49 860.719 Q1023.08 861.756 1021.77 861.756 Q1020.09 861.756 1019.03 860.521 Q1017.97 859.286 1017.82 857.606 Q1017.06 859.533 1015.3 860.793 Q1013.57 862.028 1011.2 862.028 Q1009.37 862.028 1007.64 861.559 Q1005.94 861.114 1004.51 859.854 Q1003.1 858.57 1003.1 856.643 M1007 856.593 Q1007 858.471 1008.34 859.681 Q1009.67 860.892 1011.55 860.892 Q1013.67 860.892 1015.57 859.261 Q1017.48 857.606 1017.48 854.37 L1017.48 849.306 Q1011.87 849.503 1009.42 851.751 Q1007 853.975 1007 856.593 Z" fill="#000000" fill-rule="nonzero" fill-opacity="1" /><path clip-path="url(#clip270)" d="M1027.95 861.46 L1027.95 859.904 Q1030.64 859.904 1031.26 859.582 Q1031.88 859.237 1031.88 857.606 L1031.88 831.297 Q1031.88 829.42 1031.21 828.95 Q1030.57 828.481 1027.95 828.481 L1027.95 826.9 L1035.21 826.356 L1035.21 857.606 Q1035.21 859.237 1035.86 859.582 Q1036.5 859.904 1039.17 859.904 L1039.17 861.46 Q1038.55 861.46 1037.26 861.41 Q1035.98 861.361 1035.04 861.336 Q1034.1 861.312 1033.56 861.312 Q1032.97 861.312 1027.95 861.46 Z" fill="#000000" fill-rule="nonzero" fill-opacity="1" /><path clip-path="url(#clip270)" d="M1041.96 861.46 L1041.96 859.904 Q1044.65 859.904 1045.27 859.582 Q1045.89 859.237 1045.89 857.606 L1045.89 843.995 Q1045.89 842.117 1045.24 841.672 Q1044.63 841.228 1042.16 841.228 L1042.16 839.647 L1049.22 839.103 L1049.22 857.656 Q1049.22 859.162 1049.76 859.533 Q1050.31 859.904 1052.78 859.904 L1052.78 861.46 Q1047.61 861.312 1047.52 861.312 Q1046.82 861.312 1041.96 861.46 M1044.08 830.284 Q1044.08 829.271 1044.85 828.456 Q1045.64 827.616 1046.75 827.616 Q1047.86 827.616 1048.65 828.382 Q1049.44 829.123 1049.44 830.309 Q1049.44 831.47 1048.65 832.236 Q1047.86 832.977 1046.75 832.977 Q1045.59 832.977 1044.82 832.162 Q1044.08 831.346 1044.08 830.284 Z" fill="#000000" fill-rule="nonzero" fill-opacity="1" /><path clip-path="url(#clip270)" d="M1055.69 860.743 Q1055.69 860.398 1056.16 859.829 L1070.27 840.758 L1064.51 840.758 Q1060.51 840.758 1059.2 842.241 Q1057.92 843.698 1057.67 847.799 L1056.41 847.799 L1056.98 839.647 L1073.16 839.647 Q1073.73 839.647 1073.95 839.671 Q1074.17 839.696 1074.32 839.869 Q1074.47 840.017 1074.47 840.314 Q1074.47 840.61 1074.02 841.178 L1059.94 860.2 L1065.92 860.2 Q1070.12 860.2 1071.53 858.446 Q1072.96 856.692 1073.31 851.998 L1074.57 851.998 L1073.7 861.46 L1057.03 861.46 Q1056.21 861.46 1055.94 861.361 Q1055.69 861.238 1055.69 860.743 Z" fill="#000000" fill-rule="nonzero" fill-opacity="1" /><path clip-path="url(#clip270)" d="M1078.15 850.319 Q1078.15 845.551 1081.21 842.167 Q1084.27 838.782 1088.67 838.782 Q1093.12 838.782 1095.42 841.672 Q1097.74 844.563 1097.74 848.713 Q1097.74 849.479 1097.54 849.627 Q1097.34 849.775 1096.48 849.775 L1082.35 849.775 Q1082.35 854.938 1083.88 857.359 Q1086 860.743 1089.59 860.743 Q1090.08 860.743 1090.67 860.645 Q1091.27 860.546 1092.48 860.126 Q1093.69 859.681 1094.75 858.52 Q1095.81 857.359 1096.43 855.531 Q1096.58 854.815 1097.07 854.839 Q1097.74 854.839 1097.74 855.432 Q1097.74 855.877 1097.24 856.89 Q1096.77 857.878 1095.86 859.064 Q1094.95 860.249 1093.17 861.139 Q1091.41 862.028 1089.29 862.028 Q1084.84 862.028 1081.48 858.668 Q1078.15 855.284 1078.15 850.319 M1082.4 848.713 L1094.4 848.713 Q1094.4 847.651 1094.21 846.465 Q1094.03 845.279 1093.49 843.649 Q1092.97 841.994 1091.73 840.956 Q1090.5 839.919 1088.67 839.919 Q1087.86 839.919 1086.97 840.264 Q1086.1 840.61 1085.04 841.45 Q1083.98 842.29 1083.24 844.192 Q1082.5 846.094 1082.4 848.713 Z" fill="#000000" fill-rule="nonzero" fill-opacity="1" /><path clip-path="url(#clip270)" d="M1100.92 850.59 Q1100.92 845.773 1104.28 842.438 Q1107.64 839.103 1112.19 839.103 Q1116.04 839.103 1118.56 842.241 L1118.56 831.297 Q1118.56 829.42 1117.9 828.95 Q1117.25 828.481 1114.63 828.481 L1114.63 826.9 L1121.92 826.356 L1121.92 857.063 Q1121.92 858.94 1122.56 859.434 Q1123.23 859.904 1125.85 859.904 L1125.85 861.46 L1118.41 862.028 L1118.41 858.668 Q1115.8 862.003 1111.65 862.028 Q1107.3 862.028 1104.11 858.693 Q1100.92 855.358 1100.92 850.59 M1105.12 850.64 Q1105.12 855.333 1106.58 857.656 Q1108.61 860.892 1111.89 860.892 Q1115.65 860.892 1117.87 857.359 Q1118.44 856.494 1118.41 855.482 L1118.41 845.106 Q1118.41 844.093 1117.87 843.253 Q1115.8 840.215 1112.41 840.215 Q1108.88 840.215 1106.68 843.451 Q1105.12 845.872 1105.12 850.64 Z" fill="#000000" fill-rule="nonzero" fill-opacity="1" /><path clip-path="url(#clip270)" d="M654.11 931.72 Q649.694 927.1 649.694 920.51 Q649.694 913.887 654.042 909.131 Q658.39 904.342 664.775 904.342 Q669.021 904.342 672.214 906.38 Q675.407 908.384 675.407 911.815 Q675.407 913.343 674.49 914.226 Q673.607 915.076 672.214 915.076 Q670.754 915.076 669.871 914.192 Q669.021 913.275 669.021 911.883 Q669.021 911.271 669.225 910.66 Q669.429 910.049 670.176 909.403 Q670.958 908.758 672.282 908.656 Q669.803 906.108 664.979 906.108 Q664.911 906.108 664.843 906.108 Q661.311 906.108 658.39 909.437 Q655.469 912.766 655.469 920.375 Q655.469 924.349 656.42 927.27 Q657.405 930.157 659.001 931.652 Q660.598 933.146 662.16 933.859 Q663.723 934.539 665.251 934.539 Q672.078 934.539 674.388 927.236 Q674.592 926.557 675.271 926.557 Q676.188 926.557 676.188 927.236 Q676.188 927.576 675.917 928.459 Q675.645 929.342 674.796 930.734 Q673.947 932.127 672.724 933.35 Q671.535 934.539 669.395 935.422 Q667.289 936.305 664.64 936.305 Q658.526 936.305 654.11 931.72 Z" fill="#000000" fill-rule="nonzero" fill-opacity="1" /><path clip-path="url(#clip270)" d="M681.114 928.9 Q681.114 922.99 688.077 919.865 Q692.255 917.861 700.883 917.351 L700.883 914.804 Q700.883 910.49 698.607 908.214 Q696.365 905.905 693.512 905.905 Q688.417 905.905 685.971 909.097 Q688.043 909.165 688.79 910.218 Q689.538 911.237 689.538 912.29 Q689.538 913.683 688.654 914.6 Q687.805 915.483 686.345 915.483 Q684.952 915.483 684.035 914.634 Q683.118 913.751 683.118 912.222 Q683.118 908.826 686.175 906.584 Q689.266 904.342 693.648 904.342 Q699.354 904.342 703.158 908.18 Q704.347 909.369 704.925 910.898 Q705.536 912.426 705.604 913.445 Q705.672 914.43 705.672 916.4 L705.672 930.293 Q705.672 930.701 705.808 931.38 Q705.944 932.059 706.555 932.942 Q707.2 933.792 708.253 933.792 Q710.767 933.792 710.733 929.342 L710.733 925.436 L712.499 925.436 L712.499 929.342 Q712.499 933.044 710.529 934.505 Q708.593 935.931 706.793 935.931 Q704.483 935.931 703.022 934.233 Q701.562 932.535 701.358 930.225 Q700.305 932.874 697.893 934.607 Q695.516 936.305 692.255 936.305 Q689.741 936.305 687.364 935.66 Q685.02 935.048 683.05 933.316 Q681.114 931.55 681.114 928.9 M686.48 928.832 Q686.48 931.414 688.315 933.078 Q690.149 934.743 692.73 934.743 Q695.652 934.743 698.267 932.501 Q700.883 930.225 700.883 925.775 L700.883 918.812 Q693.172 919.084 689.809 922.175 Q686.48 925.232 686.48 928.832 Z" fill="#000000" fill-rule="nonzero" fill-opacity="1" /><path clip-path="url(#clip270)" d="M714.911 935.524 L714.911 933.384 Q718.613 933.384 719.463 932.942 Q720.346 932.467 720.346 930.225 L720.346 911.577 Q720.346 908.996 719.429 908.35 Q718.545 907.705 714.911 907.705 L714.911 905.531 L724.592 904.784 L724.592 912.426 Q725.577 909.437 727.649 907.127 Q729.755 904.784 733.151 904.784 Q735.393 904.784 736.82 906.04 Q738.28 907.297 738.28 909.029 Q738.28 910.558 737.329 911.339 Q736.412 912.087 735.291 912.087 Q734.034 912.087 733.151 911.305 Q732.302 910.49 732.302 909.097 Q732.302 908.248 732.676 907.603 Q733.083 906.924 733.389 906.686 Q733.695 906.448 733.899 906.38 Q733.763 906.312 733.151 906.312 Q729.313 906.312 727.105 910.15 Q724.931 913.955 724.931 919.389 L724.931 930.089 Q724.931 932.093 725.746 932.739 Q726.596 933.384 730.23 933.384 L731.691 933.384 L731.691 935.524 Q728.905 935.32 722.859 935.32 Q722.01 935.32 720.685 935.354 Q719.361 935.388 717.628 935.456 Q715.896 935.524 714.911 935.524 Z" fill="#000000" fill-rule="nonzero" fill-opacity="1" /><polyline clip-path="url(#clip272)" style="stroke:#000000; stroke-linecap:round; stroke-linejoin:round; stroke-width:2; stroke-opacity:0.1; fill:none" points="235.219,738.074 1152.76,738.074 "/>
<polyline clip-path="url(#clip272)" style="stroke:#000000; stroke-linecap:round; stroke-linejoin:round; stroke-width:2; stroke-opacity:0.1; fill:none" points="235.219,599.908 1152.76,599.908 "/>
<polyline clip-path="url(#clip272)" style="stroke:#000000; stroke-linecap:round; stroke-linejoin:round; stroke-width:2; stroke-opacity:0.1; fill:none" points="235.219,461.742 1152.76,461.742 "/>
<polyline clip-path="url(#clip272)" style="stroke:#000000; stroke-linecap:round; stroke-linejoin:round; stroke-width:2; stroke-opacity:0.1; fill:none" points="235.219,323.576 1152.76,323.576 "/>
<polyline clip-path="url(#clip272)" style="stroke:#000000; stroke-linecap:round; stroke-linejoin:round; stroke-width:2; stroke-opacity:0.1; fill:none" points="235.219,185.41 1152.76,185.41 "/>
<polyline clip-path="url(#clip272)" style="stroke:#000000; stroke-linecap:round; stroke-linejoin:round; stroke-width:2; stroke-opacity:0.1; fill:none" points="235.219,47.2441 1152.76,47.2441 "/>
<polyline clip-path="url(#clip270)" style="stroke:#000000; stroke-linecap:round; stroke-linejoin:round; stroke-width:4; stroke-opacity:1; fill:none" points="235.219,808.66 235.219,47.2441 "/>
<polyline clip-path="url(#clip270)" style="stroke:#000000; stroke-linecap:round; stroke-linejoin:round; stroke-width:4; stroke-opacity:1; fill:none" points="235.219,738.074 254.116,738.074 "/>
<polyline clip-path="url(#clip270)" style="stroke:#000000; stroke-linecap:round; stroke-linejoin:round; stroke-width:4; stroke-opacity:1; fill:none" points="235.219,599.908 254.116,599.908 "/>
<polyline clip-path="url(#clip270)" style="stroke:#000000; stroke-linecap:round; stroke-linejoin:round; stroke-width:4; stroke-opacity:1; fill:none" points="235.219,461.742 254.116,461.742 "/>
<polyline clip-path="url(#clip270)" style="stroke:#000000; stroke-linecap:round; stroke-linejoin:round; stroke-width:4; stroke-opacity:1; fill:none" points="235.219,323.576 254.116,323.576 "/>
<polyline clip-path="url(#clip270)" style="stroke:#000000; stroke-linecap:round; stroke-linejoin:round; stroke-width:4; stroke-opacity:1; fill:none" points="235.219,185.41 254.116,185.41 "/>
<polyline clip-path="url(#clip270)" style="stroke:#000000; stroke-linecap:round; stroke-linejoin:round; stroke-width:4; stroke-opacity:1; fill:none" points="235.219,47.2441 254.116,47.2441 "/>
<path clip-path="url(#clip270)" d="M166.083 741.989 Q166.379 742.286 166.379 742.706 Q166.379 743.126 166.083 743.422 Q165.786 743.719 165.366 743.719 L133.696 743.719 Q133.277 743.719 132.98 743.422 Q132.684 743.126 132.684 742.706 Q132.684 742.286 132.98 741.989 Q133.277 741.693 133.696 741.693 L165.366 741.693 Q165.786 741.693 166.083 741.989 Z" fill="#000000" fill-rule="nonzero" fill-opacity="1" /><path clip-path="url(#clip270)" d="M171.715 755.354 Q171.715 754.44 171.789 754.168 Q171.888 753.896 172.283 753.476 L181.992 742.656 Q187.303 736.678 187.303 731.466 Q187.303 728.081 185.524 725.66 Q183.77 723.24 180.534 723.24 Q178.311 723.24 176.433 724.598 Q174.556 725.957 173.691 728.378 Q173.839 728.328 174.358 728.328 Q175.618 728.328 176.31 729.119 Q177.026 729.909 177.026 730.972 Q177.026 732.33 176.137 732.997 Q175.272 733.64 174.408 733.64 Q174.062 733.64 173.592 733.566 Q173.148 733.491 172.431 732.8 Q171.715 732.083 171.715 730.823 Q171.715 727.291 174.383 724.475 Q177.076 721.659 181.176 721.659 Q185.821 721.659 188.859 724.425 Q191.922 727.167 191.922 731.466 Q191.922 732.973 191.453 734.356 Q191.008 735.715 190.391 736.777 Q189.798 737.839 188.167 739.544 Q186.537 741.248 185.228 742.459 Q183.918 743.669 180.979 746.238 L175.618 751.451 L184.734 751.451 Q189.18 751.451 189.526 751.056 Q190.02 750.339 190.638 746.559 L191.922 746.559 L190.489 755.354 L171.715 755.354 Z" fill="#000000" fill-rule="nonzero" fill-opacity="1" /><path clip-path="url(#clip270)" d="M197.011 747.202 Q197.011 745.695 197.826 745.127 Q198.642 744.534 199.506 744.534 Q200.667 744.534 201.334 745.275 Q202.026 745.991 202.026 747.004 Q202.026 748.017 201.334 748.758 Q200.667 749.474 199.506 749.474 Q198.938 749.474 198.642 749.376 Q199.309 751.698 201.334 753.378 Q203.385 755.057 206.077 755.057 Q209.462 755.057 211.487 751.772 Q212.698 749.647 212.698 744.83 Q212.698 740.581 211.784 738.457 Q210.376 735.221 207.485 735.221 Q203.385 735.221 200.964 738.753 Q200.667 739.198 200.321 739.223 Q199.827 739.223 199.704 738.951 Q199.605 738.654 199.605 737.889 L199.605 722.918 Q199.605 721.708 200.099 721.708 Q200.297 721.708 200.717 721.856 Q203.903 723.264 207.436 723.289 Q211.067 723.289 214.328 721.807 Q214.575 721.659 214.723 721.659 Q215.218 721.659 215.242 722.227 Q215.242 722.424 214.822 723.017 Q214.427 723.585 213.562 724.351 Q212.698 725.092 211.586 725.809 Q210.475 726.525 208.844 727.019 Q207.238 727.489 205.46 727.489 Q203.335 727.489 201.161 726.822 L201.161 736.678 Q203.78 734.109 207.584 734.109 Q211.636 734.109 214.427 737.37 Q217.219 740.631 217.219 745.176 Q217.219 749.944 213.908 753.205 Q210.623 756.466 206.176 756.466 Q202.125 756.466 199.556 753.575 Q197.011 750.685 197.011 747.202 Z" fill="#000000" fill-rule="nonzero" fill-opacity="1" /><path clip-path="url(#clip270)" d="M165.539 603.823 Q165.836 604.12 165.836 604.54 Q165.836 604.96 165.539 605.256 Q165.243 605.553 164.823 605.553 L133.153 605.553 Q132.733 605.553 132.437 605.256 Q132.14 604.96 132.14 604.54 Q132.14 604.12 132.437 603.823 Q132.733 603.527 133.153 603.527 L164.823 603.527 Q165.243 603.527 165.539 603.823 Z" fill="#000000" fill-rule="nonzero" fill-opacity="1" /><path clip-path="url(#clip270)" d="M171.171 617.188 Q171.171 616.274 171.246 616.002 Q171.344 615.73 171.74 615.31 L181.448 604.49 Q186.759 598.512 186.759 593.3 Q186.759 589.915 184.981 587.494 Q183.227 585.074 179.991 585.074 Q177.767 585.074 175.89 586.432 Q174.012 587.791 173.148 590.212 Q173.296 590.162 173.815 590.162 Q175.075 590.162 175.766 590.953 Q176.483 591.743 176.483 592.806 Q176.483 594.164 175.593 594.831 Q174.729 595.474 173.864 595.474 Q173.518 595.474 173.049 595.4 Q172.604 595.325 171.888 594.634 Q171.171 593.917 171.171 592.657 Q171.171 589.125 173.839 586.309 Q176.532 583.493 180.633 583.493 Q185.277 583.493 188.316 586.259 Q191.379 589.001 191.379 593.3 Q191.379 594.807 190.909 596.19 Q190.465 597.549 189.847 598.611 Q189.254 599.673 187.624 601.378 Q185.993 603.082 184.684 604.293 Q183.375 605.503 180.435 608.072 L175.075 613.285 L184.19 613.285 Q188.637 613.285 188.983 612.89 Q189.477 612.173 190.094 608.394 L191.379 608.394 L189.946 617.188 L171.171 617.188 Z" fill="#000000" fill-rule="nonzero" fill-opacity="1" /><path clip-path="url(#clip270)" d="M195.924 601.007 Q195.924 593.572 197.802 589.52 Q200.42 583.493 206.596 583.493 Q207.905 583.493 209.264 583.863 Q210.647 584.209 212.377 585.568 Q214.131 586.926 215.193 589.15 Q217.219 593.448 217.219 601.007 Q217.219 608.394 215.341 612.42 Q212.599 618.3 206.547 618.3 Q204.274 618.3 201.952 617.139 Q199.654 615.977 198.197 613.186 Q195.924 609.011 195.924 601.007 M200.124 600.39 Q200.124 608.023 200.667 611.062 Q201.285 614.347 202.965 615.78 Q204.669 617.188 206.547 617.188 Q208.572 617.188 210.252 615.681 Q211.957 614.149 212.475 610.864 Q213.044 607.628 213.019 600.39 Q213.019 593.349 212.525 590.533 Q211.858 587.247 210.079 585.938 Q208.325 584.604 206.547 584.604 Q205.88 584.604 205.163 584.802 Q204.472 584.999 203.459 585.568 Q202.446 586.136 201.655 587.544 Q200.89 588.952 200.519 591.076 Q200.124 593.819 200.124 600.39 Z" fill="#000000" fill-rule="nonzero" fill-opacity="1" /><path clip-path="url(#clip270)" d="M166.083 465.657 Q166.379 465.954 166.379 466.374 Q166.379 466.794 166.083 467.09 Q165.786 467.387 165.366 467.387 L133.696 467.387 Q133.277 467.387 132.98 467.09 Q132.684 466.794 132.684 466.374 Q132.684 465.954 132.98 465.657 Q133.277 465.361 133.696 465.361 L165.366 465.361 Q165.786 465.361 166.083 465.657 Z" fill="#000000" fill-rule="nonzero" fill-opacity="1" /><path clip-path="url(#clip270)" d="M173.691 450.144 L173.691 448.563 Q179.768 448.563 182.906 445.327 Q183.77 445.327 183.918 445.524 Q184.067 445.722 184.067 446.636 L184.067 475.02 Q184.067 476.527 184.808 476.996 Q185.549 477.466 188.785 477.466 L190.391 477.466 L190.391 479.022 Q188.612 478.874 182.189 478.874 Q175.766 478.874 174.012 479.022 L174.012 477.466 L175.618 477.466 Q178.805 477.466 179.571 477.021 Q180.336 476.552 180.336 475.02 L180.336 448.81 Q177.693 450.144 173.691 450.144 Z" fill="#000000" fill-rule="nonzero" fill-opacity="1" /><path clip-path="url(#clip270)" d="M197.011 470.87 Q197.011 469.363 197.826 468.795 Q198.642 468.202 199.506 468.202 Q200.667 468.202 201.334 468.943 Q202.026 469.659 202.026 470.672 Q202.026 471.685 201.334 472.426 Q200.667 473.143 199.506 473.143 Q198.938 473.143 198.642 473.044 Q199.309 475.366 201.334 477.046 Q203.385 478.726 206.077 478.726 Q209.462 478.726 211.487 475.44 Q212.698 473.315 212.698 468.498 Q212.698 464.249 211.784 462.125 Q210.376 458.889 207.485 458.889 Q203.385 458.889 200.964 462.421 Q200.667 462.866 200.321 462.891 Q199.827 462.891 199.704 462.619 Q199.605 462.323 199.605 461.557 L199.605 446.586 Q199.605 445.376 200.099 445.376 Q200.297 445.376 200.717 445.524 Q203.903 446.932 207.436 446.957 Q211.067 446.957 214.328 445.475 Q214.575 445.327 214.723 445.327 Q215.218 445.327 215.242 445.895 Q215.242 446.092 214.822 446.685 Q214.427 447.253 213.562 448.019 Q212.698 448.76 211.586 449.477 Q210.475 450.193 208.844 450.687 Q207.238 451.157 205.46 451.157 Q203.335 451.157 201.161 450.49 L201.161 460.346 Q203.78 457.777 207.584 457.777 Q211.636 457.777 214.427 461.038 Q217.219 464.299 217.219 468.844 Q217.219 473.612 213.908 476.873 Q210.623 480.134 206.176 480.134 Q202.125 480.134 199.556 477.243 Q197.011 474.353 197.011 470.87 Z" fill="#000000" fill-rule="nonzero" fill-opacity="1" /><path clip-path="url(#clip270)" d="M165.539 327.491 Q165.836 327.788 165.836 328.208 Q165.836 328.628 165.539 328.924 Q165.243 329.221 164.823 329.221 L133.153 329.221 Q132.733 329.221 132.437 328.924 Q132.14 328.628 132.14 328.208 Q132.14 327.788 132.437 327.491 Q132.733 327.195 133.153 327.195 L164.823 327.195 Q165.243 327.195 165.539 327.491 Z" fill="#000000" fill-rule="nonzero" fill-opacity="1" /><path clip-path="url(#clip270)" d="M173.148 311.978 L173.148 310.397 Q179.225 310.397 182.362 307.161 Q183.227 307.161 183.375 307.358 Q183.523 307.556 183.523 308.47 L183.523 336.854 Q183.523 338.361 184.264 338.83 Q185.005 339.3 188.241 339.3 L189.847 339.3 L189.847 340.856 Q188.069 340.708 181.646 340.708 Q175.223 340.708 173.469 340.856 L173.469 339.3 L175.075 339.3 Q178.261 339.3 179.027 338.855 Q179.793 338.386 179.793 336.854 L179.793 310.644 Q177.15 311.978 173.148 311.978 Z" fill="#000000" fill-rule="nonzero" fill-opacity="1" /><path clip-path="url(#clip270)" d="M195.924 324.675 Q195.924 317.24 197.802 313.188 Q200.42 307.161 206.596 307.161 Q207.905 307.161 209.264 307.531 Q210.647 307.877 212.377 309.236 Q214.131 310.594 215.193 312.818 Q217.219 317.116 217.219 324.675 Q217.219 332.062 215.341 336.088 Q212.599 341.968 206.547 341.968 Q204.274 341.968 201.952 340.807 Q199.654 339.646 198.197 336.854 Q195.924 332.679 195.924 324.675 M200.124 324.058 Q200.124 331.691 200.667 334.73 Q201.285 338.015 202.965 339.448 Q204.669 340.856 206.547 340.856 Q208.572 340.856 210.252 339.349 Q211.957 337.818 212.475 334.532 Q213.044 331.296 213.019 324.058 Q213.019 317.017 212.525 314.201 Q211.858 310.916 210.079 309.606 Q208.325 308.272 206.547 308.272 Q205.88 308.272 205.163 308.47 Q204.472 308.668 203.459 309.236 Q202.446 309.804 201.655 311.212 Q200.89 312.62 200.519 314.745 Q200.124 317.487 200.124 324.058 Z" fill="#000000" fill-rule="nonzero" fill-opacity="1" /><path clip-path="url(#clip270)" d="M191.379 189.326 Q191.675 189.622 191.675 190.042 Q191.675 190.462 191.379 190.758 Q191.082 191.055 190.662 191.055 L158.993 191.055 Q158.573 191.055 158.276 190.758 Q157.98 190.462 157.98 190.042 Q157.98 189.622 158.276 189.326 Q158.573 189.029 158.993 189.029 L190.662 189.029 Q191.082 189.029 191.379 189.326 Z" fill="#000000" fill-rule="nonzero" fill-opacity="1" /><path clip-path="url(#clip270)" d="M197.011 194.538 Q197.011 193.031 197.826 192.463 Q198.642 191.87 199.506 191.87 Q200.667 191.87 201.334 192.611 Q202.026 193.327 202.026 194.34 Q202.026 195.353 201.334 196.094 Q200.667 196.811 199.506 196.811 Q198.938 196.811 198.642 196.712 Q199.309 199.034 201.334 200.714 Q203.385 202.394 206.077 202.394 Q209.462 202.394 211.487 199.108 Q212.698 196.984 212.698 192.166 Q212.698 187.917 211.784 185.793 Q210.376 182.557 207.485 182.557 Q203.385 182.557 200.964 186.089 Q200.667 186.534 200.321 186.559 Q199.827 186.559 199.704 186.287 Q199.605 185.991 199.605 185.225 L199.605 170.255 Q199.605 169.044 200.099 169.044 Q200.297 169.044 200.717 169.192 Q203.903 170.6 207.436 170.625 Q211.067 170.625 214.328 169.143 Q214.575 168.995 214.723 168.995 Q215.218 168.995 215.242 169.563 Q215.242 169.76 214.822 170.353 Q214.427 170.922 213.562 171.687 Q212.698 172.428 211.586 173.145 Q210.475 173.861 208.844 174.355 Q207.238 174.825 205.46 174.825 Q203.335 174.825 201.161 174.158 L201.161 184.014 Q203.78 181.445 207.584 181.445 Q211.636 181.445 214.427 184.706 Q217.219 187.967 217.219 192.512 Q217.219 197.28 213.908 200.541 Q210.623 203.802 206.176 203.802 Q202.125 203.802 199.556 200.911 Q197.011 198.021 197.011 194.538 Z" fill="#000000" fill-rule="nonzero" fill-opacity="1" /><path clip-path="url(#clip270)" d="M195.924 48.3434 Q195.924 40.9077 197.802 36.8563 Q200.42 30.8287 206.596 30.8287 Q207.905 30.8287 209.264 31.1993 Q210.647 31.5451 212.377 32.9038 Q214.131 34.2625 215.193 36.4858 Q217.219 40.7842 217.219 48.3434 Q217.219 55.7297 215.341 59.7563 Q212.599 65.6357 206.547 65.6357 Q204.274 65.6357 201.952 64.4747 Q199.654 63.3136 198.197 60.5222 Q195.924 56.3473 195.924 48.3434 M200.124 47.7258 Q200.124 55.3591 200.667 58.3977 Q201.285 61.6832 202.965 63.116 Q204.669 64.5241 206.547 64.5241 Q208.572 64.5241 210.252 63.0172 Q211.957 61.4856 212.475 58.2 Q213.044 54.9639 213.019 47.7258 Q213.019 40.6854 212.525 37.8692 Q211.858 34.5836 210.079 33.2743 Q208.325 31.9404 206.547 31.9404 Q205.88 31.9404 205.163 32.138 Q204.472 32.3356 203.459 32.9038 Q202.446 33.472 201.655 34.8801 Q200.89 36.2882 200.519 38.4126 Q200.124 41.1547 200.124 47.7258 Z" fill="#000000" fill-rule="nonzero" fill-opacity="1" /><path clip-path="url(#clip270)" d="M99.8842 529.446 L97.7442 529.446 Q97.7442 525.743 97.3027 524.894 Q96.8271 524.011 94.5853 524.011 L75.9373 524.011 Q73.3558 524.011 72.7105 524.928 Q72.0651 525.811 72.0651 529.446 L69.8912 529.446 L69.1439 519.765 L76.7865 519.765 Q73.7974 518.78 71.4876 516.708 Q69.1439 514.602 69.1439 511.205 Q69.1439 508.964 70.4007 507.537 Q71.6575 506.076 73.3898 506.076 Q74.9183 506.076 75.6996 507.027 Q76.4468 507.945 76.4468 509.065 Q76.4468 510.322 75.6656 511.205 Q74.8504 512.055 73.4577 512.055 Q72.6086 512.055 71.9632 511.681 Q71.2838 511.273 71.0461 510.968 Q70.8083 510.662 70.7404 510.458 Q70.6724 510.594 70.6724 511.205 Q70.6724 515.044 74.5107 517.252 Q78.315 519.425 83.7498 519.425 L94.4494 519.425 Q96.4535 519.425 97.0989 518.61 Q97.7442 517.761 97.7442 514.127 L97.7442 512.666 L99.8842 512.666 Q99.6804 515.451 99.6804 521.497 Q99.6804 522.347 99.7143 523.671 Q99.7483 524.996 99.8162 526.728 Q99.8842 528.461 99.8842 529.446 Z" fill="#000000" fill-rule="nonzero" fill-opacity="1" /><path clip-path="url(#clip270)" d="M84.565 502.272 Q78.0093 502.272 73.3558 498.06 Q68.7023 493.848 68.7023 487.802 Q68.7023 481.688 72.6765 478.529 Q76.6506 475.336 82.3571 475.336 Q83.4101 475.336 83.6139 475.608 Q83.8177 475.88 83.8177 477.068 L83.8177 496.498 Q90.9168 496.498 94.2456 494.392 Q98.8991 491.47 98.8991 486.545 Q98.8991 485.866 98.7632 485.051 Q98.6274 484.235 98.0499 482.571 Q97.4385 480.907 95.8421 479.446 Q94.2456 477.986 91.732 477.136 Q90.747 476.933 90.781 476.253 Q90.781 475.336 91.5962 475.336 Q92.2076 475.336 93.6002 476.015 Q94.9589 476.661 96.5893 477.918 Q98.2198 479.174 99.4426 481.62 Q100.665 484.032 100.665 486.953 Q100.665 493.067 96.0459 497.686 Q91.3924 502.272 84.565 502.272 M82.3571 496.43 L82.3571 479.922 Q80.8965 479.922 79.2661 480.193 Q77.6357 480.431 75.3939 481.178 Q73.1181 481.892 71.6914 483.59 Q70.2648 485.288 70.2648 487.802 Q70.2648 488.923 70.7404 490.146 Q71.2159 491.335 72.3708 492.795 Q73.5257 494.256 76.1411 495.275 Q78.7566 496.294 82.3571 496.43 Z" fill="#000000" fill-rule="nonzero" fill-opacity="1" /><path clip-path="url(#clip270)" d="M72.0651 472.075 L69.8912 472.075 Q70.095 468.305 70.095 465.622 Q70.095 464.297 69.8912 458.013 L72.0651 458.013 Q72.0651 462.123 73.9333 462.123 Q74.3409 462.123 75.1901 461.783 L93.7701 455.16 L76.9224 449.181 Q73.5257 450.438 73.1181 450.778 Q72.0651 451.627 72.0651 455.16 L69.8912 455.16 Q70.095 452.035 70.095 448.978 Q70.095 447.789 69.8912 441.743 L72.0651 441.743 Q72.0651 445.853 73.9333 445.853 Q74.205 445.853 75.258 445.513 L94.6532 438.618 L76.8545 432.3 Q75.9373 431.96 75.3939 431.926 Q73.8653 431.926 73.0162 433.013 Q72.133 434.1 72.0651 435.968 L69.8912 435.968 Q70.095 431.994 70.095 429.514 Q70.095 426.729 69.8912 424.419 L72.0651 424.419 Q72.201 428.733 76.5148 430.262 L99.3407 438.414 Q100.597 439.195 100.665 439.806 Q100.665 440.724 99.3407 441.199 L79.5718 448.298 L99.2727 455.329 Q100.122 455.601 100.394 455.839 Q100.665 456.077 100.665 456.722 Q100.665 457.334 100.292 457.605 Q99.9521 457.877 99.1029 458.183 L74.4768 466.946 Q72.8803 467.558 72.4727 468.475 Q72.0651 469.358 72.0651 472.075 Z" fill="#000000" fill-rule="nonzero" fill-opacity="1" /><path clip-path="url(#clip270)" d="M93.2606 422.144 Q87.3503 422.144 84.2253 415.18 Q82.2213 411.002 81.7117 402.375 L79.1642 402.375 Q74.8504 402.375 72.5746 404.651 Q70.2648 406.892 70.2648 409.746 Q70.2648 414.841 73.4577 417.286 Q73.5257 415.214 74.5787 414.467 Q75.5977 413.72 76.6506 413.72 Q78.0433 413.72 78.9604 414.603 Q79.8436 415.452 79.8436 416.913 Q79.8436 418.305 78.9944 419.222 Q78.1112 420.14 76.5827 420.14 Q73.186 420.14 70.9442 417.082 Q68.7023 413.991 68.7023 409.61 Q68.7023 403.903 72.5406 400.099 Q73.7295 398.91 75.258 398.333 Q76.7865 397.721 77.8055 397.653 Q78.7906 397.585 80.7607 397.585 L94.6532 397.585 Q95.0608 397.585 95.7402 397.449 Q96.4195 397.314 97.3027 396.702 Q98.1518 396.057 98.1518 395.004 Q98.1518 392.49 93.7021 392.524 L89.7959 392.524 L89.7959 390.758 L93.7021 390.758 Q97.4046 390.758 98.8651 392.728 Q100.292 394.664 100.292 396.464 Q100.292 398.774 98.5934 400.235 Q96.8951 401.695 94.5853 401.899 Q97.2347 402.952 98.967 405.364 Q100.665 407.742 100.665 411.002 Q100.665 413.516 100.02 415.894 Q99.4086 418.237 97.6763 420.207 Q95.91 422.144 93.2606 422.144 M93.1926 416.777 Q95.7741 416.777 97.4385 414.943 Q99.1029 413.108 99.1029 410.527 Q99.1029 407.606 96.8611 404.99 Q94.5853 402.375 90.1356 402.375 L83.1723 402.375 Q83.4441 410.085 86.5351 413.448 Q89.5921 416.777 93.1926 416.777 Z" fill="#000000" fill-rule="nonzero" fill-opacity="1" /><path clip-path="url(#clip270)" d="M99.8842 388.346 L97.7442 388.346 Q97.7442 384.644 97.3027 383.795 Q96.8271 382.912 94.5853 382.912 L75.9373 382.912 Q73.3558 382.912 72.7105 383.829 Q72.0651 384.712 72.0651 388.346 L69.8912 388.346 L69.1439 378.666 L76.7865 378.666 Q73.7974 377.681 71.4876 375.609 Q69.1439 373.503 69.1439 370.106 Q69.1439 367.864 70.4007 366.438 Q71.6575 364.977 73.3898 364.977 Q74.9183 364.977 75.6996 365.928 Q76.4468 366.845 76.4468 367.966 Q76.4468 369.223 75.6656 370.106 Q74.8504 370.955 73.4577 370.955 Q72.6086 370.955 71.9632 370.582 Q71.2838 370.174 71.0461 369.868 Q70.8083 369.562 70.7404 369.359 Q70.6724 369.495 70.6724 370.106 Q70.6724 373.944 74.5107 376.152 Q78.315 378.326 83.7498 378.326 L94.4494 378.326 Q96.4535 378.326 97.0989 377.511 Q97.7442 376.662 97.7442 373.027 L97.7442 371.567 L99.8842 371.567 Q99.6804 374.352 99.6804 380.398 Q99.6804 381.247 99.7143 382.572 Q99.7483 383.897 99.8162 385.629 Q99.8842 387.361 99.8842 388.346 Z" fill="#000000" fill-rule="nonzero" fill-opacity="1" /><path clip-path="url(#clip270)" d="M84.9386 360.731 Q78.315 360.731 73.7295 356.112 Q69.1439 351.492 69.1439 345.242 Q69.1439 339.943 73.4577 336.479 L58.4103 336.479 Q55.8288 336.479 55.1834 337.396 Q54.5381 338.279 54.5381 341.879 L52.3642 341.879 L51.6169 331.859 L93.838 331.859 Q96.4195 331.859 97.0989 330.976 Q97.7442 330.059 97.7442 326.458 L99.8842 326.458 L100.665 336.682 L96.0459 336.682 Q100.631 340.283 100.665 345.989 Q100.665 351.968 96.0798 356.349 Q91.4943 360.731 84.9386 360.731 M85.0066 354.957 Q91.4603 354.957 94.6532 352.953 Q99.1029 350.167 99.1029 345.65 Q99.1029 340.487 94.2456 337.43 Q93.0568 336.648 91.6641 336.682 L77.3979 336.682 Q76.0053 336.682 74.8504 337.43 Q70.6724 340.283 70.6724 344.936 Q70.6724 349.794 75.1221 352.817 Q78.4509 354.957 85.0066 354.957 Z" fill="#000000" fill-rule="nonzero" fill-opacity="1" /><path clip-path="url(#clip272)" d="M281.305 661.315 L281.305 47.2441 L436.061 47.2441 L436.061 661.315 L281.305 661.315 L281.305 661.315  Z" fill="#1abc9c" fill-rule="evenodd" fill-opacity="1"/>
<polyline clip-path="url(#clip272)" style="stroke:#ffffff; stroke-linecap:round; stroke-linejoin:round; stroke-width:16; stroke-opacity:1; fill:none" points="281.305,661.315 281.305,47.2441 436.061,47.2441 436.061,661.315 281.305,661.315 "/>
<path clip-path="url(#clip272)" d="M797.158 661.814 L797.158 47.2441 L951.914 47.2441 L951.914 661.814 L797.158 661.814 L797.158 661.814  Z" fill="#1abc9c" fill-rule="evenodd" fill-opacity="1"/>
<polyline clip-path="url(#clip272)" style="stroke:#ffffff; stroke-linecap:round; stroke-linejoin:round; stroke-width:16; stroke-opacity:1; fill:none" points="797.158,661.814 797.158,47.2441 951.914,47.2441 951.914,661.814 797.158,661.814 "/>
<circle clip-path="url(#clip272)" style="fill:#1abc9c; stroke:none; fill-opacity:0" cx="358.683" cy="661.315" r="2"/>
<circle clip-path="url(#clip272)" style="fill:#1abc9c; stroke:none; fill-opacity:0" cx="874.536" cy="661.814" r="2"/>
<path clip-path="url(#clip272)" d="M436.061 219.279 L436.061 47.2441 L590.817 47.2441 L590.817 219.279 L436.061 219.279 L436.061 219.279  Z" fill="#e67e22" fill-rule="evenodd" fill-opacity="1"/>
<polyline clip-path="url(#clip272)" style="stroke:#ffffff; stroke-linecap:round; stroke-linejoin:round; stroke-width:16; stroke-opacity:1; fill:none" points="436.061,219.279 436.061,47.2441 590.817,47.2441 590.817,219.279 436.061,219.279 "/>
<path clip-path="url(#clip272)" d="M951.914 670.494 L951.914 47.2441 L1106.67 47.2441 L1106.67 670.494 L951.914 670.494 L951.914 670.494  Z" fill="#e67e22" fill-rule="evenodd" fill-opacity="1"/>
<polyline clip-path="url(#clip272)" style="stroke:#ffffff; stroke-linecap:round; stroke-linejoin:round; stroke-width:16; stroke-opacity:1; fill:none" points="951.914,670.494 951.914,47.2441 1106.67,47.2441 1106.67,670.494 951.914,670.494 "/>
<circle clip-path="url(#clip272)" style="fill:#e67e22; stroke:none; fill-opacity:0" cx="513.439" cy="219.279" r="2"/>
<circle clip-path="url(#clip272)" style="fill:#e67e22; stroke:none; fill-opacity:0" cx="1029.29" cy="670.494" r="2"/>
<path clip-path="url(#clip270)" d="M925.082 228.145 L1122.17 228.145 L1122.17 72.6246 L925.082 72.6246  Z" fill="#ffffff" fill-rule="evenodd" fill-opacity="1"/>
<polyline clip-path="url(#clip270)" style="stroke:#000000; stroke-linecap:round; stroke-linejoin:round; stroke-width:4; stroke-opacity:1; fill:none" points="925.082,228.145 1122.17,228.145 1122.17,72.6246 925.082,72.6246 925.082,228.145 "/>
<path clip-path="url(#clip270)" d="M935.277 145.201 L996.446 145.201 L996.446 103.729 L935.277 103.729 L935.277 145.201  Z" fill="#1abc9c" fill-rule="evenodd" fill-opacity="1"/>
<polyline clip-path="url(#clip270)" style="stroke:#ffffff; stroke-linecap:round; stroke-linejoin:round; stroke-width:16; stroke-opacity:1; fill:none" points="935.277,145.201 996.446,145.201 996.446,103.729 935.277,103.729 935.277,145.201 "/>
<path clip-path="url(#clip270)" d="M1009.85 138.978 Q1006.64 135.618 1006.64 130.826 Q1006.64 126.009 1009.8 122.55 Q1012.97 119.067 1017.61 119.067 Q1020.7 119.067 1023.02 120.549 Q1025.34 122.007 1025.34 124.502 Q1025.34 125.613 1024.67 126.256 Q1024.03 126.873 1023.02 126.873 Q1021.96 126.873 1021.32 126.231 Q1020.7 125.564 1020.7 124.551 Q1020.7 124.106 1020.85 123.662 Q1020.99 123.217 1021.54 122.748 Q1022.11 122.278 1023.07 122.204 Q1021.27 120.352 1017.76 120.352 Q1017.71 120.352 1017.66 120.352 Q1015.09 120.352 1012.97 122.772 Q1010.84 125.193 1010.84 130.727 Q1010.84 133.617 1011.53 135.742 Q1012.25 137.841 1013.41 138.928 Q1014.57 140.015 1015.71 140.534 Q1016.84 141.028 1017.96 141.028 Q1022.92 141.028 1024.6 135.717 Q1024.75 135.223 1025.24 135.223 Q1025.91 135.223 1025.91 135.717 Q1025.91 135.964 1025.71 136.606 Q1025.51 137.249 1024.9 138.261 Q1024.28 139.274 1023.39 140.164 Q1022.53 141.028 1020.97 141.671 Q1019.44 142.313 1017.51 142.313 Q1013.06 142.313 1009.85 138.978 Z" fill="#000000" fill-rule="nonzero" fill-opacity="1" /><path clip-path="url(#clip270)" d="M1029.49 136.927 Q1029.49 132.629 1034.56 130.356 Q1037.59 128.899 1043.87 128.528 L1043.87 126.676 Q1043.87 123.538 1042.21 121.883 Q1040.58 120.203 1038.51 120.203 Q1034.8 120.203 1033.02 122.525 Q1034.53 122.575 1035.07 123.341 Q1035.62 124.082 1035.62 124.848 Q1035.62 125.86 1034.98 126.527 Q1034.36 127.17 1033.3 127.17 Q1032.28 127.17 1031.62 126.552 Q1030.95 125.91 1030.95 124.798 Q1030.95 122.328 1033.17 120.697 Q1035.42 119.067 1038.61 119.067 Q1042.76 119.067 1045.52 121.858 Q1046.39 122.723 1046.81 123.835 Q1047.25 124.946 1047.3 125.687 Q1047.35 126.404 1047.35 127.837 L1047.35 137.94 Q1047.35 138.237 1047.45 138.731 Q1047.55 139.225 1047.99 139.867 Q1048.46 140.485 1049.23 140.485 Q1051.06 140.485 1051.03 137.249 L1051.03 134.408 L1052.32 134.408 L1052.32 137.249 Q1052.32 139.941 1050.89 141.004 Q1049.48 142.041 1048.17 142.041 Q1046.49 142.041 1045.43 140.806 Q1044.36 139.571 1044.22 137.891 Q1043.45 139.818 1041.7 141.078 Q1039.97 142.313 1037.59 142.313 Q1035.77 142.313 1034.04 141.843 Q1032.33 141.399 1030.9 140.139 Q1029.49 138.854 1029.49 136.927 M1033.4 136.878 Q1033.4 138.756 1034.73 139.966 Q1036.06 141.176 1037.94 141.176 Q1040.06 141.176 1041.97 139.546 Q1043.87 137.891 1043.87 134.655 L1043.87 129.591 Q1038.26 129.788 1035.82 132.036 Q1033.4 134.26 1033.4 136.878 Z" fill="#000000" fill-rule="nonzero" fill-opacity="1" /><path clip-path="url(#clip270)" d="M1054.07 141.745 L1054.07 140.188 Q1056.76 140.188 1057.38 139.867 Q1058.02 139.521 1058.02 137.891 L1058.02 124.329 Q1058.02 122.451 1057.36 121.982 Q1056.72 121.513 1054.07 121.513 L1054.07 119.932 L1061.11 119.388 L1061.11 124.946 Q1061.83 122.772 1063.34 121.093 Q1064.87 119.388 1067.34 119.388 Q1068.97 119.388 1070.01 120.302 Q1071.07 121.216 1071.07 122.476 Q1071.07 123.588 1070.38 124.156 Q1069.71 124.699 1068.89 124.699 Q1067.98 124.699 1067.34 124.131 Q1066.72 123.538 1066.72 122.525 Q1066.72 121.908 1066.99 121.438 Q1067.29 120.944 1067.51 120.771 Q1067.73 120.599 1067.88 120.549 Q1067.78 120.5 1067.34 120.5 Q1064.55 120.5 1062.94 123.291 Q1061.36 126.058 1061.36 130.011 L1061.36 137.792 Q1061.36 139.25 1061.95 139.719 Q1062.57 140.188 1065.21 140.188 L1066.28 140.188 L1066.28 141.745 Q1064.25 141.596 1059.85 141.596 Q1059.23 141.596 1058.27 141.621 Q1057.31 141.646 1056.05 141.695 Q1054.79 141.745 1054.07 141.745 Z" fill="#000000" fill-rule="nonzero" fill-opacity="1" /><path clip-path="url(#clip270)" d="M1093.75 112.866 L1093.75 111.285 Q1099.82 111.285 1102.96 108.049 Q1103.82 108.049 1103.97 108.247 Q1104.12 108.444 1104.12 109.359 L1104.12 137.743 Q1104.12 139.25 1104.86 139.719 Q1105.6 140.188 1108.84 140.188 L1110.44 140.188 L1110.44 141.745 Q1108.67 141.596 1102.24 141.596 Q1095.82 141.596 1094.07 141.745 L1094.07 140.188 L1095.67 140.188 Q1098.86 140.188 1099.62 139.744 Q1100.39 139.274 1100.39 137.743 L1100.39 111.532 Q1097.75 112.866 1093.75 112.866 Z" fill="#000000" fill-rule="nonzero" fill-opacity="1" /><path clip-path="url(#clip270)" d="M935.277 197.041 L996.446 197.041 L996.446 155.569 L935.277 155.569 L935.277 197.041  Z" fill="#e67e22" fill-rule="evenodd" fill-opacity="1"/>
<polyline clip-path="url(#clip270)" style="stroke:#ffffff; stroke-linecap:round; stroke-linejoin:round; stroke-width:16; stroke-opacity:1; fill:none" points="935.277,197.041 996.446,197.041 996.446,155.569 935.277,155.569 935.277,197.041 "/>
<path clip-path="url(#clip270)" d="M1009.85 190.818 Q1006.64 187.458 1006.64 182.666 Q1006.64 177.849 1009.8 174.39 Q1012.97 170.907 1017.61 170.907 Q1020.7 170.907 1023.02 172.389 Q1025.34 173.847 1025.34 176.342 Q1025.34 177.453 1024.67 178.096 Q1024.03 178.713 1023.02 178.713 Q1021.96 178.713 1021.32 178.071 Q1020.7 177.404 1020.7 176.391 Q1020.7 175.946 1020.85 175.502 Q1020.99 175.057 1021.54 174.588 Q1022.11 174.118 1023.07 174.044 Q1021.27 172.192 1017.76 172.192 Q1017.71 172.192 1017.66 172.192 Q1015.09 172.192 1012.97 174.612 Q1010.84 177.033 1010.84 182.567 Q1010.84 185.457 1011.53 187.582 Q1012.25 189.681 1013.41 190.768 Q1014.57 191.855 1015.71 192.374 Q1016.84 192.868 1017.96 192.868 Q1022.92 192.868 1024.6 187.557 Q1024.75 187.063 1025.24 187.063 Q1025.91 187.063 1025.91 187.557 Q1025.91 187.804 1025.71 188.446 Q1025.51 189.089 1024.9 190.101 Q1024.28 191.114 1023.39 192.004 Q1022.53 192.868 1020.97 193.511 Q1019.44 194.153 1017.51 194.153 Q1013.06 194.153 1009.85 190.818 Z" fill="#000000" fill-rule="nonzero" fill-opacity="1" /><path clip-path="url(#clip270)" d="M1029.49 188.767 Q1029.49 184.469 1034.56 182.196 Q1037.59 180.739 1043.87 180.368 L1043.87 178.516 Q1043.87 175.378 1042.21 173.723 Q1040.58 172.043 1038.51 172.043 Q1034.8 172.043 1033.02 174.365 Q1034.53 174.415 1035.07 175.181 Q1035.62 175.922 1035.62 176.688 Q1035.62 177.7 1034.98 178.367 Q1034.36 179.01 1033.3 179.01 Q1032.28 179.01 1031.62 178.392 Q1030.95 177.75 1030.95 176.638 Q1030.95 174.168 1033.17 172.537 Q1035.42 170.907 1038.61 170.907 Q1042.76 170.907 1045.52 173.698 Q1046.39 174.563 1046.81 175.675 Q1047.25 176.786 1047.3 177.527 Q1047.35 178.244 1047.35 179.677 L1047.35 189.78 Q1047.35 190.077 1047.45 190.571 Q1047.55 191.065 1047.99 191.707 Q1048.46 192.325 1049.23 192.325 Q1051.06 192.325 1051.03 189.089 L1051.03 186.248 L1052.32 186.248 L1052.32 189.089 Q1052.32 191.781 1050.89 192.844 Q1049.48 193.881 1048.17 193.881 Q1046.49 193.881 1045.43 192.646 Q1044.36 191.411 1044.22 189.731 Q1043.45 191.658 1041.7 192.918 Q1039.97 194.153 1037.59 194.153 Q1035.77 194.153 1034.04 193.683 Q1032.33 193.239 1030.9 191.979 Q1029.49 190.694 1029.49 188.767 M1033.4 188.718 Q1033.4 190.596 1034.73 191.806 Q1036.06 193.016 1037.94 193.016 Q1040.06 193.016 1041.97 191.386 Q1043.87 189.731 1043.87 186.495 L1043.87 181.431 Q1038.26 181.628 1035.82 183.876 Q1033.4 186.1 1033.4 188.718 Z" fill="#000000" fill-rule="nonzero" fill-opacity="1" /><path clip-path="url(#clip270)" d="M1054.07 193.585 L1054.07 192.028 Q1056.76 192.028 1057.38 191.707 Q1058.02 191.361 1058.02 189.731 L1058.02 176.169 Q1058.02 174.291 1057.36 173.822 Q1056.72 173.353 1054.07 173.353 L1054.07 171.772 L1061.11 171.228 L1061.11 176.786 Q1061.83 174.612 1063.34 172.933 Q1064.87 171.228 1067.34 171.228 Q1068.97 171.228 1070.01 172.142 Q1071.07 173.056 1071.07 174.316 Q1071.07 175.428 1070.38 175.996 Q1069.71 176.539 1068.89 176.539 Q1067.98 176.539 1067.34 175.971 Q1066.72 175.378 1066.72 174.365 Q1066.72 173.748 1066.99 173.278 Q1067.29 172.784 1067.51 172.611 Q1067.73 172.439 1067.88 172.389 Q1067.78 172.34 1067.34 172.34 Q1064.55 172.34 1062.94 175.131 Q1061.36 177.898 1061.36 181.851 L1061.36 189.632 Q1061.36 191.09 1061.95 191.559 Q1062.57 192.028 1065.21 192.028 L1066.28 192.028 L1066.28 193.585 Q1064.25 193.436 1059.85 193.436 Q1059.23 193.436 1058.27 193.461 Q1057.31 193.486 1056.05 193.535 Q1054.79 193.585 1054.07 193.585 Z" fill="#000000" fill-rule="nonzero" fill-opacity="1" /><path clip-path="url(#clip270)" d="M1091.77 193.585 Q1091.77 192.671 1091.84 192.399 Q1091.94 192.127 1092.34 191.707 L1102.05 180.887 Q1107.36 174.909 1107.36 169.696 Q1107.36 166.312 1105.58 163.891 Q1103.82 161.47 1100.59 161.47 Q1098.36 161.47 1096.49 162.829 Q1094.61 164.188 1093.75 166.609 Q1093.89 166.559 1094.41 166.559 Q1095.67 166.559 1096.36 167.35 Q1097.08 168.14 1097.08 169.202 Q1097.08 170.561 1096.19 171.228 Q1095.33 171.87 1094.46 171.87 Q1094.12 171.87 1093.65 171.796 Q1093.2 171.722 1092.49 171.03 Q1091.77 170.314 1091.77 169.054 Q1091.77 165.522 1094.44 162.705 Q1097.13 159.889 1101.23 159.889 Q1105.87 159.889 1108.91 162.656 Q1111.98 165.398 1111.98 169.696 Q1111.98 171.203 1111.51 172.587 Q1111.06 173.945 1110.44 175.008 Q1109.85 176.07 1108.22 177.774 Q1106.59 179.479 1105.28 180.689 Q1103.97 181.9 1101.03 184.469 L1095.67 189.681 L1104.79 189.681 Q1109.23 189.681 1109.58 189.286 Q1110.07 188.57 1110.69 184.79 L1111.98 184.79 L1110.54 193.585 L1091.77 193.585 Z" fill="#000000" fill-rule="nonzero" fill-opacity="1" /></svg>
