<?xml version="1.0" encoding="utf-8"?>
<svg xmlns="http://www.w3.org/2000/svg" xmlns:xlink="http://www.w3.org/1999/xlink" width="300" height="250" viewBox="0 0 1200 1000">
<defs>
  <clipPath id="clip630">
    <rect x="0" y="0" width="1200" height="1000"/>
  </clipPath>
</defs>
<path clip-path="url(#clip630)" d="M0 1000 L1200 1000 L1200 0 L0 0  Z" fill="#ffffff" fill-rule="evenodd" fill-opacity="1"/>
<defs>
  <clipPath id="clip631">
    <rect x="240" y="0" width="841" height="841"/>
  </clipPath>
</defs>
<path clip-path="url(#clip630)" d="M235.219 883.808 L1152.76 883.808 L1152.76 230.65 L235.219 230.65  Z" fill="#ffffff" fill-rule="evenodd" fill-opacity="1"/>
<defs>
  <clipPath id="clip632">
    <rect x="235" y="230" width="919" height="654"/>
  </clipPath>
</defs>
<polyline clip-path="url(#clip632)" style="stroke:#000000; stroke-linecap:round; stroke-linejoin:round; stroke-width:2; stroke-opacity:0.1; fill:none" points="377.844,883.808 377.844,230.65 "/>
<polyline clip-path="url(#clip632)" style="stroke:#000000; stroke-linecap:round; stroke-linejoin:round; stroke-width:2; stroke-opacity:0.1; fill:none" points="693.987,883.808 693.987,230.65 "/>
<polyline clip-path="url(#clip632)" style="stroke:#000000; stroke-linecap:round; stroke-linejoin:round; stroke-width:2; stroke-opacity:0.1; fill:none" points="1010.13,883.808 1010.13,230.65 "/>
<polyline clip-path="url(#clip630)" style="stroke:#000000; stroke-linecap:round; stroke-linejoin:round; stroke-width:4; stroke-opacity:1; fill:none" points="235.219,883.808 1152.76,883.808 "/>
<polyline clip-path="url(#clip630)" style="stroke:#000000; stroke-linecap:round; stroke-linejoin:round; stroke-width:4; stroke-opacity:1; fill:none" points="377.844,883.808 377.844,869.053 "/>
<polyline clip-path="url(#clip630)" style="stroke:#000000; stroke-linecap:round; stroke-linejoin:round; stroke-width:4; stroke-opacity:1; fill:none" points="693.987,883.808 693.987,869.053 "/>
<polyline clip-path="url(#clip630)" style="stroke:#000000; stroke-linecap:round; stroke-linejoin:round; stroke-width:4; stroke-opacity:1; fill:none" points="1010.13,883.808 1010.13,869.053 "/>
<path clip-path="url(#clip630)" d="M230.525 919.316 Q230.525 911.682 235.737 906.322 Q240.95 900.936 248.114 900.936 Q250.337 900.936 252.313 901.751 Q254.29 902.567 255.204 903.283 Q256.118 903.975 257.427 905.284 L259.971 901.554 Q260.367 900.936 260.762 900.936 Q261.182 900.936 261.256 901.183 Q261.33 901.406 261.33 902.147 L261.33 914.153 Q261.33 914.968 261.231 915.165 Q261.133 915.363 260.515 915.363 Q260.021 915.363 259.897 915.215 Q259.799 915.067 259.7 914.498 Q258.934 909.039 255.895 905.778 Q252.882 902.517 248.682 902.517 Q247.472 902.517 246.113 902.789 Q244.779 903.061 242.827 904.098 Q240.9 905.136 239.394 906.865 Q237.911 908.57 236.824 911.83 Q235.737 915.067 235.737 919.365 Q235.737 923.614 236.824 926.875 Q237.911 930.136 239.394 931.84 Q240.9 933.52 242.827 934.557 Q244.779 935.595 246.138 935.891 Q247.521 936.163 248.731 936.163 Q253.079 936.163 256.414 933.075 Q259.749 929.987 260.07 924.775 Q260.12 924.528 260.12 924.429 Q260.12 924.306 260.169 924.182 Q260.219 924.059 260.342 924.009 Q260.466 923.96 260.663 923.96 Q261.33 923.96 261.33 924.824 Q261.33 929.642 257.625 933.693 Q253.944 937.72 248.114 937.72 Q240.925 937.72 235.713 932.384 Q230.525 927.048 230.525 919.316 Z" fill="#000000" fill-rule="nonzero" fill-opacity="1" /><path clip-path="url(#clip630)" d="M265.604 925.467 Q265.604 920.699 268.667 917.315 Q271.73 913.93 276.127 913.93 Q280.574 913.93 282.872 916.82 Q285.194 919.711 285.194 923.861 Q285.194 924.627 284.996 924.775 Q284.798 924.923 283.934 924.923 L269.803 924.923 Q269.803 930.086 271.335 932.507 Q273.46 935.891 277.042 935.891 Q277.536 935.891 278.128 935.793 Q278.721 935.694 279.932 935.274 Q281.142 934.829 282.205 933.668 Q283.267 932.507 283.884 930.679 Q284.033 929.963 284.527 929.987 Q285.194 929.987 285.194 930.58 Q285.194 931.025 284.7 932.038 Q284.23 933.026 283.316 934.212 Q282.402 935.397 280.624 936.287 Q278.87 937.176 276.745 937.176 Q272.298 937.176 268.939 933.816 Q265.604 930.432 265.604 925.467 M269.853 923.861 L281.859 923.861 Q281.859 922.799 281.661 921.613 Q281.488 920.427 280.945 918.797 Q280.426 917.142 279.191 916.104 Q277.956 915.067 276.127 915.067 Q275.312 915.067 274.423 915.412 Q273.558 915.758 272.496 916.598 Q271.434 917.438 270.693 919.34 Q269.952 921.242 269.853 923.861 Z" fill="#000000" fill-rule="nonzero" fill-opacity="1" /><path clip-path="url(#clip630)" d="M288.282 936.608 L288.282 935.052 Q290.974 935.052 291.592 934.73 Q292.209 934.385 292.209 932.754 L292.209 919.192 Q292.209 917.315 291.542 916.845 Q290.9 916.376 288.282 916.376 L288.282 914.795 L295.396 914.251 L295.396 919.563 Q297.768 914.251 302.881 914.251 Q306.686 914.251 308.192 916.129 Q309.304 917.389 309.526 918.797 Q309.773 920.205 309.773 923.861 L309.773 933.52 Q309.823 934.582 310.638 934.829 Q311.453 935.052 313.726 935.052 L313.726 936.608 Q308.563 936.46 308.044 936.46 Q307.649 936.46 302.338 936.608 L302.338 935.052 Q305.03 935.052 305.648 934.73 Q306.29 934.385 306.29 932.754 L306.29 920.971 Q306.29 918.401 305.5 916.895 Q304.709 915.363 302.535 915.363 Q299.917 915.363 297.817 917.562 Q295.717 919.76 295.717 923.466 L295.717 932.754 Q295.717 934.385 296.335 934.73 Q296.977 935.052 299.645 935.052 L299.645 936.608 Q294.482 936.46 293.988 936.46 Q293.593 936.46 288.282 936.608 Z" fill="#000000" fill-rule="nonzero" fill-opacity="1" /><path clip-path="url(#clip630)" d="M314.269 916.376 L314.269 915.264 Q316.592 915.165 318.123 913.535 Q319.68 911.88 320.198 909.854 Q320.742 907.828 320.791 905.482 L322.051 905.482 L322.051 914.795 L329.289 914.795 L329.289 916.376 L322.051 916.376 L322.051 930.432 Q322.051 935.891 325.46 935.891 Q326.918 935.891 327.881 934.409 Q328.844 932.902 328.844 930.234 L328.844 927.443 L330.104 927.443 L330.104 930.333 Q330.104 933.075 328.844 935.126 Q327.585 937.176 325.09 937.176 Q324.176 937.176 323.261 936.929 Q322.372 936.707 321.186 936.114 Q320.025 935.496 319.284 934.014 Q318.568 932.507 318.568 930.333 L318.568 916.376 L314.269 916.376 Z" fill="#000000" fill-rule="nonzero" fill-opacity="1" /><path clip-path="url(#clip630)" d="M337.985 935.793 Q337.219 934.977 337.219 933.915 Q337.219 932.853 337.985 932.087 Q338.751 931.297 339.912 931.297 Q341.023 931.297 341.764 932.038 Q342.53 932.754 342.53 933.94 Q342.53 935.101 341.715 935.867 Q340.924 936.608 339.912 936.608 Q338.751 936.608 337.985 935.793 Z" fill="#000000" fill-rule="nonzero" fill-opacity="1" /><path clip-path="url(#clip630)" d="M366.641 919.316 Q366.641 911.682 371.853 906.322 Q377.065 900.936 384.229 900.936 Q386.453 900.936 388.429 901.751 Q390.405 902.567 391.319 903.283 Q392.233 903.975 393.543 905.284 L396.087 901.554 Q396.482 900.936 396.878 900.936 Q397.297 900.936 397.372 901.183 Q397.446 901.406 397.446 902.147 L397.446 914.153 Q397.446 914.968 397.347 915.165 Q397.248 915.363 396.63 915.363 Q396.136 915.363 396.013 915.215 Q395.914 915.067 395.815 914.498 Q395.049 909.039 392.011 905.778 Q388.997 902.517 384.798 902.517 Q383.587 902.517 382.228 902.789 Q380.894 903.061 378.943 904.098 Q377.016 905.136 375.509 906.865 Q374.027 908.57 372.94 911.83 Q371.853 915.067 371.853 919.365 Q371.853 923.614 372.94 926.875 Q374.027 930.136 375.509 931.84 Q377.016 933.52 378.943 934.557 Q380.894 935.595 382.253 935.891 Q383.637 936.163 384.847 936.163 Q389.195 936.163 392.53 933.075 Q395.865 929.987 396.186 924.775 Q396.235 924.528 396.235 924.429 Q396.235 924.306 396.285 924.182 Q396.334 924.059 396.458 924.009 Q396.581 923.96 396.779 923.96 Q397.446 923.96 397.446 924.824 Q397.446 929.642 393.74 933.693 Q390.059 937.72 384.229 937.72 Q377.041 937.72 371.828 932.384 Q366.641 927.048 366.641 919.316 Z" fill="#000000" fill-rule="nonzero" fill-opacity="1" /><path clip-path="url(#clip630)" d="M405.054 933.891 Q401.719 930.58 401.719 925.788 Q401.719 920.971 404.98 917.463 Q408.266 913.93 412.959 913.93 Q417.554 913.93 420.84 917.438 Q424.15 920.921 424.15 925.788 Q424.15 930.556 420.815 933.866 Q417.505 937.176 412.91 937.176 Q408.414 937.176 405.054 933.891 M405.919 925.368 Q405.919 930.284 407.204 932.507 Q409.18 935.891 412.959 935.891 Q414.837 935.891 416.393 934.879 Q417.974 933.866 418.839 932.161 Q419.95 929.938 419.95 925.368 Q419.95 920.501 418.616 918.352 Q416.64 915.067 412.91 915.067 Q411.28 915.067 409.674 915.931 Q408.093 916.771 407.129 918.451 Q405.919 920.674 405.919 925.368 Z" fill="#000000" fill-rule="nonzero" fill-opacity="1" /><path clip-path="url(#clip630)" d="M426.102 927.196 L426.102 924.207 L439.565 924.207 L439.565 927.196 L426.102 927.196 Z" fill="#000000" fill-rule="nonzero" fill-opacity="1" /><path clip-path="url(#clip630)" d="M447.174 933.891 Q443.839 930.58 443.839 925.788 Q443.839 920.971 447.099 917.463 Q450.385 913.93 455.079 913.93 Q459.673 913.93 462.959 917.438 Q466.269 920.921 466.269 925.788 Q466.269 930.556 462.934 933.866 Q459.624 937.176 455.029 937.176 Q450.533 937.176 447.174 933.891 M448.038 925.368 Q448.038 930.284 449.323 932.507 Q451.299 935.891 455.079 935.891 Q456.956 935.891 458.512 934.879 Q460.093 933.866 460.958 932.161 Q462.07 929.938 462.07 925.368 Q462.07 920.501 460.736 918.352 Q458.759 915.067 455.029 915.067 Q453.399 915.067 451.793 915.931 Q450.212 916.771 449.249 918.451 Q448.038 920.674 448.038 925.368 Z" fill="#000000" fill-rule="nonzero" fill-opacity="1" /><path clip-path="url(#clip630)" d="M469.135 936.608 L469.135 935.052 Q471.828 935.052 472.445 934.73 Q473.087 934.385 473.087 932.754 L473.087 919.192 Q473.087 917.315 472.42 916.845 Q471.778 916.376 469.135 916.376 L469.135 914.795 L476.175 914.251 L476.175 919.81 Q476.892 917.636 478.399 915.956 Q479.93 914.251 482.401 914.251 Q484.031 914.251 485.069 915.165 Q486.131 916.079 486.131 917.339 Q486.131 918.451 485.439 919.019 Q484.772 919.563 483.957 919.563 Q483.043 919.563 482.401 918.994 Q481.783 918.401 481.783 917.389 Q481.783 916.771 482.055 916.302 Q482.351 915.808 482.573 915.635 Q482.796 915.462 482.944 915.412 Q482.845 915.363 482.401 915.363 Q479.609 915.363 478.003 918.154 Q476.422 920.921 476.422 924.874 L476.422 932.655 Q476.422 934.113 477.015 934.582 Q477.633 935.052 480.276 935.052 L481.338 935.052 L481.338 936.608 Q479.313 936.46 474.915 936.46 Q474.298 936.46 473.334 936.484 Q472.371 936.509 471.111 936.558 Q469.851 936.608 469.135 936.608 Z" fill="#000000" fill-rule="nonzero" fill-opacity="1" /><path clip-path="url(#clip630)" d="M489.219 925.738 Q489.219 920.921 492.578 917.586 Q495.938 914.251 500.483 914.251 Q504.337 914.251 506.857 917.389 L506.857 906.445 Q506.857 904.568 506.19 904.098 Q505.548 903.629 502.929 903.629 L502.929 902.048 L510.217 901.504 L510.217 932.211 Q510.217 934.088 510.859 934.582 Q511.526 935.052 514.144 935.052 L514.144 936.608 L506.709 937.176 L506.709 933.816 Q504.09 937.151 499.94 937.176 Q495.592 937.176 492.405 933.841 Q489.219 930.506 489.219 925.738 M493.418 925.788 Q493.418 930.481 494.876 932.804 Q496.901 936.04 500.187 936.04 Q503.942 936.04 506.165 932.507 Q506.733 931.642 506.709 930.63 L506.709 920.254 Q506.709 919.241 506.165 918.401 Q504.09 915.363 500.706 915.363 Q497.173 915.363 494.975 918.599 Q493.418 921.02 493.418 925.788 Z" fill="#000000" fill-rule="nonzero" fill-opacity="1" /><path clip-path="url(#clip630)" d="M520.617 935.793 Q519.851 934.977 519.851 933.915 Q519.851 932.853 520.617 932.087 Q521.382 931.297 522.544 931.297 Q523.655 931.297 524.396 932.038 Q525.162 932.754 525.162 933.94 Q525.162 935.101 524.347 935.867 Q523.556 936.608 522.544 936.608 Q521.382 936.608 520.617 935.793 Z" fill="#000000" fill-rule="nonzero" fill-opacity="1" /><path clip-path="url(#clip630)" d="M648.323 936.608 L648.323 935.052 L649.534 935.052 Q652.276 935.052 652.893 934.607 Q653.535 934.138 653.535 932.655 L653.535 906 Q653.535 904.543 652.893 904.098 Q652.251 903.629 649.534 903.629 L648.323 903.629 L648.323 902.048 L666.826 902.048 Q673.298 902.048 677.794 907.211 Q682.315 912.374 682.315 919.612 Q682.315 926.702 677.769 931.667 Q673.249 936.608 666.826 936.608 L648.323 936.608 M657.883 933.026 Q657.883 934.335 658.254 934.706 Q658.624 935.052 660.354 935.052 L665.467 935.052 Q668.802 935.052 671.05 933.693 Q673.298 932.309 674.459 930.728 Q677.251 926.924 677.251 919.612 Q677.251 911.929 674.632 908.323 Q671.248 903.629 665.418 903.629 L660.354 903.629 Q658.624 903.629 658.254 903.975 Q657.883 904.321 657.883 905.655 L657.883 933.026 Z" fill="#000000" fill-rule="nonzero" fill-opacity="1" /><path clip-path="url(#clip630)" d="M686.539 925.467 Q686.539 920.699 689.602 917.315 Q692.666 913.93 697.063 913.93 Q701.509 913.93 703.807 916.82 Q706.129 919.711 706.129 923.861 Q706.129 924.627 705.931 924.775 Q705.734 924.923 704.869 924.923 L690.739 924.923 Q690.739 930.086 692.27 932.507 Q694.395 935.891 697.977 935.891 Q698.471 935.891 699.064 935.793 Q699.657 935.694 700.867 935.274 Q702.078 934.829 703.14 933.668 Q704.202 932.507 704.82 930.679 Q704.968 929.963 705.462 929.987 Q706.129 929.987 706.129 930.58 Q706.129 931.025 705.635 932.038 Q705.165 933.026 704.251 934.212 Q703.337 935.397 701.559 936.287 Q699.805 937.176 697.68 937.176 Q693.234 937.176 689.874 933.816 Q686.539 930.432 686.539 925.467 M690.788 923.861 L702.794 923.861 Q702.794 922.799 702.596 921.613 Q702.423 920.427 701.88 918.797 Q701.361 917.142 700.126 916.104 Q698.891 915.067 697.063 915.067 Q696.248 915.067 695.358 915.412 Q694.494 915.758 693.431 916.598 Q692.369 917.438 691.628 919.34 Q690.887 921.242 690.788 923.861 Z" fill="#000000" fill-rule="nonzero" fill-opacity="1" /><path clip-path="url(#clip630)" d="M712.527 933.841 Q709.316 930.481 709.316 925.689 Q709.316 920.872 712.478 917.413 Q715.64 913.93 720.284 913.93 Q723.372 913.93 725.694 915.412 Q728.016 916.87 728.016 919.365 Q728.016 920.477 727.349 921.119 Q726.707 921.736 725.694 921.736 Q724.632 921.736 723.989 921.094 Q723.372 920.427 723.372 919.414 Q723.372 918.97 723.52 918.525 Q723.668 918.08 724.212 917.611 Q724.78 917.142 725.743 917.068 Q723.94 915.215 720.432 915.215 Q720.383 915.215 720.333 915.215 Q717.764 915.215 715.64 917.636 Q713.515 920.057 713.515 925.59 Q713.515 928.48 714.207 930.605 Q714.923 932.705 716.084 933.792 Q717.245 934.879 718.382 935.397 Q719.518 935.891 720.63 935.891 Q725.595 935.891 727.275 930.58 Q727.423 930.086 727.917 930.086 Q728.584 930.086 728.584 930.58 Q728.584 930.827 728.387 931.47 Q728.189 932.112 727.571 933.125 Q726.954 934.138 726.065 935.027 Q725.2 935.891 723.644 936.534 Q722.112 937.176 720.185 937.176 Q715.739 937.176 712.527 933.841 Z" fill="#000000" fill-rule="nonzero" fill-opacity="1" /><path clip-path="url(#clip630)" d="M735.106 935.793 Q734.34 934.977 734.34 933.915 Q734.34 932.853 735.106 932.087 Q735.872 931.297 737.033 931.297 Q738.144 931.297 738.886 932.038 Q739.651 932.754 739.651 933.94 Q739.651 935.101 738.836 935.867 Q738.046 936.608 737.033 936.608 Q735.872 936.608 735.106 935.793 Z" fill="#000000" fill-rule="nonzero" fill-opacity="1" /><path clip-path="url(#clip630)" d="M873.151 936.608 L873.151 935.052 L874.361 935.052 Q877.103 935.052 877.721 934.607 Q878.363 934.138 878.363 932.655 L878.363 906 Q878.363 904.543 877.721 904.098 Q877.079 903.629 874.361 903.629 L873.151 903.629 L873.151 902.048 L891.654 902.048 Q898.126 902.048 902.622 907.211 Q907.143 912.374 907.143 919.612 Q907.143 926.702 902.597 931.667 Q898.076 936.608 891.654 936.608 L873.151 936.608 M882.711 933.026 Q882.711 934.335 883.081 934.706 Q883.452 935.052 885.181 935.052 L890.295 935.052 Q893.63 935.052 895.878 933.693 Q898.126 932.309 899.287 930.728 Q902.078 926.924 902.078 919.612 Q902.078 911.929 899.46 908.323 Q896.075 903.629 890.245 903.629 L885.181 903.629 Q883.452 903.629 883.081 903.975 Q882.711 904.321 882.711 905.655 L882.711 933.026 Z" fill="#000000" fill-rule="nonzero" fill-opacity="1" /><path clip-path="url(#clip630)" d="M911.367 925.467 Q911.367 920.699 914.43 917.315 Q917.493 913.93 921.89 913.93 Q926.337 913.93 928.634 916.82 Q930.957 919.711 930.957 923.861 Q930.957 924.627 930.759 924.775 Q930.561 924.923 929.697 924.923 L915.566 924.923 Q915.566 930.086 917.098 932.507 Q919.222 935.891 922.804 935.891 Q923.299 935.891 923.891 935.793 Q924.484 935.694 925.695 935.274 Q926.905 934.829 927.967 933.668 Q929.03 932.507 929.647 930.679 Q929.796 929.963 930.29 929.987 Q930.957 929.987 930.957 930.58 Q930.957 931.025 930.463 932.038 Q929.993 933.026 929.079 934.212 Q928.165 935.397 926.386 936.287 Q924.633 937.176 922.508 937.176 Q918.061 937.176 914.702 933.816 Q911.367 930.432 911.367 925.467 M915.616 923.861 L927.622 923.861 Q927.622 922.799 927.424 921.613 Q927.251 920.427 926.708 918.797 Q926.189 917.142 924.954 916.104 Q923.719 915.067 921.89 915.067 Q921.075 915.067 920.186 915.412 Q919.321 915.758 918.259 916.598 Q917.197 917.438 916.456 919.34 Q915.715 921.242 915.616 923.861 Z" fill="#000000" fill-rule="nonzero" fill-opacity="1" /><path clip-path="url(#clip630)" d="M937.355 933.841 Q934.143 930.481 934.143 925.689 Q934.143 920.872 937.305 917.413 Q940.467 913.93 945.112 913.93 Q948.2 913.93 950.522 915.412 Q952.844 916.87 952.844 919.365 Q952.844 920.477 952.177 921.119 Q951.534 921.736 950.522 921.736 Q949.459 921.736 948.817 921.094 Q948.2 920.427 948.2 919.414 Q948.2 918.97 948.348 918.525 Q948.496 918.08 949.039 917.611 Q949.608 917.142 950.571 917.068 Q948.768 915.215 945.26 915.215 Q945.21 915.215 945.161 915.215 Q942.592 915.215 940.467 917.636 Q938.343 920.057 938.343 925.59 Q938.343 928.48 939.035 930.605 Q939.751 932.705 940.912 933.792 Q942.073 934.879 943.209 935.397 Q944.346 935.891 945.457 935.891 Q950.423 935.891 952.103 930.58 Q952.251 930.086 952.745 930.086 Q953.412 930.086 953.412 930.58 Q953.412 930.827 953.214 931.47 Q953.017 932.112 952.399 933.125 Q951.782 934.138 950.892 935.027 Q950.028 935.891 948.471 936.534 Q946.94 937.176 945.013 937.176 Q940.566 937.176 937.355 933.841 Z" fill="#000000" fill-rule="nonzero" fill-opacity="1" /><path clip-path="url(#clip630)" d="M959.934 935.793 Q959.168 934.977 959.168 933.915 Q959.168 932.853 959.934 932.087 Q960.699 931.297 961.86 931.297 Q962.972 931.297 963.713 932.038 Q964.479 932.754 964.479 933.94 Q964.479 935.101 963.664 935.867 Q962.873 936.608 961.86 936.608 Q960.699 936.608 959.934 935.793 Z" fill="#000000" fill-rule="nonzero" fill-opacity="1" /><path clip-path="url(#clip630)" d="M988.59 919.316 Q988.59 911.682 993.802 906.322 Q999.014 900.936 1006.18 900.936 Q1008.4 900.936 1010.38 901.751 Q1012.35 902.567 1013.27 903.283 Q1014.18 903.975 1015.49 905.284 L1018.04 901.554 Q1018.43 900.936 1018.83 900.936 Q1019.25 900.936 1019.32 901.183 Q1019.39 901.406 1019.39 902.147 L1019.39 914.153 Q1019.39 914.968 1019.3 915.165 Q1019.2 915.363 1018.58 915.363 Q1018.09 915.363 1017.96 915.215 Q1017.86 915.067 1017.76 914.498 Q1017 909.039 1013.96 905.778 Q1010.95 902.517 1006.75 902.517 Q1005.54 902.517 1004.18 902.789 Q1002.84 903.061 1000.89 904.098 Q998.965 905.136 997.458 906.865 Q995.976 908.57 994.889 911.83 Q993.802 915.067 993.802 919.365 Q993.802 923.614 994.889 926.875 Q995.976 930.136 997.458 931.84 Q998.965 933.52 1000.89 934.557 Q1002.84 935.595 1004.2 935.891 Q1005.59 936.163 1006.8 936.163 Q1011.14 936.163 1014.48 933.075 Q1017.81 929.987 1018.13 924.775 Q1018.18 924.528 1018.18 924.429 Q1018.18 924.306 1018.23 924.182 Q1018.28 924.059 1018.41 924.009 Q1018.53 923.96 1018.73 923.96 Q1019.39 923.96 1019.39 924.824 Q1019.39 929.642 1015.69 933.693 Q1012.01 937.72 1006.18 937.72 Q998.99 937.72 993.777 932.384 Q988.59 927.048 988.59 919.316 Z" fill="#000000" fill-rule="nonzero" fill-opacity="1" /><path clip-path="url(#clip630)" d="M1027 933.891 Q1023.67 930.58 1023.67 925.788 Q1023.67 920.971 1026.93 917.463 Q1030.21 913.93 1034.91 913.93 Q1039.5 913.93 1042.79 917.438 Q1046.1 920.921 1046.1 925.788 Q1046.1 930.556 1042.76 933.866 Q1039.45 937.176 1034.86 937.176 Q1030.36 937.176 1027 933.891 M1027.87 925.368 Q1027.87 930.284 1029.15 932.507 Q1031.13 935.891 1034.91 935.891 Q1036.79 935.891 1038.34 934.879 Q1039.92 933.866 1040.79 932.161 Q1041.9 929.938 1041.9 925.368 Q1041.9 920.501 1040.57 918.352 Q1038.59 915.067 1034.86 915.067 Q1033.23 915.067 1031.62 915.931 Q1030.04 916.771 1029.08 918.451 Q1027.87 920.674 1027.87 925.368 Z" fill="#000000" fill-rule="nonzero" fill-opacity="1" /><path clip-path="url(#clip630)" d="M1048.05 927.196 L1048.05 924.207 L1061.51 924.207 L1061.51 927.196 L1048.05 927.196 Z" fill="#000000" fill-rule="nonzero" fill-opacity="1" /><path clip-path="url(#clip630)" d="M1069.12 933.891 Q1065.79 930.58 1065.79 925.788 Q1065.79 920.971 1069.05 917.463 Q1072.33 913.93 1077.03 913.93 Q1081.62 913.93 1084.91 917.438 Q1088.22 920.921 1088.22 925.788 Q1088.22 930.556 1084.88 933.866 Q1081.57 937.176 1076.98 937.176 Q1072.48 937.176 1069.12 933.891 M1069.99 925.368 Q1069.99 930.284 1071.27 932.507 Q1073.25 935.891 1077.03 935.891 Q1078.91 935.891 1080.46 934.879 Q1082.04 933.866 1082.91 932.161 Q1084.02 929.938 1084.02 925.368 Q1084.02 920.501 1082.68 918.352 Q1080.71 915.067 1076.98 915.067 Q1075.35 915.067 1073.74 915.931 Q1072.16 916.771 1071.2 918.451 Q1069.99 920.674 1069.99 925.368 Z" fill="#000000" fill-rule="nonzero" fill-opacity="1" /><path clip-path="url(#clip630)" d="M1091.08 936.608 L1091.08 935.052 Q1093.78 935.052 1094.39 934.73 Q1095.04 934.385 1095.04 932.754 L1095.04 919.192 Q1095.04 917.315 1094.37 916.845 Q1093.73 916.376 1091.08 916.376 L1091.08 914.795 L1098.12 914.251 L1098.12 919.81 Q1098.84 917.636 1100.35 915.956 Q1101.88 914.251 1104.35 914.251 Q1105.98 914.251 1107.02 915.165 Q1108.08 916.079 1108.08 917.339 Q1108.08 918.451 1107.39 919.019 Q1106.72 919.563 1105.91 919.563 Q1104.99 919.563 1104.35 918.994 Q1103.73 918.401 1103.73 917.389 Q1103.73 916.771 1104 916.302 Q1104.3 915.808 1104.52 915.635 Q1104.74 915.462 1104.89 915.412 Q1104.79 915.363 1104.35 915.363 Q1101.56 915.363 1099.95 918.154 Q1098.37 920.921 1098.37 924.874 L1098.37 932.655 Q1098.37 934.113 1098.96 934.582 Q1099.58 935.052 1102.22 935.052 L1103.29 935.052 L1103.29 936.608 Q1101.26 936.46 1096.86 936.46 Q1096.25 936.46 1095.28 936.484 Q1094.32 936.509 1093.06 936.558 Q1091.8 936.608 1091.08 936.608 Z" fill="#000000" fill-rule="nonzero" fill-opacity="1" /><path clip-path="url(#clip630)" d="M1111.17 925.738 Q1111.17 920.921 1114.53 917.586 Q1117.89 914.251 1122.43 914.251 Q1126.29 914.251 1128.81 917.389 L1128.81 906.445 Q1128.81 904.568 1128.14 904.098 Q1127.5 903.629 1124.88 903.629 L1124.88 902.048 L1132.17 901.504 L1132.17 932.211 Q1132.17 934.088 1132.81 934.582 Q1133.47 935.052 1136.09 935.052 L1136.09 936.608 L1128.66 937.176 L1128.66 933.816 Q1126.04 937.151 1121.89 937.176 Q1117.54 937.176 1114.35 933.841 Q1111.17 930.506 1111.17 925.738 M1115.37 925.788 Q1115.37 930.481 1116.82 932.804 Q1118.85 936.04 1122.14 936.04 Q1125.89 936.04 1128.11 932.507 Q1128.68 931.642 1128.66 930.63 L1128.66 920.254 Q1128.66 919.241 1128.11 918.401 Q1126.04 915.363 1122.65 915.363 Q1119.12 915.363 1116.92 918.599 Q1115.37 921.02 1115.37 925.788 Z" fill="#000000" fill-rule="nonzero" fill-opacity="1" /><path clip-path="url(#clip630)" d="M1142.57 935.793 Q1141.8 934.977 1141.8 933.915 Q1141.8 932.853 1142.57 932.087 Q1143.33 931.297 1144.49 931.297 Q1145.6 931.297 1146.35 932.038 Q1147.11 932.754 1147.11 933.94 Q1147.11 935.101 1146.3 935.867 Q1145.51 936.608 1144.49 936.608 Q1143.33 936.608 1142.57 935.793 Z" fill="#000000" fill-rule="nonzero" fill-opacity="1" /><polyline clip-path="url(#clip632)" style="stroke:#000000; stroke-linecap:round; stroke-linejoin:round; stroke-width:2; stroke-opacity:0.1; fill:none" points="235.219,823.258 1152.76,823.258 "/>
<polyline clip-path="url(#clip632)" style="stroke:#000000; stroke-linecap:round; stroke-linejoin:round; stroke-width:2; stroke-opacity:0.1; fill:none" points="235.219,704.736 1152.76,704.736 "/>
<polyline clip-path="url(#clip632)" style="stroke:#000000; stroke-linecap:round; stroke-linejoin:round; stroke-width:2; stroke-opacity:0.1; fill:none" points="235.219,586.214 1152.76,586.214 "/>
<polyline clip-path="url(#clip632)" style="stroke:#000000; stroke-linecap:round; stroke-linejoin:round; stroke-width:2; stroke-opacity:0.1; fill:none" points="235.219,467.693 1152.76,467.693 "/>
<polyline clip-path="url(#clip632)" style="stroke:#000000; stroke-linecap:round; stroke-linejoin:round; stroke-width:2; stroke-opacity:0.1; fill:none" points="235.219,349.171 1152.76,349.171 "/>
<polyline clip-path="url(#clip632)" style="stroke:#000000; stroke-linecap:round; stroke-linejoin:round; stroke-width:2; stroke-opacity:0.1; fill:none" points="235.219,230.65 1152.76,230.65 "/>
<polyline clip-path="url(#clip630)" style="stroke:#000000; stroke-linecap:round; stroke-linejoin:round; stroke-width:4; stroke-opacity:1; fill:none" points="235.219,883.808 235.219,230.65 "/>
<polyline clip-path="url(#clip630)" style="stroke:#000000; stroke-linecap:round; stroke-linejoin:round; stroke-width:4; stroke-opacity:1; fill:none" points="235.219,823.258 254.116,823.258 "/>
<polyline clip-path="url(#clip630)" style="stroke:#000000; stroke-linecap:round; stroke-linejoin:round; stroke-width:4; stroke-opacity:1; fill:none" points="235.219,704.736 254.116,704.736 "/>
<polyline clip-path="url(#clip630)" style="stroke:#000000; stroke-linecap:round; stroke-linejoin:round; stroke-width:4; stroke-opacity:1; fill:none" points="235.219,586.214 254.116,586.214 "/>
<polyline clip-path="url(#clip630)" style="stroke:#000000; stroke-linecap:round; stroke-linejoin:round; stroke-width:4; stroke-opacity:1; fill:none" points="235.219,467.693 254.116,467.693 "/>
<polyline clip-path="url(#clip630)" style="stroke:#000000; stroke-linecap:round; stroke-linejoin:round; stroke-width:4; stroke-opacity:1; fill:none" points="235.219,349.171 254.116,349.171 "/>
<polyline clip-path="url(#clip630)" style="stroke:#000000; stroke-linecap:round; stroke-linejoin:round; stroke-width:4; stroke-opacity:1; fill:none" points="235.219,230.65 254.116,230.65 "/>
<path clip-path="url(#clip630)" d="M166.083 827.173 Q166.379 827.47 166.379 827.89 Q166.379 828.31 166.083 828.606 Q165.786 828.902 165.366 828.902 L133.696 828.902 Q133.277 828.902 132.98 828.606 Q132.684 828.31 132.684 827.89 Q132.684 827.47 132.98 827.173 Q133.277 826.877 133.696 826.877 L165.366 826.877 Q165.786 826.877 166.083 827.173 Z" fill="#000000" fill-rule="nonzero" fill-opacity="1" /><path clip-path="url(#clip630)" d="M171.715 840.538 Q171.715 839.624 171.789 839.352 Q171.888 839.08 172.283 838.66 L181.992 827.84 Q187.303 821.862 187.303 816.65 Q187.303 813.265 185.524 810.844 Q183.77 808.423 180.534 808.423 Q178.311 808.423 176.433 809.782 Q174.556 811.141 173.691 813.562 Q173.839 813.512 174.358 813.512 Q175.618 813.512 176.31 814.303 Q177.026 815.093 177.026 816.156 Q177.026 817.514 176.137 818.181 Q175.272 818.824 174.408 818.824 Q174.062 818.824 173.592 818.749 Q173.148 818.675 172.431 817.984 Q171.715 817.267 171.715 816.007 Q171.715 812.475 174.383 809.659 Q177.076 806.842 181.176 806.842 Q185.821 806.842 188.859 809.609 Q191.922 812.351 191.922 816.65 Q191.922 818.157 191.453 819.54 Q191.008 820.899 190.391 821.961 Q189.798 823.023 188.167 824.728 Q186.537 826.432 185.228 827.643 Q183.918 828.853 180.979 831.422 L175.618 836.635 L184.734 836.635 Q189.18 836.635 189.526 836.239 Q190.02 835.523 190.638 831.743 L191.922 831.743 L190.489 840.538 L171.715 840.538 Z" fill="#000000" fill-rule="nonzero" fill-opacity="1" /><path clip-path="url(#clip630)" d="M197.011 832.386 Q197.011 830.879 197.826 830.311 Q198.642 829.718 199.506 829.718 Q200.667 829.718 201.334 830.459 Q202.026 831.175 202.026 832.188 Q202.026 833.201 201.334 833.942 Q200.667 834.658 199.506 834.658 Q198.938 834.658 198.642 834.56 Q199.309 836.882 201.334 838.562 Q203.385 840.241 206.077 840.241 Q209.462 840.241 211.487 836.956 Q212.698 834.831 212.698 830.014 Q212.698 825.765 211.784 823.641 Q210.376 820.405 207.485 820.405 Q203.385 820.405 200.964 823.937 Q200.667 824.382 200.321 824.406 Q199.827 824.406 199.704 824.135 Q199.605 823.838 199.605 823.072 L199.605 808.102 Q199.605 806.892 200.099 806.892 Q200.297 806.892 200.717 807.04 Q203.903 808.448 207.436 808.473 Q211.067 808.473 214.328 806.991 Q214.575 806.842 214.723 806.842 Q215.218 806.842 215.242 807.411 Q215.242 807.608 214.822 808.201 Q214.427 808.769 213.562 809.535 Q212.698 810.276 211.586 810.993 Q210.475 811.709 208.844 812.203 Q207.238 812.672 205.46 812.672 Q203.335 812.672 201.161 812.005 L201.161 821.862 Q203.78 819.293 207.584 819.293 Q211.636 819.293 214.427 822.554 Q217.219 825.815 217.219 830.36 Q217.219 835.128 213.908 838.389 Q210.623 841.649 206.176 841.649 Q202.125 841.649 199.556 838.759 Q197.011 835.869 197.011 832.386 Z" fill="#000000" fill-rule="nonzero" fill-opacity="1" /><path clip-path="url(#clip630)" d="M165.539 708.652 Q165.836 708.948 165.836 709.368 Q165.836 709.788 165.539 710.084 Q165.243 710.381 164.823 710.381 L133.153 710.381 Q132.733 710.381 132.437 710.084 Q132.14 709.788 132.14 709.368 Q132.14 708.948 132.437 708.652 Q132.733 708.355 133.153 708.355 L164.823 708.355 Q165.243 708.355 165.539 708.652 Z" fill="#000000" fill-rule="nonzero" fill-opacity="1" /><path clip-path="url(#clip630)" d="M171.171 722.016 Q171.171 721.102 171.246 720.83 Q171.344 720.559 171.74 720.139 L181.448 709.319 Q186.759 703.34 186.759 698.128 Q186.759 694.744 184.981 692.323 Q183.227 689.902 179.991 689.902 Q177.767 689.902 175.89 691.26 Q174.012 692.619 173.148 695.04 Q173.296 694.991 173.815 694.991 Q175.075 694.991 175.766 695.781 Q176.483 696.572 176.483 697.634 Q176.483 698.993 175.593 699.66 Q174.729 700.302 173.864 700.302 Q173.518 700.302 173.049 700.228 Q172.604 700.154 171.888 699.462 Q171.171 698.746 171.171 697.486 Q171.171 693.953 173.839 691.137 Q176.532 688.321 180.633 688.321 Q185.277 688.321 188.316 691.088 Q191.379 693.83 191.379 698.128 Q191.379 699.635 190.909 701.018 Q190.465 702.377 189.847 703.439 Q189.254 704.501 187.624 706.206 Q185.993 707.911 184.684 709.121 Q183.375 710.331 180.435 712.901 L175.075 718.113 L184.19 718.113 Q188.637 718.113 188.983 717.718 Q189.477 717.001 190.094 713.222 L191.379 713.222 L189.946 722.016 L171.171 722.016 Z" fill="#000000" fill-rule="nonzero" fill-opacity="1" /><path clip-path="url(#clip630)" d="M195.924 705.835 Q195.924 698.4 197.802 694.348 Q200.42 688.321 206.596 688.321 Q207.905 688.321 209.264 688.691 Q210.647 689.037 212.377 690.396 Q214.131 691.755 215.193 693.978 Q217.219 698.276 217.219 705.835 Q217.219 713.222 215.341 717.248 Q212.599 723.128 206.547 723.128 Q204.274 723.128 201.952 721.967 Q199.654 720.806 198.197 718.014 Q195.924 713.839 195.924 705.835 M200.124 705.218 Q200.124 712.851 200.667 715.89 Q201.285 719.175 202.965 720.608 Q204.669 722.016 206.547 722.016 Q208.572 722.016 210.252 720.509 Q211.957 718.978 212.475 715.692 Q213.044 712.456 213.019 705.218 Q213.019 698.177 212.525 695.361 Q211.858 692.076 210.079 690.766 Q208.325 689.432 206.547 689.432 Q205.88 689.432 205.163 689.63 Q204.472 689.828 203.459 690.396 Q202.446 690.964 201.655 692.372 Q200.89 693.78 200.519 695.905 Q200.124 698.647 200.124 705.218 Z" fill="#000000" fill-rule="nonzero" fill-opacity="1" /><path clip-path="url(#clip630)" d="M166.083 590.13 Q166.379 590.426 166.379 590.846 Q166.379 591.266 166.083 591.563 Q165.786 591.859 165.366 591.859 L133.696 591.859 Q133.277 591.859 132.98 591.563 Q132.684 591.266 132.684 590.846 Q132.684 590.426 132.98 590.13 Q133.277 589.834 133.696 589.834 L165.366 589.834 Q165.786 589.834 166.083 590.13 Z" fill="#000000" fill-rule="nonzero" fill-opacity="1" /><path clip-path="url(#clip630)" d="M173.691 574.616 L173.691 573.035 Q179.768 573.035 182.906 569.799 Q183.77 569.799 183.918 569.997 Q184.067 570.194 184.067 571.108 L184.067 599.493 Q184.067 600.999 184.808 601.469 Q185.549 601.938 188.785 601.938 L190.391 601.938 L190.391 603.494 Q188.612 603.346 182.189 603.346 Q175.766 603.346 174.012 603.494 L174.012 601.938 L175.618 601.938 Q178.805 601.938 179.571 601.494 Q180.336 601.024 180.336 599.493 L180.336 573.282 Q177.693 574.616 173.691 574.616 Z" fill="#000000" fill-rule="nonzero" fill-opacity="1" /><path clip-path="url(#clip630)" d="M197.011 595.342 Q197.011 593.835 197.826 593.267 Q198.642 592.674 199.506 592.674 Q200.667 592.674 201.334 593.416 Q202.026 594.132 202.026 595.145 Q202.026 596.158 201.334 596.899 Q200.667 597.615 199.506 597.615 Q198.938 597.615 198.642 597.516 Q199.309 599.838 201.334 601.518 Q203.385 603.198 206.077 603.198 Q209.462 603.198 211.487 599.912 Q212.698 597.788 212.698 592.971 Q212.698 588.722 211.784 586.597 Q210.376 583.361 207.485 583.361 Q203.385 583.361 200.964 586.894 Q200.667 587.338 200.321 587.363 Q199.827 587.363 199.704 587.091 Q199.605 586.795 199.605 586.029 L199.605 571.059 Q199.605 569.849 200.099 569.849 Q200.297 569.849 200.717 569.997 Q203.903 571.405 207.436 571.43 Q211.067 571.43 214.328 569.947 Q214.575 569.799 214.723 569.799 Q215.218 569.799 215.242 570.367 Q215.242 570.565 214.822 571.158 Q214.427 571.726 213.562 572.492 Q212.698 573.233 211.586 573.949 Q210.475 574.666 208.844 575.16 Q207.238 575.629 205.46 575.629 Q203.335 575.629 201.161 574.962 L201.161 584.819 Q203.78 582.25 207.584 582.25 Q211.636 582.25 214.427 585.51 Q217.219 588.771 217.219 593.317 Q217.219 598.084 213.908 601.345 Q210.623 604.606 206.176 604.606 Q202.125 604.606 199.556 601.716 Q197.011 598.826 197.011 595.342 Z" fill="#000000" fill-rule="nonzero" fill-opacity="1" /><path clip-path="url(#clip630)" d="M165.539 471.608 Q165.836 471.905 165.836 472.325 Q165.836 472.745 165.539 473.041 Q165.243 473.338 164.823 473.338 L133.153 473.338 Q132.733 473.338 132.437 473.041 Q132.14 472.745 132.14 472.325 Q132.14 471.905 132.437 471.608 Q132.733 471.312 133.153 471.312 L164.823 471.312 Q165.243 471.312 165.539 471.608 Z" fill="#000000" fill-rule="nonzero" fill-opacity="1" /><path clip-path="url(#clip630)" d="M173.148 456.095 L173.148 454.514 Q179.225 454.514 182.362 451.277 Q183.227 451.277 183.375 451.475 Q183.523 451.673 183.523 452.587 L183.523 480.971 Q183.523 482.478 184.264 482.947 Q185.005 483.417 188.241 483.417 L189.847 483.417 L189.847 484.973 Q188.069 484.825 181.646 484.825 Q175.223 484.825 173.469 484.973 L173.469 483.417 L175.075 483.417 Q178.261 483.417 179.027 482.972 Q179.793 482.503 179.793 480.971 L179.793 454.761 Q177.15 456.095 173.148 456.095 Z" fill="#000000" fill-rule="nonzero" fill-opacity="1" /><path clip-path="url(#clip630)" d="M195.924 468.792 Q195.924 461.356 197.802 457.305 Q200.42 451.277 206.596 451.277 Q207.905 451.277 209.264 451.648 Q210.647 451.994 212.377 453.353 Q214.131 454.711 215.193 456.935 Q217.219 461.233 217.219 468.792 Q217.219 476.178 215.341 480.205 Q212.599 486.084 206.547 486.084 Q204.274 486.084 201.952 484.923 Q199.654 483.762 198.197 480.971 Q195.924 476.796 195.924 468.792 M200.124 468.175 Q200.124 475.808 200.667 478.846 Q201.285 482.132 202.965 483.565 Q204.669 484.973 206.547 484.973 Q208.572 484.973 210.252 483.466 Q211.957 481.934 212.475 478.649 Q213.044 475.413 213.019 468.175 Q213.019 461.134 212.525 458.318 Q211.858 455.032 210.079 453.723 Q208.325 452.389 206.547 452.389 Q205.88 452.389 205.163 452.587 Q204.472 452.784 203.459 453.353 Q202.446 453.921 201.655 455.329 Q200.89 456.737 200.519 458.861 Q200.124 461.603 200.124 468.175 Z" fill="#000000" fill-rule="nonzero" fill-opacity="1" /><path clip-path="url(#clip630)" d="M191.379 353.087 Q191.675 353.383 191.675 353.803 Q191.675 354.223 191.379 354.519 Q191.082 354.816 190.662 354.816 L158.993 354.816 Q158.573 354.816 158.276 354.519 Q157.98 354.223 157.98 353.803 Q157.98 353.383 158.276 353.087 Q158.573 352.79 158.993 352.79 L190.662 352.79 Q191.082 352.79 191.379 353.087 Z" fill="#000000" fill-rule="nonzero" fill-opacity="1" /><path clip-path="url(#clip630)" d="M197.011 358.299 Q197.011 356.792 197.826 356.224 Q198.642 355.631 199.506 355.631 Q200.667 355.631 201.334 356.372 Q202.026 357.089 202.026 358.101 Q202.026 359.114 201.334 359.855 Q200.667 360.572 199.506 360.572 Q198.938 360.572 198.642 360.473 Q199.309 362.795 201.334 364.475 Q203.385 366.155 206.077 366.155 Q209.462 366.155 211.487 362.869 Q212.698 360.745 212.698 355.928 Q212.698 351.679 211.784 349.554 Q210.376 346.318 207.485 346.318 Q203.385 346.318 200.964 349.851 Q200.667 350.295 200.321 350.32 Q199.827 350.32 199.704 350.048 Q199.605 349.752 199.605 348.986 L199.605 334.016 Q199.605 332.805 200.099 332.805 Q200.297 332.805 200.717 332.953 Q203.903 334.362 207.436 334.386 Q211.067 334.386 214.328 332.904 Q214.575 332.756 214.723 332.756 Q215.218 332.756 215.242 333.324 Q215.242 333.522 214.822 334.115 Q214.427 334.683 213.562 335.448 Q212.698 336.19 211.586 336.906 Q210.475 337.622 208.844 338.116 Q207.238 338.586 205.46 338.586 Q203.335 338.586 201.161 337.919 L201.161 347.775 Q203.78 345.206 207.584 345.206 Q211.636 345.206 214.427 348.467 Q217.219 351.728 217.219 356.273 Q217.219 361.041 213.908 364.302 Q210.623 367.563 206.176 367.563 Q202.125 367.563 199.556 364.673 Q197.011 361.782 197.011 358.299 Z" fill="#000000" fill-rule="nonzero" fill-opacity="1" /><path clip-path="url(#clip630)" d="M195.924 231.749 Q195.924 224.313 197.802 220.262 Q200.42 214.234 206.596 214.234 Q207.905 214.234 209.264 214.605 Q210.647 214.951 212.377 216.309 Q214.131 217.668 215.193 219.891 Q217.219 224.19 217.219 231.749 Q217.219 239.135 215.341 243.162 Q212.599 249.041 206.547 249.041 Q204.274 249.041 201.952 247.88 Q199.654 246.719 198.197 243.928 Q195.924 239.753 195.924 231.749 M200.124 231.131 Q200.124 238.765 200.667 241.803 Q201.285 245.089 202.965 246.521 Q204.669 247.93 206.547 247.93 Q208.572 247.93 210.252 246.423 Q211.957 244.891 212.475 241.605 Q213.044 238.369 213.019 231.131 Q213.019 224.091 212.525 221.275 Q211.858 217.989 210.079 216.68 Q208.325 215.346 206.547 215.346 Q205.88 215.346 205.163 215.543 Q204.472 215.741 203.459 216.309 Q202.446 216.877 201.655 218.286 Q200.89 219.694 200.519 221.818 Q200.124 224.56 200.124 231.131 Z" fill="#000000" fill-rule="nonzero" fill-opacity="1" /><path clip-path="url(#clip630)" d="M99.8842 658.722 L97.7442 658.722 Q97.7442 655.02 97.3027 654.171 Q96.8271 653.288 94.5853 653.288 L75.9373 653.288 Q73.3558 653.288 72.7105 654.205 Q72.0651 655.088 72.0651 658.722 L69.8912 658.722 L69.1439 649.042 L76.7865 649.042 Q73.7974 648.057 71.4876 645.985 Q69.1439 643.879 69.1439 640.482 Q69.1439 638.24 70.4007 636.814 Q71.6575 635.353 73.3898 635.353 Q74.9183 635.353 75.6996 636.304 Q76.4468 637.221 76.4468 638.342 Q76.4468 639.599 75.6656 640.482 Q74.8504 641.331 73.4577 641.331 Q72.6086 641.331 71.9632 640.958 Q71.2838 640.55 71.0461 640.244 Q70.8083 639.939 70.7404 639.735 Q70.6724 639.871 70.6724 640.482 Q70.6724 644.32 74.5107 646.528 Q78.315 648.702 83.7498 648.702 L94.4494 648.702 Q96.4535 648.702 97.0989 647.887 Q97.7442 647.038 97.7442 643.403 L97.7442 641.943 L99.8842 641.943 Q99.6804 644.728 99.6804 650.774 Q99.6804 651.623 99.7143 652.948 Q99.7483 654.273 99.8162 656.005 Q99.8842 657.737 99.8842 658.722 Z" fill="#000000" fill-rule="nonzero" fill-opacity="1" /><path clip-path="url(#clip630)" d="M84.565 631.549 Q78.0093 631.549 73.3558 627.337 Q68.7023 623.125 68.7023 617.079 Q68.7023 610.965 72.6765 607.806 Q76.6506 604.613 82.3571 604.613 Q83.4101 604.613 83.6139 604.885 Q83.8177 605.156 83.8177 606.345 L83.8177 625.774 Q90.9168 625.774 94.2456 623.668 Q98.8991 620.747 98.8991 615.822 Q98.8991 615.143 98.7632 614.327 Q98.6274 613.512 98.0499 611.848 Q97.4385 610.183 95.8421 608.723 Q94.2456 607.262 91.732 606.413 Q90.747 606.209 90.781 605.53 Q90.781 604.613 91.5962 604.613 Q92.2076 604.613 93.6002 605.292 Q94.9589 605.938 96.5893 607.194 Q98.2198 608.451 99.4426 610.897 Q100.665 613.308 100.665 616.23 Q100.665 622.344 96.0459 626.963 Q91.3924 631.549 84.565 631.549 M82.3571 625.706 L82.3571 609.198 Q80.8965 609.198 79.2661 609.47 Q77.6357 609.708 75.3939 610.455 Q73.1181 611.168 71.6914 612.867 Q70.2648 614.565 70.2648 617.079 Q70.2648 618.2 70.7404 619.423 Q71.2159 620.611 72.3708 622.072 Q73.5257 623.533 76.1411 624.552 Q78.7566 625.571 82.3571 625.706 Z" fill="#000000" fill-rule="nonzero" fill-opacity="1" /><path clip-path="url(#clip630)" d="M72.0651 601.352 L69.8912 601.352 Q70.095 597.582 70.095 594.898 Q70.095 593.574 69.8912 587.29 L72.0651 587.29 Q72.0651 591.4 73.9333 591.4 Q74.3409 591.4 75.1901 591.06 L93.7701 584.436 L76.9224 578.458 Q73.5257 579.715 73.1181 580.055 Q72.0651 580.904 72.0651 584.436 L69.8912 584.436 Q70.095 581.311 70.095 578.254 Q70.095 577.066 69.8912 571.019 L72.0651 571.019 Q72.0651 575.129 73.9333 575.129 Q74.205 575.129 75.258 574.79 L94.6532 567.894 L76.8545 561.577 Q75.9373 561.237 75.3939 561.203 Q73.8653 561.203 73.0162 562.29 Q72.133 563.377 72.0651 565.245 L69.8912 565.245 Q70.095 561.271 70.095 558.791 Q70.095 556.006 69.8912 553.696 L72.0651 553.696 Q72.201 558.01 76.5148 559.538 L99.3407 567.691 Q100.597 568.472 100.665 569.083 Q100.665 570 99.3407 570.476 L79.5718 577.575 L99.2727 584.606 Q100.122 584.878 100.394 585.116 Q100.665 585.353 100.665 585.999 Q100.665 586.61 100.292 586.882 Q99.9521 587.154 99.1029 587.459 L74.4768 596.223 Q72.8803 596.834 72.4727 597.751 Q72.0651 598.635 72.0651 601.352 Z" fill="#000000" fill-rule="nonzero" fill-opacity="1" /><path clip-path="url(#clip630)" d="M93.2606 551.42 Q87.3503 551.42 84.2253 544.457 Q82.2213 540.279 81.7117 531.651 L79.1642 531.651 Q74.8504 531.651 72.5746 533.927 Q70.2648 536.169 70.2648 539.022 Q70.2648 544.117 73.4577 546.563 Q73.5257 544.491 74.5787 543.744 Q75.5977 542.996 76.6506 542.996 Q78.0433 542.996 78.9604 543.88 Q79.8436 544.729 79.8436 546.189 Q79.8436 547.582 78.9944 548.499 Q78.1112 549.416 76.5827 549.416 Q73.186 549.416 70.9442 546.359 Q68.7023 543.268 68.7023 538.886 Q68.7023 533.18 72.5406 529.376 Q73.7295 528.187 75.258 527.609 Q76.7865 526.998 77.8055 526.93 Q78.7906 526.862 80.7607 526.862 L94.6532 526.862 Q95.0608 526.862 95.7402 526.726 Q96.4195 526.59 97.3027 525.979 Q98.1518 525.334 98.1518 524.281 Q98.1518 521.767 93.7021 521.801 L89.7959 521.801 L89.7959 520.035 L93.7021 520.035 Q97.4046 520.035 98.8651 522.005 Q100.292 523.941 100.292 525.741 Q100.292 528.051 98.5934 529.512 Q96.8951 530.972 94.5853 531.176 Q97.2347 532.229 98.967 534.641 Q100.665 537.018 100.665 540.279 Q100.665 542.793 100.02 545.17 Q99.4086 547.514 97.6763 549.484 Q95.91 551.42 93.2606 551.42 M93.1926 546.054 Q95.7741 546.054 97.4385 544.219 Q99.1029 542.385 99.1029 539.804 Q99.1029 536.882 96.8611 534.267 Q94.5853 531.651 90.1356 531.651 L83.1723 531.651 Q83.4441 539.362 86.5351 542.725 Q89.5921 546.054 93.1926 546.054 Z" fill="#000000" fill-rule="nonzero" fill-opacity="1" /><path clip-path="url(#clip630)" d="M99.8842 517.623 L97.7442 517.623 Q97.7442 513.921 97.3027 513.071 Q96.8271 512.188 94.5853 512.188 L75.9373 512.188 Q73.3558 512.188 72.7105 513.105 Q72.0651 513.989 72.0651 517.623 L69.8912 517.623 L69.1439 507.942 L76.7865 507.942 Q73.7974 506.957 71.4876 504.885 Q69.1439 502.779 69.1439 499.383 Q69.1439 497.141 70.4007 495.714 Q71.6575 494.254 73.3898 494.254 Q74.9183 494.254 75.6996 495.205 Q76.4468 496.122 76.4468 497.243 Q76.4468 498.5 75.6656 499.383 Q74.8504 500.232 73.4577 500.232 Q72.6086 500.232 71.9632 499.858 Q71.2838 499.451 71.0461 499.145 Q70.8083 498.839 70.7404 498.635 Q70.6724 498.771 70.6724 499.383 Q70.6724 503.221 74.5107 505.429 Q78.315 507.603 83.7498 507.603 L94.4494 507.603 Q96.4535 507.603 97.0989 506.788 Q97.7442 505.938 97.7442 502.304 L97.7442 500.843 L99.8842 500.843 Q99.6804 503.629 99.6804 509.675 Q99.6804 510.524 99.7143 511.849 Q99.7483 513.173 99.8162 514.906 Q99.8842 516.638 99.8842 517.623 Z" fill="#000000" fill-rule="nonzero" fill-opacity="1" /><path clip-path="url(#clip630)" d="M84.9386 490.008 Q78.315 490.008 73.7295 485.388 Q69.1439 480.769 69.1439 474.519 Q69.1439 469.22 73.4577 465.755 L58.4103 465.755 Q55.8288 465.755 55.1834 466.672 Q54.5381 467.556 54.5381 471.156 L52.3642 471.156 L51.6169 461.136 L93.838 461.136 Q96.4195 461.136 97.0989 460.253 Q97.7442 459.335 97.7442 455.735 L99.8842 455.735 L100.665 465.959 L96.0459 465.959 Q100.631 469.56 100.665 475.266 Q100.665 481.244 96.0798 485.626 Q91.4943 490.008 84.9386 490.008 M85.0066 484.233 Q91.4603 484.233 94.6532 482.229 Q99.1029 479.444 99.1029 474.926 Q99.1029 469.763 94.2456 466.706 Q93.0568 465.925 91.6641 465.959 L77.3979 465.959 Q76.0053 465.959 74.8504 466.706 Q70.6724 469.56 70.6724 474.213 Q70.6724 479.07 75.1221 482.093 Q78.4509 484.233 85.0066 484.233 Z" fill="#000000" fill-rule="nonzero" fill-opacity="1" /><path clip-path="url(#clip632)" d="M283 757.412 L283 230.65 L377.844 230.65 L377.844 757.412 L283 757.412 L283 757.412  Z" fill="#1abc9c" fill-rule="evenodd" fill-opacity="1"/>
<polyline clip-path="url(#clip632)" style="stroke:#ffffff; stroke-linecap:round; stroke-linejoin:round; stroke-width:16; stroke-opacity:1; fill:none" points="283,757.412 283,230.65 377.844,230.65 377.844,757.412 283,757.412 "/>
<path clip-path="url(#clip632)" d="M599.144 757.84 L599.144 230.65 L693.987 230.65 L693.987 757.84 L599.144 757.84 L599.144 757.84  Z" fill="#1abc9c" fill-rule="evenodd" fill-opacity="1"/>
<polyline clip-path="url(#clip632)" style="stroke:#ffffff; stroke-linecap:round; stroke-linejoin:round; stroke-width:16; stroke-opacity:1; fill:none" points="599.144,757.84 599.144,230.65 693.987,230.65 693.987,757.84 599.144,757.84 "/>
<path clip-path="url(#clip632)" d="M915.288 757.646 L915.288 230.65 L1010.13 230.65 L1010.13 757.646 L915.288 757.646 L915.288 757.646  Z" fill="#1abc9c" fill-rule="evenodd" fill-opacity="1"/>
<polyline clip-path="url(#clip632)" style="stroke:#ffffff; stroke-linecap:round; stroke-linejoin:round; stroke-width:16; stroke-opacity:1; fill:none" points="915.288,757.646 915.288,230.65 1010.13,230.65 1010.13,757.646 915.288,757.646 "/>
<circle clip-path="url(#clip632)" style="fill:#1abc9c; stroke:none; fill-opacity:0" cx="330.422" cy="757.412" r="2"/>
<circle clip-path="url(#clip632)" style="fill:#1abc9c; stroke:none; fill-opacity:0" cx="646.566" cy="757.84" r="2"/>
<circle clip-path="url(#clip632)" style="fill:#1abc9c; stroke:none; fill-opacity:0" cx="962.709" cy="757.646" r="2"/>
<path clip-path="url(#clip632)" d="M377.844 378.225 L377.844 230.65 L472.687 230.65 L472.687 378.225 L377.844 378.225 L377.844 378.225  Z" fill="#e67e22" fill-rule="evenodd" fill-opacity="1"/>
<polyline clip-path="url(#clip632)" style="stroke:#ffffff; stroke-linecap:round; stroke-linejoin:round; stroke-width:16; stroke-opacity:1; fill:none" points="377.844,378.225 377.844,230.65 472.687,230.65 472.687,378.225 377.844,378.225 "/>
<path clip-path="url(#clip632)" d="M693.987 765.286 L693.987 230.65 L788.83 230.65 L788.83 765.286 L693.987 765.286 L693.987 765.286  Z" fill="#e67e22" fill-rule="evenodd" fill-opacity="1"/>
<polyline clip-path="url(#clip632)" style="stroke:#ffffff; stroke-linecap:round; stroke-linejoin:round; stroke-width:16; stroke-opacity:1; fill:none" points="693.987,765.286 693.987,230.65 788.83,230.65 788.83,765.286 693.987,765.286 "/>
<path clip-path="url(#clip632)" d="M1010.13 615.81 L1010.13 230.65 L1104.97 230.65 L1104.97 615.81 L1010.13 615.81 L1010.13 615.81  Z" fill="#e67e22" fill-rule="evenodd" fill-opacity="1"/>
<polyline clip-path="url(#clip632)" style="stroke:#ffffff; stroke-linecap:round; stroke-linejoin:round; stroke-width:16; stroke-opacity:1; fill:none" points="1010.13,615.81 1010.13,230.65 1104.97,230.65 1104.97,615.81 1010.13,615.81 "/>
<circle clip-path="url(#clip632)" style="fill:#e67e22; stroke:none; fill-opacity:0" cx="425.265" cy="378.225" r="2"/>
<circle clip-path="url(#clip632)" style="fill:#e67e22; stroke:none; fill-opacity:0" cx="741.409" cy="765.286" r="2"/>
<circle clip-path="url(#clip632)" style="fill:#e67e22; stroke:none; fill-opacity:0" cx="1057.55" cy="615.81" r="2"/>
<path clip-path="url(#clip630)" d="M588.971 202.764 L799.004 202.764 L799.004 47.2441 L588.971 47.2441  Z" fill="#ffffff" fill-rule="evenodd" fill-opacity="1"/>
<polyline clip-path="url(#clip630)" style="stroke:#000000; stroke-linecap:round; stroke-linejoin:round; stroke-width:4; stroke-opacity:1; fill:none" points="588.971,202.764 799.004,202.764 799.004,47.2441 588.971,47.2441 588.971,202.764 "/>
<path clip-path="url(#clip630)" d="M599.165 119.82 L660.335 119.82 L660.335 78.3481 L599.165 78.3481 L599.165 119.82  Z" fill="#1abc9c" fill-rule="evenodd" fill-opacity="1"/>
<polyline clip-path="url(#clip630)" style="stroke:#ffffff; stroke-linecap:round; stroke-linejoin:round; stroke-width:16; stroke-opacity:1; fill:none" points="599.165,119.82 660.335,119.82 660.335,78.3481 599.165,78.3481 599.165,119.82 "/>
<path clip-path="url(#clip630)" d="M670.529 99.0717 Q670.529 91.4384 675.742 86.0778 Q680.954 80.6924 688.118 80.6924 Q690.341 80.6924 692.318 81.5077 Q694.294 82.3229 695.208 83.0393 Q696.122 83.731 697.431 85.0402 L699.976 81.31 Q700.371 80.6924 700.766 80.6924 Q701.186 80.6924 701.26 80.9395 Q701.334 81.1618 701.334 81.9029 L701.334 93.9087 Q701.334 94.724 701.236 94.9216 Q701.137 95.1192 700.519 95.1192 Q700.025 95.1192 699.902 94.971 Q699.803 94.8228 699.704 94.2546 Q698.938 88.7951 695.9 85.5343 Q692.886 82.2735 688.686 82.2735 Q687.476 82.2735 686.117 82.5452 Q684.783 82.8169 682.832 83.8545 Q680.905 84.892 679.398 86.6212 Q677.916 88.3258 676.829 91.5866 Q675.742 94.8228 675.742 99.1211 Q675.742 103.37 676.829 106.631 Q677.916 109.892 679.398 111.596 Q680.905 113.276 682.832 114.314 Q684.783 115.351 686.142 115.648 Q687.525 115.919 688.736 115.919 Q693.084 115.919 696.419 112.832 Q699.753 109.744 700.075 104.531 Q700.124 104.284 700.124 104.185 Q700.124 104.062 700.173 103.938 Q700.223 103.815 700.346 103.765 Q700.47 103.716 700.667 103.716 Q701.334 103.716 701.334 104.581 Q701.334 109.398 697.629 113.449 Q693.948 117.476 688.118 117.476 Q680.929 117.476 675.717 112.14 Q670.529 106.804 670.529 99.0717 Z" fill="#000000" fill-rule="nonzero" fill-opacity="1" /><path clip-path="url(#clip630)" d="M706.325 111.547 Q706.325 107.249 711.389 104.976 Q714.427 103.518 720.702 103.148 L720.702 101.295 Q720.702 98.1577 719.047 96.5026 Q717.416 94.8228 715.341 94.8228 Q711.636 94.8228 709.857 97.1449 Q711.364 97.1943 711.908 97.9601 Q712.451 98.7012 712.451 99.467 Q712.451 100.48 711.809 101.147 Q711.191 101.789 710.129 101.789 Q709.116 101.789 708.449 101.172 Q707.782 100.529 707.782 99.4176 Q707.782 96.9473 710.005 95.3168 Q712.253 93.6864 715.44 93.6864 Q719.59 93.6864 722.357 96.4779 Q723.222 97.3425 723.642 98.4542 Q724.086 99.5658 724.136 100.307 Q724.185 101.023 724.185 102.456 L724.185 112.56 Q724.185 112.856 724.284 113.35 Q724.383 113.844 724.827 114.487 Q725.297 115.104 726.063 115.104 Q727.891 115.104 727.866 111.868 L727.866 109.027 L729.15 109.027 L729.15 111.868 Q729.15 114.561 727.718 115.623 Q726.31 116.661 725 116.661 Q723.32 116.661 722.258 115.425 Q721.196 114.19 721.048 112.51 Q720.282 114.437 718.528 115.697 Q716.799 116.932 714.427 116.932 Q712.599 116.932 710.87 116.463 Q709.165 116.018 707.733 114.758 Q706.325 113.474 706.325 111.547 M710.228 111.498 Q710.228 113.375 711.562 114.585 Q712.896 115.796 714.773 115.796 Q716.898 115.796 718.8 114.165 Q720.702 112.51 720.702 109.274 L720.702 104.21 Q715.094 104.408 712.649 106.656 Q710.228 108.879 710.228 111.498 Z" fill="#000000" fill-rule="nonzero" fill-opacity="1" /><path clip-path="url(#clip630)" d="M730.904 116.364 L730.904 114.808 Q733.597 114.808 734.215 114.487 Q734.857 114.141 734.857 112.51 L734.857 98.9482 Q734.857 97.0708 734.19 96.6014 Q733.548 96.132 730.904 96.132 L730.904 94.551 L737.945 94.0076 L737.945 99.5658 Q738.661 97.3919 740.168 95.7121 Q741.7 94.0076 744.17 94.0076 Q745.801 94.0076 746.838 94.9216 Q747.9 95.8356 747.9 97.0955 Q747.9 98.2071 747.209 98.7753 Q746.542 99.3188 745.726 99.3188 Q744.812 99.3188 744.17 98.7506 Q743.553 98.1577 743.553 97.1449 Q743.553 96.5273 743.824 96.0579 Q744.121 95.5639 744.343 95.3909 Q744.565 95.218 744.714 95.1686 Q744.615 95.1192 744.17 95.1192 Q741.379 95.1192 739.773 97.9107 Q738.192 100.677 738.192 104.63 L738.192 112.412 Q738.192 113.869 738.785 114.338 Q739.402 114.808 742.046 114.808 L743.108 114.808 L743.108 116.364 Q741.082 116.216 736.685 116.216 Q736.067 116.216 735.104 116.241 Q734.141 116.265 732.881 116.315 Q731.621 116.364 730.904 116.364 Z" fill="#000000" fill-rule="nonzero" fill-opacity="1" /><path clip-path="url(#clip630)" d="M770.578 87.4859 L770.578 85.9049 Q776.655 85.9049 779.792 82.6687 Q780.657 82.6687 780.805 82.8663 Q780.953 83.064 780.953 83.978 L780.953 112.362 Q780.953 113.869 781.695 114.338 Q782.436 114.808 785.672 114.808 L787.277 114.808 L787.277 116.364 Q785.499 116.216 779.076 116.216 Q772.653 116.216 770.899 116.364 L770.899 114.808 L772.505 114.808 Q775.692 114.808 776.457 114.363 Q777.223 113.894 777.223 112.362 L777.223 86.1519 Q774.58 87.4859 770.578 87.4859 Z" fill="#000000" fill-rule="nonzero" fill-opacity="1" /><path clip-path="url(#clip630)" d="M599.165 171.66 L660.335 171.66 L660.335 130.188 L599.165 130.188 L599.165 171.66  Z" fill="#e67e22" fill-rule="evenodd" fill-opacity="1"/>
<polyline clip-path="url(#clip630)" style="stroke:#ffffff; stroke-linecap:round; stroke-linejoin:round; stroke-width:16; stroke-opacity:1; fill:none" points="599.165,171.66 660.335,171.66 660.335,130.188 599.165,130.188 599.165,171.66 "/>
<path clip-path="url(#clip630)" d="M670.529 150.912 Q670.529 143.278 675.742 137.918 Q680.954 132.532 688.118 132.532 Q690.341 132.532 692.318 133.348 Q694.294 134.163 695.208 134.879 Q696.122 135.571 697.431 136.88 L699.976 133.15 Q700.371 132.532 700.766 132.532 Q701.186 132.532 701.26 132.779 Q701.334 133.002 701.334 133.743 L701.334 145.749 Q701.334 146.564 701.236 146.762 Q701.137 146.959 700.519 146.959 Q700.025 146.959 699.902 146.811 Q699.803 146.663 699.704 146.095 Q698.938 140.635 695.9 137.374 Q692.886 134.113 688.686 134.113 Q687.476 134.113 686.117 134.385 Q684.783 134.657 682.832 135.694 Q680.905 136.732 679.398 138.461 Q677.916 140.166 676.829 143.427 Q675.742 146.663 675.742 150.961 Q675.742 155.21 676.829 158.471 Q677.916 161.732 679.398 163.436 Q680.905 165.116 682.832 166.154 Q684.783 167.191 686.142 167.488 Q687.525 167.759 688.736 167.759 Q693.084 167.759 696.419 164.672 Q699.753 161.584 700.075 156.371 Q700.124 156.124 700.124 156.025 Q700.124 155.902 700.173 155.778 Q700.223 155.655 700.346 155.605 Q700.47 155.556 700.667 155.556 Q701.334 155.556 701.334 156.421 Q701.334 161.238 697.629 165.289 Q693.948 169.316 688.118 169.316 Q680.929 169.316 675.717 163.98 Q670.529 158.644 670.529 150.912 Z" fill="#000000" fill-rule="nonzero" fill-opacity="1" /><path clip-path="url(#clip630)" d="M706.325 163.387 Q706.325 159.089 711.389 156.816 Q714.427 155.358 720.702 154.988 L720.702 153.135 Q720.702 149.998 719.047 148.343 Q717.416 146.663 715.341 146.663 Q711.636 146.663 709.857 148.985 Q711.364 149.034 711.908 149.8 Q712.451 150.541 712.451 151.307 Q712.451 152.32 711.809 152.987 Q711.191 153.629 710.129 153.629 Q709.116 153.629 708.449 153.012 Q707.782 152.369 707.782 151.258 Q707.782 148.787 710.005 147.157 Q712.253 145.526 715.44 145.526 Q719.59 145.526 722.357 148.318 Q723.222 149.183 723.642 150.294 Q724.086 151.406 724.136 152.147 Q724.185 152.863 724.185 154.296 L724.185 164.4 Q724.185 164.696 724.284 165.19 Q724.383 165.684 724.827 166.327 Q725.297 166.944 726.063 166.944 Q727.891 166.944 727.866 163.708 L727.866 160.867 L729.15 160.867 L729.15 163.708 Q729.15 166.401 727.718 167.463 Q726.31 168.501 725 168.501 Q723.32 168.501 722.258 167.265 Q721.196 166.03 721.048 164.35 Q720.282 166.277 718.528 167.537 Q716.799 168.772 714.427 168.772 Q712.599 168.772 710.87 168.303 Q709.165 167.858 707.733 166.598 Q706.325 165.314 706.325 163.387 M710.228 163.338 Q710.228 165.215 711.562 166.425 Q712.896 167.636 714.773 167.636 Q716.898 167.636 718.8 166.005 Q720.702 164.35 720.702 161.114 L720.702 156.05 Q715.094 156.248 712.649 158.496 Q710.228 160.719 710.228 163.338 Z" fill="#000000" fill-rule="nonzero" fill-opacity="1" /><path clip-path="url(#clip630)" d="M730.904 168.204 L730.904 166.648 Q733.597 166.648 734.215 166.327 Q734.857 165.981 734.857 164.35 L734.857 150.788 Q734.857 148.911 734.19 148.441 Q733.548 147.972 730.904 147.972 L730.904 146.391 L737.945 145.848 L737.945 151.406 Q738.661 149.232 740.168 147.552 Q741.7 145.848 744.17 145.848 Q745.801 145.848 746.838 146.762 Q747.9 147.676 747.9 148.935 Q747.9 150.047 747.209 150.615 Q746.542 151.159 745.726 151.159 Q744.812 151.159 744.17 150.591 Q743.553 149.998 743.553 148.985 Q743.553 148.367 743.824 147.898 Q744.121 147.404 744.343 147.231 Q744.565 147.058 744.714 147.009 Q744.615 146.959 744.17 146.959 Q741.379 146.959 739.773 149.751 Q738.192 152.517 738.192 156.47 L738.192 164.252 Q738.192 165.709 738.785 166.178 Q739.402 166.648 742.046 166.648 L743.108 166.648 L743.108 168.204 Q741.082 168.056 736.685 168.056 Q736.067 168.056 735.104 168.081 Q734.141 168.105 732.881 168.155 Q731.621 168.204 730.904 168.204 Z" fill="#000000" fill-rule="nonzero" fill-opacity="1" /><path clip-path="url(#clip630)" d="M768.602 168.204 Q768.602 167.29 768.676 167.018 Q768.775 166.747 769.17 166.327 L778.878 155.507 Q784.19 149.528 784.19 144.316 Q784.19 140.932 782.411 138.511 Q780.657 136.09 777.421 136.09 Q775.198 136.09 773.32 137.448 Q771.443 138.807 770.578 141.228 Q770.726 141.179 771.245 141.179 Q772.505 141.179 773.197 141.969 Q773.913 142.76 773.913 143.822 Q773.913 145.181 773.024 145.848 Q772.159 146.49 771.294 146.49 Q770.949 146.49 770.479 146.416 Q770.035 146.342 769.318 145.65 Q768.602 144.934 768.602 143.674 Q768.602 140.141 771.27 137.325 Q773.962 134.509 778.063 134.509 Q782.707 134.509 785.746 137.275 Q788.809 140.018 788.809 144.316 Q788.809 145.823 788.34 147.206 Q787.895 148.565 787.277 149.627 Q786.685 150.689 785.054 152.394 Q783.424 154.098 782.114 155.309 Q780.805 156.519 777.865 159.089 L772.505 164.301 L781.62 164.301 Q786.067 164.301 786.413 163.906 Q786.907 163.189 787.524 159.41 L788.809 159.41 L787.376 168.204 L768.602 168.204 Z" fill="#000000" fill-rule="nonzero" fill-opacity="1" /></svg>
