<?xml version="1.0" encoding="utf-8"?>
<svg xmlns="http://www.w3.org/2000/svg" xmlns:xlink="http://www.w3.org/1999/xlink" width="350" height="250" viewBox="0 0 1400 1000">
<defs>
  <clipPath id="clip500">
    <rect x="0" y="0" width="1400" height="1000"/>
  </clipPath>
</defs>
<path clip-path="url(#clip500)" d="M0 1000 L1400 1000 L1400 0 L0 0  Z" fill="#ffffff" fill-rule="evenodd" fill-opacity="1"/>
<defs>
  <clipPath id="clip501">
    <rect x="280" y="0" width="981" height="981"/>
  </clipPath>
</defs>
<path clip-path="url(#clip500)" d="M254.029 823.317 L1352.76 823.317 L1352.76 47.2441 L254.029 47.2441  Z" fill="#ffffff" fill-rule="evenodd" fill-opacity="1"/>
<defs>
  <clipPath id="clip502">
    <rect x="254" y="47" width="1100" height="777"/>
  </clipPath>
</defs>
<polyline clip-path="url(#clip502)" style="stroke:#000000; stroke-linecap:round; stroke-linejoin:round; stroke-width:2; stroke-opacity:0.1; fill:none" points="285.125,823.317 285.125,47.2441 "/>
<polyline clip-path="url(#clip502)" style="stroke:#000000; stroke-linecap:round; stroke-linejoin:round; stroke-width:2; stroke-opacity:0.1; fill:none" points="630.637,823.317 630.637,47.2441 "/>
<polyline clip-path="url(#clip502)" style="stroke:#000000; stroke-linecap:round; stroke-linejoin:round; stroke-width:2; stroke-opacity:0.1; fill:none" points="976.148,823.317 976.148,47.2441 "/>
<polyline clip-path="url(#clip502)" style="stroke:#000000; stroke-linecap:round; stroke-linejoin:round; stroke-width:2; stroke-opacity:0.1; fill:none" points="1321.66,823.317 1321.66,47.2441 "/>
<polyline clip-path="url(#clip500)" style="stroke:#000000; stroke-linecap:round; stroke-linejoin:round; stroke-width:4; stroke-opacity:1; fill:none" points="254.029,823.317 1352.76,823.317 "/>
<polyline clip-path="url(#clip500)" style="stroke:#000000; stroke-linecap:round; stroke-linejoin:round; stroke-width:4; stroke-opacity:1; fill:none" points="285.125,823.317 285.125,804.419 "/>
<polyline clip-path="url(#clip500)" style="stroke:#000000; stroke-linecap:round; stroke-linejoin:round; stroke-width:4; stroke-opacity:1; fill:none" points="630.637,823.317 630.637,804.419 "/>
<polyline clip-path="url(#clip500)" style="stroke:#000000; stroke-linecap:round; stroke-linejoin:round; stroke-width:4; stroke-opacity:1; fill:none" points="976.148,823.317 976.148,804.419 "/>
<polyline clip-path="url(#clip500)" style="stroke:#000000; stroke-linecap:round; stroke-linejoin:round; stroke-width:4; stroke-opacity:1; fill:none" points="1321.66,823.317 1321.66,804.419 "/>
<path clip-path="url(#clip500)" d="M236.805 877.717 Q236.805 876.803 236.879 876.531 Q236.978 876.259 237.374 875.84 L247.082 865.019 Q252.393 859.041 252.393 853.829 Q252.393 850.444 250.615 848.024 Q248.861 845.603 245.624 845.603 Q243.401 845.603 241.524 846.961 Q239.646 848.32 238.782 850.741 Q238.93 850.692 239.449 850.692 Q240.708 850.692 241.4 851.482 Q242.117 852.273 242.117 853.335 Q242.117 854.693 241.227 855.36 Q240.363 856.003 239.498 856.003 Q239.152 856.003 238.683 855.929 Q238.238 855.855 237.522 855.163 Q236.805 854.446 236.805 853.187 Q236.805 849.654 239.473 846.838 Q242.166 844.022 246.267 844.022 Q250.911 844.022 253.949 846.788 Q257.013 849.53 257.013 853.829 Q257.013 855.336 256.543 856.719 Q256.099 858.078 255.481 859.14 Q254.888 860.202 253.258 861.907 Q251.627 863.611 250.318 864.822 Q249.009 866.032 246.069 868.601 L240.708 873.814 L249.824 873.814 Q254.271 873.814 254.616 873.419 Q255.111 872.702 255.728 868.923 L257.013 868.923 L255.58 877.717 L236.805 877.717 Z" fill="#000000" fill-rule="nonzero" fill-opacity="1" /><path clip-path="url(#clip500)" d="M262.102 869.565 Q262.102 868.058 262.917 867.49 Q263.732 866.897 264.597 866.897 Q265.758 866.897 266.425 867.638 Q267.116 868.354 267.116 869.367 Q267.116 870.38 266.425 871.121 Q265.758 871.838 264.597 871.838 Q264.028 871.838 263.732 871.739 Q264.399 874.061 266.425 875.741 Q268.475 877.421 271.168 877.421 Q274.552 877.421 276.578 874.135 Q277.788 872.011 277.788 867.193 Q277.788 862.944 276.874 860.82 Q275.466 857.584 272.576 857.584 Q268.475 857.584 266.054 861.116 Q265.758 861.561 265.412 861.586 Q264.918 861.586 264.794 861.314 Q264.695 861.018 264.695 860.252 L264.695 845.281 Q264.695 844.071 265.189 844.071 Q265.387 844.071 265.807 844.219 Q268.994 845.627 272.526 845.652 Q276.158 845.652 279.419 844.17 Q279.666 844.022 279.814 844.022 Q280.308 844.022 280.333 844.59 Q280.333 844.787 279.913 845.38 Q279.517 845.948 278.653 846.714 Q277.788 847.455 276.677 848.172 Q275.565 848.888 273.934 849.382 Q272.329 849.852 270.55 849.852 Q268.426 849.852 266.252 849.185 L266.252 859.041 Q268.87 856.472 272.675 856.472 Q276.726 856.472 279.517 859.733 Q282.309 862.994 282.309 867.539 Q282.309 872.307 278.999 875.568 Q275.713 878.829 271.267 878.829 Q267.215 878.829 264.646 875.938 Q262.102 873.048 262.102 869.565 Z" fill="#000000" fill-rule="nonzero" fill-opacity="1" /><path clip-path="url(#clip500)" d="M286.854 861.536 Q286.854 854.101 288.732 850.049 Q291.35 844.022 297.526 844.022 Q298.835 844.022 300.194 844.392 Q301.578 844.738 303.307 846.097 Q305.061 847.455 306.123 849.679 Q308.149 853.977 308.149 861.536 Q308.149 868.923 306.271 872.949 Q303.529 878.829 297.477 878.829 Q295.204 878.829 292.882 877.668 Q290.585 876.507 289.127 873.715 Q286.854 869.54 286.854 861.536 M291.054 860.919 Q291.054 868.552 291.597 871.591 Q292.215 874.876 293.895 876.309 Q295.599 877.717 297.477 877.717 Q299.502 877.717 301.182 876.21 Q302.887 874.678 303.406 871.393 Q303.974 868.157 303.949 860.919 Q303.949 853.878 303.455 851.062 Q302.788 847.777 301.009 846.467 Q299.255 845.133 297.477 845.133 Q296.81 845.133 296.093 845.331 Q295.402 845.529 294.389 846.097 Q293.376 846.665 292.586 848.073 Q291.82 849.481 291.449 851.606 Q291.054 854.348 291.054 860.919 Z" fill="#000000" fill-rule="nonzero" fill-opacity="1" /><path clip-path="url(#clip500)" d="M312.151 861.536 Q312.151 854.101 314.028 850.049 Q316.647 844.022 322.822 844.022 Q324.132 844.022 325.49 844.392 Q326.874 844.738 328.603 846.097 Q330.357 847.455 331.419 849.679 Q333.445 853.977 333.445 861.536 Q333.445 868.923 331.567 872.949 Q328.825 878.829 322.773 878.829 Q320.5 878.829 318.178 877.668 Q315.881 876.507 314.423 873.715 Q312.151 869.54 312.151 861.536 M316.35 860.919 Q316.35 868.552 316.894 871.591 Q317.511 874.876 319.191 876.309 Q320.896 877.717 322.773 877.717 Q324.799 877.717 326.479 876.21 Q328.183 874.678 328.702 871.393 Q329.27 868.157 329.245 860.919 Q329.245 853.878 328.751 851.062 Q328.084 847.777 326.306 846.467 Q324.552 845.133 322.773 845.133 Q322.106 845.133 321.39 845.331 Q320.698 845.529 319.685 846.097 Q318.672 846.665 317.882 848.073 Q317.116 849.481 316.745 851.606 Q316.35 854.348 316.35 860.919 Z" fill="#000000" fill-rule="nonzero" fill-opacity="1" /><path clip-path="url(#clip500)" d="M582.317 869.565 Q582.317 868.058 583.132 867.49 Q583.947 866.897 584.812 866.897 Q585.973 866.897 586.64 867.638 Q587.332 868.354 587.332 869.367 Q587.332 870.38 586.64 871.121 Q585.973 871.838 584.812 871.838 Q584.244 871.838 583.947 871.739 Q584.614 874.061 586.64 875.741 Q588.69 877.421 591.383 877.421 Q594.767 877.421 596.793 874.135 Q598.004 872.011 598.004 867.193 Q598.004 862.944 597.09 860.82 Q595.681 857.584 592.791 857.584 Q588.69 857.584 586.269 861.116 Q585.973 861.561 585.627 861.586 Q585.133 861.586 585.01 861.314 Q584.911 861.018 584.911 860.252 L584.911 845.281 Q584.911 844.071 585.405 844.071 Q585.602 844.071 586.022 844.219 Q589.209 845.627 592.742 845.652 Q596.373 845.652 599.634 844.17 Q599.881 844.022 600.029 844.022 Q600.523 844.022 600.548 844.59 Q600.548 844.787 600.128 845.38 Q599.733 845.948 598.868 846.714 Q598.004 847.455 596.892 848.172 Q595.78 848.888 594.15 849.382 Q592.544 849.852 590.765 849.852 Q588.641 849.852 586.467 849.185 L586.467 859.041 Q589.086 856.472 592.89 856.472 Q596.941 856.472 599.733 859.733 Q602.524 862.994 602.524 867.539 Q602.524 872.307 599.214 875.568 Q595.928 878.829 591.482 878.829 Q587.431 878.829 584.861 875.938 Q582.317 873.048 582.317 869.565 Z" fill="#000000" fill-rule="nonzero" fill-opacity="1" /><path clip-path="url(#clip500)" d="M607.07 861.536 Q607.07 854.101 608.947 850.049 Q611.566 844.022 617.742 844.022 Q619.051 844.022 620.409 844.392 Q621.793 844.738 623.522 846.097 Q625.276 847.455 626.338 849.679 Q628.364 853.977 628.364 861.536 Q628.364 868.923 626.487 872.949 Q623.744 878.829 617.692 878.829 Q615.419 878.829 613.097 877.668 Q610.8 876.507 609.342 873.715 Q607.07 869.54 607.07 861.536 M611.269 860.919 Q611.269 868.552 611.813 871.591 Q612.43 874.876 614.11 876.309 Q615.815 877.717 617.692 877.717 Q619.718 877.717 621.398 876.21 Q623.102 874.678 623.621 871.393 Q624.189 868.157 624.164 860.919 Q624.164 853.878 623.67 851.062 Q623.003 847.777 621.225 846.467 Q619.471 845.133 617.692 845.133 Q617.025 845.133 616.309 845.331 Q615.617 845.529 614.604 846.097 Q613.591 846.665 612.801 848.073 Q612.035 849.481 611.665 851.606 Q611.269 854.348 611.269 860.919 Z" fill="#000000" fill-rule="nonzero" fill-opacity="1" /><path clip-path="url(#clip500)" d="M632.366 861.536 Q632.366 854.101 634.243 850.049 Q636.862 844.022 643.038 844.022 Q644.347 844.022 645.706 844.392 Q647.089 844.738 648.818 846.097 Q650.572 847.455 651.635 849.679 Q653.66 853.977 653.66 861.536 Q653.66 868.923 651.783 872.949 Q649.041 878.829 642.988 878.829 Q640.716 878.829 638.394 877.668 Q636.096 876.507 634.639 873.715 Q632.366 869.54 632.366 861.536 M636.565 860.919 Q636.565 868.552 637.109 871.591 Q637.727 874.876 639.406 876.309 Q641.111 877.717 642.988 877.717 Q645.014 877.717 646.694 876.21 Q648.398 874.678 648.917 871.393 Q649.485 868.157 649.461 860.919 Q649.461 853.878 648.967 851.062 Q648.3 847.777 646.521 846.467 Q644.767 845.133 642.988 845.133 Q642.321 845.133 641.605 845.331 Q640.913 845.529 639.9 846.097 Q638.888 846.665 638.097 848.073 Q637.331 849.481 636.961 851.606 Q636.565 854.348 636.565 860.919 Z" fill="#000000" fill-rule="nonzero" fill-opacity="1" /><path clip-path="url(#clip500)" d="M657.662 861.536 Q657.662 854.101 659.54 850.049 Q662.158 844.022 668.334 844.022 Q669.643 844.022 671.002 844.392 Q672.385 844.738 674.115 846.097 Q675.869 847.455 676.931 849.679 Q678.956 853.977 678.956 861.536 Q678.956 868.923 677.079 872.949 Q674.337 878.829 668.285 878.829 Q666.012 878.829 663.69 877.668 Q661.392 876.507 659.935 873.715 Q657.662 869.54 657.662 861.536 M661.862 860.919 Q661.862 868.552 662.405 871.591 Q663.023 874.876 664.703 876.309 Q666.407 877.717 668.285 877.717 Q670.31 877.717 671.99 876.21 Q673.695 874.678 674.213 871.393 Q674.782 868.157 674.757 860.919 Q674.757 853.878 674.263 851.062 Q673.596 847.777 671.817 846.467 Q670.063 845.133 668.285 845.133 Q667.618 845.133 666.901 845.331 Q666.21 845.529 665.197 846.097 Q664.184 846.665 663.393 848.073 Q662.628 849.481 662.257 851.606 Q661.862 854.348 661.862 860.919 Z" fill="#000000" fill-rule="nonzero" fill-opacity="1" /><path clip-path="url(#clip500)" d="M916.169 848.839 L916.169 847.258 Q922.246 847.258 925.383 844.022 Q926.247 844.022 926.396 844.219 Q926.544 844.417 926.544 845.331 L926.544 873.715 Q926.544 875.222 927.285 875.691 Q928.026 876.161 931.262 876.161 L932.868 876.161 L932.868 877.717 Q931.089 877.569 924.666 877.569 Q918.244 877.569 916.49 877.717 L916.49 876.161 L918.095 876.161 Q921.282 876.161 922.048 875.716 Q922.814 875.247 922.814 873.715 L922.814 847.505 Q920.17 848.839 916.169 848.839 Z" fill="#000000" fill-rule="nonzero" fill-opacity="1" /><path clip-path="url(#clip500)" d="M938.945 861.536 Q938.945 854.101 940.822 850.049 Q943.441 844.022 949.617 844.022 Q950.926 844.022 952.285 844.392 Q953.668 844.738 955.397 846.097 Q957.151 847.455 958.214 849.679 Q960.239 853.977 960.239 861.536 Q960.239 868.923 958.362 872.949 Q955.62 878.829 949.567 878.829 Q947.295 878.829 944.973 877.668 Q942.675 876.507 941.218 873.715 Q938.945 869.54 938.945 861.536 M943.145 860.919 Q943.145 868.552 943.688 871.591 Q944.306 874.876 945.985 876.309 Q947.69 877.717 949.567 877.717 Q951.593 877.717 953.273 876.21 Q954.977 874.678 955.496 871.393 Q956.064 868.157 956.04 860.919 Q956.04 853.878 955.546 851.062 Q954.879 847.777 953.1 846.467 Q951.346 845.133 949.567 845.133 Q948.9 845.133 948.184 845.331 Q947.492 845.529 946.48 846.097 Q945.467 846.665 944.676 848.073 Q943.91 849.481 943.54 851.606 Q943.145 854.348 943.145 860.919 Z" fill="#000000" fill-rule="nonzero" fill-opacity="1" /><path clip-path="url(#clip500)" d="M964.241 861.536 Q964.241 854.101 966.119 850.049 Q968.737 844.022 974.913 844.022 Q976.222 844.022 977.581 844.392 Q978.964 844.738 980.694 846.097 Q982.448 847.455 983.51 849.679 Q985.536 853.977 985.536 861.536 Q985.536 868.923 983.658 872.949 Q980.916 878.829 974.864 878.829 Q972.591 878.829 970.269 877.668 Q967.971 876.507 966.514 873.715 Q964.241 869.54 964.241 861.536 M968.441 860.919 Q968.441 868.552 968.984 871.591 Q969.602 874.876 971.282 876.309 Q972.986 877.717 974.864 877.717 Q976.889 877.717 978.569 876.21 Q980.274 874.678 980.793 871.393 Q981.361 868.157 981.336 860.919 Q981.336 853.878 980.842 851.062 Q980.175 847.777 978.396 846.467 Q976.642 845.133 974.864 845.133 Q974.197 845.133 973.48 845.331 Q972.789 845.529 971.776 846.097 Q970.763 846.665 969.972 848.073 Q969.207 849.481 968.836 851.606 Q968.441 854.348 968.441 860.919 Z" fill="#000000" fill-rule="nonzero" fill-opacity="1" /><path clip-path="url(#clip500)" d="M989.537 861.536 Q989.537 854.101 991.415 850.049 Q994.034 844.022 1000.21 844.022 Q1001.52 844.022 1002.88 844.392 Q1004.26 844.738 1005.99 846.097 Q1007.74 847.455 1008.81 849.679 Q1010.83 853.977 1010.83 861.536 Q1010.83 868.923 1008.95 872.949 Q1006.21 878.829 1000.16 878.829 Q997.887 878.829 995.565 877.668 Q993.268 876.507 991.81 873.715 Q989.537 869.54 989.537 861.536 M993.737 860.919 Q993.737 868.552 994.281 871.591 Q994.898 874.876 996.578 876.309 Q998.282 877.717 1000.16 877.717 Q1002.19 877.717 1003.87 876.21 Q1005.57 874.678 1006.09 871.393 Q1006.66 868.157 1006.63 860.919 Q1006.63 853.878 1006.14 851.062 Q1005.47 847.777 1003.69 846.467 Q1001.94 845.133 1000.16 845.133 Q999.493 845.133 998.777 845.331 Q998.085 845.529 997.072 846.097 Q996.059 846.665 995.269 848.073 Q994.503 849.481 994.132 851.606 Q993.737 854.348 993.737 860.919 Z" fill="#000000" fill-rule="nonzero" fill-opacity="1" /><path clip-path="url(#clip500)" d="M1014.83 861.536 Q1014.83 854.101 1016.71 850.049 Q1019.33 844.022 1025.51 844.022 Q1026.81 844.022 1028.17 844.392 Q1029.56 844.738 1031.29 846.097 Q1033.04 847.455 1034.1 849.679 Q1036.13 853.977 1036.13 861.536 Q1036.13 868.923 1034.25 872.949 Q1031.51 878.829 1025.46 878.829 Q1023.18 878.829 1020.86 877.668 Q1018.56 876.507 1017.11 873.715 Q1014.83 869.54 1014.83 861.536 M1019.03 860.919 Q1019.03 868.552 1019.58 871.591 Q1020.19 874.876 1021.87 876.309 Q1023.58 877.717 1025.46 877.717 Q1027.48 877.717 1029.16 876.21 Q1030.87 874.678 1031.38 871.393 Q1031.95 868.157 1031.93 860.919 Q1031.93 853.878 1031.43 851.062 Q1030.77 847.777 1028.99 846.467 Q1027.23 845.133 1025.46 845.133 Q1024.79 845.133 1024.07 845.331 Q1023.38 845.529 1022.37 846.097 Q1021.36 846.665 1020.56 848.073 Q1019.8 849.481 1019.43 851.606 Q1019.03 854.348 1019.03 860.919 Z" fill="#000000" fill-rule="nonzero" fill-opacity="1" /><path clip-path="url(#clip500)" d="M1260.69 877.717 Q1260.69 876.803 1260.77 876.531 Q1260.86 876.259 1261.26 875.84 L1270.97 865.019 Q1276.28 859.041 1276.28 853.829 Q1276.28 850.444 1274.5 848.024 Q1272.75 845.603 1269.51 845.603 Q1267.29 845.603 1265.41 846.961 Q1263.53 848.32 1262.67 850.741 Q1262.82 850.692 1263.34 850.692 Q1264.6 850.692 1265.29 851.482 Q1266 852.273 1266 853.335 Q1266 854.693 1265.11 855.36 Q1264.25 856.003 1263.38 856.003 Q1263.04 856.003 1262.57 855.929 Q1262.12 855.855 1261.41 855.163 Q1260.69 854.446 1260.69 853.187 Q1260.69 849.654 1263.36 846.838 Q1266.05 844.022 1270.15 844.022 Q1274.8 844.022 1277.84 846.788 Q1280.9 849.53 1280.9 853.829 Q1280.9 855.336 1280.43 856.719 Q1279.99 858.078 1279.37 859.14 Q1278.77 860.202 1277.14 861.907 Q1275.51 863.611 1274.2 864.822 Q1272.9 866.032 1269.96 868.601 L1264.6 873.814 L1273.71 873.814 Q1278.16 873.814 1278.5 873.419 Q1279 872.702 1279.61 868.923 L1280.9 868.923 L1279.47 877.717 L1260.69 877.717 Z" fill="#000000" fill-rule="nonzero" fill-opacity="1" /><path clip-path="url(#clip500)" d="M1285.44 861.536 Q1285.44 854.101 1287.32 850.049 Q1289.94 844.022 1296.12 844.022 Q1297.43 844.022 1298.78 844.392 Q1300.17 844.738 1301.9 846.097 Q1303.65 847.455 1304.71 849.679 Q1306.74 853.977 1306.74 861.536 Q1306.74 868.923 1304.86 872.949 Q1302.12 878.829 1296.07 878.829 Q1293.79 878.829 1291.47 877.668 Q1289.17 876.507 1287.72 873.715 Q1285.44 869.54 1285.44 861.536 M1289.64 860.919 Q1289.64 868.552 1290.19 871.591 Q1290.81 874.876 1292.49 876.309 Q1294.19 877.717 1296.07 877.717 Q1298.09 877.717 1299.77 876.21 Q1301.48 874.678 1302 871.393 Q1302.56 868.157 1302.54 860.919 Q1302.54 853.878 1302.05 851.062 Q1301.38 847.777 1299.6 846.467 Q1297.85 845.133 1296.07 845.133 Q1295.4 845.133 1294.68 845.331 Q1293.99 845.529 1292.98 846.097 Q1291.97 846.665 1291.18 848.073 Q1290.41 849.481 1290.04 851.606 Q1289.64 854.348 1289.64 860.919 Z" fill="#000000" fill-rule="nonzero" fill-opacity="1" /><path clip-path="url(#clip500)" d="M1310.74 861.536 Q1310.74 854.101 1312.62 850.049 Q1315.24 844.022 1321.41 844.022 Q1322.72 844.022 1324.08 844.392 Q1325.46 844.738 1327.19 846.097 Q1328.95 847.455 1330.01 849.679 Q1332.04 853.977 1332.04 861.536 Q1332.04 868.923 1330.16 872.949 Q1327.42 878.829 1321.36 878.829 Q1319.09 878.829 1316.77 877.668 Q1314.47 876.507 1313.01 873.715 Q1310.74 869.54 1310.74 861.536 M1314.94 860.919 Q1314.94 868.552 1315.48 871.591 Q1316.1 874.876 1317.78 876.309 Q1319.49 877.717 1321.36 877.717 Q1323.39 877.717 1325.07 876.21 Q1326.77 874.678 1327.29 871.393 Q1327.86 868.157 1327.84 860.919 Q1327.84 853.878 1327.34 851.062 Q1326.67 847.777 1324.9 846.467 Q1323.14 845.133 1321.36 845.133 Q1320.7 845.133 1319.98 845.331 Q1319.29 845.529 1318.28 846.097 Q1317.26 846.665 1316.47 848.073 Q1315.71 849.481 1315.34 851.606 Q1314.94 854.348 1314.94 860.919 Z" fill="#000000" fill-rule="nonzero" fill-opacity="1" /><path clip-path="url(#clip500)" d="M1336.04 861.536 Q1336.04 854.101 1337.91 850.049 Q1340.53 844.022 1346.71 844.022 Q1348.02 844.022 1349.38 844.392 Q1350.76 844.738 1352.49 846.097 Q1354.24 847.455 1355.31 849.679 Q1357.33 853.977 1357.33 861.536 Q1357.33 868.923 1355.45 872.949 Q1352.71 878.829 1346.66 878.829 Q1344.39 878.829 1342.06 877.668 Q1339.77 876.507 1338.31 873.715 Q1336.04 869.54 1336.04 861.536 M1340.24 860.919 Q1340.24 868.552 1340.78 871.591 Q1341.4 874.876 1343.08 876.309 Q1344.78 877.717 1346.66 877.717 Q1348.69 877.717 1350.37 876.21 Q1352.07 874.678 1352.59 871.393 Q1353.16 868.157 1353.13 860.919 Q1353.13 853.878 1352.64 851.062 Q1351.97 847.777 1350.19 846.467 Q1348.44 845.133 1346.66 845.133 Q1345.99 845.133 1345.28 845.331 Q1344.58 845.529 1343.57 846.097 Q1342.56 846.665 1341.77 848.073 Q1341 849.481 1340.63 851.606 Q1340.24 854.348 1340.24 860.919 Z" fill="#000000" fill-rule="nonzero" fill-opacity="1" /><path clip-path="url(#clip500)" d="M1361.33 861.536 Q1361.33 854.101 1363.21 850.049 Q1365.83 844.022 1372.01 844.022 Q1373.31 844.022 1374.67 844.392 Q1376.06 844.738 1377.79 846.097 Q1379.54 847.455 1380.6 849.679 Q1382.63 853.977 1382.63 861.536 Q1382.63 868.923 1380.75 872.949 Q1378.01 878.829 1371.96 878.829 Q1369.68 878.829 1367.36 877.668 Q1365.06 876.507 1363.61 873.715 Q1361.33 869.54 1361.33 861.536 M1365.53 860.919 Q1365.53 868.552 1366.08 871.591 Q1366.69 874.876 1368.37 876.309 Q1370.08 877.717 1371.96 877.717 Q1373.98 877.717 1375.66 876.21 Q1377.37 874.678 1377.88 871.393 Q1378.45 868.157 1378.43 860.919 Q1378.43 853.878 1377.93 851.062 Q1377.27 847.777 1375.49 846.467 Q1373.73 845.133 1371.96 845.133 Q1371.29 845.133 1370.57 845.331 Q1369.88 845.529 1368.87 846.097 Q1367.86 846.665 1367.06 848.073 Q1366.3 849.481 1365.93 851.606 Q1365.53 854.348 1365.53 860.919 Z" fill="#000000" fill-rule="nonzero" fill-opacity="1" /><path clip-path="url(#clip500)" d="M553.615 953.181 L553.615 951.041 L555.28 951.041 Q559.05 951.041 559.899 950.43 Q560.782 949.784 560.782 947.746 L560.782 911.3 Q560.782 909.295 559.899 908.684 Q559.016 908.039 555.28 908.039 L553.615 908.039 L553.615 905.865 L592.779 905.865 L594.715 921.524 L592.983 921.524 Q592.508 917.549 591.862 915.274 Q591.251 912.964 589.722 911.198 Q588.228 909.431 585.748 908.752 Q583.303 908.039 579.328 908.039 L570.361 908.039 Q567.983 908.039 567.474 908.548 Q566.964 909.024 566.964 910.824 L566.964 927.502 L573.214 927.502 Q578.004 927.502 579.362 925.837 Q580.721 924.173 580.721 919.384 L582.487 919.384 L582.487 937.794 L580.721 937.794 Q580.721 933.072 579.362 931.374 Q578.004 929.676 573.214 929.676 L566.964 929.676 L566.964 948.256 Q566.964 950.056 567.474 950.566 Q568.017 951.041 570.361 951.041 L579.634 951.041 Q582.623 951.041 584.797 950.667 Q587.005 950.26 588.533 949.309 Q590.062 948.324 591.081 947.203 Q592.134 946.082 592.847 944.078 Q593.595 942.04 594.002 940.172 Q594.444 938.303 594.919 935.246 L596.652 935.246 L593.73 953.181 L553.615 953.181 Z" fill="#000000" fill-rule="nonzero" fill-opacity="1" /><path clip-path="url(#clip500)" d="M600.524 964.526 Q604.226 964.526 605.075 964.05 Q605.959 963.609 605.959 961.401 L605.959 928.827 Q605.959 926.517 605.075 925.939 Q604.226 925.362 600.524 925.362 L600.524 923.188 L610.544 922.441 L610.544 927.026 Q614.722 922.441 620.293 922.441 Q626.203 922.441 630.517 927.026 Q634.831 931.612 634.831 938.168 Q634.831 944.791 630.245 949.377 Q625.66 953.962 619.308 953.962 Q615.843 953.962 613.499 952.196 Q611.19 950.396 610.748 949.071 L610.748 949.716 L610.748 961.401 Q610.748 963.643 611.631 964.084 Q612.514 964.526 616.183 964.526 L616.183 966.666 Q608.88 966.462 608.336 966.462 Q607.657 966.462 600.524 966.666 L600.524 964.526 M610.748 945.267 Q610.748 946.32 610.884 946.693 Q611.054 947.067 611.733 948.188 Q614.484 952.4 618.968 952.4 Q619.002 952.4 619.036 952.4 Q623.01 952.4 626.033 948.358 Q629.056 944.282 629.056 938.168 Q629.056 932.325 626.305 928.249 Q623.554 924.173 619.749 924.173 Q617.032 924.173 614.654 925.634 Q612.276 927.094 610.748 929.744 L610.748 945.267 Z" fill="#000000" fill-rule="nonzero" fill-opacity="1" /><path clip-path="url(#clip500)" d="M639.484 953.181 L639.484 951.041 Q643.187 951.041 644.036 950.599 Q644.885 950.124 644.885 947.882 L644.885 929.166 Q644.885 926.585 644.002 925.973 Q643.153 925.362 639.756 925.362 L639.756 923.188 L649.47 922.441 L649.47 947.95 Q649.47 950.022 650.218 950.532 Q650.965 951.041 654.362 951.041 L654.362 953.181 Q647.263 952.977 647.127 952.977 Q646.176 952.977 639.484 953.181 M642.405 910.314 Q642.405 908.922 643.458 907.801 Q644.545 906.646 646.074 906.646 Q647.602 906.646 648.689 907.699 Q649.776 908.718 649.776 910.348 Q649.776 911.945 648.689 912.998 Q647.602 914.017 646.074 914.017 Q644.477 914.017 643.424 912.896 Q642.405 911.775 642.405 910.314 Z" fill="#000000" fill-rule="nonzero" fill-opacity="1" /><path clip-path="url(#clip500)" d="M658.744 952.264 L658.744 943.093 Q658.744 942.312 658.777 942.04 Q658.811 941.768 659.015 941.564 Q659.219 941.36 659.627 941.36 Q660.102 941.36 660.272 941.564 Q660.476 941.768 660.612 942.549 Q661.665 947.339 663.907 949.886 Q666.182 952.4 670.292 952.4 Q674.199 952.4 676.169 950.667 Q678.139 948.935 678.139 946.082 Q678.139 940.987 670.904 939.696 Q666.726 938.847 664.993 938.303 Q663.261 937.726 661.733 936.469 Q658.744 934.024 658.744 930.559 Q658.744 927.094 661.359 924.547 Q664.008 921.999 669.851 921.999 Q673.757 921.999 676.406 923.969 Q677.188 923.358 677.595 922.848 Q678.512 921.999 678.988 921.999 Q679.531 921.999 679.633 922.373 Q679.735 922.712 679.735 923.698 L679.735 930.695 Q679.735 931.476 679.701 931.748 Q679.667 932.019 679.463 932.223 Q679.26 932.393 678.818 932.393 Q678.037 932.393 678.003 931.748 Q677.459 923.324 669.851 923.324 Q665.741 923.324 663.907 924.92 Q662.072 926.483 662.072 928.623 Q662.072 929.812 662.616 930.729 Q663.193 931.612 663.907 932.155 Q664.654 932.665 666.012 933.174 Q667.371 933.65 668.186 933.82 Q669.036 933.99 670.632 934.329 Q676.203 935.382 678.546 937.658 Q681.468 940.579 681.468 944.282 Q681.468 948.392 678.682 951.177 Q675.897 953.962 670.292 953.962 Q665.775 953.962 662.616 950.939 Q662.208 951.347 661.902 951.72 Q661.597 952.06 661.461 952.196 Q661.359 952.332 661.325 952.434 Q661.291 952.502 661.223 952.57 Q659.83 953.962 659.491 953.962 Q658.947 953.962 658.845 953.589 Q658.744 953.249 658.744 952.264 Z" fill="#000000" fill-rule="nonzero" fill-opacity="1" /><path clip-path="url(#clip500)" d="M690.333 949.445 Q685.747 944.893 685.747 938.303 Q685.747 931.68 690.231 926.856 Q694.749 921.999 701.202 921.999 Q707.52 921.999 712.038 926.823 Q716.59 931.612 716.59 938.303 Q716.59 944.859 712.004 949.411 Q707.452 953.962 701.134 953.962 Q694.952 953.962 690.333 949.445 M691.522 937.726 Q691.522 944.485 693.288 947.542 Q696.005 952.196 701.202 952.196 Q703.784 952.196 705.924 950.803 Q708.098 949.411 709.287 947.067 Q710.815 944.01 710.815 937.726 Q710.815 931.034 708.981 928.079 Q706.264 923.562 701.134 923.562 Q698.893 923.562 696.685 924.751 Q694.511 925.905 693.186 928.215 Q691.522 931.272 691.522 937.726 Z" fill="#000000" fill-rule="nonzero" fill-opacity="1" /><path clip-path="url(#clip500)" d="M722.907 938.235 Q722.907 931.612 727.527 927.026 Q732.146 922.441 738.396 922.441 Q743.695 922.441 747.16 926.755 L747.16 911.707 Q747.16 909.126 746.243 908.48 Q745.36 907.835 741.759 907.835 L741.759 905.661 L751.779 904.914 L751.779 947.135 Q751.779 949.716 752.663 950.396 Q753.58 951.041 757.18 951.041 L757.18 953.181 L746.956 953.962 L746.956 949.343 Q743.356 953.928 737.649 953.962 Q731.671 953.962 727.289 949.377 Q722.907 944.791 722.907 938.235 M728.682 938.303 Q728.682 944.757 730.686 947.95 Q733.471 952.4 737.989 952.4 Q743.152 952.4 746.209 947.542 Q746.99 946.354 746.956 944.961 L746.956 930.695 Q746.956 929.302 746.209 928.147 Q743.356 923.969 738.702 923.969 Q733.845 923.969 730.822 928.419 Q728.682 931.748 728.682 938.303 Z" fill="#000000" fill-rule="nonzero" fill-opacity="1" /><path clip-path="url(#clip500)" d="M761.052 937.862 Q761.052 931.306 765.264 926.653 Q769.476 921.999 775.522 921.999 Q781.637 921.999 784.795 925.973 Q787.988 929.947 787.988 935.654 Q787.988 936.707 787.717 936.911 Q787.445 937.115 786.256 937.115 L766.827 937.115 Q766.827 944.214 768.933 947.542 Q771.854 952.196 776.779 952.196 Q777.459 952.196 778.274 952.06 Q779.089 951.924 780.753 951.347 Q782.418 950.735 783.878 949.139 Q785.339 947.542 786.188 945.029 Q786.392 944.044 787.071 944.078 Q787.988 944.078 787.988 944.893 Q787.988 945.504 787.309 946.897 Q786.664 948.256 785.407 949.886 Q784.15 951.517 781.704 952.739 Q779.293 953.962 776.372 953.962 Q770.258 953.962 765.638 949.343 Q761.052 944.689 761.052 937.862 M766.895 935.654 L783.403 935.654 Q783.403 934.193 783.131 932.563 Q782.893 930.933 782.146 928.691 Q781.433 926.415 779.734 924.988 Q778.036 923.562 775.522 923.562 Q774.402 923.562 773.179 924.037 Q771.99 924.513 770.529 925.668 Q769.069 926.823 768.05 929.438 Q767.031 932.053 766.895 935.654 Z" fill="#000000" fill-rule="nonzero" fill-opacity="1" /><path clip-path="url(#clip500)" d="M792.302 952.264 L792.302 943.093 Q792.302 942.312 792.336 942.04 Q792.37 941.768 792.574 941.564 Q792.778 941.36 793.185 941.36 Q793.661 941.36 793.831 941.564 Q794.035 941.768 794.17 942.549 Q795.223 947.339 797.465 949.886 Q799.741 952.4 803.851 952.4 Q807.757 952.4 809.727 950.667 Q811.697 948.935 811.697 946.082 Q811.697 940.987 804.462 939.696 Q800.284 938.847 798.552 938.303 Q796.82 937.726 795.291 936.469 Q792.302 934.024 792.302 930.559 Q792.302 927.094 794.918 924.547 Q797.567 921.999 803.409 921.999 Q807.316 921.999 809.965 923.969 Q810.746 923.358 811.154 922.848 Q812.071 921.999 812.547 921.999 Q813.09 921.999 813.192 922.373 Q813.294 922.712 813.294 923.698 L813.294 930.695 Q813.294 931.476 813.26 931.748 Q813.226 932.019 813.022 932.223 Q812.818 932.393 812.377 932.393 Q811.596 932.393 811.562 931.748 Q811.018 923.324 803.409 923.324 Q799.299 923.324 797.465 924.92 Q795.631 926.483 795.631 928.623 Q795.631 929.812 796.174 930.729 Q796.752 931.612 797.465 932.155 Q798.212 932.665 799.571 933.174 Q800.93 933.65 801.745 933.82 Q802.594 933.99 804.191 934.329 Q809.761 935.382 812.105 937.658 Q815.026 940.579 815.026 944.282 Q815.026 948.392 812.241 951.177 Q809.456 953.962 803.851 953.962 Q799.333 953.962 796.174 950.939 Q795.767 951.347 795.461 951.72 Q795.155 952.06 795.02 952.196 Q794.918 952.332 794.884 952.434 Q794.85 952.502 794.782 952.57 Q793.389 953.962 793.049 953.962 Q792.506 953.962 792.404 953.589 Q792.302 953.249 792.302 952.264 Z" fill="#000000" fill-rule="nonzero" fill-opacity="1" /><path clip-path="url(#clip500)" d="M842.438 964.526 Q846.14 964.526 846.989 964.05 Q847.872 963.609 847.872 961.401 L847.872 928.827 Q847.872 926.517 846.989 925.939 Q846.14 925.362 842.438 925.362 L842.438 923.188 L852.458 922.441 L852.458 927.026 Q856.636 922.441 862.207 922.441 Q868.117 922.441 872.431 927.026 Q876.744 931.612 876.744 938.168 Q876.744 944.791 872.159 949.377 Q867.573 953.962 861.222 953.962 Q857.757 953.962 855.413 952.196 Q853.103 950.396 852.662 949.071 L852.662 949.716 L852.662 961.401 Q852.662 963.643 853.545 964.084 Q854.428 964.526 858.097 964.526 L858.097 966.666 Q850.794 966.462 850.25 966.462 Q849.571 966.462 842.438 966.666 L842.438 964.526 M852.662 945.267 Q852.662 946.32 852.798 946.693 Q852.967 947.067 853.647 948.188 Q856.398 952.4 860.882 952.4 Q860.916 952.4 860.95 952.4 Q864.924 952.4 867.947 948.358 Q870.97 944.282 870.97 938.168 Q870.97 932.325 868.219 928.249 Q865.467 924.173 861.663 924.173 Q858.946 924.173 856.568 925.634 Q854.19 927.094 852.662 929.744 L852.662 945.267 Z" fill="#000000" fill-rule="nonzero" fill-opacity="1" /><path clip-path="url(#clip500)" d="M882.96 937.862 Q882.96 931.306 887.172 926.653 Q891.384 921.999 897.43 921.999 Q903.545 921.999 906.703 925.973 Q909.896 929.947 909.896 935.654 Q909.896 936.707 909.625 936.911 Q909.353 937.115 908.164 937.115 L888.735 937.115 Q888.735 944.214 890.841 947.542 Q893.762 952.196 898.687 952.196 Q899.367 952.196 900.182 952.06 Q900.997 951.924 902.661 951.347 Q904.326 950.735 905.786 949.139 Q907.247 947.542 908.096 945.029 Q908.3 944.044 908.979 944.078 Q909.896 944.078 909.896 944.893 Q909.896 945.504 909.217 946.897 Q908.572 948.256 907.315 949.886 Q906.058 951.517 903.612 952.739 Q901.201 953.962 898.28 953.962 Q892.166 953.962 887.546 949.343 Q882.96 944.689 882.96 937.862 M888.803 935.654 L905.311 935.654 Q905.311 934.193 905.039 932.563 Q904.801 930.933 904.054 928.691 Q903.341 926.415 901.642 924.988 Q899.944 923.562 897.43 923.562 Q896.31 923.562 895.087 924.037 Q893.898 924.513 892.437 925.668 Q890.977 926.823 889.958 929.438 Q888.939 932.053 888.803 935.654 Z" fill="#000000" fill-rule="nonzero" fill-opacity="1" /><path clip-path="url(#clip500)" d="M913.837 953.181 L913.837 951.041 Q917.539 951.041 918.388 950.599 Q919.271 950.124 919.271 947.882 L919.271 929.234 Q919.271 926.653 918.354 926.007 Q917.471 925.362 913.837 925.362 L913.837 923.188 L923.517 922.441 L923.517 930.083 Q924.502 927.094 926.574 924.784 Q928.68 922.441 932.077 922.441 Q934.319 922.441 935.745 923.698 Q937.206 924.954 937.206 926.687 Q937.206 928.215 936.255 928.996 Q935.338 929.744 934.217 929.744 Q932.96 929.744 932.077 928.962 Q931.228 928.147 931.228 926.755 Q931.228 925.905 931.601 925.26 Q932.009 924.581 932.315 924.343 Q932.62 924.105 932.824 924.037 Q932.688 923.969 932.077 923.969 Q928.239 923.969 926.031 927.808 Q923.857 931.612 923.857 937.047 L923.857 947.746 Q923.857 949.75 924.672 950.396 Q925.521 951.041 929.156 951.041 L930.616 951.041 L930.616 953.181 Q927.831 952.977 921.785 952.977 Q920.936 952.977 919.611 953.011 Q918.286 953.045 916.554 953.113 Q914.822 953.181 913.837 953.181 Z" fill="#000000" fill-rule="nonzero" fill-opacity="1" /><path clip-path="url(#clip500)" d="M968.999 949.377 Q964.583 944.757 964.583 938.168 Q964.583 931.544 968.931 926.789 Q973.279 921.999 979.665 921.999 Q983.911 921.999 987.104 924.037 Q990.297 926.041 990.297 929.472 Q990.297 931 989.379 931.884 Q988.496 932.733 987.104 932.733 Q985.643 932.733 984.76 931.85 Q983.911 930.933 983.911 929.54 Q983.911 928.928 984.115 928.317 Q984.318 927.706 985.066 927.06 Q985.847 926.415 987.172 926.313 Q984.692 923.765 979.869 923.765 Q979.801 923.765 979.733 923.765 Q976.2 923.765 973.279 927.094 Q970.358 930.423 970.358 938.032 Q970.358 942.006 971.309 944.927 Q972.294 947.814 973.89 949.309 Q975.487 950.803 977.049 951.517 Q978.612 952.196 980.14 952.196 Q986.968 952.196 989.278 944.893 Q989.481 944.214 990.161 944.214 Q991.078 944.214 991.078 944.893 Q991.078 945.233 990.806 946.116 Q990.534 946.999 989.685 948.392 Q988.836 949.784 987.613 951.007 Q986.424 952.196 984.284 953.079 Q982.178 953.962 979.529 953.962 Q973.415 953.962 968.999 949.377 Z" fill="#000000" fill-rule="nonzero" fill-opacity="1" /><path clip-path="url(#clip500)" d="M996.003 946.557 Q996.003 940.647 1002.97 937.522 Q1007.14 935.518 1015.77 935.009 L1015.77 932.461 Q1015.77 928.147 1013.5 925.871 Q1011.25 923.562 1008.4 923.562 Q1003.31 923.562 1000.86 926.755 Q1002.93 926.823 1003.68 927.875 Q1004.43 928.894 1004.43 929.947 Q1004.43 931.34 1003.54 932.257 Q1002.69 933.14 1001.23 933.14 Q999.841 933.14 998.924 932.291 Q998.007 931.408 998.007 929.88 Q998.007 926.483 1001.06 924.241 Q1004.16 921.999 1008.54 921.999 Q1014.24 921.999 1018.05 925.837 Q1019.24 927.026 1019.81 928.555 Q1020.43 930.083 1020.49 931.102 Q1020.56 932.087 1020.56 934.057 L1020.56 947.95 Q1020.56 948.358 1020.7 949.037 Q1020.83 949.716 1021.44 950.599 Q1022.09 951.449 1023.14 951.449 Q1025.66 951.449 1025.62 946.999 L1025.62 943.093 L1027.39 943.093 L1027.39 946.999 Q1027.39 950.701 1025.42 952.162 Q1023.48 953.589 1021.68 953.589 Q1019.37 953.589 1017.91 951.89 Q1016.45 950.192 1016.25 947.882 Q1015.19 950.532 1012.78 952.264 Q1010.41 953.962 1007.14 953.962 Q1004.63 953.962 1002.25 953.317 Q999.909 952.705 997.939 950.973 Q996.003 949.207 996.003 946.557 M1001.37 946.489 Q1001.37 949.071 1003.2 950.735 Q1005.04 952.4 1007.62 952.4 Q1010.54 952.4 1013.16 950.158 Q1015.77 947.882 1015.77 943.432 L1015.77 936.469 Q1008.06 936.741 1004.7 939.832 Q1001.37 942.889 1001.37 946.489 Z" fill="#000000" fill-rule="nonzero" fill-opacity="1" /><path clip-path="url(#clip500)" d="M1029.8 953.181 L1029.8 951.041 Q1033.5 951.041 1034.35 950.599 Q1035.24 950.124 1035.24 947.882 L1035.24 929.234 Q1035.24 926.653 1034.32 926.007 Q1033.43 925.362 1029.8 925.362 L1029.8 923.188 L1039.48 922.441 L1039.48 930.083 Q1040.47 927.094 1042.54 924.784 Q1044.64 922.441 1048.04 922.441 Q1050.28 922.441 1051.71 923.698 Q1053.17 924.954 1053.17 926.687 Q1053.17 928.215 1052.22 928.996 Q1051.3 929.744 1050.18 929.744 Q1048.92 929.744 1048.04 928.962 Q1047.19 928.147 1047.19 926.755 Q1047.19 925.905 1047.57 925.26 Q1047.97 924.581 1048.28 924.343 Q1048.58 924.105 1048.79 924.037 Q1048.65 923.969 1048.04 923.969 Q1044.2 923.969 1041.99 927.808 Q1039.82 931.612 1039.82 937.047 L1039.82 947.746 Q1039.82 949.75 1040.64 950.396 Q1041.49 951.041 1045.12 951.041 L1046.58 951.041 L1046.58 953.181 Q1043.79 952.977 1037.75 952.977 Q1036.9 952.977 1035.57 953.011 Q1034.25 953.045 1032.52 953.113 Q1030.79 953.181 1029.8 953.181 Z" fill="#000000" fill-rule="nonzero" fill-opacity="1" /><polyline clip-path="url(#clip502)" style="stroke:#000000; stroke-linecap:round; stroke-linejoin:round; stroke-width:2; stroke-opacity:0.1; fill:none" points="254.029,719.841 1352.76,719.841 "/>
<polyline clip-path="url(#clip502)" style="stroke:#000000; stroke-linecap:round; stroke-linejoin:round; stroke-width:2; stroke-opacity:0.1; fill:none" points="254.029,547.38 1352.76,547.38 "/>
<polyline clip-path="url(#clip502)" style="stroke:#000000; stroke-linecap:round; stroke-linejoin:round; stroke-width:2; stroke-opacity:0.1; fill:none" points="254.029,374.919 1352.76,374.919 "/>
<polyline clip-path="url(#clip502)" style="stroke:#000000; stroke-linecap:round; stroke-linejoin:round; stroke-width:2; stroke-opacity:0.1; fill:none" points="254.029,202.459 1352.76,202.459 "/>
<polyline clip-path="url(#clip500)" style="stroke:#000000; stroke-linecap:round; stroke-linejoin:round; stroke-width:4; stroke-opacity:1; fill:none" points="254.029,823.317 254.029,47.2441 "/>
<polyline clip-path="url(#clip500)" style="stroke:#000000; stroke-linecap:round; stroke-linejoin:round; stroke-width:4; stroke-opacity:1; fill:none" points="254.029,719.841 272.927,719.841 "/>
<polyline clip-path="url(#clip500)" style="stroke:#000000; stroke-linecap:round; stroke-linejoin:round; stroke-width:4; stroke-opacity:1; fill:none" points="254.029,547.38 272.927,547.38 "/>
<polyline clip-path="url(#clip500)" style="stroke:#000000; stroke-linecap:round; stroke-linejoin:round; stroke-width:4; stroke-opacity:1; fill:none" points="254.029,374.919 272.927,374.919 "/>
<polyline clip-path="url(#clip500)" style="stroke:#000000; stroke-linecap:round; stroke-linejoin:round; stroke-width:4; stroke-opacity:1; fill:none" points="254.029,202.459 272.927,202.459 "/>
<path clip-path="url(#clip500)" d="M156.053 723.756 Q156.35 724.053 156.35 724.472 Q156.35 724.892 156.053 725.189 Q155.757 725.485 155.337 725.485 L123.667 725.485 Q123.247 725.485 122.951 725.189 Q122.654 724.892 122.654 724.472 Q122.654 724.053 122.951 723.756 Q123.247 723.46 123.667 723.46 L155.337 723.46 Q155.757 723.46 156.053 723.756 Z" fill="#000000" fill-rule="nonzero" fill-opacity="1" /><path clip-path="url(#clip500)" d="M161.29 730.302 Q161.29 728.796 162.155 728.079 Q163.02 727.363 164.131 727.363 Q165.292 727.363 166.108 728.129 Q166.948 728.87 166.948 730.179 Q166.948 731.587 165.959 732.378 Q164.996 733.168 163.613 732.97 Q164.823 734.996 167.046 735.91 Q169.294 736.824 171.369 736.824 Q173.543 736.824 175.297 734.947 Q177.076 733.069 177.076 728.474 Q177.076 724.571 175.544 722.323 Q174.037 720.075 171.048 720.075 L168.825 720.075 Q168.059 720.075 167.837 720.001 Q167.615 719.927 167.615 719.507 Q167.615 719.013 168.38 718.914 Q169.146 718.914 170.357 718.766 Q173.296 718.667 174.853 716.123 Q176.261 713.751 176.261 710.367 Q176.261 707.279 174.779 705.994 Q173.321 704.685 171.419 704.685 Q169.64 704.685 167.689 705.426 Q165.737 706.167 164.675 707.822 Q167.812 707.822 167.812 710.367 Q167.812 711.479 167.096 712.22 Q166.404 712.936 165.243 712.936 Q164.131 712.936 163.39 712.244 Q162.649 711.528 162.649 710.317 Q162.649 707.427 165.218 705.426 Q167.812 703.425 171.617 703.425 Q175.371 703.425 178.138 705.401 Q180.93 707.378 180.93 710.416 Q180.93 713.405 178.953 715.851 Q176.977 718.297 173.84 719.309 Q177.694 720.075 179.991 722.694 Q182.288 725.288 182.288 728.474 Q182.288 732.427 179.176 735.342 Q176.063 738.232 171.518 738.232 Q167.318 738.232 164.304 735.96 Q161.29 733.687 161.29 730.302 Z" fill="#000000" fill-rule="nonzero" fill-opacity="1" /><path clip-path="url(#clip500)" d="M186.982 737.121 Q186.982 736.207 187.056 735.935 Q187.155 735.663 187.55 735.243 L197.259 724.423 Q202.57 718.445 202.57 713.232 Q202.57 709.848 200.791 707.427 Q199.037 705.006 195.801 705.006 Q193.578 705.006 191.7 706.365 Q189.823 707.724 188.958 710.145 Q189.106 710.095 189.625 710.095 Q190.885 710.095 191.577 710.886 Q192.293 711.676 192.293 712.738 Q192.293 714.097 191.404 714.764 Q190.539 715.406 189.675 715.406 Q189.329 715.406 188.859 715.332 Q188.415 715.258 187.698 714.566 Q186.982 713.85 186.982 712.59 Q186.982 709.058 189.65 706.241 Q192.343 703.425 196.443 703.425 Q201.088 703.425 204.126 706.192 Q207.189 708.934 207.189 713.232 Q207.189 714.739 206.72 716.123 Q206.275 717.481 205.658 718.544 Q205.065 719.606 203.434 721.31 Q201.804 723.015 200.495 724.225 Q199.185 725.436 196.246 728.005 L190.885 733.217 L200.001 733.217 Q204.447 733.217 204.793 732.822 Q205.287 732.106 205.905 728.326 L207.189 728.326 L205.757 737.121 L186.982 737.121 Z" fill="#000000" fill-rule="nonzero" fill-opacity="1" /><path clip-path="url(#clip500)" d="M211.735 720.94 Q211.735 713.504 213.612 709.453 Q216.231 703.425 222.407 703.425 Q223.716 703.425 225.075 703.796 Q226.458 704.142 228.187 705.5 Q229.941 706.859 231.003 709.082 Q233.029 713.381 233.029 720.94 Q233.029 728.326 231.152 732.353 Q228.41 738.232 222.357 738.232 Q220.084 738.232 217.762 737.071 Q215.465 735.91 214.007 733.119 Q211.735 728.944 211.735 720.94 M215.934 720.322 Q215.934 727.956 216.478 730.994 Q217.095 734.28 218.775 735.713 Q220.48 737.121 222.357 737.121 Q224.383 737.121 226.063 735.614 Q227.767 734.082 228.286 730.797 Q228.854 727.56 228.829 720.322 Q228.829 713.282 228.335 710.466 Q227.668 707.18 225.89 705.871 Q224.136 704.537 222.357 704.537 Q221.69 704.537 220.974 704.734 Q220.282 704.932 219.269 705.5 Q218.256 706.068 217.466 707.477 Q216.7 708.885 216.33 711.009 Q215.934 713.751 215.934 720.322 Z" fill="#000000" fill-rule="nonzero" fill-opacity="1" /><path clip-path="url(#clip500)" d="M156.053 551.295 Q156.35 551.592 156.35 552.012 Q156.35 552.432 156.053 552.728 Q155.757 553.025 155.337 553.025 L123.667 553.025 Q123.247 553.025 122.951 552.728 Q122.654 552.432 122.654 552.012 Q122.654 551.592 122.951 551.295 Q123.247 550.999 123.667 550.999 L155.337 550.999 Q155.757 550.999 156.053 551.295 Z" fill="#000000" fill-rule="nonzero" fill-opacity="1" /><path clip-path="url(#clip500)" d="M161.29 557.842 Q161.29 556.335 162.155 555.619 Q163.02 554.902 164.131 554.902 Q165.292 554.902 166.108 555.668 Q166.948 556.409 166.948 557.718 Q166.948 559.126 165.959 559.917 Q164.996 560.707 163.613 560.51 Q164.823 562.535 167.046 563.449 Q169.294 564.364 171.369 564.364 Q173.543 564.364 175.297 562.486 Q177.076 560.609 177.076 556.014 Q177.076 552.111 175.544 549.863 Q174.037 547.615 171.048 547.615 L168.825 547.615 Q168.059 547.615 167.837 547.541 Q167.615 547.466 167.615 547.046 Q167.615 546.552 168.38 546.454 Q169.146 546.454 170.357 546.305 Q173.296 546.207 174.853 543.662 Q176.261 541.291 176.261 537.906 Q176.261 534.818 174.779 533.534 Q173.321 532.224 171.419 532.224 Q169.64 532.224 167.689 532.966 Q165.737 533.707 164.675 535.362 Q167.812 535.362 167.812 537.906 Q167.812 539.018 167.096 539.759 Q166.404 540.475 165.243 540.475 Q164.131 540.475 163.39 539.784 Q162.649 539.067 162.649 537.857 Q162.649 534.967 165.218 532.966 Q167.812 530.965 171.617 530.965 Q175.371 530.965 178.138 532.941 Q180.93 534.917 180.93 537.956 Q180.93 540.945 178.953 543.39 Q176.977 545.836 173.84 546.849 Q177.694 547.615 179.991 550.233 Q182.288 552.827 182.288 556.014 Q182.288 559.966 179.176 562.881 Q176.063 565.772 171.518 565.772 Q167.318 565.772 164.304 563.499 Q161.29 561.226 161.29 557.842 Z" fill="#000000" fill-rule="nonzero" fill-opacity="1" /><path clip-path="url(#clip500)" d="M186.439 548.479 Q186.439 541.044 188.316 536.992 Q190.935 530.965 197.11 530.965 Q198.42 530.965 199.778 531.335 Q201.162 531.681 202.891 533.04 Q204.645 534.398 205.707 536.622 Q207.733 540.92 207.733 548.479 Q207.733 555.866 205.855 559.892 Q203.113 565.772 197.061 565.772 Q194.788 565.772 192.466 564.611 Q190.169 563.449 188.711 560.658 Q186.439 556.483 186.439 548.479 M190.638 547.862 Q190.638 555.495 191.182 558.534 Q191.799 561.819 193.479 563.252 Q195.184 564.66 197.061 564.66 Q199.087 564.66 200.766 563.153 Q202.471 561.621 202.99 558.336 Q203.558 555.1 203.533 547.862 Q203.533 540.821 203.039 538.005 Q202.372 534.719 200.594 533.41 Q198.84 532.076 197.061 532.076 Q196.394 532.076 195.678 532.274 Q194.986 532.471 193.973 533.04 Q192.96 533.608 192.17 535.016 Q191.404 536.424 191.033 538.549 Q190.638 541.291 190.638 547.862 Z" fill="#000000" fill-rule="nonzero" fill-opacity="1" /><path clip-path="url(#clip500)" d="M211.735 548.479 Q211.735 541.044 213.612 536.992 Q216.231 530.965 222.407 530.965 Q223.716 530.965 225.075 531.335 Q226.458 531.681 228.187 533.04 Q229.941 534.398 231.003 536.622 Q233.029 540.92 233.029 548.479 Q233.029 555.866 231.152 559.892 Q228.41 565.772 222.357 565.772 Q220.084 565.772 217.762 564.611 Q215.465 563.449 214.007 560.658 Q211.735 556.483 211.735 548.479 M215.934 547.862 Q215.934 555.495 216.478 558.534 Q217.095 561.819 218.775 563.252 Q220.48 564.66 222.357 564.66 Q224.383 564.66 226.063 563.153 Q227.767 561.621 228.286 558.336 Q228.854 555.1 228.829 547.862 Q228.829 540.821 228.335 538.005 Q227.668 534.719 225.89 533.41 Q224.136 532.076 222.357 532.076 Q221.69 532.076 220.974 532.274 Q220.282 532.471 219.269 533.04 Q218.256 533.608 217.466 535.016 Q216.7 536.424 216.33 538.549 Q215.934 541.291 215.934 547.862 Z" fill="#000000" fill-rule="nonzero" fill-opacity="1" /><path clip-path="url(#clip500)" d="M156.053 378.835 Q156.35 379.131 156.35 379.551 Q156.35 379.971 156.053 380.268 Q155.757 380.564 155.337 380.564 L123.667 380.564 Q123.247 380.564 122.951 380.268 Q122.654 379.971 122.654 379.551 Q122.654 379.131 122.951 378.835 Q123.247 378.538 123.667 378.538 L155.337 378.538 Q155.757 378.538 156.053 378.835 Z" fill="#000000" fill-rule="nonzero" fill-opacity="1" /><path clip-path="url(#clip500)" d="M161.686 392.199 Q161.686 391.285 161.76 391.014 Q161.859 390.742 162.254 390.322 L171.962 379.502 Q177.274 373.524 177.274 368.311 Q177.274 364.927 175.495 362.506 Q173.741 360.085 170.505 360.085 Q168.282 360.085 166.404 361.444 Q164.527 362.802 163.662 365.223 Q163.81 365.174 164.329 365.174 Q165.589 365.174 166.281 365.964 Q166.997 366.755 166.997 367.817 Q166.997 369.176 166.108 369.843 Q165.243 370.485 164.378 370.485 Q164.033 370.485 163.563 370.411 Q163.119 370.337 162.402 369.645 Q161.686 368.929 161.686 367.669 Q161.686 364.136 164.354 361.32 Q167.046 358.504 171.147 358.504 Q175.791 358.504 178.83 361.271 Q181.893 364.013 181.893 368.311 Q181.893 369.818 181.424 371.201 Q180.979 372.56 180.361 373.622 Q179.769 374.685 178.138 376.389 Q176.508 378.094 175.198 379.304 Q173.889 380.515 170.95 383.084 L165.589 388.296 L174.704 388.296 Q179.151 388.296 179.497 387.901 Q179.991 387.185 180.609 383.405 L181.893 383.405 L180.46 392.199 L161.686 392.199 Z" fill="#000000" fill-rule="nonzero" fill-opacity="1" /><path clip-path="url(#clip500)" d="M186.587 384.566 Q186.587 378.909 193.874 375.253 Q190.737 373.128 190.169 372.511 Q187.945 370.04 187.945 366.952 Q187.945 363.42 190.613 360.974 Q193.306 358.504 197.11 358.504 Q200.742 358.504 203.484 360.604 Q206.226 362.704 206.226 366.038 Q206.226 370.732 200.099 373.894 Q204.151 376.414 205.114 377.476 Q207.585 380.218 207.585 383.701 Q207.585 387.753 204.472 390.544 Q201.359 393.311 197.061 393.311 Q192.861 393.311 189.724 390.865 Q186.587 388.42 186.587 384.566 M189.106 384.566 Q189.106 387.703 191.453 389.803 Q193.825 391.903 197.11 391.903 Q200.297 391.903 202.669 390.075 Q205.065 388.247 205.065 385.529 Q205.065 384.467 204.694 383.553 Q204.348 382.639 203.632 381.923 Q202.94 381.182 202.496 380.86 Q202.076 380.515 201.261 379.946 L195.035 376.019 Q189.106 379.304 189.106 384.566 M190.169 364.976 Q190.169 367.397 192.713 369.077 L198.988 373.128 Q204.003 370.189 204.003 366.038 Q204.003 363.346 201.952 361.567 Q199.902 359.764 197.061 359.764 Q194.269 359.764 192.219 361.246 Q190.169 362.704 190.169 364.976 Z" fill="#000000" fill-rule="nonzero" fill-opacity="1" /><path clip-path="url(#clip500)" d="M211.735 376.019 Q211.735 368.583 213.612 364.532 Q216.231 358.504 222.407 358.504 Q223.716 358.504 225.075 358.874 Q226.458 359.22 228.187 360.579 Q229.941 361.938 231.003 364.161 Q233.029 368.459 233.029 376.019 Q233.029 383.405 231.152 387.432 Q228.41 393.311 222.357 393.311 Q220.084 393.311 217.762 392.15 Q215.465 390.989 214.007 388.197 Q211.735 384.023 211.735 376.019 M215.934 375.401 Q215.934 383.034 216.478 386.073 Q217.095 389.358 218.775 390.791 Q220.48 392.199 222.357 392.199 Q224.383 392.199 226.063 390.692 Q227.767 389.161 228.286 385.875 Q228.854 382.639 228.829 375.401 Q228.829 368.361 228.335 365.544 Q227.668 362.259 225.89 360.95 Q224.136 359.616 222.357 359.616 Q221.69 359.616 220.974 359.813 Q220.282 360.011 219.269 360.579 Q218.256 361.147 217.466 362.555 Q216.7 363.963 216.33 366.088 Q215.934 368.83 215.934 375.401 Z" fill="#000000" fill-rule="nonzero" fill-opacity="1" /><path clip-path="url(#clip500)" d="M156.053 206.374 Q156.35 206.671 156.35 207.091 Q156.35 207.511 156.053 207.807 Q155.757 208.103 155.337 208.103 L123.667 208.103 Q123.247 208.103 122.951 207.807 Q122.654 207.511 122.654 207.091 Q122.654 206.671 122.951 206.374 Q123.247 206.078 123.667 206.078 L155.337 206.078 Q155.757 206.078 156.053 206.374 Z" fill="#000000" fill-rule="nonzero" fill-opacity="1" /><path clip-path="url(#clip500)" d="M161.686 219.739 Q161.686 218.825 161.76 218.553 Q161.859 218.281 162.254 217.861 L171.962 207.041 Q177.274 201.063 177.274 195.851 Q177.274 192.466 175.495 190.045 Q173.741 187.624 170.505 187.624 Q168.282 187.624 166.404 188.983 Q164.527 190.342 163.662 192.763 Q163.81 192.713 164.329 192.713 Q165.589 192.713 166.281 193.504 Q166.997 194.294 166.997 195.356 Q166.997 196.715 166.108 197.382 Q165.243 198.024 164.378 198.024 Q164.033 198.024 163.563 197.95 Q163.119 197.876 162.402 197.185 Q161.686 196.468 161.686 195.208 Q161.686 191.676 164.354 188.859 Q167.046 186.043 171.147 186.043 Q175.791 186.043 178.83 188.81 Q181.893 191.552 181.893 195.851 Q181.893 197.357 181.424 198.741 Q180.979 200.1 180.361 201.162 Q179.769 202.224 178.138 203.929 Q176.508 205.633 175.198 206.844 Q173.889 208.054 170.95 210.623 L165.589 215.836 L174.704 215.836 Q179.151 215.836 179.497 215.44 Q179.991 214.724 180.609 210.944 L181.893 210.944 L180.46 219.739 L161.686 219.739 Z" fill="#000000" fill-rule="nonzero" fill-opacity="1" /><path clip-path="url(#clip500)" d="M186.587 203.756 Q186.587 195.801 190.638 190.935 Q194.689 186.043 199.902 186.043 Q202.94 186.043 204.62 187.6 Q206.325 189.131 206.325 191.503 Q206.325 192.812 205.559 193.38 Q204.793 193.948 204.003 193.948 Q203.089 193.948 202.372 193.331 Q201.656 192.713 201.656 191.602 Q201.656 189.329 204.447 189.329 Q203.138 187.303 200.001 187.303 Q199.037 187.303 198.049 187.6 Q197.061 187.871 195.776 188.81 Q194.492 189.749 193.504 191.231 Q192.516 192.713 191.824 195.505 Q191.132 198.296 191.132 201.928 L191.132 203.138 Q193.207 198.123 197.456 198.148 Q201.705 198.148 204.645 201.384 Q207.585 204.62 207.585 209.413 Q207.585 214.329 204.521 217.589 Q201.458 220.85 197.16 220.85 Q195.233 220.85 193.479 220.035 Q191.75 219.245 190.119 217.417 Q188.514 215.589 187.55 212.081 Q186.587 208.573 186.587 203.756 M191.231 208.301 Q191.231 213.266 192.145 215.638 Q192.293 216.033 192.614 216.577 Q192.96 217.12 193.528 217.837 Q194.121 218.528 195.085 218.998 Q196.048 219.442 197.16 219.442 Q200.544 219.442 202.175 216.157 Q203.039 214.329 203.039 209.363 Q203.039 204.299 202.125 202.446 Q200.569 199.309 197.407 199.309 Q195.282 199.309 193.8 200.766 Q192.343 202.224 191.774 204.176 Q191.231 206.127 191.231 208.301 Z" fill="#000000" fill-rule="nonzero" fill-opacity="1" /><path clip-path="url(#clip500)" d="M211.735 203.558 Q211.735 196.122 213.612 192.071 Q216.231 186.043 222.407 186.043 Q223.716 186.043 225.075 186.414 Q226.458 186.76 228.187 188.118 Q229.941 189.477 231.003 191.7 Q233.029 195.999 233.029 203.558 Q233.029 210.944 231.152 214.971 Q228.41 220.85 222.357 220.85 Q220.084 220.85 217.762 219.689 Q215.465 218.528 214.007 215.737 Q211.735 211.562 211.735 203.558 M215.934 202.94 Q215.934 210.574 216.478 213.612 Q217.095 216.898 218.775 218.331 Q220.48 219.739 222.357 219.739 Q224.383 219.739 226.063 218.232 Q227.767 216.7 228.286 213.415 Q228.854 210.178 228.829 202.94 Q228.829 195.9 228.335 193.084 Q227.668 189.798 225.89 188.489 Q224.136 187.155 222.357 187.155 Q221.69 187.155 220.974 187.353 Q220.282 187.55 219.269 188.118 Q218.256 188.687 217.466 190.095 Q216.7 191.503 216.33 193.627 Q215.934 196.369 215.934 202.94 Z" fill="#000000" fill-rule="nonzero" fill-opacity="1" /><path clip-path="url(#clip500)" d="M55.9449 628.163 L40.32 626.838 L40.32 584.345 L55.9449 583.021 L55.9449 584.753 Q52.8199 585.025 51.0197 585.296 Q49.2194 585.534 47.521 586.146 Q45.7887 586.723 44.9735 587.47 Q44.1243 588.184 43.479 589.576 Q42.7996 590.969 42.6298 592.769 Q42.4599 594.569 42.4599 597.287 Q42.4599 600.48 42.5958 601.261 Q42.7996 602.11 43.411 602.314 Q43.9885 602.518 45.2452 602.518 L81.8958 602.518 Q83.2884 602.518 83.8659 602.246 Q84.4093 601.94 84.8509 600.344 Q85.2585 598.747 85.2585 595.215 L85.2585 592.429 L87.3984 592.429 Q87.1946 595.283 87.1946 605.643 Q87.1946 615.935 87.3984 618.788 L85.2585 618.788 L85.2585 616.003 Q85.2585 612.47 84.8509 610.874 Q84.4093 609.243 83.8659 608.971 Q83.2884 608.7 81.8958 608.7 L45.2452 608.7 Q44.2602 608.7 43.8526 608.768 Q43.445 608.836 43.1053 609.141 Q42.7317 609.447 42.5958 610.16 Q42.4599 610.84 42.4599 613.897 Q42.4599 616.614 42.6298 618.448 Q42.7996 620.248 43.479 621.641 Q44.1243 623.034 44.9735 623.781 Q45.7887 624.494 47.521 625.106 Q49.2194 625.683 51.0197 625.921 Q52.8199 626.159 55.9449 626.431 L55.9449 628.163 Z" fill="#000000" fill-rule="nonzero" fill-opacity="1" /><path clip-path="url(#clip500)" d="M83.6621 579.726 Q79.1105 584.311 72.5208 584.311 Q65.8973 584.311 61.0739 579.828 Q56.2166 575.31 56.2166 568.856 Q56.2166 562.538 61.04 558.021 Q65.8293 553.469 72.5208 553.469 Q79.0765 553.469 83.6281 558.055 Q88.1797 562.606 88.1797 568.924 Q88.1797 575.106 83.6621 579.726 M71.9434 578.537 Q78.7029 578.537 81.7599 576.771 Q86.4134 574.053 86.4134 568.856 Q86.4134 566.275 85.0207 564.135 Q83.6281 561.961 81.2844 560.772 Q78.2273 559.244 71.9434 559.244 Q65.2519 559.244 62.2967 561.078 Q57.7791 563.795 57.7791 568.924 Q57.7791 571.166 58.968 573.374 Q60.1228 575.548 62.4326 576.872 Q65.4897 578.537 71.9434 578.537 Z" fill="#000000" fill-rule="nonzero" fill-opacity="1" /><path clip-path="url(#clip500)" d="M59.5794 550.14 L58.0509 550.14 Q57.915 546.947 55.6732 544.841 Q53.3974 542.702 50.6121 541.988 Q47.8267 541.241 44.5999 541.173 L44.5999 539.441 L57.4055 539.441 L57.4055 529.488 L59.5794 529.488 L59.5794 539.441 L78.9067 539.441 Q86.4134 539.441 86.4134 534.753 Q86.4134 532.749 84.3754 531.424 Q82.3034 530.1 78.6349 530.1 L74.7966 530.1 L74.7966 528.367 L78.7708 528.367 Q82.5411 528.367 85.3604 530.1 Q88.1797 531.832 88.1797 535.263 Q88.1797 536.52 87.84 537.776 Q87.5343 538.999 86.7191 540.63 Q85.8699 542.226 83.8319 543.245 Q81.7599 544.23 78.7708 544.23 L59.5794 544.23 L59.5794 550.14 Z" fill="#000000" fill-rule="nonzero" fill-opacity="1" /><path clip-path="url(#clip500)" d="M80.7749 521.574 Q74.8646 521.574 71.7396 514.611 Q69.7355 510.433 69.226 501.805 L66.6785 501.805 Q62.3647 501.805 60.0889 504.081 Q57.7791 506.323 57.7791 509.176 Q57.7791 514.271 60.972 516.717 Q61.04 514.645 62.0929 513.897 Q63.112 513.15 64.1649 513.15 Q65.5576 513.15 66.4747 514.033 Q67.3578 514.882 67.3578 516.343 Q67.3578 517.736 66.5087 518.653 Q65.6255 519.57 64.097 519.57 Q60.7003 519.57 58.4585 516.513 Q56.2166 513.422 56.2166 509.04 Q56.2166 503.334 60.0549 499.529 Q61.2438 498.34 62.7723 497.763 Q64.3008 497.152 65.3198 497.084 Q66.3049 497.016 68.275 497.016 L82.1675 497.016 Q82.5751 497.016 83.2545 496.88 Q83.9338 496.744 84.8169 496.133 Q85.6661 495.487 85.6661 494.434 Q85.6661 491.921 81.2164 491.955 L77.3102 491.955 L77.3102 490.188 L81.2164 490.188 Q84.9188 490.188 86.3794 492.158 Q87.806 494.095 87.806 495.895 Q87.806 498.205 86.1077 499.665 Q84.4093 501.126 82.0996 501.33 Q84.749 502.383 86.4813 504.794 Q88.1797 507.172 88.1797 510.433 Q88.1797 512.946 87.5343 515.324 Q86.9229 517.668 85.1906 519.638 Q83.4243 521.574 80.7749 521.574 M80.7069 516.207 Q83.2884 516.207 84.9528 514.373 Q86.6172 512.539 86.6172 509.957 Q86.6172 507.036 84.3754 504.421 Q82.0996 501.805 77.6499 501.805 L70.6866 501.805 Q70.9584 509.516 74.0494 512.878 Q77.1064 516.207 80.7069 516.207 Z" fill="#000000" fill-rule="nonzero" fill-opacity="1" /><path clip-path="url(#clip500)" d="M87.3984 487.403 L85.2585 487.403 Q85.2585 483.701 84.8169 482.851 Q84.3414 482.002 82.0996 482.002 L45.9246 482.002 Q43.3431 482.002 42.6977 482.919 Q42.0523 483.803 42.0523 487.403 L39.8784 487.403 L39.1312 477.417 L82.0996 477.417 Q84.3414 477.417 84.8169 476.534 Q85.2585 475.65 85.2585 471.982 L87.3984 471.982 Q87.3984 472.831 87.3305 474.597 Q87.2626 476.364 87.2286 477.655 Q87.1946 478.945 87.1946 479.693 Q87.1946 480.508 87.3984 487.403 Z" fill="#000000" fill-rule="nonzero" fill-opacity="1" /><path clip-path="url(#clip500)" d="M87.3984 445.386 L85.2585 445.386 Q85.2585 441.683 84.8169 440.834 Q84.3414 439.951 82.0996 439.951 L63.4516 439.951 Q60.8701 439.951 60.2247 440.868 Q59.5794 441.751 59.5794 445.386 L57.4055 445.386 L56.6582 435.705 L64.3008 435.705 Q61.3117 434.72 59.0019 432.648 Q56.6582 430.542 56.6582 427.145 Q56.6582 424.904 57.915 423.477 Q59.1718 422.016 60.9041 422.016 Q62.4326 422.016 63.2139 422.967 Q63.9611 423.885 63.9611 425.005 Q63.9611 426.262 63.1799 427.145 Q62.3647 427.995 60.972 427.995 Q60.1228 427.995 59.4775 427.621 Q58.7981 427.213 58.5604 426.908 Q58.3226 426.602 58.2547 426.398 Q58.1867 426.534 58.1867 427.145 Q58.1867 430.984 62.025 433.192 Q65.8293 435.365 71.2641 435.365 L81.9637 435.365 Q83.9678 435.365 84.6131 434.55 Q85.2585 433.701 85.2585 430.067 L85.2585 428.606 L87.3984 428.606 Q87.1946 431.391 87.1946 437.437 Q87.1946 438.287 87.2286 439.611 Q87.2626 440.936 87.3305 442.668 Q87.3984 444.401 87.3984 445.386 Z" fill="#000000" fill-rule="nonzero" fill-opacity="1" /><path clip-path="url(#clip500)" d="M72.0793 418.212 Q65.5236 418.212 60.8701 414 Q56.2166 409.788 56.2166 403.742 Q56.2166 397.628 60.1908 394.469 Q64.1649 391.276 69.8714 391.276 Q70.9244 391.276 71.1282 391.548 Q71.332 391.82 71.332 393.008 L71.332 412.438 Q78.4311 412.438 81.7599 410.332 Q86.4134 407.411 86.4134 402.485 Q86.4134 401.806 86.2775 400.991 Q86.1417 400.176 85.5642 398.511 Q84.9528 396.847 83.3564 395.386 Q81.7599 393.926 79.2463 393.076 Q78.2613 392.873 78.2953 392.193 Q78.2953 391.276 79.1105 391.276 Q79.7219 391.276 81.1145 391.955 Q82.4732 392.601 84.1036 393.858 Q85.7341 395.114 86.9569 397.56 Q88.1797 399.972 88.1797 402.893 Q88.1797 409.007 83.5602 413.627 Q78.9067 418.212 72.0793 418.212 M69.8714 412.37 L69.8714 395.862 Q68.4108 395.862 66.7804 396.133 Q65.15 396.371 62.9082 397.118 Q60.6324 397.832 59.2057 399.53 Q57.7791 401.229 57.7791 403.742 Q57.7791 404.863 58.2547 406.086 Q58.7302 407.275 59.8851 408.735 Q61.04 410.196 63.6554 411.215 Q66.2709 412.234 69.8714 412.37 Z" fill="#000000" fill-rule="nonzero" fill-opacity="1" /><path clip-path="url(#clip500)" d="M59.5794 388.015 L57.4055 388.015 Q57.6093 384.245 57.6093 381.562 Q57.6093 380.237 57.4055 373.953 L59.5794 373.953 Q59.5794 378.063 61.4476 378.063 Q61.8552 378.063 62.7043 377.723 L81.2844 371.1 L64.4367 365.121 Q61.04 366.378 60.6324 366.718 Q59.5794 367.567 59.5794 371.1 L57.4055 371.1 Q57.6093 367.975 57.6093 364.918 Q57.6093 363.729 57.4055 357.683 L59.5794 357.683 Q59.5794 361.793 61.4476 361.793 Q61.7193 361.793 62.7723 361.453 L82.1675 354.558 L64.3687 348.24 Q63.4516 347.9 62.9082 347.866 Q61.3796 347.866 60.5305 348.953 Q59.6473 350.04 59.5794 351.908 L57.4055 351.908 Q57.6093 347.934 57.6093 345.454 Q57.6093 342.669 57.4055 340.359 L59.5794 340.359 Q59.7152 344.673 64.0291 346.202 L86.855 354.354 Q88.1118 355.135 88.1797 355.747 Q88.1797 356.664 86.855 357.139 L67.0861 364.238 L86.787 371.27 Q87.6362 371.541 87.9079 371.779 Q88.1797 372.017 88.1797 372.662 Q88.1797 373.274 87.806 373.545 Q87.4664 373.817 86.6172 374.123 L61.991 382.886 Q60.3946 383.498 59.987 384.415 Q59.5794 385.298 59.5794 388.015 Z" fill="#000000" fill-rule="nonzero" fill-opacity="1" /><path clip-path="url(#clip500)" d="M80.7749 338.084 Q74.8646 338.084 71.7396 331.12 Q69.7355 326.942 69.226 318.315 L66.6785 318.315 Q62.3647 318.315 60.0889 320.591 Q57.7791 322.832 57.7791 325.686 Q57.7791 330.781 60.972 333.226 Q61.04 331.154 62.0929 330.407 Q63.112 329.66 64.1649 329.66 Q65.5576 329.66 66.4747 330.543 Q67.3578 331.392 67.3578 332.853 Q67.3578 334.245 66.5087 335.162 Q65.6255 336.08 64.097 336.08 Q60.7003 336.08 58.4585 333.023 Q56.2166 329.932 56.2166 325.55 Q56.2166 319.843 60.0549 316.039 Q61.2438 314.85 62.7723 314.273 Q64.3008 313.661 65.3198 313.593 Q66.3049 313.525 68.275 313.525 L82.1675 313.525 Q82.5751 313.525 83.2545 313.39 Q83.9338 313.254 84.8169 312.642 Q85.6661 311.997 85.6661 310.944 Q85.6661 308.43 81.2164 308.464 L77.3102 308.464 L77.3102 306.698 L81.2164 306.698 Q84.9188 306.698 86.3794 308.668 Q87.806 310.604 87.806 312.404 Q87.806 314.714 86.1077 316.175 Q84.4093 317.635 82.0996 317.839 Q84.749 318.892 86.4813 321.304 Q88.1797 323.682 88.1797 326.942 Q88.1797 329.456 87.5343 331.834 Q86.9229 334.177 85.1906 336.148 Q83.4243 338.084 80.7749 338.084 M80.7069 332.717 Q83.2884 332.717 84.9528 330.883 Q86.6172 329.048 86.6172 326.467 Q86.6172 323.546 84.3754 320.93 Q82.0996 318.315 77.6499 318.315 L70.6866 318.315 Q70.9584 326.025 74.0494 329.388 Q77.1064 332.717 80.7069 332.717 Z" fill="#000000" fill-rule="nonzero" fill-opacity="1" /><path clip-path="url(#clip500)" d="M87.3984 304.286 L85.2585 304.286 Q85.2585 300.584 84.8169 299.735 Q84.3414 298.852 82.0996 298.852 L63.4516 298.852 Q60.8701 298.852 60.2247 299.769 Q59.5794 300.652 59.5794 304.286 L57.4055 304.286 L56.6582 294.606 L64.3008 294.606 Q61.3117 293.621 59.0019 291.549 Q56.6582 289.443 56.6582 286.046 Q56.6582 283.804 57.915 282.378 Q59.1718 280.917 60.9041 280.917 Q62.4326 280.917 63.2139 281.868 Q63.9611 282.785 63.9611 283.906 Q63.9611 285.163 63.1799 286.046 Q62.3647 286.895 60.972 286.895 Q60.1228 286.895 59.4775 286.522 Q58.7981 286.114 58.5604 285.808 Q58.3226 285.503 58.2547 285.299 Q58.1867 285.435 58.1867 286.046 Q58.1867 289.884 62.025 292.092 Q65.8293 294.266 71.2641 294.266 L81.9637 294.266 Q83.9678 294.266 84.6131 293.451 Q85.2585 292.602 85.2585 288.967 L85.2585 287.507 L87.3984 287.507 Q87.1946 290.292 87.1946 296.338 Q87.1946 297.187 87.2286 298.512 Q87.2626 299.837 87.3305 301.569 Q87.3984 303.301 87.3984 304.286 Z" fill="#000000" fill-rule="nonzero" fill-opacity="1" /><path clip-path="url(#clip500)" d="M72.4529 276.671 Q65.8293 276.671 61.2438 272.052 Q56.6582 267.432 56.6582 261.182 Q56.6582 255.883 60.972 252.419 L45.9246 252.419 Q43.3431 252.419 42.6977 253.336 Q42.0523 254.219 42.0523 257.819 L39.8784 257.819 L39.1312 247.799 L81.3523 247.799 Q83.9338 247.799 84.6131 246.916 Q85.2585 245.999 85.2585 242.398 L87.3984 242.398 L88.1797 252.622 L83.5602 252.622 Q88.1457 256.223 88.1797 261.929 Q88.1797 267.908 83.5941 272.289 Q79.0086 276.671 72.4529 276.671 M72.5208 270.897 Q78.9746 270.897 82.1675 268.893 Q86.6172 266.107 86.6172 261.59 Q86.6172 256.427 81.7599 253.37 Q80.5711 252.588 79.1784 252.622 L64.9122 252.622 Q63.5196 252.622 62.3647 253.37 Q58.1867 256.223 58.1867 260.876 Q58.1867 265.734 62.6364 268.757 Q65.9652 270.897 72.5208 270.897 Z" fill="#000000" fill-rule="nonzero" fill-opacity="1" /><polyline clip-path="url(#clip502)" style="stroke:#27ae60; stroke-linecap:round; stroke-linejoin:round; stroke-width:4; stroke-opacity:1; fill:none" points="285.125,564.554 630.637,347.679 976.148,413.731 1321.66,309.584 "/>
<circle clip-path="url(#clip502)" cx="285.125" cy="564.554" r="14.4" fill="#27ae60" fill-rule="evenodd" fill-opacity="1" stroke="none"/>
<circle clip-path="url(#clip502)" cx="630.637" cy="347.679" r="14.4" fill="#27ae60" fill-rule="evenodd" fill-opacity="1" stroke="none"/>
<circle clip-path="url(#clip502)" cx="976.148" cy="413.731" r="14.4" fill="#27ae60" fill-rule="evenodd" fill-opacity="1" stroke="none"/>
<circle clip-path="url(#clip502)" cx="1321.66" cy="309.584" r="14.4" fill="#27ae60" fill-rule="evenodd" fill-opacity="1" stroke="none"/>
</svg>
