<?xml version="1.0" encoding="utf-8"?>
<svg xmlns="http://www.w3.org/2000/svg" xmlns:xlink="http://www.w3.org/1999/xlink" width="350" height="250" viewBox="0 0 1400 1000">
<defs>
  <clipPath id="clip590">
    <rect x="0" y="0" width="1400" height="1000"/>
  </clipPath>
</defs>
<path clip-path="url(#clip590)" d="M0 1000 L1400 1000 L1400 0 L0 0  Z" fill="#ffffff" fill-rule="evenodd" fill-opacity="1"/>
<defs>
  <clipPath id="clip591">
    <rect x="280" y="0" width="981" height="981"/>
  </clipPath>
</defs>
<path clip-path="url(#clip590)" d="M228.733 823.317 L1352.76 823.317 L1352.76 176.793 L228.733 176.793  Z" fill="#ffffff" fill-rule="evenodd" fill-opacity="1"/>
<defs>
  <clipPath id="clip592">
    <rect x="228" y="176" width="1125" height="648"/>
  </clipPath>
</defs>
<polyline clip-path="url(#clip592)" style="stroke:#000000; stroke-linecap:round; stroke-linejoin:round; stroke-width:2; stroke-opacity:0.1; fill:none" points="1240.35,823.317 1240.35,176.793 "/>
<polyline clip-path="url(#clip592)" style="stroke:#000000; stroke-linecap:round; stroke-linejoin:round; stroke-width:2; stroke-opacity:0.1; fill:none" points="1127.95,823.317 1127.95,176.793 "/>
<polyline clip-path="url(#clip592)" style="stroke:#000000; stroke-linecap:round; stroke-linejoin:round; stroke-width:2; stroke-opacity:0.1; fill:none" points="1015.55,823.317 1015.55,176.793 "/>
<polyline clip-path="url(#clip592)" style="stroke:#000000; stroke-linecap:round; stroke-linejoin:round; stroke-width:2; stroke-opacity:0.1; fill:none" points="903.147,823.317 903.147,176.793 "/>
<polyline clip-path="url(#clip592)" style="stroke:#000000; stroke-linecap:round; stroke-linejoin:round; stroke-width:2; stroke-opacity:0.1; fill:none" points="790.744,823.317 790.744,176.793 "/>
<polyline clip-path="url(#clip592)" style="stroke:#000000; stroke-linecap:round; stroke-linejoin:round; stroke-width:2; stroke-opacity:0.1; fill:none" points="678.342,823.317 678.342,176.793 "/>
<polyline clip-path="url(#clip592)" style="stroke:#000000; stroke-linecap:round; stroke-linejoin:round; stroke-width:2; stroke-opacity:0.1; fill:none" points="565.94,823.317 565.94,176.793 "/>
<polyline clip-path="url(#clip592)" style="stroke:#000000; stroke-linecap:round; stroke-linejoin:round; stroke-width:2; stroke-opacity:0.1; fill:none" points="453.537,823.317 453.537,176.793 "/>
<polyline clip-path="url(#clip592)" style="stroke:#000000; stroke-linecap:round; stroke-linejoin:round; stroke-width:2; stroke-opacity:0.1; fill:none" points="341.135,823.317 341.135,176.793 "/>
<polyline clip-path="url(#clip590)" style="stroke:#000000; stroke-linecap:round; stroke-linejoin:round; stroke-width:4; stroke-opacity:1; fill:none" points="1352.76,823.317 228.733,823.317 "/>
<polyline clip-path="url(#clip590)" style="stroke:#000000; stroke-linecap:round; stroke-linejoin:round; stroke-width:4; stroke-opacity:1; fill:none" points="1240.35,823.317 1240.35,807.574 "/>
<polyline clip-path="url(#clip590)" style="stroke:#000000; stroke-linecap:round; stroke-linejoin:round; stroke-width:4; stroke-opacity:1; fill:none" points="1127.95,823.317 1127.95,807.574 "/>
<polyline clip-path="url(#clip590)" style="stroke:#000000; stroke-linecap:round; stroke-linejoin:round; stroke-width:4; stroke-opacity:1; fill:none" points="1015.55,823.317 1015.55,807.574 "/>
<polyline clip-path="url(#clip590)" style="stroke:#000000; stroke-linecap:round; stroke-linejoin:round; stroke-width:4; stroke-opacity:1; fill:none" points="903.147,823.317 903.147,807.574 "/>
<polyline clip-path="url(#clip590)" style="stroke:#000000; stroke-linecap:round; stroke-linejoin:round; stroke-width:4; stroke-opacity:1; fill:none" points="790.744,823.317 790.744,807.574 "/>
<polyline clip-path="url(#clip590)" style="stroke:#000000; stroke-linecap:round; stroke-linejoin:round; stroke-width:4; stroke-opacity:1; fill:none" points="678.342,823.317 678.342,807.574 "/>
<polyline clip-path="url(#clip590)" style="stroke:#000000; stroke-linecap:round; stroke-linejoin:round; stroke-width:4; stroke-opacity:1; fill:none" points="565.94,823.317 565.94,807.574 "/>
<polyline clip-path="url(#clip590)" style="stroke:#000000; stroke-linecap:round; stroke-linejoin:round; stroke-width:4; stroke-opacity:1; fill:none" points="453.537,823.317 453.537,807.574 "/>
<polyline clip-path="url(#clip590)" style="stroke:#000000; stroke-linecap:round; stroke-linejoin:round; stroke-width:4; stroke-opacity:1; fill:none" points="341.135,823.317 341.135,807.574 "/>
<path clip-path="url(#clip590)" d="M1232 848.839 L1232 847.258 Q1238.08 847.258 1241.22 844.022 Q1242.08 844.022 1242.23 844.219 Q1242.38 844.417 1242.38 845.331 L1242.38 873.715 Q1242.38 875.222 1243.12 875.691 Q1243.86 876.161 1247.1 876.161 L1248.7 876.161 L1248.7 877.717 Q1246.92 877.569 1240.5 877.569 Q1234.08 877.569 1232.33 877.717 L1232.33 876.161 L1233.93 876.161 Q1237.12 876.161 1237.88 875.716 Q1238.65 875.247 1238.65 873.715 L1238.65 847.505 Q1236.01 848.839 1232 848.839 Z" fill="#000000" fill-rule="nonzero" fill-opacity="1" /><path clip-path="url(#clip590)" d="M1117.85 877.717 Q1117.85 876.803 1117.92 876.531 Q1118.02 876.259 1118.42 875.84 L1128.12 865.019 Q1133.44 859.041 1133.44 853.829 Q1133.44 850.444 1131.66 848.024 Q1129.9 845.603 1126.67 845.603 Q1124.44 845.603 1122.57 846.961 Q1120.69 848.32 1119.82 850.741 Q1119.97 850.692 1120.49 850.692 Q1121.75 850.692 1122.44 851.482 Q1123.16 852.273 1123.16 853.335 Q1123.16 854.693 1122.27 855.36 Q1121.4 856.003 1120.54 856.003 Q1120.19 856.003 1119.73 855.929 Q1119.28 855.855 1118.56 855.163 Q1117.85 854.446 1117.85 853.187 Q1117.85 849.654 1120.52 846.838 Q1123.21 844.022 1127.31 844.022 Q1131.95 844.022 1134.99 846.788 Q1138.05 849.53 1138.05 853.829 Q1138.05 855.336 1137.59 856.719 Q1137.14 858.078 1136.52 859.14 Q1135.93 860.202 1134.3 861.907 Q1132.67 863.611 1131.36 864.822 Q1130.05 866.032 1127.11 868.601 L1121.75 873.814 L1130.87 873.814 Q1135.31 873.814 1135.66 873.419 Q1136.15 872.702 1136.77 868.923 L1138.05 868.923 L1136.62 877.717 L1117.85 877.717 Z" fill="#000000" fill-rule="nonzero" fill-opacity="1" /><path clip-path="url(#clip590)" d="M1005.05 870.899 Q1005.05 869.392 1005.91 868.676 Q1006.78 867.959 1007.89 867.959 Q1009.05 867.959 1009.87 868.725 Q1010.71 869.466 1010.71 870.775 Q1010.71 872.183 1009.72 872.974 Q1008.76 873.764 1007.37 873.567 Q1008.58 875.592 1010.81 876.507 Q1013.05 877.421 1015.13 877.421 Q1017.3 877.421 1019.06 875.543 Q1020.84 873.666 1020.84 869.071 Q1020.84 865.168 1019.3 862.92 Q1017.8 860.672 1014.81 860.672 L1012.58 860.672 Q1011.82 860.672 1011.6 860.598 Q1011.37 860.523 1011.37 860.103 Q1011.37 859.609 1012.14 859.511 Q1012.91 859.511 1014.12 859.362 Q1017.06 859.264 1018.61 856.719 Q1020.02 854.348 1020.02 850.963 Q1020.02 847.875 1018.54 846.591 Q1017.08 845.281 1015.18 845.281 Q1013.4 845.281 1011.45 846.023 Q1009.5 846.764 1008.43 848.419 Q1011.57 848.419 1011.57 850.963 Q1011.57 852.075 1010.86 852.816 Q1010.16 853.532 1009 853.532 Q1007.89 853.532 1007.15 852.841 Q1006.41 852.124 1006.41 850.914 Q1006.41 848.024 1008.98 846.023 Q1011.57 844.022 1015.38 844.022 Q1019.13 844.022 1021.9 845.998 Q1024.69 847.974 1024.69 851.013 Q1024.69 854.002 1022.71 856.447 Q1020.74 858.893 1017.6 859.906 Q1021.45 860.672 1023.75 863.29 Q1026.05 865.884 1026.05 869.071 Q1026.05 873.023 1022.94 875.938 Q1019.82 878.829 1015.28 878.829 Q1011.08 878.829 1008.06 876.556 Q1005.05 874.283 1005.05 870.899 Z" fill="#000000" fill-rule="nonzero" fill-opacity="1" /><path clip-path="url(#clip590)" d="M891.931 869.367 L891.931 867.811 L907.47 844.071 Q907.865 843.453 908.483 843.478 Q909.051 843.478 909.174 843.7 Q909.298 843.923 909.298 844.787 L909.298 867.811 L914.362 867.811 L914.362 869.367 L909.298 869.367 L909.298 873.764 Q909.298 875.222 909.891 875.691 Q910.508 876.161 913.127 876.161 L914.189 876.161 L914.189 877.717 Q912.114 877.569 907.322 877.569 Q902.554 877.569 900.479 877.717 L900.479 876.161 L901.541 876.161 Q904.16 876.161 904.777 875.716 Q905.395 875.247 905.395 873.764 L905.395 869.367 L891.931 869.367 M893.364 867.811 L905.691 867.811 L905.691 848.938 L893.364 867.811 Z" fill="#000000" fill-rule="nonzero" fill-opacity="1" /><path clip-path="url(#clip590)" d="M780.641 869.565 Q780.641 868.058 781.456 867.49 Q782.271 866.897 783.136 866.897 Q784.297 866.897 784.964 867.638 Q785.655 868.354 785.655 869.367 Q785.655 870.38 784.964 871.121 Q784.297 871.838 783.136 871.838 Q782.568 871.838 782.271 871.739 Q782.938 874.061 784.964 875.741 Q787.014 877.421 789.707 877.421 Q793.091 877.421 795.117 874.135 Q796.327 872.011 796.327 867.193 Q796.327 862.944 795.413 860.82 Q794.005 857.584 791.115 857.584 Q787.014 857.584 784.593 861.116 Q784.297 861.561 783.951 861.586 Q783.457 861.586 783.333 861.314 Q783.235 861.018 783.235 860.252 L783.235 845.281 Q783.235 844.071 783.729 844.071 Q783.926 844.071 784.346 844.219 Q787.533 845.627 791.066 845.652 Q794.697 845.652 797.958 844.17 Q798.205 844.022 798.353 844.022 Q798.847 844.022 798.872 844.59 Q798.872 844.787 798.452 845.38 Q798.057 845.948 797.192 846.714 Q796.327 847.455 795.216 848.172 Q794.104 848.888 792.474 849.382 Q790.868 849.852 789.089 849.852 Q786.965 849.852 784.791 849.185 L784.791 859.041 Q787.409 856.472 791.214 856.472 Q795.265 856.472 798.057 859.733 Q800.848 862.994 800.848 867.539 Q800.848 872.307 797.538 875.568 Q794.252 878.829 789.806 878.829 Q785.754 878.829 783.185 875.938 Q780.641 873.048 780.641 869.565 Z" fill="#000000" fill-rule="nonzero" fill-opacity="1" /><path clip-path="url(#clip590)" d="M667.843 861.734 Q667.843 853.779 671.894 848.913 Q675.946 844.022 681.158 844.022 Q684.197 844.022 685.877 845.578 Q687.581 847.11 687.581 849.481 Q687.581 850.79 686.815 851.359 Q686.049 851.927 685.259 851.927 Q684.345 851.927 683.629 851.309 Q682.912 850.692 682.912 849.58 Q682.912 847.307 685.704 847.307 Q684.394 845.281 681.257 845.281 Q680.294 845.281 679.305 845.578 Q678.317 845.85 677.033 846.788 Q675.748 847.727 674.76 849.209 Q673.772 850.692 673.08 853.483 Q672.389 856.274 672.389 859.906 L672.389 861.116 Q674.464 856.102 678.713 856.126 Q682.962 856.126 685.901 859.362 Q688.841 862.599 688.841 867.391 Q688.841 872.307 685.778 875.568 Q682.715 878.829 678.416 878.829 Q676.489 878.829 674.735 878.013 Q673.006 877.223 671.376 875.395 Q669.77 873.567 668.807 870.059 Q667.843 866.551 667.843 861.734 M672.487 866.279 Q672.487 871.245 673.401 873.616 Q673.55 874.011 673.871 874.555 Q674.217 875.098 674.785 875.815 Q675.378 876.507 676.341 876.976 Q677.305 877.421 678.416 877.421 Q681.801 877.421 683.431 874.135 Q684.296 872.307 684.296 867.342 Q684.296 862.277 683.382 860.425 Q681.825 857.287 678.663 857.287 Q676.539 857.287 675.057 858.745 Q673.599 860.202 673.031 862.154 Q672.487 864.105 672.487 866.279 Z" fill="#000000" fill-rule="nonzero" fill-opacity="1" /><path clip-path="url(#clip590)" d="M555.095 853.928 L556.75 843.528 L558.01 843.528 Q558.158 844.145 558.405 844.417 Q558.677 844.689 560.11 844.911 Q561.567 845.133 564.507 845.133 L576.785 845.133 Q576.785 846.294 576.34 846.912 L569.497 856.522 Q567.323 859.56 566.36 865.168 Q565.792 868.923 565.816 873.468 L565.816 876.037 Q565.816 878.829 563.469 878.829 Q561.147 878.829 561.147 876.037 Q561.147 866.378 567.373 857.016 Q568.04 856.052 570.485 852.618 Q572.955 849.185 573.054 849.036 L562.58 849.036 Q557.985 849.036 557.615 849.333 Q557.121 849.777 556.355 853.928 L555.095 853.928 Z" fill="#000000" fill-rule="nonzero" fill-opacity="1" /><path clip-path="url(#clip590)" d="M443.039 870.084 Q443.039 864.427 450.326 860.77 Q447.189 858.646 446.62 858.028 Q444.397 855.558 444.397 852.47 Q444.397 848.938 447.065 846.492 Q449.758 844.022 453.562 844.022 Q457.194 844.022 459.936 846.121 Q462.678 848.221 462.678 851.556 Q462.678 856.25 456.551 859.412 Q460.603 861.932 461.566 862.994 Q464.036 865.736 464.036 869.219 Q464.036 873.27 460.924 876.062 Q457.811 878.829 453.513 878.829 Q449.313 878.829 446.176 876.383 Q443.039 873.937 443.039 870.084 M445.558 870.084 Q445.558 873.221 447.905 875.321 Q450.277 877.421 453.562 877.421 Q456.749 877.421 459.12 875.592 Q461.517 873.764 461.517 871.047 Q461.517 869.985 461.146 869.071 Q460.8 868.157 460.084 867.44 Q459.392 866.699 458.947 866.378 Q458.528 866.032 457.712 865.464 L451.487 861.536 Q445.558 864.822 445.558 870.084 M446.62 850.494 Q446.62 852.915 449.165 854.595 L455.44 858.646 Q460.454 855.706 460.454 851.556 Q460.454 848.863 458.404 847.085 Q456.354 845.281 453.513 845.281 Q450.721 845.281 448.671 846.764 Q446.62 848.221 446.62 850.494 Z" fill="#000000" fill-rule="nonzero" fill-opacity="1" /><path clip-path="url(#clip590)" d="M330.636 855.41 Q330.636 852.717 331.427 850.889 Q332.217 849.036 333.872 847.208 Q336.911 844.022 341.308 844.022 Q343.186 844.022 344.841 844.812 Q346.52 845.603 348.101 847.406 Q349.707 849.185 350.671 852.717 Q351.634 856.225 351.634 861.067 Q351.634 868.898 347.83 873.863 Q344.05 878.829 338.937 878.829 Q335.7 878.829 333.798 877.371 Q331.896 875.889 331.896 873.369 Q331.896 872.06 332.637 871.516 Q333.378 870.948 334.218 870.948 Q335.132 870.948 335.849 871.566 Q336.565 872.159 336.565 873.27 Q336.565 874.184 335.972 874.901 Q335.404 875.592 333.922 875.592 Q335.379 877.421 338.887 877.421 Q340.147 877.421 341.407 876.852 Q342.667 876.259 344.025 874.851 Q345.409 873.419 346.249 870.429 Q347.089 867.44 347.089 863.241 L347.089 861.635 Q345.063 866.699 340.765 866.699 Q336.516 866.699 333.576 863.438 Q330.636 860.178 330.636 855.41 M335.182 855.459 Q335.182 860.474 336.096 862.327 Q337.652 865.514 340.814 865.514 Q343.902 865.514 345.434 862.771 Q346.99 860.005 346.99 856.423 Q346.99 851.457 346.175 849.283 Q344.668 845.281 341.308 845.281 Q337.973 845.281 336.244 848.468 Q335.182 850.346 335.182 855.459 Z" fill="#000000" fill-rule="nonzero" fill-opacity="1" /><path clip-path="url(#clip590)" d="M611.092 929.404 Q611.092 918.908 618.259 911.537 Q625.426 904.132 635.277 904.132 Q638.334 904.132 641.051 905.253 Q643.769 906.374 645.025 907.359 Q646.282 908.31 648.082 910.111 L651.581 904.982 Q652.125 904.132 652.668 904.132 Q653.245 904.132 653.347 904.472 Q653.449 904.778 653.449 905.797 L653.449 922.305 Q653.449 923.426 653.313 923.698 Q653.178 923.969 652.328 923.969 Q651.649 923.969 651.479 923.765 Q651.343 923.562 651.207 922.78 Q650.154 915.274 645.976 910.79 Q641.833 906.306 636.058 906.306 Q634.394 906.306 632.526 906.68 Q630.691 907.054 628.008 908.48 Q625.358 909.907 623.286 912.285 Q621.248 914.628 619.754 919.112 Q618.259 923.562 618.259 929.472 Q618.259 935.314 619.754 939.798 Q621.248 944.282 623.286 946.625 Q625.358 948.935 628.008 950.362 Q630.691 951.788 632.559 952.196 Q634.462 952.57 636.126 952.57 Q642.104 952.57 646.69 948.324 Q651.275 944.078 651.717 936.911 Q651.785 936.571 651.785 936.435 Q651.785 936.265 651.853 936.096 Q651.921 935.926 652.091 935.858 Q652.26 935.79 652.532 935.79 Q653.449 935.79 653.449 936.979 Q653.449 943.602 648.354 949.173 Q643.293 954.71 635.277 954.71 Q625.392 954.71 618.225 947.373 Q611.092 940.036 611.092 929.404 Z" fill="#000000" fill-rule="nonzero" fill-opacity="1" /><path clip-path="url(#clip590)" d="M660.311 946.557 Q660.311 940.647 667.274 937.522 Q671.452 935.518 680.079 935.009 L680.079 932.461 Q680.079 928.147 677.804 925.871 Q675.562 923.562 672.709 923.562 Q667.614 923.562 665.168 926.755 Q667.24 926.823 667.987 927.875 Q668.734 928.894 668.734 929.947 Q668.734 931.34 667.851 932.257 Q667.002 933.14 665.542 933.14 Q664.149 933.14 663.232 932.291 Q662.315 931.408 662.315 929.88 Q662.315 926.483 665.372 924.241 Q668.463 921.999 672.844 921.999 Q678.551 921.999 682.355 925.837 Q683.544 927.026 684.122 928.555 Q684.733 930.083 684.801 931.102 Q684.869 932.087 684.869 934.057 L684.869 947.95 Q684.869 948.358 685.005 949.037 Q685.141 949.716 685.752 950.599 Q686.397 951.449 687.45 951.449 Q689.964 951.449 689.93 946.999 L689.93 943.093 L691.696 943.093 L691.696 946.999 Q691.696 950.701 689.726 952.162 Q687.79 953.589 685.99 953.589 Q683.68 953.589 682.219 951.89 Q680.759 950.192 680.555 947.882 Q679.502 950.532 677.09 952.264 Q674.713 953.962 671.452 953.962 Q668.938 953.962 666.561 953.317 Q664.217 952.705 662.247 950.973 Q660.311 949.207 660.311 946.557 M665.677 946.489 Q665.677 949.071 667.512 950.735 Q669.346 952.4 671.927 952.4 Q674.849 952.4 677.464 950.158 Q680.079 947.882 680.079 943.432 L680.079 936.469 Q672.369 936.741 669.006 939.832 Q665.677 942.889 665.677 946.489 Z" fill="#000000" fill-rule="nonzero" fill-opacity="1" /><path clip-path="url(#clip590)" d="M694.108 953.181 L694.108 951.041 Q697.81 951.041 698.659 950.599 Q699.543 950.124 699.543 947.882 L699.543 929.234 Q699.543 926.653 698.626 926.007 Q697.742 925.362 694.108 925.362 L694.108 923.188 L703.789 922.441 L703.789 930.083 Q704.774 927.094 706.846 924.784 Q708.952 922.441 712.348 922.441 Q714.59 922.441 716.017 923.698 Q717.477 924.954 717.477 926.687 Q717.477 928.215 716.526 928.996 Q715.609 929.744 714.488 929.744 Q713.231 929.744 712.348 928.962 Q711.499 928.147 711.499 926.755 Q711.499 925.905 711.873 925.26 Q712.28 924.581 712.586 924.343 Q712.892 924.105 713.096 924.037 Q712.96 923.969 712.348 923.969 Q708.51 923.969 706.302 927.808 Q704.128 931.612 704.128 937.047 L704.128 947.746 Q704.128 949.75 704.943 950.396 Q705.793 951.041 709.427 951.041 L710.888 951.041 L710.888 953.181 Q708.102 952.977 702.056 952.977 Q701.207 952.977 699.882 953.011 Q698.558 953.045 696.825 953.113 Q695.093 953.181 694.108 953.181 Z" fill="#000000" fill-rule="nonzero" fill-opacity="1" /><path clip-path="url(#clip590)" d="M744.719 953.181 L744.719 951.041 Q748.421 951.041 749.271 950.599 Q750.12 950.124 750.12 947.882 L750.12 929.234 Q750.12 926.653 749.203 926.007 Q748.319 925.362 744.719 925.362 L744.719 923.188 L754.501 922.441 L754.501 929.744 Q757.762 922.441 764.793 922.441 Q770.024 922.441 772.096 925.022 Q773.625 926.755 773.931 928.691 Q774.27 930.627 774.27 935.654 L774.27 948.935 Q774.338 950.396 775.459 950.735 Q776.58 951.041 779.705 951.041 L779.705 953.181 Q772.606 952.977 771.893 952.977 Q771.349 952.977 764.046 953.181 L764.046 951.041 Q767.749 951.041 768.598 950.599 Q769.481 950.124 769.481 947.882 L769.481 931.68 Q769.481 928.147 768.394 926.075 Q767.307 923.969 764.318 923.969 Q760.717 923.969 757.83 926.992 Q754.943 930.015 754.943 935.11 L754.943 947.882 Q754.943 950.124 755.792 950.599 Q756.675 951.041 760.344 951.041 L760.344 953.181 Q753.245 952.977 752.565 952.977 Q752.022 952.977 744.719 953.181 Z" fill="#000000" fill-rule="nonzero" fill-opacity="1" /><path clip-path="url(#clip590)" d="M781.369 925.362 L781.369 923.188 L791.594 922.441 L791.594 945.538 Q791.594 947.203 791.729 948.188 Q791.865 949.139 792.409 950.26 Q792.986 951.381 794.277 951.89 Q795.602 952.4 797.708 952.4 Q801.478 952.4 803.788 949.309 Q806.131 946.218 806.131 941.632 L806.131 929.234 Q806.131 926.653 805.214 926.007 Q804.297 925.362 800.697 925.362 L800.697 923.188 L810.921 922.441 L810.921 947.135 Q810.921 949.716 811.804 950.396 Q812.721 951.041 816.356 951.041 L816.356 953.181 L806.335 953.962 L806.335 947.678 Q803.414 953.928 797.368 953.962 Q794.311 953.962 792.205 953.181 Q790.133 952.4 789.08 951.449 Q788.027 950.464 787.45 948.595 Q786.906 946.727 786.838 945.572 Q786.77 944.417 786.77 942.176 L786.77 931.748 Q786.77 927.026 786.091 926.211 Q785.412 925.362 781.369 925.362 Z" fill="#000000" fill-rule="nonzero" fill-opacity="1" /><path clip-path="url(#clip590)" d="M819.956 953.181 L819.956 951.041 Q823.658 951.041 824.508 950.599 Q825.357 950.124 825.357 947.882 L825.357 929.234 Q825.357 926.653 824.44 926.007 Q823.557 925.362 819.956 925.362 L819.956 923.188 L829.739 922.441 L829.739 929.744 Q832.999 922.441 840.031 922.441 Q848.183 922.441 849.304 929.234 Q850.493 926.585 852.972 924.513 Q855.486 922.441 859.392 922.441 Q864.623 922.441 866.695 925.022 Q868.223 926.755 868.529 928.691 Q868.835 930.627 868.835 935.654 L868.835 948.935 Q868.903 950.396 870.024 950.735 Q871.145 951.041 874.27 951.041 L874.27 953.181 Q867.17 952.977 866.491 952.977 Q865.948 952.977 858.611 953.181 L858.611 951.041 Q862.313 951.041 863.162 950.599 Q864.045 950.124 864.045 947.882 L864.045 931.68 Q864.045 928.147 862.958 926.075 Q861.872 923.969 858.882 923.969 Q855.282 923.969 852.395 926.992 Q849.507 930.015 849.507 935.11 L849.507 947.882 Q849.507 950.124 850.357 950.599 Q851.24 951.041 854.942 951.041 L854.942 953.181 Q847.843 952.977 847.13 952.977 Q846.586 952.977 839.283 953.181 L839.283 951.041 Q842.986 951.041 843.835 950.599 Q844.718 950.124 844.718 947.882 L844.718 931.68 Q844.718 928.147 843.631 926.075 Q842.544 923.969 839.555 923.969 Q835.955 923.969 833.067 926.992 Q830.18 930.015 830.18 935.11 L830.18 947.882 Q830.18 950.124 831.029 950.599 Q831.913 951.041 835.581 951.041 L835.581 953.181 Q828.482 952.977 827.802 952.977 Q827.259 952.977 819.956 953.181 Z" fill="#000000" fill-rule="nonzero" fill-opacity="1" /><path clip-path="url(#clip590)" d="M875.628 907.835 L875.628 905.661 L885.648 904.914 L885.648 926.958 Q889.691 922.441 895.193 922.441 Q901.171 922.441 905.553 927.026 Q909.935 931.612 909.935 938.168 Q909.935 944.791 905.349 949.377 Q900.764 953.962 894.412 953.962 Q888.638 953.962 885.309 948.867 Q882.863 953.113 882.795 953.181 L881.063 953.181 L881.063 911.707 Q881.063 909.126 880.146 908.48 Q879.229 907.835 875.628 907.835 M885.852 945.267 Q885.852 946.727 886.837 948.188 Q889.589 952.4 894.072 952.4 Q894.106 952.4 894.14 952.4 Q898.998 952.4 902.021 947.95 Q904.161 944.621 904.161 938.1 Q904.161 931.646 902.157 928.419 Q899.371 923.969 894.854 923.969 Q889.759 923.969 886.634 928.419 Q885.852 929.54 885.852 930.933 L885.852 945.267 Z" fill="#000000" fill-rule="nonzero" fill-opacity="1" /><path clip-path="url(#clip590)" d="M916.151 937.862 Q916.151 931.306 920.363 926.653 Q924.575 921.999 930.621 921.999 Q936.735 921.999 939.894 925.973 Q943.087 929.947 943.087 935.654 Q943.087 936.707 942.815 936.911 Q942.543 937.115 941.355 937.115 L921.925 937.115 Q921.925 944.214 924.031 947.542 Q926.953 952.196 931.878 952.196 Q932.557 952.196 933.372 952.06 Q934.188 951.924 935.852 951.347 Q937.516 950.735 938.977 949.139 Q940.437 947.542 941.287 945.029 Q941.49 944.044 942.17 944.078 Q943.087 944.078 943.087 944.893 Q943.087 945.504 942.408 946.897 Q941.762 948.256 940.505 949.886 Q939.249 951.517 936.803 952.739 Q934.391 953.962 931.47 953.962 Q925.356 953.962 920.737 949.343 Q916.151 944.689 916.151 937.862 M921.993 935.654 L938.501 935.654 Q938.501 934.193 938.23 932.563 Q937.992 930.933 937.245 928.691 Q936.531 926.415 934.833 924.988 Q933.135 923.562 930.621 923.562 Q929.5 923.562 928.277 924.037 Q927.088 924.513 925.628 925.668 Q924.167 926.823 923.148 929.438 Q922.129 932.053 921.993 935.654 Z" fill="#000000" fill-rule="nonzero" fill-opacity="1" /><path clip-path="url(#clip590)" d="M947.027 953.181 L947.027 951.041 Q950.729 951.041 951.579 950.599 Q952.462 950.124 952.462 947.882 L952.462 929.234 Q952.462 926.653 951.545 926.007 Q950.662 925.362 947.027 925.362 L947.027 923.188 L956.708 922.441 L956.708 930.083 Q957.693 927.094 959.765 924.784 Q961.871 922.441 965.267 922.441 Q967.509 922.441 968.936 923.698 Q970.396 924.954 970.396 926.687 Q970.396 928.215 969.445 928.996 Q968.528 929.744 967.407 929.744 Q966.151 929.744 965.267 928.962 Q964.418 928.147 964.418 926.755 Q964.418 925.905 964.792 925.26 Q965.199 924.581 965.505 924.343 Q965.811 924.105 966.015 924.037 Q965.879 923.969 965.267 923.969 Q961.429 923.969 959.221 927.808 Q957.047 931.612 957.047 937.047 L957.047 947.746 Q957.047 949.75 957.863 950.396 Q958.712 951.041 962.346 951.041 L963.807 951.041 L963.807 953.181 Q961.022 952.977 954.975 952.977 Q954.126 952.977 952.801 953.011 Q951.477 953.045 949.744 953.113 Q948.012 953.181 947.027 953.181 Z" fill="#000000" fill-rule="nonzero" fill-opacity="1" /><polyline clip-path="url(#clip592)" style="stroke:#000000; stroke-linecap:round; stroke-linejoin:round; stroke-width:2; stroke-opacity:0.1; fill:none" points="1352.76,795.207 228.733,795.207 "/>
<polyline clip-path="url(#clip592)" style="stroke:#000000; stroke-linecap:round; stroke-linejoin:round; stroke-width:2; stroke-opacity:0.1; fill:none" points="1352.76,701.508 228.733,701.508 "/>
<polyline clip-path="url(#clip592)" style="stroke:#000000; stroke-linecap:round; stroke-linejoin:round; stroke-width:2; stroke-opacity:0.1; fill:none" points="1352.76,607.809 228.733,607.809 "/>
<polyline clip-path="url(#clip592)" style="stroke:#000000; stroke-linecap:round; stroke-linejoin:round; stroke-width:2; stroke-opacity:0.1; fill:none" points="1352.76,514.11 228.733,514.11 "/>
<polyline clip-path="url(#clip592)" style="stroke:#000000; stroke-linecap:round; stroke-linejoin:round; stroke-width:2; stroke-opacity:0.1; fill:none" points="1352.76,420.411 228.733,420.411 "/>
<polyline clip-path="url(#clip592)" style="stroke:#000000; stroke-linecap:round; stroke-linejoin:round; stroke-width:2; stroke-opacity:0.1; fill:none" points="1352.76,326.712 228.733,326.712 "/>
<polyline clip-path="url(#clip592)" style="stroke:#000000; stroke-linecap:round; stroke-linejoin:round; stroke-width:2; stroke-opacity:0.1; fill:none" points="1352.76,233.013 228.733,233.013 "/>
<polyline clip-path="url(#clip590)" style="stroke:#000000; stroke-linecap:round; stroke-linejoin:round; stroke-width:4; stroke-opacity:1; fill:none" points="228.733,823.317 228.733,176.793 "/>
<polyline clip-path="url(#clip590)" style="stroke:#000000; stroke-linecap:round; stroke-linejoin:round; stroke-width:4; stroke-opacity:1; fill:none" points="228.733,795.207 247.63,795.207 "/>
<polyline clip-path="url(#clip590)" style="stroke:#000000; stroke-linecap:round; stroke-linejoin:round; stroke-width:4; stroke-opacity:1; fill:none" points="228.733,701.508 247.63,701.508 "/>
<polyline clip-path="url(#clip590)" style="stroke:#000000; stroke-linecap:round; stroke-linejoin:round; stroke-width:4; stroke-opacity:1; fill:none" points="228.733,607.809 247.63,607.809 "/>
<polyline clip-path="url(#clip590)" style="stroke:#000000; stroke-linecap:round; stroke-linejoin:round; stroke-width:4; stroke-opacity:1; fill:none" points="228.733,514.11 247.63,514.11 "/>
<polyline clip-path="url(#clip590)" style="stroke:#000000; stroke-linecap:round; stroke-linejoin:round; stroke-width:4; stroke-opacity:1; fill:none" points="228.733,420.411 247.63,420.411 "/>
<polyline clip-path="url(#clip590)" style="stroke:#000000; stroke-linecap:round; stroke-linejoin:round; stroke-width:4; stroke-opacity:1; fill:none" points="228.733,326.712 247.63,326.712 "/>
<polyline clip-path="url(#clip590)" style="stroke:#000000; stroke-linecap:round; stroke-linejoin:round; stroke-width:4; stroke-opacity:1; fill:none" points="228.733,233.013 247.63,233.013 "/>
<path clip-path="url(#clip590)" d="M156.053 799.123 Q156.35 799.419 156.35 799.839 Q156.35 800.259 156.053 800.556 Q155.757 800.852 155.337 800.852 L123.667 800.852 Q123.247 800.852 122.951 800.556 Q122.654 800.259 122.654 799.839 Q122.654 799.419 122.951 799.123 Q123.247 798.826 123.667 798.826 L155.337 798.826 Q155.757 798.826 156.053 799.123 Z" fill="#000000" fill-rule="nonzero" fill-opacity="1" /><path clip-path="url(#clip590)" d="M161.29 790.18 Q161.29 787.487 162.081 785.659 Q162.872 783.807 164.527 781.979 Q167.565 778.792 171.962 778.792 Q173.84 778.792 175.495 779.582 Q177.175 780.373 178.756 782.176 Q180.361 783.955 181.325 787.487 Q182.288 790.995 182.288 795.837 Q182.288 803.668 178.484 808.634 Q174.704 813.599 169.591 813.599 Q166.355 813.599 164.453 812.141 Q162.55 810.659 162.55 808.139 Q162.55 806.83 163.291 806.287 Q164.033 805.719 164.872 805.719 Q165.787 805.719 166.503 806.336 Q167.219 806.929 167.219 808.041 Q167.219 808.955 166.626 809.671 Q166.058 810.363 164.576 810.363 Q166.034 812.191 169.541 812.191 Q170.801 812.191 172.061 811.623 Q173.321 811.03 174.68 809.622 Q176.063 808.189 176.903 805.2 Q177.743 802.211 177.743 798.011 L177.743 796.405 Q175.717 801.47 171.419 801.47 Q167.17 801.47 164.23 798.209 Q161.29 794.948 161.29 790.18 M165.836 790.23 Q165.836 795.244 166.75 797.097 Q168.306 800.284 171.468 800.284 Q174.556 800.284 176.088 797.542 Q177.644 794.775 177.644 791.193 Q177.644 786.228 176.829 784.054 Q175.322 780.052 171.962 780.052 Q168.627 780.052 166.898 783.238 Q165.836 785.116 165.836 790.23 Z" fill="#000000" fill-rule="nonzero" fill-opacity="1" /><path clip-path="url(#clip590)" d="M186.439 796.307 Q186.439 788.871 188.316 784.819 Q190.935 778.792 197.11 778.792 Q198.42 778.792 199.778 779.162 Q201.162 779.508 202.891 780.867 Q204.645 782.226 205.707 784.449 Q207.733 788.747 207.733 796.307 Q207.733 803.693 205.855 807.72 Q203.113 813.599 197.061 813.599 Q194.788 813.599 192.466 812.438 Q190.169 811.277 188.711 808.485 Q186.439 804.31 186.439 796.307 M190.638 795.689 Q190.638 803.322 191.182 806.361 Q191.799 809.646 193.479 811.079 Q195.184 812.487 197.061 812.487 Q199.087 812.487 200.766 810.98 Q202.471 809.449 202.99 806.163 Q203.558 802.927 203.533 795.689 Q203.533 788.649 203.039 785.832 Q202.372 782.547 200.594 781.238 Q198.84 779.904 197.061 779.904 Q196.394 779.904 195.678 780.101 Q194.986 780.299 193.973 780.867 Q192.96 781.435 192.17 782.843 Q191.404 784.251 191.033 786.376 Q190.638 789.118 190.638 795.689 Z" fill="#000000" fill-rule="nonzero" fill-opacity="1" /><path clip-path="url(#clip590)" d="M156.053 705.424 Q156.35 705.72 156.35 706.14 Q156.35 706.56 156.053 706.856 Q155.757 707.153 155.337 707.153 L123.667 707.153 Q123.247 707.153 122.951 706.856 Q122.654 706.56 122.654 706.14 Q122.654 705.72 122.951 705.424 Q123.247 705.127 123.667 705.127 L155.337 705.127 Q155.757 705.127 156.053 705.424 Z" fill="#000000" fill-rule="nonzero" fill-opacity="1" /><path clip-path="url(#clip590)" d="M161.29 711.155 Q161.29 705.498 168.578 701.842 Q165.441 699.717 164.872 699.1 Q162.649 696.629 162.649 693.541 Q162.649 690.009 165.317 687.563 Q168.01 685.093 171.814 685.093 Q175.446 685.093 178.188 687.193 Q180.93 689.292 180.93 692.627 Q180.93 697.321 174.803 700.483 Q178.855 703.003 179.818 704.065 Q182.288 706.807 182.288 710.29 Q182.288 714.342 179.176 717.133 Q176.063 719.9 171.765 719.9 Q167.565 719.9 164.428 717.454 Q161.29 715.009 161.29 711.155 M163.81 711.155 Q163.81 714.292 166.157 716.392 Q168.529 718.492 171.814 718.492 Q175.001 718.492 177.372 716.664 Q179.769 714.836 179.769 712.118 Q179.769 711.056 179.398 710.142 Q179.052 709.228 178.336 708.512 Q177.644 707.77 177.199 707.449 Q176.78 707.103 175.964 706.535 L169.739 702.607 Q163.81 705.893 163.81 711.155 M164.872 691.565 Q164.872 693.986 167.417 695.666 L173.692 699.717 Q178.706 696.777 178.706 692.627 Q178.706 689.935 176.656 688.156 Q174.606 686.353 171.765 686.353 Q168.973 686.353 166.923 687.835 Q164.872 689.292 164.872 691.565 Z" fill="#000000" fill-rule="nonzero" fill-opacity="1" /><path clip-path="url(#clip590)" d="M186.439 702.607 Q186.439 695.172 188.316 691.12 Q190.935 685.093 197.11 685.093 Q198.42 685.093 199.778 685.463 Q201.162 685.809 202.891 687.168 Q204.645 688.527 205.707 690.75 Q207.733 695.048 207.733 702.607 Q207.733 709.994 205.855 714.02 Q203.113 719.9 197.061 719.9 Q194.788 719.9 192.466 718.739 Q190.169 717.578 188.711 714.786 Q186.439 710.611 186.439 702.607 M190.638 701.99 Q190.638 709.623 191.182 712.662 Q191.799 715.947 193.479 717.38 Q195.184 718.788 197.061 718.788 Q199.087 718.788 200.766 717.281 Q202.471 715.75 202.99 712.464 Q203.558 709.228 203.533 701.99 Q203.533 694.949 203.039 692.133 Q202.372 688.848 200.594 687.538 Q198.84 686.204 197.061 686.204 Q196.394 686.204 195.678 686.402 Q194.986 686.6 193.973 687.168 Q192.96 687.736 192.17 689.144 Q191.404 690.552 191.033 692.677 Q190.638 695.419 190.638 701.99 Z" fill="#000000" fill-rule="nonzero" fill-opacity="1" /><path clip-path="url(#clip590)" d="M156.053 611.725 Q156.35 612.021 156.35 612.441 Q156.35 612.861 156.053 613.157 Q155.757 613.454 155.337 613.454 L123.667 613.454 Q123.247 613.454 122.951 613.157 Q122.654 612.861 122.654 612.441 Q122.654 612.021 122.951 611.725 Q123.247 611.428 123.667 611.428 L155.337 611.428 Q155.757 611.428 156.053 611.725 Z" fill="#000000" fill-rule="nonzero" fill-opacity="1" /><path clip-path="url(#clip590)" d="M162.007 601.3 L163.662 590.9 L164.922 590.9 Q165.07 591.517 165.317 591.789 Q165.589 592.061 167.022 592.283 Q168.479 592.505 171.419 592.505 L183.696 592.505 Q183.696 593.666 183.252 594.284 L176.409 603.894 Q174.235 606.932 173.272 612.54 Q172.703 616.295 172.728 620.84 L172.728 623.409 Q172.728 626.201 170.381 626.201 Q168.059 626.201 168.059 623.409 Q168.059 613.75 174.284 604.388 Q174.951 603.424 177.397 599.99 Q179.867 596.557 179.966 596.408 L169.492 596.408 Q164.897 596.408 164.527 596.705 Q164.033 597.15 163.267 601.3 L162.007 601.3 Z" fill="#000000" fill-rule="nonzero" fill-opacity="1" /><path clip-path="url(#clip590)" d="M186.439 608.908 Q186.439 601.473 188.316 597.421 Q190.935 591.394 197.11 591.394 Q198.42 591.394 199.778 591.764 Q201.162 592.11 202.891 593.469 Q204.645 594.827 205.707 597.051 Q207.733 601.349 207.733 608.908 Q207.733 616.295 205.855 620.321 Q203.113 626.201 197.061 626.201 Q194.788 626.201 192.466 625.04 Q190.169 623.879 188.711 621.087 Q186.439 616.912 186.439 608.908 M190.638 608.291 Q190.638 615.924 191.182 618.963 Q191.799 622.248 193.479 623.681 Q195.184 625.089 197.061 625.089 Q199.087 625.089 200.766 623.582 Q202.471 622.051 202.99 618.765 Q203.558 615.529 203.533 608.291 Q203.533 601.25 203.039 598.434 Q202.372 595.149 200.594 593.839 Q198.84 592.505 197.061 592.505 Q196.394 592.505 195.678 592.703 Q194.986 592.901 193.973 593.469 Q192.96 594.037 192.17 595.445 Q191.404 596.853 191.033 598.978 Q190.638 601.72 190.638 608.291 Z" fill="#000000" fill-rule="nonzero" fill-opacity="1" /><path clip-path="url(#clip590)" d="M156.053 518.025 Q156.35 518.322 156.35 518.742 Q156.35 519.162 156.053 519.458 Q155.757 519.755 155.337 519.755 L123.667 519.755 Q123.247 519.755 122.951 519.458 Q122.654 519.162 122.654 518.742 Q122.654 518.322 122.951 518.025 Q123.247 517.729 123.667 517.729 L155.337 517.729 Q155.757 517.729 156.053 518.025 Z" fill="#000000" fill-rule="nonzero" fill-opacity="1" /><path clip-path="url(#clip590)" d="M161.29 515.407 Q161.29 507.452 165.342 502.586 Q169.393 497.695 174.606 497.695 Q177.644 497.695 179.324 499.251 Q181.028 500.782 181.028 503.154 Q181.028 504.463 180.263 505.031 Q179.497 505.6 178.706 505.6 Q177.792 505.6 177.076 504.982 Q176.36 504.364 176.36 503.253 Q176.36 500.98 179.151 500.98 Q177.842 498.954 174.704 498.954 Q173.741 498.954 172.753 499.251 Q171.765 499.523 170.48 500.461 Q169.196 501.4 168.207 502.882 Q167.219 504.364 166.528 507.156 Q165.836 509.947 165.836 513.579 L165.836 514.789 Q167.911 509.775 172.16 509.799 Q176.409 509.799 179.349 513.035 Q182.288 516.271 182.288 521.064 Q182.288 525.98 179.225 529.241 Q176.162 532.502 171.864 532.502 Q169.937 532.502 168.183 531.686 Q166.453 530.896 164.823 529.068 Q163.217 527.24 162.254 523.732 Q161.29 520.224 161.29 515.407 M165.935 519.952 Q165.935 524.918 166.849 527.289 Q166.997 527.684 167.318 528.228 Q167.664 528.771 168.232 529.488 Q168.825 530.179 169.788 530.649 Q170.752 531.094 171.864 531.094 Q175.248 531.094 176.878 527.808 Q177.743 525.98 177.743 521.015 Q177.743 515.95 176.829 514.098 Q175.273 510.96 172.111 510.96 Q169.986 510.96 168.504 512.418 Q167.046 513.875 166.478 515.827 Q165.935 517.778 165.935 519.952 Z" fill="#000000" fill-rule="nonzero" fill-opacity="1" /><path clip-path="url(#clip590)" d="M186.439 515.209 Q186.439 507.774 188.316 503.722 Q190.935 497.695 197.11 497.695 Q198.42 497.695 199.778 498.065 Q201.162 498.411 202.891 499.77 Q204.645 501.128 205.707 503.352 Q207.733 507.65 207.733 515.209 Q207.733 522.596 205.855 526.622 Q203.113 532.502 197.061 532.502 Q194.788 532.502 192.466 531.341 Q190.169 530.179 188.711 527.388 Q186.439 523.213 186.439 515.209 M190.638 514.592 Q190.638 522.225 191.182 525.264 Q191.799 528.549 193.479 529.982 Q195.184 531.39 197.061 531.39 Q199.087 531.39 200.766 529.883 Q202.471 528.351 202.99 525.066 Q203.558 521.83 203.533 514.592 Q203.533 507.551 203.039 504.735 Q202.372 501.449 200.594 500.14 Q198.84 498.806 197.061 498.806 Q196.394 498.806 195.678 499.004 Q194.986 499.201 193.973 499.77 Q192.96 500.338 192.17 501.746 Q191.404 503.154 191.033 505.279 Q190.638 508.021 190.638 514.592 Z" fill="#000000" fill-rule="nonzero" fill-opacity="1" /><path clip-path="url(#clip590)" d="M156.053 424.326 Q156.35 424.623 156.35 425.043 Q156.35 425.463 156.053 425.759 Q155.757 426.056 155.337 426.056 L123.667 426.056 Q123.247 426.056 122.951 425.759 Q122.654 425.463 122.654 425.043 Q122.654 424.623 122.951 424.326 Q123.247 424.03 123.667 424.03 L155.337 424.03 Q155.757 424.03 156.053 424.326 Z" fill="#000000" fill-rule="nonzero" fill-opacity="1" /><path clip-path="url(#clip590)" d="M161.686 429.539 Q161.686 428.032 162.501 427.464 Q163.316 426.871 164.181 426.871 Q165.342 426.871 166.009 427.612 Q166.701 428.328 166.701 429.341 Q166.701 430.354 166.009 431.095 Q165.342 431.811 164.181 431.811 Q163.613 431.811 163.316 431.713 Q163.983 434.035 166.009 435.715 Q168.059 437.394 170.752 437.394 Q174.136 437.394 176.162 434.109 Q177.372 431.984 177.372 427.167 Q177.372 422.918 176.458 420.794 Q175.05 417.558 172.16 417.558 Q168.059 417.558 165.638 421.09 Q165.342 421.535 164.996 421.56 Q164.502 421.56 164.378 421.288 Q164.28 420.991 164.28 420.226 L164.28 405.255 Q164.28 404.045 164.774 404.045 Q164.971 404.045 165.391 404.193 Q168.578 405.601 172.111 405.626 Q175.742 405.626 179.003 404.144 Q179.25 403.995 179.398 403.995 Q179.892 403.995 179.917 404.564 Q179.917 404.761 179.497 405.354 Q179.102 405.922 178.237 406.688 Q177.372 407.429 176.261 408.146 Q175.149 408.862 173.519 409.356 Q171.913 409.825 170.134 409.825 Q168.01 409.825 165.836 409.158 L165.836 419.015 Q168.454 416.446 172.259 416.446 Q176.31 416.446 179.102 419.707 Q181.893 422.968 181.893 427.513 Q181.893 432.281 178.583 435.542 Q175.297 438.803 170.851 438.803 Q166.799 438.803 164.23 435.912 Q161.686 433.022 161.686 429.539 Z" fill="#000000" fill-rule="nonzero" fill-opacity="1" /><path clip-path="url(#clip590)" d="M186.439 421.51 Q186.439 414.074 188.316 410.023 Q190.935 403.995 197.11 403.995 Q198.42 403.995 199.778 404.366 Q201.162 404.712 202.891 406.071 Q204.645 407.429 205.707 409.653 Q207.733 413.951 207.733 421.51 Q207.733 428.896 205.855 432.923 Q203.113 438.803 197.061 438.803 Q194.788 438.803 192.466 437.641 Q190.169 436.48 188.711 433.689 Q186.439 429.514 186.439 421.51 M190.638 420.893 Q190.638 428.526 191.182 431.564 Q191.799 434.85 193.479 436.283 Q195.184 437.691 197.061 437.691 Q199.087 437.691 200.766 436.184 Q202.471 434.652 202.99 431.367 Q203.558 428.131 203.533 420.893 Q203.533 413.852 203.039 411.036 Q202.372 407.75 200.594 406.441 Q198.84 405.107 197.061 405.107 Q196.394 405.107 195.678 405.305 Q194.986 405.502 193.973 406.071 Q192.96 406.639 192.17 408.047 Q191.404 409.455 191.033 411.579 Q190.638 414.321 190.638 420.893 Z" fill="#000000" fill-rule="nonzero" fill-opacity="1" /><path clip-path="url(#clip590)" d="M156.053 330.627 Q156.35 330.924 156.35 331.344 Q156.35 331.764 156.053 332.06 Q155.757 332.356 155.337 332.356 L123.667 332.356 Q123.247 332.356 122.951 332.06 Q122.654 331.764 122.654 331.344 Q122.654 330.924 122.951 330.627 Q123.247 330.331 123.667 330.331 L155.337 330.331 Q155.757 330.331 156.053 330.627 Z" fill="#000000" fill-rule="nonzero" fill-opacity="1" /><path clip-path="url(#clip590)" d="M160.574 335.642 L160.574 334.086 L176.113 310.346 Q176.508 309.728 177.125 309.753 Q177.694 309.753 177.817 309.975 Q177.941 310.198 177.941 311.062 L177.941 334.086 L183.005 334.086 L183.005 335.642 L177.941 335.642 L177.941 340.039 Q177.941 341.497 178.533 341.966 Q179.151 342.435 181.77 342.435 L182.832 342.435 L182.832 343.992 Q180.757 343.844 175.964 343.844 Q171.197 343.844 169.121 343.992 L169.121 342.435 L170.184 342.435 Q172.802 342.435 173.42 341.991 Q174.037 341.521 174.037 340.039 L174.037 335.642 L160.574 335.642 M162.007 334.086 L174.334 334.086 L174.334 315.212 L162.007 334.086 Z" fill="#000000" fill-rule="nonzero" fill-opacity="1" /><path clip-path="url(#clip590)" d="M186.439 327.811 Q186.439 320.375 188.316 316.324 Q190.935 310.296 197.11 310.296 Q198.42 310.296 199.778 310.667 Q201.162 311.013 202.891 312.371 Q204.645 313.73 205.707 315.953 Q207.733 320.252 207.733 327.811 Q207.733 335.197 205.855 339.224 Q203.113 345.103 197.061 345.103 Q194.788 345.103 192.466 343.942 Q190.169 342.781 188.711 339.99 Q186.439 335.815 186.439 327.811 M190.638 327.193 Q190.638 334.827 191.182 337.865 Q191.799 341.151 193.479 342.584 Q195.184 343.992 197.061 343.992 Q199.087 343.992 200.766 342.485 Q202.471 340.953 202.99 337.668 Q203.558 334.432 203.533 327.193 Q203.533 320.153 203.039 317.337 Q202.372 314.051 200.594 312.742 Q198.84 311.408 197.061 311.408 Q196.394 311.408 195.678 311.606 Q194.986 311.803 193.973 312.371 Q192.96 312.94 192.17 314.348 Q191.404 315.756 191.033 317.88 Q190.638 320.622 190.638 327.193 Z" fill="#000000" fill-rule="nonzero" fill-opacity="1" /><path clip-path="url(#clip590)" d="M156.053 236.928 Q156.35 237.225 156.35 237.645 Q156.35 238.064 156.053 238.361 Q155.757 238.657 155.337 238.657 L123.667 238.657 Q123.247 238.657 122.951 238.361 Q122.654 238.064 122.654 237.645 Q122.654 237.225 122.951 236.928 Q123.247 236.632 123.667 236.632 L155.337 236.632 Q155.757 236.632 156.053 236.928 Z" fill="#000000" fill-rule="nonzero" fill-opacity="1" /><path clip-path="url(#clip590)" d="M161.29 243.475 Q161.29 241.968 162.155 241.251 Q163.02 240.535 164.131 240.535 Q165.292 240.535 166.108 241.301 Q166.948 242.042 166.948 243.351 Q166.948 244.759 165.959 245.55 Q164.996 246.34 163.613 246.142 Q164.823 248.168 167.046 249.082 Q169.294 249.996 171.369 249.996 Q173.543 249.996 175.297 248.119 Q177.076 246.241 177.076 241.646 Q177.076 237.743 175.544 235.495 Q174.037 233.247 171.048 233.247 L168.825 233.247 Q168.059 233.247 167.837 233.173 Q167.615 233.099 167.615 232.679 Q167.615 232.185 168.38 232.086 Q169.146 232.086 170.357 231.938 Q173.296 231.839 174.853 229.295 Q176.261 226.923 176.261 223.539 Q176.261 220.451 174.779 219.166 Q173.321 217.857 171.419 217.857 Q169.64 217.857 167.689 218.598 Q165.737 219.339 164.675 220.994 Q167.812 220.994 167.812 223.539 Q167.812 224.651 167.096 225.392 Q166.404 226.108 165.243 226.108 Q164.131 226.108 163.39 225.416 Q162.649 224.7 162.649 223.49 Q162.649 220.599 165.218 218.598 Q167.812 216.597 171.617 216.597 Q175.371 216.597 178.138 218.574 Q180.93 220.55 180.93 223.588 Q180.93 226.577 178.953 229.023 Q176.977 231.469 173.84 232.482 Q177.694 233.247 179.991 235.866 Q182.288 238.46 182.288 241.646 Q182.288 245.599 179.176 248.514 Q176.063 251.404 171.518 251.404 Q167.318 251.404 164.304 249.132 Q161.29 246.859 161.29 243.475 Z" fill="#000000" fill-rule="nonzero" fill-opacity="1" /><path clip-path="url(#clip590)" d="M186.439 234.112 Q186.439 226.676 188.316 222.625 Q190.935 216.597 197.11 216.597 Q198.42 216.597 199.778 216.968 Q201.162 217.314 202.891 218.672 Q204.645 220.031 205.707 222.254 Q207.733 226.553 207.733 234.112 Q207.733 241.498 205.855 245.525 Q203.113 251.404 197.061 251.404 Q194.788 251.404 192.466 250.243 Q190.169 249.082 188.711 246.291 Q186.439 242.116 186.439 234.112 M190.638 233.494 Q190.638 241.128 191.182 244.166 Q191.799 247.452 193.479 248.885 Q195.184 250.293 197.061 250.293 Q199.087 250.293 200.766 248.786 Q202.471 247.254 202.99 243.969 Q203.558 240.732 203.533 233.494 Q203.533 226.454 203.039 223.638 Q202.372 220.352 200.594 219.043 Q198.84 217.709 197.061 217.709 Q196.394 217.709 195.678 217.907 Q194.986 218.104 193.973 218.672 Q192.96 219.241 192.17 220.649 Q191.404 222.057 191.033 224.181 Q190.638 226.923 190.638 233.494 Z" fill="#000000" fill-rule="nonzero" fill-opacity="1" /><path clip-path="url(#clip590)" d="M87.3984 613.301 L85.2585 613.301 L85.2585 611.637 Q85.2585 607.867 84.6471 607.018 Q84.0017 606.134 81.9637 606.134 L45.3132 606.134 Q43.3091 606.134 42.6977 607.018 Q42.0523 607.901 42.0523 611.637 L42.0523 613.301 L39.8784 613.301 L39.8784 591.461 Q39.8784 583.886 43.6148 578.621 Q47.3172 573.322 52.4123 573.322 Q56.3185 573.322 59.3756 576.753 Q62.4326 580.184 63.7573 585.482 Q66.135 578.587 71.8075 576.991 L77.3781 576.107 Q79.3822 575.836 80.4012 575.666 Q81.4202 575.462 82.8129 575.156 Q84.2055 574.851 84.8849 574.545 Q85.5303 574.205 86.2436 573.73 Q86.9229 573.254 87.1607 572.643 Q87.3984 571.997 87.3984 571.148 Q87.3984 569.552 85.9718 568.193 Q84.5452 566.834 81.2164 566.563 Q80.0955 566.427 80.0955 565.714 Q80.0955 564.83 81.2164 564.83 Q82.2015 564.83 83.3564 565.102 Q84.4773 565.374 85.802 566.053 Q87.1267 566.699 88.0099 568.125 Q88.927 569.552 88.927 571.42 Q88.927 576.855 86.0058 580.184 Q84.749 581.576 83.1186 582.222 Q81.4882 582.833 80.1974 582.935 Q78.9067 583.037 76.0534 583.037 Q72.0113 583.037 70.245 583.478 Q68.4788 583.886 66.7464 585.686 Q64.3687 588.132 64.3687 592.174 L64.3687 600.156 L81.9637 600.156 Q83.9678 600.156 84.6131 599.307 Q85.2585 598.424 85.2585 594.654 L85.2585 592.989 L87.3984 592.989 Q87.1946 595.503 87.1946 603.145 Q87.1946 610.788 87.3984 613.301 M62.8402 600.156 L62.8402 592.446 Q62.8402 588.743 61.9571 586.264 Q61.04 583.75 59.4095 582.561 Q57.7791 581.372 56.1487 580.931 Q54.4843 580.489 52.4123 580.489 Q49.9667 580.489 48.1325 581.033 Q46.2982 581.576 45.2113 582.765 Q44.1243 583.954 43.445 585.143 Q42.7317 586.332 42.4599 588.166 Q42.1882 590 42.1203 591.257 Q42.0523 592.514 42.0523 594.518 Q42.0523 597.914 42.1882 598.628 Q42.2561 599.409 42.6298 599.715 Q43.0034 600.02 43.445 600.088 Q43.8526 600.156 44.8376 600.156 L62.8402 600.156 Z" fill="#000000" fill-rule="nonzero" fill-opacity="1" /><path clip-path="url(#clip590)" d="M72.0793 562.623 Q65.5236 562.623 60.8701 558.411 Q56.2166 554.199 56.2166 548.153 Q56.2166 542.038 60.1908 538.88 Q64.1649 535.687 69.8714 535.687 Q70.9244 535.687 71.1282 535.958 Q71.332 536.23 71.332 537.419 L71.332 556.848 Q78.4311 556.848 81.7599 554.742 Q86.4134 551.821 86.4134 546.896 Q86.4134 546.216 86.2775 545.401 Q86.1417 544.586 85.5642 542.922 Q84.9528 541.257 83.3564 539.797 Q81.7599 538.336 79.2463 537.487 Q78.2613 537.283 78.2953 536.604 Q78.2953 535.687 79.1105 535.687 Q79.7219 535.687 81.1145 536.366 Q82.4732 537.011 84.1036 538.268 Q85.7341 539.525 86.9569 541.971 Q88.1797 544.382 88.1797 547.303 Q88.1797 553.417 83.5602 558.037 Q78.9067 562.623 72.0793 562.623 M69.8714 556.78 L69.8714 540.272 Q68.4108 540.272 66.7804 540.544 Q65.15 540.782 62.9082 541.529 Q60.6324 542.242 59.2057 543.941 Q57.7791 545.639 57.7791 548.153 Q57.7791 549.273 58.2547 550.496 Q58.7302 551.685 59.8851 553.146 Q61.04 554.606 63.6554 555.625 Q66.2709 556.644 69.8714 556.78 Z" fill="#000000" fill-rule="nonzero" fill-opacity="1" /><path clip-path="url(#clip590)" d="M59.5794 532.426 L57.4055 532.426 Q57.6093 528.655 57.6093 525.972 Q57.6093 524.647 57.4055 518.363 L59.5794 518.363 Q59.5794 522.473 61.4476 522.473 Q61.8552 522.473 62.7043 522.134 L81.2844 515.51 L64.4367 509.532 Q61.04 510.789 60.6324 511.128 Q59.5794 511.978 59.5794 515.51 L57.4055 515.51 Q57.6093 512.385 57.6093 509.328 Q57.6093 508.139 57.4055 502.093 L59.5794 502.093 Q59.5794 506.203 61.4476 506.203 Q61.7193 506.203 62.7723 505.863 L82.1675 498.968 L64.3687 492.65 Q63.4516 492.311 62.9082 492.277 Q61.3796 492.277 60.5305 493.364 Q59.6473 494.451 59.5794 496.319 L57.4055 496.319 Q57.6093 492.345 57.6093 489.865 Q57.6093 487.08 57.4055 484.77 L59.5794 484.77 Q59.7152 489.084 64.0291 490.612 L86.855 498.764 Q88.1118 499.546 88.1797 500.157 Q88.1797 501.074 86.855 501.55 L67.0861 508.649 L86.787 515.68 Q87.6362 515.952 87.9079 516.189 Q88.1797 516.427 88.1797 517.073 Q88.1797 517.684 87.806 517.956 Q87.4664 518.227 86.6172 518.533 L61.991 527.297 Q60.3946 527.908 59.987 528.825 Q59.5794 529.708 59.5794 532.426 Z" fill="#000000" fill-rule="nonzero" fill-opacity="1" /><path clip-path="url(#clip590)" d="M80.7749 482.494 Q74.8646 482.494 71.7396 475.531 Q69.7355 471.353 69.226 462.725 L66.6785 462.725 Q62.3647 462.725 60.0889 465.001 Q57.7791 467.243 57.7791 470.096 Q57.7791 475.191 60.972 477.637 Q61.04 475.565 62.0929 474.818 Q63.112 474.07 64.1649 474.07 Q65.5576 474.07 66.4747 474.953 Q67.3578 475.803 67.3578 477.263 Q67.3578 478.656 66.5087 479.573 Q65.6255 480.49 64.097 480.49 Q60.7003 480.49 58.4585 477.433 Q56.2166 474.342 56.2166 469.96 Q56.2166 464.254 60.0549 460.449 Q61.2438 459.261 62.7723 458.683 Q64.3008 458.072 65.3198 458.004 Q66.3049 457.936 68.275 457.936 L82.1675 457.936 Q82.5751 457.936 83.2545 457.8 Q83.9338 457.664 84.8169 457.053 Q85.6661 456.407 85.6661 455.354 Q85.6661 452.841 81.2164 452.875 L77.3102 452.875 L77.3102 451.108 L81.2164 451.108 Q84.9188 451.108 86.3794 453.079 Q87.806 455.015 87.806 456.815 Q87.806 459.125 86.1077 460.585 Q84.4093 462.046 82.0996 462.25 Q84.749 463.303 86.4813 465.714 Q88.1797 468.092 88.1797 471.353 Q88.1797 473.866 87.5343 476.244 Q86.9229 478.588 85.1906 480.558 Q83.4243 482.494 80.7749 482.494 M80.7069 477.127 Q83.2884 477.127 84.9528 475.293 Q86.6172 473.459 86.6172 470.877 Q86.6172 467.956 84.3754 465.341 Q82.0996 462.725 77.6499 462.725 L70.6866 462.725 Q70.9584 470.436 74.0494 473.799 Q77.1064 477.127 80.7069 477.127 Z" fill="#000000" fill-rule="nonzero" fill-opacity="1" /><path clip-path="url(#clip590)" d="M87.3984 448.697 L85.2585 448.697 Q85.2585 444.994 84.8169 444.145 Q84.3414 443.262 82.0996 443.262 L63.4516 443.262 Q60.8701 443.262 60.2247 444.179 Q59.5794 445.062 59.5794 448.697 L57.4055 448.697 L56.6582 439.016 L64.3008 439.016 Q61.3117 438.031 59.0019 435.959 Q56.6582 433.853 56.6582 430.456 Q56.6582 428.215 57.915 426.788 Q59.1718 425.327 60.9041 425.327 Q62.4326 425.327 63.2139 426.279 Q63.9611 427.196 63.9611 428.317 Q63.9611 429.573 63.1799 430.456 Q62.3647 431.306 60.972 431.306 Q60.1228 431.306 59.4775 430.932 Q58.7981 430.524 58.5604 430.219 Q58.3226 429.913 58.2547 429.709 Q58.1867 429.845 58.1867 430.456 Q58.1867 434.295 62.025 436.503 Q65.8293 438.677 71.2641 438.677 L81.9637 438.677 Q83.9678 438.677 84.6131 437.861 Q85.2585 437.012 85.2585 433.378 L85.2585 431.917 L87.3984 431.917 Q87.1946 434.702 87.1946 440.748 Q87.1946 441.598 87.2286 442.922 Q87.2626 444.247 87.3305 445.979 Q87.3984 447.712 87.3984 448.697 Z" fill="#000000" fill-rule="nonzero" fill-opacity="1" /><path clip-path="url(#clip590)" d="M72.4529 421.082 Q65.8293 421.082 61.2438 416.462 Q56.6582 411.842 56.6582 405.593 Q56.6582 400.294 60.972 396.829 L45.9246 396.829 Q43.3431 396.829 42.6977 397.746 Q42.0523 398.629 42.0523 402.23 L39.8784 402.23 L39.1312 392.209 L81.3523 392.209 Q83.9338 392.209 84.6131 391.326 Q85.2585 390.409 85.2585 386.809 L87.3984 386.809 L88.1797 397.033 L83.5602 397.033 Q88.1457 400.633 88.1797 406.34 Q88.1797 412.318 83.5941 416.7 Q79.0086 421.082 72.4529 421.082 M72.5208 415.307 Q78.9746 415.307 82.1675 413.303 Q86.6172 410.518 86.6172 406 Q86.6172 400.837 81.7599 397.78 Q80.5711 396.999 79.1784 397.033 L64.9122 397.033 Q63.5196 397.033 62.3647 397.78 Q58.1867 400.633 58.1867 405.287 Q58.1867 410.144 62.6364 413.167 Q65.9652 415.307 72.5208 415.307 Z" fill="#000000" fill-rule="nonzero" fill-opacity="1" /><polyline clip-path="url(#clip592)" style="stroke:#f1c40f; stroke-linecap:round; stroke-linejoin:round; stroke-width:8; stroke-opacity:1; fill:none" points="1240.35,741.568 1127.95,706.174 1015.55,676.838 903.147,644.935 790.744,611.075 678.342,571.903 565.94,538.992 453.537,502.505 341.135,477.501 "/>
<path clip-path="url(#clip590)" d="M598.131 150.924 L983.357 150.924 L983.357 47.2441 L598.131 47.2441  Z" fill="#ffffff" fill-rule="evenodd" fill-opacity="1"/>
<polyline clip-path="url(#clip590)" style="stroke:#000000; stroke-linecap:round; stroke-linejoin:round; stroke-width:4; stroke-opacity:1; fill:none" points="598.131,150.924 983.357,150.924 983.357,47.2441 598.131,47.2441 598.131,150.924 "/>
<polyline clip-path="url(#clip590)" style="stroke:#f1c40f; stroke-linecap:round; stroke-linejoin:round; stroke-width:8; stroke-opacity:1; fill:none" points="610.62,99.0841 685.555,99.0841 "/>
<path clip-path="url(#clip590)" d="M698.044 116.364 L698.044 114.808 L699.255 114.808 Q701.997 114.808 702.615 114.363 Q703.257 113.894 703.257 112.412 L703.257 85.7566 Q703.257 84.2991 702.615 83.8545 Q701.972 83.3851 699.255 83.3851 L698.044 83.3851 L698.044 81.8041 L715.905 81.8041 Q721.019 81.8041 724.428 84.6203 Q727.837 87.4365 727.837 91.2161 Q727.837 94.971 724.353 97.6884 Q720.895 100.381 716.3 100.381 L707.753 100.381 L707.753 112.412 Q707.753 113.869 708.37 114.338 Q709.013 114.808 711.755 114.808 L712.965 114.808 L712.965 116.364 Q711.187 116.216 705.48 116.216 Q699.823 116.216 698.044 116.364 M707.605 99.0717 L714.571 99.0717 Q716.844 99.0717 718.499 98.4295 Q720.154 97.7872 720.895 97.0214 Q721.661 96.2309 722.081 94.971 Q722.525 93.6864 722.575 92.9947 Q722.624 92.2783 722.624 91.2161 Q722.624 90.1044 722.575 89.4127 Q722.525 88.6963 722.081 87.4365 Q721.661 86.1519 720.895 85.3861 Q720.154 84.5956 718.499 84.0027 Q716.868 83.3851 714.571 83.3851 L710.075 83.3851 Q708.346 83.3851 707.975 83.731 Q707.605 84.0768 707.605 85.4108 L707.605 99.0717 Z" fill="#000000" fill-rule="nonzero" fill-opacity="1" /><path clip-path="url(#clip590)" d="M730.653 105.223 Q730.653 100.455 733.716 97.0708 Q736.779 93.6864 741.176 93.6864 Q745.623 93.6864 747.921 96.5767 Q750.243 99.467 750.243 103.617 Q750.243 104.383 750.045 104.531 Q749.847 104.679 748.983 104.679 L734.852 104.679 Q734.852 109.842 736.384 112.263 Q738.509 115.648 742.091 115.648 Q742.585 115.648 743.177 115.549 Q743.77 115.45 744.981 115.03 Q746.191 114.585 747.254 113.424 Q748.316 112.263 748.933 110.435 Q749.082 109.719 749.576 109.744 Q750.243 109.744 750.243 110.336 Q750.243 110.781 749.749 111.794 Q749.279 112.782 748.365 113.968 Q747.451 115.154 745.672 116.043 Q743.919 116.932 741.794 116.932 Q737.347 116.932 733.988 113.573 Q730.653 110.188 730.653 105.223 M734.902 103.617 L746.908 103.617 Q746.908 102.555 746.71 101.369 Q746.537 100.183 745.994 98.553 Q745.475 96.8978 744.24 95.8603 Q743.005 94.8228 741.176 94.8228 Q740.361 94.8228 739.472 95.1686 Q738.607 95.5145 737.545 96.3544 Q736.483 97.1943 735.742 99.0964 Q735.001 100.999 734.902 103.617 Z" fill="#000000" fill-rule="nonzero" fill-opacity="1" /><path clip-path="url(#clip590)" d="M753.108 116.364 L753.108 114.808 Q755.801 114.808 756.418 114.487 Q757.061 114.141 757.061 112.51 L757.061 98.9482 Q757.061 97.0708 756.394 96.6014 Q755.751 96.132 753.108 96.132 L753.108 94.551 L760.149 94.0076 L760.149 99.5658 Q760.865 97.3919 762.372 95.7121 Q763.904 94.0076 766.374 94.0076 Q768.004 94.0076 769.042 94.9216 Q770.104 95.8356 770.104 97.0955 Q770.104 98.2071 769.412 98.7753 Q768.745 99.3188 767.93 99.3188 Q767.016 99.3188 766.374 98.7506 Q765.756 98.1577 765.756 97.1449 Q765.756 96.5273 766.028 96.0579 Q766.325 95.5639 766.547 95.3909 Q766.769 95.218 766.917 95.1686 Q766.819 95.1192 766.374 95.1192 Q763.582 95.1192 761.977 97.9107 Q760.396 100.677 760.396 104.63 L760.396 112.412 Q760.396 113.869 760.989 114.338 Q761.606 114.808 764.249 114.808 L765.312 114.808 L765.312 116.364 Q763.286 116.216 758.889 116.216 Q758.271 116.216 757.308 116.241 Q756.344 116.265 755.084 116.315 Q753.825 116.364 753.108 116.364 Z" fill="#000000" fill-rule="nonzero" fill-opacity="1" /><path clip-path="url(#clip590)" d="M773.143 96.132 L773.143 94.551 L777.12 94.551 L777.12 88.7457 Q777.12 84.9908 779.541 82.8416 Q781.986 80.6924 784.976 80.6924 Q786.952 80.6924 788.236 81.7547 Q789.521 82.8169 789.521 84.2497 Q789.521 85.2132 788.928 85.8554 Q788.36 86.473 787.298 86.473 Q786.285 86.473 785.692 85.8307 Q785.124 85.1885 785.124 84.2991 Q785.124 82.6687 786.631 82.1746 Q785.865 81.8288 784.976 81.8041 Q783.147 81.8041 781.715 83.6815 Q780.307 85.559 780.307 88.6963 L780.307 94.551 L786.235 94.551 L786.235 96.132 L780.48 96.132 L780.48 112.412 Q780.48 113.869 781.072 114.338 Q781.69 114.808 784.309 114.808 L785.371 114.808 L785.371 116.364 Q783.345 116.216 778.948 116.216 Q778.33 116.216 777.367 116.241 Q776.428 116.265 775.144 116.315 Q773.884 116.364 773.192 116.364 L773.192 114.808 Q775.885 114.808 776.502 114.487 Q777.12 114.141 777.12 112.51 L777.12 96.132 L773.143 96.132 Z" fill="#000000" fill-rule="nonzero" fill-opacity="1" /><path clip-path="url(#clip590)" d="M791.621 113.647 Q788.286 110.336 788.286 105.544 Q788.286 100.727 791.547 97.219 Q794.832 93.6864 799.526 93.6864 Q804.121 93.6864 807.406 97.1943 Q810.716 100.677 810.716 105.544 Q810.716 110.312 807.381 113.622 Q804.071 116.932 799.476 116.932 Q794.98 116.932 791.621 113.647 M792.485 105.124 Q792.485 110.04 793.77 112.263 Q795.746 115.648 799.526 115.648 Q801.403 115.648 802.96 114.635 Q804.541 113.622 805.405 111.917 Q806.517 109.694 806.517 105.124 Q806.517 100.258 805.183 98.1083 Q803.207 94.8228 799.476 94.8228 Q797.846 94.8228 796.24 95.6874 Q794.659 96.5273 793.696 98.2071 Q792.485 100.43 792.485 105.124 Z" fill="#000000" fill-rule="nonzero" fill-opacity="1" /><path clip-path="url(#clip590)" d="M813.582 116.364 L813.582 114.808 Q816.275 114.808 816.892 114.487 Q817.535 114.141 817.535 112.51 L817.535 98.9482 Q817.535 97.0708 816.868 96.6014 Q816.225 96.132 813.582 96.132 L813.582 94.551 L820.622 94.0076 L820.622 99.5658 Q821.339 97.3919 822.846 95.7121 Q824.377 94.0076 826.848 94.0076 Q828.478 94.0076 829.516 94.9216 Q830.578 95.8356 830.578 97.0955 Q830.578 98.2071 829.886 98.7753 Q829.219 99.3188 828.404 99.3188 Q827.49 99.3188 826.848 98.7506 Q826.23 98.1577 826.23 97.1449 Q826.23 96.5273 826.502 96.0579 Q826.798 95.5639 827.021 95.3909 Q827.243 95.218 827.391 95.1686 Q827.292 95.1192 826.848 95.1192 Q824.056 95.1192 822.451 97.9107 Q820.87 100.677 820.87 104.63 L820.87 112.412 Q820.87 113.869 821.462 114.338 Q822.08 114.808 824.723 114.808 L825.785 114.808 L825.785 116.364 Q823.76 116.216 819.363 116.216 Q818.745 116.216 817.782 116.241 Q816.818 116.265 815.558 116.315 Q814.298 116.364 813.582 116.364 Z" fill="#000000" fill-rule="nonzero" fill-opacity="1" /><path clip-path="url(#clip590)" d="M833.567 116.364 L833.567 114.808 Q836.26 114.808 836.877 114.487 Q837.495 114.141 837.495 112.51 L837.495 98.9482 Q837.495 97.0708 836.828 96.6014 Q836.186 96.132 833.567 96.132 L833.567 94.551 L840.682 94.0076 L840.682 99.3188 Q843.053 94.0076 848.167 94.0076 Q854.096 94.0076 854.911 98.9482 Q855.775 97.0214 857.579 95.5145 Q859.407 94.0076 862.248 94.0076 Q866.052 94.0076 867.559 95.885 Q868.671 97.1449 868.893 98.553 Q869.115 99.9611 869.115 103.617 L869.115 113.276 Q869.165 114.338 869.98 114.585 Q870.795 114.808 873.068 114.808 L873.068 116.364 Q867.905 116.216 867.411 116.216 Q867.015 116.216 861.679 116.364 L861.679 114.808 Q864.372 114.808 864.99 114.487 Q865.632 114.141 865.632 112.51 L865.632 100.727 Q865.632 98.1577 864.842 96.6508 Q864.051 95.1192 861.877 95.1192 Q859.259 95.1192 857.159 97.3178 Q855.059 99.5164 855.059 103.222 L855.059 112.51 Q855.059 114.141 855.677 114.487 Q856.319 114.808 859.012 114.808 L859.012 116.364 Q853.849 116.216 853.33 116.216 Q852.934 116.216 847.623 116.364 L847.623 114.808 Q850.316 114.808 850.934 114.487 Q851.576 114.141 851.576 112.51 L851.576 100.727 Q851.576 98.1577 850.785 96.6508 Q849.995 95.1192 847.821 95.1192 Q845.202 95.1192 843.103 97.3178 Q841.003 99.5164 841.003 103.222 L841.003 112.51 Q841.003 114.141 841.62 114.487 Q842.263 114.808 844.931 114.808 L844.931 116.364 Q839.768 116.216 839.274 116.216 Q838.878 116.216 833.567 116.364 Z" fill="#000000" fill-rule="nonzero" fill-opacity="1" /><path clip-path="url(#clip590)" d="M876.18 111.547 Q876.18 107.249 881.245 104.976 Q884.283 103.518 890.558 103.148 L890.558 101.295 Q890.558 98.1577 888.903 96.5026 Q887.272 94.8228 885.197 94.8228 Q881.492 94.8228 879.713 97.1449 Q881.22 97.1943 881.763 97.9601 Q882.307 98.7012 882.307 99.467 Q882.307 100.48 881.664 101.147 Q881.047 101.789 879.985 101.789 Q878.972 101.789 878.305 101.172 Q877.638 100.529 877.638 99.4176 Q877.638 96.9473 879.861 95.3168 Q882.109 93.6864 885.296 93.6864 Q889.446 93.6864 892.213 96.4779 Q893.077 97.3425 893.497 98.4542 Q893.942 99.5658 893.991 100.307 Q894.041 101.023 894.041 102.456 L894.041 112.56 Q894.041 112.856 894.14 113.35 Q894.238 113.844 894.683 114.487 Q895.153 115.104 895.918 115.104 Q897.746 115.104 897.722 111.868 L897.722 109.027 L899.006 109.027 L899.006 111.868 Q899.006 114.561 897.573 115.623 Q896.165 116.661 894.856 116.661 Q893.176 116.661 892.114 115.425 Q891.052 114.19 890.904 112.51 Q890.138 114.437 888.384 115.697 Q886.655 116.932 884.283 116.932 Q882.455 116.932 880.726 116.463 Q879.021 116.018 877.588 114.758 Q876.18 113.474 876.18 111.547 M880.083 111.498 Q880.083 113.375 881.417 114.585 Q882.751 115.796 884.629 115.796 Q886.753 115.796 888.656 114.165 Q890.558 112.51 890.558 109.274 L890.558 104.21 Q884.95 104.408 882.504 106.656 Q880.083 108.879 880.083 111.498 Z" fill="#000000" fill-rule="nonzero" fill-opacity="1" /><path clip-path="url(#clip590)" d="M900.983 116.364 L900.983 114.808 Q903.675 114.808 904.293 114.487 Q904.91 114.141 904.91 112.51 L904.91 98.9482 Q904.91 97.0708 904.243 96.6014 Q903.601 96.132 900.983 96.132 L900.983 94.551 L908.097 94.0076 L908.097 99.3188 Q910.469 94.0076 915.582 94.0076 Q919.387 94.0076 920.893 95.885 Q922.005 97.1449 922.227 98.553 Q922.474 99.9611 922.474 103.617 L922.474 113.276 Q922.524 114.338 923.339 114.585 Q924.154 114.808 926.427 114.808 L926.427 116.364 Q921.264 116.216 920.745 116.216 Q920.35 116.216 915.039 116.364 L915.039 114.808 Q917.731 114.808 918.349 114.487 Q918.991 114.141 918.991 112.51 L918.991 100.727 Q918.991 98.1577 918.201 96.6508 Q917.41 95.1192 915.236 95.1192 Q912.618 95.1192 910.518 97.3178 Q908.418 99.5164 908.418 103.222 L908.418 112.51 Q908.418 114.141 909.036 114.487 Q909.678 114.808 912.346 114.808 L912.346 116.364 Q907.183 116.216 906.689 116.216 Q906.294 116.216 900.983 116.364 Z" fill="#000000" fill-rule="nonzero" fill-opacity="1" /><path clip-path="url(#clip590)" d="M932.356 113.597 Q929.144 110.238 929.144 105.445 Q929.144 100.628 932.306 97.1696 Q935.468 93.6864 940.113 93.6864 Q943.201 93.6864 945.523 95.1686 Q947.845 96.6261 947.845 99.1211 Q947.845 100.233 947.178 100.875 Q946.536 101.493 945.523 101.493 Q944.46 101.493 943.818 100.85 Q943.201 100.183 943.201 99.1706 Q943.201 98.7259 943.349 98.2812 Q943.497 97.8366 944.04 97.3672 Q944.609 96.8978 945.572 96.8237 Q943.769 94.971 940.261 94.971 Q940.211 94.971 940.162 94.971 Q937.593 94.971 935.468 97.3919 Q933.344 99.8128 933.344 105.346 Q933.344 108.237 934.036 110.361 Q934.752 112.461 935.913 113.548 Q937.074 114.635 938.21 115.154 Q939.347 115.648 940.458 115.648 Q945.424 115.648 947.104 110.336 Q947.252 109.842 947.746 109.842 Q948.413 109.842 948.413 110.336 Q948.413 110.584 948.215 111.226 Q948.018 111.868 947.4 112.881 Q946.783 113.894 945.893 114.783 Q945.029 115.648 943.472 116.29 Q941.941 116.932 940.014 116.932 Q935.567 116.932 932.356 113.597 Z" fill="#000000" fill-rule="nonzero" fill-opacity="1" /><path clip-path="url(#clip590)" d="M951.279 105.223 Q951.279 100.455 954.342 97.0708 Q957.405 93.6864 961.802 93.6864 Q966.249 93.6864 968.546 96.5767 Q970.868 99.467 970.868 103.617 Q970.868 104.383 970.671 104.531 Q970.473 104.679 969.608 104.679 L955.478 104.679 Q955.478 109.842 957.01 112.263 Q959.134 115.648 962.716 115.648 Q963.21 115.648 963.803 115.549 Q964.396 115.45 965.607 115.03 Q966.817 114.585 967.879 113.424 Q968.941 112.263 969.559 110.435 Q969.707 109.719 970.201 109.744 Q970.868 109.744 970.868 110.336 Q970.868 110.781 970.374 111.794 Q969.905 112.782 968.991 113.968 Q968.077 115.154 966.298 116.043 Q964.544 116.932 962.42 116.932 Q957.973 116.932 954.614 113.573 Q951.279 110.188 951.279 105.223 M955.528 103.617 L967.533 103.617 Q967.533 102.555 967.336 101.369 Q967.163 100.183 966.619 98.553 Q966.101 96.8978 964.865 95.8603 Q963.63 94.8228 961.802 94.8228 Q960.987 94.8228 960.098 95.1686 Q959.233 95.5145 958.171 96.3544 Q957.109 97.1943 956.367 99.0964 Q955.626 100.999 955.528 103.617 Z" fill="#000000" fill-rule="nonzero" fill-opacity="1" /></svg>
