<?xml version="1.0" encoding="utf-8"?>
<svg xmlns="http://www.w3.org/2000/svg" xmlns:xlink="http://www.w3.org/1999/xlink" width="350" height="250" viewBox="0 0 1400 1000">
<defs>
  <clipPath id="clip170">
    <rect x="0" y="0" width="1400" height="1000"/>
  </clipPath>
</defs>
<path clip-path="url(#clip170)" d="M0 1000 L1400 1000 L1400 0 L0 0  Z" fill="#ffffff" fill-rule="evenodd" fill-opacity="1"/>
<defs>
  <clipPath id="clip171">
    <rect x="280" y="0" width="981" height="981"/>
  </clipPath>
</defs>
<path clip-path="url(#clip170)" d="M279.325 823.317 L1352.76 823.317 L1352.76 176.793 L279.325 176.793  Z" fill="#ffffff" fill-rule="evenodd" fill-opacity="1"/>
<defs>
  <clipPath id="clip172">
    <rect x="279" y="176" width="1074" height="648"/>
  </clipPath>
</defs>
<polyline clip-path="url(#clip172)" style="stroke:#000000; stroke-linecap:round; stroke-linejoin:round; stroke-width:2; stroke-opacity:0.1; fill:none" points="309.705,823.317 309.705,176.793 "/>
<polyline clip-path="url(#clip172)" style="stroke:#000000; stroke-linecap:round; stroke-linejoin:round; stroke-width:2; stroke-opacity:0.1; fill:none" points="647.262,823.317 647.262,176.793 "/>
<polyline clip-path="url(#clip172)" style="stroke:#000000; stroke-linecap:round; stroke-linejoin:round; stroke-width:2; stroke-opacity:0.1; fill:none" points="984.819,823.317 984.819,176.793 "/>
<polyline clip-path="url(#clip172)" style="stroke:#000000; stroke-linecap:round; stroke-linejoin:round; stroke-width:2; stroke-opacity:0.1; fill:none" points="1322.38,823.317 1322.38,176.793 "/>
<polyline clip-path="url(#clip170)" style="stroke:#000000; stroke-linecap:round; stroke-linejoin:round; stroke-width:4; stroke-opacity:1; fill:none" points="279.325,823.317 1352.76,823.317 "/>
<polyline clip-path="url(#clip170)" style="stroke:#000000; stroke-linecap:round; stroke-linejoin:round; stroke-width:4; stroke-opacity:1; fill:none" points="309.705,823.317 309.705,807.574 "/>
<polyline clip-path="url(#clip170)" style="stroke:#000000; stroke-linecap:round; stroke-linejoin:round; stroke-width:4; stroke-opacity:1; fill:none" points="647.262,823.317 647.262,807.574 "/>
<polyline clip-path="url(#clip170)" style="stroke:#000000; stroke-linecap:round; stroke-linejoin:round; stroke-width:4; stroke-opacity:1; fill:none" points="984.819,823.317 984.819,807.574 "/>
<polyline clip-path="url(#clip170)" style="stroke:#000000; stroke-linecap:round; stroke-linejoin:round; stroke-width:4; stroke-opacity:1; fill:none" points="1322.38,823.317 1322.38,807.574 "/>
<path clip-path="url(#clip170)" d="M248.738 877.717 Q248.738 876.803 248.812 876.531 Q248.91 876.259 249.306 875.84 L259.014 865.019 Q264.325 859.041 264.325 853.829 Q264.325 850.444 262.547 848.024 Q260.793 845.603 257.557 845.603 Q255.333 845.603 253.456 846.961 Q251.578 848.32 250.714 850.741 Q250.862 850.692 251.381 850.692 Q252.641 850.692 253.332 851.482 Q254.049 852.273 254.049 853.335 Q254.049 854.693 253.159 855.36 Q252.295 856.003 251.43 856.003 Q251.084 856.003 250.615 855.929 Q250.17 855.855 249.454 855.163 Q248.738 854.446 248.738 853.187 Q248.738 849.654 251.405 846.838 Q254.098 844.022 258.199 844.022 Q262.843 844.022 265.882 846.788 Q268.945 849.53 268.945 853.829 Q268.945 855.336 268.475 856.719 Q268.031 858.078 267.413 859.14 Q266.82 860.202 265.19 861.907 Q263.56 863.611 262.25 864.822 Q260.941 866.032 258.001 868.601 L252.641 873.814 L261.756 873.814 Q266.203 873.814 266.549 873.419 Q267.043 872.702 267.66 868.923 L268.945 868.923 L267.512 877.717 L248.738 877.717 Z" fill="#000000" fill-rule="nonzero" fill-opacity="1" /><path clip-path="url(#clip170)" d="M274.034 869.565 Q274.034 868.058 274.849 867.49 Q275.664 866.897 276.529 866.897 Q277.69 866.897 278.357 867.638 Q279.049 868.354 279.049 869.367 Q279.049 870.38 278.357 871.121 Q277.69 871.838 276.529 871.838 Q275.961 871.838 275.664 871.739 Q276.331 874.061 278.357 875.741 Q280.407 877.421 283.1 877.421 Q286.484 877.421 288.51 874.135 Q289.72 872.011 289.72 867.193 Q289.72 862.944 288.806 860.82 Q287.398 857.584 284.508 857.584 Q280.407 857.584 277.986 861.116 Q277.69 861.561 277.344 861.586 Q276.85 861.586 276.726 861.314 Q276.628 861.018 276.628 860.252 L276.628 845.281 Q276.628 844.071 277.122 844.071 Q277.319 844.071 277.739 844.219 Q280.926 845.627 284.459 845.652 Q288.09 845.652 291.351 844.17 Q291.598 844.022 291.746 844.022 Q292.24 844.022 292.265 844.59 Q292.265 844.787 291.845 845.38 Q291.45 845.948 290.585 846.714 Q289.72 847.455 288.609 848.172 Q287.497 848.888 285.867 849.382 Q284.261 849.852 282.482 849.852 Q280.358 849.852 278.184 849.185 L278.184 859.041 Q280.802 856.472 284.607 856.472 Q288.658 856.472 291.45 859.733 Q294.241 862.994 294.241 867.539 Q294.241 872.307 290.931 875.568 Q287.645 878.829 283.199 878.829 Q279.147 878.829 276.578 875.938 Q274.034 873.048 274.034 869.565 Z" fill="#000000" fill-rule="nonzero" fill-opacity="1" /><path clip-path="url(#clip170)" d="M298.787 861.536 Q298.787 854.101 300.664 850.049 Q303.283 844.022 309.458 844.022 Q310.768 844.022 312.126 844.392 Q313.51 844.738 315.239 846.097 Q316.993 847.455 318.055 849.679 Q320.081 853.977 320.081 861.536 Q320.081 868.923 318.203 872.949 Q315.461 878.829 309.409 878.829 Q307.136 878.829 304.814 877.668 Q302.517 876.507 301.059 873.715 Q298.787 869.54 298.787 861.536 M302.986 860.919 Q302.986 868.552 303.53 871.591 Q304.147 874.876 305.827 876.309 Q307.532 877.717 309.409 877.717 Q311.435 877.717 313.114 876.21 Q314.819 874.678 315.338 871.393 Q315.906 868.157 315.881 860.919 Q315.881 853.878 315.387 851.062 Q314.72 847.777 312.942 846.467 Q311.188 845.133 309.409 845.133 Q308.742 845.133 308.026 845.331 Q307.334 845.529 306.321 846.097 Q305.308 846.665 304.518 848.073 Q303.752 849.481 303.381 851.606 Q302.986 854.348 302.986 860.919 Z" fill="#000000" fill-rule="nonzero" fill-opacity="1" /><path clip-path="url(#clip170)" d="M324.083 861.536 Q324.083 854.101 325.96 850.049 Q328.579 844.022 334.755 844.022 Q336.064 844.022 337.423 844.392 Q338.806 844.738 340.535 846.097 Q342.289 847.455 343.351 849.679 Q345.377 853.977 345.377 861.536 Q345.377 868.923 343.5 872.949 Q340.758 878.829 334.705 878.829 Q332.432 878.829 330.11 877.668 Q327.813 876.507 326.355 873.715 Q324.083 869.54 324.083 861.536 M328.282 860.919 Q328.282 868.552 328.826 871.591 Q329.443 874.876 331.123 876.309 Q332.828 877.717 334.705 877.717 Q336.731 877.717 338.411 876.21 Q340.115 874.678 340.634 871.393 Q341.202 868.157 341.177 860.919 Q341.177 853.878 340.683 851.062 Q340.016 847.777 338.238 846.467 Q336.484 845.133 334.705 845.133 Q334.038 845.133 333.322 845.331 Q332.63 845.529 331.617 846.097 Q330.604 846.665 329.814 848.073 Q329.048 849.481 328.678 851.606 Q328.282 854.348 328.282 860.919 Z" fill="#000000" fill-rule="nonzero" fill-opacity="1" /><path clip-path="url(#clip170)" d="M349.379 861.536 Q349.379 854.101 351.256 850.049 Q353.875 844.022 360.051 844.022 Q361.36 844.022 362.719 844.392 Q364.102 844.738 365.831 846.097 Q367.585 847.455 368.648 849.679 Q370.673 853.977 370.673 861.536 Q370.673 868.923 368.796 872.949 Q366.054 878.829 360.001 878.829 Q357.729 878.829 355.407 877.668 Q353.109 876.507 351.652 873.715 Q349.379 869.54 349.379 861.536 M353.579 860.919 Q353.579 868.552 354.122 871.591 Q354.74 874.876 356.419 876.309 Q358.124 877.717 360.001 877.717 Q362.027 877.717 363.707 876.21 Q365.411 874.678 365.93 871.393 Q366.498 868.157 366.474 860.919 Q366.474 853.878 365.98 851.062 Q365.313 847.777 363.534 846.467 Q361.78 845.133 360.001 845.133 Q359.334 845.133 358.618 845.331 Q357.926 845.529 356.914 846.097 Q355.901 846.665 355.11 848.073 Q354.344 849.481 353.974 851.606 Q353.579 854.348 353.579 860.919 Z" fill="#000000" fill-rule="nonzero" fill-opacity="1" /><path clip-path="url(#clip170)" d="M586.294 869.565 Q586.294 868.058 587.11 867.49 Q587.925 866.897 588.789 866.897 Q589.95 866.897 590.617 867.638 Q591.309 868.354 591.309 869.367 Q591.309 870.38 590.617 871.121 Q589.95 871.838 588.789 871.838 Q588.221 871.838 587.925 871.739 Q588.592 874.061 590.617 875.741 Q592.668 877.421 595.36 877.421 Q598.745 877.421 600.77 874.135 Q601.981 872.011 601.981 867.193 Q601.981 862.944 601.067 860.82 Q599.659 857.584 596.769 857.584 Q592.668 857.584 590.247 861.116 Q589.95 861.561 589.605 861.586 Q589.11 861.586 588.987 861.314 Q588.888 861.018 588.888 860.252 L588.888 845.281 Q588.888 844.071 589.382 844.071 Q589.58 844.071 590 844.219 Q593.187 845.627 596.719 845.652 Q600.351 845.652 603.611 844.17 Q603.858 844.022 604.007 844.022 Q604.501 844.022 604.525 844.59 Q604.525 844.787 604.105 845.38 Q603.71 845.948 602.846 846.714 Q601.981 847.455 600.869 848.172 Q599.758 848.888 598.127 849.382 Q596.522 849.852 594.743 849.852 Q592.618 849.852 590.444 849.185 L590.444 859.041 Q593.063 856.472 596.867 856.472 Q600.919 856.472 603.71 859.733 Q606.502 862.994 606.502 867.539 Q606.502 872.307 603.191 875.568 Q599.906 878.829 595.459 878.829 Q591.408 878.829 588.839 875.938 Q586.294 873.048 586.294 869.565 Z" fill="#000000" fill-rule="nonzero" fill-opacity="1" /><path clip-path="url(#clip170)" d="M611.047 861.536 Q611.047 854.101 612.925 850.049 Q615.543 844.022 621.719 844.022 Q623.028 844.022 624.387 844.392 Q625.77 844.738 627.5 846.097 Q629.253 847.455 630.316 849.679 Q632.341 853.977 632.341 861.536 Q632.341 868.923 630.464 872.949 Q627.722 878.829 621.67 878.829 Q619.397 878.829 617.075 877.668 Q614.777 876.507 613.32 873.715 Q611.047 869.54 611.047 861.536 M615.247 860.919 Q615.247 868.552 615.79 871.591 Q616.408 874.876 618.088 876.309 Q619.792 877.717 621.67 877.717 Q623.695 877.717 625.375 876.21 Q627.08 874.678 627.598 871.393 Q628.167 868.157 628.142 860.919 Q628.142 853.878 627.648 851.062 Q626.981 847.777 625.202 846.467 Q623.448 845.133 621.67 845.133 Q621.003 845.133 620.286 845.331 Q619.594 845.529 618.582 846.097 Q617.569 846.665 616.778 848.073 Q616.012 849.481 615.642 851.606 Q615.247 854.348 615.247 860.919 Z" fill="#000000" fill-rule="nonzero" fill-opacity="1" /><path clip-path="url(#clip170)" d="M636.343 861.536 Q636.343 854.101 638.221 850.049 Q640.839 844.022 647.015 844.022 Q648.324 844.022 649.683 844.392 Q651.067 844.738 652.796 846.097 Q654.55 847.455 655.612 849.679 Q657.638 853.977 657.638 861.536 Q657.638 868.923 655.76 872.949 Q653.018 878.829 646.966 878.829 Q644.693 878.829 642.371 877.668 Q640.074 876.507 638.616 873.715 Q636.343 869.54 636.343 861.536 M640.543 860.919 Q640.543 868.552 641.086 871.591 Q641.704 874.876 643.384 876.309 Q645.088 877.717 646.966 877.717 Q648.991 877.717 650.671 876.21 Q652.376 874.678 652.895 871.393 Q653.463 868.157 653.438 860.919 Q653.438 853.878 652.944 851.062 Q652.277 847.777 650.498 846.467 Q648.744 845.133 646.966 845.133 Q646.299 845.133 645.582 845.331 Q644.891 845.529 643.878 846.097 Q642.865 846.665 642.074 848.073 Q641.309 849.481 640.938 851.606 Q640.543 854.348 640.543 860.919 Z" fill="#000000" fill-rule="nonzero" fill-opacity="1" /><path clip-path="url(#clip170)" d="M661.64 861.536 Q661.64 854.101 663.517 850.049 Q666.136 844.022 672.311 844.022 Q673.621 844.022 674.979 844.392 Q676.363 844.738 678.092 846.097 Q679.846 847.455 680.908 849.679 Q682.934 853.977 682.934 861.536 Q682.934 868.923 681.056 872.949 Q678.314 878.829 672.262 878.829 Q669.989 878.829 667.667 877.668 Q665.37 876.507 663.912 873.715 Q661.64 869.54 661.64 861.536 M665.839 860.919 Q665.839 868.552 666.383 871.591 Q667 874.876 668.68 876.309 Q670.385 877.717 672.262 877.717 Q674.288 877.717 675.968 876.21 Q677.672 874.678 678.191 871.393 Q678.759 868.157 678.734 860.919 Q678.734 853.878 678.24 851.062 Q677.573 847.777 675.795 846.467 Q674.041 845.133 672.262 845.133 Q671.595 845.133 670.879 845.331 Q670.187 845.529 669.174 846.097 Q668.161 846.665 667.371 848.073 Q666.605 849.481 666.234 851.606 Q665.839 854.348 665.839 860.919 Z" fill="#000000" fill-rule="nonzero" fill-opacity="1" /><path clip-path="url(#clip170)" d="M686.936 861.536 Q686.936 854.101 688.813 850.049 Q691.432 844.022 697.608 844.022 Q698.917 844.022 700.276 844.392 Q701.659 844.738 703.388 846.097 Q705.142 847.455 706.204 849.679 Q708.23 853.977 708.23 861.536 Q708.23 868.923 706.353 872.949 Q703.611 878.829 697.558 878.829 Q695.286 878.829 692.963 877.668 Q690.666 876.507 689.209 873.715 Q686.936 869.54 686.936 861.536 M691.135 860.919 Q691.135 868.552 691.679 871.591 Q692.296 874.876 693.976 876.309 Q695.681 877.717 697.558 877.717 Q699.584 877.717 701.264 876.21 Q702.968 874.678 703.487 871.393 Q704.055 868.157 704.031 860.919 Q704.031 853.878 703.536 851.062 Q702.869 847.777 701.091 846.467 Q699.337 845.133 697.558 845.133 Q696.891 845.133 696.175 845.331 Q695.483 845.529 694.47 846.097 Q693.457 846.665 692.667 848.073 Q691.901 849.481 691.531 851.606 Q691.135 854.348 691.135 860.919 Z" fill="#000000" fill-rule="nonzero" fill-opacity="1" /><path clip-path="url(#clip170)" d="M912.191 848.839 L912.191 847.258 Q918.268 847.258 921.405 844.022 Q922.27 844.022 922.418 844.219 Q922.567 844.417 922.567 845.331 L922.567 873.715 Q922.567 875.222 923.308 875.691 Q924.049 876.161 927.285 876.161 L928.891 876.161 L928.891 877.717 Q927.112 877.569 920.689 877.569 Q914.266 877.569 912.512 877.717 L912.512 876.161 L914.118 876.161 Q917.305 876.161 918.071 875.716 Q918.836 875.247 918.836 873.715 L918.836 847.505 Q916.193 848.839 912.191 848.839 Z" fill="#000000" fill-rule="nonzero" fill-opacity="1" /><path clip-path="url(#clip170)" d="M934.968 861.536 Q934.968 854.101 936.845 850.049 Q939.464 844.022 945.639 844.022 Q946.949 844.022 948.307 844.392 Q949.691 844.738 951.42 846.097 Q953.174 847.455 954.236 849.679 Q956.262 853.977 956.262 861.536 Q956.262 868.923 954.384 872.949 Q951.642 878.829 945.59 878.829 Q943.317 878.829 940.995 877.668 Q938.698 876.507 937.24 873.715 Q934.968 869.54 934.968 861.536 M939.167 860.919 Q939.167 868.552 939.711 871.591 Q940.328 874.876 942.008 876.309 Q943.713 877.717 945.59 877.717 Q947.616 877.717 949.296 876.21 Q951 874.678 951.519 871.393 Q952.087 868.157 952.062 860.919 Q952.062 853.878 951.568 851.062 Q950.901 847.777 949.123 846.467 Q947.369 845.133 945.59 845.133 Q944.923 845.133 944.207 845.331 Q943.515 845.529 942.502 846.097 Q941.489 846.665 940.699 848.073 Q939.933 849.481 939.562 851.606 Q939.167 854.348 939.167 860.919 Z" fill="#000000" fill-rule="nonzero" fill-opacity="1" /><path clip-path="url(#clip170)" d="M960.264 861.536 Q960.264 854.101 962.141 850.049 Q964.76 844.022 970.936 844.022 Q972.245 844.022 973.604 844.392 Q974.987 844.738 976.716 846.097 Q978.47 847.455 979.532 849.679 Q981.558 853.977 981.558 861.536 Q981.558 868.923 979.681 872.949 Q976.939 878.829 970.886 878.829 Q968.614 878.829 966.291 877.668 Q963.994 876.507 962.537 873.715 Q960.264 869.54 960.264 861.536 M964.463 860.919 Q964.463 868.552 965.007 871.591 Q965.624 874.876 967.304 876.309 Q969.009 877.717 970.886 877.717 Q972.912 877.717 974.592 876.21 Q976.296 874.678 976.815 871.393 Q977.383 868.157 977.359 860.919 Q977.359 853.878 976.865 851.062 Q976.198 847.777 974.419 846.467 Q972.665 845.133 970.886 845.133 Q970.219 845.133 969.503 845.331 Q968.811 845.529 967.798 846.097 Q966.786 846.665 965.995 848.073 Q965.229 849.481 964.859 851.606 Q964.463 854.348 964.463 860.919 Z" fill="#000000" fill-rule="nonzero" fill-opacity="1" /><path clip-path="url(#clip170)" d="M985.56 861.536 Q985.56 854.101 987.438 850.049 Q990.056 844.022 996.232 844.022 Q997.541 844.022 998.9 844.392 Q1000.28 844.738 1002.01 846.097 Q1003.77 847.455 1004.83 849.679 Q1006.85 853.977 1006.85 861.536 Q1006.85 868.923 1004.98 872.949 Q1002.23 878.829 996.183 878.829 Q993.91 878.829 991.588 877.668 Q989.29 876.507 987.833 873.715 Q985.56 869.54 985.56 861.536 M989.76 860.919 Q989.76 868.552 990.303 871.591 Q990.921 874.876 992.601 876.309 Q994.305 877.717 996.183 877.717 Q998.208 877.717 999.888 876.21 Q1001.59 874.678 1002.11 871.393 Q1002.68 868.157 1002.65 860.919 Q1002.65 853.878 1002.16 851.062 Q1001.49 847.777 999.715 846.467 Q997.961 845.133 996.183 845.133 Q995.516 845.133 994.799 845.331 Q994.107 845.529 993.095 846.097 Q992.082 846.665 991.291 848.073 Q990.525 849.481 990.155 851.606 Q989.76 854.348 989.76 860.919 Z" fill="#000000" fill-rule="nonzero" fill-opacity="1" /><path clip-path="url(#clip170)" d="M1010.86 861.536 Q1010.86 854.101 1012.73 850.049 Q1015.35 844.022 1021.53 844.022 Q1022.84 844.022 1024.2 844.392 Q1025.58 844.738 1027.31 846.097 Q1029.06 847.455 1030.12 849.679 Q1032.15 853.977 1032.15 861.536 Q1032.15 868.923 1030.27 872.949 Q1027.53 878.829 1021.48 878.829 Q1019.21 878.829 1016.88 877.668 Q1014.59 876.507 1013.13 873.715 Q1010.86 869.54 1010.86 861.536 M1015.06 860.919 Q1015.06 868.552 1015.6 871.591 Q1016.22 874.876 1017.9 876.309 Q1019.6 877.717 1021.48 877.717 Q1023.5 877.717 1025.18 876.21 Q1026.89 874.678 1027.41 871.393 Q1027.98 868.157 1027.95 860.919 Q1027.95 853.878 1027.46 851.062 Q1026.79 847.777 1025.01 846.467 Q1023.26 845.133 1021.48 845.133 Q1020.81 845.133 1020.1 845.331 Q1019.4 845.529 1018.39 846.097 Q1017.38 846.665 1016.59 848.073 Q1015.82 849.481 1015.45 851.606 Q1015.06 854.348 1015.06 860.919 Z" fill="#000000" fill-rule="nonzero" fill-opacity="1" /><path clip-path="url(#clip170)" d="M1036.15 861.536 Q1036.15 854.101 1038.03 850.049 Q1040.65 844.022 1046.82 844.022 Q1048.13 844.022 1049.49 844.392 Q1050.88 844.738 1052.61 846.097 Q1054.36 847.455 1055.42 849.679 Q1057.45 853.977 1057.45 861.536 Q1057.45 868.923 1055.57 872.949 Q1052.83 878.829 1046.78 878.829 Q1044.5 878.829 1042.18 877.668 Q1039.88 876.507 1038.43 873.715 Q1036.15 869.54 1036.15 861.536 M1040.35 860.919 Q1040.35 868.552 1040.9 871.591 Q1041.51 874.876 1043.19 876.309 Q1044.9 877.717 1046.78 877.717 Q1048.8 877.717 1050.48 876.21 Q1052.19 874.678 1052.7 871.393 Q1053.27 868.157 1053.25 860.919 Q1053.25 853.878 1052.75 851.062 Q1052.09 847.777 1050.31 846.467 Q1048.55 845.133 1046.78 845.133 Q1046.11 845.133 1045.39 845.331 Q1044.7 845.529 1043.69 846.097 Q1042.67 846.665 1041.88 848.073 Q1041.12 849.481 1040.75 851.606 Q1040.35 854.348 1040.35 860.919 Z" fill="#000000" fill-rule="nonzero" fill-opacity="1" /><path clip-path="url(#clip170)" d="M1248.76 877.717 Q1248.76 876.803 1248.83 876.531 Q1248.93 876.259 1249.33 875.84 L1259.04 865.019 Q1264.35 859.041 1264.35 853.829 Q1264.35 850.444 1262.57 848.024 Q1260.82 845.603 1257.58 845.603 Q1255.36 845.603 1253.48 846.961 Q1251.6 848.32 1250.74 850.741 Q1250.88 850.692 1251.4 850.692 Q1252.66 850.692 1253.35 851.482 Q1254.07 852.273 1254.07 853.335 Q1254.07 854.693 1253.18 855.36 Q1252.32 856.003 1251.45 856.003 Q1251.11 856.003 1250.64 855.929 Q1250.19 855.855 1249.48 855.163 Q1248.76 854.446 1248.76 853.187 Q1248.76 849.654 1251.43 846.838 Q1254.12 844.022 1258.22 844.022 Q1262.87 844.022 1265.9 846.788 Q1268.97 849.53 1268.97 853.829 Q1268.97 855.336 1268.5 856.719 Q1268.05 858.078 1267.44 859.14 Q1266.84 860.202 1265.21 861.907 Q1263.58 863.611 1262.27 864.822 Q1260.96 866.032 1258.02 868.601 L1252.66 873.814 L1261.78 873.814 Q1266.23 873.814 1266.57 873.419 Q1267.06 872.702 1267.68 868.923 L1268.97 868.923 L1267.53 877.717 L1248.76 877.717 Z" fill="#000000" fill-rule="nonzero" fill-opacity="1" /><path clip-path="url(#clip170)" d="M1273.51 861.536 Q1273.51 854.101 1275.39 850.049 Q1278.01 844.022 1284.18 844.022 Q1285.49 844.022 1286.85 844.392 Q1288.24 844.738 1289.96 846.097 Q1291.72 847.455 1292.78 849.679 Q1294.81 853.977 1294.81 861.536 Q1294.81 868.923 1292.93 872.949 Q1290.19 878.829 1284.13 878.829 Q1281.86 878.829 1279.54 877.668 Q1277.24 876.507 1275.79 873.715 Q1273.51 869.54 1273.51 861.536 M1277.71 860.919 Q1277.71 868.552 1278.26 871.591 Q1278.87 874.876 1280.55 876.309 Q1282.26 877.717 1284.13 877.717 Q1286.16 877.717 1287.84 876.21 Q1289.55 874.678 1290.06 871.393 Q1290.63 868.157 1290.61 860.919 Q1290.61 853.878 1290.11 851.062 Q1289.45 847.777 1287.67 846.467 Q1285.91 845.133 1284.13 845.133 Q1283.47 845.133 1282.75 845.331 Q1282.06 845.529 1281.05 846.097 Q1280.03 846.665 1279.24 848.073 Q1278.48 849.481 1278.11 851.606 Q1277.71 854.348 1277.71 860.919 Z" fill="#000000" fill-rule="nonzero" fill-opacity="1" /><path clip-path="url(#clip170)" d="M1298.81 861.536 Q1298.81 854.101 1300.69 850.049 Q1303.3 844.022 1309.48 844.022 Q1310.79 844.022 1312.15 844.392 Q1313.53 844.738 1315.26 846.097 Q1317.02 847.455 1318.08 849.679 Q1320.1 853.977 1320.1 861.536 Q1320.1 868.923 1318.23 872.949 Q1315.48 878.829 1309.43 878.829 Q1307.16 878.829 1304.84 877.668 Q1302.54 876.507 1301.08 873.715 Q1298.81 869.54 1298.81 861.536 M1303.01 860.919 Q1303.01 868.552 1303.55 871.591 Q1304.17 874.876 1305.85 876.309 Q1307.55 877.717 1309.43 877.717 Q1311.46 877.717 1313.14 876.21 Q1314.84 874.678 1315.36 871.393 Q1315.93 868.157 1315.9 860.919 Q1315.9 853.878 1315.41 851.062 Q1314.74 847.777 1312.96 846.467 Q1311.21 845.133 1309.43 845.133 Q1308.76 845.133 1308.05 845.331 Q1307.36 845.529 1306.34 846.097 Q1305.33 846.665 1304.54 848.073 Q1303.77 849.481 1303.4 851.606 Q1303.01 854.348 1303.01 860.919 Z" fill="#000000" fill-rule="nonzero" fill-opacity="1" /><path clip-path="url(#clip170)" d="M1324.11 861.536 Q1324.11 854.101 1325.98 850.049 Q1328.6 844.022 1334.78 844.022 Q1336.09 844.022 1337.44 844.392 Q1338.83 844.738 1340.56 846.097 Q1342.31 847.455 1343.37 849.679 Q1345.4 853.977 1345.4 861.536 Q1345.4 868.923 1343.52 872.949 Q1340.78 878.829 1334.73 878.829 Q1332.45 878.829 1330.13 877.668 Q1327.84 876.507 1326.38 873.715 Q1324.11 869.54 1324.11 861.536 M1328.3 860.919 Q1328.3 868.552 1328.85 871.591 Q1329.47 874.876 1331.15 876.309 Q1332.85 877.717 1334.73 877.717 Q1336.75 877.717 1338.43 876.21 Q1340.14 874.678 1340.66 871.393 Q1341.22 868.157 1341.2 860.919 Q1341.2 853.878 1340.71 851.062 Q1340.04 847.777 1338.26 846.467 Q1336.51 845.133 1334.73 845.133 Q1334.06 845.133 1333.34 845.331 Q1332.65 845.529 1331.64 846.097 Q1330.63 846.665 1329.84 848.073 Q1329.07 849.481 1328.7 851.606 Q1328.3 854.348 1328.3 860.919 Z" fill="#000000" fill-rule="nonzero" fill-opacity="1" /><path clip-path="url(#clip170)" d="M1349.4 861.536 Q1349.4 854.101 1351.28 850.049 Q1353.9 844.022 1360.07 844.022 Q1361.38 844.022 1362.74 844.392 Q1364.12 844.738 1365.85 846.097 Q1367.61 847.455 1368.67 849.679 Q1370.7 853.977 1370.7 861.536 Q1370.7 868.923 1368.82 872.949 Q1366.08 878.829 1360.02 878.829 Q1357.75 878.829 1355.43 877.668 Q1353.13 876.507 1351.67 873.715 Q1349.4 869.54 1349.4 861.536 M1353.6 860.919 Q1353.6 868.552 1354.14 871.591 Q1354.76 874.876 1356.44 876.309 Q1358.15 877.717 1360.02 877.717 Q1362.05 877.717 1363.73 876.21 Q1365.43 874.678 1365.95 871.393 Q1366.52 868.157 1366.5 860.919 Q1366.5 853.878 1366 851.062 Q1365.33 847.777 1363.56 846.467 Q1361.8 845.133 1360.02 845.133 Q1359.36 845.133 1358.64 845.331 Q1357.95 845.529 1356.94 846.097 Q1355.92 846.665 1355.13 848.073 Q1354.37 849.481 1354 851.606 Q1353.6 854.348 1353.6 860.919 Z" fill="#000000" fill-rule="nonzero" fill-opacity="1" /><path clip-path="url(#clip170)" d="M1374.7 861.536 Q1374.7 854.101 1376.57 850.049 Q1379.19 844.022 1385.37 844.022 Q1386.68 844.022 1388.04 844.392 Q1389.42 844.738 1391.15 846.097 Q1392.9 847.455 1393.97 849.679 Q1395.99 853.977 1395.99 861.536 Q1395.99 868.923 1394.11 872.949 Q1391.37 878.829 1385.32 878.829 Q1383.05 878.829 1380.73 877.668 Q1378.43 876.507 1376.97 873.715 Q1374.7 869.54 1374.7 861.536 M1378.9 860.919 Q1378.9 868.552 1379.44 871.591 Q1380.06 874.876 1381.74 876.309 Q1383.44 877.717 1385.32 877.717 Q1387.35 877.717 1389.03 876.21 Q1390.73 874.678 1391.25 871.393 Q1391.82 868.157 1391.79 860.919 Q1391.79 853.878 1391.3 851.062 Q1390.63 847.777 1388.85 846.467 Q1387.1 845.133 1385.32 845.133 Q1384.65 845.133 1383.94 845.331 Q1383.24 845.529 1382.23 846.097 Q1381.22 846.665 1380.43 848.073 Q1379.66 849.481 1379.29 851.606 Q1378.9 854.348 1378.9 860.919 Z" fill="#000000" fill-rule="nonzero" fill-opacity="1" /><path clip-path="url(#clip170)" d="M553.645 921.727 L554.969 906.103 L597.462 906.103 L598.787 921.727 L597.055 921.727 Q596.783 918.602 596.511 916.802 Q596.273 915.002 595.662 913.304 Q595.084 911.571 594.337 910.756 Q593.624 909.907 592.231 909.262 Q590.839 908.582 589.038 908.412 Q587.238 908.242 584.521 908.242 Q581.328 908.242 580.547 908.378 Q579.697 908.582 579.494 909.194 Q579.29 909.771 579.29 911.028 L579.29 947.678 Q579.29 949.071 579.562 949.648 Q579.867 950.192 581.464 950.633 Q583.06 951.041 586.593 951.041 L589.378 951.041 L589.378 953.181 Q586.525 952.977 576.165 952.977 Q565.873 952.977 563.02 953.181 L563.02 951.041 L565.805 951.041 Q569.337 951.041 570.934 950.633 Q572.564 950.192 572.836 949.648 Q573.108 949.071 573.108 947.678 L573.108 911.028 Q573.108 910.043 573.04 909.635 Q572.972 909.228 572.666 908.888 Q572.36 908.514 571.647 908.378 Q570.968 908.242 567.911 908.242 Q565.193 908.242 563.359 908.412 Q561.559 908.582 560.166 909.262 Q558.774 909.907 558.026 910.756 Q557.313 911.571 556.702 913.304 Q556.124 915.002 555.886 916.802 Q555.649 918.602 555.377 921.727 L553.645 921.727 Z" fill="#000000" fill-rule="nonzero" fill-opacity="1" /><path clip-path="url(#clip170)" d="M597.496 953.181 L597.496 951.041 Q601.199 951.041 602.048 950.599 Q602.931 950.124 602.931 947.882 L602.931 929.234 Q602.931 926.653 602.014 926.007 Q601.131 925.362 597.496 925.362 L597.496 923.188 L607.177 922.441 L607.177 930.083 Q608.162 927.094 610.234 924.784 Q612.34 922.441 615.736 922.441 Q617.978 922.441 619.405 923.698 Q620.866 924.954 620.866 926.687 Q620.866 928.215 619.914 928.996 Q618.997 929.744 617.876 929.744 Q616.62 929.744 615.736 928.962 Q614.887 928.147 614.887 926.755 Q614.887 925.905 615.261 925.26 Q615.669 924.581 615.974 924.343 Q616.28 924.105 616.484 924.037 Q616.348 923.969 615.736 923.969 Q611.898 923.969 609.69 927.808 Q607.516 931.612 607.516 937.047 L607.516 947.746 Q607.516 949.75 608.332 950.396 Q609.181 951.041 612.815 951.041 L614.276 951.041 L614.276 953.181 Q611.491 952.977 605.444 952.977 Q604.595 952.977 603.271 953.011 Q601.946 953.045 600.214 953.113 Q598.481 953.181 597.496 953.181 Z" fill="#000000" fill-rule="nonzero" fill-opacity="1" /><path clip-path="url(#clip170)" d="M625.655 946.557 Q625.655 940.647 632.618 937.522 Q636.796 935.518 645.424 935.009 L645.424 932.461 Q645.424 928.147 643.148 925.871 Q640.906 923.562 638.053 923.562 Q632.958 923.562 630.512 926.755 Q632.584 926.823 633.331 927.875 Q634.079 928.894 634.079 929.947 Q634.079 931.34 633.196 932.257 Q632.346 933.14 630.886 933.14 Q629.493 933.14 628.576 932.291 Q627.659 931.408 627.659 929.88 Q627.659 926.483 630.716 924.241 Q633.807 921.999 638.189 921.999 Q643.895 921.999 647.7 925.837 Q648.888 927.026 649.466 928.555 Q650.077 930.083 650.145 931.102 Q650.213 932.087 650.213 934.057 L650.213 947.95 Q650.213 948.358 650.349 949.037 Q650.485 949.716 651.096 950.599 Q651.742 951.449 652.795 951.449 Q655.308 951.449 655.274 946.999 L655.274 943.093 L657.041 943.093 L657.041 946.999 Q657.041 950.701 655.07 952.162 Q653.134 953.589 651.334 953.589 Q649.024 953.589 647.564 951.89 Q646.103 950.192 645.899 947.882 Q644.846 950.532 642.435 952.264 Q640.057 953.962 636.796 953.962 Q634.283 953.962 631.905 953.317 Q629.561 952.705 627.591 950.973 Q625.655 949.207 625.655 946.557 M631.022 946.489 Q631.022 949.071 632.856 950.735 Q634.69 952.4 637.272 952.4 Q640.193 952.4 642.808 950.158 Q645.424 947.882 645.424 943.432 L645.424 936.469 Q637.713 936.741 634.35 939.832 Q631.022 942.889 631.022 946.489 Z" fill="#000000" fill-rule="nonzero" fill-opacity="1" /><path clip-path="url(#clip170)" d="M659.826 953.181 L659.826 951.041 Q663.528 951.041 664.377 950.599 Q665.227 950.124 665.227 947.882 L665.227 929.166 Q665.227 926.585 664.343 925.973 Q663.494 925.362 660.098 925.362 L660.098 923.188 L669.812 922.441 L669.812 947.95 Q669.812 950.022 670.559 950.532 Q671.307 951.041 674.703 951.041 L674.703 953.181 Q667.604 952.977 667.468 952.977 Q666.517 952.977 659.826 953.181 M662.747 910.314 Q662.747 908.922 663.8 907.801 Q664.887 906.646 666.415 906.646 Q667.944 906.646 669.031 907.699 Q670.118 908.718 670.118 910.348 Q670.118 911.945 669.031 912.998 Q667.944 914.017 666.415 914.017 Q664.819 914.017 663.766 912.896 Q662.747 911.775 662.747 910.314 Z" fill="#000000" fill-rule="nonzero" fill-opacity="1" /><path clip-path="url(#clip170)" d="M679.017 953.181 L679.017 951.041 Q682.72 951.041 683.569 950.599 Q684.418 950.124 684.418 947.882 L684.418 929.234 Q684.418 926.653 683.501 926.007 Q682.618 925.362 679.017 925.362 L679.017 923.188 L688.8 922.441 L688.8 929.744 Q692.061 922.441 699.092 922.441 Q704.323 922.441 706.395 925.022 Q707.923 926.755 708.229 928.691 Q708.569 930.627 708.569 935.654 L708.569 948.935 Q708.637 950.396 709.757 950.735 Q710.878 951.041 714.003 951.041 L714.003 953.181 Q706.904 952.977 706.191 952.977 Q705.647 952.977 698.345 953.181 L698.345 951.041 Q702.047 951.041 702.896 950.599 Q703.779 950.124 703.779 947.882 L703.779 931.68 Q703.779 928.147 702.692 926.075 Q701.605 923.969 698.616 923.969 Q695.016 923.969 692.129 926.992 Q689.241 930.015 689.241 935.11 L689.241 947.882 Q689.241 950.124 690.091 950.599 Q690.974 951.041 694.642 951.041 L694.642 953.181 Q687.543 952.977 686.864 952.977 Q686.32 952.977 679.017 953.181 Z" fill="#000000" fill-rule="nonzero" fill-opacity="1" /><path clip-path="url(#clip170)" d="M717.672 953.181 L717.672 951.041 Q721.374 951.041 722.223 950.599 Q723.073 950.124 723.073 947.882 L723.073 929.166 Q723.073 926.585 722.189 925.973 Q721.34 925.362 717.944 925.362 L717.944 923.188 L727.658 922.441 L727.658 947.95 Q727.658 950.022 728.405 950.532 Q729.153 951.041 732.549 951.041 L732.549 953.181 Q725.45 952.977 725.314 952.977 Q724.363 952.977 717.672 953.181 M720.593 910.314 Q720.593 908.922 721.646 907.801 Q722.733 906.646 724.261 906.646 Q725.79 906.646 726.877 907.699 Q727.964 908.718 727.964 910.348 Q727.964 911.945 726.877 912.998 Q725.79 914.017 724.261 914.017 Q722.665 914.017 721.612 912.896 Q720.593 911.775 720.593 910.314 Z" fill="#000000" fill-rule="nonzero" fill-opacity="1" /><path clip-path="url(#clip170)" d="M736.863 953.181 L736.863 951.041 Q740.566 951.041 741.415 950.599 Q742.264 950.124 742.264 947.882 L742.264 929.234 Q742.264 926.653 741.347 926.007 Q740.464 925.362 736.863 925.362 L736.863 923.188 L746.646 922.441 L746.646 929.744 Q749.907 922.441 756.938 922.441 Q762.169 922.441 764.241 925.022 Q765.769 926.755 766.075 928.691 Q766.415 930.627 766.415 935.654 L766.415 948.935 Q766.483 950.396 767.603 950.735 Q768.724 951.041 771.849 951.041 L771.849 953.181 Q764.75 952.977 764.037 952.977 Q763.493 952.977 756.191 953.181 L756.191 951.041 Q759.893 951.041 760.742 950.599 Q761.625 950.124 761.625 947.882 L761.625 931.68 Q761.625 928.147 760.538 926.075 Q759.451 923.969 756.462 923.969 Q752.862 923.969 749.975 926.992 Q747.087 930.015 747.087 935.11 L747.087 947.882 Q747.087 950.124 747.937 950.599 Q748.82 951.041 752.488 951.041 L752.488 953.181 Q745.389 952.977 744.71 952.977 Q744.166 952.977 736.863 953.181 Z" fill="#000000" fill-rule="nonzero" fill-opacity="1" /><path clip-path="url(#clip170)" d="M775.144 958.684 Q775.144 956.442 776.843 954.506 Q778.575 952.57 781.564 951.72 Q778.507 949.784 778.507 945.538 Q778.507 942.278 780.647 939.764 Q777.386 937.047 777.386 932.597 Q777.386 928.487 780.647 925.464 Q783.908 922.441 788.663 922.441 Q792.841 922.441 796.034 924.954 Q799.363 921.693 803.405 921.659 Q805.205 921.659 806.054 922.78 Q806.937 923.901 806.937 925.09 Q806.937 926.143 806.258 926.653 Q805.613 927.162 804.933 927.162 Q804.084 927.162 803.473 926.619 Q802.895 926.041 802.895 925.158 Q802.895 923.698 804.016 923.256 Q803.812 923.188 803.337 923.188 Q799.94 923.188 797.053 925.905 Q799.906 928.555 799.906 932.665 Q799.906 936.775 796.645 939.798 Q793.385 942.821 788.663 942.821 Q784.757 942.821 781.768 940.647 Q780.579 942.04 780.579 943.942 Q780.579 945.674 781.632 947.033 Q782.685 948.392 784.281 948.595 Q784.757 948.663 789.478 948.663 Q792.264 948.663 793.792 948.731 Q795.321 948.799 797.495 949.275 Q799.702 949.716 801.435 950.599 Q805.952 953.113 805.986 958.548 Q805.986 962.522 801.401 965.002 Q796.849 967.515 790.531 967.515 Q784.145 967.515 779.628 964.968 Q775.144 962.454 775.144 958.684 M778.779 958.684 Q778.779 961.537 782.141 963.711 Q785.504 965.919 790.599 965.919 Q795.592 965.919 798.955 963.745 Q802.352 961.605 802.352 958.684 Q802.352 956.612 801.163 955.287 Q799.974 953.962 797.529 953.419 Q795.117 952.909 793.418 952.807 Q791.72 952.705 788.595 952.705 L784.485 952.705 Q782.107 952.841 780.443 954.574 Q778.779 956.306 778.779 958.684 M782.583 932.665 Q782.583 941.225 788.663 941.225 Q791.72 941.225 793.588 938.439 Q794.709 936.571 794.709 932.597 Q794.709 924.037 788.663 924.037 Q785.606 924.037 783.704 926.823 Q782.583 928.691 782.583 932.665 Z" fill="#000000" fill-rule="nonzero" fill-opacity="1" /><path clip-path="url(#clip170)" d="M833.058 937.862 Q833.058 931.306 837.27 926.653 Q841.482 921.999 847.528 921.999 Q853.642 921.999 856.801 925.973 Q859.994 929.947 859.994 935.654 Q859.994 936.707 859.722 936.911 Q859.451 937.115 858.262 937.115 L838.833 937.115 Q838.833 944.214 840.938 947.542 Q843.86 952.196 848.785 952.196 Q849.464 952.196 850.279 952.06 Q851.095 951.924 852.759 951.347 Q854.423 950.735 855.884 949.139 Q857.345 947.542 858.194 945.029 Q858.398 944.044 859.077 944.078 Q859.994 944.078 859.994 944.893 Q859.994 945.504 859.315 946.897 Q858.669 948.256 857.413 949.886 Q856.156 951.517 853.71 952.739 Q851.298 953.962 848.377 953.962 Q842.263 953.962 837.644 949.343 Q833.058 944.689 833.058 937.862 M838.9 935.654 L855.408 935.654 Q855.408 934.193 855.137 932.563 Q854.899 930.933 854.152 928.691 Q853.438 926.415 851.74 924.988 Q850.042 923.562 847.528 923.562 Q846.407 923.562 845.184 924.037 Q843.996 924.513 842.535 925.668 Q841.074 926.823 840.055 929.438 Q839.036 932.053 838.9 935.654 Z" fill="#000000" fill-rule="nonzero" fill-opacity="1" /><path clip-path="url(#clip170)" d="M863.934 964.526 Q867.637 964.526 868.486 964.05 Q869.369 963.609 869.369 961.401 L869.369 928.827 Q869.369 926.517 868.486 925.939 Q867.637 925.362 863.934 925.362 L863.934 923.188 L873.955 922.441 L873.955 927.026 Q878.132 922.441 883.703 922.441 Q889.613 922.441 893.927 927.026 Q898.241 931.612 898.241 938.168 Q898.241 944.791 893.655 949.377 Q889.07 953.962 882.718 953.962 Q879.253 953.962 876.91 952.196 Q874.6 950.396 874.158 949.071 L874.158 949.716 L874.158 961.401 Q874.158 963.643 875.041 964.084 Q875.925 964.526 879.593 964.526 L879.593 966.666 Q872.29 966.462 871.747 966.462 Q871.067 966.462 863.934 966.666 L863.934 964.526 M874.158 945.267 Q874.158 946.32 874.294 946.693 Q874.464 947.067 875.143 948.188 Q877.895 952.4 882.378 952.4 Q882.412 952.4 882.446 952.4 Q886.42 952.4 889.444 948.358 Q892.467 944.282 892.467 938.168 Q892.467 932.325 889.715 928.249 Q886.964 924.173 883.16 924.173 Q880.442 924.173 878.065 925.634 Q875.687 927.094 874.158 929.744 L874.158 945.267 Z" fill="#000000" fill-rule="nonzero" fill-opacity="1" /><path clip-path="url(#clip170)" d="M902.895 953.181 L902.895 951.041 Q906.597 951.041 907.446 950.599 Q908.295 950.124 908.295 947.882 L908.295 929.166 Q908.295 926.585 907.412 925.973 Q906.563 925.362 903.166 925.362 L903.166 923.188 L912.881 922.441 L912.881 947.95 Q912.881 950.022 913.628 950.532 Q914.375 951.041 917.772 951.041 L917.772 953.181 Q910.673 952.977 910.537 952.977 Q909.586 952.977 902.895 953.181 M905.816 910.314 Q905.816 908.922 906.869 907.801 Q907.956 906.646 909.484 906.646 Q911.013 906.646 912.1 907.699 Q913.187 908.718 913.187 910.348 Q913.187 911.945 912.1 912.998 Q911.013 914.017 909.484 914.017 Q907.888 914.017 906.835 912.896 Q905.816 911.775 905.816 910.314 Z" fill="#000000" fill-rule="nonzero" fill-opacity="1" /><path clip-path="url(#clip170)" d="M922.154 952.264 L922.154 943.093 Q922.154 942.312 922.188 942.04 Q922.222 941.768 922.426 941.564 Q922.629 941.36 923.037 941.36 Q923.513 941.36 923.682 941.564 Q923.886 941.768 924.022 942.549 Q925.075 947.339 927.317 949.886 Q929.593 952.4 933.703 952.4 Q937.609 952.4 939.579 950.667 Q941.549 948.935 941.549 946.082 Q941.549 940.987 934.314 939.696 Q930.136 938.847 928.404 938.303 Q926.672 937.726 925.143 936.469 Q922.154 934.024 922.154 930.559 Q922.154 927.094 924.769 924.547 Q927.419 921.999 933.261 921.999 Q937.167 921.999 939.817 923.969 Q940.598 923.358 941.006 922.848 Q941.923 921.999 942.398 921.999 Q942.942 921.999 943.044 922.373 Q943.146 922.712 943.146 923.698 L943.146 930.695 Q943.146 931.476 943.112 931.748 Q943.078 932.019 942.874 932.223 Q942.67 932.393 942.228 932.393 Q941.447 932.393 941.413 931.748 Q940.87 923.324 933.261 923.324 Q929.151 923.324 927.317 924.92 Q925.483 926.483 925.483 928.623 Q925.483 929.812 926.026 930.729 Q926.604 931.612 927.317 932.155 Q928.064 932.665 929.423 933.174 Q930.782 933.65 931.597 933.82 Q932.446 933.99 934.042 934.329 Q939.613 935.382 941.957 937.658 Q944.878 940.579 944.878 944.282 Q944.878 948.392 942.093 951.177 Q939.307 953.962 933.703 953.962 Q929.185 953.962 926.026 950.939 Q925.619 951.347 925.313 951.72 Q925.007 952.06 924.871 952.196 Q924.769 952.332 924.735 952.434 Q924.701 952.502 924.633 952.57 Q923.241 953.962 922.901 953.962 Q922.358 953.962 922.256 953.589 Q922.154 953.249 922.154 952.264 Z" fill="#000000" fill-rule="nonzero" fill-opacity="1" /><path clip-path="url(#clip170)" d="M953.743 949.445 Q949.158 944.893 949.158 938.303 Q949.158 931.68 953.641 926.856 Q958.159 921.999 964.613 921.999 Q970.931 921.999 975.448 926.823 Q980 931.612 980 938.303 Q980 944.859 975.414 949.411 Q970.863 953.962 964.545 953.962 Q958.363 953.962 953.743 949.445 M954.932 937.726 Q954.932 944.485 956.698 947.542 Q959.416 952.196 964.613 952.196 Q967.194 952.196 969.334 950.803 Q971.508 949.411 972.697 947.067 Q974.225 944.01 974.225 937.726 Q974.225 931.034 972.391 928.079 Q969.674 923.562 964.545 923.562 Q962.303 923.562 960.095 924.751 Q957.921 925.905 956.597 928.215 Q954.932 931.272 954.932 937.726 Z" fill="#000000" fill-rule="nonzero" fill-opacity="1" /><path clip-path="url(#clip170)" d="M986.318 938.235 Q986.318 931.612 990.937 927.026 Q995.557 922.441 1001.81 922.441 Q1007.11 922.441 1010.57 926.755 L1010.57 911.707 Q1010.57 909.126 1009.65 908.48 Q1008.77 907.835 1005.17 907.835 L1005.17 905.661 L1015.19 904.914 L1015.19 947.135 Q1015.19 949.716 1016.07 950.396 Q1016.99 951.041 1020.59 951.041 L1020.59 953.181 L1010.37 953.962 L1010.37 949.343 Q1006.77 953.928 1001.06 953.962 Q995.081 953.962 990.7 949.377 Q986.318 944.791 986.318 938.235 M992.092 938.303 Q992.092 944.757 994.096 947.95 Q996.882 952.4 1001.4 952.4 Q1006.56 952.4 1009.62 947.542 Q1010.4 946.354 1010.37 944.961 L1010.37 930.695 Q1010.37 929.302 1009.62 928.147 Q1006.77 923.969 1002.11 923.969 Q997.255 923.969 994.232 928.419 Q992.092 931.748 992.092 938.303 Z" fill="#000000" fill-rule="nonzero" fill-opacity="1" /><path clip-path="url(#clip170)" d="M1024.46 937.862 Q1024.46 931.306 1028.67 926.653 Q1032.89 921.999 1038.93 921.999 Q1045.05 921.999 1048.21 925.973 Q1051.4 929.947 1051.4 935.654 Q1051.4 936.707 1051.13 936.911 Q1050.86 937.115 1049.67 937.115 L1030.24 937.115 Q1030.24 944.214 1032.34 947.542 Q1035.26 952.196 1040.19 952.196 Q1040.87 952.196 1041.68 952.06 Q1042.5 951.924 1044.16 951.347 Q1045.83 950.735 1047.29 949.139 Q1048.75 947.542 1049.6 945.029 Q1049.8 944.044 1050.48 944.078 Q1051.4 944.078 1051.4 944.893 Q1051.4 945.504 1050.72 946.897 Q1050.07 948.256 1048.82 949.886 Q1047.56 951.517 1045.11 952.739 Q1042.7 953.962 1039.78 953.962 Q1033.67 953.962 1029.05 949.343 Q1024.46 944.689 1024.46 937.862 M1030.31 935.654 L1046.81 935.654 Q1046.81 934.193 1046.54 932.563 Q1046.3 930.933 1045.56 928.691 Q1044.84 926.415 1043.14 924.988 Q1041.45 923.562 1038.93 923.562 Q1037.81 923.562 1036.59 924.037 Q1035.4 924.513 1033.94 925.668 Q1032.48 926.823 1031.46 929.438 Q1030.44 932.053 1030.31 935.654 Z" fill="#000000" fill-rule="nonzero" fill-opacity="1" /><path clip-path="url(#clip170)" d="M1055.71 952.264 L1055.71 943.093 Q1055.71 942.312 1055.75 942.04 Q1055.78 941.768 1055.98 941.564 Q1056.19 941.36 1056.6 941.36 Q1057.07 941.36 1057.24 941.564 Q1057.44 941.768 1057.58 942.549 Q1058.63 947.339 1060.88 949.886 Q1063.15 952.4 1067.26 952.4 Q1071.17 952.4 1073.14 950.667 Q1075.11 948.935 1075.11 946.082 Q1075.11 940.987 1067.87 939.696 Q1063.69 938.847 1061.96 938.303 Q1060.23 937.726 1058.7 936.469 Q1055.71 934.024 1055.71 930.559 Q1055.71 927.094 1058.33 924.547 Q1060.98 921.999 1066.82 921.999 Q1070.73 921.999 1073.38 923.969 Q1074.16 923.358 1074.56 922.848 Q1075.48 921.999 1075.96 921.999 Q1076.5 921.999 1076.6 922.373 Q1076.7 922.712 1076.7 923.698 L1076.7 930.695 Q1076.7 931.476 1076.67 931.748 Q1076.64 932.019 1076.43 932.223 Q1076.23 932.393 1075.79 932.393 Q1075.01 932.393 1074.97 931.748 Q1074.43 923.324 1066.82 923.324 Q1062.71 923.324 1060.88 924.92 Q1059.04 926.483 1059.04 928.623 Q1059.04 929.812 1059.58 930.729 Q1060.16 931.612 1060.88 932.155 Q1061.62 932.665 1062.98 933.174 Q1064.34 933.65 1065.16 933.82 Q1066 933.99 1067.6 934.329 Q1073.17 935.382 1075.52 937.658 Q1078.44 940.579 1078.44 944.282 Q1078.44 948.392 1075.65 951.177 Q1072.87 953.962 1067.26 953.962 Q1062.74 953.962 1059.58 950.939 Q1059.18 951.347 1058.87 951.72 Q1058.57 952.06 1058.43 952.196 Q1058.33 952.332 1058.29 952.434 Q1058.26 952.502 1058.19 952.57 Q1056.8 953.962 1056.46 953.962 Q1055.92 953.962 1055.81 953.589 Q1055.71 953.249 1055.71 952.264 Z" fill="#000000" fill-rule="nonzero" fill-opacity="1" /><polyline clip-path="url(#clip172)" style="stroke:#000000; stroke-linecap:round; stroke-linejoin:round; stroke-width:2; stroke-opacity:0.1; fill:none" points="279.325,717.204 1352.76,717.204 "/>
<polyline clip-path="url(#clip172)" style="stroke:#000000; stroke-linecap:round; stroke-linejoin:round; stroke-width:2; stroke-opacity:0.1; fill:none" points="279.325,558.353 1352.76,558.353 "/>
<polyline clip-path="url(#clip172)" style="stroke:#000000; stroke-linecap:round; stroke-linejoin:round; stroke-width:2; stroke-opacity:0.1; fill:none" points="279.325,399.502 1352.76,399.502 "/>
<polyline clip-path="url(#clip172)" style="stroke:#000000; stroke-linecap:round; stroke-linejoin:round; stroke-width:2; stroke-opacity:0.1; fill:none" points="279.325,240.651 1352.76,240.651 "/>
<polyline clip-path="url(#clip170)" style="stroke:#000000; stroke-linecap:round; stroke-linejoin:round; stroke-width:4; stroke-opacity:1; fill:none" points="279.325,823.317 279.325,176.793 "/>
<polyline clip-path="url(#clip170)" style="stroke:#000000; stroke-linecap:round; stroke-linejoin:round; stroke-width:4; stroke-opacity:1; fill:none" points="279.325,717.204 298.223,717.204 "/>
<polyline clip-path="url(#clip170)" style="stroke:#000000; stroke-linecap:round; stroke-linejoin:round; stroke-width:4; stroke-opacity:1; fill:none" points="279.325,558.353 298.223,558.353 "/>
<polyline clip-path="url(#clip170)" style="stroke:#000000; stroke-linecap:round; stroke-linejoin:round; stroke-width:4; stroke-opacity:1; fill:none" points="279.325,399.502 298.223,399.502 "/>
<polyline clip-path="url(#clip170)" style="stroke:#000000; stroke-linecap:round; stroke-linejoin:round; stroke-width:4; stroke-opacity:1; fill:none" points="279.325,240.651 298.223,240.651 "/>
<path clip-path="url(#clip170)" d="M156.053 721.12 Q156.35 721.416 156.35 721.836 Q156.35 722.256 156.053 722.553 Q155.757 722.849 155.337 722.849 L123.667 722.849 Q123.247 722.849 122.951 722.553 Q122.654 722.256 122.654 721.836 Q122.654 721.416 122.951 721.12 Q123.247 720.824 123.667 720.824 L155.337 720.824 Q155.757 720.824 156.053 721.12 Z" fill="#000000" fill-rule="nonzero" fill-opacity="1" /><path clip-path="url(#clip170)" d="M161.686 734.484 Q161.686 733.57 161.76 733.299 Q161.859 733.027 162.254 732.607 L171.962 721.787 Q177.274 715.809 177.274 710.596 Q177.274 707.212 175.495 704.791 Q173.741 702.37 170.505 702.37 Q168.282 702.37 166.404 703.729 Q164.527 705.087 163.662 707.508 Q163.81 707.459 164.329 707.459 Q165.589 707.459 166.281 708.25 Q166.997 709.04 166.997 710.102 Q166.997 711.461 166.108 712.128 Q165.243 712.77 164.378 712.77 Q164.033 712.77 163.563 712.696 Q163.119 712.622 162.402 711.93 Q161.686 711.214 161.686 709.954 Q161.686 706.421 164.354 703.605 Q167.046 700.789 171.147 700.789 Q175.791 700.789 178.83 703.556 Q181.893 706.298 181.893 710.596 Q181.893 712.103 181.424 713.487 Q180.979 714.845 180.361 715.908 Q179.769 716.97 178.138 718.674 Q176.508 720.379 175.198 721.589 Q173.889 722.8 170.95 725.369 L165.589 730.581 L174.704 730.581 Q179.151 730.581 179.497 730.186 Q179.991 729.47 180.609 725.69 L181.893 725.69 L180.46 734.484 L161.686 734.484 Z" fill="#000000" fill-rule="nonzero" fill-opacity="1" /><path clip-path="url(#clip170)" d="M186.439 718.304 Q186.439 710.868 188.316 706.817 Q190.935 700.789 197.11 700.789 Q198.42 700.789 199.778 701.16 Q201.162 701.505 202.891 702.864 Q204.645 704.223 205.707 706.446 Q207.733 710.745 207.733 718.304 Q207.733 725.69 205.855 729.717 Q203.113 735.596 197.061 735.596 Q194.788 735.596 192.466 734.435 Q190.169 733.274 188.711 730.483 Q186.439 726.308 186.439 718.304 M190.638 717.686 Q190.638 725.32 191.182 728.358 Q191.799 731.644 193.479 733.076 Q195.184 734.484 197.061 734.484 Q199.087 734.484 200.766 732.978 Q202.471 731.446 202.99 728.16 Q203.558 724.924 203.533 717.686 Q203.533 710.646 203.039 707.83 Q202.372 704.544 200.594 703.235 Q198.84 701.901 197.061 701.901 Q196.394 701.901 195.678 702.098 Q194.986 702.296 193.973 702.864 Q192.96 703.432 192.17 704.84 Q191.404 706.249 191.033 708.373 Q190.638 711.115 190.638 717.686 Z" fill="#000000" fill-rule="nonzero" fill-opacity="1" /><path clip-path="url(#clip170)" d="M211.735 718.304 Q211.735 710.868 213.612 706.817 Q216.231 700.789 222.407 700.789 Q223.716 700.789 225.075 701.16 Q226.458 701.505 228.187 702.864 Q229.941 704.223 231.003 706.446 Q233.029 710.745 233.029 718.304 Q233.029 725.69 231.152 729.717 Q228.41 735.596 222.357 735.596 Q220.084 735.596 217.762 734.435 Q215.465 733.274 214.007 730.483 Q211.735 726.308 211.735 718.304 M215.934 717.686 Q215.934 725.32 216.478 728.358 Q217.095 731.644 218.775 733.076 Q220.48 734.484 222.357 734.484 Q224.383 734.484 226.063 732.978 Q227.767 731.446 228.286 728.16 Q228.854 724.924 228.829 717.686 Q228.829 710.646 228.335 707.83 Q227.668 704.544 225.89 703.235 Q224.136 701.901 222.357 701.901 Q221.69 701.901 220.974 702.098 Q220.282 702.296 219.269 702.864 Q218.256 703.432 217.466 704.84 Q216.7 706.249 216.33 708.373 Q215.934 711.115 215.934 717.686 Z" fill="#000000" fill-rule="nonzero" fill-opacity="1" /><path clip-path="url(#clip170)" d="M237.031 718.304 Q237.031 710.868 238.908 706.817 Q241.527 700.789 247.703 700.789 Q249.012 700.789 250.371 701.16 Q251.754 701.505 253.483 702.864 Q255.237 704.223 256.3 706.446 Q258.325 710.745 258.325 718.304 Q258.325 725.69 256.448 729.717 Q253.706 735.596 247.653 735.596 Q245.381 735.596 243.059 734.435 Q240.761 733.274 239.304 730.483 Q237.031 726.308 237.031 718.304 M241.231 717.686 Q241.231 725.32 241.774 728.358 Q242.392 731.644 244.071 733.076 Q245.776 734.484 247.653 734.484 Q249.679 734.484 251.359 732.978 Q253.063 731.446 253.582 728.16 Q254.15 724.924 254.126 717.686 Q254.126 710.646 253.632 707.83 Q252.965 704.544 251.186 703.235 Q249.432 701.901 247.653 701.901 Q246.986 701.901 246.27 702.098 Q245.578 702.296 244.566 702.864 Q243.553 703.432 242.762 704.84 Q241.996 706.249 241.626 708.373 Q241.231 711.115 241.231 717.686 Z" fill="#000000" fill-rule="nonzero" fill-opacity="1" /><path clip-path="url(#clip170)" d="M156.053 562.269 Q156.35 562.565 156.35 562.985 Q156.35 563.405 156.053 563.702 Q155.757 563.998 155.337 563.998 L123.667 563.998 Q123.247 563.998 122.951 563.702 Q122.654 563.405 122.654 562.985 Q122.654 562.565 122.951 562.269 Q123.247 561.972 123.667 561.972 L155.337 561.972 Q155.757 561.972 156.053 562.269 Z" fill="#000000" fill-rule="nonzero" fill-opacity="1" /><path clip-path="url(#clip170)" d="M163.662 546.755 L163.662 545.174 Q169.739 545.174 172.876 541.938 Q173.741 541.938 173.889 542.136 Q174.037 542.333 174.037 543.247 L174.037 571.631 Q174.037 573.138 174.779 573.608 Q175.52 574.077 178.756 574.077 L180.361 574.077 L180.361 575.633 Q178.583 575.485 172.16 575.485 Q165.737 575.485 163.983 575.633 L163.983 574.077 L165.589 574.077 Q168.776 574.077 169.541 573.632 Q170.307 573.163 170.307 571.631 L170.307 545.421 Q167.664 546.755 163.662 546.755 Z" fill="#000000" fill-rule="nonzero" fill-opacity="1" /><path clip-path="url(#clip170)" d="M186.982 567.481 Q186.982 565.974 187.797 565.406 Q188.612 564.813 189.477 564.813 Q190.638 564.813 191.305 565.554 Q191.997 566.271 191.997 567.284 Q191.997 568.297 191.305 569.038 Q190.638 569.754 189.477 569.754 Q188.909 569.754 188.612 569.655 Q189.279 571.977 191.305 573.657 Q193.355 575.337 196.048 575.337 Q199.432 575.337 201.458 572.051 Q202.669 569.927 202.669 565.11 Q202.669 560.861 201.755 558.736 Q200.347 555.5 197.456 555.5 Q193.355 555.5 190.935 559.033 Q190.638 559.477 190.292 559.502 Q189.798 559.502 189.675 559.23 Q189.576 558.934 189.576 558.168 L189.576 543.198 Q189.576 541.987 190.07 541.987 Q190.268 541.987 190.687 542.136 Q193.874 543.544 197.407 543.568 Q201.038 543.568 204.299 542.086 Q204.546 541.938 204.694 541.938 Q205.188 541.938 205.213 542.506 Q205.213 542.704 204.793 543.297 Q204.398 543.865 203.533 544.631 Q202.669 545.372 201.557 546.088 Q200.445 546.805 198.815 547.299 Q197.209 547.768 195.431 547.768 Q193.306 547.768 191.132 547.101 L191.132 556.958 Q193.751 554.389 197.555 554.389 Q201.606 554.389 204.398 557.649 Q207.189 560.91 207.189 565.456 Q207.189 570.223 203.879 573.484 Q200.594 576.745 196.147 576.745 Q192.096 576.745 189.526 573.855 Q186.982 570.964 186.982 567.481 Z" fill="#000000" fill-rule="nonzero" fill-opacity="1" /><path clip-path="url(#clip170)" d="M211.735 559.453 Q211.735 552.017 213.612 547.966 Q216.231 541.938 222.407 541.938 Q223.716 541.938 225.075 542.309 Q226.458 542.654 228.187 544.013 Q229.941 545.372 231.003 547.595 Q233.029 551.893 233.029 559.453 Q233.029 566.839 231.152 570.866 Q228.41 576.745 222.357 576.745 Q220.084 576.745 217.762 575.584 Q215.465 574.423 214.007 571.631 Q211.735 567.457 211.735 559.453 M215.934 558.835 Q215.934 566.468 216.478 569.507 Q217.095 572.793 218.775 574.225 Q220.48 575.633 222.357 575.633 Q224.383 575.633 226.063 574.127 Q227.767 572.595 228.286 569.309 Q228.854 566.073 228.829 558.835 Q228.829 551.795 228.335 548.979 Q227.668 545.693 225.89 544.384 Q224.136 543.05 222.357 543.05 Q221.69 543.05 220.974 543.247 Q220.282 543.445 219.269 544.013 Q218.256 544.581 217.466 545.989 Q216.7 547.397 216.33 549.522 Q215.934 552.264 215.934 558.835 Z" fill="#000000" fill-rule="nonzero" fill-opacity="1" /><path clip-path="url(#clip170)" d="M237.031 559.453 Q237.031 552.017 238.908 547.966 Q241.527 541.938 247.703 541.938 Q249.012 541.938 250.371 542.309 Q251.754 542.654 253.483 544.013 Q255.237 545.372 256.3 547.595 Q258.325 551.893 258.325 559.453 Q258.325 566.839 256.448 570.866 Q253.706 576.745 247.653 576.745 Q245.381 576.745 243.059 575.584 Q240.761 574.423 239.304 571.631 Q237.031 567.457 237.031 559.453 M241.231 558.835 Q241.231 566.468 241.774 569.507 Q242.392 572.793 244.071 574.225 Q245.776 575.633 247.653 575.633 Q249.679 575.633 251.359 574.127 Q253.063 572.595 253.582 569.309 Q254.15 566.073 254.126 558.835 Q254.126 551.795 253.632 548.979 Q252.965 545.693 251.186 544.384 Q249.432 543.05 247.653 543.05 Q246.986 543.05 246.27 543.247 Q245.578 543.445 244.566 544.013 Q243.553 544.581 242.762 545.989 Q241.996 547.397 241.626 549.522 Q241.231 552.264 241.231 558.835 Z" fill="#000000" fill-rule="nonzero" fill-opacity="1" /><path clip-path="url(#clip170)" d="M156.053 403.418 Q156.35 403.714 156.35 404.134 Q156.35 404.554 156.053 404.851 Q155.757 405.147 155.337 405.147 L123.667 405.147 Q123.247 405.147 122.951 404.851 Q122.654 404.554 122.654 404.134 Q122.654 403.714 122.951 403.418 Q123.247 403.121 123.667 403.121 L155.337 403.121 Q155.757 403.121 156.053 403.418 Z" fill="#000000" fill-rule="nonzero" fill-opacity="1" /><path clip-path="url(#clip170)" d="M163.662 387.904 L163.662 386.323 Q169.739 386.323 172.876 383.087 Q173.741 383.087 173.889 383.285 Q174.037 383.482 174.037 384.396 L174.037 412.78 Q174.037 414.287 174.779 414.757 Q175.52 415.226 178.756 415.226 L180.361 415.226 L180.361 416.782 Q178.583 416.634 172.16 416.634 Q165.737 416.634 163.983 416.782 L163.983 415.226 L165.589 415.226 Q168.776 415.226 169.541 414.781 Q170.307 414.312 170.307 412.78 L170.307 386.57 Q167.664 387.904 163.662 387.904 Z" fill="#000000" fill-rule="nonzero" fill-opacity="1" /><path clip-path="url(#clip170)" d="M186.439 400.602 Q186.439 393.166 188.316 389.115 Q190.935 383.087 197.11 383.087 Q198.42 383.087 199.778 383.458 Q201.162 383.803 202.891 385.162 Q204.645 386.521 205.707 388.744 Q207.733 393.042 207.733 400.602 Q207.733 407.988 205.855 412.015 Q203.113 417.894 197.061 417.894 Q194.788 417.894 192.466 416.733 Q190.169 415.572 188.711 412.78 Q186.439 408.606 186.439 400.602 M190.638 399.984 Q190.638 407.617 191.182 410.656 Q191.799 413.941 193.479 415.374 Q195.184 416.782 197.061 416.782 Q199.087 416.782 200.766 415.275 Q202.471 413.744 202.99 410.458 Q203.558 407.222 203.533 399.984 Q203.533 392.944 203.039 390.127 Q202.372 386.842 200.594 385.533 Q198.84 384.199 197.061 384.199 Q196.394 384.199 195.678 384.396 Q194.986 384.594 193.973 385.162 Q192.96 385.73 192.17 387.138 Q191.404 388.546 191.033 390.671 Q190.638 393.413 190.638 399.984 Z" fill="#000000" fill-rule="nonzero" fill-opacity="1" /><path clip-path="url(#clip170)" d="M211.735 400.602 Q211.735 393.166 213.612 389.115 Q216.231 383.087 222.407 383.087 Q223.716 383.087 225.075 383.458 Q226.458 383.803 228.187 385.162 Q229.941 386.521 231.003 388.744 Q233.029 393.042 233.029 400.602 Q233.029 407.988 231.152 412.015 Q228.41 417.894 222.357 417.894 Q220.084 417.894 217.762 416.733 Q215.465 415.572 214.007 412.78 Q211.735 408.606 211.735 400.602 M215.934 399.984 Q215.934 407.617 216.478 410.656 Q217.095 413.941 218.775 415.374 Q220.48 416.782 222.357 416.782 Q224.383 416.782 226.063 415.275 Q227.767 413.744 228.286 410.458 Q228.854 407.222 228.829 399.984 Q228.829 392.944 228.335 390.127 Q227.668 386.842 225.89 385.533 Q224.136 384.199 222.357 384.199 Q221.69 384.199 220.974 384.396 Q220.282 384.594 219.269 385.162 Q218.256 385.73 217.466 387.138 Q216.7 388.546 216.33 390.671 Q215.934 393.413 215.934 399.984 Z" fill="#000000" fill-rule="nonzero" fill-opacity="1" /><path clip-path="url(#clip170)" d="M237.031 400.602 Q237.031 393.166 238.908 389.115 Q241.527 383.087 247.703 383.087 Q249.012 383.087 250.371 383.458 Q251.754 383.803 253.483 385.162 Q255.237 386.521 256.3 388.744 Q258.325 393.042 258.325 400.602 Q258.325 407.988 256.448 412.015 Q253.706 417.894 247.653 417.894 Q245.381 417.894 243.059 416.733 Q240.761 415.572 239.304 412.78 Q237.031 408.606 237.031 400.602 M241.231 399.984 Q241.231 407.617 241.774 410.656 Q242.392 413.941 244.071 415.374 Q245.776 416.782 247.653 416.782 Q249.679 416.782 251.359 415.275 Q253.063 413.744 253.582 410.458 Q254.15 407.222 254.126 399.984 Q254.126 392.944 253.632 390.127 Q252.965 386.842 251.186 385.533 Q249.432 384.199 247.653 384.199 Q246.986 384.199 246.27 384.396 Q245.578 384.594 244.566 385.162 Q243.553 385.73 242.762 387.138 Q241.996 388.546 241.626 390.671 Q241.231 393.413 241.231 399.984 Z" fill="#000000" fill-rule="nonzero" fill-opacity="1" /><path clip-path="url(#clip170)" d="M181.35 244.567 Q181.646 244.863 181.646 245.283 Q181.646 245.703 181.35 246 Q181.053 246.296 180.633 246.296 L148.964 246.296 Q148.544 246.296 148.247 246 Q147.951 245.703 147.951 245.283 Q147.951 244.863 148.247 244.567 Q148.544 244.27 148.964 244.27 L180.633 244.27 Q181.053 244.27 181.35 244.567 Z" fill="#000000" fill-rule="nonzero" fill-opacity="1" /><path clip-path="url(#clip170)" d="M186.982 249.779 Q186.982 248.272 187.797 247.704 Q188.612 247.111 189.477 247.111 Q190.638 247.111 191.305 247.852 Q191.997 248.569 191.997 249.582 Q191.997 250.594 191.305 251.336 Q190.638 252.052 189.477 252.052 Q188.909 252.052 188.612 251.953 Q189.279 254.275 191.305 255.955 Q193.355 257.635 196.048 257.635 Q199.432 257.635 201.458 254.349 Q202.669 252.225 202.669 247.408 Q202.669 243.159 201.755 241.034 Q200.347 237.798 197.456 237.798 Q193.355 237.798 190.935 241.331 Q190.638 241.775 190.292 241.8 Q189.798 241.8 189.675 241.528 Q189.576 241.232 189.576 240.466 L189.576 225.496 Q189.576 224.285 190.07 224.285 Q190.268 224.285 190.687 224.434 Q193.874 225.842 197.407 225.866 Q201.038 225.866 204.299 224.384 Q204.546 224.236 204.694 224.236 Q205.188 224.236 205.213 224.804 Q205.213 225.002 204.793 225.595 Q204.398 226.163 203.533 226.929 Q202.669 227.67 201.557 228.386 Q200.445 229.102 198.815 229.597 Q197.209 230.066 195.431 230.066 Q193.306 230.066 191.132 229.399 L191.132 239.256 Q193.751 236.686 197.555 236.686 Q201.606 236.686 204.398 239.947 Q207.189 243.208 207.189 247.754 Q207.189 252.521 203.879 255.782 Q200.594 259.043 196.147 259.043 Q192.096 259.043 189.526 256.153 Q186.982 253.262 186.982 249.779 Z" fill="#000000" fill-rule="nonzero" fill-opacity="1" /><path clip-path="url(#clip170)" d="M211.735 241.751 Q211.735 234.315 213.612 230.264 Q216.231 224.236 222.407 224.236 Q223.716 224.236 225.075 224.606 Q226.458 224.952 228.187 226.311 Q229.941 227.67 231.003 229.893 Q233.029 234.191 233.029 241.751 Q233.029 249.137 231.152 253.164 Q228.41 259.043 222.357 259.043 Q220.084 259.043 217.762 257.882 Q215.465 256.721 214.007 253.929 Q211.735 249.755 211.735 241.751 M215.934 241.133 Q215.934 248.766 216.478 251.805 Q217.095 255.09 218.775 256.523 Q220.48 257.931 222.357 257.931 Q224.383 257.931 226.063 256.424 Q227.767 254.893 228.286 251.607 Q228.854 248.371 228.829 241.133 Q228.829 234.093 228.335 231.276 Q227.668 227.991 225.89 226.682 Q224.136 225.348 222.357 225.348 Q221.69 225.348 220.974 225.545 Q220.282 225.743 219.269 226.311 Q218.256 226.879 217.466 228.287 Q216.7 229.695 216.33 231.82 Q215.934 234.562 215.934 241.133 Z" fill="#000000" fill-rule="nonzero" fill-opacity="1" /><path clip-path="url(#clip170)" d="M237.031 241.751 Q237.031 234.315 238.908 230.264 Q241.527 224.236 247.703 224.236 Q249.012 224.236 250.371 224.606 Q251.754 224.952 253.483 226.311 Q255.237 227.67 256.3 229.893 Q258.325 234.191 258.325 241.751 Q258.325 249.137 256.448 253.164 Q253.706 259.043 247.653 259.043 Q245.381 259.043 243.059 257.882 Q240.761 256.721 239.304 253.929 Q237.031 249.755 237.031 241.751 M241.231 241.133 Q241.231 248.766 241.774 251.805 Q242.392 255.09 244.071 256.523 Q245.776 257.931 247.653 257.931 Q249.679 257.931 251.359 256.424 Q253.063 254.893 253.582 251.607 Q254.15 248.371 254.126 241.133 Q254.126 234.093 253.632 231.276 Q252.965 227.991 251.186 226.682 Q249.432 225.348 247.653 225.348 Q246.986 225.348 246.27 225.545 Q245.578 225.743 244.566 226.311 Q243.553 226.879 242.762 228.287 Q241.996 229.695 241.626 231.82 Q241.231 234.562 241.231 241.133 Z" fill="#000000" fill-rule="nonzero" fill-opacity="1" /><path clip-path="url(#clip170)" d="M87.3984 613.301 L85.2585 613.301 L85.2585 611.637 Q85.2585 607.867 84.6471 607.018 Q84.0017 606.134 81.9637 606.134 L45.3132 606.134 Q43.3091 606.134 42.6977 607.018 Q42.0523 607.901 42.0523 611.637 L42.0523 613.301 L39.8784 613.301 L39.8784 591.461 Q39.8784 583.886 43.6148 578.621 Q47.3172 573.322 52.4123 573.322 Q56.3185 573.322 59.3756 576.753 Q62.4326 580.184 63.7573 585.482 Q66.135 578.587 71.8075 576.991 L77.3781 576.107 Q79.3822 575.836 80.4012 575.666 Q81.4202 575.462 82.8129 575.156 Q84.2055 574.851 84.8849 574.545 Q85.5303 574.205 86.2436 573.73 Q86.9229 573.254 87.1607 572.643 Q87.3984 571.997 87.3984 571.148 Q87.3984 569.552 85.9718 568.193 Q84.5452 566.834 81.2164 566.563 Q80.0955 566.427 80.0955 565.714 Q80.0955 564.83 81.2164 564.83 Q82.2015 564.83 83.3564 565.102 Q84.4773 565.374 85.802 566.053 Q87.1267 566.699 88.0099 568.125 Q88.927 569.552 88.927 571.42 Q88.927 576.855 86.0058 580.184 Q84.749 581.576 83.1186 582.222 Q81.4882 582.833 80.1974 582.935 Q78.9067 583.037 76.0534 583.037 Q72.0113 583.037 70.245 583.478 Q68.4788 583.886 66.7464 585.686 Q64.3687 588.132 64.3687 592.174 L64.3687 600.156 L81.9637 600.156 Q83.9678 600.156 84.6131 599.307 Q85.2585 598.424 85.2585 594.654 L85.2585 592.989 L87.3984 592.989 Q87.1946 595.503 87.1946 603.145 Q87.1946 610.788 87.3984 613.301 M62.8402 600.156 L62.8402 592.446 Q62.8402 588.743 61.9571 586.264 Q61.04 583.75 59.4095 582.561 Q57.7791 581.372 56.1487 580.931 Q54.4843 580.489 52.4123 580.489 Q49.9667 580.489 48.1325 581.033 Q46.2982 581.576 45.2113 582.765 Q44.1243 583.954 43.445 585.143 Q42.7317 586.332 42.4599 588.166 Q42.1882 590 42.1203 591.257 Q42.0523 592.514 42.0523 594.518 Q42.0523 597.914 42.1882 598.628 Q42.2561 599.409 42.6298 599.715 Q43.0034 600.02 43.445 600.088 Q43.8526 600.156 44.8376 600.156 L62.8402 600.156 Z" fill="#000000" fill-rule="nonzero" fill-opacity="1" /><path clip-path="url(#clip170)" d="M72.0793 562.623 Q65.5236 562.623 60.8701 558.411 Q56.2166 554.199 56.2166 548.153 Q56.2166 542.038 60.1908 538.88 Q64.1649 535.687 69.8714 535.687 Q70.9244 535.687 71.1282 535.958 Q71.332 536.23 71.332 537.419 L71.332 556.848 Q78.4311 556.848 81.7599 554.742 Q86.4134 551.821 86.4134 546.896 Q86.4134 546.216 86.2775 545.401 Q86.1417 544.586 85.5642 542.922 Q84.9528 541.257 83.3564 539.797 Q81.7599 538.336 79.2463 537.487 Q78.2613 537.283 78.2953 536.604 Q78.2953 535.687 79.1105 535.687 Q79.7219 535.687 81.1145 536.366 Q82.4732 537.011 84.1036 538.268 Q85.7341 539.525 86.9569 541.971 Q88.1797 544.382 88.1797 547.303 Q88.1797 553.417 83.5602 558.037 Q78.9067 562.623 72.0793 562.623 M69.8714 556.78 L69.8714 540.272 Q68.4108 540.272 66.7804 540.544 Q65.15 540.782 62.9082 541.529 Q60.6324 542.242 59.2057 543.941 Q57.7791 545.639 57.7791 548.153 Q57.7791 549.273 58.2547 550.496 Q58.7302 551.685 59.8851 553.146 Q61.04 554.606 63.6554 555.625 Q66.2709 556.644 69.8714 556.78 Z" fill="#000000" fill-rule="nonzero" fill-opacity="1" /><path clip-path="url(#clip170)" d="M59.5794 532.426 L57.4055 532.426 Q57.6093 528.655 57.6093 525.972 Q57.6093 524.647 57.4055 518.363 L59.5794 518.363 Q59.5794 522.473 61.4476 522.473 Q61.8552 522.473 62.7043 522.134 L81.2844 515.51 L64.4367 509.532 Q61.04 510.789 60.6324 511.128 Q59.5794 511.978 59.5794 515.51 L57.4055 515.51 Q57.6093 512.385 57.6093 509.328 Q57.6093 508.139 57.4055 502.093 L59.5794 502.093 Q59.5794 506.203 61.4476 506.203 Q61.7193 506.203 62.7723 505.863 L82.1675 498.968 L64.3687 492.65 Q63.4516 492.311 62.9082 492.277 Q61.3796 492.277 60.5305 493.364 Q59.6473 494.451 59.5794 496.319 L57.4055 496.319 Q57.6093 492.345 57.6093 489.865 Q57.6093 487.08 57.4055 484.77 L59.5794 484.77 Q59.7152 489.084 64.0291 490.612 L86.855 498.764 Q88.1118 499.546 88.1797 500.157 Q88.1797 501.074 86.855 501.55 L67.0861 508.649 L86.787 515.68 Q87.6362 515.952 87.9079 516.189 Q88.1797 516.427 88.1797 517.073 Q88.1797 517.684 87.806 517.956 Q87.4664 518.227 86.6172 518.533 L61.991 527.297 Q60.3946 527.908 59.987 528.825 Q59.5794 529.708 59.5794 532.426 Z" fill="#000000" fill-rule="nonzero" fill-opacity="1" /><path clip-path="url(#clip170)" d="M80.7749 482.494 Q74.8646 482.494 71.7396 475.531 Q69.7355 471.353 69.226 462.725 L66.6785 462.725 Q62.3647 462.725 60.0889 465.001 Q57.7791 467.243 57.7791 470.096 Q57.7791 475.191 60.972 477.637 Q61.04 475.565 62.0929 474.818 Q63.112 474.07 64.1649 474.07 Q65.5576 474.07 66.4747 474.953 Q67.3578 475.803 67.3578 477.263 Q67.3578 478.656 66.5087 479.573 Q65.6255 480.49 64.097 480.49 Q60.7003 480.49 58.4585 477.433 Q56.2166 474.342 56.2166 469.96 Q56.2166 464.254 60.0549 460.449 Q61.2438 459.261 62.7723 458.683 Q64.3008 458.072 65.3198 458.004 Q66.3049 457.936 68.275 457.936 L82.1675 457.936 Q82.5751 457.936 83.2545 457.8 Q83.9338 457.664 84.8169 457.053 Q85.6661 456.407 85.6661 455.354 Q85.6661 452.841 81.2164 452.875 L77.3102 452.875 L77.3102 451.108 L81.2164 451.108 Q84.9188 451.108 86.3794 453.079 Q87.806 455.015 87.806 456.815 Q87.806 459.125 86.1077 460.585 Q84.4093 462.046 82.0996 462.25 Q84.749 463.303 86.4813 465.714 Q88.1797 468.092 88.1797 471.353 Q88.1797 473.866 87.5343 476.244 Q86.9229 478.588 85.1906 480.558 Q83.4243 482.494 80.7749 482.494 M80.7069 477.127 Q83.2884 477.127 84.9528 475.293 Q86.6172 473.459 86.6172 470.877 Q86.6172 467.956 84.3754 465.341 Q82.0996 462.725 77.6499 462.725 L70.6866 462.725 Q70.9584 470.436 74.0494 473.799 Q77.1064 477.127 80.7069 477.127 Z" fill="#000000" fill-rule="nonzero" fill-opacity="1" /><path clip-path="url(#clip170)" d="M87.3984 448.697 L85.2585 448.697 Q85.2585 444.994 84.8169 444.145 Q84.3414 443.262 82.0996 443.262 L63.4516 443.262 Q60.8701 443.262 60.2247 444.179 Q59.5794 445.062 59.5794 448.697 L57.4055 448.697 L56.6582 439.016 L64.3008 439.016 Q61.3117 438.031 59.0019 435.959 Q56.6582 433.853 56.6582 430.456 Q56.6582 428.215 57.915 426.788 Q59.1718 425.327 60.9041 425.327 Q62.4326 425.327 63.2139 426.279 Q63.9611 427.196 63.9611 428.317 Q63.9611 429.573 63.1799 430.456 Q62.3647 431.306 60.972 431.306 Q60.1228 431.306 59.4775 430.932 Q58.7981 430.524 58.5604 430.219 Q58.3226 429.913 58.2547 429.709 Q58.1867 429.845 58.1867 430.456 Q58.1867 434.295 62.025 436.503 Q65.8293 438.677 71.2641 438.677 L81.9637 438.677 Q83.9678 438.677 84.6131 437.861 Q85.2585 437.012 85.2585 433.378 L85.2585 431.917 L87.3984 431.917 Q87.1946 434.702 87.1946 440.748 Q87.1946 441.598 87.2286 442.922 Q87.2626 444.247 87.3305 445.979 Q87.3984 447.712 87.3984 448.697 Z" fill="#000000" fill-rule="nonzero" fill-opacity="1" /><path clip-path="url(#clip170)" d="M72.4529 421.082 Q65.8293 421.082 61.2438 416.462 Q56.6582 411.842 56.6582 405.593 Q56.6582 400.294 60.972 396.829 L45.9246 396.829 Q43.3431 396.829 42.6977 397.746 Q42.0523 398.629 42.0523 402.23 L39.8784 402.23 L39.1312 392.209 L81.3523 392.209 Q83.9338 392.209 84.6131 391.326 Q85.2585 390.409 85.2585 386.809 L87.3984 386.809 L88.1797 397.033 L83.5602 397.033 Q88.1457 400.633 88.1797 406.34 Q88.1797 412.318 83.5941 416.7 Q79.0086 421.082 72.4529 421.082 M72.5208 415.307 Q78.9746 415.307 82.1675 413.303 Q86.6172 410.518 86.6172 406 Q86.6172 400.837 81.7599 397.78 Q80.5711 396.999 79.1784 397.033 L64.9122 397.033 Q63.5196 397.033 62.3647 397.78 Q58.1867 400.633 58.1867 405.287 Q58.1867 410.144 62.6364 413.167 Q65.9652 415.307 72.5208 415.307 Z" fill="#000000" fill-rule="nonzero" fill-opacity="1" /><polyline clip-path="url(#clip172)" style="stroke:#34495e; stroke-linecap:round; stroke-linejoin:round; stroke-width:8; stroke-opacity:1; fill:none" points="309.705,255.596 647.262,231.502 984.819,218.899 1322.38,208.527 "/>
<path clip-path="url(#clip170)" d="M525.76 150.924 L1106.32 150.924 L1106.32 47.2441 L525.76 47.2441  Z" fill="#ffffff" fill-rule="evenodd" fill-opacity="1"/>
<polyline clip-path="url(#clip170)" style="stroke:#000000; stroke-linecap:round; stroke-linejoin:round; stroke-width:4; stroke-opacity:1; fill:none" points="525.76,150.924 1106.32,150.924 1106.32,47.2441 525.76,47.2441 525.76,150.924 "/>
<polyline clip-path="url(#clip170)" style="stroke:#34495e; stroke-linecap:round; stroke-linejoin:round; stroke-width:8; stroke-opacity:1; fill:none" points="537.687,99.0841 609.249,99.0841 "/>
<path clip-path="url(#clip170)" d="M621.176 99.0717 Q621.176 91.4384 626.389 86.0778 Q631.601 80.6924 638.765 80.6924 Q640.988 80.6924 642.965 81.5077 Q644.941 82.3229 645.855 83.0393 Q646.769 83.731 648.078 85.0402 L650.623 81.31 Q651.018 80.6924 651.413 80.6924 Q651.833 80.6924 651.907 80.9395 Q651.981 81.1618 651.981 81.9029 L651.981 93.9087 Q651.981 94.724 651.883 94.9216 Q651.784 95.1192 651.166 95.1192 Q650.672 95.1192 650.549 94.971 Q650.45 94.8228 650.351 94.2546 Q649.585 88.7951 646.547 85.5343 Q643.533 82.2735 639.333 82.2735 Q638.123 82.2735 636.764 82.5452 Q635.43 82.8169 633.479 83.8545 Q631.552 84.892 630.045 86.6212 Q628.563 88.3258 627.476 91.5866 Q626.389 94.8228 626.389 99.1211 Q626.389 103.37 627.476 106.631 Q628.563 109.892 630.045 111.596 Q631.552 113.276 633.479 114.314 Q635.43 115.351 636.789 115.648 Q638.172 115.919 639.383 115.919 Q643.731 115.919 647.065 112.832 Q650.4 109.744 650.722 104.531 Q650.771 104.284 650.771 104.185 Q650.771 104.062 650.82 103.938 Q650.87 103.815 650.993 103.765 Q651.117 103.716 651.314 103.716 Q651.981 103.716 651.981 104.581 Q651.981 109.398 648.276 113.449 Q644.595 117.476 638.765 117.476 Q631.576 117.476 626.364 112.14 Q621.176 106.804 621.176 99.0717 Z" fill="#000000" fill-rule="nonzero" fill-opacity="1" /><path clip-path="url(#clip170)" d="M656.255 105.223 Q656.255 100.455 659.318 97.0708 Q662.382 93.6864 666.779 93.6864 Q671.225 93.6864 673.523 96.5767 Q675.845 99.467 675.845 103.617 Q675.845 104.383 675.647 104.531 Q675.45 104.679 674.585 104.679 L660.455 104.679 Q660.455 109.842 661.986 112.263 Q664.111 115.648 667.693 115.648 Q668.187 115.648 668.78 115.549 Q669.373 115.45 670.583 115.03 Q671.794 114.585 672.856 113.424 Q673.918 112.263 674.536 110.435 Q674.684 109.719 675.178 109.744 Q675.845 109.744 675.845 110.336 Q675.845 110.781 675.351 111.794 Q674.881 112.782 673.967 113.968 Q673.053 115.154 671.275 116.043 Q669.521 116.932 667.396 116.932 Q662.95 116.932 659.59 113.573 Q656.255 110.188 656.255 105.223 M660.504 103.617 L672.51 103.617 Q672.51 102.555 672.312 101.369 Q672.139 100.183 671.596 98.553 Q671.077 96.8978 669.842 95.8603 Q668.607 94.8228 666.779 94.8228 Q665.964 94.8228 665.074 95.1686 Q664.21 95.5145 663.147 96.3544 Q662.085 97.1943 661.344 99.0964 Q660.603 100.999 660.504 103.617 Z" fill="#000000" fill-rule="nonzero" fill-opacity="1" /><path clip-path="url(#clip170)" d="M678.933 116.364 L678.933 114.808 Q681.625 114.808 682.243 114.487 Q682.861 114.141 682.861 112.51 L682.861 98.9482 Q682.861 97.0708 682.194 96.6014 Q681.551 96.132 678.933 96.132 L678.933 94.551 L686.047 94.0076 L686.047 99.3188 Q688.419 94.0076 693.532 94.0076 Q697.337 94.0076 698.844 95.885 Q699.955 97.1449 700.178 98.553 Q700.425 99.9611 700.425 103.617 L700.425 113.276 Q700.474 114.338 701.289 114.585 Q702.105 114.808 704.377 114.808 L704.377 116.364 Q699.214 116.216 698.695 116.216 Q698.3 116.216 692.989 116.364 L692.989 114.808 Q695.682 114.808 696.299 114.487 Q696.942 114.141 696.942 112.51 L696.942 100.727 Q696.942 98.1577 696.151 96.6508 Q695.361 95.1192 693.187 95.1192 Q690.568 95.1192 688.468 97.3178 Q686.369 99.5164 686.369 103.222 L686.369 112.51 Q686.369 114.141 686.986 114.487 Q687.628 114.808 690.296 114.808 L690.296 116.364 Q685.133 116.216 684.639 116.216 Q684.244 116.216 678.933 116.364 Z" fill="#000000" fill-rule="nonzero" fill-opacity="1" /><path clip-path="url(#clip170)" d="M704.921 96.132 L704.921 95.0204 Q707.243 94.9216 708.774 93.2912 Q710.331 91.636 710.85 89.6104 Q711.393 87.5847 711.442 85.2379 L712.702 85.2379 L712.702 94.551 L719.94 94.551 L719.94 96.132 L712.702 96.132 L712.702 110.188 Q712.702 115.648 716.111 115.648 Q717.569 115.648 718.532 114.165 Q719.496 112.659 719.496 109.991 L719.496 107.199 L720.756 107.199 L720.756 110.089 Q720.756 112.832 719.496 114.882 Q718.236 116.932 715.741 116.932 Q714.827 116.932 713.913 116.685 Q713.023 116.463 711.838 115.87 Q710.677 115.252 709.936 113.77 Q709.219 112.263 709.219 110.089 L709.219 96.132 L704.921 96.132 Z" fill="#000000" fill-rule="nonzero" fill-opacity="1" /><path clip-path="url(#clip170)" d="M724.98 116.364 L724.98 114.808 Q727.673 114.808 728.29 114.487 Q728.932 114.141 728.932 112.51 L728.932 98.9482 Q728.932 97.0708 728.265 96.6014 Q727.623 96.132 724.98 96.132 L724.98 94.551 L732.02 94.0076 L732.02 99.5658 Q732.737 97.3919 734.244 95.7121 Q735.775 94.0076 738.246 94.0076 Q739.876 94.0076 740.914 94.9216 Q741.976 95.8356 741.976 97.0955 Q741.976 98.2071 741.284 98.7753 Q740.617 99.3188 739.802 99.3188 Q738.888 99.3188 738.246 98.7506 Q737.628 98.1577 737.628 97.1449 Q737.628 96.5273 737.9 96.0579 Q738.196 95.5639 738.418 95.3909 Q738.641 95.218 738.789 95.1686 Q738.69 95.1192 738.246 95.1192 Q735.454 95.1192 733.848 97.9107 Q732.267 100.677 732.267 104.63 L732.267 112.412 Q732.267 113.869 732.86 114.338 Q733.478 114.808 736.121 114.808 L737.183 114.808 L737.183 116.364 Q735.158 116.216 730.76 116.216 Q730.143 116.216 729.179 116.241 Q728.216 116.265 726.956 116.315 Q725.696 116.364 724.98 116.364 Z" fill="#000000" fill-rule="nonzero" fill-opacity="1" /><path clip-path="url(#clip170)" d="M745.459 111.547 Q745.459 107.249 750.523 104.976 Q753.562 103.518 759.836 103.148 L759.836 101.295 Q759.836 98.1577 758.181 96.5026 Q756.551 94.8228 754.476 94.8228 Q750.77 94.8228 748.992 97.1449 Q750.498 97.1943 751.042 97.9601 Q751.585 98.7012 751.585 99.467 Q751.585 100.48 750.943 101.147 Q750.326 101.789 749.263 101.789 Q748.25 101.789 747.583 101.172 Q746.916 100.529 746.916 99.4176 Q746.916 96.9473 749.14 95.3168 Q751.388 93.6864 754.574 93.6864 Q758.725 93.6864 761.491 96.4779 Q762.356 97.3425 762.776 98.4542 Q763.221 99.5658 763.27 100.307 Q763.319 101.023 763.319 102.456 L763.319 112.56 Q763.319 112.856 763.418 113.35 Q763.517 113.844 763.962 114.487 Q764.431 115.104 765.197 115.104 Q767.025 115.104 767 111.868 L767 109.027 L768.285 109.027 L768.285 111.868 Q768.285 114.561 766.852 115.623 Q765.444 116.661 764.135 116.661 Q762.455 116.661 761.393 115.425 Q760.33 114.19 760.182 112.51 Q759.416 114.437 757.662 115.697 Q755.933 116.932 753.562 116.932 Q751.734 116.932 750.004 116.463 Q748.3 116.018 746.867 114.758 Q745.459 113.474 745.459 111.547 M749.362 111.498 Q749.362 113.375 750.696 114.585 Q752.03 115.796 753.907 115.796 Q756.032 115.796 757.934 114.165 Q759.836 112.51 759.836 109.274 L759.836 104.21 Q754.229 104.408 751.783 106.656 Q749.362 108.879 749.362 111.498 Z" fill="#000000" fill-rule="nonzero" fill-opacity="1" /><path clip-path="url(#clip170)" d="M770.311 116.364 L770.311 114.808 Q773.003 114.808 773.621 114.487 Q774.238 114.141 774.238 112.51 L774.238 86.2013 Q774.238 84.3238 773.571 83.8545 Q772.929 83.3851 770.311 83.3851 L770.311 81.8041 L777.573 81.2606 L777.573 112.51 Q777.573 114.141 778.216 114.487 Q778.858 114.808 781.526 114.808 L781.526 116.364 Q780.908 116.364 779.624 116.315 Q778.339 116.265 777.4 116.241 Q776.462 116.216 775.918 116.216 Q775.325 116.216 770.311 116.364 Z" fill="#000000" fill-rule="nonzero" fill-opacity="1" /><path clip-path="url(#clip170)" d="M784.317 116.364 L784.317 114.808 Q787.01 114.808 787.628 114.487 Q788.245 114.141 788.245 112.51 L788.245 98.8988 Q788.245 97.0214 787.603 96.5767 Q786.985 96.132 784.515 96.132 L784.515 94.551 L791.58 94.0076 L791.58 112.56 Q791.58 114.067 792.124 114.437 Q792.667 114.808 795.137 114.808 L795.137 116.364 Q789.974 116.216 789.876 116.216 Q789.184 116.216 784.317 116.364 M786.442 85.1885 Q786.442 84.1756 787.208 83.3604 Q787.998 82.5205 789.11 82.5205 Q790.221 82.5205 791.012 83.2863 Q791.802 84.0274 791.802 85.2132 Q791.802 86.3742 791.012 87.14 Q790.221 87.8811 789.11 87.8811 Q787.949 87.8811 787.183 87.0659 Q786.442 86.2507 786.442 85.1885 Z" fill="#000000" fill-rule="nonzero" fill-opacity="1" /><path clip-path="url(#clip170)" d="M798.052 115.648 Q798.052 115.302 798.522 114.734 L812.627 95.6627 L806.871 95.6627 Q802.87 95.6627 801.56 97.1449 Q800.276 98.6024 800.029 102.703 L798.769 102.703 L799.337 94.551 L815.518 94.551 Q816.086 94.551 816.308 94.5757 Q816.531 94.6004 816.679 94.7734 Q816.827 94.9216 816.827 95.218 Q816.827 95.5145 816.382 96.0826 L802.301 115.104 L808.28 115.104 Q812.479 115.104 813.887 113.35 Q815.32 111.596 815.666 106.903 L816.926 106.903 L816.061 116.364 L799.386 116.364 Q798.571 116.364 798.299 116.265 Q798.052 116.142 798.052 115.648 Z" fill="#000000" fill-rule="nonzero" fill-opacity="1" /><path clip-path="url(#clip170)" d="M820.508 105.223 Q820.508 100.455 823.571 97.0708 Q826.634 93.6864 831.031 93.6864 Q835.478 93.6864 837.775 96.5767 Q840.098 99.467 840.098 103.617 Q840.098 104.383 839.9 104.531 Q839.702 104.679 838.838 104.679 L824.707 104.679 Q824.707 109.842 826.239 112.263 Q828.363 115.648 831.945 115.648 Q832.439 115.648 833.032 115.549 Q833.625 115.45 834.836 115.03 Q836.046 114.585 837.108 113.424 Q838.171 112.263 838.788 110.435 Q838.936 109.719 839.431 109.744 Q840.098 109.744 840.098 110.336 Q840.098 110.781 839.603 111.794 Q839.134 112.782 838.22 113.968 Q837.306 115.154 835.527 116.043 Q833.773 116.932 831.649 116.932 Q827.202 116.932 823.843 113.573 Q820.508 110.188 820.508 105.223 M824.757 103.617 L836.763 103.617 Q836.763 102.555 836.565 101.369 Q836.392 100.183 835.849 98.553 Q835.33 96.8978 834.095 95.8603 Q832.859 94.8228 831.031 94.8228 Q830.216 94.8228 829.327 95.1686 Q828.462 95.5145 827.4 96.3544 Q826.338 97.1943 825.597 99.0964 Q824.856 100.999 824.757 103.617 Z" fill="#000000" fill-rule="nonzero" fill-opacity="1" /><path clip-path="url(#clip170)" d="M843.284 105.495 Q843.284 100.677 846.644 97.3425 Q850.004 94.0076 854.549 94.0076 Q858.403 94.0076 860.922 97.1449 L860.922 86.2013 Q860.922 84.3238 860.255 83.8545 Q859.613 83.3851 856.995 83.3851 L856.995 81.8041 L864.282 81.2606 L864.282 111.967 Q864.282 113.844 864.924 114.338 Q865.591 114.808 868.21 114.808 L868.21 116.364 L860.774 116.932 L860.774 113.573 Q858.156 116.908 854.006 116.932 Q849.658 116.932 846.471 113.597 Q843.284 110.262 843.284 105.495 M847.484 105.544 Q847.484 110.238 848.941 112.56 Q850.967 115.796 854.253 115.796 Q858.007 115.796 860.231 112.263 Q860.799 111.399 860.774 110.386 L860.774 100.01 Q860.774 98.9976 860.231 98.1577 Q858.156 95.1192 854.771 95.1192 Q851.239 95.1192 849.04 98.3553 Q847.484 100.776 847.484 105.544 Z" fill="#000000" fill-rule="nonzero" fill-opacity="1" /><path clip-path="url(#clip170)" d="M891.382 113.597 Q888.17 110.238 888.17 105.445 Q888.17 100.628 891.332 97.1696 Q894.494 93.6864 899.139 93.6864 Q902.226 93.6864 904.549 95.1686 Q906.871 96.6261 906.871 99.1211 Q906.871 100.233 906.204 100.875 Q905.561 101.493 904.549 101.493 Q903.486 101.493 902.844 100.85 Q902.226 100.183 902.226 99.1706 Q902.226 98.7259 902.375 98.2812 Q902.523 97.8366 903.066 97.3672 Q903.635 96.8978 904.598 96.8237 Q902.795 94.971 899.287 94.971 Q899.237 94.971 899.188 94.971 Q896.619 94.971 894.494 97.3919 Q892.37 99.8128 892.37 105.346 Q892.37 108.237 893.062 110.361 Q893.778 112.461 894.939 113.548 Q896.1 114.635 897.236 115.154 Q898.373 115.648 899.484 115.648 Q904.45 115.648 906.13 110.336 Q906.278 109.842 906.772 109.842 Q907.439 109.842 907.439 110.336 Q907.439 110.584 907.241 111.226 Q907.044 111.868 906.426 112.881 Q905.808 113.894 904.919 114.783 Q904.055 115.648 902.498 116.29 Q900.967 116.932 899.04 116.932 Q894.593 116.932 891.382 113.597 Z" fill="#000000" fill-rule="nonzero" fill-opacity="1" /><path clip-path="url(#clip170)" d="M913.639 113.647 Q910.304 110.336 910.304 105.544 Q910.304 100.727 913.565 97.219 Q916.851 93.6864 921.544 93.6864 Q926.139 93.6864 929.425 97.1943 Q932.735 100.677 932.735 105.544 Q932.735 110.312 929.4 113.622 Q926.09 116.932 921.495 116.932 Q916.999 116.932 913.639 113.647 M914.504 105.124 Q914.504 110.04 915.789 112.263 Q917.765 115.648 921.544 115.648 Q923.422 115.648 924.978 114.635 Q926.559 113.622 927.424 111.917 Q928.536 109.694 928.536 105.124 Q928.536 100.258 927.202 98.1083 Q925.225 94.8228 921.495 94.8228 Q919.865 94.8228 918.259 95.6874 Q916.678 96.5273 915.715 98.2071 Q914.504 100.43 914.504 105.124 Z" fill="#000000" fill-rule="nonzero" fill-opacity="1" /><path clip-path="url(#clip170)" d="M935.823 116.364 L935.823 114.808 Q938.516 114.808 939.133 114.487 Q939.751 114.141 939.751 112.51 L939.751 98.9482 Q939.751 97.0708 939.084 96.6014 Q938.442 96.132 935.823 96.132 L935.823 94.551 L942.938 94.0076 L942.938 99.3188 Q945.309 94.0076 950.423 94.0076 Q954.227 94.0076 955.734 95.885 Q956.846 97.1449 957.068 98.553 Q957.315 99.9611 957.315 103.617 L957.315 113.276 Q957.364 114.338 958.18 114.585 Q958.995 114.808 961.267 114.808 L961.267 116.364 Q956.104 116.216 955.586 116.216 Q955.19 116.216 949.879 116.364 L949.879 114.808 Q952.572 114.808 953.189 114.487 Q953.832 114.141 953.832 112.51 L953.832 100.727 Q953.832 98.1577 953.041 96.6508 Q952.251 95.1192 950.077 95.1192 Q947.458 95.1192 945.359 97.3178 Q943.259 99.5164 943.259 103.222 L943.259 112.51 Q943.259 114.141 943.876 114.487 Q944.519 114.808 947.187 114.808 L947.187 116.364 Q942.024 116.216 941.53 116.216 Q941.134 116.216 935.823 116.364 Z" fill="#000000" fill-rule="nonzero" fill-opacity="1" /><path clip-path="url(#clip170)" d="M961.811 96.132 L961.811 95.0204 Q964.133 94.9216 965.665 93.2912 Q967.221 91.636 967.74 89.6104 Q968.283 87.5847 968.333 85.2379 L969.593 85.2379 L969.593 94.551 L976.831 94.551 L976.831 96.132 L969.593 96.132 L969.593 110.188 Q969.593 115.648 973.002 115.648 Q974.459 115.648 975.423 114.165 Q976.386 112.659 976.386 109.991 L976.386 107.199 L977.646 107.199 L977.646 110.089 Q977.646 112.832 976.386 114.882 Q975.126 116.932 972.631 116.932 Q971.717 116.932 970.803 116.685 Q969.914 116.463 968.728 115.87 Q967.567 115.252 966.826 113.77 Q966.109 112.263 966.109 110.089 L966.109 96.132 L961.811 96.132 Z" fill="#000000" fill-rule="nonzero" fill-opacity="1" /><path clip-path="url(#clip170)" d="M981.87 116.364 L981.87 114.808 Q984.563 114.808 985.18 114.487 Q985.823 114.141 985.823 112.51 L985.823 98.9482 Q985.823 97.0708 985.156 96.6014 Q984.513 96.132 981.87 96.132 L981.87 94.551 L988.911 94.0076 L988.911 99.5658 Q989.627 97.3919 991.134 95.7121 Q992.665 94.0076 995.136 94.0076 Q996.766 94.0076 997.804 94.9216 Q998.866 95.8356 998.866 97.0955 Q998.866 98.2071 998.174 98.7753 Q997.507 99.3188 996.692 99.3188 Q995.778 99.3188 995.136 98.7506 Q994.518 98.1577 994.518 97.1449 Q994.518 96.5273 994.79 96.0579 Q995.086 95.5639 995.309 95.3909 Q995.531 95.218 995.679 95.1686 Q995.58 95.1192 995.136 95.1192 Q992.344 95.1192 990.739 97.9107 Q989.158 100.677 989.158 104.63 L989.158 112.412 Q989.158 113.869 989.75 114.338 Q990.368 114.808 993.011 114.808 L994.074 114.808 L994.074 116.364 Q992.048 116.216 987.651 116.216 Q987.033 116.216 986.07 116.241 Q985.106 116.265 983.846 116.315 Q982.586 116.364 981.87 116.364 Z" fill="#000000" fill-rule="nonzero" fill-opacity="1" /><path clip-path="url(#clip170)" d="M1004.97 113.647 Q1001.63 110.336 1001.63 105.544 Q1001.63 100.727 1004.89 97.219 Q1008.18 93.6864 1012.87 93.6864 Q1017.47 93.6864 1020.75 97.1943 Q1024.06 100.677 1024.06 105.544 Q1024.06 110.312 1020.73 113.622 Q1017.42 116.932 1012.82 116.932 Q1008.33 116.932 1004.97 113.647 M1005.83 105.124 Q1005.83 110.04 1007.12 112.263 Q1009.09 115.648 1012.87 115.648 Q1014.75 115.648 1016.31 114.635 Q1017.89 113.622 1018.75 111.917 Q1019.86 109.694 1019.86 105.124 Q1019.86 100.258 1018.53 98.1083 Q1016.55 94.8228 1012.82 94.8228 Q1011.19 94.8228 1009.59 95.6874 Q1008.01 96.5273 1007.04 98.2071 Q1005.83 100.43 1005.83 105.124 Z" fill="#000000" fill-rule="nonzero" fill-opacity="1" /><path clip-path="url(#clip170)" d="M1027.2 116.364 L1027.2 114.808 Q1029.89 114.808 1030.51 114.487 Q1031.13 114.141 1031.13 112.51 L1031.13 86.2013 Q1031.13 84.3238 1030.46 83.8545 Q1029.82 83.3851 1027.2 83.3851 L1027.2 81.8041 L1034.46 81.2606 L1034.46 112.51 Q1034.46 114.141 1035.11 114.487 Q1035.75 114.808 1038.42 114.808 L1038.42 116.364 Q1037.8 116.364 1036.51 116.315 Q1035.23 116.265 1034.29 116.241 Q1033.35 116.216 1032.81 116.216 Q1032.22 116.216 1027.2 116.364 Z" fill="#000000" fill-rule="nonzero" fill-opacity="1" /><path clip-path="url(#clip170)" d="M1041.21 116.364 L1041.21 114.808 Q1043.9 114.808 1044.52 114.487 Q1045.14 114.141 1045.14 112.51 L1045.14 86.2013 Q1045.14 84.3238 1044.47 83.8545 Q1043.83 83.3851 1041.21 83.3851 L1041.21 81.8041 L1048.47 81.2606 L1048.47 112.51 Q1048.47 114.141 1049.11 114.487 Q1049.75 114.808 1052.42 114.808 L1052.42 116.364 Q1051.81 116.364 1050.52 116.315 Q1049.24 116.265 1048.3 116.241 Q1047.36 116.216 1046.82 116.216 Q1046.22 116.216 1041.21 116.364 Z" fill="#000000" fill-rule="nonzero" fill-opacity="1" /><path clip-path="url(#clip170)" d="M1054.94 105.223 Q1054.94 100.455 1058.01 97.0708 Q1061.07 93.6864 1065.47 93.6864 Q1069.91 93.6864 1072.21 96.5767 Q1074.53 99.467 1074.53 103.617 Q1074.53 104.383 1074.33 104.531 Q1074.14 104.679 1073.27 104.679 L1059.14 104.679 Q1059.14 109.842 1060.67 112.263 Q1062.8 115.648 1066.38 115.648 Q1066.87 115.648 1067.47 115.549 Q1068.06 115.45 1069.27 115.03 Q1070.48 114.585 1071.54 113.424 Q1072.61 112.263 1073.22 110.435 Q1073.37 109.719 1073.87 109.744 Q1074.53 109.744 1074.53 110.336 Q1074.53 110.781 1074.04 111.794 Q1073.57 112.782 1072.65 113.968 Q1071.74 115.154 1069.96 116.043 Q1068.21 116.932 1066.08 116.932 Q1061.64 116.932 1058.28 113.573 Q1054.94 110.188 1054.94 105.223 M1059.19 103.617 L1071.2 103.617 Q1071.2 102.555 1071 101.369 Q1070.83 100.183 1070.28 98.553 Q1069.76 96.8978 1068.53 95.8603 Q1067.29 94.8228 1065.47 94.8228 Q1064.65 94.8228 1063.76 95.1686 Q1062.9 95.5145 1061.83 96.3544 Q1060.77 97.1943 1060.03 99.0964 Q1059.29 100.999 1059.19 103.617 Z" fill="#000000" fill-rule="nonzero" fill-opacity="1" /><path clip-path="url(#clip170)" d="M1077.4 116.364 L1077.4 114.808 Q1080.09 114.808 1080.71 114.487 Q1081.35 114.141 1081.35 112.51 L1081.35 98.9482 Q1081.35 97.0708 1080.68 96.6014 Q1080.04 96.132 1077.4 96.132 L1077.4 94.551 L1084.44 94.0076 L1084.44 99.5658 Q1085.15 97.3919 1086.66 95.7121 Q1088.19 94.0076 1090.66 94.0076 Q1092.29 94.0076 1093.33 94.9216 Q1094.39 95.8356 1094.39 97.0955 Q1094.39 98.2071 1093.7 98.7753 Q1093.04 99.3188 1092.22 99.3188 Q1091.31 99.3188 1090.66 98.7506 Q1090.05 98.1577 1090.05 97.1449 Q1090.05 96.5273 1090.32 96.0579 Q1090.61 95.5639 1090.84 95.3909 Q1091.06 95.218 1091.21 95.1686 Q1091.11 95.1192 1090.66 95.1192 Q1087.87 95.1192 1086.27 97.9107 Q1084.69 100.677 1084.69 104.63 L1084.69 112.412 Q1084.69 113.869 1085.28 114.338 Q1085.9 114.808 1088.54 114.808 L1089.6 114.808 L1089.6 116.364 Q1087.58 116.216 1083.18 116.216 Q1082.56 116.216 1081.6 116.241 Q1080.63 116.265 1079.37 116.315 Q1078.11 116.364 1077.4 116.364 Z" fill="#000000" fill-rule="nonzero" fill-opacity="1" /></svg>
