<?xml version="1.0" encoding="utf-8"?>
<svg xmlns="http://www.w3.org/2000/svg" xmlns:xlink="http://www.w3.org/1999/xlink" width="350" height="250" viewBox="0 0 1400 1000">
<defs>
  <clipPath id="clip160">
    <rect x="0" y="0" width="1400" height="1000"/>
  </clipPath>
</defs>
<path clip-path="url(#clip160)" d="M0 1000 L1400 1000 L1400 0 L0 0  Z" fill="#ffffff" fill-rule="evenodd" fill-opacity="1"/>
<defs>
  <clipPath id="clip161">
    <rect x="280" y="0" width="981" height="981"/>
  </clipPath>
</defs>
<path clip-path="url(#clip160)" d="M279.325 823.317 L1352.76 823.317 L1352.76 176.793 L279.325 176.793  Z" fill="#ffffff" fill-rule="evenodd" fill-opacity="1"/>
<defs>
  <clipPath id="clip162">
    <rect x="279" y="176" width="1074" height="648"/>
  </clipPath>
</defs>
<polyline clip-path="url(#clip162)" style="stroke:#000000; stroke-linecap:round; stroke-linejoin:round; stroke-width:2; stroke-opacity:0.1; fill:none" points="309.705,823.317 309.705,176.793 "/>
<polyline clip-path="url(#clip162)" style="stroke:#000000; stroke-linecap:round; stroke-linejoin:round; stroke-width:2; stroke-opacity:0.1; fill:none" points="512.239,823.317 512.239,176.793 "/>
<polyline clip-path="url(#clip162)" style="stroke:#000000; stroke-linecap:round; stroke-linejoin:round; stroke-width:2; stroke-opacity:0.1; fill:none" points="714.774,823.317 714.774,176.793 "/>
<polyline clip-path="url(#clip162)" style="stroke:#000000; stroke-linecap:round; stroke-linejoin:round; stroke-width:2; stroke-opacity:0.1; fill:none" points="917.308,823.317 917.308,176.793 "/>
<polyline clip-path="url(#clip162)" style="stroke:#000000; stroke-linecap:round; stroke-linejoin:round; stroke-width:2; stroke-opacity:0.1; fill:none" points="1119.84,823.317 1119.84,176.793 "/>
<polyline clip-path="url(#clip162)" style="stroke:#000000; stroke-linecap:round; stroke-linejoin:round; stroke-width:2; stroke-opacity:0.1; fill:none" points="1322.38,823.317 1322.38,176.793 "/>
<polyline clip-path="url(#clip160)" style="stroke:#000000; stroke-linecap:round; stroke-linejoin:round; stroke-width:4; stroke-opacity:1; fill:none" points="279.325,823.317 1352.76,823.317 "/>
<polyline clip-path="url(#clip160)" style="stroke:#000000; stroke-linecap:round; stroke-linejoin:round; stroke-width:4; stroke-opacity:1; fill:none" points="309.705,823.317 309.705,807.574 "/>
<polyline clip-path="url(#clip160)" style="stroke:#000000; stroke-linecap:round; stroke-linejoin:round; stroke-width:4; stroke-opacity:1; fill:none" points="512.239,823.317 512.239,807.574 "/>
<polyline clip-path="url(#clip160)" style="stroke:#000000; stroke-linecap:round; stroke-linejoin:round; stroke-width:4; stroke-opacity:1; fill:none" points="714.774,823.317 714.774,807.574 "/>
<polyline clip-path="url(#clip160)" style="stroke:#000000; stroke-linecap:round; stroke-linejoin:round; stroke-width:4; stroke-opacity:1; fill:none" points="917.308,823.317 917.308,807.574 "/>
<polyline clip-path="url(#clip160)" style="stroke:#000000; stroke-linecap:round; stroke-linejoin:round; stroke-width:4; stroke-opacity:1; fill:none" points="1119.84,823.317 1119.84,807.574 "/>
<polyline clip-path="url(#clip160)" style="stroke:#000000; stroke-linecap:round; stroke-linejoin:round; stroke-width:4; stroke-opacity:1; fill:none" points="1322.38,823.317 1322.38,807.574 "/>
<path clip-path="url(#clip160)" d="M287.67 848.839 L287.67 847.258 Q293.747 847.258 296.884 844.022 Q297.749 844.022 297.897 844.219 Q298.045 844.417 298.045 845.331 L298.045 873.715 Q298.045 875.222 298.787 875.691 Q299.528 876.161 302.764 876.161 L304.369 876.161 L304.369 877.717 Q302.591 877.569 296.168 877.569 Q289.745 877.569 287.991 877.717 L287.991 876.161 L289.597 876.161 Q292.784 876.161 293.549 875.716 Q294.315 875.247 294.315 873.715 L294.315 847.505 Q291.672 848.839 287.67 848.839 Z" fill="#000000" fill-rule="nonzero" fill-opacity="1" /><path clip-path="url(#clip160)" d="M310.447 861.536 Q310.447 854.101 312.324 850.049 Q314.943 844.022 321.118 844.022 Q322.428 844.022 323.786 844.392 Q325.17 844.738 326.899 846.097 Q328.653 847.455 329.715 849.679 Q331.741 853.977 331.741 861.536 Q331.741 868.923 329.863 872.949 Q327.121 878.829 321.069 878.829 Q318.796 878.829 316.474 877.668 Q314.177 876.507 312.719 873.715 Q310.447 869.54 310.447 861.536 M314.646 860.919 Q314.646 868.552 315.19 871.591 Q315.807 874.876 317.487 876.309 Q319.191 877.717 321.069 877.717 Q323.095 877.717 324.774 876.21 Q326.479 874.678 326.998 871.393 Q327.566 868.157 327.541 860.919 Q327.541 853.878 327.047 851.062 Q326.38 847.777 324.602 846.467 Q322.848 845.133 321.069 845.133 Q320.402 845.133 319.686 845.331 Q318.994 845.529 317.981 846.097 Q316.968 846.665 316.178 848.073 Q315.412 849.481 315.041 851.606 Q314.646 854.348 314.646 860.919 Z" fill="#000000" fill-rule="nonzero" fill-opacity="1" /><path clip-path="url(#clip160)" d="M477.556 848.839 L477.556 847.258 Q483.633 847.258 486.77 844.022 Q487.635 844.022 487.783 844.219 Q487.931 844.417 487.931 845.331 L487.931 873.715 Q487.931 875.222 488.672 875.691 Q489.414 876.161 492.65 876.161 L494.255 876.161 L494.255 877.717 Q492.477 877.569 486.054 877.569 Q479.631 877.569 477.877 877.717 L477.877 876.161 L479.483 876.161 Q482.67 876.161 483.435 875.716 Q484.201 875.247 484.201 873.715 L484.201 847.505 Q481.558 848.839 477.556 848.839 Z" fill="#000000" fill-rule="nonzero" fill-opacity="1" /><path clip-path="url(#clip160)" d="M500.332 861.536 Q500.332 854.101 502.21 850.049 Q504.828 844.022 511.004 844.022 Q512.314 844.022 513.672 844.392 Q515.056 844.738 516.785 846.097 Q518.539 847.455 519.601 849.679 Q521.627 853.977 521.627 861.536 Q521.627 868.923 519.749 872.949 Q517.007 878.829 510.955 878.829 Q508.682 878.829 506.36 877.668 Q504.063 876.507 502.605 873.715 Q500.332 869.54 500.332 861.536 M504.532 860.919 Q504.532 868.552 505.076 871.591 Q505.693 874.876 507.373 876.309 Q509.077 877.717 510.955 877.717 Q512.981 877.717 514.66 876.21 Q516.365 874.678 516.884 871.393 Q517.452 868.157 517.427 860.919 Q517.427 853.878 516.933 851.062 Q516.266 847.777 514.487 846.467 Q512.734 845.133 510.955 845.133 Q510.288 845.133 509.572 845.331 Q508.88 845.529 507.867 846.097 Q506.854 846.665 506.064 848.073 Q505.298 849.481 504.927 851.606 Q504.532 854.348 504.532 860.919 Z" fill="#000000" fill-rule="nonzero" fill-opacity="1" /><path clip-path="url(#clip160)" d="M525.629 861.536 Q525.629 854.101 527.506 850.049 Q530.125 844.022 536.301 844.022 Q537.61 844.022 538.969 844.392 Q540.352 844.738 542.081 846.097 Q543.835 847.455 544.897 849.679 Q546.923 853.977 546.923 861.536 Q546.923 868.923 545.046 872.949 Q542.303 878.829 536.251 878.829 Q533.978 878.829 531.656 877.668 Q529.359 876.507 527.901 873.715 Q525.629 869.54 525.629 861.536 M529.828 860.919 Q529.828 868.552 530.372 871.591 Q530.989 874.876 532.669 876.309 Q534.374 877.717 536.251 877.717 Q538.277 877.717 539.957 876.21 Q541.661 874.678 542.18 871.393 Q542.748 868.157 542.723 860.919 Q542.723 853.878 542.229 851.062 Q541.562 847.777 539.784 846.467 Q538.03 845.133 536.251 845.133 Q535.584 845.133 534.868 845.331 Q534.176 845.529 533.163 846.097 Q532.15 846.665 531.36 848.073 Q530.594 849.481 530.224 851.606 Q529.828 854.348 529.828 860.919 Z" fill="#000000" fill-rule="nonzero" fill-opacity="1" /><path clip-path="url(#clip160)" d="M666.454 877.717 Q666.454 876.803 666.528 876.531 Q666.627 876.259 667.022 875.84 L676.73 865.019 Q682.042 859.041 682.042 853.829 Q682.042 850.444 680.263 848.024 Q678.509 845.603 675.273 845.603 Q673.05 845.603 671.172 846.961 Q669.295 848.32 668.43 850.741 Q668.578 850.692 669.097 850.692 Q670.357 850.692 671.049 851.482 Q671.765 852.273 671.765 853.335 Q671.765 854.693 670.876 855.36 Q670.011 856.003 669.146 856.003 Q668.801 856.003 668.331 855.929 Q667.887 855.855 667.17 855.163 Q666.454 854.446 666.454 853.187 Q666.454 849.654 669.122 846.838 Q671.814 844.022 675.915 844.022 Q680.559 844.022 683.598 846.788 Q686.661 849.53 686.661 853.829 Q686.661 855.336 686.192 856.719 Q685.747 858.078 685.13 859.14 Q684.537 860.202 682.906 861.907 Q681.276 863.611 679.967 864.822 Q678.657 866.032 675.718 868.601 L670.357 873.814 L679.472 873.814 Q683.919 873.814 684.265 873.419 Q684.759 872.702 685.377 868.923 L686.661 868.923 L685.228 877.717 L666.454 877.717 Z" fill="#000000" fill-rule="nonzero" fill-opacity="1" /><path clip-path="url(#clip160)" d="M691.75 869.565 Q691.75 868.058 692.565 867.49 Q693.38 866.897 694.245 866.897 Q695.406 866.897 696.073 867.638 Q696.765 868.354 696.765 869.367 Q696.765 870.38 696.073 871.121 Q695.406 871.838 694.245 871.838 Q693.677 871.838 693.38 871.739 Q694.047 874.061 696.073 875.741 Q698.123 877.421 700.816 877.421 Q704.201 877.421 706.226 874.135 Q707.437 872.011 707.437 867.193 Q707.437 862.944 706.523 860.82 Q705.115 857.584 702.224 857.584 Q698.123 857.584 695.703 861.116 Q695.406 861.561 695.06 861.586 Q694.566 861.586 694.443 861.314 Q694.344 861.018 694.344 860.252 L694.344 845.281 Q694.344 844.071 694.838 844.071 Q695.036 844.071 695.456 844.219 Q698.642 845.627 702.175 845.652 Q705.806 845.652 709.067 844.17 Q709.314 844.022 709.462 844.022 Q709.956 844.022 709.981 844.59 Q709.981 844.787 709.561 845.38 Q709.166 845.948 708.301 846.714 Q707.437 847.455 706.325 848.172 Q705.213 848.888 703.583 849.382 Q701.977 849.852 700.199 849.852 Q698.074 849.852 695.9 849.185 L695.9 859.041 Q698.519 856.472 702.323 856.472 Q706.374 856.472 709.166 859.733 Q711.957 862.994 711.957 867.539 Q711.957 872.307 708.647 875.568 Q705.362 878.829 700.915 878.829 Q696.864 878.829 694.294 875.938 Q691.75 873.048 691.75 869.565 Z" fill="#000000" fill-rule="nonzero" fill-opacity="1" /><path clip-path="url(#clip160)" d="M716.503 861.536 Q716.503 854.101 718.38 850.049 Q720.999 844.022 727.175 844.022 Q728.484 844.022 729.843 844.392 Q731.226 844.738 732.955 846.097 Q734.709 847.455 735.771 849.679 Q737.797 853.977 737.797 861.536 Q737.797 868.923 735.92 872.949 Q733.178 878.829 727.125 878.829 Q724.853 878.829 722.53 877.668 Q720.233 876.507 718.776 873.715 Q716.503 869.54 716.503 861.536 M720.702 860.919 Q720.702 868.552 721.246 871.591 Q721.863 874.876 723.543 876.309 Q725.248 877.717 727.125 877.717 Q729.151 877.717 730.831 876.21 Q732.535 874.678 733.054 871.393 Q733.622 868.157 733.598 860.919 Q733.598 853.878 733.103 851.062 Q732.436 847.777 730.658 846.467 Q728.904 845.133 727.125 845.133 Q726.458 845.133 725.742 845.331 Q725.05 845.529 724.037 846.097 Q723.024 846.665 722.234 848.073 Q721.468 849.481 721.098 851.606 Q720.702 854.348 720.702 860.919 Z" fill="#000000" fill-rule="nonzero" fill-opacity="1" /><path clip-path="url(#clip160)" d="M741.799 861.536 Q741.799 854.101 743.676 850.049 Q746.295 844.022 752.471 844.022 Q753.78 844.022 755.139 844.392 Q756.522 844.738 758.251 846.097 Q760.005 847.455 761.068 849.679 Q763.093 853.977 763.093 861.536 Q763.093 868.923 761.216 872.949 Q758.474 878.829 752.421 878.829 Q750.149 878.829 747.827 877.668 Q745.529 876.507 744.072 873.715 Q741.799 869.54 741.799 861.536 M745.999 860.919 Q745.999 868.552 746.542 871.591 Q747.16 874.876 748.839 876.309 Q750.544 877.717 752.421 877.717 Q754.447 877.717 756.127 876.21 Q757.832 874.678 758.35 871.393 Q758.918 868.157 758.894 860.919 Q758.894 853.878 758.4 851.062 Q757.733 847.777 755.954 846.467 Q754.2 845.133 752.421 845.133 Q751.754 845.133 751.038 845.331 Q750.346 845.529 749.334 846.097 Q748.321 846.665 747.53 848.073 Q746.764 849.481 746.394 851.606 Q745.999 854.348 745.999 860.919 Z" fill="#000000" fill-rule="nonzero" fill-opacity="1" /><path clip-path="url(#clip160)" d="M868.988 869.565 Q868.988 868.058 869.803 867.49 Q870.618 866.897 871.483 866.897 Q872.644 866.897 873.311 867.638 Q874.003 868.354 874.003 869.367 Q874.003 870.38 873.311 871.121 Q872.644 871.838 871.483 871.838 Q870.915 871.838 870.618 871.739 Q871.285 874.061 873.311 875.741 Q875.361 877.421 878.054 877.421 Q881.438 877.421 883.464 874.135 Q884.675 872.011 884.675 867.193 Q884.675 862.944 883.76 860.82 Q882.352 857.584 879.462 857.584 Q875.361 857.584 872.94 861.116 Q872.644 861.561 872.298 861.586 Q871.804 861.586 871.681 861.314 Q871.582 861.018 871.582 860.252 L871.582 845.281 Q871.582 844.071 872.076 844.071 Q872.273 844.071 872.693 844.219 Q875.88 845.627 879.413 845.652 Q883.044 845.652 886.305 844.17 Q886.552 844.022 886.7 844.022 Q887.194 844.022 887.219 844.59 Q887.219 844.787 886.799 845.38 Q886.404 845.948 885.539 846.714 Q884.675 847.455 883.563 848.172 Q882.451 848.888 880.821 849.382 Q879.215 849.852 877.436 849.852 Q875.312 849.852 873.138 849.185 L873.138 859.041 Q875.757 856.472 879.561 856.472 Q883.612 856.472 886.404 859.733 Q889.195 862.994 889.195 867.539 Q889.195 872.307 885.885 875.568 Q882.599 878.829 878.153 878.829 Q874.101 878.829 871.532 875.938 Q868.988 873.048 868.988 869.565 Z" fill="#000000" fill-rule="nonzero" fill-opacity="1" /><path clip-path="url(#clip160)" d="M893.741 861.536 Q893.741 854.101 895.618 850.049 Q898.237 844.022 904.412 844.022 Q905.722 844.022 907.08 844.392 Q908.464 844.738 910.193 846.097 Q911.947 847.455 913.009 849.679 Q915.035 853.977 915.035 861.536 Q915.035 868.923 913.157 872.949 Q910.415 878.829 904.363 878.829 Q902.09 878.829 899.768 877.668 Q897.471 876.507 896.013 873.715 Q893.741 869.54 893.741 861.536 M897.94 860.919 Q897.94 868.552 898.484 871.591 Q899.101 874.876 900.781 876.309 Q902.486 877.717 904.363 877.717 Q906.389 877.717 908.069 876.21 Q909.773 874.678 910.292 871.393 Q910.86 868.157 910.835 860.919 Q910.835 853.878 910.341 851.062 Q909.674 847.777 907.896 846.467 Q906.142 845.133 904.363 845.133 Q903.696 845.133 902.98 845.331 Q902.288 845.529 901.275 846.097 Q900.262 846.665 899.472 848.073 Q898.706 849.481 898.335 851.606 Q897.94 854.348 897.94 860.919 Z" fill="#000000" fill-rule="nonzero" fill-opacity="1" /><path clip-path="url(#clip160)" d="M919.037 861.536 Q919.037 854.101 920.914 850.049 Q923.533 844.022 929.709 844.022 Q931.018 844.022 932.377 844.392 Q933.76 844.738 935.489 846.097 Q937.243 847.455 938.305 849.679 Q940.331 853.977 940.331 861.536 Q940.331 868.923 938.454 872.949 Q935.712 878.829 929.659 878.829 Q927.387 878.829 925.064 877.668 Q922.767 876.507 921.31 873.715 Q919.037 869.54 919.037 861.536 M923.236 860.919 Q923.236 868.552 923.78 871.591 Q924.398 874.876 926.077 876.309 Q927.782 877.717 929.659 877.717 Q931.685 877.717 933.365 876.21 Q935.069 874.678 935.588 871.393 Q936.156 868.157 936.132 860.919 Q936.132 853.878 935.638 851.062 Q934.971 847.777 933.192 846.467 Q931.438 845.133 929.659 845.133 Q928.992 845.133 928.276 845.331 Q927.584 845.529 926.571 846.097 Q925.559 846.665 924.768 848.073 Q924.002 849.481 923.632 851.606 Q923.236 854.348 923.236 860.919 Z" fill="#000000" fill-rule="nonzero" fill-opacity="1" /><path clip-path="url(#clip160)" d="M944.333 861.536 Q944.333 854.101 946.211 850.049 Q948.829 844.022 955.005 844.022 Q956.314 844.022 957.673 844.392 Q959.056 844.738 960.786 846.097 Q962.539 847.455 963.602 849.679 Q965.627 853.977 965.627 861.536 Q965.627 868.923 963.75 872.949 Q961.008 878.829 954.956 878.829 Q952.683 878.829 950.361 877.668 Q948.063 876.507 946.606 873.715 Q944.333 869.54 944.333 861.536 M948.533 860.919 Q948.533 868.552 949.076 871.591 Q949.694 874.876 951.374 876.309 Q953.078 877.717 954.956 877.717 Q956.981 877.717 958.661 876.21 Q960.366 874.678 960.884 871.393 Q961.453 868.157 961.428 860.919 Q961.428 853.878 960.934 851.062 Q960.267 847.777 958.488 846.467 Q956.734 845.133 954.956 845.133 Q954.289 845.133 953.572 845.331 Q952.88 845.529 951.868 846.097 Q950.855 846.665 950.064 848.073 Q949.298 849.481 948.928 851.606 Q948.533 854.348 948.533 860.919 Z" fill="#000000" fill-rule="nonzero" fill-opacity="1" /><path clip-path="url(#clip160)" d="M1059.86 848.839 L1059.86 847.258 Q1065.94 847.258 1069.08 844.022 Q1069.94 844.022 1070.09 844.219 Q1070.24 844.417 1070.24 845.331 L1070.24 873.715 Q1070.24 875.222 1070.98 875.691 Q1071.72 876.161 1074.96 876.161 L1076.56 876.161 L1076.56 877.717 Q1074.78 877.569 1068.36 877.569 Q1061.94 877.569 1060.18 877.717 L1060.18 876.161 L1061.79 876.161 Q1064.98 876.161 1065.74 875.716 Q1066.51 875.247 1066.51 873.715 L1066.51 847.505 Q1063.86 848.839 1059.86 848.839 Z" fill="#000000" fill-rule="nonzero" fill-opacity="1" /><path clip-path="url(#clip160)" d="M1082.64 861.536 Q1082.64 854.101 1084.52 850.049 Q1087.13 844.022 1093.31 844.022 Q1094.62 844.022 1095.98 844.392 Q1097.36 844.738 1099.09 846.097 Q1100.84 847.455 1101.91 849.679 Q1103.93 853.977 1103.93 861.536 Q1103.93 868.923 1102.06 872.949 Q1099.31 878.829 1093.26 878.829 Q1090.99 878.829 1088.67 877.668 Q1086.37 876.507 1084.91 873.715 Q1082.64 869.54 1082.64 861.536 M1086.84 860.919 Q1086.84 868.552 1087.38 871.591 Q1088 874.876 1089.68 876.309 Q1091.38 877.717 1093.26 877.717 Q1095.29 877.717 1096.97 876.21 Q1098.67 874.678 1099.19 871.393 Q1099.76 868.157 1099.73 860.919 Q1099.73 853.878 1099.24 851.062 Q1098.57 847.777 1096.79 846.467 Q1095.04 845.133 1093.26 845.133 Q1092.59 845.133 1091.88 845.331 Q1091.19 845.529 1090.17 846.097 Q1089.16 846.665 1088.37 848.073 Q1087.6 849.481 1087.23 851.606 Q1086.84 854.348 1086.84 860.919 Z" fill="#000000" fill-rule="nonzero" fill-opacity="1" /><path clip-path="url(#clip160)" d="M1107.93 861.536 Q1107.93 854.101 1109.81 850.049 Q1112.43 844.022 1118.61 844.022 Q1119.92 844.022 1121.27 844.392 Q1122.66 844.738 1124.39 846.097 Q1126.14 847.455 1127.2 849.679 Q1129.23 853.977 1129.23 861.536 Q1129.23 868.923 1127.35 872.949 Q1124.61 878.829 1118.56 878.829 Q1116.28 878.829 1113.96 877.668 Q1111.66 876.507 1110.21 873.715 Q1107.93 869.54 1107.93 861.536 M1112.13 860.919 Q1112.13 868.552 1112.68 871.591 Q1113.3 874.876 1114.98 876.309 Q1116.68 877.717 1118.56 877.717 Q1120.58 877.717 1122.26 876.21 Q1123.97 874.678 1124.49 871.393 Q1125.05 868.157 1125.03 860.919 Q1125.03 853.878 1124.54 851.062 Q1123.87 847.777 1122.09 846.467 Q1120.34 845.133 1118.56 845.133 Q1117.89 845.133 1117.17 845.331 Q1116.48 845.529 1115.47 846.097 Q1114.46 846.665 1113.67 848.073 Q1112.9 849.481 1112.53 851.606 Q1112.13 854.348 1112.13 860.919 Z" fill="#000000" fill-rule="nonzero" fill-opacity="1" /><path clip-path="url(#clip160)" d="M1133.23 861.536 Q1133.23 854.101 1135.11 850.049 Q1137.73 844.022 1143.9 844.022 Q1145.21 844.022 1146.57 844.392 Q1147.95 844.738 1149.68 846.097 Q1151.44 847.455 1152.5 849.679 Q1154.53 853.977 1154.53 861.536 Q1154.53 868.923 1152.65 872.949 Q1149.91 878.829 1143.85 878.829 Q1141.58 878.829 1139.26 877.668 Q1136.96 876.507 1135.5 873.715 Q1133.23 869.54 1133.23 861.536 M1137.43 860.919 Q1137.43 868.552 1137.97 871.591 Q1138.59 874.876 1140.27 876.309 Q1141.98 877.717 1143.85 877.717 Q1145.88 877.717 1147.56 876.21 Q1149.26 874.678 1149.78 871.393 Q1150.35 868.157 1150.33 860.919 Q1150.33 853.878 1149.83 851.062 Q1149.16 847.777 1147.39 846.467 Q1145.63 845.133 1143.85 845.133 Q1143.19 845.133 1142.47 845.331 Q1141.78 845.529 1140.77 846.097 Q1139.75 846.665 1138.96 848.073 Q1138.2 849.481 1137.83 851.606 Q1137.43 854.348 1137.43 860.919 Z" fill="#000000" fill-rule="nonzero" fill-opacity="1" /><path clip-path="url(#clip160)" d="M1158.53 861.536 Q1158.53 854.101 1160.4 850.049 Q1163.02 844.022 1169.2 844.022 Q1170.51 844.022 1171.87 844.392 Q1173.25 844.738 1174.98 846.097 Q1176.73 847.455 1177.8 849.679 Q1179.82 853.977 1179.82 861.536 Q1179.82 868.923 1177.94 872.949 Q1175.2 878.829 1169.15 878.829 Q1166.88 878.829 1164.55 877.668 Q1162.26 876.507 1160.8 873.715 Q1158.53 869.54 1158.53 861.536 M1162.73 860.919 Q1162.73 868.552 1163.27 871.591 Q1163.89 874.876 1165.57 876.309 Q1167.27 877.717 1169.15 877.717 Q1171.18 877.717 1172.86 876.21 Q1174.56 874.678 1175.08 871.393 Q1175.65 868.157 1175.62 860.919 Q1175.62 853.878 1175.13 851.062 Q1174.46 847.777 1172.68 846.467 Q1170.93 845.133 1169.15 845.133 Q1168.48 845.133 1167.77 845.331 Q1167.07 845.529 1166.06 846.097 Q1165.05 846.665 1164.26 848.073 Q1163.49 849.481 1163.12 851.606 Q1162.73 854.348 1162.73 860.919 Z" fill="#000000" fill-rule="nonzero" fill-opacity="1" /><path clip-path="url(#clip160)" d="M1261.41 877.717 Q1261.41 876.803 1261.48 876.531 Q1261.58 876.259 1261.98 875.84 L1271.68 865.019 Q1277 859.041 1277 853.829 Q1277 850.444 1275.22 848.024 Q1273.46 845.603 1270.23 845.603 Q1268 845.603 1266.13 846.961 Q1264.25 848.32 1263.38 850.741 Q1263.53 850.692 1264.05 850.692 Q1265.31 850.692 1266 851.482 Q1266.72 852.273 1266.72 853.335 Q1266.72 854.693 1265.83 855.36 Q1264.97 856.003 1264.1 856.003 Q1263.75 856.003 1263.29 855.929 Q1262.84 855.855 1262.12 855.163 Q1261.41 854.446 1261.41 853.187 Q1261.41 849.654 1264.08 846.838 Q1266.77 844.022 1270.87 844.022 Q1275.51 844.022 1278.55 846.788 Q1281.62 849.53 1281.62 853.829 Q1281.62 855.336 1281.15 856.719 Q1280.7 858.078 1280.08 859.14 Q1279.49 860.202 1277.86 861.907 Q1276.23 863.611 1274.92 864.822 Q1273.61 866.032 1270.67 868.601 L1265.31 873.814 L1274.43 873.814 Q1278.87 873.814 1279.22 873.419 Q1279.71 872.702 1280.33 868.923 L1281.62 868.923 L1280.18 877.717 L1261.41 877.717 Z" fill="#000000" fill-rule="nonzero" fill-opacity="1" /><path clip-path="url(#clip160)" d="M1286.16 861.536 Q1286.16 854.101 1288.04 850.049 Q1290.66 844.022 1296.83 844.022 Q1298.14 844.022 1299.5 844.392 Q1300.88 844.738 1302.61 846.097 Q1304.37 847.455 1305.43 849.679 Q1307.45 853.977 1307.45 861.536 Q1307.45 868.923 1305.58 872.949 Q1302.84 878.829 1296.78 878.829 Q1294.51 878.829 1292.19 877.668 Q1289.89 876.507 1288.43 873.715 Q1286.16 869.54 1286.16 861.536 M1290.36 860.919 Q1290.36 868.552 1290.9 871.591 Q1291.52 874.876 1293.2 876.309 Q1294.91 877.717 1296.78 877.717 Q1298.81 877.717 1300.49 876.21 Q1302.19 874.678 1302.71 871.393 Q1303.28 868.157 1303.26 860.919 Q1303.26 853.878 1302.76 851.062 Q1302.09 847.777 1300.32 846.467 Q1298.56 845.133 1296.78 845.133 Q1296.12 845.133 1295.4 845.331 Q1294.71 845.529 1293.7 846.097 Q1292.68 846.665 1291.89 848.073 Q1291.13 849.481 1290.76 851.606 Q1290.36 854.348 1290.36 860.919 Z" fill="#000000" fill-rule="nonzero" fill-opacity="1" /><path clip-path="url(#clip160)" d="M1311.46 861.536 Q1311.46 854.101 1313.33 850.049 Q1315.95 844.022 1322.13 844.022 Q1323.44 844.022 1324.8 844.392 Q1326.18 844.738 1327.91 846.097 Q1329.66 847.455 1330.73 849.679 Q1332.75 853.977 1332.75 861.536 Q1332.75 868.923 1330.87 872.949 Q1328.13 878.829 1322.08 878.829 Q1319.81 878.829 1317.48 877.668 Q1315.19 876.507 1313.73 873.715 Q1311.46 869.54 1311.46 861.536 M1315.66 860.919 Q1315.66 868.552 1316.2 871.591 Q1316.82 874.876 1318.5 876.309 Q1320.2 877.717 1322.08 877.717 Q1324.11 877.717 1325.78 876.21 Q1327.49 874.678 1328.01 871.393 Q1328.58 868.157 1328.55 860.919 Q1328.55 853.878 1328.06 851.062 Q1327.39 847.777 1325.61 846.467 Q1323.86 845.133 1322.08 845.133 Q1321.41 845.133 1320.7 845.331 Q1320 845.529 1318.99 846.097 Q1317.98 846.665 1317.19 848.073 Q1316.42 849.481 1316.05 851.606 Q1315.66 854.348 1315.66 860.919 Z" fill="#000000" fill-rule="nonzero" fill-opacity="1" /><path clip-path="url(#clip160)" d="M1336.75 861.536 Q1336.75 854.101 1338.63 850.049 Q1341.25 844.022 1347.43 844.022 Q1348.73 844.022 1350.09 844.392 Q1351.48 844.738 1353.21 846.097 Q1354.96 847.455 1356.02 849.679 Q1358.05 853.977 1358.05 861.536 Q1358.05 868.923 1356.17 872.949 Q1353.43 878.829 1347.38 878.829 Q1345.1 878.829 1342.78 877.668 Q1340.48 876.507 1339.03 873.715 Q1336.75 869.54 1336.75 861.536 M1340.95 860.919 Q1340.95 868.552 1341.5 871.591 Q1342.11 874.876 1343.79 876.309 Q1345.5 877.717 1347.38 877.717 Q1349.4 877.717 1351.08 876.21 Q1352.79 874.678 1353.3 871.393 Q1353.87 868.157 1353.85 860.919 Q1353.85 853.878 1353.35 851.062 Q1352.69 847.777 1350.91 846.467 Q1349.15 845.133 1347.38 845.133 Q1346.71 845.133 1345.99 845.331 Q1345.3 845.529 1344.29 846.097 Q1343.27 846.665 1342.48 848.073 Q1341.72 849.481 1341.35 851.606 Q1340.95 854.348 1340.95 860.919 Z" fill="#000000" fill-rule="nonzero" fill-opacity="1" /><path clip-path="url(#clip160)" d="M1362.05 861.536 Q1362.05 854.101 1363.93 850.049 Q1366.55 844.022 1372.72 844.022 Q1374.03 844.022 1375.39 844.392 Q1376.77 844.738 1378.5 846.097 Q1380.26 847.455 1381.32 849.679 Q1383.34 853.977 1383.34 861.536 Q1383.34 868.923 1381.47 872.949 Q1378.72 878.829 1372.67 878.829 Q1370.4 878.829 1368.08 877.668 Q1365.78 876.507 1364.32 873.715 Q1362.05 869.54 1362.05 861.536 M1366.25 860.919 Q1366.25 868.552 1366.79 871.591 Q1367.41 874.876 1369.09 876.309 Q1370.79 877.717 1372.67 877.717 Q1374.7 877.717 1376.38 876.21 Q1378.08 874.678 1378.6 871.393 Q1379.17 868.157 1379.14 860.919 Q1379.14 853.878 1378.65 851.062 Q1377.98 847.777 1376.2 846.467 Q1374.45 845.133 1372.67 845.133 Q1372 845.133 1371.29 845.331 Q1370.6 845.529 1369.58 846.097 Q1368.57 846.665 1367.78 848.073 Q1367.01 849.481 1366.64 851.606 Q1366.25 854.348 1366.25 860.919 Z" fill="#000000" fill-rule="nonzero" fill-opacity="1" /><path clip-path="url(#clip160)" d="M553.645 921.727 L554.969 906.103 L597.462 906.103 L598.787 921.727 L597.055 921.727 Q596.783 918.602 596.511 916.802 Q596.273 915.002 595.662 913.304 Q595.084 911.571 594.337 910.756 Q593.624 909.907 592.231 909.262 Q590.839 908.582 589.038 908.412 Q587.238 908.242 584.521 908.242 Q581.328 908.242 580.547 908.378 Q579.697 908.582 579.494 909.194 Q579.29 909.771 579.29 911.028 L579.29 947.678 Q579.29 949.071 579.562 949.648 Q579.867 950.192 581.464 950.633 Q583.06 951.041 586.593 951.041 L589.378 951.041 L589.378 953.181 Q586.525 952.977 576.165 952.977 Q565.873 952.977 563.02 953.181 L563.02 951.041 L565.805 951.041 Q569.337 951.041 570.934 950.633 Q572.564 950.192 572.836 949.648 Q573.108 949.071 573.108 947.678 L573.108 911.028 Q573.108 910.043 573.04 909.635 Q572.972 909.228 572.666 908.888 Q572.36 908.514 571.647 908.378 Q570.968 908.242 567.911 908.242 Q565.193 908.242 563.359 908.412 Q561.559 908.582 560.166 909.262 Q558.774 909.907 558.026 910.756 Q557.313 911.571 556.702 913.304 Q556.124 915.002 555.886 916.802 Q555.649 918.602 555.377 921.727 L553.645 921.727 Z" fill="#000000" fill-rule="nonzero" fill-opacity="1" /><path clip-path="url(#clip160)" d="M597.496 953.181 L597.496 951.041 Q601.199 951.041 602.048 950.599 Q602.931 950.124 602.931 947.882 L602.931 929.234 Q602.931 926.653 602.014 926.007 Q601.131 925.362 597.496 925.362 L597.496 923.188 L607.177 922.441 L607.177 930.083 Q608.162 927.094 610.234 924.784 Q612.34 922.441 615.736 922.441 Q617.978 922.441 619.405 923.698 Q620.866 924.954 620.866 926.687 Q620.866 928.215 619.914 928.996 Q618.997 929.744 617.876 929.744 Q616.62 929.744 615.736 928.962 Q614.887 928.147 614.887 926.755 Q614.887 925.905 615.261 925.26 Q615.669 924.581 615.974 924.343 Q616.28 924.105 616.484 924.037 Q616.348 923.969 615.736 923.969 Q611.898 923.969 609.69 927.808 Q607.516 931.612 607.516 937.047 L607.516 947.746 Q607.516 949.75 608.332 950.396 Q609.181 951.041 612.815 951.041 L614.276 951.041 L614.276 953.181 Q611.491 952.977 605.444 952.977 Q604.595 952.977 603.271 953.011 Q601.946 953.045 600.214 953.113 Q598.481 953.181 597.496 953.181 Z" fill="#000000" fill-rule="nonzero" fill-opacity="1" /><path clip-path="url(#clip160)" d="M625.655 946.557 Q625.655 940.647 632.618 937.522 Q636.796 935.518 645.424 935.009 L645.424 932.461 Q645.424 928.147 643.148 925.871 Q640.906 923.562 638.053 923.562 Q632.958 923.562 630.512 926.755 Q632.584 926.823 633.331 927.875 Q634.079 928.894 634.079 929.947 Q634.079 931.34 633.196 932.257 Q632.346 933.14 630.886 933.14 Q629.493 933.14 628.576 932.291 Q627.659 931.408 627.659 929.88 Q627.659 926.483 630.716 924.241 Q633.807 921.999 638.189 921.999 Q643.895 921.999 647.7 925.837 Q648.888 927.026 649.466 928.555 Q650.077 930.083 650.145 931.102 Q650.213 932.087 650.213 934.057 L650.213 947.95 Q650.213 948.358 650.349 949.037 Q650.485 949.716 651.096 950.599 Q651.742 951.449 652.795 951.449 Q655.308 951.449 655.274 946.999 L655.274 943.093 L657.041 943.093 L657.041 946.999 Q657.041 950.701 655.07 952.162 Q653.134 953.589 651.334 953.589 Q649.024 953.589 647.564 951.89 Q646.103 950.192 645.899 947.882 Q644.846 950.532 642.435 952.264 Q640.057 953.962 636.796 953.962 Q634.283 953.962 631.905 953.317 Q629.561 952.705 627.591 950.973 Q625.655 949.207 625.655 946.557 M631.022 946.489 Q631.022 949.071 632.856 950.735 Q634.69 952.4 637.272 952.4 Q640.193 952.4 642.808 950.158 Q645.424 947.882 645.424 943.432 L645.424 936.469 Q637.713 936.741 634.35 939.832 Q631.022 942.889 631.022 946.489 Z" fill="#000000" fill-rule="nonzero" fill-opacity="1" /><path clip-path="url(#clip160)" d="M659.826 953.181 L659.826 951.041 Q663.528 951.041 664.377 950.599 Q665.227 950.124 665.227 947.882 L665.227 929.166 Q665.227 926.585 664.343 925.973 Q663.494 925.362 660.098 925.362 L660.098 923.188 L669.812 922.441 L669.812 947.95 Q669.812 950.022 670.559 950.532 Q671.307 951.041 674.703 951.041 L674.703 953.181 Q667.604 952.977 667.468 952.977 Q666.517 952.977 659.826 953.181 M662.747 910.314 Q662.747 908.922 663.8 907.801 Q664.887 906.646 666.415 906.646 Q667.944 906.646 669.031 907.699 Q670.118 908.718 670.118 910.348 Q670.118 911.945 669.031 912.998 Q667.944 914.017 666.415 914.017 Q664.819 914.017 663.766 912.896 Q662.747 911.775 662.747 910.314 Z" fill="#000000" fill-rule="nonzero" fill-opacity="1" /><path clip-path="url(#clip160)" d="M679.017 953.181 L679.017 951.041 Q682.72 951.041 683.569 950.599 Q684.418 950.124 684.418 947.882 L684.418 929.234 Q684.418 926.653 683.501 926.007 Q682.618 925.362 679.017 925.362 L679.017 923.188 L688.8 922.441 L688.8 929.744 Q692.061 922.441 699.092 922.441 Q704.323 922.441 706.395 925.022 Q707.923 926.755 708.229 928.691 Q708.569 930.627 708.569 935.654 L708.569 948.935 Q708.637 950.396 709.757 950.735 Q710.878 951.041 714.003 951.041 L714.003 953.181 Q706.904 952.977 706.191 952.977 Q705.647 952.977 698.345 953.181 L698.345 951.041 Q702.047 951.041 702.896 950.599 Q703.779 950.124 703.779 947.882 L703.779 931.68 Q703.779 928.147 702.692 926.075 Q701.605 923.969 698.616 923.969 Q695.016 923.969 692.129 926.992 Q689.241 930.015 689.241 935.11 L689.241 947.882 Q689.241 950.124 690.091 950.599 Q690.974 951.041 694.642 951.041 L694.642 953.181 Q687.543 952.977 686.864 952.977 Q686.32 952.977 679.017 953.181 Z" fill="#000000" fill-rule="nonzero" fill-opacity="1" /><path clip-path="url(#clip160)" d="M717.672 953.181 L717.672 951.041 Q721.374 951.041 722.223 950.599 Q723.073 950.124 723.073 947.882 L723.073 929.166 Q723.073 926.585 722.189 925.973 Q721.34 925.362 717.944 925.362 L717.944 923.188 L727.658 922.441 L727.658 947.95 Q727.658 950.022 728.405 950.532 Q729.153 951.041 732.549 951.041 L732.549 953.181 Q725.45 952.977 725.314 952.977 Q724.363 952.977 717.672 953.181 M720.593 910.314 Q720.593 908.922 721.646 907.801 Q722.733 906.646 724.261 906.646 Q725.79 906.646 726.877 907.699 Q727.964 908.718 727.964 910.348 Q727.964 911.945 726.877 912.998 Q725.79 914.017 724.261 914.017 Q722.665 914.017 721.612 912.896 Q720.593 911.775 720.593 910.314 Z" fill="#000000" fill-rule="nonzero" fill-opacity="1" /><path clip-path="url(#clip160)" d="M736.863 953.181 L736.863 951.041 Q740.566 951.041 741.415 950.599 Q742.264 950.124 742.264 947.882 L742.264 929.234 Q742.264 926.653 741.347 926.007 Q740.464 925.362 736.863 925.362 L736.863 923.188 L746.646 922.441 L746.646 929.744 Q749.907 922.441 756.938 922.441 Q762.169 922.441 764.241 925.022 Q765.769 926.755 766.075 928.691 Q766.415 930.627 766.415 935.654 L766.415 948.935 Q766.483 950.396 767.603 950.735 Q768.724 951.041 771.849 951.041 L771.849 953.181 Q764.75 952.977 764.037 952.977 Q763.493 952.977 756.191 953.181 L756.191 951.041 Q759.893 951.041 760.742 950.599 Q761.625 950.124 761.625 947.882 L761.625 931.68 Q761.625 928.147 760.538 926.075 Q759.451 923.969 756.462 923.969 Q752.862 923.969 749.975 926.992 Q747.087 930.015 747.087 935.11 L747.087 947.882 Q747.087 950.124 747.937 950.599 Q748.82 951.041 752.488 951.041 L752.488 953.181 Q745.389 952.977 744.71 952.977 Q744.166 952.977 736.863 953.181 Z" fill="#000000" fill-rule="nonzero" fill-opacity="1" /><path clip-path="url(#clip160)" d="M775.144 958.684 Q775.144 956.442 776.843 954.506 Q778.575 952.57 781.564 951.72 Q778.507 949.784 778.507 945.538 Q778.507 942.278 780.647 939.764 Q777.386 937.047 777.386 932.597 Q777.386 928.487 780.647 925.464 Q783.908 922.441 788.663 922.441 Q792.841 922.441 796.034 924.954 Q799.363 921.693 803.405 921.659 Q805.205 921.659 806.054 922.78 Q806.937 923.901 806.937 925.09 Q806.937 926.143 806.258 926.653 Q805.613 927.162 804.933 927.162 Q804.084 927.162 803.473 926.619 Q802.895 926.041 802.895 925.158 Q802.895 923.698 804.016 923.256 Q803.812 923.188 803.337 923.188 Q799.94 923.188 797.053 925.905 Q799.906 928.555 799.906 932.665 Q799.906 936.775 796.645 939.798 Q793.385 942.821 788.663 942.821 Q784.757 942.821 781.768 940.647 Q780.579 942.04 780.579 943.942 Q780.579 945.674 781.632 947.033 Q782.685 948.392 784.281 948.595 Q784.757 948.663 789.478 948.663 Q792.264 948.663 793.792 948.731 Q795.321 948.799 797.495 949.275 Q799.702 949.716 801.435 950.599 Q805.952 953.113 805.986 958.548 Q805.986 962.522 801.401 965.002 Q796.849 967.515 790.531 967.515 Q784.145 967.515 779.628 964.968 Q775.144 962.454 775.144 958.684 M778.779 958.684 Q778.779 961.537 782.141 963.711 Q785.504 965.919 790.599 965.919 Q795.592 965.919 798.955 963.745 Q802.352 961.605 802.352 958.684 Q802.352 956.612 801.163 955.287 Q799.974 953.962 797.529 953.419 Q795.117 952.909 793.418 952.807 Q791.72 952.705 788.595 952.705 L784.485 952.705 Q782.107 952.841 780.443 954.574 Q778.779 956.306 778.779 958.684 M782.583 932.665 Q782.583 941.225 788.663 941.225 Q791.72 941.225 793.588 938.439 Q794.709 936.571 794.709 932.597 Q794.709 924.037 788.663 924.037 Q785.606 924.037 783.704 926.823 Q782.583 928.691 782.583 932.665 Z" fill="#000000" fill-rule="nonzero" fill-opacity="1" /><path clip-path="url(#clip160)" d="M833.058 937.862 Q833.058 931.306 837.27 926.653 Q841.482 921.999 847.528 921.999 Q853.642 921.999 856.801 925.973 Q859.994 929.947 859.994 935.654 Q859.994 936.707 859.722 936.911 Q859.451 937.115 858.262 937.115 L838.833 937.115 Q838.833 944.214 840.938 947.542 Q843.86 952.196 848.785 952.196 Q849.464 952.196 850.279 952.06 Q851.095 951.924 852.759 951.347 Q854.423 950.735 855.884 949.139 Q857.345 947.542 858.194 945.029 Q858.398 944.044 859.077 944.078 Q859.994 944.078 859.994 944.893 Q859.994 945.504 859.315 946.897 Q858.669 948.256 857.413 949.886 Q856.156 951.517 853.71 952.739 Q851.298 953.962 848.377 953.962 Q842.263 953.962 837.644 949.343 Q833.058 944.689 833.058 937.862 M838.9 935.654 L855.408 935.654 Q855.408 934.193 855.137 932.563 Q854.899 930.933 854.152 928.691 Q853.438 926.415 851.74 924.988 Q850.042 923.562 847.528 923.562 Q846.407 923.562 845.184 924.037 Q843.996 924.513 842.535 925.668 Q841.074 926.823 840.055 929.438 Q839.036 932.053 838.9 935.654 Z" fill="#000000" fill-rule="nonzero" fill-opacity="1" /><path clip-path="url(#clip160)" d="M863.934 964.526 Q867.637 964.526 868.486 964.05 Q869.369 963.609 869.369 961.401 L869.369 928.827 Q869.369 926.517 868.486 925.939 Q867.637 925.362 863.934 925.362 L863.934 923.188 L873.955 922.441 L873.955 927.026 Q878.132 922.441 883.703 922.441 Q889.613 922.441 893.927 927.026 Q898.241 931.612 898.241 938.168 Q898.241 944.791 893.655 949.377 Q889.07 953.962 882.718 953.962 Q879.253 953.962 876.91 952.196 Q874.6 950.396 874.158 949.071 L874.158 949.716 L874.158 961.401 Q874.158 963.643 875.041 964.084 Q875.925 964.526 879.593 964.526 L879.593 966.666 Q872.29 966.462 871.747 966.462 Q871.067 966.462 863.934 966.666 L863.934 964.526 M874.158 945.267 Q874.158 946.32 874.294 946.693 Q874.464 947.067 875.143 948.188 Q877.895 952.4 882.378 952.4 Q882.412 952.4 882.446 952.4 Q886.42 952.4 889.444 948.358 Q892.467 944.282 892.467 938.168 Q892.467 932.325 889.715 928.249 Q886.964 924.173 883.16 924.173 Q880.442 924.173 878.065 925.634 Q875.687 927.094 874.158 929.744 L874.158 945.267 Z" fill="#000000" fill-rule="nonzero" fill-opacity="1" /><path clip-path="url(#clip160)" d="M902.895 953.181 L902.895 951.041 Q906.597 951.041 907.446 950.599 Q908.295 950.124 908.295 947.882 L908.295 929.166 Q908.295 926.585 907.412 925.973 Q906.563 925.362 903.166 925.362 L903.166 923.188 L912.881 922.441 L912.881 947.95 Q912.881 950.022 913.628 950.532 Q914.375 951.041 917.772 951.041 L917.772 953.181 Q910.673 952.977 910.537 952.977 Q909.586 952.977 902.895 953.181 M905.816 910.314 Q905.816 908.922 906.869 907.801 Q907.956 906.646 909.484 906.646 Q911.013 906.646 912.1 907.699 Q913.187 908.718 913.187 910.348 Q913.187 911.945 912.1 912.998 Q911.013 914.017 909.484 914.017 Q907.888 914.017 906.835 912.896 Q905.816 911.775 905.816 910.314 Z" fill="#000000" fill-rule="nonzero" fill-opacity="1" /><path clip-path="url(#clip160)" d="M922.154 952.264 L922.154 943.093 Q922.154 942.312 922.188 942.04 Q922.222 941.768 922.426 941.564 Q922.629 941.36 923.037 941.36 Q923.513 941.36 923.682 941.564 Q923.886 941.768 924.022 942.549 Q925.075 947.339 927.317 949.886 Q929.593 952.4 933.703 952.4 Q937.609 952.4 939.579 950.667 Q941.549 948.935 941.549 946.082 Q941.549 940.987 934.314 939.696 Q930.136 938.847 928.404 938.303 Q926.672 937.726 925.143 936.469 Q922.154 934.024 922.154 930.559 Q922.154 927.094 924.769 924.547 Q927.419 921.999 933.261 921.999 Q937.167 921.999 939.817 923.969 Q940.598 923.358 941.006 922.848 Q941.923 921.999 942.398 921.999 Q942.942 921.999 943.044 922.373 Q943.146 922.712 943.146 923.698 L943.146 930.695 Q943.146 931.476 943.112 931.748 Q943.078 932.019 942.874 932.223 Q942.67 932.393 942.228 932.393 Q941.447 932.393 941.413 931.748 Q940.87 923.324 933.261 923.324 Q929.151 923.324 927.317 924.92 Q925.483 926.483 925.483 928.623 Q925.483 929.812 926.026 930.729 Q926.604 931.612 927.317 932.155 Q928.064 932.665 929.423 933.174 Q930.782 933.65 931.597 933.82 Q932.446 933.99 934.042 934.329 Q939.613 935.382 941.957 937.658 Q944.878 940.579 944.878 944.282 Q944.878 948.392 942.093 951.177 Q939.307 953.962 933.703 953.962 Q929.185 953.962 926.026 950.939 Q925.619 951.347 925.313 951.72 Q925.007 952.06 924.871 952.196 Q924.769 952.332 924.735 952.434 Q924.701 952.502 924.633 952.57 Q923.241 953.962 922.901 953.962 Q922.358 953.962 922.256 953.589 Q922.154 953.249 922.154 952.264 Z" fill="#000000" fill-rule="nonzero" fill-opacity="1" /><path clip-path="url(#clip160)" d="M953.743 949.445 Q949.158 944.893 949.158 938.303 Q949.158 931.68 953.641 926.856 Q958.159 921.999 964.613 921.999 Q970.931 921.999 975.448 926.823 Q980 931.612 980 938.303 Q980 944.859 975.414 949.411 Q970.863 953.962 964.545 953.962 Q958.363 953.962 953.743 949.445 M954.932 937.726 Q954.932 944.485 956.698 947.542 Q959.416 952.196 964.613 952.196 Q967.194 952.196 969.334 950.803 Q971.508 949.411 972.697 947.067 Q974.225 944.01 974.225 937.726 Q974.225 931.034 972.391 928.079 Q969.674 923.562 964.545 923.562 Q962.303 923.562 960.095 924.751 Q957.921 925.905 956.597 928.215 Q954.932 931.272 954.932 937.726 Z" fill="#000000" fill-rule="nonzero" fill-opacity="1" /><path clip-path="url(#clip160)" d="M986.318 938.235 Q986.318 931.612 990.937 927.026 Q995.557 922.441 1001.81 922.441 Q1007.11 922.441 1010.57 926.755 L1010.57 911.707 Q1010.57 909.126 1009.65 908.48 Q1008.77 907.835 1005.17 907.835 L1005.17 905.661 L1015.19 904.914 L1015.19 947.135 Q1015.19 949.716 1016.07 950.396 Q1016.99 951.041 1020.59 951.041 L1020.59 953.181 L1010.37 953.962 L1010.37 949.343 Q1006.77 953.928 1001.06 953.962 Q995.081 953.962 990.7 949.377 Q986.318 944.791 986.318 938.235 M992.092 938.303 Q992.092 944.757 994.096 947.95 Q996.882 952.4 1001.4 952.4 Q1006.56 952.4 1009.62 947.542 Q1010.4 946.354 1010.37 944.961 L1010.37 930.695 Q1010.37 929.302 1009.62 928.147 Q1006.77 923.969 1002.11 923.969 Q997.255 923.969 994.232 928.419 Q992.092 931.748 992.092 938.303 Z" fill="#000000" fill-rule="nonzero" fill-opacity="1" /><path clip-path="url(#clip160)" d="M1024.46 937.862 Q1024.46 931.306 1028.67 926.653 Q1032.89 921.999 1038.93 921.999 Q1045.05 921.999 1048.21 925.973 Q1051.4 929.947 1051.4 935.654 Q1051.4 936.707 1051.13 936.911 Q1050.86 937.115 1049.67 937.115 L1030.24 937.115 Q1030.24 944.214 1032.34 947.542 Q1035.26 952.196 1040.19 952.196 Q1040.87 952.196 1041.68 952.06 Q1042.5 951.924 1044.16 951.347 Q1045.83 950.735 1047.29 949.139 Q1048.75 947.542 1049.6 945.029 Q1049.8 944.044 1050.48 944.078 Q1051.4 944.078 1051.4 944.893 Q1051.4 945.504 1050.72 946.897 Q1050.07 948.256 1048.82 949.886 Q1047.56 951.517 1045.11 952.739 Q1042.7 953.962 1039.78 953.962 Q1033.67 953.962 1029.05 949.343 Q1024.46 944.689 1024.46 937.862 M1030.31 935.654 L1046.81 935.654 Q1046.81 934.193 1046.54 932.563 Q1046.3 930.933 1045.56 928.691 Q1044.84 926.415 1043.14 924.988 Q1041.45 923.562 1038.93 923.562 Q1037.81 923.562 1036.59 924.037 Q1035.4 924.513 1033.94 925.668 Q1032.48 926.823 1031.46 929.438 Q1030.44 932.053 1030.31 935.654 Z" fill="#000000" fill-rule="nonzero" fill-opacity="1" /><path clip-path="url(#clip160)" d="M1055.71 952.264 L1055.71 943.093 Q1055.71 942.312 1055.75 942.04 Q1055.78 941.768 1055.98 941.564 Q1056.19 941.36 1056.6 941.36 Q1057.07 941.36 1057.24 941.564 Q1057.44 941.768 1057.58 942.549 Q1058.63 947.339 1060.88 949.886 Q1063.15 952.4 1067.26 952.4 Q1071.17 952.4 1073.14 950.667 Q1075.11 948.935 1075.11 946.082 Q1075.11 940.987 1067.87 939.696 Q1063.69 938.847 1061.96 938.303 Q1060.23 937.726 1058.7 936.469 Q1055.71 934.024 1055.71 930.559 Q1055.71 927.094 1058.33 924.547 Q1060.98 921.999 1066.82 921.999 Q1070.73 921.999 1073.38 923.969 Q1074.16 923.358 1074.56 922.848 Q1075.48 921.999 1075.96 921.999 Q1076.5 921.999 1076.6 922.373 Q1076.7 922.712 1076.7 923.698 L1076.7 930.695 Q1076.7 931.476 1076.67 931.748 Q1076.64 932.019 1076.43 932.223 Q1076.23 932.393 1075.79 932.393 Q1075.01 932.393 1074.97 931.748 Q1074.43 923.324 1066.82 923.324 Q1062.71 923.324 1060.88 924.92 Q1059.04 926.483 1059.04 928.623 Q1059.04 929.812 1059.58 930.729 Q1060.16 931.612 1060.88 932.155 Q1061.62 932.665 1062.98 933.174 Q1064.34 933.65 1065.16 933.82 Q1066 933.99 1067.6 934.329 Q1073.17 935.382 1075.52 937.658 Q1078.44 940.579 1078.44 944.282 Q1078.44 948.392 1075.65 951.177 Q1072.87 953.962 1067.26 953.962 Q1062.74 953.962 1059.58 950.939 Q1059.18 951.347 1058.87 951.72 Q1058.57 952.06 1058.43 952.196 Q1058.33 952.332 1058.29 952.434 Q1058.26 952.502 1058.19 952.57 Q1056.8 953.962 1056.46 953.962 Q1055.92 953.962 1055.81 953.589 Q1055.71 953.249 1055.71 952.264 Z" fill="#000000" fill-rule="nonzero" fill-opacity="1" /><polyline clip-path="url(#clip162)" style="stroke:#000000; stroke-linecap:round; stroke-linejoin:round; stroke-width:2; stroke-opacity:0.1; fill:none" points="279.325,706.971 1352.76,706.971 "/>
<polyline clip-path="url(#clip162)" style="stroke:#000000; stroke-linecap:round; stroke-linejoin:round; stroke-width:2; stroke-opacity:0.1; fill:none" points="279.325,532.799 1352.76,532.799 "/>
<polyline clip-path="url(#clip162)" style="stroke:#000000; stroke-linecap:round; stroke-linejoin:round; stroke-width:2; stroke-opacity:0.1; fill:none" points="279.325,358.628 1352.76,358.628 "/>
<polyline clip-path="url(#clip162)" style="stroke:#000000; stroke-linecap:round; stroke-linejoin:round; stroke-width:2; stroke-opacity:0.1; fill:none" points="279.325,184.457 1352.76,184.457 "/>
<polyline clip-path="url(#clip160)" style="stroke:#000000; stroke-linecap:round; stroke-linejoin:round; stroke-width:4; stroke-opacity:1; fill:none" points="279.325,823.317 279.325,176.793 "/>
<polyline clip-path="url(#clip160)" style="stroke:#000000; stroke-linecap:round; stroke-linejoin:round; stroke-width:4; stroke-opacity:1; fill:none" points="279.325,706.971 298.223,706.971 "/>
<polyline clip-path="url(#clip160)" style="stroke:#000000; stroke-linecap:round; stroke-linejoin:round; stroke-width:4; stroke-opacity:1; fill:none" points="279.325,532.799 298.223,532.799 "/>
<polyline clip-path="url(#clip160)" style="stroke:#000000; stroke-linecap:round; stroke-linejoin:round; stroke-width:4; stroke-opacity:1; fill:none" points="279.325,358.628 298.223,358.628 "/>
<polyline clip-path="url(#clip160)" style="stroke:#000000; stroke-linecap:round; stroke-linejoin:round; stroke-width:4; stroke-opacity:1; fill:none" points="279.325,184.457 298.223,184.457 "/>
<path clip-path="url(#clip160)" d="M156.053 710.886 Q156.35 711.182 156.35 711.602 Q156.35 712.022 156.053 712.319 Q155.757 712.615 155.337 712.615 L123.667 712.615 Q123.247 712.615 122.951 712.319 Q122.654 712.022 122.654 711.602 Q122.654 711.182 122.951 710.886 Q123.247 710.59 123.667 710.59 L155.337 710.59 Q155.757 710.59 156.053 710.886 Z" fill="#000000" fill-rule="nonzero" fill-opacity="1" /><path clip-path="url(#clip160)" d="M161.686 724.251 Q161.686 723.337 161.76 723.065 Q161.859 722.793 162.254 722.373 L171.962 711.553 Q177.274 705.575 177.274 700.362 Q177.274 696.978 175.495 694.557 Q173.741 692.136 170.505 692.136 Q168.282 692.136 166.404 693.495 Q164.527 694.854 163.662 697.275 Q163.81 697.225 164.329 697.225 Q165.589 697.225 166.281 698.016 Q166.997 698.806 166.997 699.868 Q166.997 701.227 166.108 701.894 Q165.243 702.536 164.378 702.536 Q164.033 702.536 163.563 702.462 Q163.119 702.388 162.402 701.696 Q161.686 700.98 161.686 699.72 Q161.686 696.188 164.354 693.371 Q167.046 690.555 171.147 690.555 Q175.791 690.555 178.83 693.322 Q181.893 696.064 181.893 700.362 Q181.893 701.869 181.424 703.253 Q180.979 704.611 180.361 705.674 Q179.769 706.736 178.138 708.44 Q176.508 710.145 175.198 711.355 Q173.889 712.566 170.95 715.135 L165.589 720.347 L174.704 720.347 Q179.151 720.347 179.497 719.952 Q179.991 719.236 180.609 715.456 L181.893 715.456 L180.46 724.251 L161.686 724.251 Z" fill="#000000" fill-rule="nonzero" fill-opacity="1" /><path clip-path="url(#clip160)" d="M186.439 708.07 Q186.439 700.634 188.316 696.583 Q190.935 690.555 197.11 690.555 Q198.42 690.555 199.778 690.926 Q201.162 691.272 202.891 692.63 Q204.645 693.989 205.707 696.212 Q207.733 700.511 207.733 708.07 Q207.733 715.456 205.855 719.483 Q203.113 725.362 197.061 725.362 Q194.788 725.362 192.466 724.201 Q190.169 723.04 188.711 720.249 Q186.439 716.074 186.439 708.07 M190.638 707.452 Q190.638 715.086 191.182 718.124 Q191.799 721.41 193.479 722.842 Q195.184 724.251 197.061 724.251 Q199.087 724.251 200.766 722.744 Q202.471 721.212 202.99 717.927 Q203.558 714.69 203.533 707.452 Q203.533 700.412 203.039 697.596 Q202.372 694.31 200.594 693.001 Q198.84 691.667 197.061 691.667 Q196.394 691.667 195.678 691.864 Q194.986 692.062 193.973 692.63 Q192.96 693.198 192.17 694.607 Q191.404 696.015 191.033 698.139 Q190.638 700.881 190.638 707.452 Z" fill="#000000" fill-rule="nonzero" fill-opacity="1" /><path clip-path="url(#clip160)" d="M211.735 708.07 Q211.735 700.634 213.612 696.583 Q216.231 690.555 222.407 690.555 Q223.716 690.555 225.075 690.926 Q226.458 691.272 228.187 692.63 Q229.941 693.989 231.003 696.212 Q233.029 700.511 233.029 708.07 Q233.029 715.456 231.152 719.483 Q228.41 725.362 222.357 725.362 Q220.084 725.362 217.762 724.201 Q215.465 723.04 214.007 720.249 Q211.735 716.074 211.735 708.07 M215.934 707.452 Q215.934 715.086 216.478 718.124 Q217.095 721.41 218.775 722.842 Q220.48 724.251 222.357 724.251 Q224.383 724.251 226.063 722.744 Q227.767 721.212 228.286 717.927 Q228.854 714.69 228.829 707.452 Q228.829 700.412 228.335 697.596 Q227.668 694.31 225.89 693.001 Q224.136 691.667 222.357 691.667 Q221.69 691.667 220.974 691.864 Q220.282 692.062 219.269 692.63 Q218.256 693.198 217.466 694.607 Q216.7 696.015 216.33 698.139 Q215.934 700.881 215.934 707.452 Z" fill="#000000" fill-rule="nonzero" fill-opacity="1" /><path clip-path="url(#clip160)" d="M237.031 708.07 Q237.031 700.634 238.908 696.583 Q241.527 690.555 247.703 690.555 Q249.012 690.555 250.371 690.926 Q251.754 691.272 253.483 692.63 Q255.237 693.989 256.3 696.212 Q258.325 700.511 258.325 708.07 Q258.325 715.456 256.448 719.483 Q253.706 725.362 247.653 725.362 Q245.381 725.362 243.059 724.201 Q240.761 723.04 239.304 720.249 Q237.031 716.074 237.031 708.07 M241.231 707.452 Q241.231 715.086 241.774 718.124 Q242.392 721.41 244.071 722.842 Q245.776 724.251 247.653 724.251 Q249.679 724.251 251.359 722.744 Q253.063 721.212 253.582 717.927 Q254.15 714.69 254.126 707.452 Q254.126 700.412 253.632 697.596 Q252.965 694.31 251.186 693.001 Q249.432 691.667 247.653 691.667 Q246.986 691.667 246.27 691.864 Q245.578 692.062 244.566 692.63 Q243.553 693.198 242.762 694.607 Q241.996 696.015 241.626 698.139 Q241.231 700.881 241.231 707.452 Z" fill="#000000" fill-rule="nonzero" fill-opacity="1" /><path clip-path="url(#clip160)" d="M156.053 536.715 Q156.35 537.011 156.35 537.431 Q156.35 537.851 156.053 538.148 Q155.757 538.444 155.337 538.444 L123.667 538.444 Q123.247 538.444 122.951 538.148 Q122.654 537.851 122.654 537.431 Q122.654 537.011 122.951 536.715 Q123.247 536.418 123.667 536.418 L155.337 536.418 Q155.757 536.418 156.053 536.715 Z" fill="#000000" fill-rule="nonzero" fill-opacity="1" /><path clip-path="url(#clip160)" d="M163.662 521.201 L163.662 519.62 Q169.739 519.62 172.876 516.384 Q173.741 516.384 173.889 516.582 Q174.037 516.779 174.037 517.693 L174.037 546.077 Q174.037 547.584 174.779 548.054 Q175.52 548.523 178.756 548.523 L180.361 548.523 L180.361 550.079 Q178.583 549.931 172.16 549.931 Q165.737 549.931 163.983 550.079 L163.983 548.523 L165.589 548.523 Q168.776 548.523 169.541 548.078 Q170.307 547.609 170.307 546.077 L170.307 519.867 Q167.664 521.201 163.662 521.201 Z" fill="#000000" fill-rule="nonzero" fill-opacity="1" /><path clip-path="url(#clip160)" d="M186.982 541.927 Q186.982 540.42 187.797 539.852 Q188.612 539.259 189.477 539.259 Q190.638 539.259 191.305 540 Q191.997 540.717 191.997 541.73 Q191.997 542.742 191.305 543.483 Q190.638 544.2 189.477 544.2 Q188.909 544.2 188.612 544.101 Q189.279 546.423 191.305 548.103 Q193.355 549.783 196.048 549.783 Q199.432 549.783 201.458 546.497 Q202.669 544.373 202.669 539.556 Q202.669 535.307 201.755 533.182 Q200.347 529.946 197.456 529.946 Q193.355 529.946 190.935 533.479 Q190.638 533.923 190.292 533.948 Q189.798 533.948 189.675 533.676 Q189.576 533.38 189.576 532.614 L189.576 517.644 Q189.576 516.433 190.07 516.433 Q190.268 516.433 190.687 516.582 Q193.874 517.99 197.407 518.014 Q201.038 518.014 204.299 516.532 Q204.546 516.384 204.694 516.384 Q205.188 516.384 205.213 516.952 Q205.213 517.15 204.793 517.743 Q204.398 518.311 203.533 519.077 Q202.669 519.818 201.557 520.534 Q200.445 521.25 198.815 521.745 Q197.209 522.214 195.431 522.214 Q193.306 522.214 191.132 521.547 L191.132 531.404 Q193.751 528.834 197.555 528.834 Q201.606 528.834 204.398 532.095 Q207.189 535.356 207.189 539.902 Q207.189 544.669 203.879 547.93 Q200.594 551.191 196.147 551.191 Q192.096 551.191 189.526 548.301 Q186.982 545.41 186.982 541.927 Z" fill="#000000" fill-rule="nonzero" fill-opacity="1" /><path clip-path="url(#clip160)" d="M211.735 533.899 Q211.735 526.463 213.612 522.412 Q216.231 516.384 222.407 516.384 Q223.716 516.384 225.075 516.754 Q226.458 517.1 228.187 518.459 Q229.941 519.818 231.003 522.041 Q233.029 526.339 233.029 533.899 Q233.029 541.285 231.152 545.312 Q228.41 551.191 222.357 551.191 Q220.084 551.191 217.762 550.03 Q215.465 548.869 214.007 546.077 Q211.735 541.902 211.735 533.899 M215.934 533.281 Q215.934 540.914 216.478 543.953 Q217.095 547.238 218.775 548.671 Q220.48 550.079 222.357 550.079 Q224.383 550.079 226.063 548.572 Q227.767 547.041 228.286 543.755 Q228.854 540.519 228.829 533.281 Q228.829 526.241 228.335 523.424 Q227.668 520.139 225.89 518.83 Q224.136 517.496 222.357 517.496 Q221.69 517.496 220.974 517.693 Q220.282 517.891 219.269 518.459 Q218.256 519.027 217.466 520.435 Q216.7 521.843 216.33 523.968 Q215.934 526.71 215.934 533.281 Z" fill="#000000" fill-rule="nonzero" fill-opacity="1" /><path clip-path="url(#clip160)" d="M237.031 533.899 Q237.031 526.463 238.908 522.412 Q241.527 516.384 247.703 516.384 Q249.012 516.384 250.371 516.754 Q251.754 517.1 253.483 518.459 Q255.237 519.818 256.3 522.041 Q258.325 526.339 258.325 533.899 Q258.325 541.285 256.448 545.312 Q253.706 551.191 247.653 551.191 Q245.381 551.191 243.059 550.03 Q240.761 548.869 239.304 546.077 Q237.031 541.902 237.031 533.899 M241.231 533.281 Q241.231 540.914 241.774 543.953 Q242.392 547.238 244.071 548.671 Q245.776 550.079 247.653 550.079 Q249.679 550.079 251.359 548.572 Q253.063 547.041 253.582 543.755 Q254.15 540.519 254.126 533.281 Q254.126 526.241 253.632 523.424 Q252.965 520.139 251.186 518.83 Q249.432 517.496 247.653 517.496 Q246.986 517.496 246.27 517.693 Q245.578 517.891 244.566 518.459 Q243.553 519.027 242.762 520.435 Q241.996 521.843 241.626 523.968 Q241.231 526.71 241.231 533.281 Z" fill="#000000" fill-rule="nonzero" fill-opacity="1" /><path clip-path="url(#clip160)" d="M156.053 362.543 Q156.35 362.84 156.35 363.26 Q156.35 363.68 156.053 363.976 Q155.757 364.273 155.337 364.273 L123.667 364.273 Q123.247 364.273 122.951 363.976 Q122.654 363.68 122.654 363.26 Q122.654 362.84 122.951 362.543 Q123.247 362.247 123.667 362.247 L155.337 362.247 Q155.757 362.247 156.053 362.543 Z" fill="#000000" fill-rule="nonzero" fill-opacity="1" /><path clip-path="url(#clip160)" d="M163.662 347.03 L163.662 345.449 Q169.739 345.449 172.876 342.213 Q173.741 342.213 173.889 342.41 Q174.037 342.608 174.037 343.522 L174.037 371.906 Q174.037 373.413 174.779 373.882 Q175.52 374.352 178.756 374.352 L180.361 374.352 L180.361 375.908 Q178.583 375.76 172.16 375.76 Q165.737 375.76 163.983 375.908 L163.983 374.352 L165.589 374.352 Q168.776 374.352 169.541 373.907 Q170.307 373.438 170.307 371.906 L170.307 345.696 Q167.664 347.03 163.662 347.03 Z" fill="#000000" fill-rule="nonzero" fill-opacity="1" /><path clip-path="url(#clip160)" d="M186.439 359.727 Q186.439 352.292 188.316 348.24 Q190.935 342.213 197.11 342.213 Q198.42 342.213 199.778 342.583 Q201.162 342.929 202.891 344.288 Q204.645 345.646 205.707 347.87 Q207.733 352.168 207.733 359.727 Q207.733 367.114 205.855 371.14 Q203.113 377.02 197.061 377.02 Q194.788 377.02 192.466 375.859 Q190.169 374.698 188.711 371.906 Q186.439 367.731 186.439 359.727 M190.638 359.11 Q190.638 366.743 191.182 369.782 Q191.799 373.067 193.479 374.5 Q195.184 375.908 197.061 375.908 Q199.087 375.908 200.766 374.401 Q202.471 372.869 202.99 369.584 Q203.558 366.348 203.533 359.11 Q203.533 352.069 203.039 349.253 Q202.372 345.968 200.594 344.658 Q198.84 343.324 197.061 343.324 Q196.394 343.324 195.678 343.522 Q194.986 343.72 193.973 344.288 Q192.96 344.856 192.17 346.264 Q191.404 347.672 191.033 349.797 Q190.638 352.539 190.638 359.11 Z" fill="#000000" fill-rule="nonzero" fill-opacity="1" /><path clip-path="url(#clip160)" d="M211.735 359.727 Q211.735 352.292 213.612 348.24 Q216.231 342.213 222.407 342.213 Q223.716 342.213 225.075 342.583 Q226.458 342.929 228.187 344.288 Q229.941 345.646 231.003 347.87 Q233.029 352.168 233.029 359.727 Q233.029 367.114 231.152 371.14 Q228.41 377.02 222.357 377.02 Q220.084 377.02 217.762 375.859 Q215.465 374.698 214.007 371.906 Q211.735 367.731 211.735 359.727 M215.934 359.11 Q215.934 366.743 216.478 369.782 Q217.095 373.067 218.775 374.5 Q220.48 375.908 222.357 375.908 Q224.383 375.908 226.063 374.401 Q227.767 372.869 228.286 369.584 Q228.854 366.348 228.829 359.11 Q228.829 352.069 228.335 349.253 Q227.668 345.968 225.89 344.658 Q224.136 343.324 222.357 343.324 Q221.69 343.324 220.974 343.522 Q220.282 343.72 219.269 344.288 Q218.256 344.856 217.466 346.264 Q216.7 347.672 216.33 349.797 Q215.934 352.539 215.934 359.11 Z" fill="#000000" fill-rule="nonzero" fill-opacity="1" /><path clip-path="url(#clip160)" d="M237.031 359.727 Q237.031 352.292 238.908 348.24 Q241.527 342.213 247.703 342.213 Q249.012 342.213 250.371 342.583 Q251.754 342.929 253.483 344.288 Q255.237 345.646 256.3 347.87 Q258.325 352.168 258.325 359.727 Q258.325 367.114 256.448 371.14 Q253.706 377.02 247.653 377.02 Q245.381 377.02 243.059 375.859 Q240.761 374.698 239.304 371.906 Q237.031 367.731 237.031 359.727 M241.231 359.11 Q241.231 366.743 241.774 369.782 Q242.392 373.067 244.071 374.5 Q245.776 375.908 247.653 375.908 Q249.679 375.908 251.359 374.401 Q253.063 372.869 253.582 369.584 Q254.15 366.348 254.126 359.11 Q254.126 352.069 253.632 349.253 Q252.965 345.968 251.186 344.658 Q249.432 343.324 247.653 343.324 Q246.986 343.324 246.27 343.522 Q245.578 343.72 244.566 344.288 Q243.553 344.856 242.762 346.264 Q241.996 347.672 241.626 349.797 Q241.231 352.539 241.231 359.11 Z" fill="#000000" fill-rule="nonzero" fill-opacity="1" /><path clip-path="url(#clip160)" d="M181.35 188.372 Q181.646 188.669 181.646 189.089 Q181.646 189.509 181.35 189.805 Q181.053 190.101 180.633 190.101 L148.964 190.101 Q148.544 190.101 148.247 189.805 Q147.951 189.509 147.951 189.089 Q147.951 188.669 148.247 188.372 Q148.544 188.076 148.964 188.076 L180.633 188.076 Q181.053 188.076 181.35 188.372 Z" fill="#000000" fill-rule="nonzero" fill-opacity="1" /><path clip-path="url(#clip160)" d="M186.982 193.585 Q186.982 192.078 187.797 191.51 Q188.612 190.917 189.477 190.917 Q190.638 190.917 191.305 191.658 Q191.997 192.374 191.997 193.387 Q191.997 194.4 191.305 195.141 Q190.638 195.857 189.477 195.857 Q188.909 195.857 188.612 195.759 Q189.279 198.081 191.305 199.76 Q193.355 201.44 196.048 201.44 Q199.432 201.44 201.458 198.155 Q202.669 196.03 202.669 191.213 Q202.669 186.964 201.755 184.84 Q200.347 181.603 197.456 181.603 Q193.355 181.603 190.935 185.136 Q190.638 185.581 190.292 185.605 Q189.798 185.605 189.675 185.334 Q189.576 185.037 189.576 184.271 L189.576 169.301 Q189.576 168.091 190.07 168.091 Q190.268 168.091 190.687 168.239 Q193.874 169.647 197.407 169.672 Q201.038 169.672 204.299 168.19 Q204.546 168.041 204.694 168.041 Q205.188 168.041 205.213 168.61 Q205.213 168.807 204.793 169.4 Q204.398 169.968 203.533 170.734 Q202.669 171.475 201.557 172.192 Q200.445 172.908 198.815 173.402 Q197.209 173.871 195.431 173.871 Q193.306 173.871 191.132 173.204 L191.132 183.061 Q193.751 180.492 197.555 180.492 Q201.606 180.492 204.398 183.753 Q207.189 187.014 207.189 191.559 Q207.189 196.327 203.879 199.588 Q200.594 202.848 196.147 202.848 Q192.096 202.848 189.526 199.958 Q186.982 197.068 186.982 193.585 Z" fill="#000000" fill-rule="nonzero" fill-opacity="1" /><path clip-path="url(#clip160)" d="M211.735 185.556 Q211.735 178.12 213.612 174.069 Q216.231 168.041 222.407 168.041 Q223.716 168.041 225.075 168.412 Q226.458 168.758 228.187 170.116 Q229.941 171.475 231.003 173.698 Q233.029 177.997 233.029 185.556 Q233.029 192.942 231.152 196.969 Q228.41 202.848 222.357 202.848 Q220.084 202.848 217.762 201.687 Q215.465 200.526 214.007 197.735 Q211.735 193.56 211.735 185.556 M215.934 184.938 Q215.934 192.572 216.478 195.61 Q217.095 198.896 218.775 200.329 Q220.48 201.737 222.357 201.737 Q224.383 201.737 226.063 200.23 Q227.767 198.698 228.286 195.413 Q228.854 192.177 228.829 184.938 Q228.829 177.898 228.335 175.082 Q227.668 171.796 225.89 170.487 Q224.136 169.153 222.357 169.153 Q221.69 169.153 220.974 169.351 Q220.282 169.548 219.269 170.116 Q218.256 170.685 217.466 172.093 Q216.7 173.501 216.33 175.625 Q215.934 178.367 215.934 184.938 Z" fill="#000000" fill-rule="nonzero" fill-opacity="1" /><path clip-path="url(#clip160)" d="M237.031 185.556 Q237.031 178.12 238.908 174.069 Q241.527 168.041 247.703 168.041 Q249.012 168.041 250.371 168.412 Q251.754 168.758 253.483 170.116 Q255.237 171.475 256.3 173.698 Q258.325 177.997 258.325 185.556 Q258.325 192.942 256.448 196.969 Q253.706 202.848 247.653 202.848 Q245.381 202.848 243.059 201.687 Q240.761 200.526 239.304 197.735 Q237.031 193.56 237.031 185.556 M241.231 184.938 Q241.231 192.572 241.774 195.61 Q242.392 198.896 244.071 200.329 Q245.776 201.737 247.653 201.737 Q249.679 201.737 251.359 200.23 Q253.063 198.698 253.582 195.413 Q254.15 192.177 254.126 184.938 Q254.126 177.898 253.632 175.082 Q252.965 171.796 251.186 170.487 Q249.432 169.153 247.653 169.153 Q246.986 169.153 246.27 169.351 Q245.578 169.548 244.566 170.116 Q243.553 170.685 242.762 172.093 Q241.996 173.501 241.626 175.625 Q241.231 178.367 241.231 184.938 Z" fill="#000000" fill-rule="nonzero" fill-opacity="1" /><path clip-path="url(#clip160)" d="M87.3984 613.301 L85.2585 613.301 L85.2585 611.637 Q85.2585 607.867 84.6471 607.018 Q84.0017 606.134 81.9637 606.134 L45.3132 606.134 Q43.3091 606.134 42.6977 607.018 Q42.0523 607.901 42.0523 611.637 L42.0523 613.301 L39.8784 613.301 L39.8784 591.461 Q39.8784 583.886 43.6148 578.621 Q47.3172 573.322 52.4123 573.322 Q56.3185 573.322 59.3756 576.753 Q62.4326 580.184 63.7573 585.482 Q66.135 578.587 71.8075 576.991 L77.3781 576.107 Q79.3822 575.836 80.4012 575.666 Q81.4202 575.462 82.8129 575.156 Q84.2055 574.851 84.8849 574.545 Q85.5303 574.205 86.2436 573.73 Q86.9229 573.254 87.1607 572.643 Q87.3984 571.997 87.3984 571.148 Q87.3984 569.552 85.9718 568.193 Q84.5452 566.834 81.2164 566.563 Q80.0955 566.427 80.0955 565.714 Q80.0955 564.83 81.2164 564.83 Q82.2015 564.83 83.3564 565.102 Q84.4773 565.374 85.802 566.053 Q87.1267 566.699 88.0099 568.125 Q88.927 569.552 88.927 571.42 Q88.927 576.855 86.0058 580.184 Q84.749 581.576 83.1186 582.222 Q81.4882 582.833 80.1974 582.935 Q78.9067 583.037 76.0534 583.037 Q72.0113 583.037 70.245 583.478 Q68.4788 583.886 66.7464 585.686 Q64.3687 588.132 64.3687 592.174 L64.3687 600.156 L81.9637 600.156 Q83.9678 600.156 84.6131 599.307 Q85.2585 598.424 85.2585 594.654 L85.2585 592.989 L87.3984 592.989 Q87.1946 595.503 87.1946 603.145 Q87.1946 610.788 87.3984 613.301 M62.8402 600.156 L62.8402 592.446 Q62.8402 588.743 61.9571 586.264 Q61.04 583.75 59.4095 582.561 Q57.7791 581.372 56.1487 580.931 Q54.4843 580.489 52.4123 580.489 Q49.9667 580.489 48.1325 581.033 Q46.2982 581.576 45.2113 582.765 Q44.1243 583.954 43.445 585.143 Q42.7317 586.332 42.4599 588.166 Q42.1882 590 42.1203 591.257 Q42.0523 592.514 42.0523 594.518 Q42.0523 597.914 42.1882 598.628 Q42.2561 599.409 42.6298 599.715 Q43.0034 600.02 43.445 600.088 Q43.8526 600.156 44.8376 600.156 L62.8402 600.156 Z" fill="#000000" fill-rule="nonzero" fill-opacity="1" /><path clip-path="url(#clip160)" d="M72.0793 562.623 Q65.5236 562.623 60.8701 558.411 Q56.2166 554.199 56.2166 548.153 Q56.2166 542.038 60.1908 538.88 Q64.1649 535.687 69.8714 535.687 Q70.9244 535.687 71.1282 535.958 Q71.332 536.23 71.332 537.419 L71.332 556.848 Q78.4311 556.848 81.7599 554.742 Q86.4134 551.821 86.4134 546.896 Q86.4134 546.216 86.2775 545.401 Q86.1417 544.586 85.5642 542.922 Q84.9528 541.257 83.3564 539.797 Q81.7599 538.336 79.2463 537.487 Q78.2613 537.283 78.2953 536.604 Q78.2953 535.687 79.1105 535.687 Q79.7219 535.687 81.1145 536.366 Q82.4732 537.011 84.1036 538.268 Q85.7341 539.525 86.9569 541.971 Q88.1797 544.382 88.1797 547.303 Q88.1797 553.417 83.5602 558.037 Q78.9067 562.623 72.0793 562.623 M69.8714 556.78 L69.8714 540.272 Q68.4108 540.272 66.7804 540.544 Q65.15 540.782 62.9082 541.529 Q60.6324 542.242 59.2057 543.941 Q57.7791 545.639 57.7791 548.153 Q57.7791 549.273 58.2547 550.496 Q58.7302 551.685 59.8851 553.146 Q61.04 554.606 63.6554 555.625 Q66.2709 556.644 69.8714 556.78 Z" fill="#000000" fill-rule="nonzero" fill-opacity="1" /><path clip-path="url(#clip160)" d="M59.5794 532.426 L57.4055 532.426 Q57.6093 528.655 57.6093 525.972 Q57.6093 524.647 57.4055 518.363 L59.5794 518.363 Q59.5794 522.473 61.4476 522.473 Q61.8552 522.473 62.7043 522.134 L81.2844 515.51 L64.4367 509.532 Q61.04 510.789 60.6324 511.128 Q59.5794 511.978 59.5794 515.51 L57.4055 515.51 Q57.6093 512.385 57.6093 509.328 Q57.6093 508.139 57.4055 502.093 L59.5794 502.093 Q59.5794 506.203 61.4476 506.203 Q61.7193 506.203 62.7723 505.863 L82.1675 498.968 L64.3687 492.65 Q63.4516 492.311 62.9082 492.277 Q61.3796 492.277 60.5305 493.364 Q59.6473 494.451 59.5794 496.319 L57.4055 496.319 Q57.6093 492.345 57.6093 489.865 Q57.6093 487.08 57.4055 484.77 L59.5794 484.77 Q59.7152 489.084 64.0291 490.612 L86.855 498.764 Q88.1118 499.546 88.1797 500.157 Q88.1797 501.074 86.855 501.55 L67.0861 508.649 L86.787 515.68 Q87.6362 515.952 87.9079 516.189 Q88.1797 516.427 88.1797 517.073 Q88.1797 517.684 87.806 517.956 Q87.4664 518.227 86.6172 518.533 L61.991 527.297 Q60.3946 527.908 59.987 528.825 Q59.5794 529.708 59.5794 532.426 Z" fill="#000000" fill-rule="nonzero" fill-opacity="1" /><path clip-path="url(#clip160)" d="M80.7749 482.494 Q74.8646 482.494 71.7396 475.531 Q69.7355 471.353 69.226 462.725 L66.6785 462.725 Q62.3647 462.725 60.0889 465.001 Q57.7791 467.243 57.7791 470.096 Q57.7791 475.191 60.972 477.637 Q61.04 475.565 62.0929 474.818 Q63.112 474.07 64.1649 474.07 Q65.5576 474.07 66.4747 474.953 Q67.3578 475.803 67.3578 477.263 Q67.3578 478.656 66.5087 479.573 Q65.6255 480.49 64.097 480.49 Q60.7003 480.49 58.4585 477.433 Q56.2166 474.342 56.2166 469.96 Q56.2166 464.254 60.0549 460.449 Q61.2438 459.261 62.7723 458.683 Q64.3008 458.072 65.3198 458.004 Q66.3049 457.936 68.275 457.936 L82.1675 457.936 Q82.5751 457.936 83.2545 457.8 Q83.9338 457.664 84.8169 457.053 Q85.6661 456.407 85.6661 455.354 Q85.6661 452.841 81.2164 452.875 L77.3102 452.875 L77.3102 451.108 L81.2164 451.108 Q84.9188 451.108 86.3794 453.079 Q87.806 455.015 87.806 456.815 Q87.806 459.125 86.1077 460.585 Q84.4093 462.046 82.0996 462.25 Q84.749 463.303 86.4813 465.714 Q88.1797 468.092 88.1797 471.353 Q88.1797 473.866 87.5343 476.244 Q86.9229 478.588 85.1906 480.558 Q83.4243 482.494 80.7749 482.494 M80.7069 477.127 Q83.2884 477.127 84.9528 475.293 Q86.6172 473.459 86.6172 470.877 Q86.6172 467.956 84.3754 465.341 Q82.0996 462.725 77.6499 462.725 L70.6866 462.725 Q70.9584 470.436 74.0494 473.799 Q77.1064 477.127 80.7069 477.127 Z" fill="#000000" fill-rule="nonzero" fill-opacity="1" /><path clip-path="url(#clip160)" d="M87.3984 448.697 L85.2585 448.697 Q85.2585 444.994 84.8169 444.145 Q84.3414 443.262 82.0996 443.262 L63.4516 443.262 Q60.8701 443.262 60.2247 444.179 Q59.5794 445.062 59.5794 448.697 L57.4055 448.697 L56.6582 439.016 L64.3008 439.016 Q61.3117 438.031 59.0019 435.959 Q56.6582 433.853 56.6582 430.456 Q56.6582 428.215 57.915 426.788 Q59.1718 425.327 60.9041 425.327 Q62.4326 425.327 63.2139 426.279 Q63.9611 427.196 63.9611 428.317 Q63.9611 429.573 63.1799 430.456 Q62.3647 431.306 60.972 431.306 Q60.1228 431.306 59.4775 430.932 Q58.7981 430.524 58.5604 430.219 Q58.3226 429.913 58.2547 429.709 Q58.1867 429.845 58.1867 430.456 Q58.1867 434.295 62.025 436.503 Q65.8293 438.677 71.2641 438.677 L81.9637 438.677 Q83.9678 438.677 84.6131 437.861 Q85.2585 437.012 85.2585 433.378 L85.2585 431.917 L87.3984 431.917 Q87.1946 434.702 87.1946 440.748 Q87.1946 441.598 87.2286 442.922 Q87.2626 444.247 87.3305 445.979 Q87.3984 447.712 87.3984 448.697 Z" fill="#000000" fill-rule="nonzero" fill-opacity="1" /><path clip-path="url(#clip160)" d="M72.4529 421.082 Q65.8293 421.082 61.2438 416.462 Q56.6582 411.842 56.6582 405.593 Q56.6582 400.294 60.972 396.829 L45.9246 396.829 Q43.3431 396.829 42.6977 397.746 Q42.0523 398.629 42.0523 402.23 L39.8784 402.23 L39.1312 392.209 L81.3523 392.209 Q83.9338 392.209 84.6131 391.326 Q85.2585 390.409 85.2585 386.809 L87.3984 386.809 L88.1797 397.033 L83.5602 397.033 Q88.1457 400.633 88.1797 406.34 Q88.1797 412.318 83.5941 416.7 Q79.0086 421.082 72.4529 421.082 M72.5208 415.307 Q78.9746 415.307 82.1675 413.303 Q86.6172 410.518 86.6172 406 Q86.6172 400.837 81.7599 397.78 Q80.5711 396.999 79.1784 397.033 L64.9122 397.033 Q63.5196 397.033 62.3647 397.78 Q58.1867 400.633 58.1867 405.287 Q58.1867 410.144 62.6364 413.167 Q65.9652 415.307 72.5208 415.307 Z" fill="#000000" fill-rule="nonzero" fill-opacity="1" /><polyline clip-path="url(#clip162)" style="stroke:#34495e; stroke-linecap:round; stroke-linejoin:round; stroke-width:8; stroke-opacity:1; fill:none" points="309.705,788.617 512.239,677.836 714.774,249.811 917.308,235.949 1119.84,216.03 1322.38,211.714 "/>
<path clip-path="url(#clip160)" d="M525.76 150.924 L1106.32 150.924 L1106.32 47.2441 L525.76 47.2441  Z" fill="#ffffff" fill-rule="evenodd" fill-opacity="1"/>
<polyline clip-path="url(#clip160)" style="stroke:#000000; stroke-linecap:round; stroke-linejoin:round; stroke-width:4; stroke-opacity:1; fill:none" points="525.76,150.924 1106.32,150.924 1106.32,47.2441 525.76,47.2441 525.76,150.924 "/>
<polyline clip-path="url(#clip160)" style="stroke:#34495e; stroke-linecap:round; stroke-linejoin:round; stroke-width:8; stroke-opacity:1; fill:none" points="537.687,99.0841 609.249,99.0841 "/>
<path clip-path="url(#clip160)" d="M621.176 99.0717 Q621.176 91.4384 626.389 86.0778 Q631.601 80.6924 638.765 80.6924 Q640.988 80.6924 642.965 81.5077 Q644.941 82.3229 645.855 83.0393 Q646.769 83.731 648.078 85.0402 L650.623 81.31 Q651.018 80.6924 651.413 80.6924 Q651.833 80.6924 651.907 80.9395 Q651.981 81.1618 651.981 81.9029 L651.981 93.9087 Q651.981 94.724 651.883 94.9216 Q651.784 95.1192 651.166 95.1192 Q650.672 95.1192 650.549 94.971 Q650.45 94.8228 650.351 94.2546 Q649.585 88.7951 646.547 85.5343 Q643.533 82.2735 639.333 82.2735 Q638.123 82.2735 636.764 82.5452 Q635.43 82.8169 633.479 83.8545 Q631.552 84.892 630.045 86.6212 Q628.563 88.3258 627.476 91.5866 Q626.389 94.8228 626.389 99.1211 Q626.389 103.37 627.476 106.631 Q628.563 109.892 630.045 111.596 Q631.552 113.276 633.479 114.314 Q635.43 115.351 636.789 115.648 Q638.172 115.919 639.383 115.919 Q643.731 115.919 647.065 112.832 Q650.4 109.744 650.722 104.531 Q650.771 104.284 650.771 104.185 Q650.771 104.062 650.82 103.938 Q650.87 103.815 650.993 103.765 Q651.117 103.716 651.314 103.716 Q651.981 103.716 651.981 104.581 Q651.981 109.398 648.276 113.449 Q644.595 117.476 638.765 117.476 Q631.576 117.476 626.364 112.14 Q621.176 106.804 621.176 99.0717 Z" fill="#000000" fill-rule="nonzero" fill-opacity="1" /><path clip-path="url(#clip160)" d="M656.255 105.223 Q656.255 100.455 659.318 97.0708 Q662.382 93.6864 666.779 93.6864 Q671.225 93.6864 673.523 96.5767 Q675.845 99.467 675.845 103.617 Q675.845 104.383 675.647 104.531 Q675.45 104.679 674.585 104.679 L660.455 104.679 Q660.455 109.842 661.986 112.263 Q664.111 115.648 667.693 115.648 Q668.187 115.648 668.78 115.549 Q669.373 115.45 670.583 115.03 Q671.794 114.585 672.856 113.424 Q673.918 112.263 674.536 110.435 Q674.684 109.719 675.178 109.744 Q675.845 109.744 675.845 110.336 Q675.845 110.781 675.351 111.794 Q674.881 112.782 673.967 113.968 Q673.053 115.154 671.275 116.043 Q669.521 116.932 667.396 116.932 Q662.95 116.932 659.59 113.573 Q656.255 110.188 656.255 105.223 M660.504 103.617 L672.51 103.617 Q672.51 102.555 672.312 101.369 Q672.139 100.183 671.596 98.553 Q671.077 96.8978 669.842 95.8603 Q668.607 94.8228 666.779 94.8228 Q665.964 94.8228 665.074 95.1686 Q664.21 95.5145 663.147 96.3544 Q662.085 97.1943 661.344 99.0964 Q660.603 100.999 660.504 103.617 Z" fill="#000000" fill-rule="nonzero" fill-opacity="1" /><path clip-path="url(#clip160)" d="M678.933 116.364 L678.933 114.808 Q681.625 114.808 682.243 114.487 Q682.861 114.141 682.861 112.51 L682.861 98.9482 Q682.861 97.0708 682.194 96.6014 Q681.551 96.132 678.933 96.132 L678.933 94.551 L686.047 94.0076 L686.047 99.3188 Q688.419 94.0076 693.532 94.0076 Q697.337 94.0076 698.844 95.885 Q699.955 97.1449 700.178 98.553 Q700.425 99.9611 700.425 103.617 L700.425 113.276 Q700.474 114.338 701.289 114.585 Q702.105 114.808 704.377 114.808 L704.377 116.364 Q699.214 116.216 698.695 116.216 Q698.3 116.216 692.989 116.364 L692.989 114.808 Q695.682 114.808 696.299 114.487 Q696.942 114.141 696.942 112.51 L696.942 100.727 Q696.942 98.1577 696.151 96.6508 Q695.361 95.1192 693.187 95.1192 Q690.568 95.1192 688.468 97.3178 Q686.369 99.5164 686.369 103.222 L686.369 112.51 Q686.369 114.141 686.986 114.487 Q687.628 114.808 690.296 114.808 L690.296 116.364 Q685.133 116.216 684.639 116.216 Q684.244 116.216 678.933 116.364 Z" fill="#000000" fill-rule="nonzero" fill-opacity="1" /><path clip-path="url(#clip160)" d="M704.921 96.132 L704.921 95.0204 Q707.243 94.9216 708.774 93.2912 Q710.331 91.636 710.85 89.6104 Q711.393 87.5847 711.442 85.2379 L712.702 85.2379 L712.702 94.551 L719.94 94.551 L719.94 96.132 L712.702 96.132 L712.702 110.188 Q712.702 115.648 716.111 115.648 Q717.569 115.648 718.532 114.165 Q719.496 112.659 719.496 109.991 L719.496 107.199 L720.756 107.199 L720.756 110.089 Q720.756 112.832 719.496 114.882 Q718.236 116.932 715.741 116.932 Q714.827 116.932 713.913 116.685 Q713.023 116.463 711.838 115.87 Q710.677 115.252 709.936 113.77 Q709.219 112.263 709.219 110.089 L709.219 96.132 L704.921 96.132 Z" fill="#000000" fill-rule="nonzero" fill-opacity="1" /><path clip-path="url(#clip160)" d="M724.98 116.364 L724.98 114.808 Q727.673 114.808 728.29 114.487 Q728.932 114.141 728.932 112.51 L728.932 98.9482 Q728.932 97.0708 728.265 96.6014 Q727.623 96.132 724.98 96.132 L724.98 94.551 L732.02 94.0076 L732.02 99.5658 Q732.737 97.3919 734.244 95.7121 Q735.775 94.0076 738.246 94.0076 Q739.876 94.0076 740.914 94.9216 Q741.976 95.8356 741.976 97.0955 Q741.976 98.2071 741.284 98.7753 Q740.617 99.3188 739.802 99.3188 Q738.888 99.3188 738.246 98.7506 Q737.628 98.1577 737.628 97.1449 Q737.628 96.5273 737.9 96.0579 Q738.196 95.5639 738.418 95.3909 Q738.641 95.218 738.789 95.1686 Q738.69 95.1192 738.246 95.1192 Q735.454 95.1192 733.848 97.9107 Q732.267 100.677 732.267 104.63 L732.267 112.412 Q732.267 113.869 732.86 114.338 Q733.478 114.808 736.121 114.808 L737.183 114.808 L737.183 116.364 Q735.158 116.216 730.76 116.216 Q730.143 116.216 729.179 116.241 Q728.216 116.265 726.956 116.315 Q725.696 116.364 724.98 116.364 Z" fill="#000000" fill-rule="nonzero" fill-opacity="1" /><path clip-path="url(#clip160)" d="M745.459 111.547 Q745.459 107.249 750.523 104.976 Q753.562 103.518 759.836 103.148 L759.836 101.295 Q759.836 98.1577 758.181 96.5026 Q756.551 94.8228 754.476 94.8228 Q750.77 94.8228 748.992 97.1449 Q750.498 97.1943 751.042 97.9601 Q751.585 98.7012 751.585 99.467 Q751.585 100.48 750.943 101.147 Q750.326 101.789 749.263 101.789 Q748.25 101.789 747.583 101.172 Q746.916 100.529 746.916 99.4176 Q746.916 96.9473 749.14 95.3168 Q751.388 93.6864 754.574 93.6864 Q758.725 93.6864 761.491 96.4779 Q762.356 97.3425 762.776 98.4542 Q763.221 99.5658 763.27 100.307 Q763.319 101.023 763.319 102.456 L763.319 112.56 Q763.319 112.856 763.418 113.35 Q763.517 113.844 763.962 114.487 Q764.431 115.104 765.197 115.104 Q767.025 115.104 767 111.868 L767 109.027 L768.285 109.027 L768.285 111.868 Q768.285 114.561 766.852 115.623 Q765.444 116.661 764.135 116.661 Q762.455 116.661 761.393 115.425 Q760.33 114.19 760.182 112.51 Q759.416 114.437 757.662 115.697 Q755.933 116.932 753.562 116.932 Q751.734 116.932 750.004 116.463 Q748.3 116.018 746.867 114.758 Q745.459 113.474 745.459 111.547 M749.362 111.498 Q749.362 113.375 750.696 114.585 Q752.03 115.796 753.907 115.796 Q756.032 115.796 757.934 114.165 Q759.836 112.51 759.836 109.274 L759.836 104.21 Q754.229 104.408 751.783 106.656 Q749.362 108.879 749.362 111.498 Z" fill="#000000" fill-rule="nonzero" fill-opacity="1" /><path clip-path="url(#clip160)" d="M770.311 116.364 L770.311 114.808 Q773.003 114.808 773.621 114.487 Q774.238 114.141 774.238 112.51 L774.238 86.2013 Q774.238 84.3238 773.571 83.8545 Q772.929 83.3851 770.311 83.3851 L770.311 81.8041 L777.573 81.2606 L777.573 112.51 Q777.573 114.141 778.216 114.487 Q778.858 114.808 781.526 114.808 L781.526 116.364 Q780.908 116.364 779.624 116.315 Q778.339 116.265 777.4 116.241 Q776.462 116.216 775.918 116.216 Q775.325 116.216 770.311 116.364 Z" fill="#000000" fill-rule="nonzero" fill-opacity="1" /><path clip-path="url(#clip160)" d="M784.317 116.364 L784.317 114.808 Q787.01 114.808 787.628 114.487 Q788.245 114.141 788.245 112.51 L788.245 98.8988 Q788.245 97.0214 787.603 96.5767 Q786.985 96.132 784.515 96.132 L784.515 94.551 L791.58 94.0076 L791.58 112.56 Q791.58 114.067 792.124 114.437 Q792.667 114.808 795.137 114.808 L795.137 116.364 Q789.974 116.216 789.876 116.216 Q789.184 116.216 784.317 116.364 M786.442 85.1885 Q786.442 84.1756 787.208 83.3604 Q787.998 82.5205 789.11 82.5205 Q790.221 82.5205 791.012 83.2863 Q791.802 84.0274 791.802 85.2132 Q791.802 86.3742 791.012 87.14 Q790.221 87.8811 789.11 87.8811 Q787.949 87.8811 787.183 87.0659 Q786.442 86.2507 786.442 85.1885 Z" fill="#000000" fill-rule="nonzero" fill-opacity="1" /><path clip-path="url(#clip160)" d="M798.052 115.648 Q798.052 115.302 798.522 114.734 L812.627 95.6627 L806.871 95.6627 Q802.87 95.6627 801.56 97.1449 Q800.276 98.6024 800.029 102.703 L798.769 102.703 L799.337 94.551 L815.518 94.551 Q816.086 94.551 816.308 94.5757 Q816.531 94.6004 816.679 94.7734 Q816.827 94.9216 816.827 95.218 Q816.827 95.5145 816.382 96.0826 L802.301 115.104 L808.28 115.104 Q812.479 115.104 813.887 113.35 Q815.32 111.596 815.666 106.903 L816.926 106.903 L816.061 116.364 L799.386 116.364 Q798.571 116.364 798.299 116.265 Q798.052 116.142 798.052 115.648 Z" fill="#000000" fill-rule="nonzero" fill-opacity="1" /><path clip-path="url(#clip160)" d="M820.508 105.223 Q820.508 100.455 823.571 97.0708 Q826.634 93.6864 831.031 93.6864 Q835.478 93.6864 837.775 96.5767 Q840.098 99.467 840.098 103.617 Q840.098 104.383 839.9 104.531 Q839.702 104.679 838.838 104.679 L824.707 104.679 Q824.707 109.842 826.239 112.263 Q828.363 115.648 831.945 115.648 Q832.439 115.648 833.032 115.549 Q833.625 115.45 834.836 115.03 Q836.046 114.585 837.108 113.424 Q838.171 112.263 838.788 110.435 Q838.936 109.719 839.431 109.744 Q840.098 109.744 840.098 110.336 Q840.098 110.781 839.603 111.794 Q839.134 112.782 838.22 113.968 Q837.306 115.154 835.527 116.043 Q833.773 116.932 831.649 116.932 Q827.202 116.932 823.843 113.573 Q820.508 110.188 820.508 105.223 M824.757 103.617 L836.763 103.617 Q836.763 102.555 836.565 101.369 Q836.392 100.183 835.849 98.553 Q835.33 96.8978 834.095 95.8603 Q832.859 94.8228 831.031 94.8228 Q830.216 94.8228 829.327 95.1686 Q828.462 95.5145 827.4 96.3544 Q826.338 97.1943 825.597 99.0964 Q824.856 100.999 824.757 103.617 Z" fill="#000000" fill-rule="nonzero" fill-opacity="1" /><path clip-path="url(#clip160)" d="M843.284 105.495 Q843.284 100.677 846.644 97.3425 Q850.004 94.0076 854.549 94.0076 Q858.403 94.0076 860.922 97.1449 L860.922 86.2013 Q860.922 84.3238 860.255 83.8545 Q859.613 83.3851 856.995 83.3851 L856.995 81.8041 L864.282 81.2606 L864.282 111.967 Q864.282 113.844 864.924 114.338 Q865.591 114.808 868.21 114.808 L868.21 116.364 L860.774 116.932 L860.774 113.573 Q858.156 116.908 854.006 116.932 Q849.658 116.932 846.471 113.597 Q843.284 110.262 843.284 105.495 M847.484 105.544 Q847.484 110.238 848.941 112.56 Q850.967 115.796 854.253 115.796 Q858.007 115.796 860.231 112.263 Q860.799 111.399 860.774 110.386 L860.774 100.01 Q860.774 98.9976 860.231 98.1577 Q858.156 95.1192 854.771 95.1192 Q851.239 95.1192 849.04 98.3553 Q847.484 100.776 847.484 105.544 Z" fill="#000000" fill-rule="nonzero" fill-opacity="1" /><path clip-path="url(#clip160)" d="M891.382 113.597 Q888.17 110.238 888.17 105.445 Q888.17 100.628 891.332 97.1696 Q894.494 93.6864 899.139 93.6864 Q902.226 93.6864 904.549 95.1686 Q906.871 96.6261 906.871 99.1211 Q906.871 100.233 906.204 100.875 Q905.561 101.493 904.549 101.493 Q903.486 101.493 902.844 100.85 Q902.226 100.183 902.226 99.1706 Q902.226 98.7259 902.375 98.2812 Q902.523 97.8366 903.066 97.3672 Q903.635 96.8978 904.598 96.8237 Q902.795 94.971 899.287 94.971 Q899.237 94.971 899.188 94.971 Q896.619 94.971 894.494 97.3919 Q892.37 99.8128 892.37 105.346 Q892.37 108.237 893.062 110.361 Q893.778 112.461 894.939 113.548 Q896.1 114.635 897.236 115.154 Q898.373 115.648 899.484 115.648 Q904.45 115.648 906.13 110.336 Q906.278 109.842 906.772 109.842 Q907.439 109.842 907.439 110.336 Q907.439 110.584 907.241 111.226 Q907.044 111.868 906.426 112.881 Q905.808 113.894 904.919 114.783 Q904.055 115.648 902.498 116.29 Q900.967 116.932 899.04 116.932 Q894.593 116.932 891.382 113.597 Z" fill="#000000" fill-rule="nonzero" fill-opacity="1" /><path clip-path="url(#clip160)" d="M913.639 113.647 Q910.304 110.336 910.304 105.544 Q910.304 100.727 913.565 97.219 Q916.851 93.6864 921.544 93.6864 Q926.139 93.6864 929.425 97.1943 Q932.735 100.677 932.735 105.544 Q932.735 110.312 929.4 113.622 Q926.09 116.932 921.495 116.932 Q916.999 116.932 913.639 113.647 M914.504 105.124 Q914.504 110.04 915.789 112.263 Q917.765 115.648 921.544 115.648 Q923.422 115.648 924.978 114.635 Q926.559 113.622 927.424 111.917 Q928.536 109.694 928.536 105.124 Q928.536 100.258 927.202 98.1083 Q925.225 94.8228 921.495 94.8228 Q919.865 94.8228 918.259 95.6874 Q916.678 96.5273 915.715 98.2071 Q914.504 100.43 914.504 105.124 Z" fill="#000000" fill-rule="nonzero" fill-opacity="1" /><path clip-path="url(#clip160)" d="M935.823 116.364 L935.823 114.808 Q938.516 114.808 939.133 114.487 Q939.751 114.141 939.751 112.51 L939.751 98.9482 Q939.751 97.0708 939.084 96.6014 Q938.442 96.132 935.823 96.132 L935.823 94.551 L942.938 94.0076 L942.938 99.3188 Q945.309 94.0076 950.423 94.0076 Q954.227 94.0076 955.734 95.885 Q956.846 97.1449 957.068 98.553 Q957.315 99.9611 957.315 103.617 L957.315 113.276 Q957.364 114.338 958.18 114.585 Q958.995 114.808 961.267 114.808 L961.267 116.364 Q956.104 116.216 955.586 116.216 Q955.19 116.216 949.879 116.364 L949.879 114.808 Q952.572 114.808 953.189 114.487 Q953.832 114.141 953.832 112.51 L953.832 100.727 Q953.832 98.1577 953.041 96.6508 Q952.251 95.1192 950.077 95.1192 Q947.458 95.1192 945.359 97.3178 Q943.259 99.5164 943.259 103.222 L943.259 112.51 Q943.259 114.141 943.876 114.487 Q944.519 114.808 947.187 114.808 L947.187 116.364 Q942.024 116.216 941.53 116.216 Q941.134 116.216 935.823 116.364 Z" fill="#000000" fill-rule="nonzero" fill-opacity="1" /><path clip-path="url(#clip160)" d="M961.811 96.132 L961.811 95.0204 Q964.133 94.9216 965.665 93.2912 Q967.221 91.636 967.74 89.6104 Q968.283 87.5847 968.333 85.2379 L969.593 85.2379 L969.593 94.551 L976.831 94.551 L976.831 96.132 L969.593 96.132 L969.593 110.188 Q969.593 115.648 973.002 115.648 Q974.459 115.648 975.423 114.165 Q976.386 112.659 976.386 109.991 L976.386 107.199 L977.646 107.199 L977.646 110.089 Q977.646 112.832 976.386 114.882 Q975.126 116.932 972.631 116.932 Q971.717 116.932 970.803 116.685 Q969.914 116.463 968.728 115.87 Q967.567 115.252 966.826 113.77 Q966.109 112.263 966.109 110.089 L966.109 96.132 L961.811 96.132 Z" fill="#000000" fill-rule="nonzero" fill-opacity="1" /><path clip-path="url(#clip160)" d="M981.87 116.364 L981.87 114.808 Q984.563 114.808 985.18 114.487 Q985.823 114.141 985.823 112.51 L985.823 98.9482 Q985.823 97.0708 985.156 96.6014 Q984.513 96.132 981.87 96.132 L981.87 94.551 L988.911 94.0076 L988.911 99.5658 Q989.627 97.3919 991.134 95.7121 Q992.665 94.0076 995.136 94.0076 Q996.766 94.0076 997.804 94.9216 Q998.866 95.8356 998.866 97.0955 Q998.866 98.2071 998.174 98.7753 Q997.507 99.3188 996.692 99.3188 Q995.778 99.3188 995.136 98.7506 Q994.518 98.1577 994.518 97.1449 Q994.518 96.5273 994.79 96.0579 Q995.086 95.5639 995.309 95.3909 Q995.531 95.218 995.679 95.1686 Q995.58 95.1192 995.136 95.1192 Q992.344 95.1192 990.739 97.9107 Q989.158 100.677 989.158 104.63 L989.158 112.412 Q989.158 113.869 989.75 114.338 Q990.368 114.808 993.011 114.808 L994.074 114.808 L994.074 116.364 Q992.048 116.216 987.651 116.216 Q987.033 116.216 986.07 116.241 Q985.106 116.265 983.846 116.315 Q982.586 116.364 981.87 116.364 Z" fill="#000000" fill-rule="nonzero" fill-opacity="1" /><path clip-path="url(#clip160)" d="M1004.97 113.647 Q1001.63 110.336 1001.63 105.544 Q1001.63 100.727 1004.89 97.219 Q1008.18 93.6864 1012.87 93.6864 Q1017.47 93.6864 1020.75 97.1943 Q1024.06 100.677 1024.06 105.544 Q1024.06 110.312 1020.73 113.622 Q1017.42 116.932 1012.82 116.932 Q1008.33 116.932 1004.97 113.647 M1005.83 105.124 Q1005.83 110.04 1007.12 112.263 Q1009.09 115.648 1012.87 115.648 Q1014.75 115.648 1016.31 114.635 Q1017.89 113.622 1018.75 111.917 Q1019.86 109.694 1019.86 105.124 Q1019.86 100.258 1018.53 98.1083 Q1016.55 94.8228 1012.82 94.8228 Q1011.19 94.8228 1009.59 95.6874 Q1008.01 96.5273 1007.04 98.2071 Q1005.83 100.43 1005.83 105.124 Z" fill="#000000" fill-rule="nonzero" fill-opacity="1" /><path clip-path="url(#clip160)" d="M1027.2 116.364 L1027.2 114.808 Q1029.89 114.808 1030.51 114.487 Q1031.13 114.141 1031.13 112.51 L1031.13 86.2013 Q1031.13 84.3238 1030.46 83.8545 Q1029.82 83.3851 1027.2 83.3851 L1027.2 81.8041 L1034.46 81.2606 L1034.46 112.51 Q1034.46 114.141 1035.11 114.487 Q1035.75 114.808 1038.42 114.808 L1038.42 116.364 Q1037.8 116.364 1036.51 116.315 Q1035.23 116.265 1034.29 116.241 Q1033.35 116.216 1032.81 116.216 Q1032.22 116.216 1027.2 116.364 Z" fill="#000000" fill-rule="nonzero" fill-opacity="1" /><path clip-path="url(#clip160)" d="M1041.21 116.364 L1041.21 114.808 Q1043.9 114.808 1044.52 114.487 Q1045.14 114.141 1045.14 112.51 L1045.14 86.2013 Q1045.14 84.3238 1044.47 83.8545 Q1043.83 83.3851 1041.21 83.3851 L1041.21 81.8041 L1048.47 81.2606 L1048.47 112.51 Q1048.47 114.141 1049.11 114.487 Q1049.75 114.808 1052.42 114.808 L1052.42 116.364 Q1051.81 116.364 1050.52 116.315 Q1049.24 116.265 1048.3 116.241 Q1047.36 116.216 1046.82 116.216 Q1046.22 116.216 1041.21 116.364 Z" fill="#000000" fill-rule="nonzero" fill-opacity="1" /><path clip-path="url(#clip160)" d="M1054.94 105.223 Q1054.94 100.455 1058.01 97.0708 Q1061.07 93.6864 1065.47 93.6864 Q1069.91 93.6864 1072.21 96.5767 Q1074.53 99.467 1074.53 103.617 Q1074.53 104.383 1074.33 104.531 Q1074.14 104.679 1073.27 104.679 L1059.14 104.679 Q1059.14 109.842 1060.67 112.263 Q1062.8 115.648 1066.38 115.648 Q1066.87 115.648 1067.47 115.549 Q1068.06 115.45 1069.27 115.03 Q1070.48 114.585 1071.54 113.424 Q1072.61 112.263 1073.22 110.435 Q1073.37 109.719 1073.87 109.744 Q1074.53 109.744 1074.53 110.336 Q1074.53 110.781 1074.04 111.794 Q1073.57 112.782 1072.65 113.968 Q1071.74 115.154 1069.96 116.043 Q1068.21 116.932 1066.08 116.932 Q1061.64 116.932 1058.28 113.573 Q1054.94 110.188 1054.94 105.223 M1059.19 103.617 L1071.2 103.617 Q1071.2 102.555 1071 101.369 Q1070.83 100.183 1070.28 98.553 Q1069.76 96.8978 1068.53 95.8603 Q1067.29 94.8228 1065.47 94.8228 Q1064.65 94.8228 1063.76 95.1686 Q1062.9 95.5145 1061.83 96.3544 Q1060.77 97.1943 1060.03 99.0964 Q1059.29 100.999 1059.19 103.617 Z" fill="#000000" fill-rule="nonzero" fill-opacity="1" /><path clip-path="url(#clip160)" d="M1077.4 116.364 L1077.4 114.808 Q1080.09 114.808 1080.71 114.487 Q1081.35 114.141 1081.35 112.51 L1081.35 98.9482 Q1081.35 97.0708 1080.68 96.6014 Q1080.04 96.132 1077.4 96.132 L1077.4 94.551 L1084.44 94.0076 L1084.44 99.5658 Q1085.15 97.3919 1086.66 95.7121 Q1088.19 94.0076 1090.66 94.0076 Q1092.29 94.0076 1093.33 94.9216 Q1094.39 95.8356 1094.39 97.0955 Q1094.39 98.2071 1093.7 98.7753 Q1093.04 99.3188 1092.22 99.3188 Q1091.31 99.3188 1090.66 98.7506 Q1090.05 98.1577 1090.05 97.1449 Q1090.05 96.5273 1090.32 96.0579 Q1090.61 95.5639 1090.84 95.3909 Q1091.06 95.218 1091.21 95.1686 Q1091.11 95.1192 1090.66 95.1192 Q1087.87 95.1192 1086.27 97.9107 Q1084.69 100.677 1084.69 104.63 L1084.69 112.412 Q1084.69 113.869 1085.28 114.338 Q1085.9 114.808 1088.54 114.808 L1089.6 114.808 L1089.6 116.364 Q1087.58 116.216 1083.18 116.216 Q1082.56 116.216 1081.6 116.241 Q1080.63 116.265 1079.37 116.315 Q1078.11 116.364 1077.4 116.364 Z" fill="#000000" fill-rule="nonzero" fill-opacity="1" /></svg>
