<?xml version="1.0" encoding="utf-8"?>
<svg xmlns="http://www.w3.org/2000/svg" xmlns:xlink="http://www.w3.org/1999/xlink" width="350" height="250" viewBox="0 0 1400 1000">
<defs>
  <clipPath id="clip550">
    <rect x="0" y="0" width="1400" height="1000"/>
  </clipPath>
</defs>
<path clip-path="url(#clip550)" d="M0 1000 L1400 1000 L1400 0 L0 0  Z" fill="#ffffff" fill-rule="evenodd" fill-opacity="1"/>
<defs>
  <clipPath id="clip551">
    <rect x="280" y="0" width="981" height="981"/>
  </clipPath>
</defs>
<path clip-path="url(#clip550)" d="M254.029 823.317 L1352.76 823.317 L1352.76 176.793 L254.029 176.793  Z" fill="#ffffff" fill-rule="evenodd" fill-opacity="1"/>
<defs>
  <clipPath id="clip552">
    <rect x="254" y="176" width="1100" height="648"/>
  </clipPath>
</defs>
<polyline clip-path="url(#clip552)" style="stroke:#000000; stroke-linecap:round; stroke-linejoin:round; stroke-width:2; stroke-opacity:0.1; fill:none" points="285.125,823.317 285.125,176.793 "/>
<polyline clip-path="url(#clip552)" style="stroke:#000000; stroke-linecap:round; stroke-linejoin:round; stroke-width:2; stroke-opacity:0.1; fill:none" points="630.637,823.317 630.637,176.793 "/>
<polyline clip-path="url(#clip552)" style="stroke:#000000; stroke-linecap:round; stroke-linejoin:round; stroke-width:2; stroke-opacity:0.1; fill:none" points="976.148,823.317 976.148,176.793 "/>
<polyline clip-path="url(#clip552)" style="stroke:#000000; stroke-linecap:round; stroke-linejoin:round; stroke-width:2; stroke-opacity:0.1; fill:none" points="1321.66,823.317 1321.66,176.793 "/>
<polyline clip-path="url(#clip550)" style="stroke:#000000; stroke-linecap:round; stroke-linejoin:round; stroke-width:4; stroke-opacity:1; fill:none" points="254.029,823.317 1352.76,823.317 "/>
<polyline clip-path="url(#clip550)" style="stroke:#000000; stroke-linecap:round; stroke-linejoin:round; stroke-width:4; stroke-opacity:1; fill:none" points="285.125,823.317 285.125,807.574 "/>
<polyline clip-path="url(#clip550)" style="stroke:#000000; stroke-linecap:round; stroke-linejoin:round; stroke-width:4; stroke-opacity:1; fill:none" points="630.637,823.317 630.637,807.574 "/>
<polyline clip-path="url(#clip550)" style="stroke:#000000; stroke-linecap:round; stroke-linejoin:round; stroke-width:4; stroke-opacity:1; fill:none" points="976.148,823.317 976.148,807.574 "/>
<polyline clip-path="url(#clip550)" style="stroke:#000000; stroke-linecap:round; stroke-linejoin:round; stroke-width:4; stroke-opacity:1; fill:none" points="1321.66,823.317 1321.66,807.574 "/>
<path clip-path="url(#clip550)" d="M224.157 877.717 Q224.157 876.803 224.231 876.531 Q224.33 876.259 224.725 875.84 L234.434 865.019 Q239.745 859.041 239.745 853.829 Q239.745 850.444 237.966 848.024 Q236.212 845.603 232.976 845.603 Q230.753 845.603 228.876 846.961 Q226.998 848.32 226.133 850.741 Q226.282 850.692 226.8 850.692 Q228.06 850.692 228.752 851.482 Q229.468 852.273 229.468 853.335 Q229.468 854.693 228.579 855.36 Q227.714 856.003 226.85 856.003 Q226.504 856.003 226.035 855.929 Q225.59 855.855 224.874 855.163 Q224.157 854.446 224.157 853.187 Q224.157 849.654 226.825 846.838 Q229.518 844.022 233.619 844.022 Q238.263 844.022 241.301 846.788 Q244.365 849.53 244.365 853.829 Q244.365 855.336 243.895 856.719 Q243.451 858.078 242.833 859.14 Q242.24 860.202 240.61 861.907 Q238.979 863.611 237.67 864.822 Q236.361 866.032 233.421 868.601 L228.06 873.814 L237.176 873.814 Q241.622 873.814 241.968 873.419 Q242.462 872.702 243.08 868.923 L244.365 868.923 L242.932 877.717 L224.157 877.717 Z" fill="#000000" fill-rule="nonzero" fill-opacity="1" /><path clip-path="url(#clip550)" d="M249.453 869.565 Q249.453 868.058 250.269 867.49 Q251.084 866.897 251.948 866.897 Q253.11 866.897 253.777 867.638 Q254.468 868.354 254.468 869.367 Q254.468 870.38 253.777 871.121 Q253.11 871.838 251.948 871.838 Q251.38 871.838 251.084 871.739 Q251.751 874.061 253.777 875.741 Q255.827 877.421 258.52 877.421 Q261.904 877.421 263.93 874.135 Q265.14 872.011 265.14 867.193 Q265.14 862.944 264.226 860.82 Q262.818 857.584 259.928 857.584 Q255.827 857.584 253.406 861.116 Q253.11 861.561 252.764 861.586 Q252.27 861.586 252.146 861.314 Q252.047 861.018 252.047 860.252 L252.047 845.281 Q252.047 844.071 252.541 844.071 Q252.739 844.071 253.159 844.219 Q256.346 845.627 259.878 845.652 Q263.51 845.652 266.771 844.17 Q267.018 844.022 267.166 844.022 Q267.66 844.022 267.685 844.59 Q267.685 844.787 267.265 845.38 Q266.869 845.948 266.005 846.714 Q265.14 847.455 264.028 848.172 Q262.917 848.888 261.286 849.382 Q259.681 849.852 257.902 849.852 Q255.778 849.852 253.604 849.185 L253.604 859.041 Q256.222 856.472 260.026 856.472 Q264.078 856.472 266.869 859.733 Q269.661 862.994 269.661 867.539 Q269.661 872.307 266.351 875.568 Q263.065 878.829 258.618 878.829 Q254.567 878.829 251.998 875.938 Q249.453 873.048 249.453 869.565 Z" fill="#000000" fill-rule="nonzero" fill-opacity="1" /><path clip-path="url(#clip550)" d="M274.206 861.536 Q274.206 854.101 276.084 850.049 Q278.702 844.022 284.878 844.022 Q286.187 844.022 287.546 844.392 Q288.929 844.738 290.659 846.097 Q292.413 847.455 293.475 849.679 Q295.501 853.977 295.501 861.536 Q295.501 868.923 293.623 872.949 Q290.881 878.829 284.829 878.829 Q282.556 878.829 280.234 877.668 Q277.936 876.507 276.479 873.715 Q274.206 869.54 274.206 861.536 M278.406 860.919 Q278.406 868.552 278.949 871.591 Q279.567 874.876 281.247 876.309 Q282.951 877.717 284.829 877.717 Q286.854 877.717 288.534 876.21 Q290.239 874.678 290.757 871.393 Q291.326 868.157 291.301 860.919 Q291.301 853.878 290.807 851.062 Q290.14 847.777 288.361 846.467 Q286.607 845.133 284.829 845.133 Q284.162 845.133 283.445 845.331 Q282.754 845.529 281.741 846.097 Q280.728 846.665 279.937 848.073 Q279.172 849.481 278.801 851.606 Q278.406 854.348 278.406 860.919 Z" fill="#000000" fill-rule="nonzero" fill-opacity="1" /><path clip-path="url(#clip550)" d="M299.502 861.536 Q299.502 854.101 301.38 850.049 Q303.998 844.022 310.174 844.022 Q311.484 844.022 312.842 844.392 Q314.226 844.738 315.955 846.097 Q317.709 847.455 318.771 849.679 Q320.797 853.977 320.797 861.536 Q320.797 868.923 318.919 872.949 Q316.177 878.829 310.125 878.829 Q307.852 878.829 305.53 877.668 Q303.233 876.507 301.775 873.715 Q299.502 869.54 299.502 861.536 M303.702 860.919 Q303.702 868.552 304.245 871.591 Q304.863 874.876 306.543 876.309 Q308.247 877.717 310.125 877.717 Q312.151 877.717 313.83 876.21 Q315.535 874.678 316.054 871.393 Q316.622 868.157 316.597 860.919 Q316.597 853.878 316.103 851.062 Q315.436 847.777 313.657 846.467 Q311.904 845.133 310.125 845.133 Q309.458 845.133 308.742 845.331 Q308.05 845.529 307.037 846.097 Q306.024 846.665 305.234 848.073 Q304.468 849.481 304.097 851.606 Q303.702 854.348 303.702 860.919 Z" fill="#000000" fill-rule="nonzero" fill-opacity="1" /><path clip-path="url(#clip550)" d="M324.799 861.536 Q324.799 854.101 326.676 850.049 Q329.295 844.022 335.471 844.022 Q336.78 844.022 338.139 844.392 Q339.522 844.738 341.251 846.097 Q343.005 847.455 344.067 849.679 Q346.093 853.977 346.093 861.536 Q346.093 868.923 344.216 872.949 Q341.473 878.829 335.421 878.829 Q333.148 878.829 330.826 877.668 Q328.529 876.507 327.071 873.715 Q324.799 869.54 324.799 861.536 M328.998 860.919 Q328.998 868.552 329.542 871.591 Q330.159 874.876 331.839 876.309 Q333.544 877.717 335.421 877.717 Q337.447 877.717 339.127 876.21 Q340.831 874.678 341.35 871.393 Q341.918 868.157 341.893 860.919 Q341.893 853.878 341.399 851.062 Q340.732 847.777 338.954 846.467 Q337.2 845.133 335.421 845.133 Q334.754 845.133 334.038 845.331 Q333.346 845.529 332.333 846.097 Q331.32 846.665 330.53 848.073 Q329.764 849.481 329.394 851.606 Q328.998 854.348 328.998 860.919 Z" fill="#000000" fill-rule="nonzero" fill-opacity="1" /><path clip-path="url(#clip550)" d="M569.669 869.565 Q569.669 868.058 570.484 867.49 Q571.299 866.897 572.164 866.897 Q573.325 866.897 573.992 867.638 Q574.684 868.354 574.684 869.367 Q574.684 870.38 573.992 871.121 Q573.325 871.838 572.164 871.838 Q571.596 871.838 571.299 871.739 Q571.966 874.061 573.992 875.741 Q576.042 877.421 578.735 877.421 Q582.119 877.421 584.145 874.135 Q585.355 872.011 585.355 867.193 Q585.355 862.944 584.441 860.82 Q583.033 857.584 580.143 857.584 Q576.042 857.584 573.621 861.116 Q573.325 861.561 572.979 861.586 Q572.485 861.586 572.361 861.314 Q572.263 861.018 572.263 860.252 L572.263 845.281 Q572.263 844.071 572.757 844.071 Q572.954 844.071 573.374 844.219 Q576.561 845.627 580.094 845.652 Q583.725 845.652 586.986 844.17 Q587.233 844.022 587.381 844.022 Q587.875 844.022 587.9 844.59 Q587.9 844.787 587.48 845.38 Q587.085 845.948 586.22 846.714 Q585.355 847.455 584.244 848.172 Q583.132 848.888 581.502 849.382 Q579.896 849.852 578.117 849.852 Q575.993 849.852 573.819 849.185 L573.819 859.041 Q576.438 856.472 580.242 856.472 Q584.293 856.472 587.085 859.733 Q589.876 862.994 589.876 867.539 Q589.876 872.307 586.566 875.568 Q583.28 878.829 578.834 878.829 Q574.782 878.829 572.213 875.938 Q569.669 873.048 569.669 869.565 Z" fill="#000000" fill-rule="nonzero" fill-opacity="1" /><path clip-path="url(#clip550)" d="M594.422 861.536 Q594.422 854.101 596.299 850.049 Q598.918 844.022 605.093 844.022 Q606.403 844.022 607.761 844.392 Q609.145 844.738 610.874 846.097 Q612.628 847.455 613.69 849.679 Q615.716 853.977 615.716 861.536 Q615.716 868.923 613.838 872.949 Q611.096 878.829 605.044 878.829 Q602.771 878.829 600.449 877.668 Q598.152 876.507 596.694 873.715 Q594.422 869.54 594.422 861.536 M598.621 860.919 Q598.621 868.552 599.165 871.591 Q599.782 874.876 601.462 876.309 Q603.167 877.717 605.044 877.717 Q607.07 877.717 608.75 876.21 Q610.454 874.678 610.973 871.393 Q611.541 868.157 611.516 860.919 Q611.516 853.878 611.022 851.062 Q610.355 847.777 608.577 846.467 Q606.823 845.133 605.044 845.133 Q604.377 845.133 603.661 845.331 Q602.969 845.529 601.956 846.097 Q600.943 846.665 600.153 848.073 Q599.387 849.481 599.016 851.606 Q598.621 854.348 598.621 860.919 Z" fill="#000000" fill-rule="nonzero" fill-opacity="1" /><path clip-path="url(#clip550)" d="M619.718 861.536 Q619.718 854.101 621.595 850.049 Q624.214 844.022 630.39 844.022 Q631.699 844.022 633.058 844.392 Q634.441 844.738 636.17 846.097 Q637.924 847.455 638.986 849.679 Q641.012 853.977 641.012 861.536 Q641.012 868.923 639.135 872.949 Q636.393 878.829 630.34 878.829 Q628.068 878.829 625.745 877.668 Q623.448 876.507 621.991 873.715 Q619.718 869.54 619.718 861.536 M623.917 860.919 Q623.917 868.552 624.461 871.591 Q625.078 874.876 626.758 876.309 Q628.463 877.717 630.34 877.717 Q632.366 877.717 634.046 876.21 Q635.75 874.678 636.269 871.393 Q636.837 868.157 636.813 860.919 Q636.813 853.878 636.318 851.062 Q635.651 847.777 633.873 846.467 Q632.119 845.133 630.34 845.133 Q629.673 845.133 628.957 845.331 Q628.265 845.529 627.252 846.097 Q626.239 846.665 625.449 848.073 Q624.683 849.481 624.313 851.606 Q623.917 854.348 623.917 860.919 Z" fill="#000000" fill-rule="nonzero" fill-opacity="1" /><path clip-path="url(#clip550)" d="M645.014 861.536 Q645.014 854.101 646.891 850.049 Q649.51 844.022 655.686 844.022 Q656.995 844.022 658.354 844.392 Q659.737 844.738 661.466 846.097 Q663.22 847.455 664.283 849.679 Q666.308 853.977 666.308 861.536 Q666.308 868.923 664.431 872.949 Q661.689 878.829 655.636 878.829 Q653.364 878.829 651.042 877.668 Q648.744 876.507 647.287 873.715 Q645.014 869.54 645.014 861.536 M649.214 860.919 Q649.214 868.552 649.757 871.591 Q650.375 874.876 652.054 876.309 Q653.759 877.717 655.636 877.717 Q657.662 877.717 659.342 876.21 Q661.047 874.678 661.565 871.393 Q662.133 868.157 662.109 860.919 Q662.109 853.878 661.615 851.062 Q660.948 847.777 659.169 846.467 Q657.415 845.133 655.636 845.133 Q654.969 845.133 654.253 845.331 Q653.561 845.529 652.549 846.097 Q651.536 846.665 650.745 848.073 Q649.979 849.481 649.609 851.606 Q649.214 854.348 649.214 860.919 Z" fill="#000000" fill-rule="nonzero" fill-opacity="1" /><path clip-path="url(#clip550)" d="M670.31 861.536 Q670.31 854.101 672.188 850.049 Q674.806 844.022 680.982 844.022 Q682.291 844.022 683.65 844.392 Q685.033 844.738 686.763 846.097 Q688.517 847.455 689.579 849.679 Q691.605 853.977 691.605 861.536 Q691.605 868.923 689.727 872.949 Q686.985 878.829 680.933 878.829 Q678.66 878.829 676.338 877.668 Q674.04 876.507 672.583 873.715 Q670.31 869.54 670.31 861.536 M674.51 860.919 Q674.51 868.552 675.053 871.591 Q675.671 874.876 677.351 876.309 Q679.055 877.717 680.933 877.717 Q682.958 877.717 684.638 876.21 Q686.343 874.678 686.862 871.393 Q687.43 868.157 687.405 860.919 Q687.405 853.878 686.911 851.062 Q686.244 847.777 684.465 846.467 Q682.711 845.133 680.933 845.133 Q680.266 845.133 679.549 845.331 Q678.858 845.529 677.845 846.097 Q676.832 846.665 676.041 848.073 Q675.276 849.481 674.905 851.606 Q674.51 854.348 674.51 860.919 Z" fill="#000000" fill-rule="nonzero" fill-opacity="1" /><path clip-path="url(#clip550)" d="M903.52 848.839 L903.52 847.258 Q909.597 847.258 912.735 844.022 Q913.599 844.022 913.748 844.219 Q913.896 844.417 913.896 845.331 L913.896 873.715 Q913.896 875.222 914.637 875.691 Q915.378 876.161 918.614 876.161 L920.22 876.161 L920.22 877.717 Q918.441 877.569 912.018 877.569 Q905.595 877.569 903.842 877.717 L903.842 876.161 L905.447 876.161 Q908.634 876.161 909.4 875.716 Q910.166 875.247 910.166 873.715 L910.166 847.505 Q907.522 848.839 903.52 848.839 Z" fill="#000000" fill-rule="nonzero" fill-opacity="1" /><path clip-path="url(#clip550)" d="M926.297 861.536 Q926.297 854.101 928.174 850.049 Q930.793 844.022 936.969 844.022 Q938.278 844.022 939.637 844.392 Q941.02 844.738 942.749 846.097 Q944.503 847.455 945.566 849.679 Q947.591 853.977 947.591 861.536 Q947.591 868.923 945.714 872.949 Q942.972 878.829 936.919 878.829 Q934.647 878.829 932.325 877.668 Q930.027 876.507 928.57 873.715 Q926.297 869.54 926.297 861.536 M930.496 860.919 Q930.496 868.552 931.04 871.591 Q931.658 874.876 933.337 876.309 Q935.042 877.717 936.919 877.717 Q938.945 877.717 940.625 876.21 Q942.329 874.678 942.848 871.393 Q943.416 868.157 943.392 860.919 Q943.392 853.878 942.898 851.062 Q942.231 847.777 940.452 846.467 Q938.698 845.133 936.919 845.133 Q936.252 845.133 935.536 845.331 Q934.844 845.529 933.831 846.097 Q932.819 846.665 932.028 848.073 Q931.262 849.481 930.892 851.606 Q930.496 854.348 930.496 860.919 Z" fill="#000000" fill-rule="nonzero" fill-opacity="1" /><path clip-path="url(#clip550)" d="M951.593 861.536 Q951.593 854.101 953.471 850.049 Q956.089 844.022 962.265 844.022 Q963.574 844.022 964.933 844.392 Q966.316 844.738 968.046 846.097 Q969.8 847.455 970.862 849.679 Q972.887 853.977 972.887 861.536 Q972.887 868.923 971.01 872.949 Q968.268 878.829 962.216 878.829 Q959.943 878.829 957.621 877.668 Q955.323 876.507 953.866 873.715 Q951.593 869.54 951.593 861.536 M955.793 860.919 Q955.793 868.552 956.336 871.591 Q956.954 874.876 958.634 876.309 Q960.338 877.717 962.216 877.717 Q964.241 877.717 965.921 876.21 Q967.626 874.678 968.144 871.393 Q968.713 868.157 968.688 860.919 Q968.688 853.878 968.194 851.062 Q967.527 847.777 965.748 846.467 Q963.994 845.133 962.216 845.133 Q961.549 845.133 960.832 845.331 Q960.14 845.529 959.128 846.097 Q958.115 846.665 957.324 848.073 Q956.559 849.481 956.188 851.606 Q955.793 854.348 955.793 860.919 Z" fill="#000000" fill-rule="nonzero" fill-opacity="1" /><path clip-path="url(#clip550)" d="M976.889 861.536 Q976.889 854.101 978.767 850.049 Q981.385 844.022 987.561 844.022 Q988.871 844.022 990.229 844.392 Q991.613 844.738 993.342 846.097 Q995.096 847.455 996.158 849.679 Q998.184 853.977 998.184 861.536 Q998.184 868.923 996.306 872.949 Q993.564 878.829 987.512 878.829 Q985.239 878.829 982.917 877.668 Q980.62 876.507 979.162 873.715 Q976.889 869.54 976.889 861.536 M981.089 860.919 Q981.089 868.552 981.632 871.591 Q982.25 874.876 983.93 876.309 Q985.634 877.717 987.512 877.717 Q989.537 877.717 991.217 876.21 Q992.922 874.678 993.441 871.393 Q994.009 868.157 993.984 860.919 Q993.984 853.878 993.49 851.062 Q992.823 847.777 991.044 846.467 Q989.29 845.133 987.512 845.133 Q986.845 845.133 986.128 845.331 Q985.437 845.529 984.424 846.097 Q983.411 846.665 982.621 848.073 Q981.855 849.481 981.484 851.606 Q981.089 854.348 981.089 860.919 Z" fill="#000000" fill-rule="nonzero" fill-opacity="1" /><path clip-path="url(#clip550)" d="M1002.19 861.536 Q1002.19 854.101 1004.06 850.049 Q1006.68 844.022 1012.86 844.022 Q1014.17 844.022 1015.53 844.392 Q1016.91 844.738 1018.64 846.097 Q1020.39 847.455 1021.45 849.679 Q1023.48 853.977 1023.48 861.536 Q1023.48 868.923 1021.6 872.949 Q1018.86 878.829 1012.81 878.829 Q1010.54 878.829 1008.21 877.668 Q1005.92 876.507 1004.46 873.715 Q1002.19 869.54 1002.19 861.536 M1006.39 860.919 Q1006.39 868.552 1006.93 871.591 Q1007.55 874.876 1009.23 876.309 Q1010.93 877.717 1012.81 877.717 Q1014.83 877.717 1016.51 876.21 Q1018.22 874.678 1018.74 871.393 Q1019.31 868.157 1019.28 860.919 Q1019.28 853.878 1018.79 851.062 Q1018.12 847.777 1016.34 846.467 Q1014.59 845.133 1012.81 845.133 Q1012.14 845.133 1011.42 845.331 Q1010.73 845.529 1009.72 846.097 Q1008.71 846.665 1007.92 848.073 Q1007.15 849.481 1006.78 851.606 Q1006.39 854.348 1006.39 860.919 Z" fill="#000000" fill-rule="nonzero" fill-opacity="1" /><path clip-path="url(#clip550)" d="M1027.48 861.536 Q1027.48 854.101 1029.36 850.049 Q1031.98 844.022 1038.15 844.022 Q1039.46 844.022 1040.82 844.392 Q1042.21 844.738 1043.93 846.097 Q1045.69 847.455 1046.75 849.679 Q1048.78 853.977 1048.78 861.536 Q1048.78 868.923 1046.9 872.949 Q1044.16 878.829 1038.1 878.829 Q1035.83 878.829 1033.51 877.668 Q1031.21 876.507 1029.75 873.715 Q1027.48 869.54 1027.48 861.536 M1031.68 860.919 Q1031.68 868.552 1032.22 871.591 Q1032.84 874.876 1034.52 876.309 Q1036.23 877.717 1038.1 877.717 Q1040.13 877.717 1041.81 876.21 Q1043.51 874.678 1044.03 871.393 Q1044.6 868.157 1044.58 860.919 Q1044.58 853.878 1044.08 851.062 Q1043.42 847.777 1041.64 846.467 Q1039.88 845.133 1038.1 845.133 Q1037.44 845.133 1036.72 845.331 Q1036.03 845.529 1035.02 846.097 Q1034 846.665 1033.21 848.073 Q1032.45 849.481 1032.08 851.606 Q1031.68 854.348 1031.68 860.919 Z" fill="#000000" fill-rule="nonzero" fill-opacity="1" /><path clip-path="url(#clip550)" d="M1248.04 877.717 Q1248.04 876.803 1248.12 876.531 Q1248.22 876.259 1248.61 875.84 L1258.32 865.019 Q1263.63 859.041 1263.63 853.829 Q1263.63 850.444 1261.85 848.024 Q1260.1 845.603 1256.86 845.603 Q1254.64 845.603 1252.76 846.961 Q1250.88 848.32 1250.02 850.741 Q1250.17 850.692 1250.69 850.692 Q1251.95 850.692 1252.64 851.482 Q1253.36 852.273 1253.36 853.335 Q1253.36 854.693 1252.47 855.36 Q1251.6 856.003 1250.74 856.003 Q1250.39 856.003 1249.92 855.929 Q1249.48 855.855 1248.76 855.163 Q1248.04 854.446 1248.04 853.187 Q1248.04 849.654 1250.71 846.838 Q1253.4 844.022 1257.51 844.022 Q1262.15 844.022 1265.19 846.788 Q1268.25 849.53 1268.25 853.829 Q1268.25 855.336 1267.78 856.719 Q1267.34 858.078 1266.72 859.14 Q1266.13 860.202 1264.5 861.907 Q1262.87 863.611 1261.56 864.822 Q1260.25 866.032 1257.31 868.601 L1251.95 873.814 L1261.06 873.814 Q1265.51 873.814 1265.85 873.419 Q1266.35 872.702 1266.97 868.923 L1268.25 868.923 L1266.82 877.717 L1248.04 877.717 Z" fill="#000000" fill-rule="nonzero" fill-opacity="1" /><path clip-path="url(#clip550)" d="M1272.8 861.536 Q1272.8 854.101 1274.67 850.049 Q1277.29 844.022 1283.47 844.022 Q1284.78 844.022 1286.14 844.392 Q1287.52 844.738 1289.25 846.097 Q1291 847.455 1292.07 849.679 Q1294.09 853.977 1294.09 861.536 Q1294.09 868.923 1292.21 872.949 Q1289.47 878.829 1283.42 878.829 Q1281.15 878.829 1278.82 877.668 Q1276.53 876.507 1275.07 873.715 Q1272.8 869.54 1272.8 861.536 M1277 860.919 Q1277 868.552 1277.54 871.591 Q1278.16 874.876 1279.84 876.309 Q1281.54 877.717 1283.42 877.717 Q1285.44 877.717 1287.12 876.21 Q1288.83 874.678 1289.35 871.393 Q1289.92 868.157 1289.89 860.919 Q1289.89 853.878 1289.4 851.062 Q1288.73 847.777 1286.95 846.467 Q1285.2 845.133 1283.42 845.133 Q1282.75 845.133 1282.04 845.331 Q1281.34 845.529 1280.33 846.097 Q1279.32 846.665 1278.53 848.073 Q1277.76 849.481 1277.39 851.606 Q1277 854.348 1277 860.919 Z" fill="#000000" fill-rule="nonzero" fill-opacity="1" /><path clip-path="url(#clip550)" d="M1298.09 861.536 Q1298.09 854.101 1299.97 850.049 Q1302.59 844.022 1308.76 844.022 Q1310.07 844.022 1311.43 844.392 Q1312.82 844.738 1314.55 846.097 Q1316.3 847.455 1317.36 849.679 Q1319.39 853.977 1319.39 861.536 Q1319.39 868.923 1317.51 872.949 Q1314.77 878.829 1308.72 878.829 Q1306.44 878.829 1304.12 877.668 Q1301.82 876.507 1300.37 873.715 Q1298.09 869.54 1298.09 861.536 M1302.29 860.919 Q1302.29 868.552 1302.84 871.591 Q1303.45 874.876 1305.13 876.309 Q1306.84 877.717 1308.72 877.717 Q1310.74 877.717 1312.42 876.21 Q1314.13 874.678 1314.64 871.393 Q1315.21 868.157 1315.19 860.919 Q1315.19 853.878 1314.69 851.062 Q1314.03 847.777 1312.25 846.467 Q1310.49 845.133 1308.72 845.133 Q1308.05 845.133 1307.33 845.331 Q1306.64 845.529 1305.63 846.097 Q1304.61 846.665 1303.82 848.073 Q1303.06 849.481 1302.69 851.606 Q1302.29 854.348 1302.29 860.919 Z" fill="#000000" fill-rule="nonzero" fill-opacity="1" /><path clip-path="url(#clip550)" d="M1323.39 861.536 Q1323.39 854.101 1325.27 850.049 Q1327.89 844.022 1334.06 844.022 Q1335.37 844.022 1336.73 844.392 Q1338.11 844.738 1339.84 846.097 Q1341.6 847.455 1342.66 849.679 Q1344.68 853.977 1344.68 861.536 Q1344.68 868.923 1342.81 872.949 Q1340.06 878.829 1334.01 878.829 Q1331.74 878.829 1329.42 877.668 Q1327.12 876.507 1325.66 873.715 Q1323.39 869.54 1323.39 861.536 M1327.59 860.919 Q1327.59 868.552 1328.13 871.591 Q1328.75 874.876 1330.43 876.309 Q1332.13 877.717 1334.01 877.717 Q1336.04 877.717 1337.72 876.21 Q1339.42 874.678 1339.94 871.393 Q1340.51 868.157 1340.48 860.919 Q1340.48 853.878 1339.99 851.062 Q1339.32 847.777 1337.54 846.467 Q1335.79 845.133 1334.01 845.133 Q1333.34 845.133 1332.63 845.331 Q1331.94 845.529 1330.92 846.097 Q1329.91 846.665 1329.12 848.073 Q1328.35 849.481 1327.98 851.606 Q1327.59 854.348 1327.59 860.919 Z" fill="#000000" fill-rule="nonzero" fill-opacity="1" /><path clip-path="url(#clip550)" d="M1348.69 861.536 Q1348.69 854.101 1350.56 850.049 Q1353.18 844.022 1359.36 844.022 Q1360.67 844.022 1362.03 844.392 Q1363.41 844.738 1365.14 846.097 Q1366.89 847.455 1367.95 849.679 Q1369.98 853.977 1369.98 861.536 Q1369.98 868.923 1368.1 872.949 Q1365.36 878.829 1359.31 878.829 Q1357.04 878.829 1354.71 877.668 Q1352.42 876.507 1350.96 873.715 Q1348.69 869.54 1348.69 861.536 M1352.88 860.919 Q1352.88 868.552 1353.43 871.591 Q1354.05 874.876 1355.73 876.309 Q1357.43 877.717 1359.31 877.717 Q1361.33 877.717 1363.01 876.21 Q1364.72 874.678 1365.24 871.393 Q1365.8 868.157 1365.78 860.919 Q1365.78 853.878 1365.29 851.062 Q1364.62 847.777 1362.84 846.467 Q1361.09 845.133 1359.31 845.133 Q1358.64 845.133 1357.92 845.331 Q1357.23 845.529 1356.22 846.097 Q1355.21 846.665 1354.42 848.073 Q1353.65 849.481 1353.28 851.606 Q1352.88 854.348 1352.88 860.919 Z" fill="#000000" fill-rule="nonzero" fill-opacity="1" /><path clip-path="url(#clip550)" d="M1373.98 861.536 Q1373.98 854.101 1375.86 850.049 Q1378.48 844.022 1384.65 844.022 Q1385.96 844.022 1387.32 844.392 Q1388.7 844.738 1390.43 846.097 Q1392.19 847.455 1393.25 849.679 Q1395.28 853.977 1395.28 861.536 Q1395.28 868.923 1393.4 872.949 Q1390.66 878.829 1384.6 878.829 Q1382.33 878.829 1380.01 877.668 Q1377.71 876.507 1376.25 873.715 Q1373.98 869.54 1373.98 861.536 M1378.18 860.919 Q1378.18 868.552 1378.72 871.591 Q1379.34 874.876 1381.02 876.309 Q1382.73 877.717 1384.6 877.717 Q1386.63 877.717 1388.31 876.21 Q1390.01 874.678 1390.53 871.393 Q1391.1 868.157 1391.08 860.919 Q1391.08 853.878 1390.58 851.062 Q1389.92 847.777 1388.14 846.467 Q1386.38 845.133 1384.6 845.133 Q1383.94 845.133 1383.22 845.331 Q1382.53 845.529 1381.52 846.097 Q1380.5 846.665 1379.71 848.073 Q1378.95 849.481 1378.58 851.606 Q1378.18 854.348 1378.18 860.919 Z" fill="#000000" fill-rule="nonzero" fill-opacity="1" /><path clip-path="url(#clip550)" d="M540.996 921.727 L542.321 906.103 L584.814 906.103 L586.139 921.727 L584.406 921.727 Q584.135 918.602 583.863 916.802 Q583.625 915.002 583.014 913.304 Q582.436 911.571 581.689 910.756 Q580.976 909.907 579.583 909.262 Q578.19 908.582 576.39 908.412 Q574.59 908.242 571.873 908.242 Q568.68 908.242 567.898 908.378 Q567.049 908.582 566.845 909.194 Q566.642 909.771 566.642 911.028 L566.642 947.678 Q566.642 949.071 566.913 949.648 Q567.219 950.192 568.816 950.633 Q570.412 951.041 573.945 951.041 L576.73 951.041 L576.73 953.181 Q573.877 952.977 563.517 952.977 Q553.225 952.977 550.371 953.181 L550.371 951.041 L553.157 951.041 Q556.689 951.041 558.286 950.633 Q559.916 950.192 560.188 949.648 Q560.46 949.071 560.46 947.678 L560.46 911.028 Q560.46 910.043 560.392 909.635 Q560.324 909.228 560.018 908.888 Q559.712 908.514 558.999 908.378 Q558.32 908.242 555.263 908.242 Q552.545 908.242 550.711 908.412 Q548.911 908.582 547.518 909.262 Q546.126 909.907 545.378 910.756 Q544.665 911.571 544.054 913.304 Q543.476 915.002 543.238 916.802 Q543.001 918.602 542.729 921.727 L540.996 921.727 Z" fill="#000000" fill-rule="nonzero" fill-opacity="1" /><path clip-path="url(#clip550)" d="M584.848 953.181 L584.848 951.041 Q588.55 951.041 589.4 950.599 Q590.283 950.124 590.283 947.882 L590.283 929.234 Q590.283 926.653 589.366 926.007 Q588.483 925.362 584.848 925.362 L584.848 923.188 L594.529 922.441 L594.529 930.083 Q595.514 927.094 597.586 924.784 Q599.692 922.441 603.088 922.441 Q605.33 922.441 606.757 923.698 Q608.217 924.954 608.217 926.687 Q608.217 928.215 607.266 928.996 Q606.349 929.744 605.228 929.744 Q603.972 929.744 603.088 928.962 Q602.239 928.147 602.239 926.755 Q602.239 925.905 602.613 925.26 Q603.02 924.581 603.326 924.343 Q603.632 924.105 603.836 924.037 Q603.7 923.969 603.088 923.969 Q599.25 923.969 597.042 927.808 Q594.868 931.612 594.868 937.047 L594.868 947.746 Q594.868 949.75 595.684 950.396 Q596.533 951.041 600.167 951.041 L601.628 951.041 L601.628 953.181 Q598.842 952.977 592.796 952.977 Q591.947 952.977 590.622 953.011 Q589.298 953.045 587.565 953.113 Q585.833 953.181 584.848 953.181 Z" fill="#000000" fill-rule="nonzero" fill-opacity="1" /><path clip-path="url(#clip550)" d="M613.007 946.557 Q613.007 940.647 619.97 937.522 Q624.148 935.518 632.776 935.009 L632.776 932.461 Q632.776 928.147 630.5 925.871 Q628.258 923.562 625.405 923.562 Q620.31 923.562 617.864 926.755 Q619.936 926.823 620.683 927.875 Q621.431 928.894 621.431 929.947 Q621.431 931.34 620.547 932.257 Q619.698 933.14 618.238 933.14 Q616.845 933.14 615.928 932.291 Q615.011 931.408 615.011 929.88 Q615.011 926.483 618.068 924.241 Q621.159 921.999 625.541 921.999 Q631.247 921.999 635.051 925.837 Q636.24 927.026 636.818 928.555 Q637.429 930.083 637.497 931.102 Q637.565 932.087 637.565 934.057 L637.565 947.95 Q637.565 948.358 637.701 949.037 Q637.837 949.716 638.448 950.599 Q639.094 951.449 640.147 951.449 Q642.66 951.449 642.626 946.999 L642.626 943.093 L644.392 943.093 L644.392 946.999 Q644.392 950.701 642.422 952.162 Q640.486 953.589 638.686 953.589 Q636.376 953.589 634.916 951.89 Q633.455 950.192 633.251 947.882 Q632.198 950.532 629.787 952.264 Q627.409 953.962 624.148 953.962 Q621.634 953.962 619.257 953.317 Q616.913 952.705 614.943 950.973 Q613.007 949.207 613.007 946.557 M618.374 946.489 Q618.374 949.071 620.208 950.735 Q622.042 952.4 624.624 952.4 Q627.545 952.4 630.16 950.158 Q632.776 947.882 632.776 943.432 L632.776 936.469 Q625.065 936.741 621.702 939.832 Q618.374 942.889 618.374 946.489 Z" fill="#000000" fill-rule="nonzero" fill-opacity="1" /><path clip-path="url(#clip550)" d="M647.178 953.181 L647.178 951.041 Q650.88 951.041 651.729 950.599 Q652.578 950.124 652.578 947.882 L652.578 929.166 Q652.578 926.585 651.695 925.973 Q650.846 925.362 647.449 925.362 L647.449 923.188 L657.164 922.441 L657.164 947.95 Q657.164 950.022 657.911 950.532 Q658.659 951.041 662.055 951.041 L662.055 953.181 Q654.956 952.977 654.82 952.977 Q653.869 952.977 647.178 953.181 M650.099 910.314 Q650.099 908.922 651.152 907.801 Q652.239 906.646 653.767 906.646 Q655.296 906.646 656.383 907.699 Q657.47 908.718 657.47 910.348 Q657.47 911.945 656.383 912.998 Q655.296 914.017 653.767 914.017 Q652.171 914.017 651.118 912.896 Q650.099 911.775 650.099 910.314 Z" fill="#000000" fill-rule="nonzero" fill-opacity="1" /><path clip-path="url(#clip550)" d="M666.369 953.181 L666.369 951.041 Q670.072 951.041 670.921 950.599 Q671.77 950.124 671.77 947.882 L671.77 929.234 Q671.77 926.653 670.853 926.007 Q669.97 925.362 666.369 925.362 L666.369 923.188 L676.152 922.441 L676.152 929.744 Q679.412 922.441 686.444 922.441 Q691.675 922.441 693.747 925.022 Q695.275 926.755 695.581 928.691 Q695.921 930.627 695.921 935.654 L695.921 948.935 Q695.988 950.396 697.109 950.735 Q698.23 951.041 701.355 951.041 L701.355 953.181 Q694.256 952.977 693.543 952.977 Q692.999 952.977 685.696 953.181 L685.696 951.041 Q689.399 951.041 690.248 950.599 Q691.131 950.124 691.131 947.882 L691.131 931.68 Q691.131 928.147 690.044 926.075 Q688.957 923.969 685.968 923.969 Q682.368 923.969 679.48 926.992 Q676.593 930.015 676.593 935.11 L676.593 947.882 Q676.593 950.124 677.442 950.599 Q678.326 951.041 681.994 951.041 L681.994 953.181 Q674.895 952.977 674.216 952.977 Q673.672 952.977 666.369 953.181 Z" fill="#000000" fill-rule="nonzero" fill-opacity="1" /><path clip-path="url(#clip550)" d="M705.024 953.181 L705.024 951.041 Q708.726 951.041 709.575 950.599 Q710.424 950.124 710.424 947.882 L710.424 929.166 Q710.424 926.585 709.541 925.973 Q708.692 925.362 705.295 925.362 L705.295 923.188 L715.01 922.441 L715.01 947.95 Q715.01 950.022 715.757 950.532 Q716.505 951.041 719.901 951.041 L719.901 953.181 Q712.802 952.977 712.666 952.977 Q711.715 952.977 705.024 953.181 M707.945 910.314 Q707.945 908.922 708.998 907.801 Q710.085 906.646 711.613 906.646 Q713.142 906.646 714.229 907.699 Q715.316 908.718 715.316 910.348 Q715.316 911.945 714.229 912.998 Q713.142 914.017 711.613 914.017 Q710.017 914.017 708.964 912.896 Q707.945 911.775 707.945 910.314 Z" fill="#000000" fill-rule="nonzero" fill-opacity="1" /><path clip-path="url(#clip550)" d="M724.215 953.181 L724.215 951.041 Q727.918 951.041 728.767 950.599 Q729.616 950.124 729.616 947.882 L729.616 929.234 Q729.616 926.653 728.699 926.007 Q727.816 925.362 724.215 925.362 L724.215 923.188 L733.998 922.441 L733.998 929.744 Q737.258 922.441 744.29 922.441 Q749.521 922.441 751.593 925.022 Q753.121 926.755 753.427 928.691 Q753.767 930.627 753.767 935.654 L753.767 948.935 Q753.834 950.396 754.955 950.735 Q756.076 951.041 759.201 951.041 L759.201 953.181 Q752.102 952.977 751.389 952.977 Q750.845 952.977 743.542 953.181 L743.542 951.041 Q747.245 951.041 748.094 950.599 Q748.977 950.124 748.977 947.882 L748.977 931.68 Q748.977 928.147 747.89 926.075 Q746.803 923.969 743.814 923.969 Q740.214 923.969 737.326 926.992 Q734.439 930.015 734.439 935.11 L734.439 947.882 Q734.439 950.124 735.288 950.599 Q736.172 951.041 739.84 951.041 L739.84 953.181 Q732.741 952.977 732.062 952.977 Q731.518 952.977 724.215 953.181 Z" fill="#000000" fill-rule="nonzero" fill-opacity="1" /><path clip-path="url(#clip550)" d="M762.496 958.684 Q762.496 956.442 764.194 954.506 Q765.927 952.57 768.916 951.72 Q765.859 949.784 765.859 945.538 Q765.859 942.278 767.999 939.764 Q764.738 937.047 764.738 932.597 Q764.738 928.487 767.999 925.464 Q771.26 922.441 776.015 922.441 Q780.193 922.441 783.386 924.954 Q786.715 921.693 790.757 921.659 Q792.557 921.659 793.406 922.78 Q794.289 923.901 794.289 925.09 Q794.289 926.143 793.61 926.653 Q792.965 927.162 792.285 927.162 Q791.436 927.162 790.825 926.619 Q790.247 926.041 790.247 925.158 Q790.247 923.698 791.368 923.256 Q791.164 923.188 790.689 923.188 Q787.292 923.188 784.405 925.905 Q787.258 928.555 787.258 932.665 Q787.258 936.775 783.997 939.798 Q780.736 942.821 776.015 942.821 Q772.109 942.821 769.12 940.647 Q767.931 942.04 767.931 943.942 Q767.931 945.674 768.984 947.033 Q770.037 948.392 771.633 948.595 Q772.109 948.663 776.83 948.663 Q779.615 948.663 781.144 948.731 Q782.673 948.799 784.846 949.275 Q787.054 949.716 788.787 950.599 Q793.304 953.113 793.338 958.548 Q793.338 962.522 788.753 965.002 Q784.201 967.515 777.883 967.515 Q771.497 967.515 766.98 964.968 Q762.496 962.454 762.496 958.684 M766.131 958.684 Q766.131 961.537 769.493 963.711 Q772.856 965.919 777.951 965.919 Q782.944 965.919 786.307 963.745 Q789.704 961.605 789.704 958.684 Q789.704 956.612 788.515 955.287 Q787.326 953.962 784.88 953.419 Q782.469 952.909 780.77 952.807 Q779.072 952.705 775.947 952.705 L771.837 952.705 Q769.459 952.841 767.795 954.574 Q766.131 956.306 766.131 958.684 M769.935 932.665 Q769.935 941.225 776.015 941.225 Q779.072 941.225 780.94 938.439 Q782.061 936.571 782.061 932.597 Q782.061 924.037 776.015 924.037 Q772.958 924.037 771.056 926.823 Q769.935 928.691 769.935 932.665 Z" fill="#000000" fill-rule="nonzero" fill-opacity="1" /><path clip-path="url(#clip550)" d="M820.41 937.862 Q820.41 931.306 824.622 926.653 Q828.834 921.999 834.88 921.999 Q840.994 921.999 844.153 925.973 Q847.346 929.947 847.346 935.654 Q847.346 936.707 847.074 936.911 Q846.802 937.115 845.614 937.115 L826.184 937.115 Q826.184 944.214 828.29 947.542 Q831.212 952.196 836.137 952.196 Q836.816 952.196 837.631 952.06 Q838.447 951.924 840.111 951.347 Q841.775 950.735 843.236 949.139 Q844.696 947.542 845.546 945.029 Q845.749 944.044 846.429 944.078 Q847.346 944.078 847.346 944.893 Q847.346 945.504 846.667 946.897 Q846.021 948.256 844.764 949.886 Q843.508 951.517 841.062 952.739 Q838.65 953.962 835.729 953.962 Q829.615 953.962 824.996 949.343 Q820.41 944.689 820.41 937.862 M826.252 935.654 L842.76 935.654 Q842.76 934.193 842.489 932.563 Q842.251 930.933 841.504 928.691 Q840.79 926.415 839.092 924.988 Q837.394 923.562 834.88 923.562 Q833.759 923.562 832.536 924.037 Q831.347 924.513 829.887 925.668 Q828.426 926.823 827.407 929.438 Q826.388 932.053 826.252 935.654 Z" fill="#000000" fill-rule="nonzero" fill-opacity="1" /><path clip-path="url(#clip550)" d="M851.286 964.526 Q854.989 964.526 855.838 964.05 Q856.721 963.609 856.721 961.401 L856.721 928.827 Q856.721 926.517 855.838 925.939 Q854.989 925.362 851.286 925.362 L851.286 923.188 L861.306 922.441 L861.306 927.026 Q865.484 922.441 871.055 922.441 Q876.965 922.441 881.279 927.026 Q885.593 931.612 885.593 938.168 Q885.593 944.791 881.007 949.377 Q876.422 953.962 870.07 953.962 Q866.605 953.962 864.262 952.196 Q861.952 950.396 861.51 949.071 L861.51 949.716 L861.51 961.401 Q861.51 963.643 862.393 964.084 Q863.277 964.526 866.945 964.526 L866.945 966.666 Q859.642 966.462 859.099 966.462 Q858.419 966.462 851.286 966.666 L851.286 964.526 M861.51 945.267 Q861.51 946.32 861.646 946.693 Q861.816 947.067 862.495 948.188 Q865.247 952.4 869.73 952.4 Q869.764 952.4 869.798 952.4 Q873.772 952.4 876.795 948.358 Q879.818 944.282 879.818 938.168 Q879.818 932.325 877.067 928.249 Q874.316 924.173 870.512 924.173 Q867.794 924.173 865.416 925.634 Q863.039 927.094 861.51 929.744 L861.51 945.267 Z" fill="#000000" fill-rule="nonzero" fill-opacity="1" /><path clip-path="url(#clip550)" d="M890.246 953.181 L890.246 951.041 Q893.949 951.041 894.798 950.599 Q895.647 950.124 895.647 947.882 L895.647 929.166 Q895.647 926.585 894.764 925.973 Q893.915 925.362 890.518 925.362 L890.518 923.188 L900.233 922.441 L900.233 947.95 Q900.233 950.022 900.98 950.532 Q901.727 951.041 905.124 951.041 L905.124 953.181 Q898.025 952.977 897.889 952.977 Q896.938 952.977 890.246 953.181 M893.168 910.314 Q893.168 908.922 894.221 907.801 Q895.308 906.646 896.836 906.646 Q898.365 906.646 899.451 907.699 Q900.538 908.718 900.538 910.348 Q900.538 911.945 899.451 912.998 Q898.365 914.017 896.836 914.017 Q895.24 914.017 894.187 912.896 Q893.168 911.775 893.168 910.314 Z" fill="#000000" fill-rule="nonzero" fill-opacity="1" /><path clip-path="url(#clip550)" d="M909.506 952.264 L909.506 943.093 Q909.506 942.312 909.54 942.04 Q909.574 941.768 909.777 941.564 Q909.981 941.36 910.389 941.36 Q910.864 941.36 911.034 941.564 Q911.238 941.768 911.374 942.549 Q912.427 947.339 914.669 949.886 Q916.945 952.4 921.055 952.4 Q924.961 952.4 926.931 950.667 Q928.901 948.935 928.901 946.082 Q928.901 940.987 921.666 939.696 Q917.488 938.847 915.756 938.303 Q914.023 937.726 912.495 936.469 Q909.506 934.024 909.506 930.559 Q909.506 927.094 912.121 924.547 Q914.771 921.999 920.613 921.999 Q924.519 921.999 927.169 923.969 Q927.95 923.358 928.358 922.848 Q929.275 921.999 929.75 921.999 Q930.294 921.999 930.396 922.373 Q930.497 922.712 930.497 923.698 L930.497 930.695 Q930.497 931.476 930.463 931.748 Q930.43 932.019 930.226 932.223 Q930.022 932.393 929.58 932.393 Q928.799 932.393 928.765 931.748 Q928.222 923.324 920.613 923.324 Q916.503 923.324 914.669 924.92 Q912.835 926.483 912.835 928.623 Q912.835 929.812 913.378 930.729 Q913.955 931.612 914.669 932.155 Q915.416 932.665 916.775 933.174 Q918.133 933.65 918.949 933.82 Q919.798 933.99 921.394 934.329 Q926.965 935.382 929.309 937.658 Q932.23 940.579 932.23 944.282 Q932.23 948.392 929.444 951.177 Q926.659 953.962 921.055 953.962 Q916.537 953.962 913.378 950.939 Q912.97 951.347 912.665 951.72 Q912.359 952.06 912.223 952.196 Q912.121 952.332 912.087 952.434 Q912.053 952.502 911.985 952.57 Q910.593 953.962 910.253 953.962 Q909.71 953.962 909.608 953.589 Q909.506 953.249 909.506 952.264 Z" fill="#000000" fill-rule="nonzero" fill-opacity="1" /><path clip-path="url(#clip550)" d="M941.095 949.445 Q936.51 944.893 936.51 938.303 Q936.51 931.68 940.993 926.856 Q945.511 921.999 951.965 921.999 Q958.283 921.999 962.8 926.823 Q967.352 931.612 967.352 938.303 Q967.352 944.859 962.766 949.411 Q958.215 953.962 951.897 953.962 Q945.715 953.962 941.095 949.445 M942.284 937.726 Q942.284 944.485 944.05 947.542 Q946.768 952.196 951.965 952.196 Q954.546 952.196 956.686 950.803 Q958.86 949.411 960.049 947.067 Q961.577 944.01 961.577 937.726 Q961.577 931.034 959.743 928.079 Q957.026 923.562 951.897 923.562 Q949.655 923.562 947.447 924.751 Q945.273 925.905 943.948 928.215 Q942.284 931.272 942.284 937.726 Z" fill="#000000" fill-rule="nonzero" fill-opacity="1" /><path clip-path="url(#clip550)" d="M973.67 938.235 Q973.67 931.612 978.289 927.026 Q982.909 922.441 989.159 922.441 Q994.458 922.441 997.922 926.755 L997.922 911.707 Q997.922 909.126 997.005 908.48 Q996.122 907.835 992.521 907.835 L992.521 905.661 L1002.54 904.914 L1002.54 947.135 Q1002.54 949.716 1003.42 950.396 Q1004.34 951.041 1007.94 951.041 L1007.94 953.181 L997.718 953.962 L997.718 949.343 Q994.118 953.928 988.411 953.962 Q982.433 953.962 978.051 949.377 Q973.67 944.791 973.67 938.235 M979.444 938.303 Q979.444 944.757 981.448 947.95 Q984.233 952.4 988.751 952.4 Q993.914 952.4 996.971 947.542 Q997.752 946.354 997.718 944.961 L997.718 930.695 Q997.718 929.302 996.971 928.147 Q994.118 923.969 989.464 923.969 Q984.607 923.969 981.584 928.419 Q979.444 931.748 979.444 938.303 Z" fill="#000000" fill-rule="nonzero" fill-opacity="1" /><path clip-path="url(#clip550)" d="M1011.81 937.862 Q1011.81 931.306 1016.03 926.653 Q1020.24 921.999 1026.28 921.999 Q1032.4 921.999 1035.56 925.973 Q1038.75 929.947 1038.75 935.654 Q1038.75 936.707 1038.48 936.911 Q1038.21 937.115 1037.02 937.115 L1017.59 937.115 Q1017.59 944.214 1019.7 947.542 Q1022.62 952.196 1027.54 952.196 Q1028.22 952.196 1029.04 952.06 Q1029.85 951.924 1031.52 951.347 Q1033.18 950.735 1034.64 949.139 Q1036.1 947.542 1036.95 945.029 Q1037.15 944.044 1037.83 944.078 Q1038.75 944.078 1038.75 944.893 Q1038.75 945.504 1038.07 946.897 Q1037.43 948.256 1036.17 949.886 Q1034.91 951.517 1032.47 952.739 Q1030.06 953.962 1027.13 953.962 Q1021.02 953.962 1016.4 949.343 Q1011.81 944.689 1011.81 937.862 M1017.66 935.654 L1034.17 935.654 Q1034.17 934.193 1033.89 932.563 Q1033.66 930.933 1032.91 928.691 Q1032.19 926.415 1030.5 924.988 Q1028.8 923.562 1026.28 923.562 Q1025.16 923.562 1023.94 924.037 Q1022.75 924.513 1021.29 925.668 Q1019.83 926.823 1018.81 929.438 Q1017.79 932.053 1017.66 935.654 Z" fill="#000000" fill-rule="nonzero" fill-opacity="1" /><path clip-path="url(#clip550)" d="M1043.06 952.264 L1043.06 943.093 Q1043.06 942.312 1043.1 942.04 Q1043.13 941.768 1043.34 941.564 Q1043.54 941.36 1043.95 941.36 Q1044.42 941.36 1044.59 941.564 Q1044.8 941.768 1044.93 942.549 Q1045.99 947.339 1048.23 949.886 Q1050.5 952.4 1054.61 952.4 Q1058.52 952.4 1060.49 950.667 Q1062.46 948.935 1062.46 946.082 Q1062.46 940.987 1055.22 939.696 Q1051.05 938.847 1049.31 938.303 Q1047.58 937.726 1046.05 936.469 Q1043.06 934.024 1043.06 930.559 Q1043.06 927.094 1045.68 924.547 Q1048.33 921.999 1054.17 921.999 Q1058.08 921.999 1060.73 923.969 Q1061.51 923.358 1061.92 922.848 Q1062.83 921.999 1063.31 921.999 Q1063.85 921.999 1063.95 922.373 Q1064.06 922.712 1064.06 923.698 L1064.06 930.695 Q1064.06 931.476 1064.02 931.748 Q1063.99 932.019 1063.78 932.223 Q1063.58 932.393 1063.14 932.393 Q1062.36 932.393 1062.32 931.748 Q1061.78 923.324 1054.17 923.324 Q1050.06 923.324 1048.23 924.92 Q1046.39 926.483 1046.39 928.623 Q1046.39 929.812 1046.94 930.729 Q1047.51 931.612 1048.23 932.155 Q1048.97 932.665 1050.33 933.174 Q1051.69 933.65 1052.51 933.82 Q1053.36 933.99 1054.95 934.329 Q1060.52 935.382 1062.87 937.658 Q1065.79 940.579 1065.79 944.282 Q1065.79 948.392 1063 951.177 Q1060.22 953.962 1054.61 953.962 Q1050.1 953.962 1046.94 950.939 Q1046.53 951.347 1046.22 951.72 Q1045.92 952.06 1045.78 952.196 Q1045.68 952.332 1045.65 952.434 Q1045.61 952.502 1045.54 952.57 Q1044.15 953.962 1043.81 953.962 Q1043.27 953.962 1043.17 953.589 Q1043.06 953.249 1043.06 952.264 Z" fill="#000000" fill-rule="nonzero" fill-opacity="1" /><polyline clip-path="url(#clip552)" style="stroke:#000000; stroke-linecap:round; stroke-linejoin:round; stroke-width:2; stroke-opacity:0.1; fill:none" points="254.029,735.999 1352.76,735.999 "/>
<polyline clip-path="url(#clip552)" style="stroke:#000000; stroke-linecap:round; stroke-linejoin:round; stroke-width:2; stroke-opacity:0.1; fill:none" points="254.029,643.108 1352.76,643.108 "/>
<polyline clip-path="url(#clip552)" style="stroke:#000000; stroke-linecap:round; stroke-linejoin:round; stroke-width:2; stroke-opacity:0.1; fill:none" points="254.029,550.216 1352.76,550.216 "/>
<polyline clip-path="url(#clip552)" style="stroke:#000000; stroke-linecap:round; stroke-linejoin:round; stroke-width:2; stroke-opacity:0.1; fill:none" points="254.029,457.325 1352.76,457.325 "/>
<polyline clip-path="url(#clip552)" style="stroke:#000000; stroke-linecap:round; stroke-linejoin:round; stroke-width:2; stroke-opacity:0.1; fill:none" points="254.029,364.434 1352.76,364.434 "/>
<polyline clip-path="url(#clip552)" style="stroke:#000000; stroke-linecap:round; stroke-linejoin:round; stroke-width:2; stroke-opacity:0.1; fill:none" points="254.029,271.542 1352.76,271.542 "/>
<polyline clip-path="url(#clip552)" style="stroke:#000000; stroke-linecap:round; stroke-linejoin:round; stroke-width:2; stroke-opacity:0.1; fill:none" points="254.029,178.651 1352.76,178.651 "/>
<polyline clip-path="url(#clip550)" style="stroke:#000000; stroke-linecap:round; stroke-linejoin:round; stroke-width:4; stroke-opacity:1; fill:none" points="254.029,823.317 254.029,176.793 "/>
<polyline clip-path="url(#clip550)" style="stroke:#000000; stroke-linecap:round; stroke-linejoin:round; stroke-width:4; stroke-opacity:1; fill:none" points="254.029,735.999 272.927,735.999 "/>
<polyline clip-path="url(#clip550)" style="stroke:#000000; stroke-linecap:round; stroke-linejoin:round; stroke-width:4; stroke-opacity:1; fill:none" points="254.029,643.108 272.927,643.108 "/>
<polyline clip-path="url(#clip550)" style="stroke:#000000; stroke-linecap:round; stroke-linejoin:round; stroke-width:4; stroke-opacity:1; fill:none" points="254.029,550.216 272.927,550.216 "/>
<polyline clip-path="url(#clip550)" style="stroke:#000000; stroke-linecap:round; stroke-linejoin:round; stroke-width:4; stroke-opacity:1; fill:none" points="254.029,457.325 272.927,457.325 "/>
<polyline clip-path="url(#clip550)" style="stroke:#000000; stroke-linecap:round; stroke-linejoin:round; stroke-width:4; stroke-opacity:1; fill:none" points="254.029,364.434 272.927,364.434 "/>
<polyline clip-path="url(#clip550)" style="stroke:#000000; stroke-linecap:round; stroke-linejoin:round; stroke-width:4; stroke-opacity:1; fill:none" points="254.029,271.542 272.927,271.542 "/>
<polyline clip-path="url(#clip550)" style="stroke:#000000; stroke-linecap:round; stroke-linejoin:round; stroke-width:4; stroke-opacity:1; fill:none" points="254.029,178.651 272.927,178.651 "/>
<path clip-path="url(#clip550)" d="M156.053 739.915 Q156.35 740.211 156.35 740.631 Q156.35 741.051 156.053 741.347 Q155.757 741.644 155.337 741.644 L123.667 741.644 Q123.247 741.644 122.951 741.347 Q122.654 741.051 122.654 740.631 Q122.654 740.211 122.951 739.915 Q123.247 739.618 123.667 739.618 L155.337 739.618 Q155.757 739.618 156.053 739.915 Z" fill="#000000" fill-rule="nonzero" fill-opacity="1" /><path clip-path="url(#clip550)" d="M161.29 737.296 Q161.29 729.342 165.342 724.475 Q169.393 719.584 174.606 719.584 Q177.644 719.584 179.324 721.14 Q181.028 722.672 181.028 725.043 Q181.028 726.352 180.263 726.921 Q179.497 727.489 178.706 727.489 Q177.792 727.489 177.076 726.871 Q176.36 726.254 176.36 725.142 Q176.36 722.869 179.151 722.869 Q177.842 720.844 174.704 720.844 Q173.741 720.844 172.753 721.14 Q171.765 721.412 170.48 722.351 Q169.196 723.289 168.207 724.771 Q167.219 726.254 166.528 729.045 Q165.836 731.837 165.836 735.468 L165.836 736.678 Q167.911 731.664 172.16 731.688 Q176.409 731.688 179.349 734.925 Q182.288 738.161 182.288 742.953 Q182.288 747.869 179.225 751.13 Q176.162 754.391 171.864 754.391 Q169.937 754.391 168.183 753.576 Q166.453 752.785 164.823 750.957 Q163.217 749.129 162.254 745.621 Q161.29 742.113 161.29 737.296 M165.935 741.841 Q165.935 746.807 166.849 749.178 Q166.997 749.574 167.318 750.117 Q167.664 750.661 168.232 751.377 Q168.825 752.069 169.788 752.538 Q170.752 752.983 171.864 752.983 Q175.248 752.983 176.878 749.697 Q177.743 747.869 177.743 742.904 Q177.743 737.84 176.829 735.987 Q175.273 732.849 172.111 732.849 Q169.986 732.849 168.504 734.307 Q167.046 735.764 166.478 737.716 Q165.935 739.668 165.935 741.841 Z" fill="#000000" fill-rule="nonzero" fill-opacity="1" /><path clip-path="url(#clip550)" d="M186.439 737.098 Q186.439 729.663 188.316 725.611 Q190.935 719.584 197.11 719.584 Q198.42 719.584 199.778 719.954 Q201.162 720.3 202.891 721.659 Q204.645 723.018 205.707 725.241 Q207.733 729.539 207.733 737.098 Q207.733 744.485 205.855 748.511 Q203.113 754.391 197.061 754.391 Q194.788 754.391 192.466 753.23 Q190.169 752.069 188.711 749.277 Q186.439 745.102 186.439 737.098 M190.638 736.481 Q190.638 744.114 191.182 747.153 Q191.799 750.438 193.479 751.871 Q195.184 753.279 197.061 753.279 Q199.087 753.279 200.766 751.772 Q202.471 750.241 202.99 746.955 Q203.558 743.719 203.533 736.481 Q203.533 729.44 203.039 726.624 Q202.372 723.339 200.594 722.029 Q198.84 720.695 197.061 720.695 Q196.394 720.695 195.678 720.893 Q194.986 721.091 193.973 721.659 Q192.96 722.227 192.17 723.635 Q191.404 725.043 191.033 727.168 Q190.638 729.91 190.638 736.481 Z" fill="#000000" fill-rule="nonzero" fill-opacity="1" /><path clip-path="url(#clip550)" d="M211.735 737.098 Q211.735 729.663 213.612 725.611 Q216.231 719.584 222.407 719.584 Q223.716 719.584 225.075 719.954 Q226.458 720.3 228.187 721.659 Q229.941 723.018 231.003 725.241 Q233.029 729.539 233.029 737.098 Q233.029 744.485 231.152 748.511 Q228.41 754.391 222.357 754.391 Q220.084 754.391 217.762 753.23 Q215.465 752.069 214.007 749.277 Q211.735 745.102 211.735 737.098 M215.934 736.481 Q215.934 744.114 216.478 747.153 Q217.095 750.438 218.775 751.871 Q220.48 753.279 222.357 753.279 Q224.383 753.279 226.063 751.772 Q227.767 750.241 228.286 746.955 Q228.854 743.719 228.829 736.481 Q228.829 729.44 228.335 726.624 Q227.668 723.339 225.89 722.029 Q224.136 720.695 222.357 720.695 Q221.69 720.695 220.974 720.893 Q220.282 721.091 219.269 721.659 Q218.256 722.227 217.466 723.635 Q216.7 725.043 216.33 727.168 Q215.934 729.91 215.934 736.481 Z" fill="#000000" fill-rule="nonzero" fill-opacity="1" /><path clip-path="url(#clip550)" d="M156.053 647.023 Q156.35 647.32 156.35 647.74 Q156.35 648.16 156.053 648.456 Q155.757 648.752 155.337 648.752 L123.667 648.752 Q123.247 648.752 122.951 648.456 Q122.654 648.16 122.654 647.74 Q122.654 647.32 122.951 647.023 Q123.247 646.727 123.667 646.727 L155.337 646.727 Q155.757 646.727 156.053 647.023 Z" fill="#000000" fill-rule="nonzero" fill-opacity="1" /><path clip-path="url(#clip550)" d="M161.686 652.236 Q161.686 650.729 162.501 650.161 Q163.316 649.568 164.181 649.568 Q165.342 649.568 166.009 650.309 Q166.701 651.025 166.701 652.038 Q166.701 653.051 166.009 653.792 Q165.342 654.508 164.181 654.508 Q163.613 654.508 163.316 654.41 Q163.983 656.732 166.009 658.411 Q168.059 660.091 170.752 660.091 Q174.136 660.091 176.162 656.806 Q177.372 654.681 177.372 649.864 Q177.372 645.615 176.458 643.491 Q175.05 640.255 172.16 640.255 Q168.059 640.255 165.638 643.787 Q165.342 644.232 164.996 644.256 Q164.502 644.256 164.378 643.985 Q164.28 643.688 164.28 642.922 L164.28 627.952 Q164.28 626.742 164.774 626.742 Q164.971 626.742 165.391 626.89 Q168.578 628.298 172.111 628.323 Q175.742 628.323 179.003 626.841 Q179.25 626.692 179.398 626.692 Q179.892 626.692 179.917 627.261 Q179.917 627.458 179.497 628.051 Q179.102 628.619 178.237 629.385 Q177.372 630.126 176.261 630.843 Q175.149 631.559 173.519 632.053 Q171.913 632.522 170.134 632.522 Q168.01 632.522 165.836 631.855 L165.836 641.712 Q168.454 639.143 172.259 639.143 Q176.31 639.143 179.102 642.404 Q181.893 645.665 181.893 650.21 Q181.893 654.978 178.583 658.239 Q175.297 661.499 170.851 661.499 Q166.799 661.499 164.23 658.609 Q161.686 655.719 161.686 652.236 Z" fill="#000000" fill-rule="nonzero" fill-opacity="1" /><path clip-path="url(#clip550)" d="M186.982 652.236 Q186.982 650.729 187.797 650.161 Q188.612 649.568 189.477 649.568 Q190.638 649.568 191.305 650.309 Q191.997 651.025 191.997 652.038 Q191.997 653.051 191.305 653.792 Q190.638 654.508 189.477 654.508 Q188.909 654.508 188.612 654.41 Q189.279 656.732 191.305 658.411 Q193.355 660.091 196.048 660.091 Q199.432 660.091 201.458 656.806 Q202.669 654.681 202.669 649.864 Q202.669 645.615 201.755 643.491 Q200.347 640.255 197.456 640.255 Q193.355 640.255 190.935 643.787 Q190.638 644.232 190.292 644.256 Q189.798 644.256 189.675 643.985 Q189.576 643.688 189.576 642.922 L189.576 627.952 Q189.576 626.742 190.07 626.742 Q190.268 626.742 190.687 626.89 Q193.874 628.298 197.407 628.323 Q201.038 628.323 204.299 626.841 Q204.546 626.692 204.694 626.692 Q205.188 626.692 205.213 627.261 Q205.213 627.458 204.793 628.051 Q204.398 628.619 203.533 629.385 Q202.669 630.126 201.557 630.843 Q200.445 631.559 198.815 632.053 Q197.209 632.522 195.431 632.522 Q193.306 632.522 191.132 631.855 L191.132 641.712 Q193.751 639.143 197.555 639.143 Q201.606 639.143 204.398 642.404 Q207.189 645.665 207.189 650.21 Q207.189 654.978 203.879 658.239 Q200.594 661.499 196.147 661.499 Q192.096 661.499 189.526 658.609 Q186.982 655.719 186.982 652.236 Z" fill="#000000" fill-rule="nonzero" fill-opacity="1" /><path clip-path="url(#clip550)" d="M211.735 644.207 Q211.735 636.771 213.612 632.72 Q216.231 626.692 222.407 626.692 Q223.716 626.692 225.075 627.063 Q226.458 627.409 228.187 628.767 Q229.941 630.126 231.003 632.349 Q233.029 636.648 233.029 644.207 Q233.029 651.593 231.152 655.62 Q228.41 661.499 222.357 661.499 Q220.084 661.499 217.762 660.338 Q215.465 659.177 214.007 656.386 Q211.735 652.211 211.735 644.207 M215.934 643.589 Q215.934 651.223 216.478 654.261 Q217.095 657.547 218.775 658.98 Q220.48 660.388 222.357 660.388 Q224.383 660.388 226.063 658.881 Q227.767 657.349 228.286 654.064 Q228.854 650.828 228.829 643.589 Q228.829 636.549 228.335 633.733 Q227.668 630.447 225.89 629.138 Q224.136 627.804 222.357 627.804 Q221.69 627.804 220.974 628.002 Q220.282 628.199 219.269 628.767 Q218.256 629.336 217.466 630.744 Q216.7 632.152 216.33 634.276 Q215.934 637.018 215.934 643.589 Z" fill="#000000" fill-rule="nonzero" fill-opacity="1" /><path clip-path="url(#clip550)" d="M156.053 554.132 Q156.35 554.428 156.35 554.848 Q156.35 555.268 156.053 555.565 Q155.757 555.861 155.337 555.861 L123.667 555.861 Q123.247 555.861 122.951 555.565 Q122.654 555.268 122.654 554.848 Q122.654 554.428 122.951 554.132 Q123.247 553.835 123.667 553.835 L155.337 553.835 Q155.757 553.835 156.053 554.132 Z" fill="#000000" fill-rule="nonzero" fill-opacity="1" /><path clip-path="url(#clip550)" d="M161.686 559.344 Q161.686 557.837 162.501 557.269 Q163.316 556.676 164.181 556.676 Q165.342 556.676 166.009 557.417 Q166.701 558.134 166.701 559.147 Q166.701 560.16 166.009 560.901 Q165.342 561.617 164.181 561.617 Q163.613 561.617 163.316 561.518 Q163.983 563.84 166.009 565.52 Q168.059 567.2 170.752 567.2 Q174.136 567.2 176.162 563.914 Q177.372 561.79 177.372 556.973 Q177.372 552.724 176.458 550.599 Q175.05 547.363 172.16 547.363 Q168.059 547.363 165.638 550.896 Q165.342 551.34 164.996 551.365 Q164.502 551.365 164.378 551.093 Q164.28 550.797 164.28 550.031 L164.28 535.061 Q164.28 533.85 164.774 533.85 Q164.971 533.85 165.391 533.999 Q168.578 535.407 172.111 535.431 Q175.742 535.431 179.003 533.949 Q179.25 533.801 179.398 533.801 Q179.892 533.801 179.917 534.369 Q179.917 534.567 179.497 535.16 Q179.102 535.728 178.237 536.494 Q177.372 537.235 176.261 537.951 Q175.149 538.668 173.519 539.162 Q171.913 539.631 170.134 539.631 Q168.01 539.631 165.836 538.964 L165.836 548.821 Q168.454 546.252 172.259 546.252 Q176.31 546.252 179.102 549.512 Q181.893 552.773 181.893 557.319 Q181.893 562.086 178.583 565.347 Q175.297 568.608 170.851 568.608 Q166.799 568.608 164.23 565.718 Q161.686 562.827 161.686 559.344 Z" fill="#000000" fill-rule="nonzero" fill-opacity="1" /><path clip-path="url(#clip550)" d="M186.439 551.316 Q186.439 543.88 188.316 539.829 Q190.935 533.801 197.11 533.801 Q198.42 533.801 199.778 534.172 Q201.162 534.517 202.891 535.876 Q204.645 537.235 205.707 539.458 Q207.733 543.756 207.733 551.316 Q207.733 558.702 205.855 562.729 Q203.113 568.608 197.061 568.608 Q194.788 568.608 192.466 567.447 Q190.169 566.286 188.711 563.494 Q186.439 559.32 186.439 551.316 M190.638 550.698 Q190.638 558.331 191.182 561.37 Q191.799 564.656 193.479 566.088 Q195.184 567.496 197.061 567.496 Q199.087 567.496 200.766 565.99 Q202.471 564.458 202.99 561.172 Q203.558 557.936 203.533 550.698 Q203.533 543.658 203.039 540.841 Q202.372 537.556 200.594 536.247 Q198.84 534.913 197.061 534.913 Q196.394 534.913 195.678 535.11 Q194.986 535.308 193.973 535.876 Q192.96 536.444 192.17 537.852 Q191.404 539.26 191.033 541.385 Q190.638 544.127 190.638 550.698 Z" fill="#000000" fill-rule="nonzero" fill-opacity="1" /><path clip-path="url(#clip550)" d="M211.735 551.316 Q211.735 543.88 213.612 539.829 Q216.231 533.801 222.407 533.801 Q223.716 533.801 225.075 534.172 Q226.458 534.517 228.187 535.876 Q229.941 537.235 231.003 539.458 Q233.029 543.756 233.029 551.316 Q233.029 558.702 231.152 562.729 Q228.41 568.608 222.357 568.608 Q220.084 568.608 217.762 567.447 Q215.465 566.286 214.007 563.494 Q211.735 559.32 211.735 551.316 M215.934 550.698 Q215.934 558.331 216.478 561.37 Q217.095 564.656 218.775 566.088 Q220.48 567.496 222.357 567.496 Q224.383 567.496 226.063 565.99 Q227.767 564.458 228.286 561.172 Q228.854 557.936 228.829 550.698 Q228.829 543.658 228.335 540.841 Q227.668 537.556 225.89 536.247 Q224.136 534.913 222.357 534.913 Q221.69 534.913 220.974 535.11 Q220.282 535.308 219.269 535.876 Q218.256 536.444 217.466 537.852 Q216.7 539.26 216.33 541.385 Q215.934 544.127 215.934 550.698 Z" fill="#000000" fill-rule="nonzero" fill-opacity="1" /><path clip-path="url(#clip550)" d="M156.053 461.241 Q156.35 461.537 156.35 461.957 Q156.35 462.377 156.053 462.673 Q155.757 462.97 155.337 462.97 L123.667 462.97 Q123.247 462.97 122.951 462.673 Q122.654 462.377 122.654 461.957 Q122.654 461.537 122.951 461.241 Q123.247 460.944 123.667 460.944 L155.337 460.944 Q155.757 460.944 156.053 461.241 Z" fill="#000000" fill-rule="nonzero" fill-opacity="1" /><path clip-path="url(#clip550)" d="M160.574 466.255 L160.574 464.699 L176.113 440.959 Q176.508 440.342 177.125 440.366 Q177.694 440.366 177.817 440.589 Q177.941 440.811 177.941 441.675 L177.941 464.699 L183.005 464.699 L183.005 466.255 L177.941 466.255 L177.941 470.653 Q177.941 472.11 178.533 472.579 Q179.151 473.049 181.77 473.049 L182.832 473.049 L182.832 474.605 Q180.757 474.457 175.964 474.457 Q171.197 474.457 169.121 474.605 L169.121 473.049 L170.184 473.049 Q172.802 473.049 173.42 472.604 Q174.037 472.135 174.037 470.653 L174.037 466.255 L160.574 466.255 M162.007 464.699 L174.334 464.699 L174.334 445.826 L162.007 464.699 Z" fill="#000000" fill-rule="nonzero" fill-opacity="1" /><path clip-path="url(#clip550)" d="M186.982 466.453 Q186.982 464.946 187.797 464.378 Q188.612 463.785 189.477 463.785 Q190.638 463.785 191.305 464.526 Q191.997 465.242 191.997 466.255 Q191.997 467.268 191.305 468.009 Q190.638 468.726 189.477 468.726 Q188.909 468.726 188.612 468.627 Q189.279 470.949 191.305 472.629 Q193.355 474.309 196.048 474.309 Q199.432 474.309 201.458 471.023 Q202.669 468.899 202.669 464.081 Q202.669 459.832 201.755 457.708 Q200.347 454.472 197.456 454.472 Q193.355 454.472 190.935 458.004 Q190.638 458.449 190.292 458.474 Q189.798 458.474 189.675 458.202 Q189.576 457.906 189.576 457.14 L189.576 442.17 Q189.576 440.959 190.07 440.959 Q190.268 440.959 190.687 441.107 Q193.874 442.515 197.407 442.54 Q201.038 442.54 204.299 441.058 Q204.546 440.91 204.694 440.91 Q205.188 440.91 205.213 441.478 Q205.213 441.675 204.793 442.268 Q204.398 442.837 203.533 443.602 Q202.669 444.343 201.557 445.06 Q200.445 445.776 198.815 446.27 Q197.209 446.74 195.431 446.74 Q193.306 446.74 191.132 446.073 L191.132 455.929 Q193.751 453.36 197.555 453.36 Q201.606 453.36 204.398 456.621 Q207.189 459.882 207.189 464.427 Q207.189 469.195 203.879 472.456 Q200.594 475.717 196.147 475.717 Q192.096 475.717 189.526 472.826 Q186.982 469.936 186.982 466.453 Z" fill="#000000" fill-rule="nonzero" fill-opacity="1" /><path clip-path="url(#clip550)" d="M211.735 458.424 Q211.735 450.989 213.612 446.937 Q216.231 440.91 222.407 440.91 Q223.716 440.91 225.075 441.28 Q226.458 441.626 228.187 442.985 Q229.941 444.343 231.003 446.567 Q233.029 450.865 233.029 458.424 Q233.029 465.811 231.152 469.837 Q228.41 475.717 222.357 475.717 Q220.084 475.717 217.762 474.556 Q215.465 473.395 214.007 470.603 Q211.735 466.428 211.735 458.424 M215.934 457.807 Q215.934 465.44 216.478 468.479 Q217.095 471.764 218.775 473.197 Q220.48 474.605 222.357 474.605 Q224.383 474.605 226.063 473.098 Q227.767 471.567 228.286 468.281 Q228.854 465.045 228.829 457.807 Q228.829 450.766 228.335 447.95 Q227.668 444.665 225.89 443.355 Q224.136 442.021 222.357 442.021 Q221.69 442.021 220.974 442.219 Q220.282 442.417 219.269 442.985 Q218.256 443.553 217.466 444.961 Q216.7 446.369 216.33 448.494 Q215.934 451.236 215.934 457.807 Z" fill="#000000" fill-rule="nonzero" fill-opacity="1" /><path clip-path="url(#clip550)" d="M156.053 368.349 Q156.35 368.646 156.35 369.066 Q156.35 369.486 156.053 369.782 Q155.757 370.078 155.337 370.078 L123.667 370.078 Q123.247 370.078 122.951 369.782 Q122.654 369.486 122.654 369.066 Q122.654 368.646 122.951 368.349 Q123.247 368.053 123.667 368.053 L155.337 368.053 Q155.757 368.053 156.053 368.349 Z" fill="#000000" fill-rule="nonzero" fill-opacity="1" /><path clip-path="url(#clip550)" d="M160.574 373.364 L160.574 371.808 L176.113 348.068 Q176.508 347.45 177.125 347.475 Q177.694 347.475 177.817 347.697 Q177.941 347.92 177.941 348.784 L177.941 371.808 L183.005 371.808 L183.005 373.364 L177.941 373.364 L177.941 377.761 Q177.941 379.219 178.533 379.688 Q179.151 380.157 181.77 380.157 L182.832 380.157 L182.832 381.714 Q180.757 381.565 175.964 381.565 Q171.197 381.565 169.121 381.714 L169.121 380.157 L170.184 380.157 Q172.802 380.157 173.42 379.713 Q174.037 379.243 174.037 377.761 L174.037 373.364 L160.574 373.364 M162.007 371.808 L174.334 371.808 L174.334 352.934 L162.007 371.808 Z" fill="#000000" fill-rule="nonzero" fill-opacity="1" /><path clip-path="url(#clip550)" d="M186.439 365.533 Q186.439 358.097 188.316 354.046 Q190.935 348.018 197.11 348.018 Q198.42 348.018 199.778 348.389 Q201.162 348.735 202.891 350.093 Q204.645 351.452 205.707 353.675 Q207.733 357.974 207.733 365.533 Q207.733 372.919 205.855 376.946 Q203.113 382.825 197.061 382.825 Q194.788 382.825 192.466 381.664 Q190.169 380.503 188.711 377.712 Q186.439 373.537 186.439 365.533 M190.638 364.915 Q190.638 372.549 191.182 375.587 Q191.799 378.873 193.479 380.306 Q195.184 381.714 197.061 381.714 Q199.087 381.714 200.766 380.207 Q202.471 378.675 202.99 375.39 Q203.558 372.154 203.533 364.915 Q203.533 357.875 203.039 355.059 Q202.372 351.773 200.594 350.464 Q198.84 349.13 197.061 349.13 Q196.394 349.13 195.678 349.328 Q194.986 349.525 193.973 350.093 Q192.96 350.662 192.17 352.07 Q191.404 353.478 191.033 355.602 Q190.638 358.344 190.638 364.915 Z" fill="#000000" fill-rule="nonzero" fill-opacity="1" /><path clip-path="url(#clip550)" d="M211.735 365.533 Q211.735 358.097 213.612 354.046 Q216.231 348.018 222.407 348.018 Q223.716 348.018 225.075 348.389 Q226.458 348.735 228.187 350.093 Q229.941 351.452 231.003 353.675 Q233.029 357.974 233.029 365.533 Q233.029 372.919 231.152 376.946 Q228.41 382.825 222.357 382.825 Q220.084 382.825 217.762 381.664 Q215.465 380.503 214.007 377.712 Q211.735 373.537 211.735 365.533 M215.934 364.915 Q215.934 372.549 216.478 375.587 Q217.095 378.873 218.775 380.306 Q220.48 381.714 222.357 381.714 Q224.383 381.714 226.063 380.207 Q227.767 378.675 228.286 375.39 Q228.854 372.154 228.829 364.915 Q228.829 357.875 228.335 355.059 Q227.668 351.773 225.89 350.464 Q224.136 349.13 222.357 349.13 Q221.69 349.13 220.974 349.328 Q220.282 349.525 219.269 350.093 Q218.256 350.662 217.466 352.07 Q216.7 353.478 216.33 355.602 Q215.934 358.344 215.934 364.915 Z" fill="#000000" fill-rule="nonzero" fill-opacity="1" /><path clip-path="url(#clip550)" d="M156.053 275.458 Q156.35 275.754 156.35 276.174 Q156.35 276.594 156.053 276.891 Q155.757 277.187 155.337 277.187 L123.667 277.187 Q123.247 277.187 122.951 276.891 Q122.654 276.594 122.654 276.174 Q122.654 275.754 122.951 275.458 Q123.247 275.161 123.667 275.161 L155.337 275.161 Q155.757 275.161 156.053 275.458 Z" fill="#000000" fill-rule="nonzero" fill-opacity="1" /><path clip-path="url(#clip550)" d="M161.29 282.004 Q161.29 280.497 162.155 279.781 Q163.02 279.065 164.131 279.065 Q165.292 279.065 166.108 279.83 Q166.948 280.571 166.948 281.881 Q166.948 283.289 165.959 284.079 Q164.996 284.87 163.613 284.672 Q164.823 286.698 167.046 287.612 Q169.294 288.526 171.369 288.526 Q173.543 288.526 175.297 286.648 Q177.076 284.771 177.076 280.176 Q177.076 276.273 175.544 274.025 Q174.037 271.777 171.048 271.777 L168.825 271.777 Q168.059 271.777 167.837 271.703 Q167.615 271.629 167.615 271.209 Q167.615 270.715 168.38 270.616 Q169.146 270.616 170.357 270.468 Q173.296 270.369 174.853 267.825 Q176.261 265.453 176.261 262.069 Q176.261 258.981 174.779 257.696 Q173.321 256.387 171.419 256.387 Q169.64 256.387 167.689 257.128 Q165.737 257.869 164.675 259.524 Q167.812 259.524 167.812 262.069 Q167.812 263.18 167.096 263.921 Q166.404 264.638 165.243 264.638 Q164.131 264.638 163.39 263.946 Q162.649 263.23 162.649 262.019 Q162.649 259.129 165.218 257.128 Q167.812 255.127 171.617 255.127 Q175.371 255.127 178.138 257.103 Q180.93 259.08 180.93 262.118 Q180.93 265.107 178.953 267.553 Q176.977 269.998 173.84 271.011 Q177.694 271.777 179.991 274.396 Q182.288 276.989 182.288 280.176 Q182.288 284.129 179.176 287.044 Q176.063 289.934 171.518 289.934 Q167.318 289.934 164.304 287.661 Q161.29 285.389 161.29 282.004 Z" fill="#000000" fill-rule="nonzero" fill-opacity="1" /><path clip-path="url(#clip550)" d="M186.982 280.67 Q186.982 279.163 187.797 278.595 Q188.612 278.002 189.477 278.002 Q190.638 278.002 191.305 278.743 Q191.997 279.46 191.997 280.473 Q191.997 281.485 191.305 282.227 Q190.638 282.943 189.477 282.943 Q188.909 282.943 188.612 282.844 Q189.279 285.166 191.305 286.846 Q193.355 288.526 196.048 288.526 Q199.432 288.526 201.458 285.24 Q202.669 283.116 202.669 278.299 Q202.669 274.05 201.755 271.925 Q200.347 268.689 197.456 268.689 Q193.355 268.689 190.935 272.222 Q190.638 272.666 190.292 272.691 Q189.798 272.691 189.675 272.419 Q189.576 272.123 189.576 271.357 L189.576 256.387 Q189.576 255.176 190.07 255.176 Q190.268 255.176 190.687 255.325 Q193.874 256.733 197.407 256.757 Q201.038 256.757 204.299 255.275 Q204.546 255.127 204.694 255.127 Q205.188 255.127 205.213 255.695 Q205.213 255.893 204.793 256.486 Q204.398 257.054 203.533 257.82 Q202.669 258.561 201.557 259.277 Q200.445 259.994 198.815 260.488 Q197.209 260.957 195.431 260.957 Q193.306 260.957 191.132 260.29 L191.132 270.147 Q193.751 267.577 197.555 267.577 Q201.606 267.577 204.398 270.838 Q207.189 274.099 207.189 278.645 Q207.189 283.412 203.879 286.673 Q200.594 289.934 196.147 289.934 Q192.096 289.934 189.526 287.044 Q186.982 284.153 186.982 280.67 Z" fill="#000000" fill-rule="nonzero" fill-opacity="1" /><path clip-path="url(#clip550)" d="M211.735 272.642 Q211.735 265.206 213.612 261.155 Q216.231 255.127 222.407 255.127 Q223.716 255.127 225.075 255.498 Q226.458 255.843 228.187 257.202 Q229.941 258.561 231.003 260.784 Q233.029 265.082 233.029 272.642 Q233.029 280.028 231.152 284.055 Q228.41 289.934 222.357 289.934 Q220.084 289.934 217.762 288.773 Q215.465 287.612 214.007 284.82 Q211.735 280.646 211.735 272.642 M215.934 272.024 Q215.934 279.657 216.478 282.696 Q217.095 285.981 218.775 287.414 Q220.48 288.822 222.357 288.822 Q224.383 288.822 226.063 287.315 Q227.767 285.784 228.286 282.498 Q228.854 279.262 228.829 272.024 Q228.829 264.984 228.335 262.167 Q227.668 258.882 225.89 257.573 Q224.136 256.239 222.357 256.239 Q221.69 256.239 220.974 256.436 Q220.282 256.634 219.269 257.202 Q218.256 257.77 217.466 259.178 Q216.7 260.586 216.33 262.711 Q215.934 265.453 215.934 272.024 Z" fill="#000000" fill-rule="nonzero" fill-opacity="1" /><path clip-path="url(#clip550)" d="M156.053 182.567 Q156.35 182.863 156.35 183.283 Q156.35 183.703 156.053 183.999 Q155.757 184.296 155.337 184.296 L123.667 184.296 Q123.247 184.296 122.951 183.999 Q122.654 183.703 122.654 183.283 Q122.654 182.863 122.951 182.567 Q123.247 182.27 123.667 182.27 L155.337 182.27 Q155.757 182.27 156.053 182.567 Z" fill="#000000" fill-rule="nonzero" fill-opacity="1" /><path clip-path="url(#clip550)" d="M161.29 189.113 Q161.29 187.606 162.155 186.89 Q163.02 186.173 164.131 186.173 Q165.292 186.173 166.108 186.939 Q166.948 187.68 166.948 188.989 Q166.948 190.397 165.959 191.188 Q164.996 191.978 163.613 191.781 Q164.823 193.807 167.046 194.721 Q169.294 195.635 171.369 195.635 Q173.543 195.635 175.297 193.757 Q177.076 191.88 177.076 187.285 Q177.076 183.382 175.544 181.134 Q174.037 178.886 171.048 178.886 L168.825 178.886 Q168.059 178.886 167.837 178.812 Q167.615 178.737 167.615 178.318 Q167.615 177.823 168.38 177.725 Q169.146 177.725 170.357 177.576 Q173.296 177.478 174.853 174.933 Q176.261 172.562 176.261 169.177 Q176.261 166.089 174.779 164.805 Q173.321 163.496 171.419 163.496 Q169.64 163.496 167.689 164.237 Q165.737 164.978 164.675 166.633 Q167.812 166.633 167.812 169.177 Q167.812 170.289 167.096 171.03 Q166.404 171.746 165.243 171.746 Q164.131 171.746 163.39 171.055 Q162.649 170.338 162.649 169.128 Q162.649 166.238 165.218 164.237 Q167.812 162.236 171.617 162.236 Q175.371 162.236 178.138 164.212 Q180.93 166.188 180.93 169.227 Q180.93 172.216 178.953 174.661 Q176.977 177.107 173.84 178.12 Q177.694 178.886 179.991 181.504 Q182.288 184.098 182.288 187.285 Q182.288 191.237 179.176 194.152 Q176.063 197.043 171.518 197.043 Q167.318 197.043 164.304 194.77 Q161.29 192.497 161.29 189.113 Z" fill="#000000" fill-rule="nonzero" fill-opacity="1" /><path clip-path="url(#clip550)" d="M186.439 179.75 Q186.439 172.315 188.316 168.263 Q190.935 162.236 197.11 162.236 Q198.42 162.236 199.778 162.606 Q201.162 162.952 202.891 164.311 Q204.645 165.669 205.707 167.893 Q207.733 172.191 207.733 179.75 Q207.733 187.137 205.855 191.163 Q203.113 197.043 197.061 197.043 Q194.788 197.043 192.466 195.882 Q190.169 194.721 188.711 191.929 Q186.439 187.754 186.439 179.75 M190.638 179.133 Q190.638 186.766 191.182 189.805 Q191.799 193.09 193.479 194.523 Q195.184 195.931 197.061 195.931 Q199.087 195.931 200.766 194.424 Q202.471 192.893 202.99 189.607 Q203.558 186.371 203.533 179.133 Q203.533 172.092 203.039 169.276 Q202.372 165.991 200.594 164.681 Q198.84 163.347 197.061 163.347 Q196.394 163.347 195.678 163.545 Q194.986 163.743 193.973 164.311 Q192.96 164.879 192.17 166.287 Q191.404 167.695 191.033 169.82 Q190.638 172.562 190.638 179.133 Z" fill="#000000" fill-rule="nonzero" fill-opacity="1" /><path clip-path="url(#clip550)" d="M211.735 179.75 Q211.735 172.315 213.612 168.263 Q216.231 162.236 222.407 162.236 Q223.716 162.236 225.075 162.606 Q226.458 162.952 228.187 164.311 Q229.941 165.669 231.003 167.893 Q233.029 172.191 233.029 179.75 Q233.029 187.137 231.152 191.163 Q228.41 197.043 222.357 197.043 Q220.084 197.043 217.762 195.882 Q215.465 194.721 214.007 191.929 Q211.735 187.754 211.735 179.75 M215.934 179.133 Q215.934 186.766 216.478 189.805 Q217.095 193.09 218.775 194.523 Q220.48 195.931 222.357 195.931 Q224.383 195.931 226.063 194.424 Q227.767 192.893 228.286 189.607 Q228.854 186.371 228.829 179.133 Q228.829 172.092 228.335 169.276 Q227.668 165.991 225.89 164.681 Q224.136 163.347 222.357 163.347 Q221.69 163.347 220.974 163.545 Q220.282 163.743 219.269 164.311 Q218.256 164.879 217.466 166.287 Q216.7 167.695 216.33 169.82 Q215.934 172.562 215.934 179.133 Z" fill="#000000" fill-rule="nonzero" fill-opacity="1" /><path clip-path="url(#clip550)" d="M87.3984 613.301 L85.2585 613.301 L85.2585 611.637 Q85.2585 607.867 84.6471 607.018 Q84.0017 606.134 81.9637 606.134 L45.3132 606.134 Q43.3091 606.134 42.6977 607.018 Q42.0523 607.901 42.0523 611.637 L42.0523 613.301 L39.8784 613.301 L39.8784 591.461 Q39.8784 583.886 43.6148 578.621 Q47.3172 573.322 52.4123 573.322 Q56.3185 573.322 59.3756 576.753 Q62.4326 580.184 63.7573 585.482 Q66.135 578.587 71.8075 576.991 L77.3781 576.107 Q79.3822 575.836 80.4012 575.666 Q81.4202 575.462 82.8129 575.156 Q84.2055 574.851 84.8849 574.545 Q85.5303 574.205 86.2436 573.73 Q86.9229 573.254 87.1607 572.643 Q87.3984 571.997 87.3984 571.148 Q87.3984 569.552 85.9718 568.193 Q84.5452 566.834 81.2164 566.563 Q80.0955 566.427 80.0955 565.714 Q80.0955 564.83 81.2164 564.83 Q82.2015 564.83 83.3564 565.102 Q84.4773 565.374 85.802 566.053 Q87.1267 566.699 88.0099 568.125 Q88.927 569.552 88.927 571.42 Q88.927 576.855 86.0058 580.184 Q84.749 581.576 83.1186 582.222 Q81.4882 582.833 80.1974 582.935 Q78.9067 583.037 76.0534 583.037 Q72.0113 583.037 70.245 583.478 Q68.4788 583.886 66.7464 585.686 Q64.3687 588.132 64.3687 592.174 L64.3687 600.156 L81.9637 600.156 Q83.9678 600.156 84.6131 599.307 Q85.2585 598.424 85.2585 594.654 L85.2585 592.989 L87.3984 592.989 Q87.1946 595.503 87.1946 603.145 Q87.1946 610.788 87.3984 613.301 M62.8402 600.156 L62.8402 592.446 Q62.8402 588.743 61.9571 586.264 Q61.04 583.75 59.4095 582.561 Q57.7791 581.372 56.1487 580.931 Q54.4843 580.489 52.4123 580.489 Q49.9667 580.489 48.1325 581.033 Q46.2982 581.576 45.2113 582.765 Q44.1243 583.954 43.445 585.143 Q42.7317 586.332 42.4599 588.166 Q42.1882 590 42.1203 591.257 Q42.0523 592.514 42.0523 594.518 Q42.0523 597.914 42.1882 598.628 Q42.2561 599.409 42.6298 599.715 Q43.0034 600.02 43.445 600.088 Q43.8526 600.156 44.8376 600.156 L62.8402 600.156 Z" fill="#000000" fill-rule="nonzero" fill-opacity="1" /><path clip-path="url(#clip550)" d="M72.0793 562.623 Q65.5236 562.623 60.8701 558.411 Q56.2166 554.199 56.2166 548.153 Q56.2166 542.038 60.1908 538.88 Q64.1649 535.687 69.8714 535.687 Q70.9244 535.687 71.1282 535.958 Q71.332 536.23 71.332 537.419 L71.332 556.848 Q78.4311 556.848 81.7599 554.742 Q86.4134 551.821 86.4134 546.896 Q86.4134 546.216 86.2775 545.401 Q86.1417 544.586 85.5642 542.922 Q84.9528 541.257 83.3564 539.797 Q81.7599 538.336 79.2463 537.487 Q78.2613 537.283 78.2953 536.604 Q78.2953 535.687 79.1105 535.687 Q79.7219 535.687 81.1145 536.366 Q82.4732 537.011 84.1036 538.268 Q85.7341 539.525 86.9569 541.971 Q88.1797 544.382 88.1797 547.303 Q88.1797 553.417 83.5602 558.037 Q78.9067 562.623 72.0793 562.623 M69.8714 556.78 L69.8714 540.272 Q68.4108 540.272 66.7804 540.544 Q65.15 540.782 62.9082 541.529 Q60.6324 542.242 59.2057 543.941 Q57.7791 545.639 57.7791 548.153 Q57.7791 549.273 58.2547 550.496 Q58.7302 551.685 59.8851 553.146 Q61.04 554.606 63.6554 555.625 Q66.2709 556.644 69.8714 556.78 Z" fill="#000000" fill-rule="nonzero" fill-opacity="1" /><path clip-path="url(#clip550)" d="M59.5794 532.426 L57.4055 532.426 Q57.6093 528.655 57.6093 525.972 Q57.6093 524.647 57.4055 518.363 L59.5794 518.363 Q59.5794 522.473 61.4476 522.473 Q61.8552 522.473 62.7043 522.134 L81.2844 515.51 L64.4367 509.532 Q61.04 510.789 60.6324 511.128 Q59.5794 511.978 59.5794 515.51 L57.4055 515.51 Q57.6093 512.385 57.6093 509.328 Q57.6093 508.139 57.4055 502.093 L59.5794 502.093 Q59.5794 506.203 61.4476 506.203 Q61.7193 506.203 62.7723 505.863 L82.1675 498.968 L64.3687 492.65 Q63.4516 492.311 62.9082 492.277 Q61.3796 492.277 60.5305 493.364 Q59.6473 494.451 59.5794 496.319 L57.4055 496.319 Q57.6093 492.345 57.6093 489.865 Q57.6093 487.08 57.4055 484.77 L59.5794 484.77 Q59.7152 489.084 64.0291 490.612 L86.855 498.764 Q88.1118 499.546 88.1797 500.157 Q88.1797 501.074 86.855 501.55 L67.0861 508.649 L86.787 515.68 Q87.6362 515.952 87.9079 516.189 Q88.1797 516.427 88.1797 517.073 Q88.1797 517.684 87.806 517.956 Q87.4664 518.227 86.6172 518.533 L61.991 527.297 Q60.3946 527.908 59.987 528.825 Q59.5794 529.708 59.5794 532.426 Z" fill="#000000" fill-rule="nonzero" fill-opacity="1" /><path clip-path="url(#clip550)" d="M80.7749 482.494 Q74.8646 482.494 71.7396 475.531 Q69.7355 471.353 69.226 462.725 L66.6785 462.725 Q62.3647 462.725 60.0889 465.001 Q57.7791 467.243 57.7791 470.096 Q57.7791 475.191 60.972 477.637 Q61.04 475.565 62.0929 474.818 Q63.112 474.07 64.1649 474.07 Q65.5576 474.07 66.4747 474.953 Q67.3578 475.803 67.3578 477.263 Q67.3578 478.656 66.5087 479.573 Q65.6255 480.49 64.097 480.49 Q60.7003 480.49 58.4585 477.433 Q56.2166 474.342 56.2166 469.96 Q56.2166 464.254 60.0549 460.449 Q61.2438 459.261 62.7723 458.683 Q64.3008 458.072 65.3198 458.004 Q66.3049 457.936 68.275 457.936 L82.1675 457.936 Q82.5751 457.936 83.2545 457.8 Q83.9338 457.664 84.8169 457.053 Q85.6661 456.407 85.6661 455.354 Q85.6661 452.841 81.2164 452.875 L77.3102 452.875 L77.3102 451.108 L81.2164 451.108 Q84.9188 451.108 86.3794 453.079 Q87.806 455.015 87.806 456.815 Q87.806 459.125 86.1077 460.585 Q84.4093 462.046 82.0996 462.25 Q84.749 463.303 86.4813 465.714 Q88.1797 468.092 88.1797 471.353 Q88.1797 473.866 87.5343 476.244 Q86.9229 478.588 85.1906 480.558 Q83.4243 482.494 80.7749 482.494 M80.7069 477.127 Q83.2884 477.127 84.9528 475.293 Q86.6172 473.459 86.6172 470.877 Q86.6172 467.956 84.3754 465.341 Q82.0996 462.725 77.6499 462.725 L70.6866 462.725 Q70.9584 470.436 74.0494 473.799 Q77.1064 477.127 80.7069 477.127 Z" fill="#000000" fill-rule="nonzero" fill-opacity="1" /><path clip-path="url(#clip550)" d="M87.3984 448.697 L85.2585 448.697 Q85.2585 444.994 84.8169 444.145 Q84.3414 443.262 82.0996 443.262 L63.4516 443.262 Q60.8701 443.262 60.2247 444.179 Q59.5794 445.062 59.5794 448.697 L57.4055 448.697 L56.6582 439.016 L64.3008 439.016 Q61.3117 438.031 59.0019 435.959 Q56.6582 433.853 56.6582 430.456 Q56.6582 428.215 57.915 426.788 Q59.1718 425.327 60.9041 425.327 Q62.4326 425.327 63.2139 426.279 Q63.9611 427.196 63.9611 428.317 Q63.9611 429.573 63.1799 430.456 Q62.3647 431.306 60.972 431.306 Q60.1228 431.306 59.4775 430.932 Q58.7981 430.524 58.5604 430.219 Q58.3226 429.913 58.2547 429.709 Q58.1867 429.845 58.1867 430.456 Q58.1867 434.295 62.025 436.503 Q65.8293 438.677 71.2641 438.677 L81.9637 438.677 Q83.9678 438.677 84.6131 437.861 Q85.2585 437.012 85.2585 433.378 L85.2585 431.917 L87.3984 431.917 Q87.1946 434.702 87.1946 440.748 Q87.1946 441.598 87.2286 442.922 Q87.2626 444.247 87.3305 445.979 Q87.3984 447.712 87.3984 448.697 Z" fill="#000000" fill-rule="nonzero" fill-opacity="1" /><path clip-path="url(#clip550)" d="M72.4529 421.082 Q65.8293 421.082 61.2438 416.462 Q56.6582 411.842 56.6582 405.593 Q56.6582 400.294 60.972 396.829 L45.9246 396.829 Q43.3431 396.829 42.6977 397.746 Q42.0523 398.629 42.0523 402.23 L39.8784 402.23 L39.1312 392.209 L81.3523 392.209 Q83.9338 392.209 84.6131 391.326 Q85.2585 390.409 85.2585 386.809 L87.3984 386.809 L88.1797 397.033 L83.5602 397.033 Q88.1457 400.633 88.1797 406.34 Q88.1797 412.318 83.5941 416.7 Q79.0086 421.082 72.4529 421.082 M72.5208 415.307 Q78.9746 415.307 82.1675 413.303 Q86.6172 410.518 86.6172 406 Q86.6172 400.837 81.7599 397.78 Q80.5711 396.999 79.1784 397.033 L64.9122 397.033 Q63.5196 397.033 62.3647 397.78 Q58.1867 400.633 58.1867 405.287 Q58.1867 410.144 62.6364 413.167 Q65.9652 415.307 72.5208 415.307 Z" fill="#000000" fill-rule="nonzero" fill-opacity="1" /><polyline clip-path="url(#clip552)" style="stroke:#c0392b; stroke-linecap:round; stroke-linejoin:round; stroke-width:4; stroke-opacity:1; fill:none" points="285.125,637.608 630.637,496.713 976.148,423.014 1321.66,362.366 "/>
<path clip-path="url(#clip552)" d="M269.125 621.608 L269.125 653.608 L301.125 653.608 L301.125 621.608 L269.125 621.608 Z" fill="#c0392b" fill-rule="evenodd" fill-opacity="1" stroke="none"/>
<path clip-path="url(#clip552)" d="M614.637 480.713 L614.637 512.713 L646.637 512.713 L646.637 480.713 L614.637 480.713 Z" fill="#c0392b" fill-rule="evenodd" fill-opacity="1" stroke="none"/>
<path clip-path="url(#clip552)" d="M960.148 407.014 L960.148 439.014 L992.148 439.014 L992.148 407.014 L960.148 407.014 Z" fill="#c0392b" fill-rule="evenodd" fill-opacity="1" stroke="none"/>
<path clip-path="url(#clip552)" d="M1305.66 346.366 L1305.66 378.366 L1337.66 378.366 L1337.66 346.366 L1305.66 346.366 Z" fill="#c0392b" fill-rule="evenodd" fill-opacity="1" stroke="none"/>
<path clip-path="url(#clip550)" d="M511.847 150.924 L1094.94 150.924 L1094.94 47.2441 L511.847 47.2441  Z" fill="#ffffff" fill-rule="evenodd" fill-opacity="1"/>
<polyline clip-path="url(#clip550)" style="stroke:#000000; stroke-linecap:round; stroke-linejoin:round; stroke-width:4; stroke-opacity:1; fill:none" points="511.847,150.924 1094.94,150.924 1094.94,47.2441 511.847,47.2441 511.847,150.924 "/>
<polyline clip-path="url(#clip550)" style="stroke:#c0392b; stroke-linecap:round; stroke-linejoin:round; stroke-width:4; stroke-opacity:1; fill:none" points="524.055,99.0841 597.304,99.0841 "/>
<path clip-path="url(#clip550)" d="M549.376 87.7803 L549.376 110.388 L571.983 110.388 L571.983 87.7803 L549.376 87.7803 Z" fill="#c0392b" fill-rule="evenodd" fill-opacity="1" stroke="none"/>
<path clip-path="url(#clip550)" d="M609.512 99.0717 Q609.512 91.4384 614.724 86.0778 Q619.937 80.6924 627.101 80.6924 Q629.324 80.6924 631.3 81.5077 Q633.277 82.3229 634.191 83.0393 Q635.105 83.731 636.414 85.0402 L638.958 81.31 Q639.354 80.6924 639.749 80.6924 Q640.169 80.6924 640.243 80.9395 Q640.317 81.1618 640.317 81.9029 L640.317 93.9087 Q640.317 94.724 640.218 94.9216 Q640.119 95.1192 639.502 95.1192 Q639.008 95.1192 638.884 94.971 Q638.785 94.8228 638.687 94.2546 Q637.921 88.7951 634.882 85.5343 Q631.869 82.2735 627.669 82.2735 Q626.458 82.2735 625.1 82.5452 Q623.766 82.8169 621.814 83.8545 Q619.887 84.892 618.38 86.6212 Q616.898 88.3258 615.811 91.5866 Q614.724 94.8228 614.724 99.1211 Q614.724 103.37 615.811 106.631 Q616.898 109.892 618.38 111.596 Q619.887 113.276 621.814 114.314 Q623.766 115.351 625.124 115.648 Q626.508 115.919 627.718 115.919 Q632.066 115.919 635.401 112.832 Q638.736 109.744 639.057 104.531 Q639.107 104.284 639.107 104.185 Q639.107 104.062 639.156 103.938 Q639.205 103.815 639.329 103.765 Q639.452 103.716 639.65 103.716 Q640.317 103.716 640.317 104.581 Q640.317 109.398 636.612 113.449 Q632.931 117.476 627.101 117.476 Q619.912 117.476 614.7 112.14 Q609.512 106.804 609.512 99.0717 Z" fill="#000000" fill-rule="nonzero" fill-opacity="1" /><path clip-path="url(#clip550)" d="M644.591 105.223 Q644.591 100.455 647.654 97.0708 Q650.717 93.6864 655.114 93.6864 Q659.561 93.6864 661.858 96.5767 Q664.181 99.467 664.181 103.617 Q664.181 104.383 663.983 104.531 Q663.785 104.679 662.921 104.679 L648.79 104.679 Q648.79 109.842 650.322 112.263 Q652.446 115.648 656.028 115.648 Q656.522 115.648 657.115 115.549 Q657.708 115.45 658.919 115.03 Q660.129 114.585 661.191 113.424 Q662.254 112.263 662.871 110.435 Q663.019 109.719 663.514 109.744 Q664.181 109.744 664.181 110.336 Q664.181 110.781 663.686 111.794 Q663.217 112.782 662.303 113.968 Q661.389 115.154 659.61 116.043 Q657.856 116.932 655.732 116.932 Q651.285 116.932 647.926 113.573 Q644.591 110.188 644.591 105.223 M648.84 103.617 L660.846 103.617 Q660.846 102.555 660.648 101.369 Q660.475 100.183 659.932 98.553 Q659.413 96.8978 658.178 95.8603 Q656.942 94.8228 655.114 94.8228 Q654.299 94.8228 653.41 95.1686 Q652.545 95.5145 651.483 96.3544 Q650.421 97.1943 649.68 99.0964 Q648.939 100.999 648.84 103.617 Z" fill="#000000" fill-rule="nonzero" fill-opacity="1" /><path clip-path="url(#clip550)" d="M667.268 116.364 L667.268 114.808 Q669.961 114.808 670.579 114.487 Q671.196 114.141 671.196 112.51 L671.196 98.9482 Q671.196 97.0708 670.529 96.6014 Q669.887 96.132 667.268 96.132 L667.268 94.551 L674.383 94.0076 L674.383 99.3188 Q676.755 94.0076 681.868 94.0076 Q685.672 94.0076 687.179 95.885 Q688.291 97.1449 688.513 98.553 Q688.76 99.9611 688.76 103.617 L688.76 113.276 Q688.81 114.338 689.625 114.585 Q690.44 114.808 692.713 114.808 L692.713 116.364 Q687.55 116.216 687.031 116.216 Q686.636 116.216 681.325 116.364 L681.325 114.808 Q684.017 114.808 684.635 114.487 Q685.277 114.141 685.277 112.51 L685.277 100.727 Q685.277 98.1577 684.487 96.6508 Q683.696 95.1192 681.522 95.1192 Q678.904 95.1192 676.804 97.3178 Q674.704 99.5164 674.704 103.222 L674.704 112.51 Q674.704 114.141 675.322 114.487 Q675.964 114.808 678.632 114.808 L678.632 116.364 Q673.469 116.216 672.975 116.216 Q672.58 116.216 667.268 116.364 Z" fill="#000000" fill-rule="nonzero" fill-opacity="1" /><path clip-path="url(#clip550)" d="M693.256 96.132 L693.256 95.0204 Q695.578 94.9216 697.11 93.2912 Q698.666 91.636 699.185 89.6104 Q699.729 87.5847 699.778 85.2379 L701.038 85.2379 L701.038 94.551 L708.276 94.551 L708.276 96.132 L701.038 96.132 L701.038 110.188 Q701.038 115.648 704.447 115.648 Q705.904 115.648 706.868 114.165 Q707.831 112.659 707.831 109.991 L707.831 107.199 L709.091 107.199 L709.091 110.089 Q709.091 112.832 707.831 114.882 Q706.571 116.932 704.076 116.932 Q703.162 116.932 702.248 116.685 Q701.359 116.463 700.173 115.87 Q699.012 115.252 698.271 113.77 Q697.555 112.263 697.555 110.089 L697.555 96.132 L693.256 96.132 Z" fill="#000000" fill-rule="nonzero" fill-opacity="1" /><path clip-path="url(#clip550)" d="M713.315 116.364 L713.315 114.808 Q716.008 114.808 716.626 114.487 Q717.268 114.141 717.268 112.51 L717.268 98.9482 Q717.268 97.0708 716.601 96.6014 Q715.959 96.132 713.315 96.132 L713.315 94.551 L720.356 94.0076 L720.356 99.5658 Q721.072 97.3919 722.579 95.7121 Q724.111 94.0076 726.581 94.0076 Q728.212 94.0076 729.249 94.9216 Q730.311 95.8356 730.311 97.0955 Q730.311 98.2071 729.62 98.7753 Q728.953 99.3188 728.138 99.3188 Q727.223 99.3188 726.581 98.7506 Q725.964 98.1577 725.964 97.1449 Q725.964 96.5273 726.235 96.0579 Q726.532 95.5639 726.754 95.3909 Q726.976 95.218 727.125 95.1686 Q727.026 95.1192 726.581 95.1192 Q723.79 95.1192 722.184 97.9107 Q720.603 100.677 720.603 104.63 L720.603 112.412 Q720.603 113.869 721.196 114.338 Q721.813 114.808 724.457 114.808 L725.519 114.808 L725.519 116.364 Q723.493 116.216 719.096 116.216 Q718.478 116.216 717.515 116.241 Q716.552 116.265 715.292 116.315 Q714.032 116.364 713.315 116.364 Z" fill="#000000" fill-rule="nonzero" fill-opacity="1" /><path clip-path="url(#clip550)" d="M733.795 111.547 Q733.795 107.249 738.859 104.976 Q741.897 103.518 748.172 103.148 L748.172 101.295 Q748.172 98.1577 746.517 96.5026 Q744.886 94.8228 742.811 94.8228 Q739.106 94.8228 737.327 97.1449 Q738.834 97.1943 739.378 97.9601 Q739.921 98.7012 739.921 99.467 Q739.921 100.48 739.279 101.147 Q738.661 101.789 737.599 101.789 Q736.586 101.789 735.919 101.172 Q735.252 100.529 735.252 99.4176 Q735.252 96.9473 737.475 95.3168 Q739.723 93.6864 742.91 93.6864 Q747.06 93.6864 749.827 96.4779 Q750.692 97.3425 751.112 98.4542 Q751.556 99.5658 751.606 100.307 Q751.655 101.023 751.655 102.456 L751.655 112.56 Q751.655 112.856 751.754 113.35 Q751.853 113.844 752.297 114.487 Q752.767 115.104 753.533 115.104 Q755.361 115.104 755.336 111.868 L755.336 109.027 L756.62 109.027 L756.62 111.868 Q756.62 114.561 755.188 115.623 Q753.78 116.661 752.47 116.661 Q750.79 116.661 749.728 115.425 Q748.666 114.19 748.518 112.51 Q747.752 114.437 745.998 115.697 Q744.269 116.932 741.897 116.932 Q740.069 116.932 738.34 116.463 Q736.635 116.018 735.203 114.758 Q733.795 113.474 733.795 111.547 M737.698 111.498 Q737.698 113.375 739.032 114.585 Q740.366 115.796 742.243 115.796 Q744.368 115.796 746.27 114.165 Q748.172 112.51 748.172 109.274 L748.172 104.21 Q742.564 104.408 740.119 106.656 Q737.698 108.879 737.698 111.498 Z" fill="#000000" fill-rule="nonzero" fill-opacity="1" /><path clip-path="url(#clip550)" d="M758.646 116.364 L758.646 114.808 Q761.339 114.808 761.956 114.487 Q762.574 114.141 762.574 112.51 L762.574 86.2013 Q762.574 84.3238 761.907 83.8545 Q761.265 83.3851 758.646 83.3851 L758.646 81.8041 L765.909 81.2606 L765.909 112.51 Q765.909 114.141 766.551 114.487 Q767.194 114.808 769.861 114.808 L769.861 116.364 Q769.244 116.364 767.959 116.315 Q766.675 116.265 765.736 116.241 Q764.797 116.216 764.254 116.216 Q763.661 116.216 758.646 116.364 Z" fill="#000000" fill-rule="nonzero" fill-opacity="1" /><path clip-path="url(#clip550)" d="M772.653 116.364 L772.653 114.808 Q775.346 114.808 775.963 114.487 Q776.581 114.141 776.581 112.51 L776.581 98.8988 Q776.581 97.0214 775.939 96.5767 Q775.321 96.132 772.851 96.132 L772.851 94.551 L779.916 94.0076 L779.916 112.56 Q779.916 114.067 780.459 114.437 Q781.003 114.808 783.473 114.808 L783.473 116.364 Q778.31 116.216 778.211 116.216 Q777.52 116.216 772.653 116.364 M774.777 85.1885 Q774.777 84.1756 775.543 83.3604 Q776.334 82.5205 777.445 82.5205 Q778.557 82.5205 779.348 83.2863 Q780.138 84.0274 780.138 85.2132 Q780.138 86.3742 779.348 87.14 Q778.557 87.8811 777.445 87.8811 Q776.284 87.8811 775.519 87.0659 Q774.777 86.2507 774.777 85.1885 Z" fill="#000000" fill-rule="nonzero" fill-opacity="1" /><path clip-path="url(#clip550)" d="M786.388 115.648 Q786.388 115.302 786.857 114.734 L800.963 95.6627 L795.207 95.6627 Q791.205 95.6627 789.896 97.1449 Q788.611 98.6024 788.364 102.703 L787.104 102.703 L787.673 94.551 L803.853 94.551 Q804.421 94.551 804.644 94.5757 Q804.866 94.6004 805.014 94.7734 Q805.163 94.9216 805.163 95.218 Q805.163 95.5145 804.718 96.0826 L790.637 115.104 L796.615 115.104 Q800.815 115.104 802.223 113.35 Q803.656 111.596 804.002 106.903 L805.261 106.903 L804.397 116.364 L787.722 116.364 Q786.907 116.364 786.635 116.265 Q786.388 116.142 786.388 115.648 Z" fill="#000000" fill-rule="nonzero" fill-opacity="1" /><path clip-path="url(#clip550)" d="M808.843 105.223 Q808.843 100.455 811.907 97.0708 Q814.97 93.6864 819.367 93.6864 Q823.814 93.6864 826.111 96.5767 Q828.433 99.467 828.433 103.617 Q828.433 104.383 828.236 104.531 Q828.038 104.679 827.173 104.679 L813.043 104.679 Q813.043 109.842 814.575 112.263 Q816.699 115.648 820.281 115.648 Q820.775 115.648 821.368 115.549 Q821.961 115.45 823.171 115.03 Q824.382 114.585 825.444 113.424 Q826.506 112.263 827.124 110.435 Q827.272 109.719 827.766 109.744 Q828.433 109.744 828.433 110.336 Q828.433 110.781 827.939 111.794 Q827.47 112.782 826.556 113.968 Q825.642 115.154 823.863 116.043 Q822.109 116.932 819.985 116.932 Q815.538 116.932 812.178 113.573 Q808.843 110.188 808.843 105.223 M813.092 103.617 L825.098 103.617 Q825.098 102.555 824.901 101.369 Q824.728 100.183 824.184 98.553 Q823.665 96.8978 822.43 95.8603 Q821.195 94.8228 819.367 94.8228 Q818.552 94.8228 817.662 95.1686 Q816.798 95.5145 815.736 96.3544 Q814.673 97.1943 813.932 99.0964 Q813.191 100.999 813.092 103.617 Z" fill="#000000" fill-rule="nonzero" fill-opacity="1" /><path clip-path="url(#clip550)" d="M831.62 105.495 Q831.62 100.677 834.98 97.3425 Q838.339 94.0076 842.885 94.0076 Q846.738 94.0076 849.258 97.1449 L849.258 86.2013 Q849.258 84.3238 848.591 83.8545 Q847.949 83.3851 845.33 83.3851 L845.33 81.8041 L852.618 81.2606 L852.618 111.967 Q852.618 113.844 853.26 114.338 Q853.927 114.808 856.546 114.808 L856.546 116.364 L849.11 116.932 L849.11 113.573 Q846.491 116.908 842.341 116.932 Q837.993 116.932 834.807 113.597 Q831.62 110.262 831.62 105.495 M835.819 105.544 Q835.819 110.238 837.277 112.56 Q839.303 115.796 842.588 115.796 Q846.343 115.796 848.566 112.263 Q849.135 111.399 849.11 110.386 L849.11 100.01 Q849.11 98.9976 848.566 98.1577 Q846.491 95.1192 843.107 95.1192 Q839.574 95.1192 837.376 98.3553 Q835.819 100.776 835.819 105.544 Z" fill="#000000" fill-rule="nonzero" fill-opacity="1" /><path clip-path="url(#clip550)" d="M879.717 113.597 Q876.506 110.238 876.506 105.445 Q876.506 100.628 879.668 97.1696 Q882.83 93.6864 887.474 93.6864 Q890.562 93.6864 892.884 95.1686 Q895.206 96.6261 895.206 99.1211 Q895.206 100.233 894.539 100.875 Q893.897 101.493 892.884 101.493 Q891.822 101.493 891.18 100.85 Q890.562 100.183 890.562 99.1706 Q890.562 98.7259 890.71 98.2812 Q890.859 97.8366 891.402 97.3672 Q891.97 96.8978 892.934 96.8237 Q891.13 94.971 887.622 94.971 Q887.573 94.971 887.524 94.971 Q884.954 94.971 882.83 97.3919 Q880.705 99.8128 880.705 105.346 Q880.705 108.237 881.397 110.361 Q882.114 112.461 883.275 113.548 Q884.436 114.635 885.572 115.154 Q886.708 115.648 887.82 115.648 Q892.785 115.648 894.465 110.336 Q894.613 109.842 895.108 109.842 Q895.774 109.842 895.774 110.336 Q895.774 110.584 895.577 111.226 Q895.379 111.868 894.762 112.881 Q894.144 113.894 893.255 114.783 Q892.39 115.648 890.834 116.29 Q889.302 116.932 887.375 116.932 Q882.929 116.932 879.717 113.597 Z" fill="#000000" fill-rule="nonzero" fill-opacity="1" /><path clip-path="url(#clip550)" d="M901.975 113.647 Q898.64 110.336 898.64 105.544 Q898.64 100.727 901.901 97.219 Q905.186 93.6864 909.88 93.6864 Q914.475 93.6864 917.76 97.1943 Q921.071 100.677 921.071 105.544 Q921.071 110.312 917.736 113.622 Q914.426 116.932 909.831 116.932 Q905.335 116.932 901.975 113.647 M902.84 105.124 Q902.84 110.04 904.124 112.263 Q906.101 115.648 909.88 115.648 Q911.758 115.648 913.314 114.635 Q914.895 113.622 915.76 111.917 Q916.871 109.694 916.871 105.124 Q916.871 100.258 915.537 98.1083 Q913.561 94.8228 909.831 94.8228 Q908.2 94.8228 906.595 95.6874 Q905.014 96.5273 904.05 98.2071 Q902.84 100.43 902.84 105.124 Z" fill="#000000" fill-rule="nonzero" fill-opacity="1" /><path clip-path="url(#clip550)" d="M924.159 116.364 L924.159 114.808 Q926.851 114.808 927.469 114.487 Q928.086 114.141 928.086 112.51 L928.086 98.9482 Q928.086 97.0708 927.42 96.6014 Q926.777 96.132 924.159 96.132 L924.159 94.551 L931.273 94.0076 L931.273 99.3188 Q933.645 94.0076 938.758 94.0076 Q942.563 94.0076 944.07 95.885 Q945.181 97.1449 945.404 98.553 Q945.651 99.9611 945.651 103.617 L945.651 113.276 Q945.7 114.338 946.515 114.585 Q947.33 114.808 949.603 114.808 L949.603 116.364 Q944.44 116.216 943.921 116.216 Q943.526 116.216 938.215 116.364 L938.215 114.808 Q940.908 114.808 941.525 114.487 Q942.167 114.141 942.167 112.51 L942.167 100.727 Q942.167 98.1577 941.377 96.6508 Q940.586 95.1192 938.412 95.1192 Q935.794 95.1192 933.694 97.3178 Q931.594 99.5164 931.594 103.222 L931.594 112.51 Q931.594 114.141 932.212 114.487 Q932.854 114.808 935.522 114.808 L935.522 116.364 Q930.359 116.216 929.865 116.216 Q929.47 116.216 924.159 116.364 Z" fill="#000000" fill-rule="nonzero" fill-opacity="1" /><path clip-path="url(#clip550)" d="M950.147 96.132 L950.147 95.0204 Q952.469 94.9216 954 93.2912 Q955.557 91.636 956.075 89.6104 Q956.619 87.5847 956.668 85.2379 L957.928 85.2379 L957.928 94.551 L965.166 94.551 L965.166 96.132 L957.928 96.132 L957.928 110.188 Q957.928 115.648 961.337 115.648 Q962.795 115.648 963.758 114.165 Q964.722 112.659 964.722 109.991 L964.722 107.199 L965.981 107.199 L965.981 110.089 Q965.981 112.832 964.722 114.882 Q963.462 116.932 960.967 116.932 Q960.053 116.932 959.139 116.685 Q958.249 116.463 957.064 115.87 Q955.902 115.252 955.161 113.77 Q954.445 112.263 954.445 110.089 L954.445 96.132 L950.147 96.132 Z" fill="#000000" fill-rule="nonzero" fill-opacity="1" /><path clip-path="url(#clip550)" d="M970.206 116.364 L970.206 114.808 Q972.898 114.808 973.516 114.487 Q974.158 114.141 974.158 112.51 L974.158 98.9482 Q974.158 97.0708 973.491 96.6014 Q972.849 96.132 970.206 96.132 L970.206 94.551 L977.246 94.0076 L977.246 99.5658 Q977.963 97.3919 979.469 95.7121 Q981.001 94.0076 983.471 94.0076 Q985.102 94.0076 986.139 94.9216 Q987.202 95.8356 987.202 97.0955 Q987.202 98.2071 986.51 98.7753 Q985.843 99.3188 985.028 99.3188 Q984.114 99.3188 983.471 98.7506 Q982.854 98.1577 982.854 97.1449 Q982.854 96.5273 983.126 96.0579 Q983.422 95.5639 983.644 95.3909 Q983.867 95.218 984.015 95.1686 Q983.916 95.1192 983.471 95.1192 Q980.68 95.1192 979.074 97.9107 Q977.493 100.677 977.493 104.63 L977.493 112.412 Q977.493 113.869 978.086 114.338 Q978.704 114.808 981.347 114.808 L982.409 114.808 L982.409 116.364 Q980.384 116.216 975.986 116.216 Q975.369 116.216 974.405 116.241 Q973.442 116.265 972.182 116.315 Q970.922 116.364 970.206 116.364 Z" fill="#000000" fill-rule="nonzero" fill-opacity="1" /><path clip-path="url(#clip550)" d="M993.303 113.647 Q989.968 110.336 989.968 105.544 Q989.968 100.727 993.229 97.219 Q996.515 93.6864 1001.21 93.6864 Q1005.8 93.6864 1009.09 97.1943 Q1012.4 100.677 1012.4 105.544 Q1012.4 110.312 1009.06 113.622 Q1005.75 116.932 1001.16 116.932 Q996.663 116.932 993.303 113.647 M994.168 105.124 Q994.168 110.04 995.453 112.263 Q997.429 115.648 1001.21 115.648 Q1003.09 115.648 1004.64 114.635 Q1006.22 113.622 1007.09 111.917 Q1008.2 109.694 1008.2 105.124 Q1008.2 100.258 1006.87 98.1083 Q1004.89 94.8228 1001.16 94.8228 Q999.529 94.8228 997.923 95.6874 Q996.342 96.5273 995.378 98.2071 Q994.168 100.43 994.168 105.124 Z" fill="#000000" fill-rule="nonzero" fill-opacity="1" /><path clip-path="url(#clip550)" d="M1015.54 116.364 L1015.54 114.808 Q1018.23 114.808 1018.85 114.487 Q1019.46 114.141 1019.46 112.51 L1019.46 86.2013 Q1019.46 84.3238 1018.8 83.8545 Q1018.15 83.3851 1015.54 83.3851 L1015.54 81.8041 L1022.8 81.2606 L1022.8 112.51 Q1022.8 114.141 1023.44 114.487 Q1024.08 114.808 1026.75 114.808 L1026.75 116.364 Q1026.13 116.364 1024.85 116.315 Q1023.56 116.265 1022.63 116.241 Q1021.69 116.216 1021.14 116.216 Q1020.55 116.216 1015.54 116.364 Z" fill="#000000" fill-rule="nonzero" fill-opacity="1" /><path clip-path="url(#clip550)" d="M1029.54 116.364 L1029.54 114.808 Q1032.24 114.808 1032.85 114.487 Q1033.47 114.141 1033.47 112.51 L1033.47 86.2013 Q1033.47 84.3238 1032.8 83.8545 Q1032.16 83.3851 1029.54 83.3851 L1029.54 81.8041 L1036.81 81.2606 L1036.81 112.51 Q1036.81 114.141 1037.45 114.487 Q1038.09 114.808 1040.76 114.808 L1040.76 116.364 Q1040.14 116.364 1038.86 116.315 Q1037.57 116.265 1036.63 116.241 Q1035.69 116.216 1035.15 116.216 Q1034.56 116.216 1029.54 116.364 Z" fill="#000000" fill-rule="nonzero" fill-opacity="1" /><path clip-path="url(#clip550)" d="M1043.28 105.223 Q1043.28 100.455 1046.34 97.0708 Q1049.4 93.6864 1053.8 93.6864 Q1058.25 93.6864 1060.55 96.5767 Q1062.87 99.467 1062.87 103.617 Q1062.87 104.383 1062.67 104.531 Q1062.47 104.679 1061.61 104.679 L1047.48 104.679 Q1047.48 109.842 1049.01 112.263 Q1051.13 115.648 1054.72 115.648 Q1055.21 115.648 1055.8 115.549 Q1056.4 115.45 1057.61 115.03 Q1058.82 114.585 1059.88 113.424 Q1060.94 112.263 1061.56 110.435 Q1061.71 109.719 1062.2 109.744 Q1062.87 109.744 1062.87 110.336 Q1062.87 110.781 1062.37 111.794 Q1061.9 112.782 1060.99 113.968 Q1060.08 115.154 1058.3 116.043 Q1056.54 116.932 1054.42 116.932 Q1049.97 116.932 1046.61 113.573 Q1043.28 110.188 1043.28 105.223 M1047.53 103.617 L1059.53 103.617 Q1059.53 102.555 1059.34 101.369 Q1059.16 100.183 1058.62 98.553 Q1058.1 96.8978 1056.87 95.8603 Q1055.63 94.8228 1053.8 94.8228 Q1052.99 94.8228 1052.1 95.1686 Q1051.23 95.5145 1050.17 96.3544 Q1049.11 97.1943 1048.37 99.0964 Q1047.63 100.999 1047.53 103.617 Z" fill="#000000" fill-rule="nonzero" fill-opacity="1" /><path clip-path="url(#clip550)" d="M1065.73 116.364 L1065.73 114.808 Q1068.43 114.808 1069.04 114.487 Q1069.69 114.141 1069.69 112.51 L1069.69 98.9482 Q1069.69 97.0708 1069.02 96.6014 Q1068.38 96.132 1065.73 96.132 L1065.73 94.551 L1072.77 94.0076 L1072.77 99.5658 Q1073.49 97.3919 1075 95.7121 Q1076.53 94.0076 1079 94.0076 Q1080.63 94.0076 1081.67 94.9216 Q1082.73 95.8356 1082.73 97.0955 Q1082.73 98.2071 1082.04 98.7753 Q1081.37 99.3188 1080.56 99.3188 Q1079.64 99.3188 1079 98.7506 Q1078.38 98.1577 1078.38 97.1449 Q1078.38 96.5273 1078.65 96.0579 Q1078.95 95.5639 1079.17 95.3909 Q1079.39 95.218 1079.54 95.1686 Q1079.44 95.1192 1079 95.1192 Q1076.21 95.1192 1074.6 97.9107 Q1073.02 100.677 1073.02 104.63 L1073.02 112.412 Q1073.02 113.869 1073.61 114.338 Q1074.23 114.808 1076.87 114.808 L1077.94 114.808 L1077.94 116.364 Q1075.91 116.216 1071.51 116.216 Q1070.9 116.216 1069.93 116.241 Q1068.97 116.265 1067.71 116.315 Q1066.45 116.364 1065.73 116.364 Z" fill="#000000" fill-rule="nonzero" fill-opacity="1" /></svg>
