<?xml version="1.0" encoding="utf-8"?>
<svg xmlns="http://www.w3.org/2000/svg" xmlns:xlink="http://www.w3.org/1999/xlink" width="300" height="200" viewBox="0 0 1200 800">
<defs>
  <clipPath id="clip220">
    <rect x="0" y="0" width="1200" height="800"/>
  </clipPath>
</defs>
<path clip-path="url(#clip220)" d="M0 800 L1200 800 L1200 0 L0 0  Z" fill="#ffffff" fill-rule="evenodd" fill-opacity="1"/>
<defs>
  <clipPath id="clip221">
    <rect x="240" y="0" width="841" height="800"/>
  </clipPath>
</defs>
<path clip-path="url(#clip220)" d="M223.339 694.448 L1152.76 694.448 L1152.76 68.8176 L223.339 68.8176  Z" fill="#ffffff" fill-rule="evenodd" fill-opacity="1"/>
<defs>
  <clipPath id="clip222">
    <rect x="223" y="68" width="930" height="627"/>
  </clipPath>
</defs>
<polyline clip-path="url(#clip222)" style="stroke:#000000; stroke-linecap:round; stroke-linejoin:round; stroke-width:2; stroke-opacity:0.1; fill:none" points="343.39,694.448 343.39,68.8176 "/>
<polyline clip-path="url(#clip222)" style="stroke:#000000; stroke-linecap:round; stroke-linejoin:round; stroke-width:2; stroke-opacity:0.1; fill:none" points="688.047,694.448 688.047,68.8176 "/>
<polyline clip-path="url(#clip222)" style="stroke:#000000; stroke-linecap:round; stroke-linejoin:round; stroke-width:2; stroke-opacity:0.1; fill:none" points="1032.7,694.448 1032.7,68.8176 "/>
<polyline clip-path="url(#clip220)" style="stroke:#000000; stroke-linecap:round; stroke-linejoin:round; stroke-width:4; stroke-opacity:1; fill:none" points="223.339,694.448 1152.76,694.448 "/>
<polyline clip-path="url(#clip220)" style="stroke:#000000; stroke-linecap:round; stroke-linejoin:round; stroke-width:4; stroke-opacity:1; fill:none" points="343.39,694.448 343.39,676.18 "/>
<polyline clip-path="url(#clip220)" style="stroke:#000000; stroke-linecap:round; stroke-linejoin:round; stroke-width:4; stroke-opacity:1; fill:none" points="688.047,694.448 688.047,676.18 "/>
<polyline clip-path="url(#clip220)" style="stroke:#000000; stroke-linecap:round; stroke-linejoin:round; stroke-width:4; stroke-opacity:1; fill:none" points="1032.7,694.448 1032.7,676.18 "/>
<path clip-path="url(#clip220)" d="M195.849 747.248 L195.849 745.692 L197.059 745.692 Q199.801 745.692 200.419 745.247 Q201.061 744.778 201.061 743.295 L201.061 716.64 Q201.061 715.183 200.419 714.738 Q199.777 714.269 197.059 714.269 L195.849 714.269 L195.849 712.688 L214.352 712.688 Q220.824 712.688 225.32 717.851 Q229.841 723.014 229.841 730.252 Q229.841 737.342 225.295 742.307 Q220.775 747.248 214.352 747.248 L195.849 747.248 M205.409 743.666 Q205.409 744.975 205.78 745.346 Q206.15 745.692 207.879 745.692 L212.993 745.692 Q216.328 745.692 218.576 744.333 Q220.824 742.949 221.985 741.368 Q224.776 737.564 224.776 730.252 Q224.776 722.569 222.158 718.963 Q218.774 714.269 212.944 714.269 L207.879 714.269 Q206.15 714.269 205.78 714.615 Q205.409 714.961 205.409 716.295 L205.409 743.666 Z" fill="#000000" fill-rule="nonzero" fill-opacity="1" /><path clip-path="url(#clip220)" d="M234.065 736.107 Q234.065 731.339 237.128 727.955 Q240.191 724.57 244.589 724.57 Q249.035 724.57 251.333 727.46 Q253.655 730.351 253.655 734.501 Q253.655 735.267 253.457 735.415 Q253.259 735.563 252.395 735.563 L238.265 735.563 Q238.265 740.726 239.796 743.147 Q241.921 746.531 245.503 746.531 Q245.997 746.531 246.59 746.433 Q247.182 746.334 248.393 745.914 Q249.603 745.469 250.666 744.308 Q251.728 743.147 252.345 741.319 Q252.494 740.603 252.988 740.627 Q253.655 740.627 253.655 741.22 Q253.655 741.665 253.161 742.678 Q252.691 743.666 251.777 744.852 Q250.863 746.037 249.085 746.927 Q247.331 747.816 245.206 747.816 Q240.76 747.816 237.4 744.456 Q234.065 741.072 234.065 736.107 M238.314 734.501 L250.32 734.501 Q250.32 733.439 250.122 732.253 Q249.949 731.067 249.406 729.437 Q248.887 727.782 247.652 726.744 Q246.417 725.707 244.589 725.707 Q243.773 725.707 242.884 726.052 Q242.019 726.398 240.957 727.238 Q239.895 728.078 239.154 729.98 Q238.413 731.882 238.314 734.501 Z" fill="#000000" fill-rule="nonzero" fill-opacity="1" /><path clip-path="url(#clip220)" d="M260.053 744.481 Q256.841 741.121 256.841 736.329 Q256.841 731.512 260.003 728.053 Q263.165 724.57 267.81 724.57 Q270.898 724.57 273.22 726.052 Q275.542 727.51 275.542 730.005 Q275.542 731.117 274.875 731.759 Q274.233 732.376 273.22 732.376 Q272.158 732.376 271.515 731.734 Q270.898 731.067 270.898 730.054 Q270.898 729.61 271.046 729.165 Q271.194 728.72 271.738 728.251 Q272.306 727.782 273.269 727.708 Q271.466 725.855 267.958 725.855 Q267.909 725.855 267.859 725.855 Q265.29 725.855 263.165 728.276 Q261.041 730.697 261.041 736.23 Q261.041 739.12 261.733 741.245 Q262.449 743.345 263.61 744.432 Q264.771 745.519 265.908 746.037 Q267.044 746.531 268.156 746.531 Q273.121 746.531 274.801 741.22 Q274.949 740.726 275.443 740.726 Q276.11 740.726 276.11 741.22 Q276.11 741.467 275.912 742.11 Q275.715 742.752 275.097 743.765 Q274.48 744.778 273.59 745.667 Q272.726 746.531 271.169 747.174 Q269.638 747.816 267.711 747.816 Q263.264 747.816 260.053 744.481 Z" fill="#000000" fill-rule="nonzero" fill-opacity="1" /><path clip-path="url(#clip220)" d="M278.976 736.107 Q278.976 731.339 282.039 727.955 Q285.102 724.57 289.499 724.57 Q293.946 724.57 296.243 727.46 Q298.565 730.351 298.565 734.501 Q298.565 735.267 298.368 735.415 Q298.17 735.563 297.306 735.563 L283.175 735.563 Q283.175 740.726 284.707 743.147 Q286.831 746.531 290.413 746.531 Q290.907 746.531 291.5 746.433 Q292.093 746.334 293.304 745.914 Q294.514 745.469 295.576 744.308 Q296.639 743.147 297.256 741.319 Q297.404 740.603 297.898 740.627 Q298.565 740.627 298.565 741.22 Q298.565 741.665 298.071 742.678 Q297.602 743.666 296.688 744.852 Q295.774 746.037 293.995 746.927 Q292.241 747.816 290.117 747.816 Q285.67 747.816 282.311 744.456 Q278.976 741.072 278.976 736.107 M283.225 734.501 L295.23 734.501 Q295.23 733.439 295.033 732.253 Q294.86 731.067 294.316 729.437 Q293.798 727.782 292.562 726.744 Q291.327 725.707 289.499 725.707 Q288.684 725.707 287.795 726.052 Q286.93 726.398 285.868 727.238 Q284.806 728.078 284.065 729.98 Q283.323 731.882 283.225 734.501 Z" fill="#000000" fill-rule="nonzero" fill-opacity="1" /><path clip-path="url(#clip220)" d="M301.653 747.248 L301.653 745.692 Q304.346 745.692 304.964 745.37 Q305.581 745.025 305.581 743.394 L305.581 729.832 Q305.581 727.955 304.914 727.485 Q304.272 727.016 301.653 727.016 L301.653 725.435 L308.768 724.891 L308.768 730.203 Q311.139 724.891 316.253 724.891 Q320.057 724.891 321.564 726.769 Q322.676 728.029 322.898 729.437 Q323.145 730.845 323.145 734.501 L323.145 744.16 Q323.195 745.222 324.01 745.469 Q324.825 745.692 327.098 745.692 L327.098 747.248 Q321.935 747.1 321.416 747.1 Q321.021 747.1 315.71 747.248 L315.71 745.692 Q318.402 745.692 319.02 745.37 Q319.662 745.025 319.662 743.394 L319.662 731.611 Q319.662 729.041 318.872 727.535 Q318.081 726.003 315.907 726.003 Q313.289 726.003 311.189 728.202 Q309.089 730.4 309.089 734.106 L309.089 743.394 Q309.089 745.025 309.707 745.37 Q310.349 745.692 313.017 745.692 L313.017 747.248 Q307.854 747.1 307.36 747.1 Q306.965 747.1 301.653 747.248 Z" fill="#000000" fill-rule="nonzero" fill-opacity="1" /><path clip-path="url(#clip220)" d="M327.641 727.016 L327.641 725.904 Q329.963 725.805 331.495 724.175 Q333.051 722.52 333.57 720.494 Q334.114 718.468 334.163 716.122 L335.423 716.122 L335.423 725.435 L342.661 725.435 L342.661 727.016 L335.423 727.016 L335.423 741.072 Q335.423 746.531 338.832 746.531 Q340.289 746.531 341.253 745.049 Q342.216 743.542 342.216 740.874 L342.216 738.083 L343.476 738.083 L343.476 740.973 Q343.476 743.715 342.216 745.766 Q340.956 747.816 338.461 747.816 Q337.547 747.816 336.633 747.569 Q335.744 747.347 334.558 746.754 Q333.397 746.136 332.656 744.654 Q331.94 743.147 331.94 740.973 L331.94 727.016 L327.641 727.016 Z" fill="#000000" fill-rule="nonzero" fill-opacity="1" /><path clip-path="url(#clip220)" d="M347.7 747.248 L347.7 745.692 Q350.393 745.692 351.011 745.37 Q351.653 745.025 351.653 743.394 L351.653 729.832 Q351.653 727.955 350.986 727.485 Q350.344 727.016 347.7 727.016 L347.7 725.435 L354.741 724.891 L354.741 730.45 Q355.457 728.276 356.964 726.596 Q358.496 724.891 360.966 724.891 Q362.597 724.891 363.634 725.805 Q364.696 726.719 364.696 727.979 Q364.696 729.091 364.005 729.659 Q363.338 730.203 362.522 730.203 Q361.608 730.203 360.966 729.634 Q360.349 729.041 360.349 728.029 Q360.349 727.411 360.62 726.942 Q360.917 726.448 361.139 726.275 Q361.361 726.102 361.51 726.052 Q361.411 726.003 360.966 726.003 Q358.175 726.003 356.569 728.794 Q354.988 731.561 354.988 735.514 L354.988 743.295 Q354.988 744.753 355.581 745.222 Q356.198 745.692 358.842 745.692 L359.904 745.692 L359.904 747.248 Q357.878 747.1 353.481 747.1 Q352.863 747.1 351.9 747.124 Q350.937 747.149 349.677 747.198 Q348.417 747.248 347.7 747.248 Z" fill="#000000" fill-rule="nonzero" fill-opacity="1" /><path clip-path="url(#clip220)" d="M368.179 742.431 Q368.179 738.132 373.244 735.86 Q376.282 734.402 382.557 734.032 L382.557 732.179 Q382.557 729.041 380.902 727.386 Q379.271 725.707 377.196 725.707 Q373.491 725.707 371.712 728.029 Q373.219 728.078 373.762 728.844 Q374.306 729.585 374.306 730.351 Q374.306 731.364 373.664 732.031 Q373.046 732.673 371.984 732.673 Q370.971 732.673 370.304 732.055 Q369.637 731.413 369.637 730.301 Q369.637 727.831 371.86 726.201 Q374.108 724.57 377.295 724.57 Q381.445 724.57 384.212 727.362 Q385.077 728.226 385.497 729.338 Q385.941 730.45 385.991 731.191 Q386.04 731.907 386.04 733.34 L386.04 743.444 Q386.04 743.74 386.139 744.234 Q386.238 744.728 386.682 745.37 Q387.152 745.988 387.917 745.988 Q389.746 745.988 389.721 742.752 L389.721 739.911 L391.005 739.911 L391.005 742.752 Q391.005 745.445 389.573 746.507 Q388.164 747.544 386.855 747.544 Q385.175 747.544 384.113 746.309 Q383.051 745.074 382.903 743.394 Q382.137 745.321 380.383 746.581 Q378.654 747.816 376.282 747.816 Q374.454 747.816 372.725 747.347 Q371.02 746.902 369.588 745.642 Q368.179 744.358 368.179 742.431 M372.083 742.381 Q372.083 744.259 373.417 745.469 Q374.751 746.68 376.628 746.68 Q378.753 746.68 380.655 745.049 Q382.557 743.394 382.557 740.158 L382.557 735.094 Q376.949 735.291 374.504 737.539 Q372.083 739.763 372.083 742.381 Z" fill="#000000" fill-rule="nonzero" fill-opacity="1" /><path clip-path="url(#clip220)" d="M393.031 747.248 L393.031 745.692 Q395.724 745.692 396.341 745.37 Q396.959 745.025 396.959 743.394 L396.959 717.085 Q396.959 715.208 396.292 714.738 Q395.65 714.269 393.031 714.269 L393.031 712.688 L400.294 712.144 L400.294 743.394 Q400.294 745.025 400.936 745.37 Q401.578 745.692 404.246 745.692 L404.246 747.248 Q403.629 747.248 402.344 747.198 Q401.06 747.149 400.121 747.124 Q399.182 747.1 398.639 747.1 Q398.046 747.1 393.031 747.248 Z" fill="#000000" fill-rule="nonzero" fill-opacity="1" /><path clip-path="url(#clip220)" d="M407.038 747.248 L407.038 745.692 Q409.731 745.692 410.348 745.37 Q410.966 745.025 410.966 743.394 L410.966 729.783 Q410.966 727.905 410.323 727.46 Q409.706 727.016 407.235 727.016 L407.235 725.435 L414.301 724.891 L414.301 743.444 Q414.301 744.95 414.844 745.321 Q415.388 745.692 417.858 745.692 L417.858 747.248 Q412.695 747.1 412.596 747.1 Q411.904 747.1 407.038 747.248 M409.162 716.072 Q409.162 715.059 409.928 714.244 Q410.719 713.404 411.83 713.404 Q412.942 713.404 413.732 714.17 Q414.523 714.911 414.523 716.097 Q414.523 717.258 413.732 718.024 Q412.942 718.765 411.83 718.765 Q410.669 718.765 409.903 717.95 Q409.162 717.134 409.162 716.072 Z" fill="#000000" fill-rule="nonzero" fill-opacity="1" /><path clip-path="url(#clip220)" d="M420.773 746.531 Q420.773 746.186 421.242 745.617 L435.348 726.546 L429.592 726.546 Q425.59 726.546 424.281 728.029 Q422.996 729.486 422.749 733.587 L421.489 733.587 L422.057 725.435 L438.238 725.435 Q438.806 725.435 439.029 725.46 Q439.251 725.484 439.399 725.657 Q439.547 725.805 439.547 726.102 Q439.547 726.398 439.103 726.966 L425.022 745.988 L431 745.988 Q435.2 745.988 436.608 744.234 Q438.041 742.48 438.386 737.786 L439.646 737.786 L438.782 747.248 L422.107 747.248 Q421.292 747.248 421.02 747.149 Q420.773 747.026 420.773 746.531 Z" fill="#000000" fill-rule="nonzero" fill-opacity="1" /><path clip-path="url(#clip220)" d="M443.228 736.107 Q443.228 731.339 446.291 727.955 Q449.355 724.57 453.752 724.57 Q458.199 724.57 460.496 727.46 Q462.818 730.351 462.818 734.501 Q462.818 735.267 462.62 735.415 Q462.423 735.563 461.558 735.563 L447.428 735.563 Q447.428 740.726 448.959 743.147 Q451.084 746.531 454.666 746.531 Q455.16 746.531 455.753 746.433 Q456.346 746.334 457.556 745.914 Q458.767 745.469 459.829 744.308 Q460.891 743.147 461.509 741.319 Q461.657 740.603 462.151 740.627 Q462.818 740.627 462.818 741.22 Q462.818 741.665 462.324 742.678 Q461.855 743.666 460.941 744.852 Q460.027 746.037 458.248 746.927 Q456.494 747.816 454.369 747.816 Q449.923 747.816 446.563 744.456 Q443.228 741.072 443.228 736.107 M447.477 734.501 L459.483 734.501 Q459.483 733.439 459.285 732.253 Q459.113 731.067 458.569 729.437 Q458.05 727.782 456.815 726.744 Q455.58 725.707 453.752 725.707 Q452.937 725.707 452.047 726.052 Q451.183 726.398 450.121 727.238 Q449.058 728.078 448.317 729.98 Q447.576 731.882 447.477 734.501 Z" fill="#000000" fill-rule="nonzero" fill-opacity="1" /><path clip-path="url(#clip220)" d="M466.005 736.378 Q466.005 731.561 469.364 728.226 Q472.724 724.891 477.27 724.891 Q481.123 724.891 483.643 728.029 L483.643 717.085 Q483.643 715.208 482.976 714.738 Q482.334 714.269 479.715 714.269 L479.715 712.688 L487.003 712.144 L487.003 742.851 Q487.003 744.728 487.645 745.222 Q488.312 745.692 490.93 745.692 L490.93 747.248 L483.495 747.816 L483.495 744.456 Q480.876 747.791 476.726 747.816 Q472.378 747.816 469.192 744.481 Q466.005 741.146 466.005 736.378 M470.204 736.428 Q470.204 741.121 471.662 743.444 Q473.688 746.68 476.973 746.68 Q480.728 746.68 482.951 743.147 Q483.519 742.282 483.495 741.27 L483.495 730.894 Q483.495 729.881 482.951 729.041 Q480.876 726.003 477.492 726.003 Q473.959 726.003 471.761 729.239 Q470.204 731.66 470.204 736.428 Z" fill="#000000" fill-rule="nonzero" fill-opacity="1" /><path clip-path="url(#clip220)" d="M564.53 729.956 Q564.53 722.322 569.743 716.962 Q574.955 711.576 582.119 711.576 Q584.343 711.576 586.319 712.391 Q588.295 713.207 589.209 713.923 Q590.123 714.615 591.432 715.924 L593.977 712.194 Q594.372 711.576 594.767 711.576 Q595.187 711.576 595.261 711.823 Q595.336 712.046 595.336 712.787 L595.336 724.793 Q595.336 725.608 595.237 725.805 Q595.138 726.003 594.52 726.003 Q594.026 726.003 593.903 725.855 Q593.804 725.707 593.705 725.138 Q592.939 719.679 589.901 716.418 Q586.887 713.157 582.687 713.157 Q581.477 713.157 580.118 713.429 Q578.784 713.701 576.833 714.738 Q574.906 715.776 573.399 717.505 Q571.917 719.21 570.83 722.47 Q569.743 725.707 569.743 730.005 Q569.743 734.254 570.83 737.515 Q571.917 740.776 573.399 742.48 Q574.906 744.16 576.833 745.197 Q578.784 746.235 580.143 746.531 Q581.526 746.803 582.737 746.803 Q587.085 746.803 590.42 743.715 Q593.754 740.627 594.076 735.415 Q594.125 735.168 594.125 735.069 Q594.125 734.946 594.174 734.822 Q594.224 734.699 594.347 734.649 Q594.471 734.6 594.669 734.6 Q595.336 734.6 595.336 735.464 Q595.336 740.282 591.63 744.333 Q587.949 748.36 582.119 748.36 Q574.931 748.36 569.718 743.024 Q564.53 737.688 564.53 729.956 Z" fill="#000000" fill-rule="nonzero" fill-opacity="1" /><path clip-path="url(#clip220)" d="M599.609 736.107 Q599.609 731.339 602.672 727.955 Q605.736 724.57 610.133 724.57 Q614.579 724.57 616.877 727.46 Q619.199 730.351 619.199 734.501 Q619.199 735.267 619.001 735.415 Q618.804 735.563 617.939 735.563 L603.809 735.563 Q603.809 740.726 605.34 743.147 Q607.465 746.531 611.047 746.531 Q611.541 746.531 612.134 746.433 Q612.727 746.334 613.937 745.914 Q615.148 745.469 616.21 744.308 Q617.272 743.147 617.89 741.319 Q618.038 740.603 618.532 740.627 Q619.199 740.627 619.199 741.22 Q619.199 741.665 618.705 742.678 Q618.236 743.666 617.321 744.852 Q616.407 746.037 614.629 746.927 Q612.875 747.816 610.75 747.816 Q606.304 747.816 602.944 744.456 Q599.609 741.072 599.609 736.107 M603.858 734.501 L615.864 734.501 Q615.864 733.439 615.666 732.253 Q615.493 731.067 614.95 729.437 Q614.431 727.782 613.196 726.744 Q611.961 725.707 610.133 725.707 Q609.318 725.707 608.428 726.052 Q607.564 726.398 606.501 727.238 Q605.439 728.078 604.698 729.98 Q603.957 731.882 603.858 734.501 Z" fill="#000000" fill-rule="nonzero" fill-opacity="1" /><path clip-path="url(#clip220)" d="M622.287 747.248 L622.287 745.692 Q624.98 745.692 625.597 745.37 Q626.215 745.025 626.215 743.394 L626.215 729.832 Q626.215 727.955 625.548 727.485 Q624.905 727.016 622.287 727.016 L622.287 725.435 L629.401 724.891 L629.401 730.203 Q631.773 724.891 636.887 724.891 Q640.691 724.891 642.198 726.769 Q643.309 728.029 643.532 729.437 Q643.779 730.845 643.779 734.501 L643.779 744.16 Q643.828 745.222 644.643 745.469 Q645.459 745.692 647.731 745.692 L647.731 747.248 Q642.568 747.1 642.05 747.1 Q641.654 747.1 636.343 747.248 L636.343 745.692 Q639.036 745.692 639.653 745.37 Q640.296 745.025 640.296 743.394 L640.296 731.611 Q640.296 729.041 639.505 727.535 Q638.715 726.003 636.541 726.003 Q633.922 726.003 631.822 728.202 Q629.723 730.4 629.723 734.106 L629.723 743.394 Q629.723 745.025 630.34 745.37 Q630.982 745.692 633.65 745.692 L633.65 747.248 Q628.487 747.1 627.993 747.1 Q627.598 747.1 622.287 747.248 Z" fill="#000000" fill-rule="nonzero" fill-opacity="1" /><path clip-path="url(#clip220)" d="M648.275 727.016 L648.275 725.904 Q650.597 725.805 652.129 724.175 Q653.685 722.52 654.204 720.494 Q654.747 718.468 654.796 716.122 L656.056 716.122 L656.056 725.435 L663.294 725.435 L663.294 727.016 L656.056 727.016 L656.056 741.072 Q656.056 746.531 659.465 746.531 Q660.923 746.531 661.886 745.049 Q662.85 743.542 662.85 740.874 L662.85 738.083 L664.11 738.083 L664.11 740.973 Q664.11 743.715 662.85 745.766 Q661.59 747.816 659.095 747.816 Q658.181 747.816 657.267 747.569 Q656.378 747.347 655.192 746.754 Q654.031 746.136 653.29 744.654 Q652.573 743.147 652.573 740.973 L652.573 727.016 L648.275 727.016 Z" fill="#000000" fill-rule="nonzero" fill-opacity="1" /><path clip-path="url(#clip220)" d="M668.334 747.248 L668.334 745.692 Q671.027 745.692 671.644 745.37 Q672.286 745.025 672.286 743.394 L672.286 729.832 Q672.286 727.955 671.619 727.485 Q670.977 727.016 668.334 727.016 L668.334 725.435 L675.374 724.891 L675.374 730.45 Q676.091 728.276 677.598 726.596 Q679.129 724.891 681.6 724.891 Q683.23 724.891 684.268 725.805 Q685.33 726.719 685.33 727.979 Q685.33 729.091 684.638 729.659 Q683.971 730.203 683.156 730.203 Q682.242 730.203 681.6 729.634 Q680.982 729.041 680.982 728.029 Q680.982 727.411 681.254 726.942 Q681.55 726.448 681.773 726.275 Q681.995 726.102 682.143 726.052 Q682.044 726.003 681.6 726.003 Q678.808 726.003 677.202 728.794 Q675.621 731.561 675.621 735.514 L675.621 743.295 Q675.621 744.753 676.214 745.222 Q676.832 745.692 679.475 745.692 L680.537 745.692 L680.537 747.248 Q678.512 747.1 674.115 747.1 Q673.497 747.1 672.534 747.124 Q671.57 747.149 670.31 747.198 Q669.05 747.248 668.334 747.248 Z" fill="#000000" fill-rule="nonzero" fill-opacity="1" /><path clip-path="url(#clip220)" d="M688.813 742.431 Q688.813 738.132 693.877 735.86 Q696.916 734.402 703.19 734.032 L703.19 732.179 Q703.19 729.041 701.535 727.386 Q699.905 725.707 697.83 725.707 Q694.124 725.707 692.346 728.029 Q693.853 728.078 694.396 728.844 Q694.939 729.585 694.939 730.351 Q694.939 731.364 694.297 732.031 Q693.68 732.673 692.617 732.673 Q691.605 732.673 690.938 732.055 Q690.271 731.413 690.271 730.301 Q690.271 727.831 692.494 726.201 Q694.742 724.57 697.929 724.57 Q702.079 724.57 704.846 727.362 Q705.71 728.226 706.13 729.338 Q706.575 730.45 706.624 731.191 Q706.674 731.907 706.674 733.34 L706.674 743.444 Q706.674 743.74 706.772 744.234 Q706.871 744.728 707.316 745.37 Q707.785 745.988 708.551 745.988 Q710.379 745.988 710.354 742.752 L710.354 739.911 L711.639 739.911 L711.639 742.752 Q711.639 745.445 710.206 746.507 Q708.798 747.544 707.489 747.544 Q705.809 747.544 704.747 746.309 Q703.684 745.074 703.536 743.394 Q702.77 745.321 701.016 746.581 Q699.287 747.816 696.916 747.816 Q695.088 747.816 693.358 747.347 Q691.654 746.902 690.221 745.642 Q688.813 744.358 688.813 742.431 M692.716 742.381 Q692.716 744.259 694.05 745.469 Q695.384 746.68 697.262 746.68 Q699.386 746.68 701.288 745.049 Q703.19 743.394 703.19 740.158 L703.19 735.094 Q697.583 735.291 695.137 737.539 Q692.716 739.763 692.716 742.381 Z" fill="#000000" fill-rule="nonzero" fill-opacity="1" /><path clip-path="url(#clip220)" d="M713.665 747.248 L713.665 745.692 Q716.357 745.692 716.975 745.37 Q717.592 745.025 717.592 743.394 L717.592 717.085 Q717.592 715.208 716.925 714.738 Q716.283 714.269 713.665 714.269 L713.665 712.688 L720.927 712.144 L720.927 743.394 Q720.927 745.025 721.57 745.37 Q722.212 745.692 724.88 745.692 L724.88 747.248 Q724.262 747.248 722.978 747.198 Q721.693 747.149 720.754 747.124 Q719.816 747.1 719.272 747.1 Q718.679 747.1 713.665 747.248 Z" fill="#000000" fill-rule="nonzero" fill-opacity="1" /><path clip-path="url(#clip220)" d="M727.671 747.248 L727.671 745.692 Q730.364 745.692 730.982 745.37 Q731.599 745.025 731.599 743.394 L731.599 729.783 Q731.599 727.905 730.957 727.46 Q730.339 727.016 727.869 727.016 L727.869 725.435 L734.934 724.891 L734.934 743.444 Q734.934 744.95 735.478 745.321 Q736.021 745.692 738.491 745.692 L738.491 747.248 Q733.328 747.1 733.23 747.1 Q732.538 747.1 727.671 747.248 M729.796 716.072 Q729.796 715.059 730.562 714.244 Q731.352 713.404 732.464 713.404 Q733.576 713.404 734.366 714.17 Q735.157 714.911 735.157 716.097 Q735.157 717.258 734.366 718.024 Q733.576 718.765 732.464 718.765 Q731.303 718.765 730.537 717.95 Q729.796 717.134 729.796 716.072 Z" fill="#000000" fill-rule="nonzero" fill-opacity="1" /><path clip-path="url(#clip220)" d="M741.406 746.531 Q741.406 746.186 741.876 745.617 L755.981 726.546 L750.226 726.546 Q746.224 726.546 744.914 728.029 Q743.63 729.486 743.383 733.587 L742.123 733.587 L742.691 725.435 L758.872 725.435 Q759.44 725.435 759.662 725.46 Q759.885 725.484 760.033 725.657 Q760.181 725.805 760.181 726.102 Q760.181 726.398 759.736 726.966 L745.655 745.988 L751.634 745.988 Q755.833 745.988 757.241 744.234 Q758.674 742.48 759.02 737.786 L760.28 737.786 L759.415 747.248 L742.74 747.248 Q741.925 747.248 741.654 747.149 Q741.406 747.026 741.406 746.531 Z" fill="#000000" fill-rule="nonzero" fill-opacity="1" /><path clip-path="url(#clip220)" d="M763.862 736.107 Q763.862 731.339 766.925 727.955 Q769.988 724.57 774.385 724.57 Q778.832 724.57 781.129 727.46 Q783.452 730.351 783.452 734.501 Q783.452 735.267 783.254 735.415 Q783.056 735.563 782.192 735.563 L768.061 735.563 Q768.061 740.726 769.593 743.147 Q771.717 746.531 775.299 746.531 Q775.794 746.531 776.386 746.433 Q776.979 746.334 778.19 745.914 Q779.4 745.469 780.462 744.308 Q781.525 743.147 782.142 741.319 Q782.291 740.603 782.785 740.627 Q783.452 740.627 783.452 741.22 Q783.452 741.665 782.958 742.678 Q782.488 743.666 781.574 744.852 Q780.66 746.037 778.881 746.927 Q777.128 747.816 775.003 747.816 Q770.556 747.816 767.197 744.456 Q763.862 741.072 763.862 736.107 M768.111 734.501 L780.117 734.501 Q780.117 733.439 779.919 732.253 Q779.746 731.067 779.203 729.437 Q778.684 727.782 777.449 726.744 Q776.214 725.707 774.385 725.707 Q773.57 725.707 772.681 726.052 Q771.816 726.398 770.754 727.238 Q769.692 728.078 768.951 729.98 Q768.21 731.882 768.111 734.501 Z" fill="#000000" fill-rule="nonzero" fill-opacity="1" /><path clip-path="url(#clip220)" d="M786.638 736.378 Q786.638 731.561 789.998 728.226 Q793.358 724.891 797.903 724.891 Q801.757 724.891 804.277 728.029 L804.277 717.085 Q804.277 715.208 803.61 714.738 Q802.967 714.269 800.349 714.269 L800.349 712.688 L807.636 712.144 L807.636 742.851 Q807.636 744.728 808.278 745.222 Q808.945 745.692 811.564 745.692 L811.564 747.248 L804.128 747.816 L804.128 744.456 Q801.51 747.791 797.36 747.816 Q793.012 747.816 789.825 744.481 Q786.638 741.146 786.638 736.378 M790.838 736.428 Q790.838 741.121 792.295 743.444 Q794.321 746.68 797.607 746.68 Q801.362 746.68 803.585 743.147 Q804.153 742.282 804.128 741.27 L804.128 730.894 Q804.128 729.881 803.585 729.041 Q801.51 726.003 798.125 726.003 Q794.593 726.003 792.394 729.239 Q790.838 731.66 790.838 736.428 Z" fill="#000000" fill-rule="nonzero" fill-opacity="1" /><path clip-path="url(#clip220)" d="M893.736 729.956 Q893.736 722.322 898.948 716.962 Q904.161 711.576 911.325 711.576 Q913.548 711.576 915.524 712.391 Q917.501 713.207 918.415 713.923 Q919.329 714.615 920.638 715.924 L923.182 712.194 Q923.578 711.576 923.973 711.576 Q924.393 711.576 924.467 711.823 Q924.541 712.046 924.541 712.787 L924.541 724.793 Q924.541 725.608 924.442 725.805 Q924.343 726.003 923.726 726.003 Q923.232 726.003 923.108 725.855 Q923.01 725.707 922.911 725.138 Q922.145 719.679 919.106 716.418 Q916.093 713.157 911.893 713.157 Q910.683 713.157 909.324 713.429 Q907.99 713.701 906.038 714.738 Q904.111 715.776 902.605 717.505 Q901.122 719.21 900.035 722.47 Q898.948 725.707 898.948 730.005 Q898.948 734.254 900.035 737.515 Q901.122 740.776 902.605 742.48 Q904.111 744.16 906.038 745.197 Q907.99 746.235 909.349 746.531 Q910.732 746.803 911.942 746.803 Q916.29 746.803 919.625 743.715 Q922.96 740.627 923.281 735.415 Q923.331 735.168 923.331 735.069 Q923.331 734.946 923.38 734.822 Q923.429 734.699 923.553 734.649 Q923.677 734.6 923.874 734.6 Q924.541 734.6 924.541 735.464 Q924.541 740.282 920.836 744.333 Q917.155 748.36 911.325 748.36 Q904.136 748.36 898.924 743.024 Q893.736 737.688 893.736 729.956 Z" fill="#000000" fill-rule="nonzero" fill-opacity="1" /><path clip-path="url(#clip220)" d="M932.15 744.531 Q928.815 741.22 928.815 736.428 Q928.815 731.611 932.076 728.103 Q935.361 724.57 940.055 724.57 Q944.65 724.57 947.935 728.078 Q951.245 731.561 951.245 736.428 Q951.245 741.196 947.911 744.506 Q944.6 747.816 940.005 747.816 Q935.509 747.816 932.15 744.531 M933.014 736.008 Q933.014 740.924 934.299 743.147 Q936.275 746.531 940.055 746.531 Q941.932 746.531 943.489 745.519 Q945.07 744.506 945.934 742.801 Q947.046 740.578 947.046 736.008 Q947.046 731.141 945.712 728.992 Q943.736 725.707 940.005 725.707 Q938.375 725.707 936.769 726.571 Q935.188 727.411 934.225 729.091 Q933.014 731.314 933.014 736.008 Z" fill="#000000" fill-rule="nonzero" fill-opacity="1" /><path clip-path="url(#clip220)" d="M953.197 737.836 L953.197 734.847 L966.66 734.847 L966.66 737.836 L953.197 737.836 Z" fill="#000000" fill-rule="nonzero" fill-opacity="1" /><path clip-path="url(#clip220)" d="M974.269 744.531 Q970.934 741.22 970.934 736.428 Q970.934 731.611 974.195 728.103 Q977.48 724.57 982.174 724.57 Q986.769 724.57 990.054 728.078 Q993.365 731.561 993.365 736.428 Q993.365 741.196 990.03 744.506 Q986.719 747.816 982.125 747.816 Q977.629 747.816 974.269 744.531 M975.134 736.008 Q975.134 740.924 976.418 743.147 Q978.394 746.531 982.174 746.531 Q984.052 746.531 985.608 745.519 Q987.189 744.506 988.053 742.801 Q989.165 740.578 989.165 736.008 Q989.165 731.141 987.831 728.992 Q985.855 725.707 982.125 725.707 Q980.494 725.707 978.889 726.571 Q977.307 727.411 976.344 729.091 Q975.134 731.314 975.134 736.008 Z" fill="#000000" fill-rule="nonzero" fill-opacity="1" /><path clip-path="url(#clip220)" d="M996.23 755.499 Q998.923 755.499 999.541 755.153 Q1000.18 754.832 1000.18 753.226 L1000.18 729.536 Q1000.18 727.856 999.541 727.436 Q998.923 727.016 996.23 727.016 L996.23 725.435 L1003.52 724.891 L1003.52 728.226 Q1006.56 724.891 1010.61 724.891 Q1014.91 724.891 1018.04 728.226 Q1021.18 731.561 1021.18 736.329 Q1021.18 741.146 1017.85 744.481 Q1014.51 747.816 1009.89 747.816 Q1007.37 747.816 1005.67 746.531 Q1003.99 745.222 1003.67 744.259 L1003.67 744.728 L1003.67 753.226 Q1003.67 754.857 1004.31 755.178 Q1004.95 755.499 1007.62 755.499 L1007.62 757.055 Q1002.31 756.907 1001.91 756.907 Q1001.42 756.907 996.23 757.055 L996.23 755.499 M1003.67 741.492 Q1003.67 742.258 1003.76 742.53 Q1003.89 742.801 1004.38 743.616 Q1006.38 746.68 1009.64 746.68 Q1009.67 746.68 1009.69 746.68 Q1012.58 746.68 1014.78 743.74 Q1016.98 740.776 1016.98 736.329 Q1016.98 732.08 1014.98 729.116 Q1012.98 726.151 1010.21 726.151 Q1008.24 726.151 1006.51 727.213 Q1004.78 728.276 1003.67 730.203 L1003.67 741.492 Z" fill="#000000" fill-rule="nonzero" fill-opacity="1" /><path clip-path="url(#clip220)" d="M1025.7 736.107 Q1025.7 731.339 1028.76 727.955 Q1031.83 724.57 1036.23 724.57 Q1040.67 724.57 1042.97 727.46 Q1045.29 730.351 1045.29 734.501 Q1045.29 735.267 1045.09 735.415 Q1044.9 735.563 1044.03 735.563 L1029.9 735.563 Q1029.9 740.726 1031.43 743.147 Q1033.56 746.531 1037.14 746.531 Q1037.63 746.531 1038.23 746.433 Q1038.82 746.334 1040.03 745.914 Q1041.24 745.469 1042.3 744.308 Q1043.36 743.147 1043.98 741.319 Q1044.13 740.603 1044.62 740.627 Q1045.29 740.627 1045.29 741.22 Q1045.29 741.665 1044.8 742.678 Q1044.33 743.666 1043.41 744.852 Q1042.5 746.037 1040.72 746.927 Q1038.97 747.816 1036.84 747.816 Q1032.4 747.816 1029.04 744.456 Q1025.7 741.072 1025.7 736.107 M1029.95 734.501 L1041.96 734.501 Q1041.96 733.439 1041.76 732.253 Q1041.59 731.067 1041.04 729.437 Q1040.52 727.782 1039.29 726.744 Q1038.05 725.707 1036.23 725.707 Q1035.41 725.707 1034.52 726.052 Q1033.66 726.398 1032.59 727.238 Q1031.53 728.078 1030.79 729.98 Q1030.05 731.882 1029.95 734.501 Z" fill="#000000" fill-rule="nonzero" fill-opacity="1" /><path clip-path="url(#clip220)" d="M1048.16 747.248 L1048.16 745.692 Q1050.85 745.692 1051.47 745.37 Q1052.11 745.025 1052.11 743.394 L1052.11 729.832 Q1052.11 727.955 1051.44 727.485 Q1050.8 727.016 1048.16 727.016 L1048.16 725.435 L1055.2 724.891 L1055.2 730.45 Q1055.91 728.276 1057.42 726.596 Q1058.95 724.891 1061.42 724.891 Q1063.05 724.891 1064.09 725.805 Q1065.15 726.719 1065.15 727.979 Q1065.15 729.091 1064.46 729.659 Q1063.79 730.203 1062.98 730.203 Q1062.06 730.203 1061.42 729.634 Q1060.8 729.041 1060.8 728.029 Q1060.8 727.411 1061.08 726.942 Q1061.37 726.448 1061.6 726.275 Q1061.82 726.102 1061.97 726.052 Q1061.87 726.003 1061.42 726.003 Q1058.63 726.003 1057.03 728.794 Q1055.44 731.561 1055.44 735.514 L1055.44 743.295 Q1055.44 744.753 1056.04 745.222 Q1056.65 745.692 1059.3 745.692 L1060.36 745.692 L1060.36 747.248 Q1058.33 747.1 1053.94 747.1 Q1053.32 747.1 1052.36 747.124 Q1051.39 747.149 1050.13 747.198 Q1048.87 747.248 1048.16 747.248 Z" fill="#000000" fill-rule="nonzero" fill-opacity="1" /><path clip-path="url(#clip220)" d="M1068.64 742.431 Q1068.64 738.132 1073.7 735.86 Q1076.74 734.402 1083.01 734.032 L1083.01 732.179 Q1083.01 729.041 1081.36 727.386 Q1079.73 725.707 1077.65 725.707 Q1073.95 725.707 1072.17 728.029 Q1073.68 728.078 1074.22 728.844 Q1074.76 729.585 1074.76 730.351 Q1074.76 731.364 1074.12 732.031 Q1073.5 732.673 1072.44 732.673 Q1071.43 732.673 1070.76 732.055 Q1070.09 731.413 1070.09 730.301 Q1070.09 727.831 1072.32 726.201 Q1074.56 724.57 1077.75 724.57 Q1081.9 724.57 1084.67 727.362 Q1085.53 728.226 1085.95 729.338 Q1086.4 730.45 1086.45 731.191 Q1086.5 731.907 1086.5 733.34 L1086.5 743.444 Q1086.5 743.74 1086.6 744.234 Q1086.69 744.728 1087.14 745.37 Q1087.61 745.988 1088.37 745.988 Q1090.2 745.988 1090.18 742.752 L1090.18 739.911 L1091.46 739.911 L1091.46 742.752 Q1091.46 745.445 1090.03 746.507 Q1088.62 747.544 1087.31 747.544 Q1085.63 747.544 1084.57 746.309 Q1083.51 745.074 1083.36 743.394 Q1082.59 745.321 1080.84 746.581 Q1079.11 747.816 1076.74 747.816 Q1074.91 747.816 1073.18 747.347 Q1071.48 746.902 1070.04 745.642 Q1068.64 744.358 1068.64 742.431 M1072.54 742.381 Q1072.54 744.259 1073.87 745.469 Q1075.21 746.68 1077.08 746.68 Q1079.21 746.68 1081.11 745.049 Q1083.01 743.394 1083.01 740.158 L1083.01 735.094 Q1077.41 735.291 1074.96 737.539 Q1072.54 739.763 1072.54 742.381 Z" fill="#000000" fill-rule="nonzero" fill-opacity="1" /><path clip-path="url(#clip220)" d="M1092.77 727.016 L1092.77 725.904 Q1095.09 725.805 1096.62 724.175 Q1098.18 722.52 1098.7 720.494 Q1099.24 718.468 1099.29 716.122 L1100.55 716.122 L1100.55 725.435 L1107.79 725.435 L1107.79 727.016 L1100.55 727.016 L1100.55 741.072 Q1100.55 746.531 1103.96 746.531 Q1105.42 746.531 1106.38 745.049 Q1107.35 743.542 1107.35 740.874 L1107.35 738.083 L1108.61 738.083 L1108.61 740.973 Q1108.61 743.715 1107.35 745.766 Q1106.09 747.816 1103.59 747.816 Q1102.68 747.816 1101.76 747.569 Q1100.87 747.347 1099.69 746.754 Q1098.53 746.136 1097.79 744.654 Q1097.07 743.147 1097.07 740.973 L1097.07 727.016 L1092.77 727.016 Z" fill="#000000" fill-rule="nonzero" fill-opacity="1" /><path clip-path="url(#clip220)" d="M1113.1 747.248 L1113.1 745.692 Q1115.79 745.692 1116.41 745.37 Q1117.03 745.025 1117.03 743.394 L1117.03 729.783 Q1117.03 727.905 1116.39 727.46 Q1115.77 727.016 1113.3 727.016 L1113.3 725.435 L1120.36 724.891 L1120.36 743.444 Q1120.36 744.95 1120.91 745.321 Q1121.45 745.692 1123.92 745.692 L1123.92 747.248 Q1118.76 747.1 1118.66 747.1 Q1117.97 747.1 1113.1 747.248 M1115.23 716.072 Q1115.23 715.059 1115.99 714.244 Q1116.78 713.404 1117.89 713.404 Q1119.01 713.404 1119.8 714.17 Q1120.59 714.911 1120.59 716.097 Q1120.59 717.258 1119.8 718.024 Q1119.01 718.765 1117.89 718.765 Q1116.73 718.765 1115.97 717.95 Q1115.23 717.134 1115.23 716.072 Z" fill="#000000" fill-rule="nonzero" fill-opacity="1" /><path clip-path="url(#clip220)" d="M1126.39 727.016 L1126.39 725.435 Q1128.66 725.583 1131.31 725.583 Q1132.27 725.583 1136.82 725.435 L1136.82 727.016 Q1133.93 727.016 1133.93 728.325 Q1133.93 728.523 1134.22 729.19 L1139.91 743.295 L1145.07 730.4 Q1145.36 729.536 1145.36 729.19 Q1145.36 728.325 1144.77 727.708 Q1144.2 727.065 1142.94 727.016 L1142.94 725.435 Q1145.51 725.583 1147.34 725.583 Q1149.42 725.583 1151.12 725.435 L1151.12 727.016 Q1149.61 727.016 1148.55 727.708 Q1147.49 728.375 1147.14 728.967 Q1146.82 729.536 1146.48 730.4 L1139.86 746.853 Q1139.46 747.816 1138.79 747.816 Q1138.35 747.816 1138.15 747.618 Q1137.98 747.446 1137.73 746.853 L1130.44 728.893 Q1129.95 727.633 1129.31 727.337 Q1128.66 727.016 1126.39 727.016 Z" fill="#000000" fill-rule="nonzero" fill-opacity="1" /><path clip-path="url(#clip220)" d="M1152.08 736.107 Q1152.08 731.339 1155.15 727.955 Q1158.21 724.57 1162.61 724.57 Q1167.05 724.57 1169.35 727.46 Q1171.67 730.351 1171.67 734.501 Q1171.67 735.267 1171.48 735.415 Q1171.28 735.563 1170.41 735.563 L1156.28 735.563 Q1156.28 740.726 1157.81 743.147 Q1159.94 746.531 1163.52 746.531 Q1164.02 746.531 1164.61 746.433 Q1165.2 746.334 1166.41 745.914 Q1167.62 745.469 1168.68 744.308 Q1169.75 743.147 1170.36 741.319 Q1170.51 740.603 1171.01 740.627 Q1171.67 740.627 1171.67 741.22 Q1171.67 741.665 1171.18 742.678 Q1170.71 743.666 1169.8 744.852 Q1168.88 746.037 1167.1 746.927 Q1165.35 747.816 1163.22 747.816 Q1158.78 747.816 1155.42 744.456 Q1152.08 741.072 1152.08 736.107 M1156.33 734.501 L1168.34 734.501 Q1168.34 733.439 1168.14 732.253 Q1167.97 731.067 1167.42 729.437 Q1166.91 727.782 1165.67 726.744 Q1164.44 725.707 1162.61 725.707 Q1161.79 725.707 1160.9 726.052 Q1160.04 726.398 1158.98 727.238 Q1157.91 728.078 1157.17 729.98 Q1156.43 731.882 1156.33 734.501 Z" fill="#000000" fill-rule="nonzero" fill-opacity="1" /><polyline clip-path="url(#clip222)" style="stroke:#000000; stroke-linecap:round; stroke-linejoin:round; stroke-width:2; stroke-opacity:0.1; fill:none" points="223.339,571.386 1152.76,571.386 "/>
<polyline clip-path="url(#clip222)" style="stroke:#000000; stroke-linecap:round; stroke-linejoin:round; stroke-width:2; stroke-opacity:0.1; fill:none" points="223.339,445.744 1152.76,445.744 "/>
<polyline clip-path="url(#clip222)" style="stroke:#000000; stroke-linecap:round; stroke-linejoin:round; stroke-width:2; stroke-opacity:0.1; fill:none" points="223.339,320.102 1152.76,320.102 "/>
<polyline clip-path="url(#clip222)" style="stroke:#000000; stroke-linecap:round; stroke-linejoin:round; stroke-width:2; stroke-opacity:0.1; fill:none" points="223.339,194.46 1152.76,194.46 "/>
<polyline clip-path="url(#clip222)" style="stroke:#000000; stroke-linecap:round; stroke-linejoin:round; stroke-width:2; stroke-opacity:0.1; fill:none" points="223.339,68.8176 1152.76,68.8176 "/>
<polyline clip-path="url(#clip220)" style="stroke:#000000; stroke-linecap:round; stroke-linejoin:round; stroke-width:4; stroke-opacity:1; fill:none" points="223.339,694.448 223.339,68.8176 "/>
<polyline clip-path="url(#clip220)" style="stroke:#000000; stroke-linecap:round; stroke-linejoin:round; stroke-width:4; stroke-opacity:1; fill:none" points="223.339,571.386 242.236,571.386 "/>
<polyline clip-path="url(#clip220)" style="stroke:#000000; stroke-linecap:round; stroke-linejoin:round; stroke-width:4; stroke-opacity:1; fill:none" points="223.339,445.744 242.236,445.744 "/>
<polyline clip-path="url(#clip220)" style="stroke:#000000; stroke-linecap:round; stroke-linejoin:round; stroke-width:4; stroke-opacity:1; fill:none" points="223.339,320.102 242.236,320.102 "/>
<polyline clip-path="url(#clip220)" style="stroke:#000000; stroke-linecap:round; stroke-linejoin:round; stroke-width:4; stroke-opacity:1; fill:none" points="223.339,194.46 242.236,194.46 "/>
<polyline clip-path="url(#clip220)" style="stroke:#000000; stroke-linecap:round; stroke-linejoin:round; stroke-width:4; stroke-opacity:1; fill:none" points="223.339,68.8176 242.236,68.8176 "/>
<path clip-path="url(#clip220)" d="M153.659 575.301 Q153.956 575.598 153.956 576.018 Q153.956 576.437 153.659 576.734 Q153.363 577.03 152.943 577.03 L121.273 577.03 Q120.853 577.03 120.557 576.734 Q120.26 576.437 120.26 576.018 Q120.26 575.598 120.557 575.301 Q120.853 575.005 121.273 575.005 L152.943 575.005 Q153.363 575.005 153.659 575.301 Z" fill="#000000" fill-rule="nonzero" fill-opacity="1" /><path clip-path="url(#clip220)" d="M158.18 580.316 L158.18 578.76 L173.718 555.02 Q174.113 554.402 174.731 554.427 Q175.299 554.427 175.423 554.649 Q175.546 554.871 175.546 555.736 L175.546 578.76 L180.61 578.76 L180.61 580.316 L175.546 580.316 L175.546 584.713 Q175.546 586.171 176.139 586.64 Q176.757 587.109 179.375 587.109 L180.438 587.109 L180.438 588.666 Q178.362 588.517 173.57 588.517 Q168.802 588.517 166.727 588.666 L166.727 587.109 L167.789 587.109 Q170.408 587.109 171.026 586.665 Q171.643 586.195 171.643 584.713 L171.643 580.316 L158.18 580.316 M159.613 578.76 L171.94 578.76 L171.94 559.886 L159.613 578.76 Z" fill="#000000" fill-rule="nonzero" fill-opacity="1" /><path clip-path="url(#clip220)" d="M184.044 572.485 Q184.044 565.049 185.922 560.998 Q188.54 554.97 194.716 554.97 Q196.025 554.97 197.384 555.341 Q198.767 555.687 200.497 557.045 Q202.251 558.404 203.313 560.627 Q205.339 564.926 205.339 572.485 Q205.339 579.871 203.461 583.898 Q200.719 589.777 194.667 589.777 Q192.394 589.777 190.072 588.616 Q187.774 587.455 186.317 584.664 Q184.044 580.489 184.044 572.485 M188.244 571.867 Q188.244 579.501 188.787 582.539 Q189.405 585.825 191.085 587.258 Q192.789 588.666 194.667 588.666 Q196.692 588.666 198.372 587.159 Q200.077 585.627 200.595 582.342 Q201.164 579.105 201.139 571.867 Q201.139 564.827 200.645 562.011 Q199.978 558.725 198.199 557.416 Q196.445 556.082 194.667 556.082 Q194 556.082 193.283 556.28 Q192.592 556.477 191.579 557.045 Q190.566 557.614 189.775 559.022 Q189.01 560.43 188.639 562.554 Q188.244 565.296 188.244 571.867 Z" fill="#000000" fill-rule="nonzero" fill-opacity="1" /><path clip-path="url(#clip220)" d="M153.659 449.659 Q153.956 449.956 153.956 450.376 Q153.956 450.795 153.659 451.092 Q153.363 451.388 152.943 451.388 L121.273 451.388 Q120.853 451.388 120.557 451.092 Q120.26 450.795 120.26 450.376 Q120.26 449.956 120.557 449.659 Q120.853 449.363 121.273 449.363 L152.943 449.363 Q153.363 449.363 153.659 449.659 Z" fill="#000000" fill-rule="nonzero" fill-opacity="1" /><path clip-path="url(#clip220)" d="M158.896 456.206 Q158.896 454.699 159.761 453.982 Q160.625 453.266 161.737 453.266 Q162.898 453.266 163.713 454.032 Q164.553 454.773 164.553 456.082 Q164.553 457.49 163.565 458.281 Q162.602 459.071 161.218 458.873 Q162.429 460.899 164.652 461.813 Q166.9 462.727 168.975 462.727 Q171.149 462.727 172.903 460.85 Q174.682 458.972 174.682 454.377 Q174.682 450.474 173.15 448.226 Q171.643 445.978 168.654 445.978 L166.431 445.978 Q165.665 445.978 165.443 445.904 Q165.22 445.83 165.22 445.41 Q165.22 444.916 165.986 444.817 Q166.752 444.817 167.962 444.669 Q170.902 444.57 172.458 442.026 Q173.866 439.654 173.866 436.27 Q173.866 433.182 172.384 431.897 Q170.927 430.588 169.025 430.588 Q167.246 430.588 165.294 431.329 Q163.343 432.07 162.281 433.725 Q165.418 433.725 165.418 436.27 Q165.418 437.382 164.702 438.123 Q164.01 438.839 162.849 438.839 Q161.737 438.839 160.996 438.147 Q160.255 437.431 160.255 436.22 Q160.255 433.33 162.824 431.329 Q165.418 429.328 169.222 429.328 Q172.977 429.328 175.744 431.305 Q178.535 433.281 178.535 436.319 Q178.535 439.308 176.559 441.754 Q174.583 444.2 171.446 445.213 Q175.299 445.978 177.597 448.597 Q179.894 451.191 179.894 454.377 Q179.894 458.33 176.781 461.245 Q173.669 464.135 169.123 464.135 Q164.924 464.135 161.91 461.863 Q158.896 459.59 158.896 456.206 Z" fill="#000000" fill-rule="nonzero" fill-opacity="1" /><path clip-path="url(#clip220)" d="M184.044 446.843 Q184.044 439.407 185.922 435.356 Q188.54 429.328 194.716 429.328 Q196.025 429.328 197.384 429.699 Q198.767 430.045 200.497 431.403 Q202.251 432.762 203.313 434.985 Q205.339 439.284 205.339 446.843 Q205.339 454.229 203.461 458.256 Q200.719 464.135 194.667 464.135 Q192.394 464.135 190.072 462.974 Q187.774 461.813 186.317 459.022 Q184.044 454.847 184.044 446.843 M188.244 446.225 Q188.244 453.859 188.787 456.897 Q189.405 460.183 191.085 461.616 Q192.789 463.024 194.667 463.024 Q196.692 463.024 198.372 461.517 Q200.077 459.985 200.595 456.7 Q201.164 453.463 201.139 446.225 Q201.139 439.185 200.645 436.369 Q199.978 433.083 198.199 431.774 Q196.445 430.44 194.667 430.44 Q194 430.44 193.283 430.638 Q192.592 430.835 191.579 431.403 Q190.566 431.972 189.775 433.38 Q189.01 434.788 188.639 436.912 Q188.244 439.654 188.244 446.225 Z" fill="#000000" fill-rule="nonzero" fill-opacity="1" /><path clip-path="url(#clip220)" d="M153.659 324.017 Q153.956 324.314 153.956 324.733 Q153.956 325.153 153.659 325.45 Q153.363 325.746 152.943 325.746 L121.273 325.746 Q120.853 325.746 120.557 325.45 Q120.26 325.153 120.26 324.733 Q120.26 324.314 120.557 324.017 Q120.853 323.721 121.273 323.721 L152.943 323.721 Q153.363 323.721 153.659 324.017 Z" fill="#000000" fill-rule="nonzero" fill-opacity="1" /><path clip-path="url(#clip220)" d="M159.291 337.382 Q159.291 336.468 159.366 336.196 Q159.464 335.924 159.86 335.504 L169.568 324.684 Q174.879 318.706 174.879 313.493 Q174.879 310.109 173.101 307.688 Q171.347 305.267 168.111 305.267 Q165.887 305.267 164.01 306.626 Q162.132 307.985 161.268 310.406 Q161.416 310.356 161.935 310.356 Q163.195 310.356 163.886 311.147 Q164.603 311.937 164.603 312.999 Q164.603 314.358 163.713 315.025 Q162.849 315.667 161.984 315.667 Q161.638 315.667 161.169 315.593 Q160.724 315.519 160.008 314.827 Q159.291 314.111 159.291 312.851 Q159.291 309.319 161.959 306.502 Q164.652 303.686 168.753 303.686 Q173.397 303.686 176.436 306.453 Q179.499 309.195 179.499 313.493 Q179.499 315 179.029 316.384 Q178.585 317.742 177.967 318.805 Q177.374 319.867 175.744 321.571 Q174.113 323.276 172.804 324.486 Q171.495 325.697 168.555 328.266 L163.195 333.478 L172.31 333.478 Q176.757 333.478 177.103 333.083 Q177.597 332.367 178.214 328.587 L179.499 328.587 L178.066 337.382 L159.291 337.382 Z" fill="#000000" fill-rule="nonzero" fill-opacity="1" /><path clip-path="url(#clip220)" d="M184.044 321.201 Q184.044 313.765 185.922 309.714 Q188.54 303.686 194.716 303.686 Q196.025 303.686 197.384 304.057 Q198.767 304.403 200.497 305.761 Q202.251 307.12 203.313 309.343 Q205.339 313.642 205.339 321.201 Q205.339 328.587 203.461 332.614 Q200.719 338.493 194.667 338.493 Q192.394 338.493 190.072 337.332 Q187.774 336.171 186.317 333.38 Q184.044 329.205 184.044 321.201 M188.244 320.583 Q188.244 328.217 188.787 331.255 Q189.405 334.541 191.085 335.974 Q192.789 337.382 194.667 337.382 Q196.692 337.382 198.372 335.875 Q200.077 334.343 200.595 331.058 Q201.164 327.821 201.139 320.583 Q201.139 313.543 200.645 310.727 Q199.978 307.441 198.199 306.132 Q196.445 304.798 194.667 304.798 Q194 304.798 193.283 304.996 Q192.592 305.193 191.579 305.761 Q190.566 306.329 189.775 307.738 Q189.01 309.146 188.639 311.27 Q188.244 314.012 188.244 320.583 Z" fill="#000000" fill-rule="nonzero" fill-opacity="1" /><path clip-path="url(#clip220)" d="M153.659 198.375 Q153.956 198.672 153.956 199.091 Q153.956 199.511 153.659 199.808 Q153.363 200.104 152.943 200.104 L121.273 200.104 Q120.853 200.104 120.557 199.808 Q120.26 199.511 120.26 199.091 Q120.26 198.672 120.557 198.375 Q120.853 198.079 121.273 198.079 L152.943 198.079 Q153.363 198.079 153.659 198.375 Z" fill="#000000" fill-rule="nonzero" fill-opacity="1" /><path clip-path="url(#clip220)" d="M161.268 182.861 L161.268 181.28 Q167.345 181.28 170.482 178.044 Q171.347 178.044 171.495 178.242 Q171.643 178.439 171.643 179.353 L171.643 207.738 Q171.643 209.245 172.384 209.714 Q173.125 210.183 176.361 210.183 L177.967 210.183 L177.967 211.74 Q176.189 211.591 169.766 211.591 Q163.343 211.591 161.589 211.74 L161.589 210.183 L163.195 210.183 Q166.381 210.183 167.147 209.739 Q167.913 209.269 167.913 207.738 L167.913 181.527 Q165.27 182.861 161.268 182.861 Z" fill="#000000" fill-rule="nonzero" fill-opacity="1" /><path clip-path="url(#clip220)" d="M184.044 195.559 Q184.044 188.123 185.922 184.072 Q188.54 178.044 194.716 178.044 Q196.025 178.044 197.384 178.415 Q198.767 178.761 200.497 180.119 Q202.251 181.478 203.313 183.701 Q205.339 188 205.339 195.559 Q205.339 202.945 203.461 206.972 Q200.719 212.851 194.667 212.851 Q192.394 212.851 190.072 211.69 Q187.774 210.529 186.317 207.738 Q184.044 203.563 184.044 195.559 M188.244 194.941 Q188.244 202.575 188.787 205.613 Q189.405 208.899 191.085 210.331 Q192.789 211.74 194.667 211.74 Q196.692 211.74 198.372 210.233 Q200.077 208.701 200.595 205.416 Q201.164 202.179 201.139 194.941 Q201.139 187.901 200.645 185.085 Q199.978 181.799 198.199 180.49 Q196.445 179.156 194.667 179.156 Q194 179.156 193.283 179.353 Q192.592 179.551 191.579 180.119 Q190.566 180.687 189.775 182.096 Q189.01 183.504 188.639 185.628 Q188.244 188.37 188.244 194.941 Z" fill="#000000" fill-rule="nonzero" fill-opacity="1" /><path clip-path="url(#clip220)" d="M184.044 69.9169 Q184.044 62.4811 185.922 58.4298 Q188.54 52.4022 194.716 52.4022 Q196.025 52.4022 197.384 52.7727 Q198.767 53.1186 200.497 54.4773 Q202.251 55.8359 203.313 58.0592 Q205.339 62.3576 205.339 69.9169 Q205.339 77.3032 203.461 81.3298 Q200.719 87.2092 194.667 87.2092 Q192.394 87.2092 190.072 86.0481 Q187.774 84.8871 186.317 82.0956 Q184.044 77.9207 184.044 69.9169 M188.244 69.2993 Q188.244 76.9326 188.787 79.9711 Q189.405 83.2567 191.085 84.6895 Q192.789 86.0976 194.667 86.0976 Q196.692 86.0976 198.372 84.5906 Q200.077 83.059 200.595 79.7735 Q201.164 76.5374 201.139 69.2993 Q201.139 62.2588 200.645 59.4426 Q199.978 56.1571 198.199 54.8478 Q196.445 53.5138 194.667 53.5138 Q194 53.5138 193.283 53.7114 Q192.592 53.9091 191.579 54.4773 Q190.566 55.0454 189.775 56.4535 Q189.01 57.8616 188.639 59.9861 Q188.244 62.7282 188.244 69.2993 Z" fill="#000000" fill-rule="nonzero" fill-opacity="1" /><path clip-path="url(#clip220)" d="M88.0042 483.126 L85.8642 483.126 Q85.8642 479.424 85.4227 478.575 Q84.9471 477.692 82.7053 477.692 L64.0573 477.692 Q61.4758 477.692 60.8305 478.609 Q60.1851 479.492 60.1851 483.126 L58.0112 483.126 L57.2639 473.446 L64.9065 473.446 Q61.9174 472.461 59.6076 470.389 Q57.2639 468.283 57.2639 464.886 Q57.2639 462.644 58.5207 461.218 Q59.7775 459.757 61.5098 459.757 Q63.0383 459.757 63.8196 460.708 Q64.5668 461.625 64.5668 462.746 Q64.5668 464.003 63.7856 464.886 Q62.9704 465.735 61.5777 465.735 Q60.7286 465.735 60.0832 465.362 Q59.4038 464.954 59.1661 464.648 Q58.9283 464.343 58.8604 464.139 Q58.7924 464.275 58.7924 464.886 Q58.7924 468.724 62.6307 470.932 Q66.435 473.106 71.8698 473.106 L82.5694 473.106 Q84.5735 473.106 85.2189 472.291 Q85.8642 471.442 85.8642 467.807 L85.8642 466.347 L88.0042 466.347 Q87.8004 469.132 87.8004 475.178 Q87.8004 476.027 87.8343 477.352 Q87.8683 478.677 87.9362 480.409 Q88.0042 482.141 88.0042 483.126 Z" fill="#000000" fill-rule="nonzero" fill-opacity="1" /><path clip-path="url(#clip220)" d="M72.685 455.953 Q66.1293 455.953 61.4758 451.741 Q56.8223 447.529 56.8223 441.483 Q56.8223 435.369 60.7965 432.21 Q64.7706 429.017 70.4771 429.017 Q71.5301 429.017 71.7339 429.289 Q71.9377 429.56 71.9377 430.749 L71.9377 450.178 Q79.0368 450.178 82.3656 448.072 Q87.0191 445.151 87.0191 440.226 Q87.0191 439.547 86.8832 438.731 Q86.7474 437.916 86.1699 436.252 Q85.5585 434.587 83.9621 433.127 Q82.3656 431.666 79.852 430.817 Q78.867 430.613 78.901 429.934 Q78.901 429.017 79.7162 429.017 Q80.3276 429.017 81.7202 429.696 Q83.0789 430.342 84.7093 431.598 Q86.3398 432.855 87.5626 435.301 Q88.7854 437.712 88.7854 440.634 Q88.7854 446.748 84.1659 451.367 Q79.5124 455.953 72.685 455.953 M70.4771 450.11 L70.4771 433.602 Q69.0165 433.602 67.3861 433.874 Q65.7557 434.112 63.5139 434.859 Q61.2381 435.572 59.8114 437.271 Q58.3848 438.969 58.3848 441.483 Q58.3848 442.604 58.8604 443.827 Q59.3359 445.015 60.4908 446.476 Q61.6457 447.937 64.2611 448.956 Q66.8766 449.975 70.4771 450.11 Z" fill="#000000" fill-rule="nonzero" fill-opacity="1" /><path clip-path="url(#clip220)" d="M60.1851 425.756 L58.0112 425.756 Q58.215 421.986 58.215 419.302 Q58.215 417.978 58.0112 411.694 L60.1851 411.694 Q60.1851 415.804 62.0533 415.804 Q62.4609 415.804 63.3101 415.464 L81.8901 408.84 L65.0424 402.862 Q61.6457 404.119 61.2381 404.459 Q60.1851 405.308 60.1851 408.84 L58.0112 408.84 Q58.215 405.715 58.215 402.658 Q58.215 401.47 58.0112 395.423 L60.1851 395.423 Q60.1851 399.533 62.0533 399.533 Q62.325 399.533 63.378 399.194 L82.7732 392.298 L64.9745 385.981 Q64.0573 385.641 63.5139 385.607 Q61.9853 385.607 61.1362 386.694 Q60.253 387.781 60.1851 389.649 L58.0112 389.649 Q58.215 385.675 58.215 383.195 Q58.215 380.41 58.0112 378.1 L60.1851 378.1 Q60.321 382.414 64.6348 383.942 L87.4607 392.095 Q88.7175 392.876 88.7854 393.487 Q88.7854 394.404 87.4607 394.88 L67.6918 401.979 L87.3927 409.01 Q88.2419 409.282 88.5137 409.52 Q88.7854 409.757 88.7854 410.403 Q88.7854 411.014 88.4118 411.286 Q88.0721 411.558 87.2229 411.863 L62.5968 420.627 Q61.0003 421.238 60.5927 422.155 Q60.1851 423.039 60.1851 425.756 Z" fill="#000000" fill-rule="nonzero" fill-opacity="1" /><path clip-path="url(#clip220)" d="M81.3806 375.824 Q75.4703 375.824 72.3453 368.861 Q70.3413 364.683 69.8317 356.055 L67.2842 356.055 Q62.9704 356.055 60.6946 358.331 Q58.3848 360.573 58.3848 363.426 Q58.3848 368.521 61.5777 370.967 Q61.6457 368.895 62.6987 368.148 Q63.7177 367.4 64.7706 367.4 Q66.1633 367.4 67.0804 368.284 Q67.9636 369.133 67.9636 370.593 Q67.9636 371.986 67.1144 372.903 Q66.2312 373.82 64.7027 373.82 Q61.306 373.82 59.0642 370.763 Q56.8223 367.672 56.8223 363.29 Q56.8223 357.584 60.6606 353.78 Q61.8495 352.591 63.378 352.013 Q64.9065 351.402 65.9255 351.334 Q66.9106 351.266 68.8807 351.266 L82.7732 351.266 Q83.1808 351.266 83.8602 351.13 Q84.5395 350.994 85.4227 350.383 Q86.2718 349.738 86.2718 348.685 Q86.2718 346.171 81.8221 346.205 L77.9159 346.205 L77.9159 344.439 L81.8221 344.439 Q85.5246 344.439 86.9851 346.409 Q88.4118 348.345 88.4118 350.145 Q88.4118 352.455 86.7134 353.916 Q85.0151 355.376 82.7053 355.58 Q85.3547 356.633 87.087 359.045 Q88.7854 361.422 88.7854 364.683 Q88.7854 367.197 88.14 369.574 Q87.5286 371.918 85.7963 373.888 Q84.03 375.824 81.3806 375.824 M81.3126 370.458 Q83.8941 370.458 85.5585 368.623 Q87.2229 366.789 87.2229 364.208 Q87.2229 361.286 84.9811 358.671 Q82.7053 356.055 78.2556 356.055 L71.2923 356.055 Q71.5641 363.766 74.6551 367.129 Q77.7121 370.458 81.3126 370.458 Z" fill="#000000" fill-rule="nonzero" fill-opacity="1" /><path clip-path="url(#clip220)" d="M88.0042 342.027 L85.8642 342.027 Q85.8642 338.325 85.4227 337.475 Q84.9471 336.592 82.7053 336.592 L64.0573 336.592 Q61.4758 336.592 60.8305 337.509 Q60.1851 338.393 60.1851 342.027 L58.0112 342.027 L57.2639 332.346 L64.9065 332.346 Q61.9174 331.361 59.6076 329.289 Q57.2639 327.183 57.2639 323.787 Q57.2639 321.545 58.5207 320.118 Q59.7775 318.658 61.5098 318.658 Q63.0383 318.658 63.8196 319.609 Q64.5668 320.526 64.5668 321.647 Q64.5668 322.904 63.7856 323.787 Q62.9704 324.636 61.5777 324.636 Q60.7286 324.636 60.0832 324.262 Q59.4038 323.855 59.1661 323.549 Q58.9283 323.243 58.8604 323.039 Q58.7924 323.175 58.7924 323.787 Q58.7924 327.625 62.6307 329.833 Q66.435 332.007 71.8698 332.007 L82.5694 332.007 Q84.5735 332.007 85.2189 331.192 Q85.8642 330.342 85.8642 326.708 L85.8642 325.247 L88.0042 325.247 Q87.8004 328.033 87.8004 334.079 Q87.8004 334.928 87.8343 336.253 Q87.8683 337.577 87.9362 339.31 Q88.0042 341.042 88.0042 342.027 Z" fill="#000000" fill-rule="nonzero" fill-opacity="1" /><path clip-path="url(#clip220)" d="M73.0586 314.412 Q66.435 314.412 61.8495 309.792 Q57.2639 305.173 57.2639 298.923 Q57.2639 293.624 61.5777 290.159 L46.5303 290.159 Q43.9488 290.159 43.3034 291.076 Q42.6581 291.96 42.6581 295.56 L40.4842 295.56 L39.7369 285.54 L81.958 285.54 Q84.5395 285.54 85.2189 284.657 Q85.8642 283.739 85.8642 280.139 L88.0042 280.139 L88.7854 290.363 L84.1659 290.363 Q88.7514 293.964 88.7854 299.67 Q88.7854 305.648 84.1998 310.03 Q79.6143 314.412 73.0586 314.412 M73.1266 308.637 Q79.5803 308.637 82.7732 306.633 Q87.2229 303.848 87.2229 299.33 Q87.2229 294.167 82.3656 291.11 Q81.1768 290.329 79.7841 290.363 L65.5179 290.363 Q64.1253 290.363 62.9704 291.11 Q58.7924 293.964 58.7924 298.617 Q58.7924 303.474 63.2421 306.497 Q66.5709 308.637 73.1266 308.637 Z" fill="#000000" fill-rule="nonzero" fill-opacity="1" /><path clip-path="url(#clip222)" d="M274.458 631.627 L274.458 68.8176 L412.321 68.8176 L412.321 631.627 L274.458 631.627 L274.458 631.627  Z" fill="#1abc9c" fill-rule="evenodd" fill-opacity="1"/>
<polyline clip-path="url(#clip222)" style="stroke:#ffffff; stroke-linecap:round; stroke-linejoin:round; stroke-width:16; stroke-opacity:1; fill:none" points="274.458,631.627 274.458,68.8176 412.321,68.8176 412.321,631.627 274.458,631.627 "/>
<path clip-path="url(#clip222)" d="M619.116 426.243 L619.116 68.8176 L756.979 68.8176 L756.979 426.243 L619.116 426.243 L619.116 426.243  Z" fill="#1abc9c" fill-rule="evenodd" fill-opacity="1"/>
<polyline clip-path="url(#clip222)" style="stroke:#ffffff; stroke-linecap:round; stroke-linejoin:round; stroke-width:16; stroke-opacity:1; fill:none" points="619.116,426.243 619.116,68.8176 756.979,68.8176 756.979,426.243 619.116,426.243 "/>
<path clip-path="url(#clip222)" d="M963.773 552.296 L963.773 68.8176 L1101.64 68.8176 L1101.64 552.296 L963.773 552.296 L963.773 552.296  Z" fill="#1abc9c" fill-rule="evenodd" fill-opacity="1"/>
<polyline clip-path="url(#clip222)" style="stroke:#ffffff; stroke-linecap:round; stroke-linejoin:round; stroke-width:16; stroke-opacity:1; fill:none" points="963.773,552.296 963.773,68.8176 1101.64,68.8176 1101.64,552.296 963.773,552.296 "/>
<circle clip-path="url(#clip222)" style="fill:#1abc9c; stroke:none; fill-opacity:0" cx="343.39" cy="631.627" r="2"/>
<circle clip-path="url(#clip222)" style="fill:#1abc9c; stroke:none; fill-opacity:0" cx="688.047" cy="426.243" r="2"/>
<circle clip-path="url(#clip222)" style="fill:#1abc9c; stroke:none; fill-opacity:0" cx="1032.7" cy="552.296" r="2"/>
<polyline clip-path="url(#clip222)" style="stroke:#000000; stroke-linecap:round; stroke-linejoin:round; stroke-width:16; stroke-opacity:1; fill:none" points="-706.079,68.8176 2082.17,68.8176 "/>
</svg>
