<?xml version="1.0" encoding="utf-8"?>
<svg xmlns="http://www.w3.org/2000/svg" xmlns:xlink="http://www.w3.org/1999/xlink" width="350" height="250" viewBox="0 0 1400 1000">
<defs>
  <clipPath id="clip820">
    <rect x="0" y="0" width="1400" height="1000"/>
  </clipPath>
</defs>
<path clip-path="url(#clip820)" d="M0 1000 L1400 1000 L1400 0 L0 0  Z" fill="#ffffff" fill-rule="evenodd" fill-opacity="1"/>
<defs>
  <clipPath id="clip821">
    <rect x="280" y="0" width="981" height="981"/>
  </clipPath>
</defs>
<path clip-path="url(#clip820)" d="M254.029 823.317 L1352.76 823.317 L1352.76 47.2441 L254.029 47.2441  Z" fill="#ffffff" fill-rule="evenodd" fill-opacity="1"/>
<defs>
  <clipPath id="clip822">
    <rect x="254" y="47" width="1100" height="777"/>
  </clipPath>
</defs>
<polyline clip-path="url(#clip822)" style="stroke:#000000; stroke-linecap:round; stroke-linejoin:round; stroke-width:2; stroke-opacity:0.1; fill:none" points="285.125,823.317 285.125,47.2441 "/>
<polyline clip-path="url(#clip822)" style="stroke:#000000; stroke-linecap:round; stroke-linejoin:round; stroke-width:2; stroke-opacity:0.1; fill:none" points="630.637,823.317 630.637,47.2441 "/>
<polyline clip-path="url(#clip822)" style="stroke:#000000; stroke-linecap:round; stroke-linejoin:round; stroke-width:2; stroke-opacity:0.1; fill:none" points="976.148,823.317 976.148,47.2441 "/>
<polyline clip-path="url(#clip822)" style="stroke:#000000; stroke-linecap:round; stroke-linejoin:round; stroke-width:2; stroke-opacity:0.1; fill:none" points="1321.66,823.317 1321.66,47.2441 "/>
<polyline clip-path="url(#clip820)" style="stroke:#000000; stroke-linecap:round; stroke-linejoin:round; stroke-width:4; stroke-opacity:1; fill:none" points="254.029,823.317 1352.76,823.317 "/>
<polyline clip-path="url(#clip820)" style="stroke:#000000; stroke-linecap:round; stroke-linejoin:round; stroke-width:4; stroke-opacity:1; fill:none" points="285.125,823.317 285.125,804.419 "/>
<polyline clip-path="url(#clip820)" style="stroke:#000000; stroke-linecap:round; stroke-linejoin:round; stroke-width:4; stroke-opacity:1; fill:none" points="630.637,823.317 630.637,804.419 "/>
<polyline clip-path="url(#clip820)" style="stroke:#000000; stroke-linecap:round; stroke-linejoin:round; stroke-width:4; stroke-opacity:1; fill:none" points="976.148,823.317 976.148,804.419 "/>
<polyline clip-path="url(#clip820)" style="stroke:#000000; stroke-linecap:round; stroke-linejoin:round; stroke-width:4; stroke-opacity:1; fill:none" points="1321.66,823.317 1321.66,804.419 "/>
<path clip-path="url(#clip820)" d="M236.805 877.717 Q236.805 876.803 236.879 876.531 Q236.978 876.259 237.374 875.84 L247.082 865.019 Q252.393 859.041 252.393 853.829 Q252.393 850.444 250.615 848.024 Q248.861 845.603 245.624 845.603 Q243.401 845.603 241.524 846.961 Q239.646 848.32 238.782 850.741 Q238.93 850.692 239.449 850.692 Q240.708 850.692 241.4 851.482 Q242.117 852.273 242.117 853.335 Q242.117 854.693 241.227 855.36 Q240.363 856.003 239.498 856.003 Q239.152 856.003 238.683 855.929 Q238.238 855.855 237.522 855.163 Q236.805 854.446 236.805 853.187 Q236.805 849.654 239.473 846.838 Q242.166 844.022 246.267 844.022 Q250.911 844.022 253.949 846.788 Q257.013 849.53 257.013 853.829 Q257.013 855.336 256.543 856.719 Q256.099 858.078 255.481 859.14 Q254.888 860.202 253.258 861.907 Q251.627 863.611 250.318 864.822 Q249.009 866.032 246.069 868.601 L240.708 873.814 L249.824 873.814 Q254.271 873.814 254.616 873.419 Q255.111 872.702 255.728 868.923 L257.013 868.923 L255.58 877.717 L236.805 877.717 Z" fill="#000000" fill-rule="nonzero" fill-opacity="1" /><path clip-path="url(#clip820)" d="M262.102 869.565 Q262.102 868.058 262.917 867.49 Q263.732 866.897 264.597 866.897 Q265.758 866.897 266.425 867.638 Q267.116 868.354 267.116 869.367 Q267.116 870.38 266.425 871.121 Q265.758 871.838 264.597 871.838 Q264.028 871.838 263.732 871.739 Q264.399 874.061 266.425 875.741 Q268.475 877.421 271.168 877.421 Q274.552 877.421 276.578 874.135 Q277.788 872.011 277.788 867.193 Q277.788 862.944 276.874 860.82 Q275.466 857.584 272.576 857.584 Q268.475 857.584 266.054 861.116 Q265.758 861.561 265.412 861.586 Q264.918 861.586 264.794 861.314 Q264.695 861.018 264.695 860.252 L264.695 845.281 Q264.695 844.071 265.189 844.071 Q265.387 844.071 265.807 844.219 Q268.994 845.627 272.526 845.652 Q276.158 845.652 279.419 844.17 Q279.666 844.022 279.814 844.022 Q280.308 844.022 280.333 844.59 Q280.333 844.787 279.913 845.38 Q279.517 845.948 278.653 846.714 Q277.788 847.455 276.677 848.172 Q275.565 848.888 273.934 849.382 Q272.329 849.852 270.55 849.852 Q268.426 849.852 266.252 849.185 L266.252 859.041 Q268.87 856.472 272.675 856.472 Q276.726 856.472 279.517 859.733 Q282.309 862.994 282.309 867.539 Q282.309 872.307 278.999 875.568 Q275.713 878.829 271.267 878.829 Q267.215 878.829 264.646 875.938 Q262.102 873.048 262.102 869.565 Z" fill="#000000" fill-rule="nonzero" fill-opacity="1" /><path clip-path="url(#clip820)" d="M286.854 861.536 Q286.854 854.101 288.732 850.049 Q291.35 844.022 297.526 844.022 Q298.835 844.022 300.194 844.392 Q301.578 844.738 303.307 846.097 Q305.061 847.455 306.123 849.679 Q308.149 853.977 308.149 861.536 Q308.149 868.923 306.271 872.949 Q303.529 878.829 297.477 878.829 Q295.204 878.829 292.882 877.668 Q290.585 876.507 289.127 873.715 Q286.854 869.54 286.854 861.536 M291.054 860.919 Q291.054 868.552 291.597 871.591 Q292.215 874.876 293.895 876.309 Q295.599 877.717 297.477 877.717 Q299.502 877.717 301.182 876.21 Q302.887 874.678 303.406 871.393 Q303.974 868.157 303.949 860.919 Q303.949 853.878 303.455 851.062 Q302.788 847.777 301.009 846.467 Q299.255 845.133 297.477 845.133 Q296.81 845.133 296.093 845.331 Q295.402 845.529 294.389 846.097 Q293.376 846.665 292.586 848.073 Q291.82 849.481 291.449 851.606 Q291.054 854.348 291.054 860.919 Z" fill="#000000" fill-rule="nonzero" fill-opacity="1" /><path clip-path="url(#clip820)" d="M312.151 861.536 Q312.151 854.101 314.028 850.049 Q316.647 844.022 322.822 844.022 Q324.132 844.022 325.49 844.392 Q326.874 844.738 328.603 846.097 Q330.357 847.455 331.419 849.679 Q333.445 853.977 333.445 861.536 Q333.445 868.923 331.567 872.949 Q328.825 878.829 322.773 878.829 Q320.5 878.829 318.178 877.668 Q315.881 876.507 314.423 873.715 Q312.151 869.54 312.151 861.536 M316.35 860.919 Q316.35 868.552 316.894 871.591 Q317.511 874.876 319.191 876.309 Q320.896 877.717 322.773 877.717 Q324.799 877.717 326.479 876.21 Q328.183 874.678 328.702 871.393 Q329.27 868.157 329.245 860.919 Q329.245 853.878 328.751 851.062 Q328.084 847.777 326.306 846.467 Q324.552 845.133 322.773 845.133 Q322.106 845.133 321.39 845.331 Q320.698 845.529 319.685 846.097 Q318.672 846.665 317.882 848.073 Q317.116 849.481 316.745 851.606 Q316.35 854.348 316.35 860.919 Z" fill="#000000" fill-rule="nonzero" fill-opacity="1" /><path clip-path="url(#clip820)" d="M582.317 869.565 Q582.317 868.058 583.132 867.49 Q583.947 866.897 584.812 866.897 Q585.973 866.897 586.64 867.638 Q587.332 868.354 587.332 869.367 Q587.332 870.38 586.64 871.121 Q585.973 871.838 584.812 871.838 Q584.244 871.838 583.947 871.739 Q584.614 874.061 586.64 875.741 Q588.69 877.421 591.383 877.421 Q594.767 877.421 596.793 874.135 Q598.004 872.011 598.004 867.193 Q598.004 862.944 597.09 860.82 Q595.681 857.584 592.791 857.584 Q588.69 857.584 586.269 861.116 Q585.973 861.561 585.627 861.586 Q585.133 861.586 585.01 861.314 Q584.911 861.018 584.911 860.252 L584.911 845.281 Q584.911 844.071 585.405 844.071 Q585.602 844.071 586.022 844.219 Q589.209 845.627 592.742 845.652 Q596.373 845.652 599.634 844.17 Q599.881 844.022 600.029 844.022 Q600.523 844.022 600.548 844.59 Q600.548 844.787 600.128 845.38 Q599.733 845.948 598.868 846.714 Q598.004 847.455 596.892 848.172 Q595.78 848.888 594.15 849.382 Q592.544 849.852 590.765 849.852 Q588.641 849.852 586.467 849.185 L586.467 859.041 Q589.086 856.472 592.89 856.472 Q596.941 856.472 599.733 859.733 Q602.524 862.994 602.524 867.539 Q602.524 872.307 599.214 875.568 Q595.928 878.829 591.482 878.829 Q587.431 878.829 584.861 875.938 Q582.317 873.048 582.317 869.565 Z" fill="#000000" fill-rule="nonzero" fill-opacity="1" /><path clip-path="url(#clip820)" d="M607.07 861.536 Q607.07 854.101 608.947 850.049 Q611.566 844.022 617.742 844.022 Q619.051 844.022 620.409 844.392 Q621.793 844.738 623.522 846.097 Q625.276 847.455 626.338 849.679 Q628.364 853.977 628.364 861.536 Q628.364 868.923 626.487 872.949 Q623.744 878.829 617.692 878.829 Q615.419 878.829 613.097 877.668 Q610.8 876.507 609.342 873.715 Q607.07 869.54 607.07 861.536 M611.269 860.919 Q611.269 868.552 611.813 871.591 Q612.43 874.876 614.11 876.309 Q615.815 877.717 617.692 877.717 Q619.718 877.717 621.398 876.21 Q623.102 874.678 623.621 871.393 Q624.189 868.157 624.164 860.919 Q624.164 853.878 623.67 851.062 Q623.003 847.777 621.225 846.467 Q619.471 845.133 617.692 845.133 Q617.025 845.133 616.309 845.331 Q615.617 845.529 614.604 846.097 Q613.591 846.665 612.801 848.073 Q612.035 849.481 611.665 851.606 Q611.269 854.348 611.269 860.919 Z" fill="#000000" fill-rule="nonzero" fill-opacity="1" /><path clip-path="url(#clip820)" d="M632.366 861.536 Q632.366 854.101 634.243 850.049 Q636.862 844.022 643.038 844.022 Q644.347 844.022 645.706 844.392 Q647.089 844.738 648.818 846.097 Q650.572 847.455 651.635 849.679 Q653.66 853.977 653.66 861.536 Q653.66 868.923 651.783 872.949 Q649.041 878.829 642.988 878.829 Q640.716 878.829 638.394 877.668 Q636.096 876.507 634.639 873.715 Q632.366 869.54 632.366 861.536 M636.565 860.919 Q636.565 868.552 637.109 871.591 Q637.727 874.876 639.406 876.309 Q641.111 877.717 642.988 877.717 Q645.014 877.717 646.694 876.21 Q648.398 874.678 648.917 871.393 Q649.485 868.157 649.461 860.919 Q649.461 853.878 648.967 851.062 Q648.3 847.777 646.521 846.467 Q644.767 845.133 642.988 845.133 Q642.321 845.133 641.605 845.331 Q640.913 845.529 639.9 846.097 Q638.888 846.665 638.097 848.073 Q637.331 849.481 636.961 851.606 Q636.565 854.348 636.565 860.919 Z" fill="#000000" fill-rule="nonzero" fill-opacity="1" /><path clip-path="url(#clip820)" d="M657.662 861.536 Q657.662 854.101 659.54 850.049 Q662.158 844.022 668.334 844.022 Q669.643 844.022 671.002 844.392 Q672.385 844.738 674.115 846.097 Q675.869 847.455 676.931 849.679 Q678.956 853.977 678.956 861.536 Q678.956 868.923 677.079 872.949 Q674.337 878.829 668.285 878.829 Q666.012 878.829 663.69 877.668 Q661.392 876.507 659.935 873.715 Q657.662 869.54 657.662 861.536 M661.862 860.919 Q661.862 868.552 662.405 871.591 Q663.023 874.876 664.703 876.309 Q666.407 877.717 668.285 877.717 Q670.31 877.717 671.99 876.21 Q673.695 874.678 674.213 871.393 Q674.782 868.157 674.757 860.919 Q674.757 853.878 674.263 851.062 Q673.596 847.777 671.817 846.467 Q670.063 845.133 668.285 845.133 Q667.618 845.133 666.901 845.331 Q666.21 845.529 665.197 846.097 Q664.184 846.665 663.393 848.073 Q662.628 849.481 662.257 851.606 Q661.862 854.348 661.862 860.919 Z" fill="#000000" fill-rule="nonzero" fill-opacity="1" /><path clip-path="url(#clip820)" d="M916.169 848.839 L916.169 847.258 Q922.246 847.258 925.383 844.022 Q926.247 844.022 926.396 844.219 Q926.544 844.417 926.544 845.331 L926.544 873.715 Q926.544 875.222 927.285 875.691 Q928.026 876.161 931.262 876.161 L932.868 876.161 L932.868 877.717 Q931.089 877.569 924.666 877.569 Q918.244 877.569 916.49 877.717 L916.49 876.161 L918.095 876.161 Q921.282 876.161 922.048 875.716 Q922.814 875.247 922.814 873.715 L922.814 847.505 Q920.17 848.839 916.169 848.839 Z" fill="#000000" fill-rule="nonzero" fill-opacity="1" /><path clip-path="url(#clip820)" d="M938.945 861.536 Q938.945 854.101 940.822 850.049 Q943.441 844.022 949.617 844.022 Q950.926 844.022 952.285 844.392 Q953.668 844.738 955.397 846.097 Q957.151 847.455 958.214 849.679 Q960.239 853.977 960.239 861.536 Q960.239 868.923 958.362 872.949 Q955.62 878.829 949.567 878.829 Q947.295 878.829 944.973 877.668 Q942.675 876.507 941.218 873.715 Q938.945 869.54 938.945 861.536 M943.145 860.919 Q943.145 868.552 943.688 871.591 Q944.306 874.876 945.985 876.309 Q947.69 877.717 949.567 877.717 Q951.593 877.717 953.273 876.21 Q954.977 874.678 955.496 871.393 Q956.064 868.157 956.04 860.919 Q956.04 853.878 955.546 851.062 Q954.879 847.777 953.1 846.467 Q951.346 845.133 949.567 845.133 Q948.9 845.133 948.184 845.331 Q947.492 845.529 946.48 846.097 Q945.467 846.665 944.676 848.073 Q943.91 849.481 943.54 851.606 Q943.145 854.348 943.145 860.919 Z" fill="#000000" fill-rule="nonzero" fill-opacity="1" /><path clip-path="url(#clip820)" d="M964.241 861.536 Q964.241 854.101 966.119 850.049 Q968.737 844.022 974.913 844.022 Q976.222 844.022 977.581 844.392 Q978.964 844.738 980.694 846.097 Q982.448 847.455 983.51 849.679 Q985.536 853.977 985.536 861.536 Q985.536 868.923 983.658 872.949 Q980.916 878.829 974.864 878.829 Q972.591 878.829 970.269 877.668 Q967.971 876.507 966.514 873.715 Q964.241 869.54 964.241 861.536 M968.441 860.919 Q968.441 868.552 968.984 871.591 Q969.602 874.876 971.282 876.309 Q972.986 877.717 974.864 877.717 Q976.889 877.717 978.569 876.21 Q980.274 874.678 980.793 871.393 Q981.361 868.157 981.336 860.919 Q981.336 853.878 980.842 851.062 Q980.175 847.777 978.396 846.467 Q976.642 845.133 974.864 845.133 Q974.197 845.133 973.48 845.331 Q972.789 845.529 971.776 846.097 Q970.763 846.665 969.972 848.073 Q969.207 849.481 968.836 851.606 Q968.441 854.348 968.441 860.919 Z" fill="#000000" fill-rule="nonzero" fill-opacity="1" /><path clip-path="url(#clip820)" d="M989.537 861.536 Q989.537 854.101 991.415 850.049 Q994.034 844.022 1000.21 844.022 Q1001.52 844.022 1002.88 844.392 Q1004.26 844.738 1005.99 846.097 Q1007.74 847.455 1008.81 849.679 Q1010.83 853.977 1010.83 861.536 Q1010.83 868.923 1008.95 872.949 Q1006.21 878.829 1000.16 878.829 Q997.887 878.829 995.565 877.668 Q993.268 876.507 991.81 873.715 Q989.537 869.54 989.537 861.536 M993.737 860.919 Q993.737 868.552 994.281 871.591 Q994.898 874.876 996.578 876.309 Q998.282 877.717 1000.16 877.717 Q1002.19 877.717 1003.87 876.21 Q1005.57 874.678 1006.09 871.393 Q1006.66 868.157 1006.63 860.919 Q1006.63 853.878 1006.14 851.062 Q1005.47 847.777 1003.69 846.467 Q1001.94 845.133 1000.16 845.133 Q999.493 845.133 998.777 845.331 Q998.085 845.529 997.072 846.097 Q996.059 846.665 995.269 848.073 Q994.503 849.481 994.132 851.606 Q993.737 854.348 993.737 860.919 Z" fill="#000000" fill-rule="nonzero" fill-opacity="1" /><path clip-path="url(#clip820)" d="M1014.83 861.536 Q1014.83 854.101 1016.71 850.049 Q1019.33 844.022 1025.51 844.022 Q1026.81 844.022 1028.17 844.392 Q1029.56 844.738 1031.29 846.097 Q1033.04 847.455 1034.1 849.679 Q1036.13 853.977 1036.13 861.536 Q1036.13 868.923 1034.25 872.949 Q1031.51 878.829 1025.46 878.829 Q1023.18 878.829 1020.86 877.668 Q1018.56 876.507 1017.11 873.715 Q1014.83 869.54 1014.83 861.536 M1019.03 860.919 Q1019.03 868.552 1019.58 871.591 Q1020.19 874.876 1021.87 876.309 Q1023.58 877.717 1025.46 877.717 Q1027.48 877.717 1029.16 876.21 Q1030.87 874.678 1031.38 871.393 Q1031.95 868.157 1031.93 860.919 Q1031.93 853.878 1031.43 851.062 Q1030.77 847.777 1028.99 846.467 Q1027.23 845.133 1025.46 845.133 Q1024.79 845.133 1024.07 845.331 Q1023.38 845.529 1022.37 846.097 Q1021.36 846.665 1020.56 848.073 Q1019.8 849.481 1019.43 851.606 Q1019.03 854.348 1019.03 860.919 Z" fill="#000000" fill-rule="nonzero" fill-opacity="1" /><path clip-path="url(#clip820)" d="M1260.69 877.717 Q1260.69 876.803 1260.77 876.531 Q1260.86 876.259 1261.26 875.84 L1270.97 865.019 Q1276.28 859.041 1276.28 853.829 Q1276.28 850.444 1274.5 848.024 Q1272.75 845.603 1269.51 845.603 Q1267.29 845.603 1265.41 846.961 Q1263.53 848.32 1262.67 850.741 Q1262.82 850.692 1263.34 850.692 Q1264.6 850.692 1265.29 851.482 Q1266 852.273 1266 853.335 Q1266 854.693 1265.11 855.36 Q1264.25 856.003 1263.38 856.003 Q1263.04 856.003 1262.57 855.929 Q1262.12 855.855 1261.41 855.163 Q1260.69 854.446 1260.69 853.187 Q1260.69 849.654 1263.36 846.838 Q1266.05 844.022 1270.15 844.022 Q1274.8 844.022 1277.84 846.788 Q1280.9 849.53 1280.9 853.829 Q1280.9 855.336 1280.43 856.719 Q1279.99 858.078 1279.37 859.14 Q1278.77 860.202 1277.14 861.907 Q1275.51 863.611 1274.2 864.822 Q1272.9 866.032 1269.96 868.601 L1264.6 873.814 L1273.71 873.814 Q1278.16 873.814 1278.5 873.419 Q1279 872.702 1279.61 868.923 L1280.9 868.923 L1279.47 877.717 L1260.69 877.717 Z" fill="#000000" fill-rule="nonzero" fill-opacity="1" /><path clip-path="url(#clip820)" d="M1285.44 861.536 Q1285.44 854.101 1287.32 850.049 Q1289.94 844.022 1296.12 844.022 Q1297.43 844.022 1298.78 844.392 Q1300.17 844.738 1301.9 846.097 Q1303.65 847.455 1304.71 849.679 Q1306.74 853.977 1306.74 861.536 Q1306.74 868.923 1304.86 872.949 Q1302.12 878.829 1296.07 878.829 Q1293.79 878.829 1291.47 877.668 Q1289.17 876.507 1287.72 873.715 Q1285.44 869.54 1285.44 861.536 M1289.64 860.919 Q1289.64 868.552 1290.19 871.591 Q1290.81 874.876 1292.49 876.309 Q1294.19 877.717 1296.07 877.717 Q1298.09 877.717 1299.77 876.21 Q1301.48 874.678 1302 871.393 Q1302.56 868.157 1302.54 860.919 Q1302.54 853.878 1302.05 851.062 Q1301.38 847.777 1299.6 846.467 Q1297.85 845.133 1296.07 845.133 Q1295.4 845.133 1294.68 845.331 Q1293.99 845.529 1292.98 846.097 Q1291.97 846.665 1291.18 848.073 Q1290.41 849.481 1290.04 851.606 Q1289.64 854.348 1289.64 860.919 Z" fill="#000000" fill-rule="nonzero" fill-opacity="1" /><path clip-path="url(#clip820)" d="M1310.74 861.536 Q1310.74 854.101 1312.62 850.049 Q1315.24 844.022 1321.41 844.022 Q1322.72 844.022 1324.08 844.392 Q1325.46 844.738 1327.19 846.097 Q1328.95 847.455 1330.01 849.679 Q1332.04 853.977 1332.04 861.536 Q1332.04 868.923 1330.16 872.949 Q1327.42 878.829 1321.36 878.829 Q1319.09 878.829 1316.77 877.668 Q1314.47 876.507 1313.01 873.715 Q1310.74 869.54 1310.74 861.536 M1314.94 860.919 Q1314.94 868.552 1315.48 871.591 Q1316.1 874.876 1317.78 876.309 Q1319.49 877.717 1321.36 877.717 Q1323.39 877.717 1325.07 876.21 Q1326.77 874.678 1327.29 871.393 Q1327.86 868.157 1327.84 860.919 Q1327.84 853.878 1327.34 851.062 Q1326.67 847.777 1324.9 846.467 Q1323.14 845.133 1321.36 845.133 Q1320.7 845.133 1319.98 845.331 Q1319.29 845.529 1318.28 846.097 Q1317.26 846.665 1316.47 848.073 Q1315.71 849.481 1315.34 851.606 Q1314.94 854.348 1314.94 860.919 Z" fill="#000000" fill-rule="nonzero" fill-opacity="1" /><path clip-path="url(#clip820)" d="M1336.04 861.536 Q1336.04 854.101 1337.91 850.049 Q1340.53 844.022 1346.71 844.022 Q1348.02 844.022 1349.38 844.392 Q1350.76 844.738 1352.49 846.097 Q1354.24 847.455 1355.31 849.679 Q1357.33 853.977 1357.33 861.536 Q1357.33 868.923 1355.45 872.949 Q1352.71 878.829 1346.66 878.829 Q1344.39 878.829 1342.06 877.668 Q1339.77 876.507 1338.31 873.715 Q1336.04 869.54 1336.04 861.536 M1340.24 860.919 Q1340.24 868.552 1340.78 871.591 Q1341.4 874.876 1343.08 876.309 Q1344.78 877.717 1346.66 877.717 Q1348.69 877.717 1350.37 876.21 Q1352.07 874.678 1352.59 871.393 Q1353.16 868.157 1353.13 860.919 Q1353.13 853.878 1352.64 851.062 Q1351.97 847.777 1350.19 846.467 Q1348.44 845.133 1346.66 845.133 Q1345.99 845.133 1345.28 845.331 Q1344.58 845.529 1343.57 846.097 Q1342.56 846.665 1341.77 848.073 Q1341 849.481 1340.63 851.606 Q1340.24 854.348 1340.24 860.919 Z" fill="#000000" fill-rule="nonzero" fill-opacity="1" /><path clip-path="url(#clip820)" d="M1361.33 861.536 Q1361.33 854.101 1363.21 850.049 Q1365.83 844.022 1372.01 844.022 Q1373.31 844.022 1374.67 844.392 Q1376.06 844.738 1377.79 846.097 Q1379.54 847.455 1380.6 849.679 Q1382.63 853.977 1382.63 861.536 Q1382.63 868.923 1380.75 872.949 Q1378.01 878.829 1371.96 878.829 Q1369.68 878.829 1367.36 877.668 Q1365.06 876.507 1363.61 873.715 Q1361.33 869.54 1361.33 861.536 M1365.53 860.919 Q1365.53 868.552 1366.08 871.591 Q1366.69 874.876 1368.37 876.309 Q1370.08 877.717 1371.96 877.717 Q1373.98 877.717 1375.66 876.21 Q1377.37 874.678 1377.88 871.393 Q1378.45 868.157 1378.43 860.919 Q1378.43 853.878 1377.93 851.062 Q1377.27 847.777 1375.49 846.467 Q1373.73 845.133 1371.96 845.133 Q1371.29 845.133 1370.57 845.331 Q1369.88 845.529 1368.87 846.097 Q1367.86 846.665 1367.06 848.073 Q1366.3 849.481 1365.93 851.606 Q1365.53 854.348 1365.53 860.919 Z" fill="#000000" fill-rule="nonzero" fill-opacity="1" /><path clip-path="url(#clip820)" d="M539.332 953.181 L539.332 951.041 L540.996 951.041 Q544.767 951.041 545.616 950.43 Q546.499 949.784 546.499 947.746 L546.499 911.3 Q546.499 909.295 545.616 908.684 Q544.733 908.039 540.996 908.039 L539.332 908.039 L539.332 905.865 L578.496 905.865 L580.432 921.524 L578.7 921.524 Q578.224 917.549 577.579 915.274 Q576.968 912.964 575.439 911.198 Q573.945 909.431 571.465 908.752 Q569.019 908.039 565.045 908.039 L556.078 908.039 Q553.7 908.039 553.191 908.548 Q552.681 909.024 552.681 910.824 L552.681 927.502 L558.931 927.502 Q563.72 927.502 565.079 925.837 Q566.438 924.173 566.438 919.384 L568.204 919.384 L568.204 937.794 L566.438 937.794 Q566.438 933.072 565.079 931.374 Q563.72 929.676 558.931 929.676 L552.681 929.676 L552.681 948.256 Q552.681 950.056 553.191 950.566 Q553.734 951.041 556.078 951.041 L565.351 951.041 Q568.34 951.041 570.514 950.667 Q572.722 950.26 574.25 949.309 Q575.779 948.324 576.798 947.203 Q577.851 946.082 578.564 944.078 Q579.311 942.04 579.719 940.172 Q580.161 938.303 580.636 935.246 L582.368 935.246 L579.447 953.181 L539.332 953.181 Z" fill="#000000" fill-rule="nonzero" fill-opacity="1" /><path clip-path="url(#clip820)" d="M586.241 964.526 Q589.943 964.526 590.792 964.05 Q591.675 963.609 591.675 961.401 L591.675 928.827 Q591.675 926.517 590.792 925.939 Q589.943 925.362 586.241 925.362 L586.241 923.188 L596.261 922.441 L596.261 927.026 Q600.439 922.441 606.01 922.441 Q611.92 922.441 616.234 927.026 Q620.547 931.612 620.547 938.168 Q620.547 944.791 615.962 949.377 Q611.376 953.962 605.025 953.962 Q601.56 953.962 599.216 952.196 Q596.906 950.396 596.465 949.071 L596.465 949.716 L596.465 961.401 Q596.465 963.643 597.348 964.084 Q598.231 964.526 601.9 964.526 L601.9 966.666 Q594.597 966.462 594.053 966.462 Q593.374 966.462 586.241 966.666 L586.241 964.526 M596.465 945.267 Q596.465 946.32 596.601 946.693 Q596.77 947.067 597.45 948.188 Q600.201 952.4 604.685 952.4 Q604.719 952.4 604.753 952.4 Q608.727 952.4 611.75 948.358 Q614.773 944.282 614.773 938.168 Q614.773 932.325 612.022 928.249 Q609.27 924.173 605.466 924.173 Q602.749 924.173 600.371 925.634 Q597.993 927.094 596.465 929.744 L596.465 945.267 Z" fill="#000000" fill-rule="nonzero" fill-opacity="1" /><path clip-path="url(#clip820)" d="M625.201 953.181 L625.201 951.041 Q628.903 951.041 629.753 950.599 Q630.602 950.124 630.602 947.882 L630.602 929.166 Q630.602 926.585 629.719 925.973 Q628.869 925.362 625.473 925.362 L625.473 923.188 L635.187 922.441 L635.187 947.95 Q635.187 950.022 635.935 950.532 Q636.682 951.041 640.079 951.041 L640.079 953.181 Q632.979 952.977 632.844 952.977 Q631.892 952.977 625.201 953.181 M628.122 910.314 Q628.122 908.922 629.175 907.801 Q630.262 906.646 631.791 906.646 Q633.319 906.646 634.406 907.699 Q635.493 908.718 635.493 910.348 Q635.493 911.945 634.406 912.998 Q633.319 914.017 631.791 914.017 Q630.194 914.017 629.141 912.896 Q628.122 911.775 628.122 910.314 Z" fill="#000000" fill-rule="nonzero" fill-opacity="1" /><path clip-path="url(#clip820)" d="M644.46 952.264 L644.46 943.093 Q644.46 942.312 644.494 942.04 Q644.528 941.768 644.732 941.564 Q644.936 941.36 645.343 941.36 Q645.819 941.36 645.989 941.564 Q646.193 941.768 646.329 942.549 Q647.382 947.339 649.623 949.886 Q651.899 952.4 656.009 952.4 Q659.915 952.4 661.885 950.667 Q663.856 948.935 663.856 946.082 Q663.856 940.987 656.621 939.696 Q652.443 938.847 650.71 938.303 Q648.978 937.726 647.449 936.469 Q644.46 934.024 644.46 930.559 Q644.46 927.094 647.076 924.547 Q649.725 921.999 655.568 921.999 Q659.474 921.999 662.123 923.969 Q662.904 923.358 663.312 922.848 Q664.229 921.999 664.705 921.999 Q665.248 921.999 665.35 922.373 Q665.452 922.712 665.452 923.698 L665.452 930.695 Q665.452 931.476 665.418 931.748 Q665.384 932.019 665.18 932.223 Q664.976 932.393 664.535 932.393 Q663.754 932.393 663.72 931.748 Q663.176 923.324 655.568 923.324 Q651.458 923.324 649.623 924.92 Q647.789 926.483 647.789 928.623 Q647.789 929.812 648.333 930.729 Q648.91 931.612 649.623 932.155 Q650.371 932.665 651.729 933.174 Q653.088 933.65 653.903 933.82 Q654.752 933.99 656.349 934.329 Q661.919 935.382 664.263 937.658 Q667.184 940.579 667.184 944.282 Q667.184 948.392 664.399 951.177 Q661.614 953.962 656.009 953.962 Q651.492 953.962 648.333 950.939 Q647.925 951.347 647.619 951.72 Q647.314 952.06 647.178 952.196 Q647.076 952.332 647.042 952.434 Q647.008 952.502 646.94 952.57 Q645.547 953.962 645.208 953.962 Q644.664 953.962 644.562 953.589 Q644.46 953.249 644.46 952.264 Z" fill="#000000" fill-rule="nonzero" fill-opacity="1" /><path clip-path="url(#clip820)" d="M676.05 949.445 Q671.464 944.893 671.464 938.303 Q671.464 931.68 675.948 926.856 Q680.465 921.999 686.919 921.999 Q693.237 921.999 697.755 926.823 Q702.306 931.612 702.306 938.303 Q702.306 944.859 697.721 949.411 Q693.169 953.962 686.851 953.962 Q680.669 953.962 676.05 949.445 M677.239 937.726 Q677.239 944.485 679.005 947.542 Q681.722 952.196 686.919 952.196 Q689.501 952.196 691.641 950.803 Q693.815 949.411 695.003 947.067 Q696.532 944.01 696.532 937.726 Q696.532 931.034 694.698 928.079 Q691.98 923.562 686.851 923.562 Q684.609 923.562 682.402 924.751 Q680.228 925.905 678.903 928.215 Q677.239 931.272 677.239 937.726 Z" fill="#000000" fill-rule="nonzero" fill-opacity="1" /><path clip-path="url(#clip820)" d="M708.624 938.235 Q708.624 931.612 713.244 927.026 Q717.863 922.441 724.113 922.441 Q729.412 922.441 732.877 926.755 L732.877 911.707 Q732.877 909.126 731.96 908.48 Q731.076 907.835 727.476 907.835 L727.476 905.661 L737.496 904.914 L737.496 947.135 Q737.496 949.716 738.379 950.396 Q739.297 951.041 742.897 951.041 L742.897 953.181 L732.673 953.962 L732.673 949.343 Q729.072 953.928 723.366 953.962 Q717.388 953.962 713.006 949.377 Q708.624 944.791 708.624 938.235 M714.399 938.303 Q714.399 944.757 716.403 947.95 Q719.188 952.4 723.706 952.4 Q728.869 952.4 731.926 947.542 Q732.707 946.354 732.673 944.961 L732.673 930.695 Q732.673 929.302 731.926 928.147 Q729.072 923.969 724.419 923.969 Q719.562 923.969 716.539 928.419 Q714.399 931.748 714.399 938.303 Z" fill="#000000" fill-rule="nonzero" fill-opacity="1" /><path clip-path="url(#clip820)" d="M746.769 937.862 Q746.769 931.306 750.981 926.653 Q755.193 921.999 761.239 921.999 Q767.353 921.999 770.512 925.973 Q773.705 929.947 773.705 935.654 Q773.705 936.707 773.433 936.911 Q773.162 937.115 771.973 937.115 L752.544 937.115 Q752.544 944.214 754.65 947.542 Q757.571 952.196 762.496 952.196 Q763.175 952.196 763.991 952.06 Q764.806 951.924 766.47 951.347 Q768.135 950.735 769.595 949.139 Q771.056 947.542 771.905 945.029 Q772.109 944.044 772.788 944.078 Q773.705 944.078 773.705 944.893 Q773.705 945.504 773.026 946.897 Q772.38 948.256 771.124 949.886 Q769.867 951.517 767.421 952.739 Q765.01 953.962 762.088 953.962 Q755.974 953.962 751.355 949.343 Q746.769 944.689 746.769 937.862 M752.612 935.654 L769.12 935.654 Q769.12 934.193 768.848 932.563 Q768.61 930.933 767.863 928.691 Q767.15 926.415 765.451 924.988 Q763.753 923.562 761.239 923.562 Q760.118 923.562 758.896 924.037 Q757.707 924.513 756.246 925.668 Q754.786 926.823 753.767 929.438 Q752.748 932.053 752.612 935.654 Z" fill="#000000" fill-rule="nonzero" fill-opacity="1" /><path clip-path="url(#clip820)" d="M778.019 952.264 L778.019 943.093 Q778.019 942.312 778.053 942.04 Q778.087 941.768 778.291 941.564 Q778.495 941.36 778.902 941.36 Q779.378 941.36 779.548 941.564 Q779.751 941.768 779.887 942.549 Q780.94 947.339 783.182 949.886 Q785.458 952.4 789.568 952.4 Q793.474 952.4 795.444 950.667 Q797.414 948.935 797.414 946.082 Q797.414 940.987 790.179 939.696 Q786.001 938.847 784.269 938.303 Q782.537 937.726 781.008 936.469 Q778.019 934.024 778.019 930.559 Q778.019 927.094 780.635 924.547 Q783.284 921.999 789.126 921.999 Q793.033 921.999 795.682 923.969 Q796.463 923.358 796.871 922.848 Q797.788 921.999 798.263 921.999 Q798.807 921.999 798.909 922.373 Q799.011 922.712 799.011 923.698 L799.011 930.695 Q799.011 931.476 798.977 931.748 Q798.943 932.019 798.739 932.223 Q798.535 932.393 798.094 932.393 Q797.312 932.393 797.278 931.748 Q796.735 923.324 789.126 923.324 Q785.016 923.324 783.182 924.92 Q781.348 926.483 781.348 928.623 Q781.348 929.812 781.891 930.729 Q782.469 931.612 783.182 932.155 Q783.929 932.665 785.288 933.174 Q786.647 933.65 787.462 933.82 Q788.311 933.99 789.908 934.329 Q795.478 935.382 797.822 937.658 Q800.743 940.579 800.743 944.282 Q800.743 948.392 797.958 951.177 Q795.172 953.962 789.568 953.962 Q785.05 953.962 781.891 950.939 Q781.484 951.347 781.178 951.72 Q780.872 952.06 780.736 952.196 Q780.635 952.332 780.601 952.434 Q780.567 952.502 780.499 952.57 Q779.106 953.962 778.766 953.962 Q778.223 953.962 778.121 953.589 Q778.019 953.249 778.019 952.264 Z" fill="#000000" fill-rule="nonzero" fill-opacity="1" /><path clip-path="url(#clip820)" d="M828.155 964.526 Q831.857 964.526 832.706 964.05 Q833.589 963.609 833.589 961.401 L833.589 928.827 Q833.589 926.517 832.706 925.939 Q831.857 925.362 828.155 925.362 L828.155 923.188 L838.175 922.441 L838.175 927.026 Q842.353 922.441 847.923 922.441 Q853.834 922.441 858.147 927.026 Q862.461 931.612 862.461 938.168 Q862.461 944.791 857.876 949.377 Q853.29 953.962 846.938 953.962 Q843.474 953.962 841.13 952.196 Q838.82 950.396 838.379 949.071 L838.379 949.716 L838.379 961.401 Q838.379 963.643 839.262 964.084 Q840.145 964.526 843.813 964.526 L843.813 966.666 Q836.51 966.462 835.967 966.462 Q835.288 966.462 828.155 966.666 L828.155 964.526 M838.379 945.267 Q838.379 946.32 838.514 946.693 Q838.684 947.067 839.364 948.188 Q842.115 952.4 846.599 952.4 Q846.633 952.4 846.667 952.4 Q850.641 952.4 853.664 948.358 Q856.687 944.282 856.687 938.168 Q856.687 932.325 853.936 928.249 Q851.184 924.173 847.38 924.173 Q844.663 924.173 842.285 925.634 Q839.907 927.094 838.379 929.744 L838.379 945.267 Z" fill="#000000" fill-rule="nonzero" fill-opacity="1" /><path clip-path="url(#clip820)" d="M868.677 937.862 Q868.677 931.306 872.889 926.653 Q877.101 921.999 883.147 921.999 Q889.261 921.999 892.42 925.973 Q895.613 929.947 895.613 935.654 Q895.613 936.707 895.341 936.911 Q895.07 937.115 893.881 937.115 L874.452 937.115 Q874.452 944.214 876.558 947.542 Q879.479 952.196 884.404 952.196 Q885.083 952.196 885.899 952.06 Q886.714 951.924 888.378 951.347 Q890.043 950.735 891.503 949.139 Q892.964 947.542 893.813 945.029 Q894.017 944.044 894.696 944.078 Q895.613 944.078 895.613 944.893 Q895.613 945.504 894.934 946.897 Q894.288 948.256 893.032 949.886 Q891.775 951.517 889.329 952.739 Q886.918 953.962 883.996 953.962 Q877.882 953.962 873.263 949.343 Q868.677 944.689 868.677 937.862 M874.52 935.654 L891.028 935.654 Q891.028 934.193 890.756 932.563 Q890.518 930.933 889.771 928.691 Q889.058 926.415 887.359 924.988 Q885.661 923.562 883.147 923.562 Q882.026 923.562 880.804 924.037 Q879.615 924.513 878.154 925.668 Q876.694 926.823 875.675 929.438 Q874.655 932.053 874.52 935.654 Z" fill="#000000" fill-rule="nonzero" fill-opacity="1" /><path clip-path="url(#clip820)" d="M899.553 953.181 L899.553 951.041 Q903.256 951.041 904.105 950.599 Q904.988 950.124 904.988 947.882 L904.988 929.234 Q904.988 926.653 904.071 926.007 Q903.188 925.362 899.553 925.362 L899.553 923.188 L909.234 922.441 L909.234 930.083 Q910.219 927.094 912.291 924.784 Q914.397 922.441 917.794 922.441 Q920.036 922.441 921.462 923.698 Q922.923 924.954 922.923 926.687 Q922.923 928.215 921.972 928.996 Q921.055 929.744 919.934 929.744 Q918.677 929.744 917.794 928.962 Q916.945 928.147 916.945 926.755 Q916.945 925.905 917.318 925.26 Q917.726 924.581 918.032 924.343 Q918.337 924.105 918.541 924.037 Q918.405 923.969 917.794 923.969 Q913.955 923.969 911.748 927.808 Q909.574 931.612 909.574 937.047 L909.574 947.746 Q909.574 949.75 910.389 950.396 Q911.238 951.041 914.873 951.041 L916.333 951.041 L916.333 953.181 Q913.548 952.977 907.502 952.977 Q906.653 952.977 905.328 953.011 Q904.003 953.045 902.271 953.113 Q900.538 953.181 899.553 953.181 Z" fill="#000000" fill-rule="nonzero" fill-opacity="1" /><path clip-path="url(#clip820)" d="M950.164 925.362 L950.164 923.188 L960.389 922.441 L960.389 945.538 Q960.389 947.203 960.524 948.188 Q960.66 949.139 961.204 950.26 Q961.781 951.381 963.072 951.89 Q964.397 952.4 966.503 952.4 Q970.273 952.4 972.583 949.309 Q974.926 946.218 974.926 941.632 L974.926 929.234 Q974.926 926.653 974.009 926.007 Q973.092 925.362 969.492 925.362 L969.492 923.188 L979.716 922.441 L979.716 947.135 Q979.716 949.716 980.599 950.396 Q981.516 951.041 985.151 951.041 L985.151 953.181 L975.13 953.962 L975.13 947.678 Q972.209 953.928 966.163 953.962 Q963.106 953.962 961 953.181 Q958.928 952.4 957.875 951.449 Q956.822 950.464 956.245 948.595 Q955.701 946.727 955.633 945.572 Q955.565 944.417 955.565 942.176 L955.565 931.748 Q955.565 927.026 954.886 926.211 Q954.206 925.362 950.164 925.362 Z" fill="#000000" fill-rule="nonzero" fill-opacity="1" /><path clip-path="url(#clip820)" d="M988.751 953.181 L988.751 951.041 Q992.453 951.041 993.303 950.599 Q994.152 950.124 994.152 947.882 L994.152 929.234 Q994.152 926.653 993.235 926.007 Q992.352 925.362 988.751 925.362 L988.751 923.188 L998.534 922.441 L998.534 929.744 Q1001.79 922.441 1008.83 922.441 Q1014.06 922.441 1016.13 925.022 Q1017.66 926.755 1017.96 928.691 Q1018.3 930.627 1018.3 935.654 L1018.3 948.935 Q1018.37 950.396 1019.49 950.735 Q1020.61 951.041 1023.74 951.041 L1023.74 953.181 Q1016.64 952.977 1015.92 952.977 Q1015.38 952.977 1008.08 953.181 L1008.08 951.041 Q1011.78 951.041 1012.63 950.599 Q1013.51 950.124 1013.51 947.882 L1013.51 931.68 Q1013.51 928.147 1012.43 926.075 Q1011.34 923.969 1008.35 923.969 Q1004.75 923.969 1001.86 926.992 Q998.975 930.015 998.975 935.11 L998.975 947.882 Q998.975 950.124 999.824 950.599 Q1000.71 951.041 1004.38 951.041 L1004.38 953.181 Q997.277 952.977 996.597 952.977 Q996.054 952.977 988.751 953.181 Z" fill="#000000" fill-rule="nonzero" fill-opacity="1" /><path clip-path="url(#clip820)" d="M1027.41 953.181 L1027.41 951.041 Q1031.11 951.041 1031.96 950.599 Q1032.81 950.124 1032.81 947.882 L1032.81 929.166 Q1032.81 926.585 1031.92 925.973 Q1031.07 925.362 1027.68 925.362 L1027.68 923.188 L1037.39 922.441 L1037.39 947.95 Q1037.39 950.022 1038.14 950.532 Q1038.89 951.041 1042.28 951.041 L1042.28 953.181 Q1035.18 952.977 1035.05 952.977 Q1034.1 952.977 1027.41 953.181 M1030.33 910.314 Q1030.33 908.922 1031.38 907.801 Q1032.47 906.646 1034 906.646 Q1035.52 906.646 1036.61 907.699 Q1037.7 908.718 1037.7 910.348 Q1037.7 911.945 1036.61 912.998 Q1035.52 914.017 1034 914.017 Q1032.4 914.017 1031.35 912.896 Q1030.33 911.775 1030.33 910.314 Z" fill="#000000" fill-rule="nonzero" fill-opacity="1" /><path clip-path="url(#clip820)" d="M1045.68 925.362 L1045.68 923.833 Q1048.87 923.698 1050.98 921.456 Q1053.12 919.18 1053.83 916.395 Q1054.58 913.609 1054.65 910.382 L1056.38 910.382 L1056.38 923.188 L1066.33 923.188 L1066.33 925.362 L1056.38 925.362 L1056.38 944.689 Q1056.38 952.196 1061.07 952.196 Q1063.07 952.196 1064.4 950.158 Q1065.72 948.086 1065.72 944.417 L1065.72 940.579 L1067.45 940.579 L1067.45 944.553 Q1067.45 948.324 1065.72 951.143 Q1063.99 953.962 1060.56 953.962 Q1059.3 953.962 1058.04 953.623 Q1056.82 953.317 1055.19 952.502 Q1053.59 951.652 1052.58 949.614 Q1051.59 947.542 1051.59 944.553 L1051.59 925.362 L1045.68 925.362 Z" fill="#000000" fill-rule="nonzero" fill-opacity="1" /><polyline clip-path="url(#clip822)" style="stroke:#000000; stroke-linecap:round; stroke-linejoin:round; stroke-width:2; stroke-opacity:0.1; fill:none" points="254.029,812.734 1352.76,812.734 "/>
<polyline clip-path="url(#clip822)" style="stroke:#000000; stroke-linecap:round; stroke-linejoin:round; stroke-width:2; stroke-opacity:0.1; fill:none" points="254.029,636.354 1352.76,636.354 "/>
<polyline clip-path="url(#clip822)" style="stroke:#000000; stroke-linecap:round; stroke-linejoin:round; stroke-width:2; stroke-opacity:0.1; fill:none" points="254.029,459.974 1352.76,459.974 "/>
<polyline clip-path="url(#clip822)" style="stroke:#000000; stroke-linecap:round; stroke-linejoin:round; stroke-width:2; stroke-opacity:0.1; fill:none" points="254.029,283.594 1352.76,283.594 "/>
<polyline clip-path="url(#clip822)" style="stroke:#000000; stroke-linecap:round; stroke-linejoin:round; stroke-width:2; stroke-opacity:0.1; fill:none" points="254.029,107.213 1352.76,107.213 "/>
<polyline clip-path="url(#clip820)" style="stroke:#000000; stroke-linecap:round; stroke-linejoin:round; stroke-width:4; stroke-opacity:1; fill:none" points="254.029,823.317 254.029,47.2441 "/>
<polyline clip-path="url(#clip820)" style="stroke:#000000; stroke-linecap:round; stroke-linejoin:round; stroke-width:4; stroke-opacity:1; fill:none" points="254.029,812.734 272.927,812.734 "/>
<polyline clip-path="url(#clip820)" style="stroke:#000000; stroke-linecap:round; stroke-linejoin:round; stroke-width:4; stroke-opacity:1; fill:none" points="254.029,636.354 272.927,636.354 "/>
<polyline clip-path="url(#clip820)" style="stroke:#000000; stroke-linecap:round; stroke-linejoin:round; stroke-width:4; stroke-opacity:1; fill:none" points="254.029,459.974 272.927,459.974 "/>
<polyline clip-path="url(#clip820)" style="stroke:#000000; stroke-linecap:round; stroke-linejoin:round; stroke-width:4; stroke-opacity:1; fill:none" points="254.029,283.594 272.927,283.594 "/>
<polyline clip-path="url(#clip820)" style="stroke:#000000; stroke-linecap:round; stroke-linejoin:round; stroke-width:4; stroke-opacity:1; fill:none" points="254.029,107.213 272.927,107.213 "/>
<path clip-path="url(#clip820)" d="M156.053 816.65 Q156.35 816.946 156.35 817.366 Q156.35 817.786 156.053 818.082 Q155.757 818.379 155.337 818.379 L123.667 818.379 Q123.247 818.379 122.951 818.082 Q122.654 817.786 122.654 817.366 Q122.654 816.946 122.951 816.65 Q123.247 816.353 123.667 816.353 L155.337 816.353 Q155.757 816.353 156.053 816.65 Z" fill="#000000" fill-rule="nonzero" fill-opacity="1" /><path clip-path="url(#clip820)" d="M161.29 823.196 Q161.29 821.689 162.155 820.973 Q163.02 820.256 164.131 820.256 Q165.292 820.256 166.108 821.022 Q166.948 821.763 166.948 823.073 Q166.948 824.481 165.959 825.271 Q164.996 826.062 163.613 825.864 Q164.823 827.89 167.046 828.804 Q169.294 829.718 171.369 829.718 Q173.543 829.718 175.297 827.84 Q177.076 825.963 177.076 821.368 Q177.076 817.465 175.544 815.217 Q174.037 812.969 171.048 812.969 L168.825 812.969 Q168.059 812.969 167.837 812.895 Q167.615 812.821 167.615 812.401 Q167.615 811.907 168.38 811.808 Q169.146 811.808 170.357 811.66 Q173.296 811.561 174.853 809.016 Q176.261 806.645 176.261 803.26 Q176.261 800.173 174.779 798.888 Q173.321 797.579 171.419 797.579 Q169.64 797.579 167.689 798.32 Q165.737 799.061 164.675 800.716 Q167.812 800.716 167.812 803.26 Q167.812 804.372 167.096 805.113 Q166.404 805.83 165.243 805.83 Q164.131 805.83 163.39 805.138 Q162.649 804.421 162.649 803.211 Q162.649 800.321 165.218 798.32 Q167.812 796.319 171.617 796.319 Q175.371 796.319 178.138 798.295 Q180.93 800.271 180.93 803.31 Q180.93 806.299 178.953 808.745 Q176.977 811.19 173.84 812.203 Q177.694 812.969 179.991 815.587 Q182.288 818.181 182.288 821.368 Q182.288 825.321 179.176 828.236 Q176.063 831.126 171.518 831.126 Q167.318 831.126 164.304 828.853 Q161.29 826.58 161.29 823.196 Z" fill="#000000" fill-rule="nonzero" fill-opacity="1" /><path clip-path="url(#clip820)" d="M186.439 813.833 Q186.439 806.398 188.316 802.346 Q190.935 796.319 197.11 796.319 Q198.42 796.319 199.778 796.689 Q201.162 797.035 202.891 798.394 Q204.645 799.753 205.707 801.976 Q207.733 806.274 207.733 813.833 Q207.733 821.22 205.855 825.246 Q203.113 831.126 197.061 831.126 Q194.788 831.126 192.466 829.965 Q190.169 828.804 188.711 826.012 Q186.439 821.837 186.439 813.833 M190.638 813.216 Q190.638 820.849 191.182 823.888 Q191.799 827.173 193.479 828.606 Q195.184 830.014 197.061 830.014 Q199.087 830.014 200.766 828.507 Q202.471 826.976 202.99 823.69 Q203.558 820.454 203.533 813.216 Q203.533 806.175 203.039 803.359 Q202.372 800.074 200.594 798.764 Q198.84 797.43 197.061 797.43 Q196.394 797.43 195.678 797.628 Q194.986 797.826 193.973 798.394 Q192.96 798.962 192.17 800.37 Q191.404 801.778 191.033 803.903 Q190.638 806.645 190.638 813.216 Z" fill="#000000" fill-rule="nonzero" fill-opacity="1" /><path clip-path="url(#clip820)" d="M211.735 813.833 Q211.735 806.398 213.612 802.346 Q216.231 796.319 222.407 796.319 Q223.716 796.319 225.075 796.689 Q226.458 797.035 228.187 798.394 Q229.941 799.753 231.003 801.976 Q233.029 806.274 233.029 813.833 Q233.029 821.22 231.152 825.246 Q228.41 831.126 222.357 831.126 Q220.084 831.126 217.762 829.965 Q215.465 828.804 214.007 826.012 Q211.735 821.837 211.735 813.833 M215.934 813.216 Q215.934 820.849 216.478 823.888 Q217.095 827.173 218.775 828.606 Q220.48 830.014 222.357 830.014 Q224.383 830.014 226.063 828.507 Q227.767 826.976 228.286 823.69 Q228.854 820.454 228.829 813.216 Q228.829 806.175 228.335 803.359 Q227.668 800.074 225.89 798.764 Q224.136 797.43 222.357 797.43 Q221.69 797.43 220.974 797.628 Q220.282 797.826 219.269 798.394 Q218.256 798.962 217.466 800.37 Q216.7 801.778 216.33 803.903 Q215.934 806.645 215.934 813.216 Z" fill="#000000" fill-rule="nonzero" fill-opacity="1" /><path clip-path="url(#clip820)" d="M156.053 640.269 Q156.35 640.566 156.35 640.986 Q156.35 641.406 156.053 641.702 Q155.757 641.999 155.337 641.999 L123.667 641.999 Q123.247 641.999 122.951 641.702 Q122.654 641.406 122.654 640.986 Q122.654 640.566 122.951 640.269 Q123.247 639.973 123.667 639.973 L155.337 639.973 Q155.757 639.973 156.053 640.269 Z" fill="#000000" fill-rule="nonzero" fill-opacity="1" /><path clip-path="url(#clip820)" d="M161.686 653.634 Q161.686 652.72 161.76 652.448 Q161.859 652.176 162.254 651.757 L171.962 640.936 Q177.274 634.958 177.274 629.746 Q177.274 626.361 175.495 623.941 Q173.741 621.52 170.505 621.52 Q168.282 621.52 166.404 622.878 Q164.527 624.237 163.662 626.658 Q163.81 626.608 164.329 626.608 Q165.589 626.608 166.281 627.399 Q166.997 628.19 166.997 629.252 Q166.997 630.61 166.108 631.277 Q165.243 631.92 164.378 631.92 Q164.033 631.92 163.563 631.846 Q163.119 631.771 162.402 631.08 Q161.686 630.363 161.686 629.104 Q161.686 625.571 164.354 622.755 Q167.046 619.939 171.147 619.939 Q175.791 619.939 178.83 622.705 Q181.893 625.447 181.893 629.746 Q181.893 631.253 181.424 632.636 Q180.979 633.995 180.361 635.057 Q179.769 636.119 178.138 637.824 Q176.508 639.528 175.198 640.739 Q173.889 641.949 170.95 644.518 L165.589 649.731 L174.704 649.731 Q179.151 649.731 179.497 649.336 Q179.991 648.619 180.609 644.84 L181.893 644.84 L180.46 653.634 L161.686 653.634 Z" fill="#000000" fill-rule="nonzero" fill-opacity="1" /><path clip-path="url(#clip820)" d="M186.982 645.482 Q186.982 643.975 187.797 643.407 Q188.612 642.814 189.477 642.814 Q190.638 642.814 191.305 643.555 Q191.997 644.271 191.997 645.284 Q191.997 646.297 191.305 647.038 Q190.638 647.755 189.477 647.755 Q188.909 647.755 188.612 647.656 Q189.279 649.978 191.305 651.658 Q193.355 653.338 196.048 653.338 Q199.432 653.338 201.458 650.052 Q202.669 647.927 202.669 643.11 Q202.669 638.861 201.755 636.737 Q200.347 633.501 197.456 633.501 Q193.355 633.501 190.935 637.033 Q190.638 637.478 190.292 637.503 Q189.798 637.503 189.675 637.231 Q189.576 636.934 189.576 636.169 L189.576 621.198 Q189.576 619.988 190.07 619.988 Q190.268 619.988 190.687 620.136 Q193.874 621.544 197.407 621.569 Q201.038 621.569 204.299 620.087 Q204.546 619.939 204.694 619.939 Q205.188 619.939 205.213 620.507 Q205.213 620.704 204.793 621.297 Q204.398 621.865 203.533 622.631 Q202.669 623.372 201.557 624.089 Q200.445 624.805 198.815 625.299 Q197.209 625.769 195.431 625.769 Q193.306 625.769 191.132 625.102 L191.132 634.958 Q193.751 632.389 197.555 632.389 Q201.606 632.389 204.398 635.65 Q207.189 638.911 207.189 643.456 Q207.189 648.224 203.879 651.485 Q200.594 654.746 196.147 654.746 Q192.096 654.746 189.526 651.855 Q186.982 648.965 186.982 645.482 Z" fill="#000000" fill-rule="nonzero" fill-opacity="1" /><path clip-path="url(#clip820)" d="M211.735 637.453 Q211.735 630.018 213.612 625.966 Q216.231 619.939 222.407 619.939 Q223.716 619.939 225.075 620.309 Q226.458 620.655 228.187 622.014 Q229.941 623.372 231.003 625.596 Q233.029 629.894 233.029 637.453 Q233.029 644.84 231.152 648.866 Q228.41 654.746 222.357 654.746 Q220.084 654.746 217.762 653.585 Q215.465 652.424 214.007 649.632 Q211.735 645.457 211.735 637.453 M215.934 636.836 Q215.934 644.469 216.478 647.508 Q217.095 650.793 218.775 652.226 Q220.48 653.634 222.357 653.634 Q224.383 653.634 226.063 652.127 Q227.767 650.595 228.286 647.31 Q228.854 644.074 228.829 636.836 Q228.829 629.795 228.335 626.979 Q227.668 623.693 225.89 622.384 Q224.136 621.05 222.357 621.05 Q221.69 621.05 220.974 621.248 Q220.282 621.445 219.269 622.014 Q218.256 622.582 217.466 623.99 Q216.7 625.398 216.33 627.523 Q215.934 630.265 215.934 636.836 Z" fill="#000000" fill-rule="nonzero" fill-opacity="1" /><path clip-path="url(#clip820)" d="M156.053 463.889 Q156.35 464.186 156.35 464.606 Q156.35 465.026 156.053 465.322 Q155.757 465.618 155.337 465.618 L123.667 465.618 Q123.247 465.618 122.951 465.322 Q122.654 465.026 122.654 464.606 Q122.654 464.186 122.951 463.889 Q123.247 463.593 123.667 463.593 L155.337 463.593 Q155.757 463.593 156.053 463.889 Z" fill="#000000" fill-rule="nonzero" fill-opacity="1" /><path clip-path="url(#clip820)" d="M161.686 477.254 Q161.686 476.34 161.76 476.068 Q161.859 475.796 162.254 475.376 L171.962 464.556 Q177.274 458.578 177.274 453.366 Q177.274 449.981 175.495 447.56 Q173.741 445.139 170.505 445.139 Q168.282 445.139 166.404 446.498 Q164.527 447.857 163.662 450.278 Q163.81 450.228 164.329 450.228 Q165.589 450.228 166.281 451.019 Q166.997 451.809 166.997 452.872 Q166.997 454.23 166.108 454.897 Q165.243 455.54 164.378 455.54 Q164.033 455.54 163.563 455.465 Q163.119 455.391 162.402 454.7 Q161.686 453.983 161.686 452.723 Q161.686 449.191 164.354 446.375 Q167.046 443.558 171.147 443.558 Q175.791 443.558 178.83 446.325 Q181.893 449.067 181.893 453.366 Q181.893 454.873 181.424 456.256 Q180.979 457.615 180.361 458.677 Q179.769 459.739 178.138 461.444 Q176.508 463.148 175.198 464.359 Q173.889 465.569 170.95 468.138 L165.589 473.351 L174.704 473.351 Q179.151 473.351 179.497 472.955 Q179.991 472.239 180.609 468.459 L181.893 468.459 L180.46 477.254 L161.686 477.254 Z" fill="#000000" fill-rule="nonzero" fill-opacity="1" /><path clip-path="url(#clip820)" d="M186.439 461.073 Q186.439 453.637 188.316 449.586 Q190.935 443.558 197.11 443.558 Q198.42 443.558 199.778 443.929 Q201.162 444.275 202.891 445.633 Q204.645 446.992 205.707 449.215 Q207.733 453.514 207.733 461.073 Q207.733 468.459 205.855 472.486 Q203.113 478.365 197.061 478.365 Q194.788 478.365 192.466 477.204 Q190.169 476.043 188.711 473.252 Q186.439 469.077 186.439 461.073 M190.638 460.455 Q190.638 468.089 191.182 471.127 Q191.799 474.413 193.479 475.846 Q195.184 477.254 197.061 477.254 Q199.087 477.254 200.766 475.747 Q202.471 474.215 202.99 470.93 Q203.558 467.694 203.533 460.455 Q203.533 453.415 203.039 450.599 Q202.372 447.313 200.594 446.004 Q198.84 444.67 197.061 444.67 Q196.394 444.67 195.678 444.868 Q194.986 445.065 193.973 445.633 Q192.96 446.202 192.17 447.61 Q191.404 449.018 191.033 451.142 Q190.638 453.884 190.638 460.455 Z" fill="#000000" fill-rule="nonzero" fill-opacity="1" /><path clip-path="url(#clip820)" d="M211.735 461.073 Q211.735 453.637 213.612 449.586 Q216.231 443.558 222.407 443.558 Q223.716 443.558 225.075 443.929 Q226.458 444.275 228.187 445.633 Q229.941 446.992 231.003 449.215 Q233.029 453.514 233.029 461.073 Q233.029 468.459 231.152 472.486 Q228.41 478.365 222.357 478.365 Q220.084 478.365 217.762 477.204 Q215.465 476.043 214.007 473.252 Q211.735 469.077 211.735 461.073 M215.934 460.455 Q215.934 468.089 216.478 471.127 Q217.095 474.413 218.775 475.846 Q220.48 477.254 222.357 477.254 Q224.383 477.254 226.063 475.747 Q227.767 474.215 228.286 470.93 Q228.854 467.694 228.829 460.455 Q228.829 453.415 228.335 450.599 Q227.668 447.313 225.89 446.004 Q224.136 444.67 222.357 444.67 Q221.69 444.67 220.974 444.868 Q220.282 445.065 219.269 445.633 Q218.256 446.202 217.466 447.61 Q216.7 449.018 216.33 451.142 Q215.934 453.884 215.934 460.455 Z" fill="#000000" fill-rule="nonzero" fill-opacity="1" /><path clip-path="url(#clip820)" d="M156.053 287.509 Q156.35 287.805 156.35 288.225 Q156.35 288.645 156.053 288.942 Q155.757 289.238 155.337 289.238 L123.667 289.238 Q123.247 289.238 122.951 288.942 Q122.654 288.645 122.654 288.225 Q122.654 287.805 122.951 287.509 Q123.247 287.213 123.667 287.213 L155.337 287.213 Q155.757 287.213 156.053 287.509 Z" fill="#000000" fill-rule="nonzero" fill-opacity="1" /><path clip-path="url(#clip820)" d="M163.662 271.995 L163.662 270.414 Q169.739 270.414 172.876 267.178 Q173.741 267.178 173.889 267.376 Q174.037 267.573 174.037 268.487 L174.037 296.872 Q174.037 298.379 174.779 298.848 Q175.52 299.317 178.756 299.317 L180.361 299.317 L180.361 300.874 Q178.583 300.725 172.16 300.725 Q165.737 300.725 163.983 300.874 L163.983 299.317 L165.589 299.317 Q168.776 299.317 169.541 298.873 Q170.307 298.403 170.307 296.872 L170.307 270.661 Q167.664 271.995 163.662 271.995 Z" fill="#000000" fill-rule="nonzero" fill-opacity="1" /><path clip-path="url(#clip820)" d="M186.982 292.721 Q186.982 291.215 187.797 290.646 Q188.612 290.053 189.477 290.053 Q190.638 290.053 191.305 290.795 Q191.997 291.511 191.997 292.524 Q191.997 293.537 191.305 294.278 Q190.638 294.994 189.477 294.994 Q188.909 294.994 188.612 294.895 Q189.279 297.217 191.305 298.897 Q193.355 300.577 196.048 300.577 Q199.432 300.577 201.458 297.292 Q202.669 295.167 202.669 290.35 Q202.669 286.101 201.755 283.976 Q200.347 280.74 197.456 280.74 Q193.355 280.74 190.935 284.273 Q190.638 284.718 190.292 284.742 Q189.798 284.742 189.675 284.471 Q189.576 284.174 189.576 283.408 L189.576 268.438 Q189.576 267.228 190.07 267.228 Q190.268 267.228 190.687 267.376 Q193.874 268.784 197.407 268.809 Q201.038 268.809 204.299 267.326 Q204.546 267.178 204.694 267.178 Q205.188 267.178 205.213 267.746 Q205.213 267.944 204.793 268.537 Q204.398 269.105 203.533 269.871 Q202.669 270.612 201.557 271.328 Q200.445 272.045 198.815 272.539 Q197.209 273.008 195.431 273.008 Q193.306 273.008 191.132 272.341 L191.132 282.198 Q193.751 279.629 197.555 279.629 Q201.606 279.629 204.398 282.89 Q207.189 286.15 207.189 290.696 Q207.189 295.464 203.879 298.724 Q200.594 301.985 196.147 301.985 Q192.096 301.985 189.526 299.095 Q186.982 296.205 186.982 292.721 Z" fill="#000000" fill-rule="nonzero" fill-opacity="1" /><path clip-path="url(#clip820)" d="M211.735 284.693 Q211.735 277.257 213.612 273.206 Q216.231 267.178 222.407 267.178 Q223.716 267.178 225.075 267.549 Q226.458 267.895 228.187 269.253 Q229.941 270.612 231.003 272.835 Q233.029 277.134 233.029 284.693 Q233.029 292.079 231.152 296.106 Q228.41 301.985 222.357 301.985 Q220.084 301.985 217.762 300.824 Q215.465 299.663 214.007 296.872 Q211.735 292.697 211.735 284.693 M215.934 284.075 Q215.934 291.709 216.478 294.747 Q217.095 298.033 218.775 299.465 Q220.48 300.874 222.357 300.874 Q224.383 300.874 226.063 299.367 Q227.767 297.835 228.286 294.55 Q228.854 291.313 228.829 284.075 Q228.829 277.035 228.335 274.219 Q227.668 270.933 225.89 269.624 Q224.136 268.29 222.357 268.29 Q221.69 268.29 220.974 268.487 Q220.282 268.685 219.269 269.253 Q218.256 269.821 217.466 271.23 Q216.7 272.638 216.33 274.762 Q215.934 277.504 215.934 284.075 Z" fill="#000000" fill-rule="nonzero" fill-opacity="1" /><path clip-path="url(#clip820)" d="M156.053 111.129 Q156.35 111.425 156.35 111.845 Q156.35 112.265 156.053 112.562 Q155.757 112.858 155.337 112.858 L123.667 112.858 Q123.247 112.858 122.951 112.562 Q122.654 112.265 122.654 111.845 Q122.654 111.425 122.951 111.129 Q123.247 110.832 123.667 110.832 L155.337 110.832 Q155.757 110.832 156.053 111.129 Z" fill="#000000" fill-rule="nonzero" fill-opacity="1" /><path clip-path="url(#clip820)" d="M163.662 95.6151 L163.662 94.0341 Q169.739 94.0341 172.876 90.798 Q173.741 90.798 173.889 90.9956 Q174.037 91.1932 174.037 92.1073 L174.037 120.491 Q174.037 121.998 174.779 122.468 Q175.52 122.937 178.756 122.937 L180.361 122.937 L180.361 124.493 Q178.583 124.345 172.16 124.345 Q165.737 124.345 163.983 124.493 L163.983 122.937 L165.589 122.937 Q168.776 122.937 169.541 122.492 Q170.307 122.023 170.307 120.491 L170.307 94.2812 Q167.664 95.6151 163.662 95.6151 Z" fill="#000000" fill-rule="nonzero" fill-opacity="1" /><path clip-path="url(#clip820)" d="M186.439 108.313 Q186.439 100.877 188.316 96.8256 Q190.935 90.798 197.11 90.798 Q198.42 90.798 199.778 91.1685 Q201.162 91.5144 202.891 92.8731 Q204.645 94.2317 205.707 96.4551 Q207.733 100.753 207.733 108.313 Q207.733 115.699 205.855 119.726 Q203.113 125.605 197.061 125.605 Q194.788 125.605 192.466 124.444 Q190.169 123.283 188.711 120.491 Q186.439 116.317 186.439 108.313 M190.638 107.695 Q190.638 115.328 191.182 118.367 Q191.799 121.652 193.479 123.085 Q195.184 124.493 197.061 124.493 Q199.087 124.493 200.766 122.986 Q202.471 121.455 202.99 118.169 Q203.558 114.933 203.533 107.695 Q203.533 100.655 203.039 97.8384 Q202.372 94.5529 200.594 93.2436 Q198.84 91.9096 197.061 91.9096 Q196.394 91.9096 195.678 92.1073 Q194.986 92.3049 193.973 92.8731 Q192.96 93.4412 192.17 94.8493 Q191.404 96.2574 191.033 98.3819 Q190.638 101.124 190.638 107.695 Z" fill="#000000" fill-rule="nonzero" fill-opacity="1" /><path clip-path="url(#clip820)" d="M211.735 108.313 Q211.735 100.877 213.612 96.8256 Q216.231 90.798 222.407 90.798 Q223.716 90.798 225.075 91.1685 Q226.458 91.5144 228.187 92.8731 Q229.941 94.2317 231.003 96.4551 Q233.029 100.753 233.029 108.313 Q233.029 115.699 231.152 119.726 Q228.41 125.605 222.357 125.605 Q220.084 125.605 217.762 124.444 Q215.465 123.283 214.007 120.491 Q211.735 116.317 211.735 108.313 M215.934 107.695 Q215.934 115.328 216.478 118.367 Q217.095 121.652 218.775 123.085 Q220.48 124.493 222.357 124.493 Q224.383 124.493 226.063 122.986 Q227.767 121.455 228.286 118.169 Q228.854 114.933 228.829 107.695 Q228.829 100.655 228.335 97.8384 Q227.668 94.5529 225.89 93.2436 Q224.136 91.9096 222.357 91.9096 Q221.69 91.9096 220.974 92.1073 Q220.282 92.3049 219.269 92.8731 Q218.256 93.4412 217.466 94.8493 Q216.7 96.2574 216.33 98.3819 Q215.934 101.124 215.934 107.695 Z" fill="#000000" fill-rule="nonzero" fill-opacity="1" /><path clip-path="url(#clip820)" d="M55.9449 628.163 L40.32 626.838 L40.32 584.345 L55.9449 583.021 L55.9449 584.753 Q52.8199 585.025 51.0197 585.296 Q49.2194 585.534 47.521 586.146 Q45.7887 586.723 44.9735 587.47 Q44.1243 588.184 43.479 589.576 Q42.7996 590.969 42.6298 592.769 Q42.4599 594.569 42.4599 597.287 Q42.4599 600.48 42.5958 601.261 Q42.7996 602.11 43.411 602.314 Q43.9885 602.518 45.2452 602.518 L81.8958 602.518 Q83.2884 602.518 83.8659 602.246 Q84.4093 601.94 84.8509 600.344 Q85.2585 598.747 85.2585 595.215 L85.2585 592.429 L87.3984 592.429 Q87.1946 595.283 87.1946 605.643 Q87.1946 615.935 87.3984 618.788 L85.2585 618.788 L85.2585 616.003 Q85.2585 612.47 84.8509 610.874 Q84.4093 609.243 83.8659 608.971 Q83.2884 608.7 81.8958 608.7 L45.2452 608.7 Q44.2602 608.7 43.8526 608.768 Q43.445 608.836 43.1053 609.141 Q42.7317 609.447 42.5958 610.16 Q42.4599 610.84 42.4599 613.897 Q42.4599 616.614 42.6298 618.448 Q42.7996 620.248 43.479 621.641 Q44.1243 623.034 44.9735 623.781 Q45.7887 624.494 47.521 625.106 Q49.2194 625.683 51.0197 625.921 Q52.8199 626.159 55.9449 626.431 L55.9449 628.163 Z" fill="#000000" fill-rule="nonzero" fill-opacity="1" /><path clip-path="url(#clip820)" d="M83.6621 579.726 Q79.1105 584.311 72.5208 584.311 Q65.8973 584.311 61.0739 579.828 Q56.2166 575.31 56.2166 568.856 Q56.2166 562.538 61.04 558.021 Q65.8293 553.469 72.5208 553.469 Q79.0765 553.469 83.6281 558.055 Q88.1797 562.606 88.1797 568.924 Q88.1797 575.106 83.6621 579.726 M71.9434 578.537 Q78.7029 578.537 81.7599 576.771 Q86.4134 574.053 86.4134 568.856 Q86.4134 566.275 85.0207 564.135 Q83.6281 561.961 81.2844 560.772 Q78.2273 559.244 71.9434 559.244 Q65.2519 559.244 62.2967 561.078 Q57.7791 563.795 57.7791 568.924 Q57.7791 571.166 58.968 573.374 Q60.1228 575.548 62.4326 576.872 Q65.4897 578.537 71.9434 578.537 Z" fill="#000000" fill-rule="nonzero" fill-opacity="1" /><path clip-path="url(#clip820)" d="M59.5794 550.14 L58.0509 550.14 Q57.915 546.947 55.6732 544.841 Q53.3974 542.702 50.6121 541.988 Q47.8267 541.241 44.5999 541.173 L44.5999 539.441 L57.4055 539.441 L57.4055 529.488 L59.5794 529.488 L59.5794 539.441 L78.9067 539.441 Q86.4134 539.441 86.4134 534.753 Q86.4134 532.749 84.3754 531.424 Q82.3034 530.1 78.6349 530.1 L74.7966 530.1 L74.7966 528.367 L78.7708 528.367 Q82.5411 528.367 85.3604 530.1 Q88.1797 531.832 88.1797 535.263 Q88.1797 536.52 87.84 537.776 Q87.5343 538.999 86.7191 540.63 Q85.8699 542.226 83.8319 543.245 Q81.7599 544.23 78.7708 544.23 L59.5794 544.23 L59.5794 550.14 Z" fill="#000000" fill-rule="nonzero" fill-opacity="1" /><path clip-path="url(#clip820)" d="M80.7749 521.574 Q74.8646 521.574 71.7396 514.611 Q69.7355 510.433 69.226 501.805 L66.6785 501.805 Q62.3647 501.805 60.0889 504.081 Q57.7791 506.323 57.7791 509.176 Q57.7791 514.271 60.972 516.717 Q61.04 514.645 62.0929 513.897 Q63.112 513.15 64.1649 513.15 Q65.5576 513.15 66.4747 514.033 Q67.3578 514.882 67.3578 516.343 Q67.3578 517.736 66.5087 518.653 Q65.6255 519.57 64.097 519.57 Q60.7003 519.57 58.4585 516.513 Q56.2166 513.422 56.2166 509.04 Q56.2166 503.334 60.0549 499.529 Q61.2438 498.34 62.7723 497.763 Q64.3008 497.152 65.3198 497.084 Q66.3049 497.016 68.275 497.016 L82.1675 497.016 Q82.5751 497.016 83.2545 496.88 Q83.9338 496.744 84.8169 496.133 Q85.6661 495.487 85.6661 494.434 Q85.6661 491.921 81.2164 491.955 L77.3102 491.955 L77.3102 490.188 L81.2164 490.188 Q84.9188 490.188 86.3794 492.158 Q87.806 494.095 87.806 495.895 Q87.806 498.205 86.1077 499.665 Q84.4093 501.126 82.0996 501.33 Q84.749 502.383 86.4813 504.794 Q88.1797 507.172 88.1797 510.433 Q88.1797 512.946 87.5343 515.324 Q86.9229 517.668 85.1906 519.638 Q83.4243 521.574 80.7749 521.574 M80.7069 516.207 Q83.2884 516.207 84.9528 514.373 Q86.6172 512.539 86.6172 509.957 Q86.6172 507.036 84.3754 504.421 Q82.0996 501.805 77.6499 501.805 L70.6866 501.805 Q70.9584 509.516 74.0494 512.878 Q77.1064 516.207 80.7069 516.207 Z" fill="#000000" fill-rule="nonzero" fill-opacity="1" /><path clip-path="url(#clip820)" d="M87.3984 487.403 L85.2585 487.403 Q85.2585 483.701 84.8169 482.851 Q84.3414 482.002 82.0996 482.002 L45.9246 482.002 Q43.3431 482.002 42.6977 482.919 Q42.0523 483.803 42.0523 487.403 L39.8784 487.403 L39.1312 477.417 L82.0996 477.417 Q84.3414 477.417 84.8169 476.534 Q85.2585 475.65 85.2585 471.982 L87.3984 471.982 Q87.3984 472.831 87.3305 474.597 Q87.2626 476.364 87.2286 477.655 Q87.1946 478.945 87.1946 479.693 Q87.1946 480.508 87.3984 487.403 Z" fill="#000000" fill-rule="nonzero" fill-opacity="1" /><path clip-path="url(#clip820)" d="M87.3984 445.386 L85.2585 445.386 Q85.2585 441.683 84.8169 440.834 Q84.3414 439.951 82.0996 439.951 L63.4516 439.951 Q60.8701 439.951 60.2247 440.868 Q59.5794 441.751 59.5794 445.386 L57.4055 445.386 L56.6582 435.705 L64.3008 435.705 Q61.3117 434.72 59.0019 432.648 Q56.6582 430.542 56.6582 427.145 Q56.6582 424.904 57.915 423.477 Q59.1718 422.016 60.9041 422.016 Q62.4326 422.016 63.2139 422.967 Q63.9611 423.885 63.9611 425.005 Q63.9611 426.262 63.1799 427.145 Q62.3647 427.995 60.972 427.995 Q60.1228 427.995 59.4775 427.621 Q58.7981 427.213 58.5604 426.908 Q58.3226 426.602 58.2547 426.398 Q58.1867 426.534 58.1867 427.145 Q58.1867 430.984 62.025 433.192 Q65.8293 435.365 71.2641 435.365 L81.9637 435.365 Q83.9678 435.365 84.6131 434.55 Q85.2585 433.701 85.2585 430.067 L85.2585 428.606 L87.3984 428.606 Q87.1946 431.391 87.1946 437.437 Q87.1946 438.287 87.2286 439.611 Q87.2626 440.936 87.3305 442.668 Q87.3984 444.401 87.3984 445.386 Z" fill="#000000" fill-rule="nonzero" fill-opacity="1" /><path clip-path="url(#clip820)" d="M72.0793 418.212 Q65.5236 418.212 60.8701 414 Q56.2166 409.788 56.2166 403.742 Q56.2166 397.628 60.1908 394.469 Q64.1649 391.276 69.8714 391.276 Q70.9244 391.276 71.1282 391.548 Q71.332 391.82 71.332 393.008 L71.332 412.438 Q78.4311 412.438 81.7599 410.332 Q86.4134 407.411 86.4134 402.485 Q86.4134 401.806 86.2775 400.991 Q86.1417 400.176 85.5642 398.511 Q84.9528 396.847 83.3564 395.386 Q81.7599 393.926 79.2463 393.076 Q78.2613 392.873 78.2953 392.193 Q78.2953 391.276 79.1105 391.276 Q79.7219 391.276 81.1145 391.955 Q82.4732 392.601 84.1036 393.858 Q85.7341 395.114 86.9569 397.56 Q88.1797 399.972 88.1797 402.893 Q88.1797 409.007 83.5602 413.627 Q78.9067 418.212 72.0793 418.212 M69.8714 412.37 L69.8714 395.862 Q68.4108 395.862 66.7804 396.133 Q65.15 396.371 62.9082 397.118 Q60.6324 397.832 59.2057 399.53 Q57.7791 401.229 57.7791 403.742 Q57.7791 404.863 58.2547 406.086 Q58.7302 407.275 59.8851 408.735 Q61.04 410.196 63.6554 411.215 Q66.2709 412.234 69.8714 412.37 Z" fill="#000000" fill-rule="nonzero" fill-opacity="1" /><path clip-path="url(#clip820)" d="M59.5794 388.015 L57.4055 388.015 Q57.6093 384.245 57.6093 381.562 Q57.6093 380.237 57.4055 373.953 L59.5794 373.953 Q59.5794 378.063 61.4476 378.063 Q61.8552 378.063 62.7043 377.723 L81.2844 371.1 L64.4367 365.121 Q61.04 366.378 60.6324 366.718 Q59.5794 367.567 59.5794 371.1 L57.4055 371.1 Q57.6093 367.975 57.6093 364.918 Q57.6093 363.729 57.4055 357.683 L59.5794 357.683 Q59.5794 361.793 61.4476 361.793 Q61.7193 361.793 62.7723 361.453 L82.1675 354.558 L64.3687 348.24 Q63.4516 347.9 62.9082 347.866 Q61.3796 347.866 60.5305 348.953 Q59.6473 350.04 59.5794 351.908 L57.4055 351.908 Q57.6093 347.934 57.6093 345.454 Q57.6093 342.669 57.4055 340.359 L59.5794 340.359 Q59.7152 344.673 64.0291 346.202 L86.855 354.354 Q88.1118 355.135 88.1797 355.747 Q88.1797 356.664 86.855 357.139 L67.0861 364.238 L86.787 371.27 Q87.6362 371.541 87.9079 371.779 Q88.1797 372.017 88.1797 372.662 Q88.1797 373.274 87.806 373.545 Q87.4664 373.817 86.6172 374.123 L61.991 382.886 Q60.3946 383.498 59.987 384.415 Q59.5794 385.298 59.5794 388.015 Z" fill="#000000" fill-rule="nonzero" fill-opacity="1" /><path clip-path="url(#clip820)" d="M80.7749 338.084 Q74.8646 338.084 71.7396 331.12 Q69.7355 326.942 69.226 318.315 L66.6785 318.315 Q62.3647 318.315 60.0889 320.591 Q57.7791 322.832 57.7791 325.686 Q57.7791 330.781 60.972 333.226 Q61.04 331.154 62.0929 330.407 Q63.112 329.66 64.1649 329.66 Q65.5576 329.66 66.4747 330.543 Q67.3578 331.392 67.3578 332.853 Q67.3578 334.245 66.5087 335.162 Q65.6255 336.08 64.097 336.08 Q60.7003 336.08 58.4585 333.023 Q56.2166 329.932 56.2166 325.55 Q56.2166 319.843 60.0549 316.039 Q61.2438 314.85 62.7723 314.273 Q64.3008 313.661 65.3198 313.593 Q66.3049 313.525 68.275 313.525 L82.1675 313.525 Q82.5751 313.525 83.2545 313.39 Q83.9338 313.254 84.8169 312.642 Q85.6661 311.997 85.6661 310.944 Q85.6661 308.43 81.2164 308.464 L77.3102 308.464 L77.3102 306.698 L81.2164 306.698 Q84.9188 306.698 86.3794 308.668 Q87.806 310.604 87.806 312.404 Q87.806 314.714 86.1077 316.175 Q84.4093 317.635 82.0996 317.839 Q84.749 318.892 86.4813 321.304 Q88.1797 323.682 88.1797 326.942 Q88.1797 329.456 87.5343 331.834 Q86.9229 334.177 85.1906 336.148 Q83.4243 338.084 80.7749 338.084 M80.7069 332.717 Q83.2884 332.717 84.9528 330.883 Q86.6172 329.048 86.6172 326.467 Q86.6172 323.546 84.3754 320.93 Q82.0996 318.315 77.6499 318.315 L70.6866 318.315 Q70.9584 326.025 74.0494 329.388 Q77.1064 332.717 80.7069 332.717 Z" fill="#000000" fill-rule="nonzero" fill-opacity="1" /><path clip-path="url(#clip820)" d="M87.3984 304.286 L85.2585 304.286 Q85.2585 300.584 84.8169 299.735 Q84.3414 298.852 82.0996 298.852 L63.4516 298.852 Q60.8701 298.852 60.2247 299.769 Q59.5794 300.652 59.5794 304.286 L57.4055 304.286 L56.6582 294.606 L64.3008 294.606 Q61.3117 293.621 59.0019 291.549 Q56.6582 289.443 56.6582 286.046 Q56.6582 283.804 57.915 282.378 Q59.1718 280.917 60.9041 280.917 Q62.4326 280.917 63.2139 281.868 Q63.9611 282.785 63.9611 283.906 Q63.9611 285.163 63.1799 286.046 Q62.3647 286.895 60.972 286.895 Q60.1228 286.895 59.4775 286.522 Q58.7981 286.114 58.5604 285.808 Q58.3226 285.503 58.2547 285.299 Q58.1867 285.435 58.1867 286.046 Q58.1867 289.884 62.025 292.092 Q65.8293 294.266 71.2641 294.266 L81.9637 294.266 Q83.9678 294.266 84.6131 293.451 Q85.2585 292.602 85.2585 288.967 L85.2585 287.507 L87.3984 287.507 Q87.1946 290.292 87.1946 296.338 Q87.1946 297.187 87.2286 298.512 Q87.2626 299.837 87.3305 301.569 Q87.3984 303.301 87.3984 304.286 Z" fill="#000000" fill-rule="nonzero" fill-opacity="1" /><path clip-path="url(#clip820)" d="M72.4529 276.671 Q65.8293 276.671 61.2438 272.052 Q56.6582 267.432 56.6582 261.182 Q56.6582 255.883 60.972 252.419 L45.9246 252.419 Q43.3431 252.419 42.6977 253.336 Q42.0523 254.219 42.0523 257.819 L39.8784 257.819 L39.1312 247.799 L81.3523 247.799 Q83.9338 247.799 84.6131 246.916 Q85.2585 245.999 85.2585 242.398 L87.3984 242.398 L88.1797 252.622 L83.5602 252.622 Q88.1457 256.223 88.1797 261.929 Q88.1797 267.908 83.5941 272.289 Q79.0086 276.671 72.4529 276.671 M72.5208 270.897 Q78.9746 270.897 82.1675 268.893 Q86.6172 266.107 86.6172 261.59 Q86.6172 256.427 81.7599 253.37 Q80.5711 252.588 79.1784 252.622 L64.9122 252.622 Q63.5196 252.622 62.3647 253.37 Q58.1867 256.223 58.1867 260.876 Q58.1867 265.734 62.6364 268.757 Q65.9652 270.897 72.5208 270.897 Z" fill="#000000" fill-rule="nonzero" fill-opacity="1" /><polyline clip-path="url(#clip822)" style="stroke:#c0392b; stroke-linecap:round; stroke-linejoin:round; stroke-width:4; stroke-opacity:1; fill:none" points="285.125,471.63 630.637,401.672 976.148,415.229 1321.66,400.566 "/>
<path clip-path="url(#clip822)" d="M269.125 455.63 L269.125 487.63 L301.125 487.63 L301.125 455.63 L269.125 455.63 Z" fill="#c0392b" fill-rule="evenodd" fill-opacity="1" stroke="none"/>
<path clip-path="url(#clip822)" d="M614.637 385.672 L614.637 417.672 L646.637 417.672 L646.637 385.672 L614.637 385.672 Z" fill="#c0392b" fill-rule="evenodd" fill-opacity="1" stroke="none"/>
<path clip-path="url(#clip822)" d="M960.148 399.229 L960.148 431.229 L992.148 431.229 L992.148 399.229 L960.148 399.229 Z" fill="#c0392b" fill-rule="evenodd" fill-opacity="1" stroke="none"/>
<path clip-path="url(#clip822)" d="M1305.66 384.566 L1305.66 416.566 L1337.66 416.566 L1337.66 384.566 L1305.66 384.566 Z" fill="#c0392b" fill-rule="evenodd" fill-opacity="1" stroke="none"/>
</svg>
